<?xml version="1.0" standalone="no"?>
<!DOCTYPE svg PUBLIC "-//W3C//DTD SVG 20010904//EN"
 "http://www.w3.org/TR/2001/REC-SVG-20010904/DTD/svg10.dtd">
<svg version="1.0" xmlns="http://www.w3.org/2000/svg"
 width="2048.000000pt" height="2048.000000pt" viewBox="0 0 2048.000000 2048.000000"
 preserveAspectRatio="xMidYMid meet">
<metadata>
Created by potrace 1.14, written by Peter Selinger 2001-2017
</metadata>
<g transform="translate(0.000000,2048.000000) scale(0.100000,-0.100000)"
fill="#000000" stroke="none">
<path d="M10537 12359 c-99 -177 -203 -434 -266 -656 -78 -277 -119 -548 -128
-840 -3 -106 -9 -193 -12 -193 -3 0 -21 28 -38 63 -113 218 -298 414 -472 502
-56 28 -150 59 -157 52 -6 -6 15 -213 32 -312 63 -372 229 -708 469 -949 50
-50 114 -107 143 -126 28 -19 52 -40 52 -47 0 -6 -12 -21 -26 -32 -15 -12
-236 -227 -493 -478 -256 -251 -565 -554 -686 -672 -121 -119 -284 -279 -362
-356 l-143 -140 -192 191 c-106 104 -375 367 -598 585 -223 217 -531 518 -685
668 -154 151 -290 278 -303 284 -21 10 -30 3 -100 -64 -864 -842 -1400 -1365
-1534 -1497 l-166 -165 -160 154 c-88 85 -422 411 -743 725 -905 886 -860 843
-891 844 -19 0 -33 -8 -44 -25 -15 -23 -15 -27 -1 -49 9 -13 402 -401 874
-861 472 -461 875 -855 897 -877 30 -30 45 -38 67 -36 22 2 134 106 511 473
516 502 841 820 1110 1084 l167 164 343 -335 c1068 -1044 1405 -1372 1425
-1385 15 -10 27 -12 39 -5 10 5 411 394 892 863 481 470 878 854 882 854 4 0
402 -385 884 -855 482 -470 885 -858 897 -862 17 -7 34 4 92 59 113 107 1322
1287 1524 1486 l182 181 338 -329 c186 -181 424 -413 528 -516 961 -942 924
-910 972 -861 10 10 410 400 888 867 479 467 881 864 894 882 23 31 23 33 7
58 -13 20 -24 25 -46 23 -30 -3 -122 -91 -1079 -1028 -244 -239 -504 -493
-578 -564 l-135 -129 -181 180 c-100 99 -479 469 -842 823 -363 354 -679 663
-703 687 -23 23 -50 43 -58 43 -22 0 -32 -10 -869 -830 -582 -570 -918 -895
-925 -895 -10 0 -826 796 -1447 1409 -133 132 -249 244 -258 248 -24 14 -19
26 46 96 176 193 336 506 408 797 54 219 73 573 43 815 -31 246 -99 520 -183
736 -58 150 -59 150 -102 73z m81 -355 c70 -246 112 -530 112 -750 0 -377
-109 -765 -292 -1046 -57 -86 -194 -258 -206 -258 -21 0 -180 140 -242 212
-192 225 -314 479 -375 784 -26 129 -31 174 -16 174 16 0 134 -92 185 -144
168 -172 315 -469 381 -769 13 -64 20 -77 33 -73 9 3 34 8 55 12 28 5 36 10
33 23 -36 124 -44 768 -13 1001 45 331 138 668 259 933 22 47 34 64 39 54 5
-7 26 -76 47 -153z"/>
<path d="M14950 9901 l0 -791 140 0 140 0 0 326 0 326 253 -5 c162 -2 266 -8
292 -16 24 -8 59 -32 86 -60 62 -64 78 -126 88 -334 5 -111 13 -174 24 -199
l16 -38 150 0 150 0 -23 43 c-35 63 -46 123 -60 322 -14 195 -26 238 -82 304
-16 19 -55 46 -88 61 l-59 27 36 12 c61 20 132 94 174 179 38 75 38 77 38 196
-1 102 -4 130 -24 178 -29 75 -104 156 -174 191 -121 59 -133 60 -624 65
l-453 3 0 -790z m881 537 c47 -22 95 -78 108 -125 29 -103 3 -220 -59 -277
-65 -59 -109 -66 -397 -66 l-253 0 0 246 0 245 283 -3 c237 -3 288 -6 318 -20z"/>
<path d="M8225 10661 c-89 -25 -136 -44 -204 -88 -124 -78 -233 -211 -291
-356 -49 -124 -63 -205 -63 -367 0 -123 4 -159 26 -242 40 -152 104 -266 207
-369 72 -73 101 -94 180 -132 216 -104 464 -104 680 0 79 38 108 59 181 132
75 75 94 101 137 192 85 175 117 361 93 544 -36 268 -152 467 -350 596 -116
77 -206 102 -381 106 -119 2 -157 0 -215 -16z m296 -215 c86 -19 134 -43 201
-105 247 -226 227 -805 -34 -997 -154 -113 -382 -113 -536 0 -258 190 -283
747 -43 987 66 66 120 96 205 114 80 18 127 18 207 1z"/>
<path d="M11390 10510 l0 -120 250 0 250 0 0 -670 0 -670 140 0 140 0 0 670 0
670 250 0 250 0 0 120 0 120 -640 0 -640 0 0 -120z"/>
<path d="M4345 10599 c-3 -8 -4 -365 -3 -794 l3 -780 138 -3 137 -3 0 306 0
305 254 0 c288 0 367 10 466 60 82 41 140 97 179 170 77 143 79 356 6 506 -48
97 -162 184 -292 221 -80 22 -880 33 -888 12z m820 -242 c84 -38 126 -104 133
-212 2 -38 -1 -89 -7 -113 -15 -54 -69 -114 -129 -144 -45 -22 -56 -23 -292
-23 l-245 0 -3 245 c-1 134 0 251 3 258 4 11 52 13 252 10 211 -3 254 -6 288
-21z"/>
</g>
</svg>
