<svg width="452" height="154" viewBox="0 0 452 154" fill="none" xmlns="http://www.w3.org/2000/svg">
<mask id="path-1-outside-1_1760_897" maskUnits="userSpaceOnUse" x="-1" y="-1" width="454" height="156" fill="black">
<rect fill="white" x="-1" y="-1" width="454" height="156"/>
<path d="M25.6681 0.288359H58.3867L83.4198 154H59.2651L54.8733 123.477V123.916H27.4248L23.033 154H0.635057L25.6681 0.288359ZM52.0187 103.056L41.2588 27.0781H40.8197L30.2794 103.056H52.0187ZM129.175 0.288359H159.478L182.974 92.2958H183.413V0.288359H204.933V154H180.119L151.133 41.7905H150.694V154H129.175V0.288359ZM256.922 0.288359H293.813C305.817 0.288359 314.82 3.50899 320.822 9.95024C326.824 16.3915 329.825 25.8338 329.825 38.2771V116.011C329.825 128.455 326.824 137.897 320.822 144.338C314.82 150.779 305.817 154 293.813 154H256.922V0.288359ZM293.373 132.041C297.326 132.041 300.327 130.87 302.376 128.528C304.572 126.186 305.67 122.379 305.67 117.109V37.1792C305.67 31.909 304.572 28.1028 302.376 25.7606C300.327 23.4183 297.326 22.2472 293.373 22.2472H281.076V132.041H293.373ZM398.484 88.5628L369.279 0.288359H394.971L411.44 56.7225H411.879L428.348 0.288359H451.844L422.639 88.5628V154H398.484V88.5628Z"/>
</mask>
<path d="M25.6681 0.288361V-0.474098H25.0198L24.9156 0.165802L25.6681 0.288361ZM58.3867 0.288361L59.1393 0.165802L59.035 -0.474098H58.3867V0.288361ZM83.4198 154V154.762H84.3164L84.1723 153.877L83.4198 154ZM59.2651 154L58.5104 154.109L58.6045 154.762H59.2651V154ZM54.8733 123.477L55.628 123.369L54.1108 123.477H54.8733ZM54.8733 123.916V124.679H55.6358V123.916H54.8733ZM27.4248 123.916V123.154H26.7656L26.6703 123.806L27.4248 123.916ZM23.033 154V154.762H23.6923L23.7875 154.11L23.033 154ZM0.635056 154L-0.117488 153.877L-0.261619 154.762H0.635056V154ZM52.0187 103.056V103.818H52.8967L52.7736 102.949L52.0187 103.056ZM41.2588 27.0781L42.0138 26.9712L41.9209 26.3157H41.2588V27.0781ZM40.8197 27.0781V26.3157H40.1557L40.0644 26.9733L40.8197 27.0781ZM30.2794 103.056L29.5242 102.951L29.4039 103.818H30.2794V103.056ZM25.6681 1.05082H58.3867V-0.474098H25.6681V1.05082ZM57.6342 0.410915L82.6672 154.123L84.1723 153.877L59.1393 0.165802L57.6342 0.410915ZM83.4198 153.238H59.2651V154.762H83.4198V153.238ZM60.0198 153.891L55.628 123.369L54.1186 123.586L58.5104 154.109L60.0198 153.891ZM54.1108 123.477V123.916H55.6358V123.477H54.1108ZM54.8733 123.154H27.4248V124.679H54.8733V123.154ZM26.6703 123.806L22.2786 153.89L23.7875 154.11L28.1793 124.027L26.6703 123.806ZM23.033 153.238H0.635056V154.762H23.033V153.238ZM1.3876 154.123L26.4206 0.410915L24.9156 0.165802L-0.117488 153.877L1.3876 154.123ZM52.7736 102.949L42.0138 26.9712L40.5039 27.185L51.2637 103.162L52.7736 102.949ZM41.2588 26.3157H40.8197V27.8406H41.2588V26.3157ZM40.0644 26.9733L29.5242 102.951L31.0347 103.16L41.5749 27.1829L40.0644 26.9733ZM30.2794 103.818H52.0187V102.293H30.2794V103.818ZM129.175 0.288361V-0.474098H128.412V0.288361H129.175ZM159.478 0.288361L160.217 0.0997047L160.07 -0.474098H159.478V0.288361ZM182.974 92.2958L182.235 92.4844L182.382 93.0582H182.974V92.2958ZM183.413 92.2958V93.0582H184.175V92.2958H183.413ZM183.413 0.288361V-0.474098H182.65V0.288361H183.413ZM204.933 0.288361H205.695V-0.474098H204.933V0.288361ZM204.933 154V154.762H205.695V154H204.933ZM180.119 154L179.381 154.191L179.529 154.762H180.119V154ZM151.133 41.7905L151.872 41.5998L151.724 41.028H151.133V41.7905ZM150.694 41.7905V41.028H149.932V41.7905H150.694ZM150.694 154V154.762H151.457V154H150.694ZM129.175 154H128.412V154.762H129.175V154ZM129.175 1.05082H159.478V-0.474098H129.175V1.05082ZM158.739 0.477013L182.235 92.4844L183.713 92.1071L160.217 0.0997047L158.739 0.477013ZM182.974 93.0582H183.413V91.5333H182.974V93.0582ZM184.175 92.2958V0.288361H182.65V92.2958H184.175ZM183.413 1.05082H204.933V-0.474098H183.413V1.05082ZM204.17 0.288361V154H205.695V0.288361H204.17ZM204.933 153.238H180.119V154.762H204.933V153.238ZM180.857 153.809L151.872 41.5998L150.395 41.9812L179.381 154.191L180.857 153.809ZM151.133 41.028H150.694V42.553H151.133V41.028ZM149.932 41.7905V154H151.457V41.7905H149.932ZM150.694 153.238H129.175V154.762H150.694V153.238ZM129.937 154V0.288361H128.412V154H129.937ZM256.922 0.288361V-0.474098H256.159V0.288361H256.922ZM320.822 9.95024L320.264 10.47L320.822 9.95024ZM256.922 154H256.159V154.762H256.922V154ZM302.376 128.528L301.82 128.006L301.811 128.016L301.803 128.026L302.376 128.528ZM302.376 25.7606L301.803 26.2627L301.811 26.2725L301.82 26.2821L302.376 25.7606ZM281.076 22.2472V21.4847H280.314V22.2472H281.076ZM281.076 132.041H280.314V132.804H281.076V132.041ZM256.922 1.05082H293.813V-0.474098H256.922V1.05082ZM293.813 1.05082C305.685 1.05082 314.453 4.23353 320.264 10.47L321.38 9.43045C315.187 2.78444 305.949 -0.474098 293.813 -0.474098V1.05082ZM320.264 10.47C326.089 16.721 329.063 25.9469 329.063 38.2771H330.587C330.587 25.7206 327.559 16.062 321.38 9.43045L320.264 10.47ZM329.063 38.2771V116.011H330.587V38.2771H329.063ZM329.063 116.011C329.063 128.341 326.089 137.567 320.264 143.818L321.38 144.858C327.559 138.226 330.587 128.568 330.587 116.011H329.063ZM320.264 143.818C314.453 150.055 305.685 153.238 293.813 153.238V154.762C305.949 154.762 315.187 151.504 321.38 144.858L320.264 143.818ZM293.813 153.238H256.922V154.762H293.813V153.238ZM257.684 154V0.288361H256.159V154H257.684ZM293.373 132.804C297.482 132.804 300.719 131.58 302.95 129.03L301.803 128.026C299.935 130.16 297.17 131.279 293.373 131.279V132.804ZM302.933 129.049C305.324 126.499 306.433 122.456 306.433 117.109H304.908C304.908 122.303 303.821 125.872 301.82 128.006L302.933 129.049ZM306.433 117.109V37.1792H304.908V117.109H306.433ZM306.433 37.1792C306.433 31.8325 305.324 27.7897 302.933 25.2391L301.82 26.2821C303.821 28.416 304.908 31.9856 304.908 37.1792H306.433ZM302.95 25.2585C300.719 22.7082 297.482 21.4847 293.373 21.4847V23.0096C297.17 23.0096 299.935 24.1284 301.803 26.2627L302.95 25.2585ZM293.373 21.4847H281.076V23.0096H293.373V21.4847ZM280.314 22.2472V132.041H281.839V22.2472H280.314ZM281.076 132.804H293.373V131.279H281.076V132.804ZM398.484 88.5628H399.246V88.4399L399.208 88.3233L398.484 88.5628ZM369.279 0.288361V-0.474098H368.223L368.555 0.527847L369.279 0.288361ZM394.971 0.288361L395.703 0.0747604L395.542 -0.474098H394.971V0.288361ZM411.44 56.7225L410.708 56.9361L410.868 57.485H411.44V56.7225ZM411.879 56.7225V57.485H412.451L412.611 56.9361L411.879 56.7225ZM428.348 0.288361V-0.474098H427.776L427.616 0.0747604L428.348 0.288361ZM451.844 0.288361L452.568 0.527847L452.899 -0.474098H451.844V0.288361ZM422.639 88.5628L421.915 88.3233L421.876 88.4399V88.5628H422.639ZM422.639 154V154.762H423.401V154H422.639ZM398.484 154H397.722V154.762H398.484V154ZM399.208 88.3233L370.003 0.0488701L368.555 0.527847L397.76 88.8022L399.208 88.3233ZM369.279 1.05082H394.971V-0.474098H369.279V1.05082ZM394.239 0.501957L410.708 56.9361L412.172 56.5089L395.703 0.0747604L394.239 0.501957ZM411.44 57.485H411.879V55.96H411.44V57.485ZM412.611 56.9361L429.08 0.501957L427.616 0.0747604L411.147 56.5089L412.611 56.9361ZM428.348 1.05082H451.844V-0.474098H428.348V1.05082ZM451.12 0.0488701L421.915 88.3233L423.363 88.8022L452.568 0.527847L451.12 0.0488701ZM421.876 88.5628V154H423.401V88.5628H421.876ZM422.639 153.238H398.484V154.762H422.639V153.238ZM399.246 154V88.5628H397.722V154H399.246Z" fill="#03839E" mask="url(#path-1-outside-1_1760_897)"/>
</svg>
