<svg width="20" height="21" viewBox="0 0 20 21" fill="none" xmlns="http://www.w3.org/2000/svg">
<g id="Group">
<g id="Group_2">
<path id="Vector" d="M10 0C4.48602 0 0 4.52354 0 10.0836C0 15.6433 4.48602 20.1672 10 20.1672C15.5136 20.1672 20 15.6433 20 10.0836C20 4.52354 15.5144 0 10 0ZM14.461 7.77575C14.4655 7.87567 14.4679 7.9764 14.4679 8.07713C14.4679 11.1441 12.1534 14.6795 7.91871 14.6795C6.61887 14.6795 5.40885 14.2964 4.39056 13.6376C4.57061 13.6592 4.75389 13.6701 4.93958 13.6701C6.01829 13.6701 7.01039 13.2989 7.79828 12.6766C6.79127 12.6579 5.94095 11.9869 5.64811 11.0645C5.78829 11.0913 5.93289 11.1064 6.08072 11.1064C6.29058 11.1064 6.4944 11.0787 6.68734 11.0255C5.63442 10.8127 4.8413 9.87485 4.8413 8.74975C4.8413 8.74001 4.8413 8.72985 4.8417 8.72051C5.15186 8.89394 5.50673 8.99874 5.88375 9.01052C5.26666 8.595 4.86023 7.8842 4.86023 7.07917C4.86023 6.6535 4.97341 6.25464 5.17159 5.91183C6.30629 7.31637 8.0029 8.24001 9.91541 8.33749C9.87594 8.1673 9.8562 7.99062 9.8562 7.80825C9.8562 6.52678 10.8866 5.48738 12.1574 5.48738C12.8196 5.48738 13.417 5.76927 13.8375 6.22012C14.3624 6.11614 14.8538 5.92361 15.2997 5.65676C15.1265 6.199 14.7627 6.6535 14.2862 6.94107C14.7523 6.88502 15.197 6.76073 15.6082 6.57592C15.3013 7.04058 14.911 7.4496 14.461 7.77575Z" fill="black"/>
</g>
</g>
</svg>
