<svg width="21" height="20" viewBox="0 0 21 20" fill="none" xmlns="http://www.w3.org/2000/svg">
<path d="M10.2505 0C4.73651 0 0.250488 4.48602 0.250488 10C0.250488 15.5136 4.73651 20 10.2505 20C15.7641 20 20.2505 15.5136 20.2505 10C20.2505 4.48602 15.7649 0 10.2505 0ZM14.7115 7.71127C14.716 7.81036 14.7184 7.91026 14.7184 8.01015C14.7184 11.0517 12.4039 14.5577 8.1692 14.5577C6.86936 14.5577 5.65933 14.1779 4.64105 13.5245C4.8211 13.5459 5.00437 13.5568 5.19007 13.5568C6.26878 13.5568 7.26088 13.1886 8.04876 12.5715C7.04176 12.553 6.19144 11.8875 5.8986 10.9728C6.03877 10.9994 6.18338 11.0143 6.33121 11.0143C6.54107 11.0143 6.74489 10.9869 6.93783 10.9341C5.8849 10.723 5.09178 9.79296 5.09178 8.67719C5.09178 8.66753 5.09178 8.65746 5.09219 8.64819C5.40235 8.82019 5.75722 8.92411 6.13424 8.93579C5.51714 8.52373 5.11072 7.81882 5.11072 7.02046C5.11072 6.59832 5.2239 6.20277 5.42208 5.86281C6.55678 7.2557 8.25339 8.17167 10.1659 8.26835C10.1264 8.09957 10.1067 7.92435 10.1067 7.74349C10.1067 6.47265 11.1371 5.44188 12.4079 5.44188C13.0701 5.44188 13.6675 5.72142 14.088 6.16853C14.6129 6.06542 15.1043 5.87449 15.5502 5.60984C15.377 6.14759 15.0132 6.59832 14.5367 6.88351C15.0028 6.82792 15.4475 6.70466 15.8587 6.52139C15.5518 6.9822 15.1615 7.38782 14.7115 7.71127Z" fill="black"/>
</svg>
