<svg width="110" height="20" viewBox="0 0 110 20" fill="none" xmlns="http://www.w3.org/2000/svg">
<path d="M109.376 10.3536C109.571 10.1583 109.571 9.84171 109.376 9.64645L106.194 6.46447C105.998 6.2692 105.682 6.2692 105.486 6.46447C105.291 6.65973 105.291 6.97631 105.486 7.17157L108.315 10L105.486 12.8284C105.291 13.0237 105.291 13.3403 105.486 13.5355C105.682 13.7308 105.998 13.7308 106.194 13.5355L109.376 10.3536ZM84.022 10.5H109.022V9.5H84.022V10.5Z" fill="black"/>
<path d="M5.73397 14H1.01597V4.662H5.60797C6.43864 4.662 7.08731 4.89067 7.55397 5.348C8.02997 5.796 8.26797 6.36067 8.26797 7.042C8.26797 7.602 8.10931 8.078 7.79197 8.47C7.48397 8.85267 7.10131 9.09067 6.64397 9.184C7.14797 9.25867 7.57264 9.52 7.91797 9.968C8.27264 10.4067 8.44997 10.9107 8.44997 11.48C8.44997 12.2267 8.20731 12.8333 7.72197 13.3C7.24597 13.7667 6.58331 14 5.73397 14ZM5.27197 8.526C5.68264 8.526 6.00464 8.414 6.23797 8.19C6.47131 7.966 6.58797 7.67667 6.58797 7.322C6.58797 6.958 6.47131 6.664 6.23797 6.44C6.00464 6.216 5.68264 6.104 5.27197 6.104H2.65397V8.526H5.27197ZM5.34197 12.558C5.78997 12.558 6.13997 12.446 6.39197 12.222C6.64397 11.9887 6.76997 11.6667 6.76997 11.256C6.76997 10.892 6.64397 10.5887 6.39197 10.346C6.13997 10.094 5.78997 9.968 5.34197 9.968H2.65397V12.558H5.34197ZM14.1401 14.168C12.8148 14.168 11.8068 13.8227 11.1161 13.132C10.4348 12.4413 10.0941 11.5033 10.0941 10.318V4.662H11.7461V10.262C11.7461 11.018 11.9514 11.6153 12.3621 12.054C12.7821 12.4927 13.3748 12.712 14.1401 12.712C14.9054 12.712 15.4934 12.4927 15.9041 12.054C16.3148 11.6153 16.5201 11.018 16.5201 10.262V4.662H18.1721V10.304C18.1721 11.4987 17.8268 12.4413 17.1361 13.132C16.4548 13.8227 15.4561 14.168 14.1401 14.168ZM24.4406 14H22.8026V10.122L19.1766 4.662H21.0526L23.6286 8.666L26.1766 4.662H28.0526L24.4406 10.122V14ZM40.7584 14H39.1764L34.3044 7.336V14H32.6664V4.662H34.3464L39.1204 11.144V4.662H40.7584V14ZM50.5265 12.81C49.6305 13.7153 48.4872 14.168 47.0965 14.168C45.7059 14.168 44.5625 13.7153 43.6665 12.81C42.7705 11.8953 42.3225 10.738 42.3225 9.338C42.3225 7.938 42.7705 6.78533 43.6665 5.88C44.5625 4.96533 45.7059 4.508 47.0965 4.508C48.4872 4.508 49.6305 4.96533 50.5265 5.88C51.4225 6.78533 51.8705 7.938 51.8705 9.338C51.8705 10.738 51.4225 11.8953 50.5265 12.81ZM47.0965 12.712C48.0205 12.712 48.7672 12.3947 49.3365 11.76C49.9059 11.116 50.1905 10.3087 50.1905 9.338C50.1905 8.358 49.9059 7.55067 49.3365 6.916C48.7672 6.28133 48.0205 5.964 47.0965 5.964C46.1632 5.964 45.4119 6.28133 44.8425 6.916C44.2825 7.55067 44.0025 8.358 44.0025 9.338C44.0025 10.318 44.2825 11.1253 44.8425 11.76C45.4119 12.3947 46.1632 12.712 47.0965 12.712ZM62.0642 14H60.3142L58.4942 7.112L56.6882 14H54.9382L52.2642 4.662H54.0982L55.9182 11.858L57.8502 4.662H59.1522L61.0842 11.858L62.8902 4.662H64.7242L62.0642 14Z" fill="#121212"/>
</svg>
