<svg width="21" height="21" viewBox="0 0 21 21" fill="none" xmlns="http://www.w3.org/2000/svg">
<path d="M6.22203 18.3503C4.94645 18.3544 3.66676 18.3585 2.39117 18.3544C2.04664 18.3544 1.82516 18.0509 1.88258 17.6982C2.09586 16.3406 2.29684 14.9829 2.51012 13.6294C2.70289 12.4113 2.91207 11.1931 3.10484 9.97084C3.2443 9.089 3.36734 8.20716 3.5068 7.32533C3.71188 6.02513 3.92516 4.72494 4.13434 3.42474C4.25328 2.67826 4.36402 1.93177 4.47887 1.18529C4.5527 0.697203 4.93824 0.364976 5.43863 0.364976C7.59606 0.364976 9.75758 0.34857 11.915 0.373179C13.0921 0.385484 14.2611 0.53314 15.3316 1.07865C16.4431 1.63646 17.1199 2.54291 17.3414 3.77337C17.4439 4.34759 17.407 4.92181 17.2963 5.49603C16.8369 5.26224 16.3529 5.11048 15.8525 5.01205C15.2291 4.889 14.5892 4.85619 13.9535 4.84798C12.3498 4.83158 10.742 4.83568 9.13824 4.84798C8.79781 4.85209 8.4943 4.99154 8.35895 5.34017C8.29742 5.50013 8.27691 5.6806 8.25231 5.85697C8.14156 6.52962 8.03492 7.20638 7.92828 7.88314C7.84625 8.40404 7.75602 8.92494 7.67809 9.44584C7.57965 10.1062 7.49352 10.7706 7.36637 11.4269C7.32535 11.6443 7.23512 11.8658 7.30074 12.0995C7.25152 12.2472 7.20641 12.3949 7.1818 12.5507C7.06695 13.3095 6.94801 14.0683 6.82906 14.8271C6.68551 15.7458 6.55016 16.6687 6.3943 17.5874C6.34508 17.8417 6.36149 18.1124 6.22203 18.3503Z" fill="#012D8A"/>
<path d="M6.22199 18.3502C6.36144 18.1165 6.34503 17.8416 6.38605 17.5874C6.54191 16.6686 6.67726 15.7499 6.82081 14.827C6.93976 14.0682 7.0587 13.3094 7.17355 12.5506C7.19816 12.3948 7.24328 12.2471 7.29249 12.0995C7.51398 11.7549 7.8216 11.6032 8.23995 11.6073C9.28585 11.6073 10.3318 11.6606 11.3735 11.5293C12.3046 11.4145 13.1946 11.1766 14.0232 10.7336C15.2987 10.0487 16.1683 9.00278 16.7138 7.67798C16.9722 7.04634 17.1773 6.39419 17.2634 5.71333C17.2716 5.69692 17.2757 5.68052 17.2839 5.66821C17.2921 5.6272 17.3003 5.58618 17.3085 5.54517C18.2847 6.06196 18.8056 6.89048 18.945 7.97329C19.0599 8.86333 18.9245 9.72876 18.703 10.5901C18.5267 11.275 18.256 11.919 17.8704 12.5096C17.2429 13.4776 16.3693 14.1502 15.2823 14.5358C14.7163 14.7368 14.1339 14.8516 13.5392 14.9213C13.0429 14.9788 12.5466 14.9788 12.0503 14.9829C11.5499 14.9829 11.23 15.2577 11.1603 15.7499C11.0085 16.7875 10.8568 17.8252 10.6763 18.8629C10.6148 19.2157 10.5655 19.5725 10.504 19.9211C10.4261 20.3477 10.1226 20.602 9.69191 20.602C8.64601 20.602 7.60011 20.602 6.55421 20.602C6.15636 20.602 5.96359 20.3723 6.02921 19.9868C6.10714 19.511 6.18507 19.0393 6.263 18.5635C6.27531 18.4856 6.29581 18.4077 6.22199 18.3502Z" fill="#019AE0"/>
<path d="M17.3127 5.53694C17.3045 5.57796 17.2962 5.61898 17.288 5.65999C17.2798 5.6764 17.2757 5.6928 17.2675 5.70511C17.1814 6.38597 16.9763 7.03812 16.7179 7.66976C16.1724 8.99456 15.3029 10.0405 14.0273 10.7254C13.1988 11.1684 12.3046 11.4063 11.3777 11.5211C10.3359 11.6483 9.29 11.5991 8.2441 11.5991C7.82574 11.5991 7.51812 11.7467 7.29664 12.0912C7.23101 11.8616 7.32125 11.636 7.36226 11.4186C7.48531 10.7623 7.57555 10.0979 7.67398 9.43753C7.75191 8.91663 7.84215 8.39573 7.92418 7.87483C8.03082 7.19808 8.13746 6.52542 8.2482 5.84866C8.27691 5.6764 8.29332 5.49593 8.35484 5.33187C8.49019 4.98323 8.79371 4.83968 9.13414 4.83968C10.7378 4.82737 12.3457 4.82327 13.9494 4.83968C14.5851 4.84788 15.2209 4.88069 15.8484 5.00374C16.3488 5.10218 16.8369 5.25394 17.2921 5.48773C17.3003 5.51233 17.3086 5.52464 17.3127 5.53694Z" fill="#001F6B"/>
<path d="M17.2715 5.70942C17.2797 5.69302 17.2838 5.67661 17.292 5.66431C17.2838 5.67661 17.2797 5.69302 17.2715 5.70942Z" fill="#012D8A"/>
</svg>
