<svg width="265" height="183" viewBox="0 0 265 183" fill="none" xmlns="http://www.w3.org/2000/svg">
<path d="M2.378 1.4H11.484L15.544 30.458H15.66L19.72 1.4H28.826V42H22.794V11.26H22.678L18.038 42H12.702L8.062 11.26H7.946V42H2.378V1.4ZM47.507 1.4H56.149L62.761 42H56.381L55.221 33.938V34.054H47.971L46.811 42H40.895L47.507 1.4ZM54.467 28.544L51.625 8.476H51.509L48.725 28.544H54.467ZM77.1722 7.2H70.5022V1.4H90.2222V7.2H83.5522V42H77.1722V7.2ZM102.301 1.4H119.701V7.2H108.681V17.93H117.439V23.73H108.681V36.2H119.701V42H102.301V1.4ZM132.361 1.4H141.815C145.102 1.4 147.499 2.17333 149.007 3.72C150.515 5.228 151.269 7.56733 151.269 10.738V13.232C151.269 17.4467 149.877 20.1147 147.093 21.236V21.352C148.64 21.816 149.723 22.7633 150.341 24.194C150.999 25.6247 151.327 27.5387 151.327 29.936V37.07C151.327 38.23 151.366 39.1773 151.443 39.912C151.521 40.608 151.714 41.304 152.023 42H145.527C145.295 41.3427 145.141 40.724 145.063 40.144C144.986 39.564 144.947 38.52 144.947 37.012V29.588C144.947 27.732 144.638 26.4367 144.019 25.702C143.439 24.9673 142.415 24.6 140.945 24.6H138.741V42H132.361V1.4ZM141.061 18.8C142.337 18.8 143.285 18.4713 143.903 17.814C144.561 17.1567 144.889 16.0547 144.889 14.508V11.376C144.889 9.90667 144.619 8.84333 144.077 8.186C143.575 7.52867 142.763 7.2 141.641 7.2H138.741V18.8H141.061ZM164.744 1.4H171.124V42H164.744V1.4ZM189.822 1.4H198.464L205.076 42H198.696L197.536 33.938V34.054H190.286L189.126 42H183.21L189.822 1.4ZM196.782 28.544L193.94 8.476H193.824L191.04 28.544H196.782ZM217.162 1.4H223.542V36.2H234.04V42H217.162V1.4ZM254.383 42.58C251.29 42.58 248.95 41.71 247.365 39.97C245.78 38.1913 244.987 35.6587 244.987 32.372V30.052H251.019V32.836C251.019 35.4653 252.121 36.78 254.325 36.78C255.408 36.78 256.22 36.4707 256.761 35.852C257.341 35.1947 257.631 34.1507 257.631 32.72C257.631 31.0187 257.244 29.53 256.471 28.254C255.698 26.9393 254.267 25.3733 252.179 23.556C249.55 21.236 247.713 19.148 246.669 17.292C245.625 15.3973 245.103 13.2707 245.103 10.912C245.103 7.70267 245.915 5.228 247.539 3.488C249.163 1.70933 251.522 0.819998 254.615 0.819998C257.67 0.819998 259.97 1.70933 261.517 3.488C263.102 5.228 263.895 7.74133 263.895 11.028V12.71H257.863V10.622C257.863 9.23 257.592 8.22466 257.051 7.606C256.51 6.94867 255.717 6.62 254.673 6.62C252.546 6.62 251.483 7.91533 251.483 10.506C251.483 11.9753 251.87 13.348 252.643 14.624C253.455 15.9 254.905 17.4467 256.993 19.264C259.661 21.584 261.498 23.6913 262.503 25.586C263.508 27.4807 264.011 29.704 264.011 32.256C264.011 35.5813 263.18 38.1333 261.517 39.912C259.893 41.6907 257.515 42.58 254.383 42.58ZM7.308 71.4H15.95L22.562 112H16.182L15.022 103.938V104.054H7.772L6.612 112H0.696L7.308 71.4ZM14.268 98.544L11.426 78.476H11.31L8.526 98.544H14.268ZM34.6473 71.4H42.6513L48.8573 95.702H48.9733V71.4H54.6573V112H48.1033L40.4473 82.362H40.3313V112H34.6473V71.4ZM68.3892 71.4H78.1332C81.3039 71.4 83.6819 72.2507 85.2672 73.952C86.8526 75.6533 87.6452 78.1473 87.6452 81.434V101.966C87.6452 105.253 86.8526 107.747 85.2672 109.448C83.6819 111.149 81.3039 112 78.1332 112H68.3892V71.4ZM78.0172 106.2C79.0612 106.2 79.8539 105.891 80.3952 105.272C80.9752 104.653 81.2652 103.648 81.2652 102.256V81.144C81.2652 79.752 80.9752 78.7467 80.3952 78.128C79.8539 77.5093 79.0612 77.2 78.0172 77.2H74.7692V106.2H78.0172ZM2.378 141.4H19.256V147.2H8.758V158.51H16.994V164.31H8.758V182H2.378V141.4ZM31.3055 141.4H48.7055V147.2H37.6855V157.93H46.4435V163.73H37.6855V176.2H48.7055V182H31.3055V141.4ZM66.2958 141.4H74.9378L81.5498 182H75.1698L74.0098 173.938V174.054H66.7598L65.5998 182H59.6838L66.2958 141.4ZM73.2558 168.544L70.4138 148.476H70.2978L67.5138 168.544H73.2558ZM95.961 147.2H89.291V141.4H109.011V147.2H102.341V182H95.961V147.2ZM130.37 182.58C127.277 182.58 124.918 181.71 123.294 179.97C121.67 178.191 120.858 175.659 120.858 172.372V141.4H127.238V172.836C127.238 174.228 127.509 175.233 128.05 175.852C128.63 176.471 129.442 176.78 130.486 176.78C131.53 176.78 132.323 176.471 132.864 175.852C133.444 175.233 133.734 174.228 133.734 172.836V141.4H139.882V172.372C139.882 175.659 139.07 178.191 137.446 179.97C135.822 181.71 133.463 182.58 130.37 182.58ZM153.416 141.4H162.87C166.157 141.4 168.554 142.173 170.062 143.72C171.57 145.228 172.324 147.567 172.324 150.738V153.232C172.324 157.447 170.932 160.115 168.148 161.236V161.352C169.695 161.816 170.777 162.763 171.396 164.194C172.053 165.625 172.382 167.539 172.382 169.936V177.07C172.382 178.23 172.421 179.177 172.498 179.912C172.575 180.608 172.769 181.304 173.078 182H166.582C166.35 181.343 166.195 180.724 166.118 180.144C166.041 179.564 166.002 178.52 166.002 177.012V169.588C166.002 167.732 165.693 166.437 165.074 165.702C164.494 164.967 163.469 164.6 162 164.6H159.796V182H153.416V141.4ZM162.116 158.8C163.392 158.8 164.339 158.471 164.958 157.814C165.615 157.157 165.944 156.055 165.944 154.508V151.376C165.944 149.907 165.673 148.843 165.132 148.186C164.629 147.529 163.817 147.2 162.696 147.2H159.796V158.8H162.116ZM185.798 141.4H203.198V147.2H192.178V157.93H200.936V163.73H192.178V176.2H203.198V182H185.798V141.4ZM224.266 182.58C221.173 182.58 218.833 181.71 217.248 179.97C215.663 178.191 214.87 175.659 214.87 172.372V170.052H220.902V172.836C220.902 175.465 222.004 176.78 224.208 176.78C225.291 176.78 226.103 176.471 226.644 175.852C227.224 175.195 227.514 174.151 227.514 172.72C227.514 171.019 227.127 169.53 226.354 168.254C225.581 166.939 224.15 165.373 222.062 163.556C219.433 161.236 217.596 159.148 216.552 157.292C215.508 155.397 214.986 153.271 214.986 150.912C214.986 147.703 215.798 145.228 217.422 143.488C219.046 141.709 221.405 140.82 224.498 140.82C227.553 140.82 229.853 141.709 231.4 143.488C232.985 145.228 233.778 147.741 233.778 151.028V152.71H227.746V150.622C227.746 149.23 227.475 148.225 226.934 147.606C226.393 146.949 225.6 146.62 224.556 146.62C222.429 146.62 221.366 147.915 221.366 150.506C221.366 151.975 221.753 153.348 222.526 154.624C223.338 155.9 224.788 157.447 226.876 159.264C229.544 161.584 231.381 163.691 232.386 165.586C233.391 167.481 233.894 169.704 233.894 172.256C233.894 175.581 233.063 178.133 231.4 179.912C229.776 181.691 227.398 182.58 224.266 182.58Z" fill="#03839E"/>
<path d="M2.378 1.4V0.399998H1.378V1.4H2.378ZM11.484 1.4L12.4744 1.26162L12.354 0.399998H11.484V1.4ZM15.544 30.458L14.5536 30.5964L14.674 31.458H15.544V30.458ZM15.66 30.458V31.458H16.53L16.6504 30.5964L15.66 30.458ZM19.72 1.4V0.399998H18.85L18.7296 1.26162L19.72 1.4ZM28.826 1.4H29.826V0.399998H28.826V1.4ZM28.826 42V43H29.826V42H28.826ZM22.794 42H21.794V43H22.794V42ZM22.794 11.26H23.794V10.26H22.794V11.26ZM22.678 11.26V10.26H21.8176L21.6892 11.1107L22.678 11.26ZM18.038 42V43H18.8984L19.0268 42.1493L18.038 42ZM12.702 42L11.7132 42.1493L11.8416 43H12.702V42ZM8.062 11.26L9.0508 11.1107L8.92239 10.26H8.062V11.26ZM7.946 11.26V10.26H6.946V11.26H7.946ZM7.946 42V43H8.946V42H7.946ZM2.378 42H1.378V43H2.378V42ZM2.378 2.4H11.484V0.399998H2.378V2.4ZM10.4936 1.53837L14.5536 30.5964L16.5344 30.3196L12.4744 1.26162L10.4936 1.53837ZM15.544 31.458H15.66V29.458H15.544V31.458ZM16.6504 30.5964L20.7104 1.53837L18.7296 1.26162L14.6696 30.3196L16.6504 30.5964ZM19.72 2.4H28.826V0.399998H19.72V2.4ZM27.826 1.4V42H29.826V1.4H27.826ZM28.826 41H22.794V43H28.826V41ZM23.794 42V11.26H21.794V42H23.794ZM22.794 10.26H22.678V12.26H22.794V10.26ZM21.6892 11.1107L17.0492 41.8507L19.0268 42.1493L23.6668 11.4093L21.6892 11.1107ZM18.038 41H12.702V43H18.038V41ZM13.6908 41.8507L9.0508 11.1107L7.0732 11.4093L11.7132 42.1493L13.6908 41.8507ZM8.062 10.26H7.946V12.26H8.062V10.26ZM6.946 11.26V42H8.946V11.26H6.946ZM7.946 41H2.378V43H7.946V41ZM3.378 42V1.4H1.378V42H3.378ZM47.507 1.4V0.399998H46.6567L46.52 1.23926L47.507 1.4ZM56.149 1.4L57.136 1.23926L56.9993 0.399998H56.149V1.4ZM62.761 42V43H63.937L63.748 41.8393L62.761 42ZM56.381 42L55.3912 42.1424L55.5146 43H56.381V42ZM55.221 33.938L56.2108 33.7956L54.221 33.938H55.221ZM55.221 34.054V35.054H56.221V34.054H55.221ZM47.971 34.054V33.054H47.1064L46.9815 33.9095L47.971 34.054ZM46.811 42V43H47.6756L47.8005 42.1445L46.811 42ZM40.895 42L39.908 41.8393L39.719 43H40.895V42ZM54.467 28.544V29.544H55.6186L55.4571 28.4038L54.467 28.544ZM51.625 8.476L52.6151 8.33578L52.4933 7.476H51.625V8.476ZM51.509 8.476V7.476H50.6381L50.5185 8.33859L51.509 8.476ZM48.725 28.544L47.7345 28.4066L47.5767 29.544H48.725V28.544ZM47.507 2.4H56.149V0.399998H47.507V2.4ZM55.162 1.56074L61.774 42.1607L63.748 41.8393L57.136 1.23926L55.162 1.56074ZM62.761 41H56.381V43H62.761V41ZM57.3708 41.8576L56.2108 33.7956L54.2312 34.0804L55.3912 42.1424L57.3708 41.8576ZM54.221 33.938V34.054H56.221V33.938H54.221ZM55.221 33.054H47.971V35.054H55.221V33.054ZM46.9815 33.9095L45.8215 41.8555L47.8005 42.1445L48.9605 34.1985L46.9815 33.9095ZM46.811 41H40.895V43H46.811V41ZM41.882 42.1607L48.494 1.56074L46.52 1.23926L39.908 41.8393L41.882 42.1607ZM55.4571 28.4038L52.6151 8.33578L50.6349 8.61622L53.4769 28.6842L55.4571 28.4038ZM51.625 7.476H51.509V9.476H51.625V7.476ZM50.5185 8.33859L47.7345 28.4066L49.7155 28.6814L52.4995 8.61341L50.5185 8.33859ZM48.725 29.544H54.467V27.544H48.725V29.544ZM77.1722 7.2H78.1722V6.2H77.1722V7.2ZM70.5022 7.2H69.5022V8.2H70.5022V7.2ZM70.5022 1.4V0.399998H69.5022V1.4H70.5022ZM90.2222 1.4H91.2222V0.399998H90.2222V1.4ZM90.2222 7.2V8.2H91.2222V7.2H90.2222ZM83.5522 7.2V6.2H82.5522V7.2H83.5522ZM83.5522 42V43H84.5522V42H83.5522ZM77.1722 42H76.1722V43H77.1722V42ZM77.1722 6.2H70.5022V8.2H77.1722V6.2ZM71.5022 7.2V1.4H69.5022V7.2H71.5022ZM70.5022 2.4H90.2222V0.399998H70.5022V2.4ZM89.2222 1.4V7.2H91.2222V1.4H89.2222ZM90.2222 6.2H83.5522V8.2H90.2222V6.2ZM82.5522 7.2V42H84.5522V7.2H82.5522ZM83.5522 41H77.1722V43H83.5522V41ZM78.1722 42V7.2H76.1722V42H78.1722ZM102.301 1.4V0.399998H101.301V1.4H102.301ZM119.701 1.4H120.701V0.399998H119.701V1.4ZM119.701 7.2V8.2H120.701V7.2H119.701ZM108.681 7.2V6.2H107.681V7.2H108.681ZM108.681 17.93H107.681V18.93H108.681V17.93ZM117.439 17.93H118.439V16.93H117.439V17.93ZM117.439 23.73V24.73H118.439V23.73H117.439ZM108.681 23.73V22.73H107.681V23.73H108.681ZM108.681 36.2H107.681V37.2H108.681V36.2ZM119.701 36.2H120.701V35.2H119.701V36.2ZM119.701 42V43H120.701V42H119.701ZM102.301 42H101.301V43H102.301V42ZM102.301 2.4H119.701V0.399998H102.301V2.4ZM118.701 1.4V7.2H120.701V1.4H118.701ZM119.701 6.2H108.681V8.2H119.701V6.2ZM107.681 7.2V17.93H109.681V7.2H107.681ZM108.681 18.93H117.439V16.93H108.681V18.93ZM116.439 17.93V23.73H118.439V17.93H116.439ZM117.439 22.73H108.681V24.73H117.439V22.73ZM107.681 23.73V36.2H109.681V23.73H107.681ZM108.681 37.2H119.701V35.2H108.681V37.2ZM118.701 36.2V42H120.701V36.2H118.701ZM119.701 41H102.301V43H119.701V41ZM103.301 42V1.4H101.301V42H103.301ZM132.361 1.4V0.399998H131.361V1.4H132.361ZM149.007 3.72L148.291 4.41815L148.3 4.42711L149.007 3.72ZM147.093 21.236L146.72 20.3084L146.093 20.5607V21.236H147.093ZM147.093 21.352H146.093V22.096L146.806 22.3098L147.093 21.352ZM150.341 24.194L149.424 24.5909L149.428 24.6013L149.433 24.6115L150.341 24.194ZM151.443 39.912L150.449 40.0167L150.45 40.0224L151.443 39.912ZM152.023 42V43H153.562L152.937 41.5939L152.023 42ZM145.527 42L144.584 42.3328L144.82 43H145.527V42ZM144.019 25.702L143.235 26.3216L143.244 26.334L143.255 26.3461L144.019 25.702ZM138.741 24.6V23.6H137.741V24.6H138.741ZM138.741 42V43H139.741V42H138.741ZM132.361 42H131.361V43H132.361V42ZM143.903 17.814L143.196 17.1069L143.186 17.1176L143.175 17.1286L143.903 17.814ZM144.077 8.186L143.283 8.79345L143.294 8.80778L143.305 8.82171L144.077 8.186ZM138.741 7.2V6.2H137.741V7.2H138.741ZM138.741 18.8H137.741V19.8H138.741V18.8ZM132.361 2.4H141.815V0.399998H132.361V2.4ZM141.815 2.4C144.971 2.4 147.05 3.14519 148.291 4.4181L149.723 3.0219C147.949 1.20148 145.233 0.399998 141.815 0.399998V2.4ZM148.3 4.42711C149.546 5.67316 150.269 7.70453 150.269 10.738H152.269C152.269 7.43013 151.484 4.78284 149.715 3.01289L148.3 4.42711ZM150.269 10.738V13.232H152.269V10.738H150.269ZM150.269 13.232C150.269 15.2391 149.937 16.7858 149.339 17.9314C148.753 19.0549 147.89 19.837 146.72 20.3084L147.467 22.1636C149.081 21.5137 150.306 20.4011 151.112 18.8566C151.906 17.3342 152.269 15.4396 152.269 13.232H150.269ZM146.093 21.236V21.352H148.093V21.236H146.093ZM146.806 22.3098C148.082 22.6925 148.927 23.4421 149.424 24.5909L151.259 23.7971C150.519 22.0846 149.198 20.9395 147.381 20.3942L146.806 22.3098ZM149.433 24.6115C150.007 25.8609 150.327 27.6146 150.327 29.936H152.327C152.327 27.4627 151.991 25.3885 151.25 23.7765L149.433 24.6115ZM150.327 29.936V37.07H152.327V29.936H150.327ZM150.327 37.07C150.327 38.2477 150.366 39.2335 150.449 40.0167L152.438 39.8073C152.366 39.1212 152.327 38.2123 152.327 37.07H150.327ZM150.45 40.0224C150.539 40.8291 150.762 41.6245 151.11 42.4061L152.937 41.5939C152.666 40.9835 152.502 40.3869 152.437 39.8016L150.45 40.0224ZM152.023 41H145.527V43H152.023V41ZM146.47 41.6672C146.257 41.0629 146.121 40.512 146.055 40.0118L144.072 40.2762C144.16 40.936 144.334 41.6224 144.584 42.3328L146.47 41.6672ZM146.055 40.0118C145.987 39.5059 145.947 38.5235 145.947 37.012H143.947C143.947 38.5165 143.985 39.6221 144.072 40.2762L146.055 40.0118ZM145.947 37.012V29.588H143.947V37.012H145.947ZM145.947 29.588C145.947 27.6858 145.644 26.0781 144.784 25.0579L143.255 26.3461C143.633 26.7952 143.947 27.7782 143.947 29.588H145.947ZM144.804 25.0824C143.947 23.997 142.545 23.6 140.945 23.6V25.6C142.285 25.6 142.931 25.9377 143.235 26.3216L144.804 25.0824ZM140.945 23.6H138.741V25.6H140.945V23.6ZM137.741 24.6V42H139.741V24.6H137.741ZM138.741 41H132.361V43H138.741V41ZM133.361 42V1.4H131.361V42H133.361ZM141.061 19.8C142.497 19.8 143.757 19.4289 144.632 18.4994L143.175 17.1286C142.813 17.5138 142.178 17.8 141.061 17.8V19.8ZM144.611 18.5211C145.547 17.5845 145.889 16.1533 145.889 14.508H143.889C143.889 15.956 143.574 16.7289 143.196 17.1069L144.611 18.5211ZM145.889 14.508V11.376H143.889V14.508H145.889ZM145.889 11.376C145.889 9.82727 145.612 8.47681 144.849 7.55029L143.305 8.82171C143.625 9.20985 143.889 9.98606 143.889 11.376H145.889ZM144.872 7.57855C144.118 6.59262 142.955 6.2 141.641 6.2V8.2C142.57 8.2 143.032 8.46471 143.283 8.79345L144.872 7.57855ZM141.641 6.2H138.741V8.2H141.641V6.2ZM137.741 7.2V18.8H139.741V7.2H137.741ZM138.741 19.8H141.061V17.8H138.741V19.8ZM164.744 1.4V0.399998H163.744V1.4H164.744ZM171.124 1.4H172.124V0.399998H171.124V1.4ZM171.124 42V43H172.124V42H171.124ZM164.744 42H163.744V43H164.744V42ZM164.744 2.4H171.124V0.399998H164.744V2.4ZM170.124 1.4V42H172.124V1.4H170.124ZM171.124 41H164.744V43H171.124V41ZM165.744 42V1.4H163.744V42H165.744ZM189.822 1.4V0.399998H188.972L188.835 1.23926L189.822 1.4ZM198.464 1.4L199.451 1.23926L199.315 0.399998H198.464V1.4ZM205.076 42V43H206.252L206.063 41.8393L205.076 42ZM198.696 42L197.706 42.1424L197.83 43H198.696V42ZM197.536 33.938L198.526 33.7956L196.536 33.938H197.536ZM197.536 34.054V35.054H198.536V34.054H197.536ZM190.286 34.054V33.054H189.422L189.297 33.9095L190.286 34.054ZM189.126 42V43H189.991L190.116 42.1445L189.126 42ZM183.21 42L182.223 41.8393L182.034 43H183.21V42ZM196.782 28.544V29.544H197.934L197.772 28.4038L196.782 28.544ZM193.94 8.476L194.93 8.33578L194.809 7.476H193.94V8.476ZM193.824 8.476V7.476H192.953L192.834 8.33859L193.824 8.476ZM191.04 28.544L190.05 28.4066L189.892 29.544H191.04V28.544ZM189.822 2.4H198.464V0.399998H189.822V2.4ZM197.477 1.56074L204.089 42.1607L206.063 41.8393L199.451 1.23926L197.477 1.56074ZM205.076 41H198.696V43H205.076V41ZM199.686 41.8576L198.526 33.7956L196.546 34.0804L197.706 42.1424L199.686 41.8576ZM196.536 33.938V34.054H198.536V33.938H196.536ZM197.536 33.054H190.286V35.054H197.536V33.054ZM189.297 33.9095L188.137 41.8555L190.116 42.1445L191.276 34.1985L189.297 33.9095ZM189.126 41H183.21V43H189.126V41ZM184.197 42.1607L190.809 1.56074L188.835 1.23926L182.223 41.8393L184.197 42.1607ZM197.772 28.4038L194.93 8.33578L192.95 8.61622L195.792 28.6842L197.772 28.4038ZM193.94 7.476H193.824V9.476H193.94V7.476ZM192.834 8.33859L190.05 28.4066L192.031 28.6814L194.815 8.61341L192.834 8.33859ZM191.04 29.544H196.782V27.544H191.04V29.544ZM217.162 1.4V0.399998H216.162V1.4H217.162ZM223.542 1.4H224.542V0.399998H223.542V1.4ZM223.542 36.2H222.542V37.2H223.542V36.2ZM234.04 36.2H235.04V35.2H234.04V36.2ZM234.04 42V43H235.04V42H234.04ZM217.162 42H216.162V43H217.162V42ZM217.162 2.4H223.542V0.399998H217.162V2.4ZM222.542 1.4V36.2H224.542V1.4H222.542ZM223.542 37.2H234.04V35.2H223.542V37.2ZM233.04 36.2V42H235.04V36.2H233.04ZM234.04 41H217.162V43H234.04V41ZM218.162 42V1.4H216.162V42H218.162ZM247.365 39.97L246.618 40.6354L246.626 40.6435L247.365 39.97ZM244.987 30.052V29.052H243.987V30.052H244.987ZM251.019 30.052H252.019V29.052H251.019V30.052ZM256.761 35.852L256.011 35.1904L256.008 35.1935L256.761 35.852ZM256.471 28.254L255.609 28.7611L255.616 28.7723L256.471 28.254ZM252.179 23.556L251.517 24.3059L251.522 24.3103L252.179 23.556ZM246.669 17.292L245.793 17.7746L245.797 17.7823L246.669 17.292ZM247.539 3.488L248.27 4.17036L248.277 4.16227L247.539 3.488ZM261.517 3.488L260.762 4.14418L260.77 4.15292L260.778 4.16149L261.517 3.488ZM263.895 12.71V13.71H264.895V12.71H263.895ZM257.863 12.71H256.863V13.71H257.863V12.71ZM257.051 7.606L256.279 8.2417L256.289 8.25325L256.298 8.2645L257.051 7.606ZM252.643 14.624L251.788 15.1423L251.793 15.1516L251.799 15.1609L252.643 14.624ZM256.993 19.264L256.336 20.0183L256.337 20.0186L256.993 19.264ZM262.503 25.586L261.62 26.0547L262.503 25.586ZM261.517 39.912L260.786 39.2291L260.779 39.2377L261.517 39.912ZM254.383 41.58C251.478 41.58 249.445 40.7684 248.104 39.2965L246.626 40.6435C248.455 42.6516 251.101 43.58 254.383 43.58V41.58ZM248.112 39.3046C246.742 37.7686 245.987 35.5067 245.987 32.372H243.987C243.987 35.8106 244.817 38.6141 246.618 40.6354L248.112 39.3046ZM245.987 32.372V30.052H243.987V32.372H245.987ZM244.987 31.052H251.019V29.052H244.987V31.052ZM250.019 30.052V32.836H252.019V30.052H250.019ZM250.019 32.836C250.019 34.266 250.315 35.5248 251.079 36.4364C251.872 37.3818 253.018 37.78 254.325 37.78V35.78C253.428 35.78 252.921 35.5209 252.612 35.1516C252.274 34.7485 252.019 34.0353 252.019 32.836H250.019ZM254.325 37.78C255.599 37.78 256.727 37.4098 257.514 36.5105L256.008 35.1935C255.713 35.5315 255.216 35.78 254.325 35.78V37.78ZM257.511 36.5136C258.327 35.5885 258.631 34.25 258.631 32.72H256.631C256.631 34.0513 256.355 34.8008 256.011 35.1904L257.511 36.5136ZM258.631 32.72C258.631 30.8621 258.207 29.1889 257.326 27.7357L255.616 28.7723C256.282 29.871 256.631 31.1752 256.631 32.72H258.631ZM257.333 27.747C256.477 26.2924 254.95 24.642 252.836 22.8017L251.522 24.3103C253.584 26.1046 254.918 27.5862 255.609 28.761L257.333 27.747ZM252.841 22.8062C250.248 20.5188 248.506 18.5173 247.541 16.8017L245.797 17.7823C246.92 19.7787 248.851 21.9532 251.517 24.3058L252.841 22.8062ZM247.545 16.8094C246.59 15.0757 246.103 13.1175 246.103 10.912H244.103C244.103 13.4238 244.661 15.719 245.793 17.7746L247.545 16.8094ZM246.103 10.912C246.103 7.86609 246.872 5.66852 248.27 4.17032L246.808 2.80568C244.958 4.78748 244.103 7.53924 244.103 10.912H246.103ZM248.277 4.16227C249.662 2.64643 251.718 1.82 254.615 1.82V-0.180002C251.326 -0.180002 248.665 0.772228 246.801 2.81373L248.277 4.16227ZM254.615 1.82C257.472 1.82 259.458 2.64457 260.762 4.14418L262.272 2.83182C260.482 0.774089 257.868 -0.180002 254.615 -0.180002V1.82ZM260.778 4.16149C262.139 5.65536 262.895 7.89156 262.895 11.028H264.895C264.895 7.5911 264.066 4.80064 262.256 2.81451L260.778 4.16149ZM262.895 11.028V12.71H264.895V11.028H262.895ZM263.895 11.71H257.863V13.71H263.895V11.71ZM258.863 12.71V10.622H256.863V12.71H258.863ZM258.863 10.622C258.863 9.14251 258.583 7.8384 257.804 6.94749L256.298 8.2645C256.602 8.61093 256.863 9.31749 256.863 10.622H258.863ZM257.823 6.97029C257.049 6.03059 255.942 5.62 254.673 5.62V7.62C255.492 7.62 255.97 7.86674 256.279 8.2417L257.823 6.97029ZM254.673 5.62C253.398 5.62 252.278 6.01792 251.508 6.957C250.768 7.85831 250.483 9.09921 250.483 10.506H252.483C252.483 9.32212 252.73 8.62002 253.053 8.22599C253.346 7.86974 253.822 7.62 254.673 7.62V5.62ZM250.483 10.506C250.483 12.161 250.921 13.7126 251.788 15.1423L253.498 14.1057C252.818 12.9834 252.483 11.7896 252.483 10.506H250.483ZM251.799 15.1609C252.689 16.5592 254.225 18.1809 256.336 20.0183L257.65 18.5097C255.585 16.7124 254.221 15.2408 253.487 14.0871L251.799 15.1609ZM256.337 20.0186C258.964 22.3034 260.697 24.3162 261.62 26.0547L263.386 25.1173C262.298 23.0664 260.358 20.8646 257.649 18.5094L256.337 20.0186ZM261.62 26.0547C262.535 27.78 263.011 29.8365 263.011 32.256H265.011C265.011 29.5715 264.482 27.1814 263.386 25.1173L261.62 26.0547ZM263.011 32.256C263.011 35.4218 262.221 37.6945 260.786 39.2291L262.248 40.5949C264.138 38.5721 265.011 35.7409 265.011 32.256H263.011ZM260.779 39.2377C259.397 40.751 257.323 41.58 254.383 41.58V43.58C257.707 43.58 260.389 42.6303 262.255 40.5863L260.779 39.2377ZM7.308 71.4V70.4H6.45768L6.321 71.2393L7.308 71.4ZM15.95 71.4L16.937 71.2393L16.8003 70.4H15.95V71.4ZM22.562 112V113H23.738L23.549 111.839L22.562 112ZM16.182 112L15.1922 112.142L15.3156 113H16.182V112ZM15.022 103.938L16.0118 103.796L14.022 103.938H15.022ZM15.022 104.054V105.054H16.022V104.054H15.022ZM7.772 104.054V103.054H6.90739L6.78249 103.91L7.772 104.054ZM6.612 112V113H7.47661L7.60151 112.144L6.612 112ZM0.696 112L-0.290997 111.839L-0.480032 113H0.696V112ZM14.268 98.544V99.544H15.4196L15.2581 98.4038L14.268 98.544ZM11.426 78.476L12.4161 78.3358L12.2944 77.476H11.426V78.476ZM11.31 78.476V77.476H10.4392L10.3195 78.3386L11.31 78.476ZM8.526 98.544L7.53549 98.4066L7.37769 99.544H8.526V98.544ZM7.308 72.4H15.95V70.4H7.308V72.4ZM14.963 71.5607L21.575 112.161L23.549 111.839L16.937 71.2393L14.963 71.5607ZM22.562 111H16.182V113H22.562V111ZM17.1718 111.858L16.0118 103.796L14.0322 104.08L15.1922 112.142L17.1718 111.858ZM14.022 103.938V104.054H16.022V103.938H14.022ZM15.022 103.054H7.772V105.054H15.022V103.054ZM6.78249 103.91L5.62249 111.856L7.60151 112.144L8.76151 104.198L6.78249 103.91ZM6.612 111H0.696V113H6.612V111ZM1.683 112.161L8.295 71.5607L6.321 71.2393L-0.290997 111.839L1.683 112.161ZM15.2581 98.4038L12.4161 78.3358L10.4359 78.6162L13.2779 98.6842L15.2581 98.4038ZM11.426 77.476H11.31V79.476H11.426V77.476ZM10.3195 78.3386L7.53549 98.4066L9.51651 98.6814L12.3005 78.6134L10.3195 78.3386ZM8.526 99.544H14.268V97.544H8.526V99.544ZM34.6473 71.4V70.4H33.6473V71.4H34.6473ZM42.6513 71.4L43.6202 71.1526L43.428 70.4H42.6513V71.4ZM48.8573 95.702L47.8884 95.9494L48.0806 96.702H48.8573V95.702ZM48.9733 95.702V96.702H49.9733V95.702H48.9733ZM48.9733 71.4V70.4H47.9733V71.4H48.9733ZM54.6573 71.4H55.6573V70.4H54.6573V71.4ZM54.6573 112V113H55.6573V112H54.6573ZM48.1033 112L47.1351 112.25L47.3288 113H48.1033V112ZM40.4473 82.362L41.4155 82.1119L41.2218 81.362H40.4473V82.362ZM40.3313 82.362V81.362H39.3313V82.362H40.3313ZM40.3313 112V113H41.3313V112H40.3313ZM34.6473 112H33.6473V113H34.6473V112ZM34.6473 72.4H42.6513V70.4H34.6473V72.4ZM41.6824 71.6474L47.8884 95.9494L49.8262 95.4546L43.6202 71.1526L41.6824 71.6474ZM48.8573 96.702H48.9733V94.702H48.8573V96.702ZM49.9733 95.702V71.4H47.9733V95.702H49.9733ZM48.9733 72.4H54.6573V70.4H48.9733V72.4ZM53.6573 71.4V112H55.6573V71.4H53.6573ZM54.6573 111H48.1033V113H54.6573V111ZM49.0715 111.75L41.4155 82.1119L39.4791 82.6121L47.1351 112.25L49.0715 111.75ZM40.4473 81.362H40.3313V83.362H40.4473V81.362ZM39.3313 82.362V112H41.3313V82.362H39.3313ZM40.3313 111H34.6473V113H40.3313V111ZM35.6473 112V71.4H33.6473V112H35.6473ZM68.3892 71.4V70.4H67.3892V71.4H68.3892ZM85.2673 73.952L84.5356 74.6337L85.2673 73.952ZM85.2673 109.448L84.5356 108.766L85.2673 109.448ZM68.3892 112H67.3892V113H68.3892V112ZM80.3952 105.272L79.6657 104.588L79.654 104.601L79.6427 104.613L80.3952 105.272ZM80.3952 78.128L79.6427 78.7865L79.654 78.7994L79.6657 78.8119L80.3952 78.128ZM74.7692 77.2V76.2H73.7692V77.2H74.7692ZM74.7692 106.2H73.7692V107.2H74.7692V106.2ZM68.3892 72.4H78.1332V70.4H68.3892V72.4ZM78.1332 72.4C81.131 72.4 83.2005 73.2009 84.5356 74.6337L85.9989 73.2703C84.1633 71.3004 81.4769 70.4 78.1332 70.4V72.4ZM84.5356 74.6337C85.8884 76.0855 86.6452 78.2957 86.6452 81.434H88.6452C88.6452 77.999 87.8168 75.2212 85.9989 73.2703L84.5356 74.6337ZM86.6452 81.434V101.966H88.6452V81.434H86.6452ZM86.6452 101.966C86.6452 105.104 85.8884 107.315 84.5356 108.766L85.9989 110.13C87.8168 108.179 88.6452 105.401 88.6452 101.966H86.6452ZM84.5356 108.766C83.2005 110.199 81.131 111 78.1332 111V113C81.4769 113 84.1633 112.1 85.9989 110.13L84.5356 108.766ZM78.1332 111H68.3892V113H78.1332V111ZM69.3892 112V71.4H67.3892V112H69.3892ZM78.0173 107.2C79.266 107.2 80.3677 106.822 81.1478 105.931L79.6427 104.613C79.3401 104.959 78.8565 105.2 78.0173 105.2V107.2ZM81.1248 105.956C81.9609 105.064 82.2652 103.748 82.2652 102.256H80.2652C80.2652 103.548 79.9896 104.243 79.6657 104.588L81.1248 105.956ZM82.2652 102.256V81.144H80.2652V102.256H82.2652ZM82.2652 81.144C82.2652 79.6516 81.9609 78.3359 81.1248 77.4441L79.6657 78.8119C79.9896 79.1574 80.2652 79.8524 80.2652 81.144H82.2652ZM81.1478 77.4695C80.3677 76.578 79.266 76.2 78.0173 76.2V78.2C78.8565 78.2 79.3401 78.4407 79.6427 78.7865L81.1478 77.4695ZM78.0173 76.2H74.7692V78.2H78.0173V76.2ZM73.7692 77.2V106.2H75.7692V77.2H73.7692ZM74.7692 107.2H78.0173V105.2H74.7692V107.2ZM2.378 141.4V140.4H1.378V141.4H2.378ZM19.256 141.4H20.256V140.4H19.256V141.4ZM19.256 147.2V148.2H20.256V147.2H19.256ZM8.758 147.2V146.2H7.758V147.2H8.758ZM8.758 158.51H7.758V159.51H8.758V158.51ZM16.994 158.51H17.994V157.51H16.994V158.51ZM16.994 164.31V165.31H17.994V164.31H16.994ZM8.758 164.31V163.31H7.758V164.31H8.758ZM8.758 182V183H9.758V182H8.758ZM2.378 182H1.378V183H2.378V182ZM2.378 142.4H19.256V140.4H2.378V142.4ZM18.256 141.4V147.2H20.256V141.4H18.256ZM19.256 146.2H8.758V148.2H19.256V146.2ZM7.758 147.2V158.51H9.758V147.2H7.758ZM8.758 159.51H16.994V157.51H8.758V159.51ZM15.994 158.51V164.31H17.994V158.51H15.994ZM16.994 163.31H8.758V165.31H16.994V163.31ZM7.758 164.31V182H9.758V164.31H7.758ZM8.758 181H2.378V183H8.758V181ZM3.378 182V141.4H1.378V182H3.378ZM31.3055 141.4V140.4H30.3055V141.4H31.3055ZM48.7055 141.4H49.7055V140.4H48.7055V141.4ZM48.7055 147.2V148.2H49.7055V147.2H48.7055ZM37.6855 147.2V146.2H36.6855V147.2H37.6855ZM37.6855 157.93H36.6855V158.93H37.6855V157.93ZM46.4435 157.93H47.4435V156.93H46.4435V157.93ZM46.4435 163.73V164.73H47.4435V163.73H46.4435ZM37.6855 163.73V162.73H36.6855V163.73H37.6855ZM37.6855 176.2H36.6855V177.2H37.6855V176.2ZM48.7055 176.2H49.7055V175.2H48.7055V176.2ZM48.7055 182V183H49.7055V182H48.7055ZM31.3055 182H30.3055V183H31.3055V182ZM31.3055 142.4H48.7055V140.4H31.3055V142.4ZM47.7055 141.4V147.2H49.7055V141.4H47.7055ZM48.7055 146.2H37.6855V148.2H48.7055V146.2ZM36.6855 147.2V157.93H38.6855V147.2H36.6855ZM37.6855 158.93H46.4435V156.93H37.6855V158.93ZM45.4435 157.93V163.73H47.4435V157.93H45.4435ZM46.4435 162.73H37.6855V164.73H46.4435V162.73ZM36.6855 163.73V176.2H38.6855V163.73H36.6855ZM37.6855 177.2H48.7055V175.2H37.6855V177.2ZM47.7055 176.2V182H49.7055V176.2H47.7055ZM48.7055 181H31.3055V183H48.7055V181ZM32.3055 182V141.4H30.3055V182H32.3055ZM66.2958 141.4V140.4H65.4455L65.3088 141.239L66.2958 141.4ZM74.9378 141.4L75.9248 141.239L75.7881 140.4H74.9378V141.4ZM81.5498 182V183H82.7258L82.5368 181.839L81.5498 182ZM75.1698 182L74.18 182.142L74.3034 183H75.1698V182ZM74.0098 173.938L74.9996 173.796L73.0098 173.938H74.0098ZM74.0098 174.054V175.054H75.0098V174.054H74.0098ZM66.7598 174.054V173.054H65.8952L65.7703 173.91L66.7598 174.054ZM65.5998 182V183H66.4644L66.5893 182.144L65.5998 182ZM59.6838 182L58.6968 181.839L58.5078 183H59.6838V182ZM73.2558 168.544V169.544H74.4074L74.2459 168.404L73.2558 168.544ZM70.4138 148.476L71.4039 148.336L71.2822 147.476H70.4138V148.476ZM70.2978 148.476V147.476H69.427L69.3073 148.339L70.2978 148.476ZM67.5138 168.544L66.5233 168.407L66.3655 169.544H67.5138V168.544ZM66.2958 142.4H74.9378V140.4H66.2958V142.4ZM73.9508 141.561L80.5628 182.161L82.5368 181.839L75.9248 141.239L73.9508 141.561ZM81.5498 181H75.1698V183H81.5498V181ZM76.1596 181.858L74.9996 173.796L73.02 174.08L74.18 182.142L76.1596 181.858ZM73.0098 173.938V174.054H75.0098V173.938H73.0098ZM74.0098 173.054H66.7598V175.054H74.0098V173.054ZM65.7703 173.91L64.6103 181.856L66.5893 182.144L67.7493 174.198L65.7703 173.91ZM65.5998 181H59.6838V183H65.5998V181ZM60.6708 182.161L67.2828 141.561L65.3088 141.239L58.6968 181.839L60.6708 182.161ZM74.2459 168.404L71.4039 148.336L69.4237 148.616L72.2657 168.684L74.2459 168.404ZM70.4138 147.476H70.2978V149.476H70.4138V147.476ZM69.3073 148.339L66.5233 168.407L68.5043 168.681L71.2883 148.613L69.3073 148.339ZM67.5138 169.544H73.2558V167.544H67.5138V169.544ZM95.961 147.2H96.961V146.2H95.961V147.2ZM89.291 147.2H88.291V148.2H89.291V147.2ZM89.291 141.4V140.4H88.291V141.4H89.291ZM109.011 141.4H110.011V140.4H109.011V141.4ZM109.011 147.2V148.2H110.011V147.2H109.011ZM102.341 147.2V146.2H101.341V147.2H102.341ZM102.341 182V183H103.341V182H102.341ZM95.961 182H94.961V183H95.961V182ZM95.961 146.2H89.291V148.2H95.961V146.2ZM90.291 147.2V141.4H88.291V147.2H90.291ZM89.291 142.4H109.011V140.4H89.291V142.4ZM108.011 141.4V147.2H110.011V141.4H108.011ZM109.011 146.2H102.341V148.2H109.011V146.2ZM101.341 147.2V182H103.341V147.2H101.341ZM102.341 181H95.961V183H102.341V181ZM96.961 182V147.2H94.961V182H96.961ZM123.294 179.97L122.555 180.644L122.563 180.652L123.294 179.97ZM120.858 141.4V140.4H119.858V141.4H120.858ZM127.238 141.4H128.238V140.4H127.238V141.4ZM128.05 175.852L127.297 176.51L127.309 176.523L127.32 176.536L128.05 175.852ZM132.864 175.852L132.134 175.168L132.123 175.181L132.111 175.193L132.864 175.852ZM133.734 141.4V140.4H132.734V141.4H133.734ZM139.882 141.4H140.882V140.4H139.882V141.4ZM137.446 179.97L138.177 180.652L138.184 180.644L137.446 179.97ZM130.37 181.58C127.466 181.58 125.407 180.769 124.025 179.288L122.563 180.652C124.428 182.651 127.087 183.58 130.37 183.58V181.58ZM124.032 179.296C122.63 177.76 121.858 175.501 121.858 172.372H119.858C119.858 175.816 120.71 178.623 122.555 180.644L124.032 179.296ZM121.858 172.372V141.4H119.858V172.372H121.858ZM120.858 142.4H127.238V140.4H120.858V142.4ZM126.238 141.4V172.836H128.238V141.4H126.238ZM126.238 172.836C126.238 174.315 126.518 175.62 127.297 176.51L128.803 175.193C128.499 174.847 128.238 174.141 128.238 172.836H126.238ZM127.32 176.536C128.132 177.401 129.234 177.78 130.486 177.78V175.78C129.65 175.78 129.128 175.54 128.779 175.168L127.32 176.536ZM130.486 177.78C131.735 177.78 132.836 177.402 133.617 176.51L132.111 175.193C131.809 175.539 131.325 175.78 130.486 175.78V177.78ZM133.593 176.536C134.43 175.644 134.734 174.328 134.734 172.836H132.734C132.734 174.128 132.458 174.823 132.134 175.168L133.593 176.536ZM134.734 172.836V141.4H132.734V172.836H134.734ZM133.734 142.4H139.882V140.4H133.734V142.4ZM138.882 141.4V172.372H140.882V141.4H138.882ZM138.882 172.372C138.882 175.501 138.11 177.76 136.707 179.296L138.184 180.644C140.03 178.623 140.882 175.816 140.882 172.372H138.882ZM136.715 179.288C135.332 180.769 133.274 181.58 130.37 181.58V183.58C133.653 183.58 136.311 182.651 138.177 180.652L136.715 179.288ZM153.416 141.4V140.4H152.416V141.4H153.416ZM170.062 143.72L169.346 144.418L169.355 144.427L170.062 143.72ZM168.148 161.236L167.774 160.308L167.148 160.561V161.236H168.148ZM168.148 161.352H167.148V162.096L167.861 162.31L168.148 161.352ZM171.396 164.194L170.478 164.591L170.482 164.601L170.487 164.611L171.396 164.194ZM172.498 179.912L171.503 180.017L171.504 180.022L172.498 179.912ZM173.078 182V183H174.617L173.992 181.594L173.078 182ZM166.582 182L165.639 182.333L165.874 183H166.582V182ZM165.074 165.702L164.289 166.322L164.299 166.334L164.309 166.346L165.074 165.702ZM159.796 164.6V163.6H158.796V164.6H159.796ZM159.796 182V183H160.796V182H159.796ZM153.416 182H152.416V183H153.416V182ZM164.958 157.814L164.251 157.107L164.24 157.118L164.23 157.129L164.958 157.814ZM165.132 148.186L164.338 148.793L164.348 148.808L164.36 148.822L165.132 148.186ZM159.796 147.2V146.2H158.796V147.2H159.796ZM159.796 158.8H158.796V159.8H159.796V158.8ZM153.416 142.4H162.87V140.4H153.416V142.4ZM162.87 142.4C166.026 142.4 168.105 143.145 169.346 144.418L170.778 143.022C169.003 141.201 166.287 140.4 162.87 140.4V142.4ZM169.355 144.427C170.601 145.673 171.324 147.705 171.324 150.738H173.324C173.324 147.43 172.539 144.783 170.769 143.013L169.355 144.427ZM171.324 150.738V153.232H173.324V150.738H171.324ZM171.324 153.232C171.324 155.239 170.991 156.786 170.393 157.931C169.807 159.055 168.945 159.837 167.774 160.308L168.521 162.164C170.135 161.514 171.361 160.401 172.166 158.857C172.961 157.334 173.324 155.44 173.324 153.232H171.324ZM167.148 161.236V161.352H169.148V161.236H167.148ZM167.861 162.31C169.136 162.693 169.981 163.442 170.478 164.591L172.314 163.797C171.573 162.085 170.253 160.939 168.435 160.394L167.861 162.31ZM170.487 164.611C171.061 165.861 171.382 167.615 171.382 169.936H173.382C173.382 167.463 173.045 165.388 172.305 163.777L170.487 164.611ZM171.382 169.936V177.07H173.382V169.936H171.382ZM171.382 177.07C171.382 178.248 171.421 179.233 171.503 180.017L173.492 179.807C173.42 179.121 173.382 178.212 173.382 177.07H171.382ZM171.504 180.022C171.594 180.829 171.817 181.624 172.164 182.406L173.992 181.594C173.72 180.984 173.557 180.387 173.492 179.802L171.504 180.022ZM173.078 181H166.582V183H173.078V181ZM167.525 181.667C167.312 181.063 167.176 180.512 167.109 180.012L165.127 180.276C165.215 180.936 165.388 181.622 165.639 182.333L167.525 181.667ZM167.109 180.012C167.042 179.506 167.002 178.523 167.002 177.012H165.002C165.002 178.516 165.039 179.622 165.127 180.276L167.109 180.012ZM167.002 177.012V169.588H165.002V177.012H167.002ZM167.002 169.588C167.002 167.686 166.698 166.078 165.839 165.058L164.309 166.346C164.687 166.795 165.002 167.778 165.002 169.588H167.002ZM165.859 165.082C165.002 163.997 163.599 163.6 162 163.6V165.6C163.339 165.6 163.986 165.938 164.289 166.322L165.859 165.082ZM162 163.6H159.796V165.6H162V163.6ZM158.796 164.6V182H160.796V164.6H158.796ZM159.796 181H153.416V183H159.796V181ZM154.416 182V141.4H152.416V182H154.416ZM162.116 159.8C163.551 159.8 164.811 159.429 165.686 158.499L164.23 157.129C163.867 157.514 163.233 157.8 162.116 157.8V159.8ZM165.665 158.521C166.602 157.584 166.944 156.153 166.944 154.508H164.944C164.944 155.956 164.629 156.729 164.251 157.107L165.665 158.521ZM166.944 154.508V151.376H164.944V154.508H166.944ZM166.944 151.376C166.944 149.827 166.667 148.477 165.904 147.55L164.36 148.822C164.68 149.21 164.944 149.986 164.944 151.376H166.944ZM165.926 147.579C165.172 146.593 164.01 146.2 162.696 146.2V148.2C163.625 148.2 164.086 148.465 164.338 148.793L165.926 147.579ZM162.696 146.2H159.796V148.2H162.696V146.2ZM158.796 147.2V158.8H160.796V147.2H158.796ZM159.796 159.8H162.116V157.8H159.796V159.8ZM185.798 141.4V140.4H184.798V141.4H185.798ZM203.198 141.4H204.198V140.4H203.198V141.4ZM203.198 147.2V148.2H204.198V147.2H203.198ZM192.178 147.2V146.2H191.178V147.2H192.178ZM192.178 157.93H191.178V158.93H192.178V157.93ZM200.936 157.93H201.936V156.93H200.936V157.93ZM200.936 163.73V164.73H201.936V163.73H200.936ZM192.178 163.73V162.73H191.178V163.73H192.178ZM192.178 176.2H191.178V177.2H192.178V176.2ZM203.198 176.2H204.198V175.2H203.198V176.2ZM203.198 182V183H204.198V182H203.198ZM185.798 182H184.798V183H185.798V182ZM185.798 142.4H203.198V140.4H185.798V142.4ZM202.198 141.4V147.2H204.198V141.4H202.198ZM203.198 146.2H192.178V148.2H203.198V146.2ZM191.178 147.2V157.93H193.178V147.2H191.178ZM192.178 158.93H200.936V156.93H192.178V158.93ZM199.936 157.93V163.73H201.936V157.93H199.936ZM200.936 162.73H192.178V164.73H200.936V162.73ZM191.178 163.73V176.2H193.178V163.73H191.178ZM192.178 177.2H203.198V175.2H192.178V177.2ZM202.198 176.2V182H204.198V176.2H202.198ZM203.198 181H185.798V183H203.198V181ZM186.798 182V141.4H184.798V182H186.798ZM217.248 179.97L216.501 180.635L216.509 180.643L217.248 179.97ZM214.87 170.052V169.052H213.87V170.052H214.87ZM220.902 170.052H221.902V169.052H220.902V170.052ZM226.644 175.852L225.894 175.19L225.891 175.193L226.644 175.852ZM226.354 168.254L225.492 168.761L225.499 168.772L226.354 168.254ZM222.062 163.556L221.4 164.306L221.406 164.31L222.062 163.556ZM216.552 157.292L215.676 157.775L215.68 157.782L216.552 157.292ZM217.422 143.488L218.153 144.17L218.161 144.162L217.422 143.488ZM231.4 143.488L230.645 144.144L230.653 144.153L230.661 144.161L231.4 143.488ZM233.778 152.71V153.71H234.778V152.71H233.778ZM227.746 152.71H226.746V153.71H227.746V152.71ZM226.934 147.606L226.162 148.242L226.172 148.253L226.181 148.264L226.934 147.606ZM222.526 154.624L221.671 155.142L221.677 155.152L221.682 155.161L222.526 154.624ZM226.876 159.264L226.22 160.018L226.22 160.019L226.876 159.264ZM232.386 165.586L231.503 166.055L232.386 165.586ZM231.4 179.912L230.669 179.229L230.662 179.238L231.4 179.912ZM224.266 181.58C221.361 181.58 219.328 180.768 217.987 179.297L216.509 180.643C218.338 182.652 220.985 183.58 224.266 183.58V181.58ZM217.995 179.305C216.625 177.769 215.87 175.507 215.87 172.372H213.87C213.87 175.811 214.7 178.614 216.502 180.635L217.995 179.305ZM215.87 172.372V170.052H213.87V172.372H215.87ZM214.87 171.052H220.902V169.052H214.87V171.052ZM219.902 170.052V172.836H221.902V170.052H219.902ZM219.902 172.836C219.902 174.266 220.198 175.525 220.962 176.436C221.755 177.382 222.901 177.78 224.208 177.78V175.78C223.311 175.78 222.804 175.521 222.495 175.152C222.157 174.749 221.902 174.035 221.902 172.836H219.902ZM224.208 177.78C225.482 177.78 226.61 177.41 227.397 176.51L225.891 175.193C225.596 175.532 225.099 175.78 224.208 175.78V177.78ZM227.394 176.514C228.21 175.589 228.514 174.25 228.514 172.72H226.514C226.514 174.051 226.238 174.801 225.894 175.19L227.394 176.514ZM228.514 172.72C228.514 170.862 228.09 169.189 227.209 167.736L225.499 168.772C226.165 169.871 226.514 171.175 226.514 172.72H228.514ZM227.216 167.747C226.36 166.292 224.833 164.642 222.719 162.802L221.406 164.31C223.467 166.105 224.801 167.586 225.492 168.761L227.216 167.747ZM222.724 162.806C220.131 160.519 218.389 158.517 217.424 156.802L215.68 157.782C216.803 159.779 218.734 161.953 221.4 164.306L222.724 162.806ZM217.428 156.809C216.473 155.076 215.986 153.118 215.986 150.912H213.986C213.986 153.424 214.544 155.719 215.676 157.775L217.428 156.809ZM215.986 150.912C215.986 147.866 216.755 145.669 218.153 144.17L216.691 142.806C214.841 144.787 213.986 147.539 213.986 150.912H215.986ZM218.161 144.162C219.545 142.646 221.601 141.82 224.498 141.82V139.82C221.209 139.82 218.548 140.772 216.684 142.814L218.161 144.162ZM224.498 141.82C227.355 141.82 229.341 142.645 230.645 144.144L232.155 142.832C230.365 140.774 227.751 139.82 224.498 139.82V141.82ZM230.661 144.161C232.022 145.655 232.778 147.892 232.778 151.028H234.778C234.778 147.591 233.949 144.801 232.139 142.815L230.661 144.161ZM232.778 151.028V152.71H234.778V151.028H232.778ZM233.778 151.71H227.746V153.71H233.778V151.71ZM228.746 152.71V150.622H226.746V152.71H228.746ZM228.746 150.622C228.746 149.143 228.466 147.838 227.687 146.947L226.181 148.264C226.485 148.611 226.746 149.317 226.746 150.622H228.746ZM227.706 146.97C226.932 146.031 225.825 145.62 224.556 145.62V147.62C225.375 147.62 225.853 147.867 226.162 148.242L227.706 146.97ZM224.556 145.62C223.281 145.62 222.162 146.018 221.391 146.957C220.651 147.858 220.366 149.099 220.366 150.506H222.366C222.366 149.322 222.613 148.62 222.936 148.226C223.229 147.87 223.705 147.62 224.556 147.62V145.62ZM220.366 150.506C220.366 152.161 220.804 153.713 221.671 155.142L223.381 154.106C222.701 152.983 222.366 151.79 222.366 150.506H220.366ZM221.682 155.161C222.572 156.559 224.109 158.181 226.22 160.018L227.533 158.51C225.468 156.712 224.104 155.241 223.37 154.087L221.682 155.161ZM226.22 160.019C228.847 162.303 230.58 164.316 231.503 166.055L233.269 165.117C232.181 163.066 230.241 160.865 227.532 158.509L226.22 160.019ZM231.503 166.055C232.418 167.78 232.894 169.837 232.894 172.256H234.894C234.894 169.571 234.365 167.181 233.269 165.117L231.503 166.055ZM232.894 172.256C232.894 175.422 232.104 177.695 230.67 179.229L232.131 180.595C234.021 178.572 234.894 175.741 234.894 172.256H232.894ZM230.662 179.238C229.28 180.751 227.206 181.58 224.266 181.58V183.58C227.59 183.58 230.272 182.63 232.139 180.586L230.662 179.238Z" fill="#03839E"/>
</svg>
