<svg width="132" height="27" viewBox="0 0 132 27" fill="none" xmlns="http://www.w3.org/2000/svg">
<path d="M0.476 0.799998H6.308C8.276 0.799998 9.752 1.328 10.736 2.384C11.72 3.44 12.212 4.988 12.212 7.028V9.512C12.212 11.552 11.72 13.1 10.736 14.156C9.752 15.212 8.276 15.74 6.308 15.74H4.436V26H0.476V0.799998ZM6.308 12.14C6.956 12.14 7.436 11.96 7.748 11.6C8.084 11.24 8.252 10.628 8.252 9.764V6.776C8.252 5.912 8.084 5.3 7.748 4.94C7.436 4.58 6.956 4.4 6.308 4.4H4.436V12.14H6.308ZM22.2467 26.36C20.3027 26.36 18.8147 25.808 17.7827 24.704C16.7507 23.6 16.2347 22.04 16.2347 20.024V6.776C16.2347 4.76 16.7507 3.2 17.7827 2.096C18.8147 0.991999 20.3027 0.439999 22.2467 0.439999C24.1907 0.439999 25.6787 0.991999 26.7107 2.096C27.7427 3.2 28.2587 4.76 28.2587 6.776V20.024C28.2587 22.04 27.7427 23.6 26.7107 24.704C25.6787 25.808 24.1907 26.36 22.2467 26.36ZM22.2467 22.76C23.6147 22.76 24.2987 21.932 24.2987 20.276V6.524C24.2987 4.868 23.6147 4.04 22.2467 4.04C20.8787 4.04 20.1947 4.868 20.1947 6.524V20.276C20.1947 21.932 20.8787 22.76 22.2467 22.76ZM36.0522 4.4H31.9122V0.799998H44.1522V4.4H40.0122V26H36.0522V4.4ZM48.2294 0.799998H54.0974C56.1374 0.799998 57.6254 1.28 58.5614 2.24C59.4974 3.176 59.9654 4.628 59.9654 6.596V8.144C59.9654 10.76 59.1014 12.416 57.3734 13.112V13.184C58.3334 13.472 59.0054 14.06 59.3894 14.948C59.7974 15.836 60.0014 17.024 60.0014 18.512V22.94C60.0014 23.66 60.0254 24.248 60.0734 24.704C60.1214 25.136 60.2414 25.568 60.4334 26H56.4014C56.2574 25.592 56.1614 25.208 56.1134 24.848C56.0654 24.488 56.0414 23.84 56.0414 22.904V18.296C56.0414 17.144 55.8494 16.34 55.4654 15.884C55.1054 15.428 54.4694 15.2 53.5574 15.2H52.1894V26H48.2294V0.799998ZM53.6294 11.6C54.4214 11.6 55.0094 11.396 55.3934 10.988C55.8014 10.58 56.0054 9.896 56.0054 8.936V6.992C56.0054 6.08 55.8374 5.42 55.5014 5.012C55.1894 4.604 54.6854 4.4 53.9894 4.4H52.1894V11.6H53.6294ZM72.8346 0.799998H78.6666C80.6346 0.799998 82.1106 1.328 83.0946 2.384C84.0786 3.44 84.5706 4.988 84.5706 7.028V9.512C84.5706 11.552 84.0786 13.1 83.0946 14.156C82.1106 15.212 80.6346 15.74 78.6666 15.74H76.7946V26H72.8346V0.799998ZM78.6666 12.14C79.3146 12.14 79.7946 11.96 80.1066 11.6C80.4426 11.24 80.6106 10.628 80.6106 9.764V6.776C80.6106 5.912 80.4426 5.3 80.1066 4.94C79.7946 4.58 79.3146 4.4 78.6666 4.4H76.7946V12.14H78.6666ZM94.6053 26.36C92.6613 26.36 91.1733 25.808 90.1413 24.704C89.1093 23.6 88.5933 22.04 88.5933 20.024V6.776C88.5933 4.76 89.1093 3.2 90.1413 2.096C91.1733 0.991999 92.6613 0.439999 94.6053 0.439999C96.5493 0.439999 98.0373 0.991999 99.0693 2.096C100.101 3.2 100.617 4.76 100.617 6.776V20.024C100.617 22.04 100.101 23.6 99.0693 24.704C98.0373 25.808 96.5493 26.36 94.6053 26.36ZM94.6053 22.76C95.9733 22.76 96.6573 21.932 96.6573 20.276V6.524C96.6573 4.868 95.9733 4.04 94.6053 4.04C93.2373 4.04 92.5533 4.868 92.5533 6.524V20.276C92.5533 21.932 93.2373 22.76 94.6053 22.76ZM108.411 4.4H104.271V0.799998H116.511V4.4H112.371V26H108.411V4.4ZM125.736 26.36C123.816 26.36 122.364 25.82 121.38 24.74C120.396 23.636 119.904 22.064 119.904 20.024V18.584H123.648V20.312C123.648 21.944 124.332 22.76 125.7 22.76C126.372 22.76 126.876 22.568 127.212 22.184C127.572 21.776 127.752 21.128 127.752 20.24C127.752 19.184 127.512 18.26 127.032 17.468C126.552 16.652 125.664 15.68 124.368 14.552C122.736 13.112 121.596 11.816 120.948 10.664C120.3 9.488 119.976 8.168 119.976 6.704C119.976 4.712 120.48 3.176 121.488 2.096C122.496 0.991999 123.96 0.439999 125.88 0.439999C127.776 0.439999 129.204 0.991999 130.164 2.096C131.148 3.176 131.64 4.736 131.64 6.776V7.82H127.896V6.524C127.896 5.66 127.728 5.036 127.392 4.652C127.056 4.244 126.564 4.04 125.916 4.04C124.596 4.04 123.936 4.844 123.936 6.452C123.936 7.364 124.176 8.216 124.656 9.008C125.16 9.8 126.06 10.76 127.356 11.888C129.012 13.328 130.152 14.636 130.776 15.812C131.4 16.988 131.712 18.368 131.712 19.952C131.712 22.016 131.196 23.6 130.164 24.704C129.156 25.808 127.68 26.36 125.736 26.36Z" fill="#333333"/>
</svg>
