<svg width="14" height="144" viewBox="0 0 14 144" fill="none" xmlns="http://www.w3.org/2000/svg">
<path d="M11.4 75.49L11.4 77.434C11.4 78.09 11.224 78.582 10.872 78.91C10.52 79.238 10.004 79.402 9.324 79.402L8.496 79.402C7.816 79.402 7.3 79.238 6.948 78.91C6.596 78.582 6.42 78.09 6.42 77.434L6.42 76.81L3 76.81L3 75.49L11.4 75.49ZM7.62 77.434C7.62 77.65 7.68 77.81 7.8 77.914C7.92 78.026 8.124 78.082 8.412 78.082L9.408 78.082C9.696 78.082 9.9 78.026 10.02 77.914C10.14 77.81 10.2 77.65 10.2 77.434L10.2 76.81L7.62 76.81L7.62 77.434ZM2.88 84.667C2.88 84.019 3.064 83.523 3.432 83.179C3.8 82.835 4.32 82.663 4.992 82.663L9.408 82.663C10.08 82.663 10.6 82.835 10.968 83.179C11.336 83.523 11.52 84.019 11.52 84.667C11.52 85.315 11.336 85.811 10.968 86.155C10.6 86.499 10.08 86.671 9.408 86.671L4.992 86.671C4.32 86.671 3.8 86.499 3.432 86.155C3.064 85.811 2.88 85.315 2.88 84.667ZM4.08 84.667C4.08 85.123 4.356 85.351 4.908 85.351L9.492 85.351C10.044 85.351 10.32 85.123 10.32 84.667C10.32 84.211 10.044 83.983 9.492 83.983L4.908 83.983C4.356 83.983 4.08 84.211 4.08 84.667ZM10.2 91.1888L10.2 89.8088L11.4 89.8088L11.4 93.8888L10.2 93.8888L10.2 92.5088L3 92.5088L3 91.1888L10.2 91.1888ZM11.4 97.1679L11.4 99.1239C11.4 99.8039 11.24 100.3 10.92 100.612C10.608 100.924 10.124 101.08 9.468 101.08L8.952 101.08C8.08 101.08 7.528 100.792 7.296 100.216L7.272 100.216C7.176 100.536 6.98 100.76 6.684 100.888C6.388 101.024 5.992 101.092 5.496 101.092L4.02 101.092C3.78 101.092 3.584 101.1 3.432 101.116C3.288 101.132 3.144 101.172 3 101.236L3 99.8919C3.136 99.8439 3.264 99.8119 3.384 99.7959C3.504 99.7799 3.72 99.7719 4.032 99.7719L5.568 99.7719C5.952 99.7719 6.22 99.7079 6.372 99.5799C6.524 99.4599 6.6 99.2479 6.6 98.9439L6.6 98.4879L3 98.4879L3 97.1679L11.4 97.1679ZM7.8 98.9679C7.8 99.2319 7.868 99.4279 8.004 99.5559C8.14 99.6919 8.368 99.7599 8.688 99.7599L9.336 99.7599C9.64 99.7599 9.86 99.7039 9.996 99.5919C10.132 99.4879 10.2 99.3199 10.2 99.0879L10.2 98.4879L7.8 98.4879L7.8 98.9679ZM11.4 109.21L11.4 111.154C11.4 111.81 11.224 112.302 10.872 112.63C10.52 112.958 10.004 113.122 9.324 113.122L8.496 113.122C7.816 113.122 7.3 112.958 6.948 112.63C6.596 112.302 6.42 111.81 6.42 111.154L6.42 110.53L3 110.53L3 109.21L11.4 109.21ZM7.62 111.154C7.62 111.37 7.68 111.53 7.8 111.634C7.92 111.746 8.124 111.802 8.412 111.802L9.408 111.802C9.696 111.802 9.9 111.746 10.02 111.634C10.14 111.53 10.2 111.37 10.2 111.154L10.2 110.53L7.62 110.53L7.62 111.154ZM2.88 118.386C2.88 117.738 3.064 117.242 3.432 116.898C3.8 116.554 4.32 116.382 4.992 116.382L9.408 116.382C10.08 116.382 10.6 116.554 10.968 116.898C11.336 117.242 11.52 117.738 11.52 118.386C11.52 119.034 11.336 119.53 10.968 119.874C10.6 120.218 10.08 120.39 9.408 120.39L4.992 120.39C4.32 120.39 3.8 120.218 3.432 119.874C3.064 119.53 2.88 119.034 2.88 118.386ZM4.08 118.386C4.08 118.842 4.356 119.07 4.908 119.07L9.492 119.07C10.044 119.07 10.32 118.842 10.32 118.386C10.32 117.93 10.044 117.702 9.492 117.702L4.908 117.702C4.356 117.702 4.08 117.93 4.08 118.386ZM10.2 124.908L10.2 123.528L11.4 123.528L11.4 127.608L10.2 127.608L10.2 126.228L3 126.228L3 124.908L10.2 124.908ZM2.88 132.603C2.88 131.963 3.06 131.479 3.42 131.151C3.788 130.823 4.312 130.659 4.992 130.659L5.472 130.659L5.472 131.907L4.896 131.907C4.352 131.907 4.08 132.135 4.08 132.591C4.08 132.815 4.144 132.983 4.272 133.095C4.408 133.215 4.624 133.275 4.92 133.275C5.272 133.275 5.58 133.195 5.844 133.035C6.116 132.875 6.44 132.579 6.816 132.147C7.296 131.603 7.728 131.223 8.112 131.007C8.504 130.791 8.944 130.683 9.432 130.683C10.096 130.683 10.608 130.851 10.968 131.187C11.336 131.523 11.52 132.011 11.52 132.651C11.52 133.283 11.336 133.759 10.968 134.079C10.608 134.407 10.088 134.571 9.408 134.571L9.06 134.571L9.06 133.323L9.492 133.323C9.78 133.323 9.988 133.267 10.116 133.155C10.252 133.043 10.32 132.879 10.32 132.663C10.32 132.223 10.052 132.003 9.516 132.003C9.212 132.003 8.928 132.083 8.664 132.243C8.4 132.411 8.08 132.711 7.704 133.143C7.224 133.695 6.788 134.075 6.396 134.283C6.004 134.491 5.544 134.595 5.016 134.595C4.328 134.595 3.8 134.423 3.432 134.079C3.064 133.743 2.88 133.251 2.88 132.603Z" fill="#828282"/>
<rect x="7" y="-0.00195312" width="65" height="1" transform="rotate(90 7 -0.00195312)" fill="#828282"/>
</svg>
