<svg width="14" height="144" viewBox="0 0 14 144" fill="none" xmlns="http://www.w3.org/2000/svg">
<path d="M2.6 68.506L2.6 66.562C2.6 65.906 2.776 65.414 3.128 65.086C3.48 64.758 3.996 64.594 4.676 64.594L5.504 64.594C6.184 64.594 6.7 64.758 7.052 65.086C7.404 65.414 7.58 65.906 7.58 66.562L7.58 67.186L11 67.186L11 68.506L2.6 68.506ZM6.38 66.562C6.38 66.346 6.32 66.186 6.2 66.082C6.08 65.97 5.876 65.914 5.588 65.914L4.592 65.914C4.304 65.914 4.1 65.97 3.98 66.082C3.86 66.186 3.8 66.346 3.8 66.562L3.8 67.186L6.38 67.186L6.38 66.562ZM11.12 59.3291C11.12 59.9771 10.936 60.4731 10.568 60.8171C10.2 61.1611 9.68 61.3331 9.008 61.3331L4.592 61.3331C3.92 61.3331 3.4 61.1611 3.032 60.8171C2.664 60.4731 2.48 59.9771 2.48 59.3291C2.48 58.6811 2.664 58.1851 3.032 57.8411C3.4 57.4971 3.92 57.3251 4.592 57.3251L9.008 57.3251C9.68 57.3251 10.2 57.4971 10.568 57.8411C10.936 58.1851 11.12 58.6811 11.12 59.3291ZM9.92 59.3291C9.92 58.8731 9.644 58.6451 9.092 58.6451L4.508 58.6451C3.956 58.6451 3.68 58.8731 3.68 59.3291C3.68 59.7851 3.956 60.0131 4.508 60.0131L9.092 60.0131C9.644 60.0131 9.92 59.7851 9.92 59.3291ZM3.8 52.8073L3.8 54.1873L2.6 54.1873L2.6 50.1073L3.8 50.1073L3.8 51.4873L11 51.4873L11 52.8073L3.8 52.8073ZM2.6 46.8282L2.6 44.8722C2.6 44.1922 2.76 43.6962 3.08 43.3842C3.392 43.0722 3.876 42.9162 4.532 42.9162L5.048 42.9162C5.92 42.9162 6.472 43.2042 6.704 43.7802L6.728 43.7802C6.824 43.4602 7.02 43.2362 7.316 43.1082C7.612 42.9722 8.008 42.9042 8.504 42.9042L9.98 42.9042C10.22 42.9042 10.416 42.8962 10.568 42.8802C10.712 42.8642 10.856 42.8242 11 42.7602L11 44.1042C10.864 44.1522 10.736 44.1842 10.616 44.2002C10.496 44.2162 10.28 44.2242 9.968 44.2242L8.432 44.2242C8.048 44.2242 7.78 44.2882 7.628 44.4162C7.476 44.5362 7.4 44.7482 7.4 45.0522L7.4 45.5082L11 45.5082L11 46.8282L2.6 46.8282ZM6.2 45.0282C6.2 44.7642 6.132 44.5682 5.996 44.4402C5.86 44.3042 5.632 44.2362 5.312 44.2362L4.664 44.2362C4.36 44.2362 4.14 44.2922 4.004 44.4042C3.868 44.5082 3.8 44.6762 3.8 44.9082L3.8 45.5082L6.2 45.5082L6.2 45.0282ZM2.6 34.7865L2.6 32.8425C2.6 32.1865 2.776 31.6945 3.128 31.3665C3.48 31.0385 3.996 30.8745 4.676 30.8745L5.504 30.8745C6.184 30.8745 6.7 31.0385 7.052 31.3665C7.404 31.6945 7.58 32.1865 7.58 32.8425L7.58 33.4665L11 33.4665L11 34.7865L2.6 34.7865ZM6.38 32.8425C6.38 32.6265 6.32 32.4665 6.2 32.3625C6.08 32.2505 5.876 32.1945 5.588 32.1945L4.592 32.1945C4.304 32.1945 4.1 32.2505 3.98 32.3625C3.86 32.4665 3.8 32.6265 3.8 32.8425L3.8 33.4665L6.38 33.4665L6.38 32.8425ZM11.12 25.6096C11.12 26.2576 10.936 26.7536 10.568 27.0976C10.2 27.4416 9.68 27.6136 9.008 27.6136L4.592 27.6136C3.92 27.6136 3.4 27.4416 3.032 27.0976C2.664 26.7536 2.48 26.2576 2.48 25.6096C2.48 24.9616 2.664 24.4656 3.032 24.1216C3.4 23.7776 3.92 23.6056 4.592 23.6056L9.008 23.6056C9.68 23.6056 10.2 23.7776 10.568 24.1216C10.936 24.4656 11.12 24.9616 11.12 25.6096ZM9.92 25.6096C9.92 25.1536 9.644 24.9256 9.092 24.9256L4.508 24.9256C3.956 24.9256 3.68 25.1536 3.68 25.6096C3.68 26.0656 3.956 26.2936 4.508 26.2936L9.092 26.2936C9.644 26.2936 9.92 26.0656 9.92 25.6096ZM3.79999 19.0878L3.79999 20.4678L2.59999 20.4678L2.59999 16.3878L3.79999 16.3878L3.79999 17.7678L11 17.7678L11 19.0878L3.79999 19.0878ZM11.12 11.3927C11.12 12.0327 10.94 12.5167 10.58 12.8447C10.212 13.1727 9.68799 13.3367 9.00799 13.3367L8.52799 13.3367L8.52799 12.0887L9.10399 12.0887C9.64799 12.0887 9.91999 11.8607 9.91999 11.4047C9.91999 11.1807 9.85599 11.0127 9.72799 10.9007C9.59199 10.7807 9.37599 10.7207 9.07999 10.7207C8.72799 10.7207 8.41999 10.8007 8.15599 10.9607C7.88399 11.1207 7.55999 11.4167 7.18399 11.8487C6.70399 12.3927 6.27199 12.7727 5.88799 12.9887C5.49599 13.2047 5.05599 13.3127 4.56799 13.3127C3.90399 13.3127 3.39199 13.1447 3.03199 12.8087C2.66399 12.4727 2.47999 11.9847 2.47999 11.3447C2.47999 10.7127 2.66399 10.2367 3.03199 9.9167C3.39199 9.5887 3.91199 9.4247 4.59199 9.4247L4.93999 9.4247L4.93999 10.6727L4.50799 10.6727C4.21999 10.6727 4.01199 10.7287 3.88399 10.8407C3.74799 10.9527 3.67999 11.1167 3.67999 11.3327C3.67999 11.7727 3.94799 11.9927 4.48399 11.9927C4.78799 11.9927 5.07199 11.9127 5.33599 11.7527C5.59999 11.5847 5.91999 11.2847 6.29599 10.8527C6.77599 10.3007 7.21199 9.9207 7.60399 9.7127C7.99599 9.5047 8.45599 9.4007 8.98399 9.4007C9.67199 9.4007 10.2 9.5727 10.568 9.9167C10.936 10.2527 11.12 10.7447 11.12 11.3927Z" fill="#828282"/>
<rect x="7" y="143.998" width="65" height="1" transform="rotate(-90 7 143.998)" fill="#828282"/>
</svg>
