<svg width="116" height="21" viewBox="0 0 116 21" fill="none" xmlns="http://www.w3.org/2000/svg">
<path d="M115.253 11.3536C115.448 11.1583 115.448 10.8417 115.253 10.6464L112.071 7.46447C111.876 7.2692 111.559 7.2692 111.364 7.46447C111.168 7.65973 111.168 7.97631 111.364 8.17157L114.192 11L111.364 13.8284C111.168 14.0237 111.168 14.3403 111.364 14.5355C111.559 14.7308 111.876 14.7308 112.071 14.5355L115.253 11.3536ZM87.5884 11.5H114.899V10.5H87.5884V11.5Z" fill="black"/>
<path d="M1.17336 16V5.92H5.13536C5.77469 5.92 6.31136 6.05067 6.74536 6.312C7.17936 6.57333 7.50603 6.91167 7.72536 7.327C7.94469 7.73767 8.05436 8.17167 8.05436 8.629C8.05436 9.18433 7.91669 9.66033 7.64136 10.057C7.37069 10.4537 7.00436 10.7243 6.54236 10.869L6.52836 10.526C7.17236 10.6847 7.66703 10.995 8.01236 11.457C8.35769 11.9143 8.53036 12.4487 8.53036 13.06C8.53036 13.6527 8.41136 14.1683 8.17336 14.607C7.94003 15.0457 7.59703 15.3887 7.14436 15.636C6.69636 15.8787 6.15269 16 5.51336 16H1.17336ZM2.65736 14.607H5.28936C5.62069 14.607 5.91703 14.544 6.17836 14.418C6.44436 14.292 6.65203 14.1123 6.80136 13.879C6.95536 13.641 7.03236 13.3587 7.03236 13.032C7.03236 12.7287 6.96469 12.4557 6.82936 12.213C6.69869 11.9657 6.50736 11.772 6.25536 11.632C6.00803 11.4873 5.71636 11.415 5.38036 11.415H2.65736V14.607ZM2.65736 10.036H5.11436C5.38503 10.036 5.62769 9.98233 5.84236 9.875C6.06169 9.763 6.23436 9.60433 6.36036 9.399C6.49103 9.189 6.55636 8.937 6.55636 8.643C6.55636 8.251 6.42569 7.929 6.16436 7.677C5.90303 7.425 5.55303 7.299 5.11436 7.299H2.65736V10.036ZM13.9414 16.21C13.1527 16.21 12.455 16.049 11.8484 15.727C11.2464 15.4003 10.775 14.9453 10.4344 14.362C10.0937 13.774 9.92336 13.0833 9.92336 12.29V5.927L11.4074 5.92V12.213C11.4074 12.6423 11.4797 13.0203 11.6244 13.347C11.769 13.6737 11.9627 13.9467 12.2054 14.166C12.448 14.3853 12.7187 14.551 13.0174 14.663C13.3207 14.775 13.6287 14.831 13.9414 14.831C14.2587 14.831 14.5667 14.775 14.8654 14.663C15.1687 14.5463 15.4417 14.3783 15.6844 14.159C15.927 13.9397 16.1184 13.6667 16.2584 13.34C16.403 13.0133 16.4754 12.6377 16.4754 12.213V5.92H17.9594V12.29C17.9594 13.0787 17.789 13.767 17.4484 14.355C17.1077 14.943 16.634 15.4003 16.0274 15.727C15.4254 16.049 14.73 16.21 13.9414 16.21ZM22.3465 16V11.835L18.9375 5.92H20.6455L23.0885 10.155L25.5315 5.92H27.2395L23.8305 11.835V16H22.3465ZM30.4585 16V5.92H31.9425L36.9055 13.41V5.92H38.3895V16H36.9055L31.9425 8.503V16H30.4585ZM44.5503 16.21C43.5423 16.21 42.6836 15.9907 41.9743 15.552C41.2649 15.1087 40.7213 14.4927 40.3433 13.704C39.9699 12.9153 39.7833 12.0007 39.7833 10.96C39.7833 9.91933 39.9699 9.00467 40.3433 8.216C40.7213 7.42733 41.2649 6.81367 41.9743 6.375C42.6836 5.93167 43.5423 5.71 44.5503 5.71C45.5536 5.71 46.4099 5.93167 47.1193 6.375C47.8333 6.81367 48.3769 7.42733 48.7503 8.216C49.1236 9.00467 49.3103 9.91933 49.3103 10.96C49.3103 12.0007 49.1236 12.9153 48.7503 13.704C48.3769 14.4927 47.8333 15.1087 47.1193 15.552C46.4099 15.9907 45.5536 16.21 44.5503 16.21ZM44.5503 14.817C45.2643 14.8263 45.8569 14.67 46.3283 14.348C46.8043 14.0213 47.1613 13.5687 47.3993 12.99C47.6373 12.4067 47.7563 11.73 47.7563 10.96C47.7563 10.19 47.6373 9.518 47.3993 8.944C47.1613 8.36533 46.8043 7.915 46.3283 7.593C45.8569 7.271 45.2643 7.10767 44.5503 7.103C43.8363 7.09367 43.2413 7.25 42.7653 7.572C42.2939 7.894 41.9393 8.34667 41.7013 8.93C41.4633 9.51333 41.3419 10.19 41.3373 10.96C41.3326 11.73 41.4493 12.4043 41.6873 12.983C41.9253 13.557 42.2823 14.005 42.7583 14.327C43.2389 14.649 43.8363 14.8123 44.5503 14.817ZM52.4177 16L49.4917 5.92H51.0247L53.1457 13.543L55.2667 5.927L56.8067 5.92L58.9277 13.543L61.0487 5.92H62.5887L59.6557 16H58.1997L56.0367 8.461L53.8737 16H52.4177Z" fill="#121212"/>
</svg>
