<svg width="10" height="132" viewBox="0 0 10 132" fill="none" xmlns="http://www.w3.org/2000/svg">
<path d="M1 0.839999L9.64 0.84L9.64 1.65L2.374 5.046L9.64 8.424L9.64 9.246L1.006 9.246L1.006 8.406L7.672 8.406L1 5.328L1 4.758L7.672 1.686L1 1.686L1 0.839999ZM0.819999 13.6358C0.819999 12.9918 0.965999 12.4418 1.258 11.9858C1.55 11.5298 1.954 11.1798 2.47 10.9358C2.986 10.6918 3.578 10.5698 4.246 10.5698C4.926 10.5698 5.522 10.6938 6.034 10.9418C6.546 11.1898 6.944 11.5418 7.228 11.9978C7.516 12.4578 7.66 13.0038 7.66 13.6358C7.66 14.2838 7.514 14.8358 7.222 15.2918C6.934 15.7518 6.532 16.1018 6.016 16.3418C5.504 16.5858 4.914 16.7078 4.246 16.7078C3.566 16.7078 2.968 16.5858 2.452 16.3418C1.94 16.0978 1.54 15.7458 1.252 15.2858C0.963999 14.8258 0.819999 14.2758 0.819999 13.6358ZM1.666 13.6358C1.666 14.3558 1.904 14.8918 2.38 15.2438C2.86 15.5958 3.482 15.7718 4.246 15.7718C5.03 15.7718 5.654 15.5938 6.118 15.2378C6.582 14.8858 6.814 14.3518 6.814 13.6358C6.814 13.1518 6.704 12.7518 6.484 12.4358C6.268 12.1238 5.966 11.8898 5.578 11.7338C5.194 11.5818 4.75 11.5058 4.246 11.5058C3.466 11.5058 2.84 11.6858 2.368 12.0458C1.9 12.4058 1.666 12.9358 1.666 13.6358ZM0.999999 18.0314L7.48 18.0314L7.48 18.8234L5.92 18.8234L6.124 18.6674C6.316 18.7394 6.492 18.8334 6.652 18.9494C6.816 19.0654 6.95 19.1914 7.054 19.3274C7.202 19.4954 7.314 19.6914 7.39 19.9154C7.47 20.1394 7.516 20.3654 7.528 20.5934C7.544 20.8214 7.528 21.0294 7.48 21.2174L6.652 21.2174C6.712 20.9814 6.726 20.7234 6.694 20.4434C6.662 20.1634 6.55 19.9054 6.358 19.6694C6.19 19.4534 5.988 19.2914 5.752 19.1834C5.52 19.0754 5.272 19.0034 5.008 18.9674C4.748 18.9314 4.49 18.9134 4.234 18.9134L0.999999 18.9134L0.999999 18.0314ZM0.819999 24.9804C0.819999 24.3484 0.959999 23.8004 1.24 23.3364C1.52 22.8764 1.914 22.5184 2.422 22.2624C2.93 22.0064 3.526 21.8784 4.21 21.8784C4.918 21.8784 5.53 22.0044 6.046 22.2564C6.562 22.5084 6.96 22.8624 7.24 23.3184C7.52 23.7784 7.66 24.3204 7.66 24.9444C7.66 25.5844 7.512 26.1304 7.216 26.5824C6.924 27.0344 6.504 27.3764 5.956 27.6084C5.408 27.8404 4.754 27.9464 3.994 27.9264L3.994 27.0264L4.306 27.0264C5.146 27.0104 5.78 26.8284 6.208 26.4804C6.636 26.1364 6.85 25.6324 6.85 24.9684C6.85 24.2724 6.624 23.7384 6.172 23.3664C5.72 22.9984 5.076 22.8144 4.24 22.8144C3.424 22.8144 2.79 22.9984 2.338 23.3664C1.89 23.7384 1.666 24.2644 1.666 24.9444C1.666 25.4084 1.772 25.8124 1.984 26.1564C2.2 26.5044 2.51 26.7784 2.914 26.9784L2.596 27.8004C2.032 27.5444 1.594 27.1664 1.282 26.6664C0.973999 26.1704 0.819999 25.6084 0.819999 24.9804ZM3.994 22.5024L4.732 22.5024L4.732 27.4524L3.994 27.4524L3.994 22.5024ZM0.819999 33.5143C0.819999 33.0263 0.907999 32.6163 1.084 32.2843C1.26 31.9563 1.494 31.7103 1.786 31.5463C2.078 31.3823 2.396 31.3003 2.74 31.3003C3.092 31.3003 3.392 31.3703 3.64 31.5103C3.892 31.6543 4.098 31.8483 4.258 32.0923C4.418 32.3403 4.54 32.6263 4.624 32.9503C4.704 33.2783 4.774 33.6403 4.834 34.0363C4.898 34.4363 4.952 34.8263 4.996 35.2063C5.044 35.5903 5.09 35.9263 5.134 36.2143L4.942 35.9023C5.582 35.9143 6.056 35.7903 6.364 35.5303C6.672 35.2703 6.826 34.8183 6.826 34.1743C6.826 33.7303 6.726 33.3543 6.526 33.0463C6.326 32.7423 6.01 32.5283 5.578 32.4043L5.83 31.5463C6.41 31.6943 6.86 31.9923 7.18 32.4403C7.5 32.8883 7.66 33.4703 7.66 34.1863C7.66 34.7783 7.548 35.2803 7.324 35.6923C7.104 36.1083 6.784 36.4023 6.364 36.5743C6.176 36.6543 5.966 36.7063 5.734 36.7303C5.502 36.7543 5.266 36.7663 5.026 36.7663L0.999998 36.7663L0.999998 35.9803L2.626 35.9803L2.53 36.2083C1.974 35.9883 1.55 35.6463 1.258 35.1823C0.965998 34.7183 0.819998 34.1623 0.819999 33.5143ZM1.582 33.6163C1.582 34.0283 1.656 34.3883 1.804 34.6963C1.952 35.0043 2.154 35.2523 2.41 35.4403C2.67 35.6283 2.962 35.7503 3.286 35.8063C3.494 35.8543 3.722 35.8803 3.97 35.8843C4.222 35.8883 4.41 35.8903 4.534 35.8903L4.36 36.2263C4.32 35.9263 4.28 35.6003 4.24 35.2483C4.2 34.9003 4.154 34.5563 4.102 34.2163C4.05 33.8803 3.988 33.5763 3.916 33.3043C3.864 33.1203 3.79 32.9423 3.694 32.7703C3.602 32.5983 3.478 32.4563 3.322 32.3443C3.166 32.2363 2.972 32.1823 2.74 32.1823C2.552 32.1823 2.37 32.2283 2.194 32.3203C2.018 32.4163 1.872 32.5683 1.756 32.7763C1.64 32.9883 1.582 33.2683 1.582 33.6163ZM0.819998 41.2383C0.819998 40.6423 0.969998 40.1383 1.27 39.7263C1.574 39.3143 1.984 39.0023 2.5 38.7903C3.02 38.5783 3.602 38.4723 4.246 38.4723C4.902 38.4723 5.486 38.5783 5.998 38.7903C6.514 39.0063 6.92 39.3223 7.216 39.7383C7.512 40.1543 7.66 40.6663 7.66 41.2743C7.66 41.8663 7.51 42.3743 7.21 42.7983C6.91 43.2223 6.502 43.5463 5.986 43.7703C5.47 43.9983 4.89 44.1123 4.246 44.1123C3.598 44.1123 3.016 43.9983 2.5 43.7703C1.984 43.5423 1.574 43.2143 1.27 42.7863C0.969998 42.3583 0.819998 41.8423 0.819998 41.2383ZM0.999998 38.3223L9.64 38.3223L9.64 39.2103L5.878 39.2103L5.878 39.1143L0.999998 39.1143L0.999998 38.3223ZM1.642 41.1483C1.642 41.6003 1.756 41.9763 1.984 42.2763C2.212 42.5763 2.522 42.8003 2.914 42.9483C3.31 43.1003 3.754 43.1763 4.246 43.1763C4.734 43.1763 5.174 43.1023 5.566 42.9543C5.958 42.8063 6.268 42.5803 6.496 42.2763C6.724 41.9763 6.838 41.5943 6.838 41.1303C6.838 40.6783 6.728 40.3023 6.508 40.0023C6.288 39.7063 5.982 39.4843 5.59 39.3363C5.202 39.1883 4.754 39.1143 4.246 39.1143C3.746 39.1143 3.298 39.1883 2.902 39.3363C2.51 39.4843 2.202 39.7083 1.978 40.0083C1.754 40.3083 1.642 40.6883 1.642 41.1483ZM0.819998 48.1358C0.819998 47.4918 0.965998 46.9418 1.258 46.4858C1.55 46.0298 1.954 45.6798 2.47 45.4358C2.986 45.1918 3.578 45.0698 4.246 45.0698C4.926 45.0698 5.522 45.1938 6.034 45.4418C6.546 45.6898 6.944 46.0418 7.228 46.4978C7.516 46.9578 7.66 47.5038 7.66 48.1358C7.66 48.7838 7.514 49.3358 7.222 49.7918C6.934 50.2518 6.532 50.6018 6.016 50.8418C5.504 51.0858 4.914 51.2078 4.246 51.2078C3.566 51.2078 2.968 51.0858 2.452 50.8418C1.94 50.5978 1.54 50.2458 1.252 49.7858C0.963998 49.3258 0.819998 48.7758 0.819998 48.1358ZM1.666 48.1358C1.666 48.8558 1.904 49.3918 2.38 49.7438C2.86 50.0958 3.482 50.2718 4.246 50.2718C5.03 50.2718 5.654 50.0938 6.118 49.7378C6.582 49.3858 6.814 48.8518 6.814 48.1358C6.814 47.6518 6.704 47.2518 6.484 46.9358C6.268 46.6238 5.966 46.3898 5.578 46.2338C5.194 46.0818 4.75 46.0058 4.246 46.0058C3.466 46.0058 2.84 46.1858 2.368 46.5458C1.9 46.9058 1.666 47.4358 1.666 48.1358ZM0.837998 55.0094C0.837998 54.6214 0.897998 54.2814 1.018 53.9894C1.138 53.7014 1.3 53.4554 1.504 53.2514C1.708 53.0514 1.94 52.8894 2.2 52.7654C2.464 52.6414 2.742 52.5514 3.034 52.4954C3.33 52.4394 3.624 52.4114 3.916 52.4114L7.48 52.4114L7.48 53.2994L4.174 53.2994C3.818 53.2994 3.488 53.3334 3.184 53.4014C2.88 53.4694 2.614 53.5774 2.386 53.7254C2.162 53.8774 1.988 54.0714 1.864 54.3074C1.74 54.5474 1.678 54.8374 1.678 55.1774C1.678 55.4894 1.732 55.7634 1.84 55.9994C1.948 56.2394 2.102 56.4394 2.302 56.5994C2.506 56.7634 2.752 56.8874 3.04 56.9714C3.332 57.0554 3.66 57.0974 4.024 57.0974L3.886 57.7214C3.222 57.7214 2.664 57.6054 2.212 57.3734C1.76 57.1414 1.418 56.8214 1.186 56.4134C0.953998 56.0054 0.837998 55.5374 0.837998 55.0094ZM0.999998 57.1874L2.596 57.1874L2.596 57.0974L7.48 57.0974L7.48 57.9794L0.999997 57.9794L0.999998 57.1874ZM0.999997 63.1844C0.923997 62.8204 0.893997 62.4604 0.909997 62.1044C0.925997 61.7524 1.002 61.4364 1.138 61.1564C1.274 60.8804 1.486 60.6704 1.774 60.5264C2.014 60.4104 2.256 60.3464 2.5 60.3344C2.748 60.3264 3.03 60.3224 3.346 60.3224L9.28 60.3224L9.28 61.1984L3.382 61.1984C3.11 61.1984 2.882 61.2004 2.698 61.2044C2.518 61.2124 2.358 61.2544 2.218 61.3304C1.95 61.4744 1.79 61.7024 1.738 62.0144C1.686 62.3304 1.698 62.7204 1.774 63.1844L0.999997 63.1844ZM6.724 58.9364L7.48 58.9364L7.48 63.1844L6.724 63.1844L6.724 58.9364ZM0.999997 69.2658L9.64 69.2658L9.64 72.6018C9.64 72.6858 9.636 72.7798 9.628 72.8838C9.624 72.9918 9.612 73.0998 9.592 73.2078C9.524 73.6598 9.366 74.0418 9.118 74.3538C8.874 74.6698 8.566 74.9078 8.194 75.0678C7.822 75.2318 7.41 75.3138 6.958 75.3138C6.51 75.3138 6.1 75.2318 5.728 75.0678C5.356 74.9038 5.046 74.6638 4.798 74.3478C4.554 74.0358 4.398 73.6558 4.33 73.2078C4.314 73.0998 4.302 72.9918 4.294 72.8838C4.286 72.7798 4.282 72.6858 4.282 72.6018L4.282 70.1478L0.999997 70.1478L0.999997 69.2658ZM5.122 70.1478L5.122 72.5778C5.122 72.6498 5.126 72.7338 5.134 72.8298C5.142 72.9258 5.156 73.0198 5.176 73.1118C5.24 73.4078 5.362 73.6498 5.542 73.8378C5.722 74.0298 5.936 74.1718 6.184 74.2638C6.432 74.3598 6.69 74.4078 6.958 74.4078C7.226 74.4078 7.484 74.3598 7.732 74.2638C7.984 74.1718 8.2 74.0298 8.38 73.8378C8.56 73.6498 8.682 73.4078 8.746 73.1118C8.766 73.0198 8.778 72.9258 8.782 72.8298C8.79 72.7338 8.794 72.6498 8.794 72.5778L8.794 70.1478L5.122 70.1478ZM0.819996 80.006C0.819997 79.146 1.01 78.42 1.39 77.828C1.774 77.236 2.304 76.788 2.98 76.484C3.656 76.18 4.436 76.028 5.32 76.028C6.204 76.028 6.984 76.18 7.66 76.484C8.336 76.788 8.864 77.236 9.244 77.828C9.628 78.42 9.82 79.146 9.82 80.006C9.82 80.87 9.628 81.596 9.244 82.184C8.864 82.776 8.336 83.224 7.66 83.528C6.984 83.836 6.204 83.99 5.32 83.99C4.436 83.99 3.656 83.836 2.98 83.528C2.304 83.224 1.774 82.776 1.39 82.184C1.01 81.596 0.819996 80.87 0.819996 80.006ZM1.666 80.006C1.666 80.682 1.82 81.246 2.128 81.698C2.436 82.15 2.864 82.488 3.412 82.712C3.964 82.94 4.6 83.054 5.32 83.054C6.04 83.054 6.674 82.94 7.222 82.712C7.77 82.488 8.198 82.15 8.506 81.698C8.814 81.246 8.97 80.682 8.974 80.006C8.974 79.33 8.82 78.768 8.512 78.32C8.204 77.872 7.774 77.534 7.222 77.306C6.674 77.082 6.04 76.968 5.32 76.964C4.6 76.96 3.966 77.07 3.418 77.294C2.874 77.522 2.446 77.862 2.134 78.314C1.826 78.766 1.67 79.33 1.666 80.006ZM0.999996 87.2552L8.794 87.2552L8.794 84.2372L9.64 84.2372L9.64 91.1552L8.794 91.1552L8.794 88.1372L0.999996 88.1372L0.999996 87.2552ZM0.999996 92.1173L9.64 92.1173L9.64 95.4533C9.64 95.5373 9.636 95.6313 9.628 95.7353C9.624 95.8433 9.612 95.9513 9.592 96.0593C9.524 96.5113 9.366 96.8933 9.118 97.2053C8.874 97.5213 8.566 97.7593 8.194 97.9193C7.822 98.0833 7.41 98.1653 6.958 98.1653C6.306 98.1653 5.74 97.9933 5.26 97.6493C4.78 97.3053 4.478 96.8133 4.354 96.1733L4.282 95.8673L4.282 92.9993L0.999996 92.9993L0.999996 92.1173ZM0.999996 97.3493L4.516 95.6453L4.84 96.4913L0.999996 98.3633L0.999996 97.3493ZM5.122 92.9993L5.122 95.4293C5.122 95.5013 5.126 95.5853 5.134 95.6813C5.142 95.7773 5.156 95.8713 5.176 95.9633C5.24 96.2593 5.362 96.5013 5.542 96.6893C5.722 96.8813 5.936 97.0233 6.184 97.1153C6.432 97.2113 6.69 97.2593 6.958 97.2593C7.226 97.2593 7.484 97.2113 7.732 97.1153C7.984 97.0233 8.2 96.8813 8.38 96.6893C8.56 96.5013 8.682 96.2593 8.746 95.9633C8.766 95.8713 8.778 95.7773 8.782 95.6813C8.79 95.5853 8.794 95.5013 8.794 95.4293L8.794 92.9993L5.122 92.9993ZM0.999996 102.09L9.64 102.09L9.64 105.426C9.64 105.51 9.636 105.604 9.628 105.708C9.624 105.816 9.612 105.924 9.592 106.032C9.524 106.484 9.366 106.866 9.118 107.178C8.874 107.494 8.566 107.732 8.194 107.892C7.822 108.056 7.41 108.138 6.958 108.138C6.51 108.138 6.1 108.056 5.728 107.892C5.356 107.728 5.046 107.488 4.798 107.172C4.554 106.86 4.398 106.48 4.33 106.032C4.314 105.924 4.302 105.816 4.294 105.708C4.286 105.604 4.282 105.51 4.282 105.426L4.282 102.972L0.999995 102.972L0.999996 102.09ZM5.122 102.972L5.122 105.402C5.122 105.474 5.126 105.558 5.134 105.654C5.142 105.75 5.156 105.844 5.176 105.936C5.24 106.232 5.362 106.474 5.542 106.662C5.722 106.854 5.936 106.996 6.184 107.088C6.432 107.184 6.69 107.232 6.958 107.232C7.226 107.232 7.484 107.184 7.732 107.088C7.984 106.996 8.2 106.854 8.38 106.662C8.56 106.474 8.682 106.232 8.746 105.936C8.766 105.844 8.778 105.75 8.782 105.654C8.79 105.558 8.794 105.474 8.794 105.402L8.794 102.972L5.122 102.972ZM0.819995 112.83C0.819995 111.97 1.01 111.244 1.39 110.652C1.774 110.06 2.304 109.612 2.98 109.308C3.656 109.004 4.436 108.852 5.32 108.852C6.204 108.852 6.984 109.004 7.66 109.308C8.336 109.612 8.864 110.06 9.244 110.652C9.628 111.244 9.82 111.97 9.82 112.83C9.82 113.694 9.628 114.42 9.244 115.008C8.864 115.6 8.336 116.048 7.65999 116.352C6.984 116.66 6.204 116.814 5.32 116.814C4.436 116.814 3.65599 116.66 2.97999 116.352C2.304 116.048 1.774 115.6 1.39 115.008C1.01 114.42 0.819995 113.694 0.819995 112.83ZM1.666 112.83C1.666 113.506 1.82 114.07 2.128 114.522C2.436 114.974 2.864 115.312 3.412 115.536C3.964 115.764 4.6 115.878 5.32 115.878C6.04 115.878 6.674 115.764 7.222 115.536C7.77 115.312 8.198 114.974 8.506 114.522C8.814 114.07 8.97 113.506 8.974 112.83C8.974 112.154 8.82 111.592 8.512 111.144C8.204 110.696 7.774 110.358 7.222 110.13C6.674 109.906 6.04 109.792 5.32 109.788C4.6 109.784 3.966 109.894 3.418 110.118C2.874 110.346 2.446 110.686 2.134 111.138C1.826 111.59 1.67 112.154 1.666 112.83ZM0.999995 120.079L8.79399 120.079L8.794 117.061L9.64 117.061L9.63999 123.979L8.79399 123.979L8.79399 120.961L0.999995 120.961L0.999995 120.079ZM0.819994 127.942C0.819994 127.338 0.919994 126.794 1.11999 126.31C1.32399 125.83 1.61199 125.432 1.98399 125.116C2.35599 124.804 2.79799 124.6 3.30999 124.504L3.45999 125.404C2.89999 125.548 2.45999 125.852 2.13999 126.316C1.82399 126.78 1.66599 127.334 1.66599 127.978C1.66599 128.402 1.73199 128.782 1.86399 129.118C1.99999 129.454 2.19199 129.718 2.43999 129.91C2.68799 130.102 2.98199 130.198 3.32199 130.198C3.54599 130.198 3.73599 130.158 3.89199 130.078C4.05199 129.998 4.18399 129.892 4.28799 129.76C4.39199 129.628 4.47799 129.484 4.54599 129.328C4.61799 129.172 4.67599 129.02 4.71999 128.872L5.37399 126.682C5.44999 126.418 5.54599 126.174 5.66199 125.95C5.78199 125.726 5.92399 125.53 6.08799 125.362C6.25599 125.198 6.45199 125.07 6.67599 124.978C6.89999 124.886 7.15599 124.84 7.44399 124.84C7.93199 124.84 8.354 124.968 8.71 125.224C9.06599 125.48 9.33999 125.83 9.53199 126.274C9.72399 126.718 9.81799 127.224 9.814 127.792C9.81399 128.368 9.71199 128.882 9.50799 129.334C9.30399 129.79 9.01199 130.166 8.63199 130.462C8.25599 130.758 7.80999 130.954 7.29399 131.05L7.12599 130.126C7.50199 130.066 7.82799 129.928 8.10399 129.712C8.37999 129.496 8.59199 129.22 8.73999 128.884C8.89199 128.552 8.96999 128.186 8.974 127.786C8.974 127.398 8.90799 127.052 8.77599 126.748C8.64799 126.448 8.47199 126.21 8.24799 126.034C8.02399 125.858 7.76799 125.77 7.47999 125.77C7.18799 125.77 6.95399 125.85 6.77799 126.01C6.60199 126.174 6.46399 126.374 6.36399 126.61C6.26399 126.85 6.18199 127.082 6.11799 127.306L5.61999 128.998C5.57199 129.174 5.50199 129.38 5.40999 129.616C5.32199 129.856 5.19399 130.088 5.02599 130.312C4.86199 130.54 4.64599 130.728 4.37799 130.876C4.10999 131.024 3.76999 131.098 3.35799 131.098C2.95799 131.098 2.59999 131.018 2.28399 130.858C1.96799 130.702 1.70199 130.48 1.48599 130.192C1.26999 129.908 1.10599 129.574 0.993994 129.19C0.877994 128.81 0.819994 128.394 0.819994 127.942Z" fill="#03839E"/>
</svg>
