<svg width="593" height="202" viewBox="0 0 593 202" fill="none" xmlns="http://www.w3.org/2000/svg">
<path d="M33.288 0.399986V-0.600014H32.4377L32.301 0.239246L33.288 0.399986ZM76.2 0.399986L77.187 0.239246L77.0503 -0.600014H76.2V0.399986ZM109.032 202V203H110.208L110.019 201.839L109.032 202ZM77.352 202L76.3622 202.142L76.4856 203H77.352V202ZM71.592 161.968L72.5818 161.826L70.592 161.968H71.592ZM71.592 162.544V163.544H72.592V162.544H71.592ZM35.592 162.544V161.544H34.7274L34.6025 162.4L35.592 162.544ZM29.832 202V203H30.6966L30.8215 202.144L29.832 202ZM0.456 202L-0.530997 201.839L-0.720031 203H0.456V202ZM67.848 135.184V136.184H68.9996L68.8381 135.044L67.848 135.184ZM53.736 35.536L54.7261 35.3958L54.6044 34.536H53.736V35.536ZM53.16 35.536V34.536H52.2892L52.1695 35.3986L53.16 35.536ZM39.336 135.184L38.3455 135.047L38.1877 136.184H39.336V135.184ZM33.288 1.39999H76.2V-0.600014H33.288V1.39999ZM75.213 0.560726L108.045 202.161L110.019 201.839L77.187 0.239246L75.213 0.560726ZM109.032 201H77.352V203H109.032V201ZM78.3418 201.858L72.5818 161.826L70.6022 162.11L76.3622 202.142L78.3418 201.858ZM70.592 161.968V162.544H72.592V161.968H70.592ZM71.592 161.544H35.592V163.544H71.592V161.544ZM34.6025 162.4L28.8425 201.856L30.8215 202.144L36.5815 162.688L34.6025 162.4ZM29.832 201H0.456V203H29.832V201ZM1.443 202.161L34.275 0.560726L32.301 0.239246L-0.530997 201.839L1.443 202.161ZM68.8381 135.044L54.7261 35.3958L52.7459 35.6762L66.8579 135.324L68.8381 135.044ZM53.736 34.536H53.16V36.536H53.736V34.536ZM52.1695 35.3986L38.3455 135.047L40.3265 135.321L54.1505 35.6734L52.1695 35.3986ZM39.336 136.184H67.848V134.184H39.336V136.184ZM169.042 0.399986V-0.600014H168.042V0.399986H169.042ZM208.786 0.399986L209.755 0.152557L209.562 -0.600014H208.786V0.399986ZM239.602 121.072L238.633 121.319L238.825 122.072H239.602V121.072ZM240.178 121.072V122.072H241.178V121.072H240.178ZM240.178 0.399986V-0.600014H239.178V0.399986H240.178ZM268.402 0.399986H269.402V-0.600014H268.402V0.399986ZM268.402 202V203H269.402V202H268.402ZM235.858 202L234.89 202.25L235.083 203H235.858V202ZM197.842 54.832L198.81 54.5819L198.616 53.832H197.842V54.832ZM197.266 54.832V53.832H196.266V54.832H197.266ZM197.266 202V203H198.266V202H197.266ZM169.042 202H168.042V203H169.042V202ZM169.042 1.39999H208.786V-0.600014H169.042V1.39999ZM207.817 0.647415L238.633 121.319L240.571 120.825L209.755 0.152557L207.817 0.647415ZM239.602 122.072H240.178V120.072H239.602V122.072ZM241.178 121.072V0.399986H239.178V121.072H241.178ZM240.178 1.39999H268.402V-0.600014H240.178V1.39999ZM267.402 0.399986V202H269.402V0.399986H267.402ZM268.402 201H235.858V203H268.402V201ZM236.826 201.75L198.81 54.5819L196.874 55.0821L234.89 202.25L236.826 201.75ZM197.842 53.832H197.266V55.832H197.842V53.832ZM196.266 54.832V202H198.266V54.832H196.266ZM197.266 201H169.042V203H197.266V201ZM170.042 202V0.399986H168.042V202H170.042ZM336.588 0.399986V-0.600014H335.588V0.399986H336.588ZM420.396 13.072L419.664 13.7537L420.396 13.072ZM336.588 202H335.588V203H336.588V202ZM396.204 168.592L395.474 167.908L395.463 167.921L395.451 167.933L396.204 168.592ZM396.204 33.808L395.451 34.4665L395.463 34.4794L395.474 34.4919L396.204 33.808ZM368.268 29.2V28.2H367.268V29.2H368.268ZM368.268 173.2H367.268V174.2H368.268V173.2ZM336.588 1.39999H384.972V-0.600014H336.588V1.39999ZM384.972 1.39999C400.543 1.39999 412.043 5.57426 419.664 13.7537L421.128 12.3903C413.005 3.67371 400.889 -0.600014 384.972 -0.600014V1.39999ZM419.664 13.7537C427.304 21.9521 431.204 34.0524 431.204 50.224H433.204C433.204 33.7556 429.232 21.0879 421.128 12.3903L419.664 13.7537ZM431.204 50.224V152.176H433.204V50.224H431.204ZM431.204 152.176C431.204 168.348 427.304 180.448 419.664 188.646L421.128 190.01C429.232 181.312 433.204 168.644 433.204 152.176H431.204ZM419.664 188.646C412.043 196.826 400.543 201 384.972 201V203C400.889 203 413.005 198.726 421.128 190.01L419.664 188.646ZM384.972 201H336.588V203H384.972V201ZM337.588 202V0.399986H335.588V202H337.588ZM384.396 174.2C389.785 174.2 394.03 172.595 396.957 169.251L395.451 167.933C393.002 170.733 389.375 172.2 384.396 172.2V174.2ZM396.934 169.276C400.07 165.931 401.524 160.628 401.524 153.616H399.524C399.524 160.428 398.098 165.109 395.474 167.908L396.934 169.276ZM401.524 153.616V48.784H399.524V153.616H401.524ZM401.524 48.784C401.524 41.7716 400.07 36.4693 396.934 33.124L395.474 34.4919C398.098 37.2907 399.524 41.9724 399.524 48.784H401.524ZM396.957 33.1495C394.03 29.8046 389.785 28.2 384.396 28.2V30.2C389.375 30.2 393.002 31.6674 395.451 34.4665L396.957 33.1495ZM384.396 28.2H368.268V30.2H384.396V28.2ZM367.268 29.2V173.2H369.268V29.2H367.268ZM368.268 174.2H384.396V172.2H368.268V174.2ZM522.253 116.176H523.253V116.015L523.203 115.862L522.253 116.176ZM483.949 0.399986V-0.600014H482.565L483 0.714088L483.949 0.399986ZM517.646 0.399986L518.605 0.119843L518.395 -0.600014H517.646V0.399986ZM539.245 74.416L538.286 74.6961L538.496 75.416H539.245V74.416ZM539.821 74.416V75.416H540.571L540.781 74.6961L539.821 74.416ZM561.422 0.399986V-0.600014H560.672L560.462 0.119843L561.422 0.399986ZM592.237 0.399986L593.187 0.714088L593.622 -0.600014H592.237V0.399986ZM553.933 116.176L552.984 115.862L552.933 116.015V116.176H553.933ZM553.933 202V203H554.933V202H553.933ZM522.253 202H521.253V203H522.253V202ZM523.203 115.862L484.899 0.0858841L483 0.714088L521.304 116.49L523.203 115.862ZM483.949 1.39999H517.646V-0.600014H483.949V1.39999ZM516.686 0.68013L538.286 74.6961L540.205 74.1358L518.605 0.119843L516.686 0.68013ZM539.245 75.416H539.821V73.416H539.245V75.416ZM540.781 74.6961L562.381 0.68013L560.462 0.119843L538.862 74.1358L540.781 74.6961ZM561.422 1.39999H592.237V-0.600014H561.422V1.39999ZM591.288 0.0858841L552.984 115.862L554.883 116.49L593.187 0.714088L591.288 0.0858841ZM552.933 116.176V202H554.933V116.176H552.933ZM553.933 201H522.253V203H553.933V201ZM523.253 202V116.176H521.253V202H523.253Z" fill="#03839E"/>
</svg>
