<?xml version="1.0" encoding="UTF-8"?>
<svg xmlns="http://www.w3.org/2000/svg" xmlns:xlink="http://www.w3.org/1999/xlink" viewBox="0 0 167.01 167.76">
  <defs>
    <style>
      .cls-1 {
        fill: url(#linear-gradient-2);
      }

      .cls-2 {
        fill: #fff;
      }

      .cls-3 {
        fill: url(#linear-gradient-6);
      }

      .cls-4 {
        isolation: isolate;
      }

      .cls-5 {
        fill: url(#linear-gradient-5);
      }

      .cls-6 {
        fill: url(#linear-gradient-3);
      }

      .cls-7 {
        fill: url(#linear-gradient);
      }

      .cls-8 {
        fill: url(#linear-gradient-4);
      }

      .cls-9 {
        mix-blend-mode: multiply;
      }
    </style>
    <linearGradient id="linear-gradient" x1="3345.99" y1="1220.94" x2="3500.07" y2="1220.94" gradientTransform="translate(-3106.36 -1657.3) rotate(9)" gradientUnits="userSpaceOnUse">
      <stop offset="0" stop-color="#00f1ff"/>
      <stop offset="1" stop-color="#00c0eb"/>
    </linearGradient>
    <linearGradient id="linear-gradient-2" x1="3318.15" y1="1660.16" x2="3472.24" y2="1660.16" gradientTransform="translate(-3686.76 343.9) rotate(-30)" xlink:href="#linear-gradient"/>
    <linearGradient id="linear-gradient-3" x1="3019.45" y1="1982.74" x2="3173.53" y2="1982.74" gradientTransform="translate(-2877.34 2264.33) rotate(-69)" xlink:href="#linear-gradient"/>
    <linearGradient id="linear-gradient-4" x1="2583.94" y1="2046.18" x2="2738.02" y2="2046.18" gradientTransform="translate(-1040.34 3247.24) rotate(-108)" xlink:href="#linear-gradient"/>
    <linearGradient id="linear-gradient-5" x1="2205.05" y1="1822.66" x2="2359.14" y2="1822.66" gradientTransform="translate(1004.96 2855.64) rotate(-147)" xlink:href="#linear-gradient"/>
    <linearGradient id="linear-gradient-6" x1="2053.32" y1="1409.36" x2="2207.41" y2="1409.36" gradientTransform="translate(2349.64 1263.03) rotate(174)" xlink:href="#linear-gradient"/>
  </defs>
  <g class="cls-4">
    <g id="_Слой_1" data-name="Слой 1">
      <g>
        <g>
          <g class="cls-9">
            <path class="cls-7" d="m161.31,85.51c8.38-42.55-19.67-77.45-62.66-77.95C55.68,7.06,14.14,40.66,5.88,82.61s19.79,76.85,62.66,77.95,84.4-32.5,92.78-75.05Z"/>
          </g>
          <g class="cls-9">
            <path class="cls-1" d="m144.9,36.29C124.63-2.05,80.87-11.52,47.15,15.14,13.44,41.8,2.3,94.06,22.28,131.86c19.98,37.8,63.74,47.27,97.75,21.15,34-26.12,45.14-78.38,24.87-116.72Z"/>
          </g>
          <g class="cls-9">
            <path class="cls-6" d="m101.17,8.37C61.3-8.67,21.33,11.51,11.9,53.45c-9.42,41.94,14.81,89.56,54.12,106.36,39.32,16.8,79.28-3.38,89.27-45.08,9.99-41.7-14.25-89.32-54.12-106.36Z"/>
          </g>
          <g class="cls-9">
            <path class="cls-8" d="m49.62,14.19C7.9,26.04-10.46,66.88,8.61,105.4c19.07,38.52,67.87,60.28,108.99,48.59,41.13-11.69,59.49-52.52,41.01-91.21C140.13,24.09,91.33,2.33,49.62,14.19Z"/>
          </g>
          <g class="cls-9">
            <path class="cls-5" d="m13.22,51.15C-11.74,86.62-.31,129.91,38.75,147.85c39.06,17.94,90.68,4.14,115.29-30.83s13.18-78.26-25.54-96.69S38.18,15.69,13.22,51.15Z"/>
          </g>
          <g class="cls-9">
            <path class="cls-3" d="m8.25,102.69c2.92,43.27,39.05,69.72,80.7,59.07,41.65-10.64,73.07-53.85,70.19-96.51C156.26,22.6,120.13-3.85,78.45,6.18,36.76,16.22,5.33,59.42,8.25,102.69Z"/>
          </g>
        </g>
        <path class="cls-2" d="m73.8,122.39h15.51v-38.83h10.82l1.15-13h-11.97v-7.4c0-3.07.62-4.28,3.58-4.28h8.39v-13.49h-10.74c-11.54,0-16.74,5.08-16.74,14.81v10.37h-8.07v13.16h8.07v38.67Z"/>
      </g>
    </g>
  </g>
</svg>