<svg width="31" height="44" viewBox="0 0 31 44" fill="none" xmlns="http://www.w3.org/2000/svg">
<path d="M25.0612 42.3599C23.1172 42.3599 21.6412 41.8199 20.6332 40.7399C19.6492 39.6599 19.1572 38.1119 19.1572 36.0959V34.0439H22.9012V36.2759C22.9012 37.9319 23.5852 38.7599 24.9532 38.7599C25.6252 38.7599 26.1292 38.5559 26.4652 38.1479C26.8252 37.7159 27.0052 36.9719 27.0052 35.9159V33.8639C27.0052 32.7119 26.8012 31.8959 26.3932 31.4159C25.9852 30.9119 25.3252 30.6599 24.4132 30.6599H23.0812V27.0599H24.5212C25.3132 27.0599 25.9012 26.8559 26.2852 26.4479C26.6932 26.0399 26.8972 25.3559 26.8972 24.3959V22.5599C26.8972 21.6959 26.7172 21.0599 26.3572 20.6519C25.9972 20.2439 25.5172 20.0399 24.9172 20.0399C23.6452 20.0399 23.0092 20.8199 23.0092 22.3799V24.0359H19.2652V22.7039C19.2652 20.6879 19.7572 19.1399 20.7412 18.0599C21.7492 16.9799 23.1892 16.4399 25.0612 16.4399C26.9572 16.4399 28.3972 16.9799 29.3812 18.0599C30.3652 19.1159 30.8572 20.6519 30.8572 22.6679V23.5679C30.8572 24.9359 30.6292 26.0399 30.1732 26.8799C29.7172 27.6959 29.0092 28.2839 28.0492 28.6439V28.7159C29.0812 29.0999 29.8252 29.7239 30.2812 30.5879C30.7372 31.4519 30.9652 32.5559 30.9652 33.8999V36.1319C30.9652 38.1479 30.4612 39.6959 29.4532 40.7759C28.4692 41.8319 27.0052 42.3599 25.0612 42.3599Z" fill="black"/>
<path d="M17.3921 0L18.3193 0.374607L0.978948 43.2934L0.0517639 42.9188L17.3921 0Z" fill="#333333"/>
</svg>
