<?xml version="1.0" encoding="UTF-8"?>
<svg xmlns="http://www.w3.org/2000/svg" xmlns:xlink="http://www.w3.org/1999/xlink" viewBox="0 0 169.89 168.39">
  <defs>
    <style>
      .cls-1 {
        fill: url(#linear-gradient-2);
      }

      .cls-2 {
        fill: #fff;
      }

      .cls-3 {
        isolation: isolate;
      }

      .cls-4 {
        fill: url(#linear-gradient-3);
      }

      .cls-5 {
        fill: url(#linear-gradient);
      }

      .cls-6 {
        fill: url(#linear-gradient-4);
      }

      .cls-7 {
        mix-blend-mode: multiply;
      }
    </style>
    <linearGradient id="linear-gradient" x1="3.18" y1="84.23" x2="166.94" y2="84.23" gradientUnits="userSpaceOnUse">
      <stop offset="0" stop-color="#96fdff"/>
      <stop offset="1" stop-color="#14c9ee"/>
    </linearGradient>
    <linearGradient id="linear-gradient-2" x1="769.57" y1="-1237.43" x2="933.34" y2="-1237.43" gradientTransform="translate(956.67 1307.54) rotate(-70)" xlink:href="#linear-gradient"/>
    <linearGradient id="linear-gradient-3" x1="2274.57" y1="-969.62" x2="2438.34" y2="-969.62" gradientTransform="translate(2513.37 856.23) rotate(-140)" xlink:href="#linear-gradient"/>
    <linearGradient id="linear-gradient-4" x1="2536.62" y1="536.24" x2="2700.38" y2="536.24" gradientTransform="translate(2620.8 -760.63) rotate(150)" xlink:href="#linear-gradient"/>
  </defs>
  <g class="cls-3">
    <g id="_Слой_1" data-name="Слой 1">
      <g>
        <g>
          <g class="cls-7">
            <path class="cls-5" d="m166.94,76.38C166.94,32.11,130.28.01,85.06,4.69,39.84,9.36,3.18,48.54,3.18,92.18s36.66,75.74,81.88,71.69c45.22-4.05,81.88-43.23,81.88-87.5Z"/>
          </g>
          <g class="cls-7">
            <path class="cls-1" d="m105.69,4.6C64.09-10.54,21.39,12.93,10.31,57.02c-11.07,44.09,13.2,91.94,54.22,106.87,41.01,14.93,83.71-8.54,95.37-52.42,11.66-43.88-12.61-91.73-54.22-106.87Z"/>
          </g>
          <g class="cls-7">
            <path class="cls-4" d="m17.29,37.61C-11.17,71.52-3.72,119.67,33.93,145.16c37.65,25.49,90.91,19.04,118.97-14.39,28.06-33.44,20.6-81.59-16.64-107.55S45.74,3.69,17.29,37.61Z"/>
          </g>
          <g class="cls-7">
            <path class="cls-6" d="m18.07,131.97c22.14,38.34,69.93,47.81,106.76,21.15,36.83-26.66,48.99-78.92,27.16-116.72C130.17-1.4,82.37-10.87,45.23,15.25,8.1,41.37-4.06,93.63,18.07,131.97Z"/>
          </g>
        </g>
        <path class="cls-2" d="m73,110.37c-7.19,0-14.2-2.05-20.26-5.94,1.05.11,2.12.17,3.17.17,5.92,0,11.74-2.01,16.39-5.66-5.66-.09-10.62-3.78-12.35-9.17.83.15,1.68.23,2.51.23,1.17,0,2.34-.16,3.46-.46-6.19-1.23-10.75-6.87-10.6-13.11,1.84,1.01,3.91,1.58,6,1.64-5.81-3.86-7.61-11.61-4.1-17.64,6.73,8.24,16.65,13.27,27.24,13.8-.93-3.94,0-8.04,2.52-11.22,2.52-3.18,6.3-5,10.35-5,3.64,0,7.16,1.52,9.65,4.18,2.95-.59,5.77-1.67,8.38-3.21-.96,3.07-3.03,5.67-5.8,7.33,2.62-.33,5.17-1.03,7.58-2.1-1.77,2.68-3.99,4.99-6.58,6.86.46,10.17-3.51,20.68-10.63,28.12-4.88,5.1-13.51,11.18-26.94,11.18Z"/>
      </g>
    </g>
  </g>
</svg>