<svg width="132" height="27" viewBox="0 0 132 27" fill="none" xmlns="http://www.w3.org/2000/svg">
<path d="M0.680102 1.11347H6.5121C8.4801 1.11347 9.9561 1.64148 10.9401 2.69748C11.9241 3.75348 12.4161 5.30148 12.4161 7.34148V9.82548C12.4161 11.8655 11.9241 13.4135 10.9401 14.4695C9.9561 15.5255 8.4801 16.0535 6.5121 16.0535H4.6401V26.3135H0.680102V1.11347ZM6.5121 12.4535C7.1601 12.4535 7.6401 12.2735 7.9521 11.9135C8.2881 11.5535 8.4561 10.9415 8.4561 10.0775V7.08948C8.4561 6.22547 8.2881 5.61347 7.9521 5.25348C7.6401 4.89348 7.1601 4.71348 6.5121 4.71348H4.6401V12.4535H6.5121ZM22.4508 26.6735C20.5068 26.6735 19.0188 26.1215 17.9868 25.0175C16.9548 23.9135 16.4388 22.3535 16.4388 20.3375V7.08948C16.4388 5.07348 16.9548 3.51348 17.9868 2.40948C19.0188 1.30548 20.5068 0.753475 22.4508 0.753475C24.3948 0.753475 25.8828 1.30548 26.9148 2.40948C27.9468 3.51348 28.4628 5.07348 28.4628 7.08948V20.3375C28.4628 22.3535 27.9468 23.9135 26.9148 25.0175C25.8828 26.1215 24.3948 26.6735 22.4508 26.6735ZM22.4508 23.0735C23.8188 23.0735 24.5028 22.2455 24.5028 20.5895V6.83748C24.5028 5.18148 23.8188 4.35348 22.4508 4.35348C21.0828 4.35348 20.3988 5.18148 20.3988 6.83748V20.5895C20.3988 22.2455 21.0828 23.0735 22.4508 23.0735ZM36.2563 4.71348H32.1163V1.11347H44.3563V4.71348H40.2163V26.3135H36.2563V4.71348ZM48.4335 1.11347H54.3015C56.3415 1.11347 57.8295 1.59348 58.7655 2.55348C59.7015 3.48948 60.1695 4.94147 60.1695 6.90948V8.45748C60.1695 11.0735 59.3055 12.7295 57.5775 13.4255V13.4975C58.5375 13.7855 59.2095 14.3735 59.5935 15.2615C60.0015 16.1495 60.2055 17.3375 60.2055 18.8255V23.2535C60.2055 23.9735 60.2295 24.5615 60.2775 25.0175C60.3255 25.4495 60.4455 25.8815 60.6375 26.3135H56.6055C56.4615 25.9055 56.3655 25.5215 56.3175 25.1615C56.2695 24.8015 56.2455 24.1535 56.2455 23.2175V18.6095C56.2455 17.4575 56.0535 16.6535 55.6695 16.1975C55.3095 15.7415 54.6735 15.5135 53.7615 15.5135H52.3935V26.3135H48.4335V1.11347ZM53.8335 11.9135C54.6255 11.9135 55.2135 11.7095 55.5975 11.3015C56.0055 10.8935 56.2095 10.2095 56.2095 9.24948V7.30548C56.2095 6.39348 56.0415 5.73348 55.7055 5.32548C55.3935 4.91748 54.8895 4.71348 54.1935 4.71348H52.3935V11.9135H53.8335ZM73.0387 1.11347H78.8707C80.8387 1.11347 82.3147 1.64148 83.2987 2.69748C84.2827 3.75348 84.7747 5.30148 84.7747 7.34148V9.82548C84.7747 11.8655 84.2827 13.4135 83.2987 14.4695C82.3147 15.5255 80.8387 16.0535 78.8707 16.0535H76.9987V26.3135H73.0387V1.11347ZM78.8707 12.4535C79.5187 12.4535 79.9987 12.2735 80.3107 11.9135C80.6467 11.5535 80.8147 10.9415 80.8147 10.0775V7.08948C80.8147 6.22547 80.6467 5.61347 80.3107 5.25348C79.9987 4.89348 79.5187 4.71348 78.8707 4.71348H76.9987V12.4535H78.8707ZM94.8094 26.6735C92.8654 26.6735 91.3774 26.1215 90.3454 25.0175C89.3134 23.9135 88.7974 22.3535 88.7974 20.3375V7.08948C88.7974 5.07348 89.3134 3.51348 90.3454 2.40948C91.3774 1.30548 92.8654 0.753475 94.8094 0.753475C96.7534 0.753475 98.2414 1.30548 99.2734 2.40948C100.305 3.51348 100.821 5.07348 100.821 7.08948V20.3375C100.821 22.3535 100.305 23.9135 99.2734 25.0175C98.2414 26.1215 96.7534 26.6735 94.8094 26.6735ZM94.8094 23.0735C96.1774 23.0735 96.8614 22.2455 96.8614 20.5895V6.83748C96.8614 5.18148 96.1774 4.35348 94.8094 4.35348C93.4414 4.35348 92.7574 5.18148 92.7574 6.83748V20.5895C92.7574 22.2455 93.4414 23.0735 94.8094 23.0735ZM108.615 4.71348H104.475V1.11347H116.715V4.71348H112.575V26.3135H108.615V4.71348ZM125.94 26.6735C124.02 26.6735 122.568 26.1335 121.584 25.0535C120.6 23.9495 120.108 22.3775 120.108 20.3375V18.8975H123.852V20.6255C123.852 22.2575 124.536 23.0735 125.904 23.0735C126.576 23.0735 127.08 22.8815 127.416 22.4975C127.776 22.0895 127.956 21.4415 127.956 20.5535C127.956 19.4975 127.716 18.5735 127.236 17.7815C126.756 16.9655 125.868 15.9935 124.572 14.8655C122.94 13.4255 121.8 12.1295 121.152 10.9775C120.504 9.80148 120.18 8.48148 120.18 7.01748C120.18 5.02548 120.684 3.48948 121.692 2.40948C122.7 1.30548 124.164 0.753475 126.084 0.753475C127.98 0.753475 129.408 1.30548 130.368 2.40948C131.352 3.48948 131.844 5.04948 131.844 7.08948V8.13348H128.1V6.83748C128.1 5.97348 127.932 5.34948 127.596 4.96547C127.26 4.55748 126.768 4.35348 126.12 4.35348C124.8 4.35348 124.14 5.15748 124.14 6.76548C124.14 7.67748 124.38 8.52948 124.86 9.32148C125.364 10.1135 126.264 11.0735 127.56 12.2015C129.216 13.6415 130.356 14.9495 130.98 16.1255C131.604 17.3015 131.916 18.6815 131.916 20.2655C131.916 22.3295 131.4 23.9135 130.368 25.0175C129.36 26.1215 127.884 26.6735 125.94 26.6735Z" fill="#333333"/>
</svg>
