<svg width="29" height="8" viewBox="0 0 29 8" fill="none" xmlns="http://www.w3.org/2000/svg">
<rect width="29" height="8" fill="#E5E5E5"/>
<g id="Mobile (320px)" clip-path="url(#clip0_1760_281)">
<rect width="320" height="8734" transform="translate(-190 -734)" fill="#F8F8F8"/>
<g id="Group 76">
<g id="Default_primary2">
<rect id="Rectangle 2" x="-159.5" y="-19.5" width="259" height="47" fill="#FFE339" stroke="#FFE339"/>
<g id="Group 55">
<path id="Arrow 2" d="M28.2528 4.35355C28.4481 4.15829 28.4481 3.84171 28.2528 3.64645L25.0709 0.464466C24.8756 0.269204 24.559 0.269204 24.3638 0.464466C24.1685 0.659728 24.1685 0.976311 24.3638 1.17157L27.1922 4L24.3638 6.82843C24.1685 7.02369 24.1685 7.34027 24.3638 7.53553C24.559 7.7308 24.8756 7.7308 25.0709 7.53553L28.2528 4.35355ZM0.588379 4.5H27.8993V3.5H0.588379V4.5Z" fill="black"/>
</g>
</g>
</g>
</g>
<defs>
<clipPath id="clip0_1760_281">
<rect width="320" height="8734" fill="white" transform="translate(-190 -734)"/>
</clipPath>
</defs>
</svg>
