<svg width="210" height="88" viewBox="0 0 210 88" fill="none" xmlns="http://www.w3.org/2000/svg">
<path d="M1.12 12V0.48H5.568C5.68 0.48 5.80533 0.485333 5.944 0.495999C6.088 0.501333 6.232 0.517333 6.376 0.544C6.97867 0.634666 7.488 0.845333 7.904 1.176C8.32533 1.50133 8.64267 1.912 8.856 2.408C9.07467 2.904 9.184 3.45333 9.184 4.056C9.184 4.65333 9.07467 5.2 8.856 5.696C8.63733 6.192 8.31733 6.60533 7.896 6.936C7.48 7.26133 6.97333 7.46933 6.376 7.56C6.232 7.58133 6.088 7.59733 5.944 7.608C5.80533 7.61867 5.68 7.624 5.568 7.624H2.296V12H1.12ZM2.296 6.504H5.536C5.632 6.504 5.744 6.49867 5.872 6.488C6 6.47733 6.12533 6.45867 6.248 6.432C6.64267 6.34667 6.96533 6.184 7.216 5.944C7.472 5.704 7.66133 5.41867 7.784 5.088C7.912 4.75733 7.976 4.41333 7.976 4.056C7.976 3.69867 7.912 3.35467 7.784 3.024C7.66133 2.688 7.472 2.4 7.216 2.16C6.96533 1.92 6.64267 1.75733 6.248 1.672C6.12533 1.64533 6 1.62933 5.872 1.624C5.744 1.61333 5.632 1.608 5.536 1.608H2.296V6.504ZM15.4403 12.24C14.2936 12.24 13.3256 11.9867 12.5363 11.48C11.7469 10.968 11.1496 10.2613 10.7443 9.36C10.3389 8.45867 10.1363 7.41867 10.1363 6.24C10.1363 5.06133 10.3389 4.02133 10.7443 3.12C11.1496 2.21867 11.7469 1.51467 12.5363 1.008C13.3256 0.496 14.2936 0.24 15.4403 0.24C16.5923 0.24 17.5603 0.496 18.3443 1.008C19.1336 1.51467 19.7309 2.21867 20.1363 3.12C20.5469 4.02133 20.7523 5.06133 20.7523 6.24C20.7523 7.41867 20.5469 8.45867 20.1363 9.36C19.7309 10.2613 19.1336 10.968 18.3443 11.48C17.5603 11.9867 16.5923 12.24 15.4403 12.24ZM15.4403 11.112C16.3416 11.112 17.0936 10.9067 17.6962 10.496C18.2989 10.0853 18.7496 9.51467 19.0483 8.784C19.3523 8.048 19.5043 7.2 19.5043 6.24C19.5043 5.28 19.3523 4.43467 19.0483 3.704C18.7496 2.97333 18.2989 2.40267 17.6962 1.992C17.0936 1.58133 16.3416 1.37333 15.4403 1.368C14.5389 1.368 13.7896 1.57333 13.1923 1.984C12.5949 2.39467 12.1443 2.968 11.8403 3.704C11.5416 4.43467 11.3896 5.28 11.3843 6.24C11.3789 7.2 11.5256 8.04533 11.8243 8.776C12.1283 9.50133 12.5816 10.072 13.1843 10.488C13.7869 10.8987 14.5389 11.1067 15.4403 11.112ZM25.1059 12V1.608H21.0819V0.48H30.3059V1.608H26.2819V12H25.1059ZM31.5888 12V0.48H36.0368C36.1488 0.48 36.2741 0.485333 36.4128 0.495999C36.5568 0.501333 36.7008 0.517333 36.8448 0.544C37.4474 0.634666 37.9568 0.845333 38.3728 1.176C38.7941 1.50133 39.1114 1.912 39.3247 2.408C39.5434 2.904 39.6528 3.45333 39.6528 4.056C39.6528 4.92533 39.4234 5.68 38.9648 6.32C38.5061 6.96 37.8501 7.36267 36.9968 7.528L36.5888 7.624H32.7648V12H31.5888ZM38.5648 12L36.2928 7.312L37.4208 6.88L39.9168 12H38.5648ZM32.7648 6.504H36.0048C36.1008 6.504 36.2128 6.49867 36.3408 6.488C36.4688 6.47733 36.5941 6.45867 36.7168 6.432C37.1114 6.34667 37.4341 6.184 37.6848 5.944C37.9408 5.704 38.1301 5.41867 38.2528 5.088C38.3808 4.75733 38.4448 4.41333 38.4448 4.056C38.4448 3.69867 38.3808 3.35467 38.2528 3.024C38.1301 2.688 37.9408 2.4 37.6848 2.16C37.4341 1.92 37.1114 1.75733 36.7168 1.672C36.5941 1.64533 36.4688 1.62933 36.3408 1.624C36.2128 1.61333 36.1008 1.608 36.0048 1.608H32.7648V6.504ZM48.7656 12.24C47.971 12.24 47.299 12.04 46.7496 11.64C46.2003 11.2347 45.7843 10.688 45.5016 10C45.219 9.30667 45.0776 8.53067 45.0776 7.672C45.0776 6.79733 45.219 6.01867 45.5016 5.336C45.7896 4.648 46.211 4.10667 46.7656 3.712C47.3203 3.31733 48.003 3.12 48.8136 3.12C49.603 3.12 50.2803 3.32 50.8456 3.72C51.411 4.12 51.843 4.664 52.1416 5.352C52.4456 6.04 52.5976 6.81333 52.5976 7.672C52.5976 8.536 52.4456 9.312 52.1416 10C51.8376 10.688 51.4003 11.2347 50.8296 11.64C50.259 12.04 49.571 12.24 48.7656 12.24ZM44.8776 15.84V3.36H45.9336V9.864H46.0616V15.84H44.8776ZM48.6456 11.144C49.2483 11.144 49.7496 10.992 50.1496 10.688C50.5496 10.384 50.8483 9.97067 51.0456 9.448C51.2483 8.92 51.3496 8.328 51.3496 7.672C51.3496 7.02133 51.251 6.43467 51.0536 5.912C50.8563 5.38933 50.555 4.976 50.1496 4.672C49.7496 4.368 49.2403 4.216 48.6216 4.216C48.019 4.216 47.5176 4.36267 47.1176 4.656C46.723 4.94933 46.427 5.35733 46.2296 5.88C46.0323 6.39733 45.9336 6.99467 45.9336 7.672C45.9336 8.33867 46.0323 8.936 46.2296 9.464C46.427 9.98667 46.7256 10.3973 47.1256 10.696C47.5256 10.9947 48.0323 11.144 48.6456 11.144ZM57.9624 12.24C57.1037 12.24 56.3704 12.0453 55.7624 11.656C55.1544 11.2667 54.6877 10.728 54.3624 10.04C54.037 9.352 53.8744 8.56267 53.8744 7.672C53.8744 6.76533 54.0397 5.97067 54.3704 5.288C54.701 4.60533 55.1704 4.07467 55.7784 3.696C56.3917 3.312 57.1197 3.12 57.9624 3.12C58.8264 3.12 59.5624 3.31467 60.1704 3.704C60.7837 4.088 61.2504 4.624 61.5704 5.312C61.8957 5.99467 62.0584 6.78133 62.0584 7.672C62.0584 8.57867 61.8957 9.376 61.5704 10.064C61.245 10.7467 60.7757 11.28 60.1624 11.664C59.549 12.048 58.8157 12.24 57.9624 12.24ZM57.9624 11.112C58.9224 11.112 59.637 10.7947 60.1064 10.16C60.5757 9.52 60.8104 8.69067 60.8104 7.672C60.8104 6.62667 60.573 5.79467 60.0984 5.176C59.629 4.55733 58.917 4.248 57.9624 4.248C57.317 4.248 56.7837 4.39467 56.3624 4.688C55.9464 4.976 55.6344 5.37867 55.4264 5.896C55.2237 6.408 55.1224 7 55.1224 7.672C55.1224 8.712 55.3624 9.54667 55.8424 10.176C56.3224 10.8 57.029 11.112 57.9624 11.112ZM68.5271 12C68.0418 12.1013 67.5618 12.1413 67.0871 12.12C66.6178 12.0987 66.1965 11.9973 65.8231 11.816C65.4551 11.6347 65.1751 11.352 64.9831 10.968C64.8285 10.648 64.7431 10.3253 64.7271 10C64.7165 9.66933 64.7111 9.29333 64.7111 8.872V0.959999H65.8791V8.824C65.8791 9.18667 65.8818 9.49067 65.8871 9.736C65.8978 9.976 65.9538 10.1893 66.0551 10.376C66.2471 10.7333 66.5511 10.9467 66.9671 11.016C67.3885 11.0853 67.9085 11.0693 68.5271 10.968V12ZM62.8631 4.368V3.36H68.5271V4.368H62.8631ZM73.4534 12.232C72.44 12.232 71.6054 12.0133 70.9494 11.576C70.2987 11.1387 69.8987 10.5307 69.7494 9.752L70.9494 9.552C71.0774 10.0427 71.368 10.4347 71.8214 10.728C72.28 11.016 72.8454 11.16 73.5174 11.16C74.1734 11.16 74.6907 11.024 75.0694 10.752C75.448 10.4747 75.6374 10.0987 75.6374 9.624C75.6374 9.35733 75.576 9.14133 75.4534 8.976C75.336 8.80533 75.0934 8.648 74.7254 8.504C74.3574 8.36 73.808 8.18933 73.0774 7.992C72.2934 7.77867 71.68 7.56533 71.2374 7.352C70.7947 7.13867 70.48 6.89333 70.2934 6.616C70.1067 6.33333 70.0134 5.98933 70.0134 5.584C70.0134 5.09333 70.152 4.664 70.4294 4.296C70.7067 3.92267 71.0907 3.63467 71.5814 3.432C72.072 3.224 72.6427 3.12 73.2934 3.12C73.944 3.12 74.5254 3.22667 75.0374 3.44C75.5547 3.648 75.9707 3.94133 76.2854 4.32C76.6 4.69867 76.7867 5.13867 76.8454 5.64L75.6454 5.856C75.5654 5.34933 75.312 4.94933 74.8854 4.656C74.464 4.35733 73.928 4.20267 73.2774 4.192C72.664 4.176 72.1654 4.29333 71.7814 4.544C71.3974 4.78933 71.2054 5.11733 71.2054 5.528C71.2054 5.75733 71.2747 5.95467 71.4134 6.12C71.552 6.28 71.8027 6.432 72.1654 6.576C72.5334 6.72 73.056 6.87733 73.7334 7.048C74.528 7.25067 75.152 7.464 75.6054 7.688C76.0587 7.912 76.3814 8.176 76.5734 8.48C76.7654 8.784 76.8614 9.16 76.8614 9.608C76.8614 10.424 76.5574 11.0667 75.9494 11.536C75.3467 12 74.5147 12.232 73.4534 12.232ZM84.3108 12.24C83.6601 12.24 83.1134 12.1227 82.6708 11.888C82.2334 11.6533 81.9054 11.3413 81.6868 10.952C81.4681 10.5627 81.3588 10.1387 81.3588 9.68C81.3588 9.21067 81.4521 8.81067 81.6388 8.48C81.8308 8.144 82.0894 7.86933 82.4148 7.656C82.7454 7.44267 83.1268 7.28 83.5588 7.168C83.9961 7.06133 84.4788 6.968 85.0068 6.888C85.5401 6.80267 86.0601 6.73067 86.5668 6.672C87.0788 6.608 87.5268 6.54667 87.9108 6.488L87.4948 6.744C87.5108 5.89067 87.3454 5.25867 86.9988 4.848C86.6521 4.43733 86.0494 4.232 85.1908 4.232C84.5988 4.232 84.0974 4.36533 83.6868 4.632C83.2814 4.89867 82.9961 5.32 82.8307 5.896L81.6868 5.56C81.8841 4.78667 82.2814 4.18667 82.8788 3.76C83.4761 3.33333 84.2521 3.12 85.2068 3.12C85.9961 3.12 86.6654 3.26933 87.2148 3.568C87.7694 3.86133 88.1614 4.288 88.3908 4.848C88.4974 5.09867 88.5668 5.37867 88.5988 5.688C88.6308 5.99733 88.6468 6.312 88.6468 6.632V12H87.5988V9.832L87.9028 9.96C87.6094 10.7013 87.1534 11.2667 86.5348 11.656C85.9161 12.0453 85.1748 12.24 84.3108 12.24ZM84.4468 11.224C84.9961 11.224 85.4761 11.1253 85.8868 10.928C86.2974 10.7307 86.6281 10.4613 86.8788 10.12C87.1294 9.77333 87.2921 9.384 87.3668 8.952C87.4308 8.67467 87.4654 8.37067 87.4708 8.04C87.4761 7.704 87.4788 7.45333 87.4788 7.288L87.9268 7.52C87.5268 7.57333 87.0921 7.62667 86.6228 7.68C86.1588 7.73333 85.7001 7.79467 85.2468 7.864C84.7988 7.93333 84.3934 8.016 84.0308 8.112C83.7854 8.18133 83.5481 8.28 83.3188 8.408C83.0894 8.53067 82.9001 8.696 82.7508 8.904C82.6068 9.112 82.5348 9.37067 82.5348 9.68C82.5348 9.93067 82.5961 10.1733 82.7188 10.408C82.8468 10.6427 83.0494 10.8373 83.3268 10.992C83.6094 11.1467 83.9828 11.224 84.4468 11.224ZM90.7294 12V3.36H91.7854V5.44L91.5774 5.168C91.6734 4.912 91.7987 4.67733 91.9534 4.464C92.108 4.24533 92.276 4.06667 92.4574 3.928C92.6814 3.73067 92.9427 3.58133 93.2414 3.48C93.54 3.37333 93.8414 3.312 94.1454 3.296C94.4494 3.27467 94.7267 3.296 94.9774 3.36V4.464C94.6627 4.384 94.3187 4.36533 93.9454 4.408C93.572 4.45067 93.228 4.6 92.9134 4.856C92.6254 5.08 92.4094 5.34933 92.2654 5.664C92.1214 5.97333 92.0254 6.304 91.9774 6.656C91.9294 7.00267 91.9054 7.34667 91.9054 7.688V12H90.7294ZM99.9948 12.24C99.1521 12.24 98.4214 12.0533 97.8028 11.68C97.1894 11.3067 96.7121 10.7813 96.3708 10.104C96.0294 9.42667 95.8588 8.632 95.8588 7.72C95.8588 6.776 96.0268 5.96 96.3628 5.272C96.6988 4.584 97.1708 4.05333 97.7788 3.68C98.3921 3.30667 99.1148 3.12 99.9468 3.12C100.8 3.12 101.528 3.31733 102.131 3.712C102.733 4.10133 103.189 4.66133 103.499 5.392C103.808 6.12267 103.949 6.99467 103.923 8.008H102.723V7.592C102.701 6.472 102.459 5.62667 101.995 5.056C101.536 4.48533 100.864 4.2 99.9788 4.2C99.0508 4.2 98.3388 4.50133 97.8428 5.104C97.3521 5.70667 97.1068 6.56533 97.1068 7.68C97.1068 8.768 97.3521 9.61333 97.8428 10.216C98.3388 10.8133 99.0401 11.112 99.9468 11.112C100.565 11.112 101.104 10.9707 101.563 10.688C102.027 10.4 102.392 9.98667 102.659 9.448L103.755 9.872C103.413 10.624 102.909 11.208 102.243 11.624C101.581 12.0347 100.832 12.24 99.9948 12.24ZM96.6908 8.008V7.024H103.291V8.008H96.6908ZM113.053 4.368V3.36H115.453V4.368H113.053ZM109.757 12V2.72C109.757 2.496 109.768 2.27467 109.789 2.056C109.816 1.83733 109.867 1.62933 109.941 1.432C110.016 1.22933 110.133 1.04267 110.293 0.872C110.469 0.68 110.661 0.541333 110.869 0.455999C111.077 0.365333 111.293 0.306666 111.517 0.28C111.747 0.253333 111.971 0.24 112.189 0.24H113.293V1.232H112.269C111.821 1.232 111.485 1.34133 111.261 1.56C111.043 1.77867 110.933 2.12267 110.933 2.592V12H109.757ZM108.261 4.368V3.36H113.293V4.368H108.261ZM115.317 12V0.24H116.493V12H115.317ZM121.358 12.24C120.707 12.24 120.16 12.1227 119.718 11.888C119.28 11.6533 118.952 11.3413 118.734 10.952C118.515 10.5627 118.406 10.1387 118.406 9.68C118.406 9.21067 118.499 8.81067 118.686 8.48C118.878 8.144 119.136 7.86933 119.462 7.656C119.792 7.44267 120.174 7.28 120.606 7.168C121.043 7.06133 121.526 6.968 122.054 6.888C122.587 6.80267 123.107 6.73067 123.614 6.672C124.126 6.608 124.574 6.54667 124.958 6.488L124.542 6.744C124.558 5.89067 124.392 5.25867 124.046 4.848C123.699 4.43733 123.096 4.232 122.238 4.232C121.646 4.232 121.144 4.36533 120.734 4.632C120.328 4.89867 120.043 5.32 119.878 5.896L118.734 5.56C118.931 4.78667 119.328 4.18667 119.926 3.76C120.523 3.33333 121.299 3.12 122.254 3.12C123.043 3.12 123.712 3.26933 124.262 3.568C124.816 3.86133 125.208 4.288 125.438 4.848C125.544 5.09867 125.614 5.37867 125.646 5.688C125.678 5.99733 125.694 6.312 125.694 6.632V12H124.646V9.832L124.95 9.96C124.656 10.7013 124.2 11.2667 123.582 11.656C122.963 12.0453 122.222 12.24 121.358 12.24ZM121.494 11.224C122.043 11.224 122.523 11.1253 122.934 10.928C123.344 10.7307 123.675 10.4613 123.926 10.12C124.176 9.77333 124.339 9.384 124.414 8.952C124.478 8.67467 124.512 8.37067 124.518 8.04C124.523 7.704 124.526 7.45333 124.526 7.288L124.974 7.52C124.574 7.57333 124.139 7.62667 123.67 7.68C123.206 7.73333 122.747 7.79467 122.294 7.864C121.846 7.93333 121.44 8.016 121.078 8.112C120.832 8.18133 120.595 8.28 120.366 8.408C120.136 8.53067 119.947 8.696 119.798 8.904C119.654 9.112 119.582 9.37067 119.582 9.68C119.582 9.93067 119.643 10.1733 119.766 10.408C119.894 10.6427 120.096 10.8373 120.374 10.992C120.656 11.1467 121.03 11.224 121.494 11.224ZM132.48 12C131.995 12.1013 131.515 12.1413 131.04 12.12C130.571 12.0987 130.15 11.9973 129.776 11.816C129.408 11.6347 129.128 11.352 128.936 10.968C128.782 10.648 128.696 10.3253 128.68 10C128.67 9.66933 128.664 9.29333 128.664 8.872V0.959999H129.832V8.824C129.832 9.18667 129.835 9.49067 129.84 9.736C129.851 9.976 129.907 10.1893 130.008 10.376C130.2 10.7333 130.504 10.9467 130.92 11.016C131.342 11.0853 131.862 11.0693 132.48 10.968V12ZM126.816 4.368V3.36H132.48V4.368H126.816ZM141.266 12.24C140.471 12.24 139.799 12.04 139.25 11.64C138.7 11.2347 138.284 10.688 138.002 10C137.719 9.30667 137.578 8.53067 137.578 7.672C137.578 6.79733 137.719 6.01867 138.002 5.336C138.29 4.648 138.711 4.10667 139.266 3.712C139.82 3.31733 140.503 3.12 141.314 3.12C142.103 3.12 142.78 3.32 143.346 3.72C143.911 4.12 144.343 4.664 144.642 5.352C144.946 6.04 145.098 6.81333 145.098 7.672C145.098 8.536 144.946 9.312 144.642 10C144.338 10.688 143.9 11.2347 143.33 11.64C142.759 12.04 142.071 12.24 141.266 12.24ZM137.378 15.84V3.36H138.434V9.864H138.562V15.84H137.378ZM141.146 11.144C141.748 11.144 142.25 10.992 142.65 10.688C143.05 10.384 143.348 9.97067 143.546 9.448C143.748 8.92 143.85 8.328 143.85 7.672C143.85 7.02133 143.751 6.43467 143.554 5.912C143.356 5.38933 143.055 4.976 142.65 4.672C142.25 4.368 141.74 4.216 141.122 4.216C140.519 4.216 140.018 4.36267 139.618 4.656C139.223 4.94933 138.927 5.35733 138.73 5.88C138.532 6.39733 138.434 6.99467 138.434 7.672C138.434 8.33867 138.532 8.936 138.73 9.464C138.927 9.98667 139.226 10.3973 139.626 10.696C140.026 10.9947 140.532 11.144 141.146 11.144ZM149.326 12.24C148.676 12.24 148.129 12.1227 147.686 11.888C147.249 11.6533 146.921 11.3413 146.702 10.952C146.484 10.5627 146.374 10.1387 146.374 9.68C146.374 9.21067 146.468 8.81067 146.654 8.48C146.846 8.144 147.105 7.86933 147.43 7.656C147.761 7.44267 148.142 7.28 148.574 7.168C149.012 7.06133 149.494 6.968 150.022 6.888C150.556 6.80267 151.076 6.73067 151.582 6.672C152.094 6.608 152.542 6.54667 152.926 6.488L152.51 6.744C152.526 5.89067 152.361 5.25867 152.014 4.848C151.668 4.43733 151.065 4.232 150.206 4.232C149.614 4.232 149.113 4.36533 148.702 4.632C148.297 4.89867 148.012 5.32 147.846 5.896L146.702 5.56C146.9 4.78667 147.297 4.18667 147.894 3.76C148.492 3.33333 149.268 3.12 150.222 3.12C151.012 3.12 151.681 3.26933 152.23 3.568C152.785 3.86133 153.177 4.288 153.406 4.848C153.513 5.09867 153.582 5.37867 153.614 5.688C153.646 5.99733 153.662 6.312 153.662 6.632V12H152.614V9.832L152.918 9.96C152.625 10.7013 152.169 11.2667 151.55 11.656C150.932 12.0453 150.19 12.24 149.326 12.24ZM149.462 11.224C150.012 11.224 150.492 11.1253 150.902 10.928C151.313 10.7307 151.644 10.4613 151.894 10.12C152.145 9.77333 152.308 9.384 152.382 8.952C152.446 8.67467 152.481 8.37067 152.486 8.04C152.492 7.704 152.494 7.45333 152.494 7.288L152.942 7.52C152.542 7.57333 152.108 7.62667 151.638 7.68C151.174 7.73333 150.716 7.79467 150.262 7.864C149.814 7.93333 149.409 8.016 149.046 8.112C148.801 8.18133 148.564 8.28 148.334 8.408C148.105 8.53067 147.916 8.696 147.766 8.904C147.622 9.112 147.55 9.37067 147.55 9.68C147.55 9.93067 147.612 10.1733 147.734 10.408C147.862 10.6427 148.065 10.8373 148.342 10.992C148.625 11.1467 148.998 11.224 149.462 11.224ZM159.329 12.24C158.46 12.24 157.724 12.0453 157.121 11.656C156.518 11.2667 156.06 10.7307 155.745 10.048C155.436 9.36 155.276 8.57067 155.265 7.68C155.276 6.77333 155.441 5.97867 155.761 5.296C156.081 4.608 156.542 4.07467 157.145 3.696C157.748 3.312 158.478 3.12 159.337 3.12C160.212 3.12 160.972 3.33333 161.617 3.76C162.268 4.18667 162.713 4.77067 162.953 5.512L161.801 5.88C161.598 5.36267 161.276 4.96267 160.833 4.68C160.396 4.392 159.894 4.248 159.329 4.248C158.694 4.248 158.169 4.39467 157.753 4.688C157.337 4.976 157.028 5.37867 156.825 5.896C156.622 6.41333 156.518 7.008 156.513 7.68C156.524 8.71467 156.764 9.54667 157.233 10.176C157.702 10.8 158.401 11.112 159.329 11.112C159.916 11.112 160.414 10.9787 160.825 10.712C161.241 10.44 161.556 10.0453 161.769 9.528L162.953 9.88C162.633 10.648 162.164 11.2347 161.545 11.64C160.926 12.04 160.188 12.24 159.329 12.24ZM164.596 12L164.604 0.48H165.788V7.52L169.644 3.36H171.212L167.164 7.68L171.74 12H170.028L165.788 7.84V12H164.596ZM172.382 13.672L172.454 13.088C172.667 13.104 172.822 13.0613 172.918 12.96C173.014 12.8587 173.073 12.7227 173.094 12.552C173.115 12.3813 173.121 12.1973 173.11 12H172.382V10.312H173.75V12.32C173.75 12.8107 173.625 13.1787 173.374 13.424C173.129 13.6693 172.798 13.752 172.382 13.672ZM4.728 36.24C3.86933 36.24 3.136 36.0453 2.528 35.656C1.92 35.2667 1.45333 34.728 1.128 34.04C0.802667 33.352 0.64 32.5627 0.64 31.672C0.64 30.7653 0.805333 29.9707 1.136 29.288C1.46667 28.6053 1.936 28.0747 2.544 27.696C3.15733 27.312 3.88533 27.12 4.728 27.12C5.592 27.12 6.328 27.3147 6.936 27.704C7.54933 28.088 8.016 28.624 8.336 29.312C8.66133 29.9947 8.824 30.7813 8.824 31.672C8.824 32.5787 8.66133 33.376 8.336 34.064C8.01067 34.7467 7.54133 35.28 6.928 35.664C6.31467 36.048 5.58133 36.24 4.728 36.24ZM4.728 35.112C5.688 35.112 6.40267 34.7947 6.872 34.16C7.34133 33.52 7.576 32.6907 7.576 31.672C7.576 30.6267 7.33867 29.7947 6.864 29.176C6.39467 28.5573 5.68267 28.248 4.728 28.248C4.08267 28.248 3.54933 28.3947 3.128 28.688C2.712 28.976 2.4 29.3787 2.192 29.896C1.98933 30.408 1.888 31 1.888 31.672C1.888 32.712 2.128 33.5467 2.608 34.176C3.088 34.8 3.79467 35.112 4.728 35.112ZM10.5888 36V27.36H11.6448V29.44L11.4368 29.168C11.5328 28.912 11.6581 28.6773 11.8128 28.464C11.9674 28.2453 12.1354 28.0667 12.3168 27.928C12.5408 27.7307 12.8021 27.5813 13.1008 27.48C13.3994 27.3733 13.7008 27.312 14.0048 27.296C14.3088 27.2747 14.5861 27.296 14.8368 27.36V28.464C14.5221 28.384 14.1781 28.3653 13.8048 28.408C13.4314 28.4507 13.0874 28.6 12.7728 28.856C12.4848 29.08 12.2688 29.3493 12.1248 29.664C11.9808 29.9733 11.8848 30.304 11.8368 30.656C11.7888 31.0027 11.7648 31.3467 11.7648 31.688V36H10.5888ZM16.5144 25.72V24.4H17.6904V25.72H16.5144ZM16.5144 36V27.36H17.6904V36H16.5144ZM23.5208 40.08C23.0781 40.08 22.6408 40.0133 22.2088 39.88C21.7821 39.752 21.3874 39.5467 21.0247 39.264C20.6621 38.9867 20.3581 38.624 20.1128 38.176L21.1768 37.584C21.4168 38.064 21.7528 38.408 22.1848 38.616C22.6221 38.8293 23.0674 38.936 23.5208 38.936C24.1448 38.936 24.6488 38.8187 25.0328 38.584C25.4221 38.3547 25.7048 38.0133 25.8808 37.56C26.0568 37.1067 26.1421 36.5413 26.1368 35.864V33.56H26.2728V27.36H27.3208V35.88C27.3208 36.1253 27.3128 36.36 27.2968 36.584C27.2861 36.8133 27.2621 37.0373 27.2248 37.256C27.1234 37.9013 26.9128 38.432 26.5928 38.848C26.2781 39.264 25.8621 39.5733 25.3448 39.776C24.8328 39.9787 24.2248 40.08 23.5208 40.08ZM23.4408 36.24C22.6354 36.24 21.9474 36.04 21.3768 35.64C20.8061 35.2347 20.3688 34.688 20.0648 34C19.7608 33.312 19.6088 32.536 19.6088 31.672C19.6088 30.8133 19.7581 30.04 20.0568 29.352C20.3608 28.664 20.7954 28.12 21.3608 27.72C21.9261 27.32 22.6034 27.12 23.3928 27.12C24.2034 27.12 24.8861 27.3173 25.4408 27.712C25.9954 28.1067 26.4141 28.648 26.6968 29.336C26.9848 30.0187 27.1288 30.7973 27.1288 31.672C27.1288 32.5307 26.9874 33.3067 26.7048 34C26.4221 34.688 26.0061 35.2347 25.4568 35.64C24.9074 36.04 24.2354 36.24 23.4408 36.24ZM23.5608 35.144C24.1741 35.144 24.6808 34.9947 25.0808 34.696C25.4808 34.3973 25.7794 33.9867 25.9768 33.464C26.1741 32.936 26.2728 32.3387 26.2728 31.672C26.2728 30.9947 26.1741 30.3973 25.9768 29.88C25.7794 29.3573 25.4808 28.9493 25.0808 28.656C24.6861 28.3627 24.1874 28.216 23.5848 28.216C22.9661 28.216 22.4541 28.368 22.0488 28.672C21.6434 28.976 21.3421 29.3893 21.1448 29.912C20.9528 30.4347 20.8568 31.0213 20.8568 31.672C20.8568 32.328 20.9554 32.92 21.1528 33.448C21.3554 33.9707 21.6568 34.384 22.0568 34.688C22.4568 34.992 22.9581 35.144 23.5608 35.144ZM32.0295 36.24C31.3788 36.24 30.8322 36.1227 30.3895 35.888C29.9522 35.6533 29.6242 35.3413 29.4055 34.952C29.1868 34.5627 29.0775 34.1387 29.0775 33.68C29.0775 33.2107 29.1708 32.8107 29.3575 32.48C29.5495 32.144 29.8082 31.8693 30.1335 31.656C30.4642 31.4427 30.8455 31.28 31.2775 31.168C31.7148 31.0613 32.1975 30.968 32.7255 30.888C33.2588 30.8027 33.7788 30.7307 34.2855 30.672C34.7975 30.608 35.2455 30.5467 35.6295 30.488L35.2135 30.744C35.2295 29.8907 35.0642 29.2587 34.7175 28.848C34.3708 28.4373 33.7682 28.232 32.9095 28.232C32.3175 28.232 31.8162 28.3653 31.4055 28.632C31.0002 28.8987 30.7148 29.32 30.5495 29.896L29.4055 29.56C29.6028 28.7867 30.0002 28.1867 30.5975 27.76C31.1948 27.3333 31.9708 27.12 32.9255 27.12C33.7148 27.12 34.3842 27.2693 34.9335 27.568C35.4882 27.8613 35.8802 28.288 36.1095 28.848C36.2162 29.0987 36.2855 29.3787 36.3175 29.688C36.3495 29.9973 36.3655 30.312 36.3655 30.632V36H35.3175V33.832L35.6215 33.96C35.3282 34.7013 34.8722 35.2667 34.2535 35.656C33.6348 36.0453 32.8935 36.24 32.0295 36.24ZM32.1655 35.224C32.7148 35.224 33.1948 35.1253 33.6055 34.928C34.0162 34.7307 34.3468 34.4613 34.5975 34.12C34.8482 33.7733 35.0108 33.384 35.0855 32.952C35.1495 32.6747 35.1842 32.3707 35.1895 32.04C35.1948 31.704 35.1975 31.4533 35.1975 31.288L35.6455 31.52C35.2455 31.5733 34.8108 31.6267 34.3415 31.68C33.8775 31.7333 33.4188 31.7947 32.9655 31.864C32.5175 31.9333 32.1122 32.016 31.7495 32.112C31.5042 32.1813 31.2668 32.28 31.0375 32.408C30.8082 32.5307 30.6188 32.696 30.4695 32.904C30.3255 33.112 30.2535 33.3707 30.2535 33.68C30.2535 33.9307 30.3148 34.1733 30.4375 34.408C30.5655 34.6427 30.7682 34.8373 31.0455 34.992C31.3282 35.1467 31.7015 35.224 32.1655 35.224ZM48.7521 36L48.7601 30.328C48.7601 29.6613 48.5735 29.1387 48.2001 28.76C47.8321 28.376 47.3628 28.184 46.7921 28.184C46.4668 28.184 46.1495 28.2587 45.8401 28.408C45.5308 28.5573 45.2748 28.7973 45.0721 29.128C44.8748 29.4587 44.7761 29.8907 44.7761 30.424L44.0801 30.224C44.0641 29.6053 44.1841 29.064 44.4401 28.6C44.7015 28.136 45.0588 27.776 45.5121 27.52C45.9708 27.2587 46.4881 27.128 47.0641 27.128C47.9335 27.128 48.6295 27.3973 49.1521 27.936C49.6748 28.4693 49.9361 29.192 49.9361 30.104L49.9281 36H48.7521ZM38.4401 36V27.36H39.4961V29.488H39.6241V36H38.4401ZM43.6081 36L43.6161 30.408C43.6161 29.72 43.4321 29.1787 43.0641 28.784C42.7015 28.384 42.2215 28.184 41.6241 28.184C41.0268 28.184 40.5441 28.3893 40.1761 28.8C39.8081 29.2053 39.6241 29.7467 39.6241 30.424L38.9201 30.04C38.9201 29.4853 39.0508 28.9893 39.3121 28.552C39.5735 28.1093 39.9308 27.7627 40.3841 27.512C40.8375 27.256 41.3521 27.128 41.9281 27.128C42.4775 27.128 42.9655 27.2453 43.3921 27.48C43.8241 27.7147 44.1628 28.056 44.4081 28.504C44.6535 28.952 44.7761 29.496 44.7761 30.136L44.7681 36H43.6081ZM52.1706 25.72V24.4H53.3466V25.72H52.1706ZM52.1706 36V27.36H53.3466V36H52.1706ZM62.8281 36.24C62.0335 36.24 61.3615 36.04 60.8121 35.64C60.2628 35.2347 59.8468 34.688 59.5641 34C59.2815 33.3067 59.1401 32.5307 59.1401 31.672C59.1401 30.7973 59.2815 30.0187 59.5641 29.336C59.8521 28.648 60.2735 28.1067 60.8281 27.712C61.3828 27.3173 62.0655 27.12 62.8761 27.12C63.6655 27.12 64.3428 27.32 64.9081 27.72C65.4735 28.12 65.9055 28.664 66.2041 29.352C66.5081 30.04 66.6601 30.8133 66.6601 31.672C66.6601 32.536 66.5081 33.312 66.2041 34C65.9001 34.688 65.4628 35.2347 64.8921 35.64C64.3215 36.04 63.6335 36.24 62.8281 36.24ZM58.9401 39.84V27.36H59.9961V33.864H60.1241V39.84H58.9401ZM62.7081 35.144C63.3108 35.144 63.8121 34.992 64.2121 34.688C64.6121 34.384 64.9108 33.9707 65.1081 33.448C65.3108 32.92 65.4121 32.328 65.4121 31.672C65.4121 31.0213 65.3135 30.4347 65.1161 29.912C64.9188 29.3893 64.6175 28.976 64.2121 28.672C63.8121 28.368 63.3028 28.216 62.6841 28.216C62.0815 28.216 61.5801 28.3627 61.1801 28.656C60.7855 28.9493 60.4895 29.3573 60.2921 29.88C60.0948 30.3973 59.9961 30.9947 59.9961 31.672C59.9961 32.3387 60.0948 32.936 60.2921 33.464C60.4895 33.9867 60.7881 34.3973 61.1881 34.696C61.5881 34.9947 62.0948 35.144 62.7081 35.144ZM68.5769 36V24.24H69.7529V36H68.5769ZM74.6233 36.24C73.9726 36.24 73.4259 36.1227 72.9833 35.888C72.5459 35.6533 72.2179 35.3413 71.9993 34.952C71.7806 34.5627 71.6713 34.1387 71.6713 33.68C71.6713 33.2107 71.7646 32.8107 71.9513 32.48C72.1433 32.144 72.4019 31.8693 72.7273 31.656C73.0579 31.4427 73.4393 31.28 73.8713 31.168C74.3086 31.0613 74.7913 30.968 75.3193 30.888C75.8526 30.8027 76.3726 30.7307 76.8793 30.672C77.3913 30.608 77.8393 30.5467 78.2233 30.488L77.8073 30.744C77.8233 29.8907 77.6579 29.2587 77.3113 28.848C76.9646 28.4373 76.3619 28.232 75.5033 28.232C74.9113 28.232 74.4099 28.3653 73.9993 28.632C73.5939 28.8987 73.3086 29.32 73.1432 29.896L71.9993 29.56C72.1966 28.7867 72.5939 28.1867 73.1913 27.76C73.7886 27.3333 74.5646 27.12 75.5193 27.12C76.3086 27.12 76.9779 27.2693 77.5273 27.568C78.0819 27.8613 78.4739 28.288 78.7033 28.848C78.8099 29.0987 78.8793 29.3787 78.9113 29.688C78.9433 29.9973 78.9593 30.312 78.9593 30.632V36H77.9113V33.832L78.2153 33.96C77.9219 34.7013 77.4659 35.2667 76.8473 35.656C76.2286 36.0453 75.4873 36.24 74.6233 36.24ZM74.7593 35.224C75.3086 35.224 75.7886 35.1253 76.1993 34.928C76.6099 34.7307 76.9406 34.4613 77.1913 34.12C77.4419 33.7733 77.6046 33.384 77.6793 32.952C77.7433 32.6747 77.7779 32.3707 77.7833 32.04C77.7886 31.704 77.7913 31.4533 77.7913 31.288L78.2393 31.52C77.8393 31.5733 77.4046 31.6267 76.9353 31.68C76.4713 31.7333 76.0126 31.7947 75.5593 31.864C75.1113 31.9333 74.7059 32.016 74.3433 32.112C74.0979 32.1813 73.8606 32.28 73.6313 32.408C73.4019 32.5307 73.2126 32.696 73.0633 32.904C72.9193 33.112 72.8473 33.3707 72.8473 33.68C72.8473 33.9307 72.9086 34.1733 73.0312 34.408C73.1593 34.6427 73.3619 34.8373 73.6393 34.992C73.9219 35.1467 74.2953 35.224 74.7593 35.224ZM87.2819 36V31.592C87.2819 31.112 87.2365 30.672 87.1459 30.272C87.0552 29.8667 86.9085 29.5147 86.7059 29.216C86.5085 28.912 86.2499 28.6773 85.9299 28.512C85.6152 28.3467 85.2312 28.264 84.7779 28.264C84.3619 28.264 83.9939 28.336 83.6739 28.48C83.3592 28.624 83.0925 28.832 82.8739 29.104C82.6605 29.3707 82.4979 29.696 82.3859 30.08C82.2739 30.464 82.2179 30.9013 82.2179 31.392L81.3859 31.208C81.3859 30.3227 81.5405 29.5787 81.8499 28.976C82.1592 28.3733 82.5859 27.9173 83.1299 27.608C83.6739 27.2987 84.2979 27.144 85.0019 27.144C85.5192 27.144 85.9699 27.224 86.3539 27.384C86.7432 27.544 87.0712 27.76 87.3379 28.032C87.6099 28.304 87.8285 28.616 87.9939 28.968C88.1592 29.3147 88.2792 29.6853 88.3539 30.08C88.4285 30.4693 88.4659 30.8587 88.4659 31.248V36H87.2819ZM81.0339 36V27.36H82.0979V29.488H82.2179V36H81.0339ZM95.2459 36C94.7605 36.1013 94.2805 36.1413 93.8059 36.12C93.3365 36.0987 92.9152 35.9973 92.5419 35.816C92.1739 35.6347 91.8939 35.352 91.7019 34.968C91.5472 34.648 91.4619 34.3253 91.4459 34C91.4352 33.6693 91.4299 33.2933 91.4299 32.872V24.96H92.5979V32.824C92.5979 33.1867 92.6005 33.4907 92.6059 33.736C92.6165 33.976 92.6725 34.1893 92.7739 34.376C92.9659 34.7333 93.2699 34.9467 93.6859 35.016C94.1072 35.0853 94.6272 35.0693 95.2459 34.968V36ZM89.5819 28.368V27.36H95.2459V28.368H89.5819ZM100.292 36.24C99.449 36.24 98.7183 36.0533 98.0996 35.68C97.4863 35.3067 97.009 34.7813 96.6676 34.104C96.3263 33.4267 96.1556 32.632 96.1556 31.72C96.1556 30.776 96.3236 29.96 96.6596 29.272C96.9956 28.584 97.4676 28.0533 98.0756 27.68C98.689 27.3067 99.4116 27.12 100.244 27.12C101.097 27.12 101.825 27.3173 102.428 27.712C103.03 28.1013 103.486 28.6613 103.796 29.392C104.105 30.1227 104.246 30.9947 104.22 32.008H103.02V31.592C102.998 30.472 102.756 29.6267 102.292 29.056C101.833 28.4853 101.161 28.2 100.276 28.2C99.3476 28.2 98.6356 28.5013 98.1396 29.104C97.649 29.7067 97.4036 30.5653 97.4036 31.68C97.4036 32.768 97.649 33.6133 98.1396 34.216C98.6356 34.8133 99.337 35.112 100.244 35.112C100.862 35.112 101.401 34.9707 101.86 34.688C102.324 34.4 102.689 33.9867 102.956 33.448L104.052 33.872C103.71 34.624 103.206 35.208 102.54 35.624C101.878 36.0347 101.129 36.24 100.292 36.24ZM96.9876 32.008V31.024H103.588V32.008H96.9876ZM105.995 36V27.36H107.051V29.44L106.843 29.168C106.939 28.912 107.064 28.6773 107.219 28.464C107.374 28.2453 107.542 28.0667 107.723 27.928C107.947 27.7307 108.208 27.5813 108.507 27.48C108.806 27.3733 109.107 27.312 109.411 27.296C109.715 27.2747 109.992 27.296 110.243 27.36V28.464C109.928 28.384 109.584 28.3653 109.211 28.408C108.838 28.4507 108.494 28.6 108.179 28.856C107.891 29.08 107.675 29.3493 107.531 29.664C107.387 29.9733 107.291 30.304 107.243 30.656C107.195 31.0027 107.171 31.3467 107.171 31.688V36H105.995ZM114.672 36.232C113.659 36.232 112.824 36.0133 112.168 35.576C111.517 35.1387 111.117 34.5307 110.968 33.752L112.168 33.552C112.296 34.0427 112.587 34.4347 113.04 34.728C113.499 35.016 114.064 35.16 114.736 35.16C115.392 35.16 115.909 35.024 116.288 34.752C116.667 34.4747 116.856 34.0987 116.856 33.624C116.856 33.3573 116.795 33.1413 116.672 32.976C116.555 32.8053 116.312 32.648 115.944 32.504C115.576 32.36 115.027 32.1893 114.296 31.992C113.512 31.7787 112.899 31.5653 112.456 31.352C112.013 31.1387 111.699 30.8933 111.512 30.616C111.325 30.3333 111.232 29.9893 111.232 29.584C111.232 29.0933 111.371 28.664 111.648 28.296C111.925 27.9227 112.309 27.6347 112.8 27.432C113.291 27.224 113.861 27.12 114.512 27.12C115.163 27.12 115.744 27.2267 116.256 27.44C116.773 27.648 117.189 27.9413 117.504 28.32C117.819 28.6987 118.005 29.1387 118.064 29.64L116.864 29.856C116.784 29.3493 116.531 28.9493 116.104 28.656C115.683 28.3573 115.147 28.2027 114.496 28.192C113.883 28.176 113.384 28.2933 113 28.544C112.616 28.7893 112.424 29.1173 112.424 29.528C112.424 29.7573 112.493 29.9547 112.632 30.12C112.771 30.28 113.021 30.432 113.384 30.576C113.752 30.72 114.275 30.8773 114.952 31.048C115.747 31.2507 116.371 31.464 116.824 31.688C117.277 31.912 117.6 32.176 117.792 32.48C117.984 32.784 118.08 33.16 118.08 33.608C118.08 34.424 117.776 35.0667 117.168 35.536C116.565 36 115.733 36.232 114.672 36.232ZM126.41 36.24C125.604 36.24 124.916 36.04 124.346 35.64C123.775 35.2347 123.338 34.688 123.034 34C122.73 33.312 122.578 32.536 122.578 31.672C122.578 30.8133 122.727 30.04 123.026 29.352C123.33 28.664 123.764 28.12 124.33 27.72C124.895 27.32 125.572 27.12 126.362 27.12C127.172 27.12 127.855 27.3173 128.41 27.712C128.964 28.1067 129.383 28.648 129.666 29.336C129.954 30.0187 130.098 30.7973 130.098 31.672C130.098 32.5307 129.956 33.3067 129.674 34C129.391 34.688 128.975 35.2347 128.426 35.64C127.876 36.04 127.204 36.24 126.41 36.24ZM126.53 35.144C127.143 35.144 127.65 34.9947 128.05 34.696C128.45 34.3973 128.748 33.9867 128.946 33.464C129.143 32.936 129.242 32.3387 129.242 31.672C129.242 30.9947 129.143 30.3973 128.946 29.88C128.748 29.3573 128.45 28.9493 128.05 28.656C127.655 28.3627 127.156 28.216 126.554 28.216C125.935 28.216 125.423 28.368 125.018 28.672C124.612 28.976 124.311 29.3893 124.114 29.912C123.922 30.4347 123.826 31.0213 123.826 31.672C123.826 32.328 123.924 32.92 124.122 33.448C124.324 33.9707 124.626 34.384 125.026 34.688C125.426 34.992 125.927 35.144 126.53 35.144ZM129.242 36V29.496H129.114V24.48H130.298V36H129.242ZM136.198 36.24C135.355 36.24 134.625 36.0533 134.006 35.68C133.393 35.3067 132.915 34.7813 132.574 34.104C132.233 33.4267 132.062 32.632 132.062 31.72C132.062 30.776 132.23 29.96 132.566 29.272C132.902 28.584 133.374 28.0533 133.982 27.68C134.595 27.3067 135.318 27.12 136.15 27.12C137.003 27.12 137.731 27.3173 138.334 27.712C138.937 28.1013 139.393 28.6613 139.702 29.392C140.011 30.1227 140.153 30.9947 140.126 32.008H138.926V31.592C138.905 30.472 138.662 29.6267 138.198 29.056C137.739 28.4853 137.067 28.2 136.182 28.2C135.254 28.2 134.542 28.5013 134.046 29.104C133.555 29.7067 133.31 30.5653 133.31 31.68C133.31 32.768 133.555 33.6133 134.046 34.216C134.542 34.8133 135.243 35.112 136.15 35.112C136.769 35.112 137.307 34.9707 137.766 34.688C138.23 34.4 138.595 33.9867 138.862 33.448L139.958 33.872C139.617 34.624 139.113 35.208 138.446 35.624C137.785 36.0347 137.035 36.24 136.198 36.24ZM132.894 32.008V31.024H139.494V32.008H132.894ZM145.125 36.232C144.112 36.232 143.277 36.0133 142.621 35.576C141.971 35.1387 141.571 34.5307 141.421 33.752L142.621 33.552C142.749 34.0427 143.04 34.4347 143.493 34.728C143.952 35.016 144.517 35.16 145.189 35.16C145.845 35.16 146.363 35.024 146.741 34.752C147.12 34.4747 147.309 34.0987 147.309 33.624C147.309 33.3573 147.248 33.1413 147.125 32.976C147.008 32.8053 146.765 32.648 146.397 32.504C146.029 32.36 145.48 32.1893 144.749 31.992C143.965 31.7787 143.352 31.5653 142.909 31.352C142.467 31.1387 142.152 30.8933 141.965 30.616C141.779 30.3333 141.685 29.9893 141.685 29.584C141.685 29.0933 141.824 28.664 142.101 28.296C142.379 27.9227 142.763 27.6347 143.253 27.432C143.744 27.224 144.315 27.12 144.965 27.12C145.616 27.12 146.197 27.2267 146.709 27.44C147.227 27.648 147.643 27.9413 147.957 28.32C148.272 28.6987 148.459 29.1387 148.517 29.64L147.317 29.856C147.237 29.3493 146.984 28.9493 146.557 28.656C146.136 28.3573 145.6 28.2027 144.949 28.192C144.336 28.176 143.837 28.2933 143.453 28.544C143.069 28.7893 142.877 29.1173 142.877 29.528C142.877 29.7573 142.947 29.9547 143.085 30.12C143.224 30.28 143.475 30.432 143.837 30.576C144.205 30.72 144.728 30.8773 145.405 31.048C146.2 31.2507 146.824 31.464 147.277 31.688C147.731 31.912 148.053 32.176 148.245 32.48C148.437 32.784 148.533 33.16 148.533 33.608C148.533 34.424 148.229 35.0667 147.621 35.536C147.019 36 146.187 36.232 145.125 36.232ZM150.468 25.72V24.4H151.644V25.72H150.468ZM150.468 36V27.36H151.644V36H150.468ZM157.474 40.08C157.031 40.08 156.594 40.0133 156.162 39.88C155.735 39.752 155.341 39.5467 154.978 39.264C154.615 38.9867 154.311 38.624 154.066 38.176L155.13 37.584C155.37 38.064 155.706 38.408 156.138 38.616C156.575 38.8293 157.021 38.936 157.474 38.936C158.098 38.936 158.602 38.8187 158.986 38.584C159.375 38.3547 159.658 38.0133 159.834 37.56C160.01 37.1067 160.095 36.5413 160.09 35.864V33.56H160.226V27.36H161.274V35.88C161.274 36.1253 161.266 36.36 161.25 36.584C161.239 36.8133 161.215 37.0373 161.178 37.256C161.077 37.9013 160.866 38.432 160.546 38.848C160.231 39.264 159.815 39.5733 159.298 39.776C158.786 39.9787 158.178 40.08 157.474 40.08ZM157.394 36.24C156.589 36.24 155.901 36.04 155.33 35.64C154.759 35.2347 154.322 34.688 154.018 34C153.714 33.312 153.562 32.536 153.562 31.672C153.562 30.8133 153.711 30.04 154.01 29.352C154.314 28.664 154.749 28.12 155.314 27.72C155.879 27.32 156.557 27.12 157.346 27.12C158.157 27.12 158.839 27.3173 159.394 27.712C159.949 28.1067 160.367 28.648 160.65 29.336C160.938 30.0187 161.082 30.7973 161.082 31.672C161.082 32.5307 160.941 33.3067 160.658 34C160.375 34.688 159.959 35.2347 159.41 35.64C158.861 36.04 158.189 36.24 157.394 36.24ZM157.514 35.144C158.127 35.144 158.634 34.9947 159.034 34.696C159.434 34.3973 159.733 33.9867 159.93 33.464C160.127 32.936 160.226 32.3387 160.226 31.672C160.226 30.9947 160.127 30.3973 159.93 29.88C159.733 29.3573 159.434 28.9493 159.034 28.656C158.639 28.3627 158.141 28.216 157.538 28.216C156.919 28.216 156.407 28.368 156.002 28.672C155.597 28.976 155.295 29.3893 155.098 29.912C154.906 30.4347 154.81 31.0213 154.81 31.672C154.81 32.328 154.909 32.92 155.106 33.448C155.309 33.9707 155.61 34.384 156.01 34.688C156.41 34.992 156.911 35.144 157.514 35.144ZM169.751 36V31.592C169.751 31.112 169.705 30.672 169.615 30.272C169.524 29.8667 169.377 29.5147 169.175 29.216C168.977 28.912 168.719 28.6773 168.399 28.512C168.084 28.3467 167.7 28.264 167.247 28.264C166.831 28.264 166.463 28.336 166.143 28.48C165.828 28.624 165.561 28.832 165.343 29.104C165.129 29.3707 164.967 29.696 164.855 30.08C164.743 30.464 164.687 30.9013 164.687 31.392L163.855 31.208C163.855 30.3227 164.009 29.5787 164.319 28.976C164.628 28.3733 165.055 27.9173 165.599 27.608C166.143 27.2987 166.767 27.144 167.471 27.144C167.988 27.144 168.439 27.224 168.823 27.384C169.212 27.544 169.54 27.76 169.807 28.032C170.079 28.304 170.297 28.616 170.463 28.968C170.628 29.3147 170.748 29.6853 170.823 30.08C170.897 30.4693 170.935 30.8587 170.935 31.248V36H169.751ZM163.503 36V27.36H164.567V29.488H164.687V36H163.503ZM176.604 36.24C175.761 36.24 175.031 36.0533 174.412 35.68C173.799 35.3067 173.321 34.7813 172.98 34.104C172.639 33.4267 172.468 32.632 172.468 31.72C172.468 30.776 172.636 29.96 172.972 29.272C173.308 28.584 173.78 28.0533 174.388 27.68C175.001 27.3067 175.724 27.12 176.556 27.12C177.409 27.12 178.137 27.3173 178.74 27.712C179.343 28.1013 179.799 28.6613 180.108 29.392C180.417 30.1227 180.559 30.9947 180.532 32.008H179.332V31.592C179.311 30.472 179.068 29.6267 178.604 29.056C178.145 28.4853 177.473 28.2 176.588 28.2C175.66 28.2 174.948 28.5013 174.452 29.104C173.961 29.7067 173.716 30.5653 173.716 31.68C173.716 32.768 173.961 33.6133 174.452 34.216C174.948 34.8133 175.649 35.112 176.556 35.112C177.175 35.112 177.713 34.9707 178.172 34.688C178.636 34.4 179.001 33.9867 179.268 33.448L180.364 33.872C180.023 34.624 179.519 35.208 178.852 35.624C178.191 36.0347 177.441 36.24 176.604 36.24ZM173.3 32.008V31.024H179.9V32.008H173.3ZM185.66 36.24C184.854 36.24 184.166 36.04 183.596 35.64C183.025 35.2347 182.588 34.688 182.284 34C181.98 33.312 181.828 32.536 181.828 31.672C181.828 30.8133 181.977 30.04 182.276 29.352C182.58 28.664 183.014 28.12 183.58 27.72C184.145 27.32 184.822 27.12 185.612 27.12C186.422 27.12 187.105 27.3173 187.66 27.712C188.214 28.1067 188.633 28.648 188.916 29.336C189.204 30.0187 189.348 30.7973 189.348 31.672C189.348 32.5307 189.206 33.3067 188.924 34C188.641 34.688 188.225 35.2347 187.676 35.64C187.126 36.04 186.454 36.24 185.66 36.24ZM185.78 35.144C186.393 35.144 186.9 34.9947 187.3 34.696C187.7 34.3973 187.998 33.9867 188.196 33.464C188.393 32.936 188.492 32.3387 188.492 31.672C188.492 30.9947 188.393 30.3973 188.196 29.88C187.998 29.3573 187.7 28.9493 187.3 28.656C186.905 28.3627 186.406 28.216 185.804 28.216C185.185 28.216 184.673 28.368 184.268 28.672C183.862 28.976 183.561 29.3893 183.364 29.912C183.172 30.4347 183.076 31.0213 183.076 31.672C183.076 32.328 183.174 32.92 183.372 33.448C183.574 33.9707 183.876 34.384 184.276 34.688C184.676 34.992 185.177 35.144 185.78 35.144ZM188.492 36V29.496H188.364V24.48H189.548V36H188.492ZM199.699 36C199.214 36.1013 198.734 36.1413 198.259 36.12C197.79 36.0987 197.368 35.9973 196.995 35.816C196.627 35.6347 196.347 35.352 196.155 34.968C196 34.648 195.915 34.3253 195.899 34C195.888 33.6693 195.883 33.2933 195.883 32.872V24.96H197.051V32.824C197.051 33.1867 197.054 33.4907 197.059 33.736C197.07 33.976 197.126 34.1893 197.227 34.376C197.419 34.7333 197.723 34.9467 198.139 35.016C198.56 35.0853 199.08 35.0693 199.699 34.968V36ZM194.035 28.368V27.36H199.699V28.368H194.035ZM204.697 36.24C203.838 36.24 203.105 36.0453 202.497 35.656C201.889 35.2667 201.422 34.728 201.097 34.04C200.771 33.352 200.609 32.5627 200.609 31.672C200.609 30.7653 200.774 29.9707 201.105 29.288C201.435 28.6053 201.905 28.0747 202.513 27.696C203.126 27.312 203.854 27.12 204.697 27.12C205.561 27.12 206.297 27.3147 206.905 27.704C207.518 28.088 207.985 28.624 208.305 29.312C208.63 29.9947 208.793 30.7813 208.793 31.672C208.793 32.5787 208.63 33.376 208.305 34.064C207.979 34.7467 207.51 35.28 206.897 35.664C206.283 36.048 205.55 36.24 204.697 36.24ZM204.697 35.112C205.657 35.112 206.371 34.7947 206.841 34.16C207.31 33.52 207.545 32.6907 207.545 31.672C207.545 30.6267 207.307 29.7947 206.833 29.176C206.363 28.5573 205.651 28.248 204.697 28.248C204.051 28.248 203.518 28.3947 203.097 28.688C202.681 28.976 202.369 29.3787 202.161 29.896C201.958 30.408 201.857 31 201.857 31.672C201.857 32.712 202.097 33.5467 202.577 34.176C203.057 34.8 203.763 35.112 204.697 35.112ZM4.344 60.232C3.33067 60.232 2.496 60.0133 1.84 59.576C1.18933 59.1387 0.789333 58.5307 0.64 57.752L1.84 57.552C1.968 58.0427 2.25867 58.4347 2.712 58.728C3.17067 59.016 3.736 59.16 4.408 59.16C5.064 59.16 5.58133 59.024 5.96 58.752C6.33867 58.4747 6.528 58.0987 6.528 57.624C6.528 57.3573 6.46667 57.1413 6.344 56.976C6.22667 56.8053 5.984 56.648 5.616 56.504C5.248 56.36 4.69867 56.1893 3.968 55.992C3.184 55.7787 2.57067 55.5653 2.128 55.352C1.68533 55.1387 1.37067 54.8933 1.184 54.616C0.997333 54.3333 0.904 53.9893 0.904 53.584C0.904 53.0933 1.04267 52.664 1.32 52.296C1.59733 51.9227 1.98133 51.6347 2.472 51.432C2.96267 51.224 3.53333 51.12 4.184 51.12C4.83467 51.12 5.416 51.2267 5.928 51.44C6.44533 51.648 6.86133 51.9413 7.176 52.32C7.49067 52.6987 7.67733 53.1387 7.736 53.64L6.536 53.856C6.456 53.3493 6.20267 52.9493 5.776 52.656C5.35467 52.3573 4.81867 52.2027 4.168 52.192C3.55467 52.176 3.056 52.2933 2.672 52.544C2.288 52.7893 2.096 53.1173 2.096 53.528C2.096 53.7573 2.16533 53.9547 2.304 54.12C2.44267 54.28 2.69333 54.432 3.056 54.576C3.424 54.72 3.94667 54.8773 4.624 55.048C5.41867 55.2507 6.04267 55.464 6.496 55.688C6.94933 55.912 7.272 56.176 7.464 56.48C7.656 56.784 7.752 57.16 7.752 57.608C7.752 58.424 7.448 59.0667 6.84 59.536C6.23733 60 5.40533 60.232 4.344 60.232ZM13.1823 60.24C12.3396 60.24 11.6089 60.0533 10.9903 59.68C10.3769 59.3067 9.89958 58.7813 9.55825 58.104C9.21692 57.4267 9.04625 56.632 9.04625 55.72C9.04625 54.776 9.21425 53.96 9.55025 53.272C9.88625 52.584 10.3583 52.0533 10.9663 51.68C11.5796 51.3067 12.3023 51.12 13.1343 51.12C13.9876 51.12 14.7156 51.3173 15.3183 51.712C15.9209 52.1013 16.3769 52.6613 16.6863 53.392C16.9956 54.1227 17.1369 54.9947 17.1103 56.008H15.9103V55.592C15.8889 54.472 15.6463 53.6267 15.1823 53.056C14.7236 52.4853 14.0516 52.2 13.1663 52.2C12.2383 52.2 11.5263 52.5013 11.0303 53.104C10.5396 53.7067 10.2943 54.5653 10.2943 55.68C10.2943 56.768 10.5396 57.6133 11.0303 58.216C11.5263 58.8133 12.2276 59.112 13.1343 59.112C13.7529 59.112 14.2916 58.9707 14.7503 58.688C15.2143 58.4 15.5796 57.9867 15.8463 57.448L16.9423 57.872C16.6009 58.624 16.0969 59.208 15.4303 59.624C14.7689 60.0347 14.0196 60.24 13.1823 60.24ZM9.87825 56.008V55.024H16.4783V56.008H9.87825ZM19.0456 60V48.24H20.2216V60H19.0456ZM23.476 60V50.72C23.476 50.496 23.4867 50.2747 23.508 50.056C23.5347 49.8373 23.5853 49.6293 23.66 49.432C23.7347 49.2293 23.852 49.0427 24.012 48.872C24.188 48.68 24.38 48.5413 24.588 48.456C24.796 48.3653 25.012 48.3067 25.236 48.28C25.4653 48.2533 25.6893 48.24 25.908 48.24H27.012V49.232H25.988C25.54 49.232 25.204 49.3413 24.98 49.56C24.7613 49.7787 24.652 50.1227 24.652 50.592V60H23.476ZM21.98 52.368V51.36H27.012V52.368H21.98ZM28.1319 55.464V54.456H32.9319V55.464H28.1319ZM36.8506 60L34.2106 51.352L35.3866 51.36L37.4346 58.072L39.4906 51.36H40.5626L42.6186 58.072L44.6826 51.36H45.8506L43.2106 60H42.1866L40.0266 53.12L37.8746 60H36.8506ZM49.2795 60.24C48.6288 60.24 48.0822 60.1227 47.6395 59.888C47.2022 59.6533 46.8742 59.3413 46.6555 58.952C46.4368 58.5627 46.3275 58.1387 46.3275 57.68C46.3275 57.2107 46.4208 56.8107 46.6075 56.48C46.7995 56.144 47.0582 55.8693 47.3835 55.656C47.7142 55.4427 48.0955 55.28 48.5275 55.168C48.9648 55.0613 49.4475 54.968 49.9755 54.888C50.5088 54.8027 51.0288 54.7307 51.5355 54.672C52.0475 54.608 52.4955 54.5467 52.8795 54.488L52.4635 54.744C52.4795 53.8907 52.3142 53.2587 51.9675 52.848C51.6208 52.4373 51.0182 52.232 50.1595 52.232C49.5675 52.232 49.0662 52.3653 48.6555 52.632C48.2502 52.8987 47.9648 53.32 47.7995 53.896L46.6555 53.56C46.8528 52.7867 47.2502 52.1867 47.8475 51.76C48.4448 51.3333 49.2208 51.12 50.1755 51.12C50.9648 51.12 51.6342 51.2693 52.1835 51.568C52.7382 51.8613 53.1302 52.288 53.3595 52.848C53.4662 53.0987 53.5355 53.3787 53.5675 53.688C53.5995 53.9973 53.6155 54.312 53.6155 54.632V60H52.5675V57.832L52.8715 57.96C52.5782 58.7013 52.1222 59.2667 51.5035 59.656C50.8848 60.0453 50.1435 60.24 49.2795 60.24ZM49.4155 59.224C49.9648 59.224 50.4448 59.1253 50.8555 58.928C51.2662 58.7307 51.5968 58.4613 51.8475 58.12C52.0982 57.7733 52.2608 57.384 52.3355 56.952C52.3995 56.6747 52.4342 56.3707 52.4395 56.04C52.4448 55.704 52.4475 55.4533 52.4475 55.288L52.8955 55.52C52.4955 55.5733 52.0608 55.6267 51.5915 55.68C51.1275 55.7333 50.6688 55.7947 50.2155 55.864C49.7675 55.9333 49.3622 56.016 48.9995 56.112C48.7542 56.1813 48.5168 56.28 48.2875 56.408C48.0582 56.5307 47.8688 56.696 47.7195 56.904C47.5755 57.112 47.5035 57.3707 47.5035 57.68C47.5035 57.9307 47.5648 58.1733 47.6875 58.408C47.8155 58.6427 48.0182 58.8373 48.2955 58.992C48.5782 59.1467 48.9515 59.224 49.4155 59.224ZM60.4021 60C59.9168 60.1013 59.4368 60.1413 58.9621 60.12C58.4928 60.0987 58.0715 59.9973 57.6981 59.816C57.3301 59.6347 57.0501 59.352 56.8581 58.968C56.7035 58.648 56.6181 58.3253 56.6021 58C56.5915 57.6693 56.5861 57.2933 56.5861 56.872V48.96H57.7541V56.824C57.7541 57.1867 57.7568 57.4907 57.7621 57.736C57.7728 57.976 57.8288 58.1893 57.9301 58.376C58.1221 58.7333 58.4261 58.9467 58.8421 59.016C59.2635 59.0853 59.7835 59.0693 60.4021 58.968V60ZM54.7381 52.368V51.36H60.4021V52.368H54.7381ZM65.4479 60.24C64.6052 60.24 63.8745 60.0533 63.2559 59.68C62.6425 59.3067 62.1652 58.7813 61.8239 58.104C61.4825 57.4267 61.3119 56.632 61.3119 55.72C61.3119 54.776 61.4799 53.96 61.8159 53.272C62.1519 52.584 62.6239 52.0533 63.2319 51.68C63.8452 51.3067 64.5679 51.12 65.3999 51.12C66.2532 51.12 66.9812 51.3173 67.5839 51.712C68.1865 52.1013 68.6425 52.6613 68.9519 53.392C69.2612 54.1227 69.4025 54.9947 69.3759 56.008H68.1759V55.592C68.1545 54.472 67.9119 53.6267 67.4479 53.056C66.9892 52.4853 66.3172 52.2 65.4319 52.2C64.5039 52.2 63.7919 52.5013 63.2959 53.104C62.8052 53.7067 62.5599 54.5653 62.5599 55.68C62.5599 56.768 62.8052 57.6133 63.2959 58.216C63.7919 58.8133 64.4932 59.112 65.3999 59.112C66.0185 59.112 66.5572 58.9707 67.0159 58.688C67.4799 58.4 67.8452 57.9867 68.1119 57.448L69.2079 57.872C68.8665 58.624 68.3625 59.208 67.6959 59.624C67.0345 60.0347 66.2852 60.24 65.4479 60.24ZM62.1439 56.008V55.024H68.7439V56.008H62.1439ZM71.1513 60V51.36H72.2073V53.44L71.9993 53.168C72.0953 52.912 72.2206 52.6773 72.3753 52.464C72.5299 52.2453 72.6979 52.0667 72.8793 51.928C73.1033 51.7307 73.3646 51.5813 73.6633 51.48C73.9619 51.3733 74.2633 51.312 74.5673 51.296C74.8713 51.2747 75.1486 51.296 75.3993 51.36V52.464C75.0846 52.384 74.7406 52.3653 74.3673 52.408C73.9939 52.4507 73.6499 52.6 73.3353 52.856C73.0473 53.08 72.8313 53.3493 72.6873 53.664C72.5433 53.9733 72.4473 54.304 72.3993 54.656C72.3513 55.0027 72.3273 55.3467 72.3273 55.688V60H71.1513ZM81.352 63.84L83.024 59.304L83.048 60.648L79.264 51.36H80.512L83.616 59.128H83.104L85.968 51.36H87.168L82.528 63.84H81.352ZM91.853 60.24C90.9943 60.24 90.261 60.0453 89.653 59.656C89.045 59.2667 88.5783 58.728 88.253 58.04C87.9277 57.352 87.765 56.5627 87.765 55.672C87.765 54.7653 87.9303 53.9707 88.261 53.288C88.5917 52.6053 89.061 52.0747 89.669 51.696C90.2823 51.312 91.0103 51.12 91.853 51.12C92.717 51.12 93.453 51.3147 94.061 51.704C94.6743 52.088 95.141 52.624 95.461 53.312C95.7863 53.9947 95.949 54.7813 95.949 55.672C95.949 56.5787 95.7863 57.376 95.461 58.064C95.1357 58.7467 94.6663 59.28 94.053 59.664C93.4397 60.048 92.7063 60.24 91.853 60.24ZM91.853 59.112C92.813 59.112 93.5277 58.7947 93.997 58.16C94.4663 57.52 94.701 56.6907 94.701 55.672C94.701 54.6267 94.4637 53.7947 93.989 53.176C93.5197 52.5573 92.8077 52.248 91.853 52.248C91.2077 52.248 90.6743 52.3947 90.253 52.688C89.837 52.976 89.525 53.3787 89.317 53.896C89.1143 54.408 89.013 55 89.013 55.672C89.013 56.712 89.253 57.5467 89.733 58.176C90.213 58.8 90.9197 59.112 91.853 59.112ZM101.018 60.216C100.5 60.216 100.047 60.136 99.6578 59.976C99.2738 59.816 98.9458 59.6 98.6738 59.328C98.4071 59.056 98.1911 58.7467 98.0258 58.4C97.8604 58.048 97.7404 57.6773 97.6658 57.288C97.5911 56.8933 97.5538 56.5013 97.5538 56.112V51.36H98.7378V55.768C98.7378 56.2427 98.7831 56.6827 98.8738 57.088C98.9644 57.4933 99.1084 57.848 99.3058 58.152C99.5084 58.4507 99.7671 58.6827 100.082 58.848C100.402 59.0133 100.788 59.096 101.242 59.096C101.658 59.096 102.023 59.024 102.338 58.88C102.658 58.736 102.924 58.5307 103.138 58.264C103.356 57.992 103.522 57.664 103.634 57.28C103.746 56.8907 103.802 56.4533 103.802 55.968L104.634 56.152C104.634 57.0373 104.479 57.7813 104.17 58.384C103.86 58.9867 103.434 59.4427 102.89 59.752C102.346 60.0613 101.722 60.216 101.018 60.216ZM103.922 60V57.872H103.802V51.36H104.978V60H103.922ZM107.214 60V51.36H108.27V53.44L108.062 53.168C108.158 52.912 108.283 52.6773 108.438 52.464C108.592 52.2453 108.76 52.0667 108.942 51.928C109.166 51.7307 109.427 51.5813 109.726 51.48C110.024 51.3733 110.326 51.312 110.63 51.296C110.934 51.2747 111.211 51.296 111.462 51.36V52.464C111.147 52.384 110.803 52.3653 110.43 52.408C110.056 52.4507 109.712 52.6 109.398 52.856C109.11 53.08 108.894 53.3493 108.75 53.664C108.606 53.9733 108.51 54.304 108.462 54.656C108.414 55.0027 108.39 55.3467 108.39 55.688V60H107.214ZM120.062 60.24C119.268 60.24 118.596 60.04 118.047 59.64C117.497 59.2347 117.081 58.688 116.799 58C116.516 57.3067 116.375 56.5307 116.375 55.672C116.375 54.7973 116.516 54.0187 116.799 53.336C117.087 52.648 117.508 52.1067 118.063 51.712C118.617 51.3173 119.3 51.12 120.111 51.12C120.9 51.12 121.577 51.32 122.143 51.72C122.708 52.12 123.14 52.664 123.439 53.352C123.743 54.04 123.895 54.8133 123.895 55.672C123.895 56.536 123.743 57.312 123.439 58C123.135 58.688 122.697 59.2347 122.127 59.64C121.556 60.04 120.868 60.24 120.062 60.24ZM116.175 63.84V51.36H117.231V57.864H117.359V63.84H116.175ZM119.943 59.144C120.545 59.144 121.047 58.992 121.447 58.688C121.847 58.384 122.145 57.9707 122.343 57.448C122.545 56.92 122.647 56.328 122.647 55.672C122.647 55.0213 122.548 54.4347 122.351 53.912C122.153 53.3893 121.852 52.976 121.447 52.672C121.047 52.368 120.537 52.216 119.919 52.216C119.316 52.216 118.815 52.3627 118.415 52.656C118.02 52.9493 117.724 53.3573 117.527 53.88C117.329 54.3973 117.231 54.9947 117.231 55.672C117.231 56.3387 117.329 56.936 117.527 57.464C117.724 57.9867 118.023 58.3973 118.423 58.696C118.823 58.9947 119.329 59.144 119.943 59.144ZM125.811 60V48.24H126.987V60H125.811ZM131.858 60.24C131.207 60.24 130.66 60.1227 130.218 59.888C129.78 59.6533 129.452 59.3413 129.234 58.952C129.015 58.5627 128.906 58.1387 128.906 57.68C128.906 57.2107 128.999 56.8107 129.186 56.48C129.378 56.144 129.636 55.8693 129.962 55.656C130.292 55.4427 130.674 55.28 131.106 55.168C131.543 55.0613 132.026 54.968 132.554 54.888C133.087 54.8027 133.607 54.7307 134.114 54.672C134.626 54.608 135.074 54.5467 135.458 54.488L135.042 54.744C135.058 53.8907 134.892 53.2587 134.546 52.848C134.199 52.4373 133.596 52.232 132.738 52.232C132.146 52.232 131.644 52.3653 131.234 52.632C130.828 52.8987 130.543 53.32 130.378 53.896L129.234 53.56C129.431 52.7867 129.828 52.1867 130.426 51.76C131.023 51.3333 131.799 51.12 132.754 51.12C133.543 51.12 134.212 51.2693 134.762 51.568C135.316 51.8613 135.708 52.288 135.938 52.848C136.044 53.0987 136.114 53.3787 136.146 53.688C136.178 53.9973 136.194 54.312 136.194 54.632V60H135.146V57.832L135.45 57.96C135.156 58.7013 134.7 59.2667 134.082 59.656C133.463 60.0453 132.722 60.24 131.858 60.24ZM131.994 59.224C132.543 59.224 133.023 59.1253 133.434 58.928C133.844 58.7307 134.175 58.4613 134.426 58.12C134.676 57.7733 134.839 57.384 134.914 56.952C134.978 56.6747 135.012 56.3707 135.018 56.04C135.023 55.704 135.026 55.4533 135.026 55.288L135.474 55.52C135.074 55.5733 134.639 55.6267 134.17 55.68C133.706 55.7333 133.247 55.7947 132.794 55.864C132.346 55.9333 131.94 56.016 131.578 56.112C131.332 56.1813 131.095 56.28 130.866 56.408C130.636 56.5307 130.447 56.696 130.298 56.904C130.154 57.112 130.082 57.3707 130.082 57.68C130.082 57.9307 130.143 58.1733 130.266 58.408C130.394 58.6427 130.596 58.8373 130.874 58.992C131.156 59.1467 131.53 59.224 131.994 59.224ZM144.516 60V55.592C144.516 55.112 144.471 54.672 144.38 54.272C144.29 53.8667 144.143 53.5147 143.94 53.216C143.743 52.912 143.484 52.6773 143.164 52.512C142.85 52.3467 142.466 52.264 142.012 52.264C141.596 52.264 141.228 52.336 140.908 52.48C140.594 52.624 140.327 52.832 140.108 53.104C139.895 53.3707 139.732 53.696 139.62 54.08C139.508 54.464 139.452 54.9013 139.452 55.392L138.62 55.208C138.62 54.3227 138.775 53.5787 139.084 52.976C139.394 52.3733 139.82 51.9173 140.364 51.608C140.908 51.2987 141.532 51.144 142.236 51.144C142.754 51.144 143.204 51.224 143.588 51.384C143.978 51.544 144.306 51.76 144.572 52.032C144.844 52.304 145.063 52.616 145.228 52.968C145.394 53.3147 145.514 53.6853 145.588 54.08C145.663 54.4693 145.7 54.8587 145.7 55.248V60H144.516ZM138.268 60V51.36H139.332V53.488H139.452V60H138.268ZM152.48 60C151.995 60.1013 151.515 60.1413 151.04 60.12C150.571 60.0987 150.15 59.9973 149.776 59.816C149.408 59.6347 149.128 59.352 148.936 58.968C148.782 58.648 148.696 58.3253 148.68 58C148.67 57.6693 148.664 57.2933 148.664 56.872V48.96H149.832V56.824C149.832 57.1867 149.835 57.4907 149.84 57.736C149.851 57.976 149.907 58.1893 150.008 58.376C150.2 58.7333 150.504 58.9467 150.92 59.016C151.342 59.0853 151.862 59.0693 152.48 58.968V60ZM146.816 52.368V51.36H152.48V52.368H146.816ZM157.407 60.232C156.393 60.232 155.559 60.0133 154.903 59.576C154.252 59.1387 153.852 58.5307 153.703 57.752L154.903 57.552C155.031 58.0427 155.321 58.4347 155.775 58.728C156.233 59.016 156.799 59.16 157.47 59.16C158.127 59.16 158.644 59.024 159.023 58.752C159.401 58.4747 159.591 58.0987 159.591 57.624C159.591 57.3573 159.529 57.1413 159.407 56.976C159.289 56.8053 159.047 56.648 158.679 56.504C158.311 56.36 157.761 56.1893 157.031 55.992C156.247 55.7787 155.633 55.5653 155.191 55.352C154.748 55.1387 154.433 54.8933 154.247 54.616C154.06 54.3333 153.967 53.9893 153.967 53.584C153.967 53.0933 154.105 52.664 154.383 52.296C154.66 51.9227 155.044 51.6347 155.535 51.432C156.025 51.224 156.596 51.12 157.247 51.12C157.897 51.12 158.479 51.2267 158.991 51.44C159.508 51.648 159.924 51.9413 160.239 52.32C160.553 52.6987 160.74 53.1387 160.799 53.64L159.599 53.856C159.519 53.3493 159.265 52.9493 158.839 52.656C158.417 52.3573 157.881 52.2027 157.231 52.192C156.617 52.176 156.119 52.2933 155.735 52.544C155.351 52.7893 155.159 53.1173 155.159 53.528C155.159 53.7573 155.228 53.9547 155.367 54.12C155.505 54.28 155.756 54.432 156.119 54.576C156.487 54.72 157.009 54.8773 157.687 55.048C158.481 55.2507 159.105 55.464 159.559 55.688C160.012 55.912 160.335 56.176 160.527 56.48C160.719 56.784 160.815 57.16 160.815 57.608C160.815 58.424 160.511 59.0667 159.903 59.536C159.3 60 158.468 60.232 157.407 60.232ZM162.429 61.672L162.501 61.088C162.714 61.104 162.869 61.0613 162.965 60.96C163.061 60.8587 163.119 60.7227 163.141 60.552C163.162 60.3813 163.167 60.1973 163.157 60H162.429V58.312H163.797V60.32C163.797 60.8107 163.671 61.1787 163.421 61.424C163.175 61.6693 162.845 61.752 162.429 61.672ZM180.346 60L180.354 54.328C180.354 53.6613 180.167 53.1387 179.794 52.76C179.426 52.376 178.957 52.184 178.386 52.184C178.061 52.184 177.743 52.2587 177.434 52.408C177.125 52.5573 176.869 52.7973 176.666 53.128C176.469 53.4587 176.37 53.8907 176.37 54.424L175.674 54.224C175.658 53.6053 175.778 53.064 176.034 52.6C176.295 52.136 176.653 51.776 177.106 51.52C177.565 51.2587 178.082 51.128 178.658 51.128C179.527 51.128 180.223 51.3973 180.746 51.936C181.269 52.4693 181.53 53.192 181.53 54.104L181.522 60H180.346ZM170.034 60V51.36H171.09V53.488H171.218V60H170.034ZM175.202 60L175.21 54.408C175.21 53.72 175.026 53.1787 174.658 52.784C174.295 52.384 173.815 52.184 173.218 52.184C172.621 52.184 172.138 52.3893 171.77 52.8C171.402 53.2053 171.218 53.7467 171.218 54.424L170.514 54.04C170.514 53.4853 170.645 52.9893 170.906 52.552C171.167 52.1093 171.525 51.7627 171.978 51.512C172.431 51.256 172.946 51.128 173.522 51.128C174.071 51.128 174.559 51.2453 174.986 51.48C175.418 51.7147 175.757 52.056 176.002 52.504C176.247 52.952 176.37 53.496 176.37 54.136L176.362 60H175.202ZM186.076 60.24C185.426 60.24 184.879 60.1227 184.436 59.888C183.999 59.6533 183.671 59.3413 183.452 58.952C183.234 58.5627 183.124 58.1387 183.124 57.68C183.124 57.2107 183.218 56.8107 183.404 56.48C183.596 56.144 183.855 55.8693 184.18 55.656C184.511 55.4427 184.892 55.28 185.324 55.168C185.762 55.0613 186.244 54.968 186.772 54.888C187.306 54.8027 187.826 54.7307 188.332 54.672C188.844 54.608 189.292 54.5467 189.676 54.488L189.26 54.744C189.276 53.8907 189.111 53.2587 188.764 52.848C188.418 52.4373 187.815 52.232 186.956 52.232C186.364 52.232 185.863 52.3653 185.452 52.632C185.047 52.8987 184.762 53.32 184.596 53.896L183.452 53.56C183.65 52.7867 184.047 52.1867 184.644 51.76C185.242 51.3333 186.018 51.12 186.972 51.12C187.762 51.12 188.431 51.2693 188.98 51.568C189.535 51.8613 189.927 52.288 190.156 52.848C190.263 53.0987 190.332 53.3787 190.364 53.688C190.396 53.9973 190.412 54.312 190.412 54.632V60H189.364V57.832L189.668 57.96C189.375 58.7013 188.919 59.2667 188.3 59.656C187.682 60.0453 186.94 60.24 186.076 60.24ZM186.212 59.224C186.762 59.224 187.242 59.1253 187.652 58.928C188.063 58.7307 188.394 58.4613 188.644 58.12C188.895 57.7733 189.058 57.384 189.132 56.952C189.196 56.6747 189.231 56.3707 189.236 56.04C189.242 55.704 189.244 55.4533 189.244 55.288L189.692 55.52C189.292 55.5733 188.858 55.6267 188.388 55.68C187.924 55.7333 187.466 55.7947 187.012 55.864C186.564 55.9333 186.159 56.016 185.796 56.112C185.551 56.1813 185.314 56.28 185.084 56.408C184.855 56.5307 184.666 56.696 184.516 56.904C184.372 57.112 184.3 57.3707 184.3 57.68C184.3 57.9307 184.362 58.1733 184.484 58.408C184.612 58.6427 184.815 58.8373 185.092 58.992C185.375 59.1467 185.748 59.224 186.212 59.224ZM195.847 60.24C195.042 60.24 194.354 60.04 193.783 59.64C193.212 59.2347 192.775 58.688 192.471 58C192.167 57.312 192.015 56.536 192.015 55.672C192.015 54.8133 192.164 54.04 192.463 53.352C192.767 52.664 193.202 52.12 193.767 51.72C194.332 51.32 195.01 51.12 195.799 51.12C196.61 51.12 197.292 51.3173 197.847 51.712C198.402 52.1067 198.82 52.648 199.103 53.336C199.391 54.0187 199.535 54.7973 199.535 55.672C199.535 56.5307 199.394 57.3067 199.111 58C198.828 58.688 198.412 59.2347 197.863 59.64C197.314 60.04 196.642 60.24 195.847 60.24ZM195.967 59.144C196.58 59.144 197.087 58.9947 197.487 58.696C197.887 58.3973 198.186 57.9867 198.383 57.464C198.58 56.936 198.679 56.3387 198.679 55.672C198.679 54.9947 198.58 54.3973 198.383 53.88C198.186 53.3573 197.887 52.9493 197.487 52.656C197.092 52.3627 196.594 52.216 195.991 52.216C195.372 52.216 194.86 52.368 194.455 52.672C194.05 52.976 193.748 53.3893 193.551 53.912C193.359 54.4347 193.263 55.0213 193.263 55.672C193.263 56.328 193.362 56.92 193.559 57.448C193.762 57.9707 194.063 58.384 194.463 58.688C194.863 58.992 195.364 59.144 195.967 59.144ZM198.679 60V53.496H198.551V48.48H199.735V60H198.679ZM205.635 60.24C204.793 60.24 204.062 60.0533 203.443 59.68C202.83 59.3067 202.353 58.7813 202.011 58.104C201.67 57.4267 201.499 56.632 201.499 55.72C201.499 54.776 201.667 53.96 202.003 53.272C202.339 52.584 202.811 52.0533 203.419 51.68C204.033 51.3067 204.755 51.12 205.587 51.12C206.441 51.12 207.169 51.3173 207.771 51.712C208.374 52.1013 208.83 52.6613 209.139 53.392C209.449 54.1227 209.59 54.9947 209.563 56.008H208.363V55.592C208.342 54.472 208.099 53.6267 207.635 53.056C207.177 52.4853 206.505 52.2 205.619 52.2C204.691 52.2 203.979 52.5013 203.483 53.104C202.993 53.7067 202.747 54.5653 202.747 55.68C202.747 56.768 202.993 57.6133 203.483 58.216C203.979 58.8133 204.681 59.112 205.587 59.112C206.206 59.112 206.745 58.9707 207.203 58.688C207.667 58.4 208.033 57.9867 208.299 57.448L209.395 57.872C209.054 58.624 208.55 59.208 207.883 59.624C207.222 60.0347 206.473 60.24 205.635 60.24ZM202.331 56.008V55.024H208.931V56.008H202.331ZM1.976 84V74.72C1.976 74.496 1.98667 74.2747 2.008 74.056C2.03467 73.8373 2.08533 73.6293 2.16 73.432C2.23467 73.2293 2.352 73.0427 2.512 72.872C2.688 72.68 2.88 72.5413 3.088 72.456C3.296 72.3653 3.512 72.3067 3.736 72.28C3.96533 72.2533 4.18933 72.24 4.408 72.24H5.512V73.232H4.488C4.04 73.232 3.704 73.3413 3.48 73.56C3.26133 73.7787 3.152 74.1227 3.152 74.592V84H1.976ZM0.48 76.368V75.36H5.512V76.368H0.48ZM6.79188 84V75.36H7.84788V77.44L7.63988 77.168C7.73588 76.912 7.86121 76.6773 8.01588 76.464C8.17054 76.2453 8.33854 76.0667 8.51988 75.928C8.74388 75.7307 9.00521 75.5813 9.30388 75.48C9.60254 75.3733 9.90388 75.312 10.2079 75.296C10.5119 75.2747 10.7892 75.296 11.0399 75.36V76.464C10.7252 76.384 10.3812 76.3653 10.0079 76.408C9.63454 76.4507 9.29054 76.6 8.97588 76.856C8.68788 77.08 8.47188 77.3493 8.32788 77.664C8.18388 77.9733 8.08788 78.304 8.03988 78.656C7.99188 79.0027 7.96788 79.3467 7.96788 79.688V84H6.79188ZM16.0093 84.24C15.1506 84.24 14.4173 84.0453 13.8093 83.656C13.2013 83.2667 12.7346 82.728 12.4093 82.04C12.0839 81.352 11.9213 80.5627 11.9213 79.672C11.9213 78.7653 12.0866 77.9707 12.4173 77.288C12.7479 76.6053 13.2173 76.0747 13.8253 75.696C14.4386 75.312 15.1666 75.12 16.0093 75.12C16.8733 75.12 17.6093 75.3147 18.2173 75.704C18.8306 76.088 19.2973 76.624 19.6173 77.312C19.9426 77.9947 20.1053 78.7813 20.1053 79.672C20.1053 80.5787 19.9426 81.376 19.6173 82.064C19.2919 82.7467 18.8226 83.28 18.2093 83.664C17.5959 84.048 16.8626 84.24 16.0093 84.24ZM16.0093 83.112C16.9693 83.112 17.6839 82.7947 18.1533 82.16C18.6226 81.52 18.8573 80.6907 18.8573 79.672C18.8573 78.6267 18.6199 77.7947 18.1453 77.176C17.6759 76.5573 16.9639 76.248 16.0093 76.248C15.3639 76.248 14.8306 76.3947 14.4093 76.688C13.9933 76.976 13.6813 77.3787 13.4733 77.896C13.2706 78.408 13.1693 79 13.1693 79.672C13.1693 80.712 13.4093 81.5467 13.8893 82.176C14.3693 82.8 15.0759 83.112 16.0093 83.112ZM32.174 84L32.182 78.328C32.182 77.6613 31.9953 77.1387 31.622 76.76C31.254 76.376 30.7847 76.184 30.214 76.184C29.8887 76.184 29.5713 76.2587 29.262 76.408C28.9527 76.5573 28.6967 76.7973 28.494 77.128C28.2967 77.4587 28.198 77.8907 28.198 78.424L27.502 78.224C27.486 77.6053 27.606 77.064 27.862 76.6C28.1233 76.136 28.4807 75.776 28.934 75.52C29.3927 75.2587 29.91 75.128 30.486 75.128C31.3553 75.128 32.0513 75.3973 32.574 75.936C33.0967 76.4693 33.358 77.192 33.358 78.104L33.35 84H32.174ZM21.862 84V75.36H22.918V77.488H23.046V84H21.862ZM27.03 84L27.038 78.408C27.038 77.72 26.854 77.1787 26.486 76.784C26.1233 76.384 25.6433 76.184 25.046 76.184C24.4487 76.184 23.966 76.3893 23.598 76.8C23.23 77.2053 23.046 77.7467 23.046 78.424L22.342 78.04C22.342 77.4853 22.4727 76.9893 22.734 76.552C22.9953 76.1093 23.3527 75.7627 23.806 75.512C24.2593 75.256 24.774 75.128 25.35 75.128C25.8993 75.128 26.3873 75.2453 26.814 75.48C27.246 75.7147 27.5847 76.056 27.83 76.504C28.0753 76.952 28.198 77.496 28.198 78.136L28.19 84H27.03ZM38.6356 84V75.36H39.6916V77.44L39.4836 77.168C39.5796 76.912 39.705 76.6773 39.8596 76.464C40.0143 76.2453 40.1823 76.0667 40.3636 75.928C40.5876 75.7307 40.849 75.5813 41.1476 75.48C41.4463 75.3733 41.7476 75.312 42.0516 75.296C42.3556 75.2747 42.633 75.296 42.8836 75.36V76.464C42.569 76.384 42.225 76.3653 41.8516 76.408C41.4783 76.4507 41.1343 76.6 40.8196 76.856C40.5316 77.08 40.3156 77.3493 40.1716 77.664C40.0276 77.9733 39.9316 78.304 39.8836 78.656C39.8356 79.0027 39.8116 79.3467 39.8116 79.688V84H38.6356ZM47.901 84.24C47.0583 84.24 46.3277 84.0533 45.709 83.68C45.0957 83.3067 44.6183 82.7813 44.277 82.104C43.9357 81.4267 43.765 80.632 43.765 79.72C43.765 78.776 43.933 77.96 44.269 77.272C44.605 76.584 45.077 76.0533 45.685 75.68C46.2983 75.3067 47.021 75.12 47.853 75.12C48.7063 75.12 49.4343 75.3173 50.037 75.712C50.6397 76.1013 51.0957 76.6613 51.405 77.392C51.7143 78.1227 51.8557 78.9947 51.829 80.008H50.629V79.592C50.6077 78.472 50.365 77.6267 49.901 77.056C49.4423 76.4853 48.7703 76.2 47.885 76.2C46.957 76.2 46.245 76.5013 45.749 77.104C45.2583 77.7067 45.013 78.5653 45.013 79.68C45.013 80.768 45.2583 81.6133 45.749 82.216C46.245 82.8133 46.9463 83.112 47.853 83.112C48.4717 83.112 49.0103 82.9707 49.469 82.688C49.933 82.4 50.2983 81.9867 50.565 81.448L51.661 81.872C51.3197 82.624 50.8157 83.208 50.149 83.624C49.4877 84.0347 48.7383 84.24 47.901 84.24ZM44.597 80.008V79.024H51.197V80.008H44.597ZM57.1884 84.24C56.319 84.24 55.583 84.0453 54.9804 83.656C54.3777 83.2667 53.919 82.7307 53.6044 82.048C53.295 81.36 53.135 80.5707 53.1244 79.68C53.135 78.7733 53.3004 77.9787 53.6204 77.296C53.9404 76.608 54.4017 76.0747 55.0044 75.696C55.607 75.312 56.3377 75.12 57.1964 75.12C58.071 75.12 58.831 75.3333 59.4764 75.76C60.127 76.1867 60.5724 76.7707 60.8124 77.512L59.6604 77.88C59.4577 77.3627 59.135 76.9627 58.6924 76.68C58.255 76.392 57.7537 76.248 57.1884 76.248C56.5537 76.248 56.0284 76.3947 55.6124 76.688C55.1964 76.976 54.887 77.3787 54.6844 77.896C54.4817 78.4133 54.3777 79.008 54.3724 79.68C54.383 80.7147 54.623 81.5467 55.0924 82.176C55.5617 82.8 56.2604 83.112 57.1884 83.112C57.775 83.112 58.2737 82.9787 58.6844 82.712C59.1004 82.44 59.415 82.0453 59.6284 81.528L60.8124 81.88C60.4924 82.648 60.023 83.2347 59.4044 83.64C58.7857 84.04 58.047 84.24 57.1884 84.24ZM63.3832 87.84L65.0553 83.304L65.0793 84.648L61.2952 75.36H62.5433L65.6473 83.128H65.1353L67.9993 75.36H69.1993L64.5593 87.84H63.3832ZM73.8602 84.24C72.9909 84.24 72.2549 84.0453 71.6523 83.656C71.0496 83.2667 70.5909 82.7307 70.2763 82.048C69.9669 81.36 69.8069 80.5707 69.7963 79.68C69.8069 78.7733 69.9723 77.9787 70.2923 77.296C70.6123 76.608 71.0736 76.0747 71.6763 75.696C72.2789 75.312 73.0096 75.12 73.8683 75.12C74.7429 75.12 75.5029 75.3333 76.1483 75.76C76.7989 76.1867 77.2443 76.7707 77.4843 77.512L76.3323 77.88C76.1296 77.3627 75.8069 76.9627 75.3643 76.68C74.9269 76.392 74.4256 76.248 73.8602 76.248C73.2256 76.248 72.7003 76.3947 72.2843 76.688C71.8683 76.976 71.5589 77.3787 71.3563 77.896C71.1536 78.4133 71.0496 79.008 71.0443 79.68C71.0549 80.7147 71.2949 81.5467 71.7643 82.176C72.2336 82.8 72.9323 83.112 73.8602 83.112C74.4469 83.112 74.9456 82.9787 75.3563 82.712C75.7723 82.44 76.0869 82.0453 76.3003 81.528L77.4843 81.88C77.1643 82.648 76.6949 83.2347 76.0763 83.64C75.4576 84.04 74.7189 84.24 73.8602 84.24ZM79.2956 84V72.24H80.4716V84H79.2956ZM86.526 84.24C85.6833 84.24 84.9527 84.0533 84.334 83.68C83.7207 83.3067 83.2433 82.7813 82.902 82.104C82.5607 81.4267 82.39 80.632 82.39 79.72C82.39 78.776 82.558 77.96 82.894 77.272C83.23 76.584 83.702 76.0533 84.31 75.68C84.9233 75.3067 85.646 75.12 86.478 75.12C87.3313 75.12 88.0593 75.3173 88.662 75.712C89.2647 76.1013 89.7207 76.6613 90.03 77.392C90.3393 78.1227 90.4807 78.9947 90.454 80.008H89.254V79.592C89.2327 78.472 88.99 77.6267 88.526 77.056C88.0673 76.4853 87.3953 76.2 86.51 76.2C85.582 76.2 84.87 76.5013 84.374 77.104C83.8833 77.7067 83.638 78.5653 83.638 79.68C83.638 80.768 83.8833 81.6133 84.374 82.216C84.87 82.8133 85.5713 83.112 86.478 83.112C87.0967 83.112 87.6353 82.9707 88.094 82.688C88.558 82.4 88.9233 81.9867 89.19 81.448L90.286 81.872C89.9447 82.624 89.4407 83.208 88.774 83.624C88.1127 84.0347 87.3633 84.24 86.526 84.24ZM83.222 80.008V79.024H89.822V80.008H83.222ZM95.5814 84.24C94.776 84.24 94.088 84.04 93.5174 83.64C92.9467 83.2347 92.5094 82.688 92.2054 82C91.9014 81.312 91.7494 80.536 91.7494 79.672C91.7494 78.8133 91.8987 78.04 92.1974 77.352C92.5014 76.664 92.936 76.12 93.5014 75.72C94.0667 75.32 94.744 75.12 95.5334 75.12C96.344 75.12 97.0267 75.3173 97.5814 75.712C98.136 76.1067 98.5547 76.648 98.8374 77.336C99.1254 78.0187 99.2694 78.7973 99.2694 79.672C99.2694 80.5307 99.128 81.3067 98.8454 82C98.5627 82.688 98.1467 83.2347 97.5974 83.64C97.048 84.04 96.376 84.24 95.5814 84.24ZM95.7014 83.144C96.3147 83.144 96.8214 82.9947 97.2214 82.696C97.6214 82.3973 97.92 81.9867 98.1174 81.464C98.3147 80.936 98.4134 80.3387 98.4134 79.672C98.4134 78.9947 98.3147 78.3973 98.1174 77.88C97.92 77.3573 97.6214 76.9493 97.2214 76.656C96.8267 76.3627 96.328 76.216 95.7254 76.216C95.1067 76.216 94.5947 76.368 94.1894 76.672C93.784 76.976 93.4827 77.3893 93.2854 77.912C93.0934 78.4347 92.9974 79.0213 92.9974 79.672C92.9974 80.328 93.096 80.92 93.2934 81.448C93.496 81.9707 93.7974 82.384 94.1974 82.688C94.5974 82.992 95.0987 83.144 95.7014 83.144ZM98.4134 84V77.496H98.2854V72.48H99.4694V84H98.4134ZM115.221 84L115.229 78.328C115.229 77.6613 115.042 77.1387 114.669 76.76C114.301 76.376 113.832 76.184 113.261 76.184C112.936 76.184 112.618 76.2587 112.309 76.408C112 76.5573 111.744 76.7973 111.541 77.128C111.344 77.4587 111.245 77.8907 111.245 78.424L110.549 78.224C110.533 77.6053 110.653 77.064 110.909 76.6C111.17 76.136 111.528 75.776 111.981 75.52C112.44 75.2587 112.957 75.128 113.533 75.128C114.402 75.128 115.098 75.3973 115.621 75.936C116.144 76.4693 116.405 77.192 116.405 78.104L116.397 84H115.221ZM104.909 84V75.36H105.965V77.488H106.093V84H104.909ZM110.077 84L110.085 78.408C110.085 77.72 109.901 77.1787 109.533 76.784C109.17 76.384 108.69 76.184 108.093 76.184C107.496 76.184 107.013 76.3893 106.645 76.8C106.277 77.2053 106.093 77.7467 106.093 78.424L105.389 78.04C105.389 77.4853 105.52 76.9893 105.781 76.552C106.042 76.1093 106.4 75.7627 106.853 75.512C107.306 75.256 107.821 75.128 108.397 75.128C108.946 75.128 109.434 75.2453 109.861 75.48C110.293 75.7147 110.632 76.056 110.877 76.504C111.122 76.952 111.245 77.496 111.245 78.136L111.237 84H110.077ZM120.951 84.24C120.301 84.24 119.754 84.1227 119.311 83.888C118.874 83.6533 118.546 83.3413 118.327 82.952C118.109 82.5627 117.999 82.1387 117.999 81.68C117.999 81.2107 118.093 80.8107 118.279 80.48C118.471 80.144 118.73 79.8693 119.055 79.656C119.386 79.4427 119.767 79.28 120.199 79.168C120.637 79.0613 121.119 78.968 121.647 78.888C122.181 78.8027 122.701 78.7307 123.207 78.672C123.719 78.608 124.167 78.5467 124.551 78.488L124.135 78.744C124.151 77.8907 123.986 77.2587 123.639 76.848C123.293 76.4373 122.69 76.232 121.831 76.232C121.239 76.232 120.738 76.3653 120.327 76.632C119.922 76.8987 119.637 77.32 119.471 77.896L118.327 77.56C118.525 76.7867 118.922 76.1867 119.519 75.76C120.117 75.3333 120.893 75.12 121.847 75.12C122.637 75.12 123.306 75.2693 123.855 75.568C124.41 75.8613 124.802 76.288 125.031 76.848C125.138 77.0987 125.207 77.3787 125.239 77.688C125.271 77.9973 125.287 78.312 125.287 78.632V84H124.239V81.832L124.543 81.96C124.25 82.7013 123.794 83.2667 123.175 83.656C122.557 84.0453 121.815 84.24 120.951 84.24ZM121.087 83.224C121.637 83.224 122.117 83.1253 122.527 82.928C122.938 82.7307 123.269 82.4613 123.519 82.12C123.77 81.7733 123.933 81.384 124.007 80.952C124.071 80.6747 124.106 80.3707 124.111 80.04C124.117 79.704 124.119 79.4533 124.119 79.288L124.567 79.52C124.167 79.5733 123.733 79.6267 123.263 79.68C122.799 79.7333 122.341 79.7947 121.887 79.864C121.439 79.9333 121.034 80.016 120.671 80.112C120.426 80.1813 120.189 80.28 119.959 80.408C119.73 80.5307 119.541 80.696 119.391 80.904C119.247 81.112 119.175 81.3707 119.175 81.68C119.175 81.9307 119.237 82.1733 119.359 82.408C119.487 82.6427 119.69 82.8373 119.967 82.992C120.25 83.1467 120.623 83.224 121.087 83.224ZM132.074 84C131.589 84.1013 131.109 84.1413 130.634 84.12C130.165 84.0987 129.743 83.9973 129.37 83.816C129.002 83.6347 128.722 83.352 128.53 82.968C128.375 82.648 128.29 82.3253 128.274 82C128.263 81.6693 128.258 81.2933 128.258 80.872V72.96H129.426V80.824C129.426 81.1867 129.429 81.4907 129.434 81.736C129.445 81.976 129.501 82.1893 129.602 82.376C129.794 82.7333 130.098 82.9467 130.514 83.016C130.935 83.0853 131.455 83.0693 132.074 82.968V84ZM126.41 76.368V75.36H132.074V76.368H126.41ZM137.12 84.24C136.277 84.24 135.546 84.0533 134.928 83.68C134.314 83.3067 133.837 82.7813 133.496 82.104C133.154 81.4267 132.984 80.632 132.984 79.72C132.984 78.776 133.152 77.96 133.488 77.272C133.824 76.584 134.296 76.0533 134.904 75.68C135.517 75.3067 136.24 75.12 137.072 75.12C137.925 75.12 138.653 75.3173 139.256 75.712C139.858 76.1013 140.314 76.6613 140.624 77.392C140.933 78.1227 141.074 78.9947 141.048 80.008H139.848V79.592C139.826 78.472 139.584 77.6267 139.12 77.056C138.661 76.4853 137.989 76.2 137.104 76.2C136.176 76.2 135.464 76.5013 134.968 77.104C134.477 77.7067 134.232 78.5653 134.232 79.68C134.232 80.768 134.477 81.6133 134.968 82.216C135.464 82.8133 136.165 83.112 137.072 83.112C137.69 83.112 138.229 82.9707 138.688 82.688C139.152 82.4 139.517 81.9867 139.784 81.448L140.88 81.872C140.538 82.624 140.034 83.208 139.368 83.624C138.706 84.0347 137.957 84.24 137.12 84.24ZM133.816 80.008V79.024H140.416V80.008H133.816ZM142.823 84V75.36H143.879V77.44L143.671 77.168C143.767 76.912 143.892 76.6773 144.047 76.464C144.202 76.2453 144.37 76.0667 144.551 75.928C144.775 75.7307 145.036 75.5813 145.335 75.48C145.634 75.3733 145.935 75.312 146.239 75.296C146.543 75.2747 146.82 75.296 147.071 75.36V76.464C146.756 76.384 146.412 76.3653 146.039 76.408C145.666 76.4507 145.322 76.6 145.007 76.856C144.719 77.08 144.503 77.3493 144.359 77.664C144.215 77.9733 144.119 78.304 144.071 78.656C144.023 79.0027 143.999 79.3467 143.999 79.688V84H142.823ZM148.749 73.72V72.4H149.925V73.72H148.749ZM148.749 84V75.36H149.925V84H148.749ZM154.795 84.24C154.144 84.24 153.598 84.1227 153.155 83.888C152.718 83.6533 152.39 83.3413 152.171 82.952C151.952 82.5627 151.843 82.1387 151.843 81.68C151.843 81.2107 151.936 80.8107 152.123 80.48C152.315 80.144 152.574 79.8693 152.899 79.656C153.23 79.4427 153.611 79.28 154.043 79.168C154.48 79.0613 154.963 78.968 155.491 78.888C156.024 78.8027 156.544 78.7307 157.051 78.672C157.563 78.608 158.011 78.5467 158.395 78.488L157.979 78.744C157.995 77.8907 157.83 77.2587 157.483 76.848C157.136 76.4373 156.534 76.232 155.675 76.232C155.083 76.232 154.582 76.3653 154.171 76.632C153.766 76.8987 153.48 77.32 153.315 77.896L152.171 77.56C152.368 76.7867 152.766 76.1867 153.363 75.76C153.96 75.3333 154.736 75.12 155.691 75.12C156.48 75.12 157.15 75.2693 157.699 75.568C158.254 75.8613 158.646 76.288 158.875 76.848C158.982 77.0987 159.051 77.3787 159.083 77.688C159.115 77.9973 159.131 78.312 159.131 78.632V84H158.083V81.832L158.387 81.96C158.094 82.7013 157.638 83.2667 157.019 83.656C156.4 84.0453 155.659 84.24 154.795 84.24ZM154.931 83.224C155.48 83.224 155.96 83.1253 156.371 82.928C156.782 82.7307 157.112 82.4613 157.363 82.12C157.614 81.7733 157.776 81.384 157.851 80.952C157.915 80.6747 157.95 80.3707 157.955 80.04C157.96 79.704 157.963 79.4533 157.963 79.288L158.411 79.52C158.011 79.5733 157.576 79.6267 157.107 79.68C156.643 79.7333 156.184 79.7947 155.731 79.864C155.283 79.9333 154.878 80.016 154.515 80.112C154.27 80.1813 154.032 80.28 153.803 80.408C153.574 80.5307 153.384 80.696 153.235 80.904C153.091 81.112 153.019 81.3707 153.019 81.68C153.019 81.9307 153.08 82.1733 153.203 82.408C153.331 82.6427 153.534 82.8373 153.811 82.992C154.094 83.1467 154.467 83.224 154.931 83.224ZM161.374 84V72.24H162.55V84H161.374ZM168.172 84.232C167.159 84.232 166.324 84.0133 165.668 83.576C165.017 83.1387 164.617 82.5307 164.468 81.752L165.668 81.552C165.796 82.0427 166.087 82.4347 166.54 82.728C166.999 83.016 167.564 83.16 168.236 83.16C168.892 83.16 169.409 83.024 169.788 82.752C170.167 82.4747 170.356 82.0987 170.356 81.624C170.356 81.3573 170.295 81.1413 170.172 80.976C170.055 80.8053 169.812 80.648 169.444 80.504C169.076 80.36 168.527 80.1893 167.796 79.992C167.012 79.7787 166.399 79.5653 165.956 79.352C165.513 79.1387 165.199 78.8933 165.012 78.616C164.825 78.3333 164.732 77.9893 164.732 77.584C164.732 77.0933 164.871 76.664 165.148 76.296C165.425 75.9227 165.809 75.6347 166.3 75.432C166.791 75.224 167.361 75.12 168.012 75.12C168.663 75.12 169.244 75.2267 169.756 75.44C170.273 75.648 170.689 75.9413 171.004 76.32C171.319 76.6987 171.505 77.1387 171.564 77.64L170.364 77.856C170.284 77.3493 170.031 76.9493 169.604 76.656C169.183 76.3573 168.647 76.2027 167.996 76.192C167.383 76.176 166.884 76.2933 166.5 76.544C166.116 76.7893 165.924 77.1173 165.924 77.528C165.924 77.7573 165.993 77.9547 166.132 78.12C166.271 78.28 166.521 78.432 166.884 78.576C167.252 78.72 167.775 78.8773 168.452 79.048C169.247 79.2507 169.871 79.464 170.324 79.688C170.777 79.912 171.1 80.176 171.292 80.48C171.484 80.784 171.58 81.16 171.58 81.608C171.58 82.424 171.276 83.0667 170.668 83.536C170.065 84 169.233 84.232 168.172 84.232ZM173.578 84V82.632H174.946V84H173.578Z" fill="#F8F8F8"/>
</svg>
