<svg width="204" height="88" viewBox="0 0 204 88" fill="none" xmlns="http://www.w3.org/2000/svg">
<path d="M1.12 12V0.48H5.568C5.68 0.48 5.80533 0.485333 5.944 0.495999C6.088 0.501333 6.232 0.517333 6.376 0.544C6.97867 0.634666 7.488 0.845333 7.904 1.176C8.32533 1.50133 8.64267 1.912 8.856 2.408C9.07467 2.904 9.184 3.45333 9.184 4.056C9.184 4.65333 9.07467 5.2 8.856 5.696C8.63733 6.192 8.31733 6.60533 7.896 6.936C7.48 7.26133 6.97333 7.46933 6.376 7.56C6.232 7.58133 6.088 7.59733 5.944 7.608C5.80533 7.61867 5.68 7.624 5.568 7.624H2.296V12H1.12ZM2.296 6.504H5.536C5.632 6.504 5.744 6.49867 5.872 6.488C6 6.47733 6.12533 6.45867 6.248 6.432C6.64267 6.34667 6.96533 6.184 7.216 5.944C7.472 5.704 7.66133 5.41867 7.784 5.088C7.912 4.75733 7.976 4.41333 7.976 4.056C7.976 3.69867 7.912 3.35467 7.784 3.024C7.66133 2.688 7.472 2.4 7.216 2.16C6.96533 1.92 6.64267 1.75733 6.248 1.672C6.12533 1.64533 6 1.62933 5.872 1.624C5.744 1.61333 5.632 1.608 5.536 1.608H2.296V6.504ZM15.4403 12.24C14.2936 12.24 13.3256 11.9867 12.5363 11.48C11.7469 10.968 11.1496 10.2613 10.7443 9.36C10.3389 8.45867 10.1363 7.41867 10.1363 6.24C10.1363 5.06133 10.3389 4.02133 10.7443 3.12C11.1496 2.21867 11.7469 1.51467 12.5363 1.008C13.3256 0.496 14.2936 0.24 15.4403 0.24C16.5923 0.24 17.5603 0.496 18.3443 1.008C19.1336 1.51467 19.7309 2.21867 20.1363 3.12C20.5469 4.02133 20.7523 5.06133 20.7523 6.24C20.7523 7.41867 20.5469 8.45867 20.1363 9.36C19.7309 10.2613 19.1336 10.968 18.3443 11.48C17.5603 11.9867 16.5923 12.24 15.4403 12.24ZM15.4403 11.112C16.3416 11.112 17.0936 10.9067 17.6962 10.496C18.2989 10.0853 18.7496 9.51467 19.0483 8.784C19.3523 8.048 19.5043 7.2 19.5043 6.24C19.5043 5.28 19.3523 4.43467 19.0483 3.704C18.7496 2.97333 18.2989 2.40267 17.6962 1.992C17.0936 1.58133 16.3416 1.37333 15.4403 1.368C14.5389 1.368 13.7896 1.57333 13.1923 1.984C12.5949 2.39467 12.1443 2.968 11.8403 3.704C11.5416 4.43467 11.3896 5.28 11.3843 6.24C11.3789 7.2 11.5256 8.04533 11.8243 8.776C12.1283 9.50133 12.5816 10.072 13.1843 10.488C13.7869 10.8987 14.5389 11.1067 15.4403 11.112ZM25.1059 12V1.608H21.0819V0.48H30.3059V1.608H26.2819V12H25.1059ZM31.5888 12V0.48H36.0368C36.1488 0.48 36.2741 0.485333 36.4128 0.495999C36.5568 0.501333 36.7008 0.517333 36.8448 0.544C37.4474 0.634666 37.9568 0.845333 38.3728 1.176C38.7941 1.50133 39.1114 1.912 39.3247 2.408C39.5434 2.904 39.6528 3.45333 39.6528 4.056C39.6528 4.92533 39.4234 5.68 38.9648 6.32C38.5061 6.96 37.8501 7.36267 36.9968 7.528L36.5888 7.624H32.7648V12H31.5888ZM38.5648 12L36.2928 7.312L37.4208 6.88L39.9168 12H38.5648ZM32.7648 6.504H36.0048C36.1008 6.504 36.2128 6.49867 36.3408 6.488C36.4688 6.47733 36.5941 6.45867 36.7168 6.432C37.1114 6.34667 37.4341 6.184 37.6848 5.944C37.9408 5.704 38.1301 5.41867 38.2528 5.088C38.3808 4.75733 38.4448 4.41333 38.4448 4.056C38.4448 3.69867 38.3808 3.35467 38.2528 3.024C38.1301 2.688 37.9408 2.4 37.6848 2.16C37.4341 1.92 37.1114 1.75733 36.7168 1.672C36.5941 1.64533 36.4688 1.62933 36.3408 1.624C36.2128 1.61333 36.1008 1.608 36.0048 1.608H32.7648V6.504ZM44.8856 12V0.48H49.3336C49.4456 0.48 49.571 0.485333 49.7096 0.495999C49.8536 0.501333 49.9976 0.517333 50.1416 0.544C50.7443 0.634666 51.2536 0.845333 51.6696 1.176C52.091 1.50133 52.4083 1.912 52.6216 2.408C52.8403 2.904 52.9496 3.45333 52.9496 4.056C52.9496 4.65333 52.8403 5.2 52.6216 5.696C52.403 6.192 52.083 6.60533 51.6616 6.936C51.2456 7.26133 50.739 7.46933 50.1416 7.56C49.9976 7.58133 49.8536 7.59733 49.7096 7.608C49.571 7.61867 49.4456 7.624 49.3336 7.624H46.0616V12H44.8856ZM46.0616 6.504H49.3016C49.3976 6.504 49.5096 6.49867 49.6376 6.488C49.7656 6.47733 49.891 6.45867 50.0136 6.432C50.4083 6.34667 50.731 6.184 50.9816 5.944C51.2376 5.704 51.427 5.41867 51.5496 5.088C51.6776 4.75733 51.7416 4.41333 51.7416 4.056C51.7416 3.69867 51.6776 3.35467 51.5496 3.024C51.427 2.688 51.2376 2.4 50.9816 2.16C50.731 1.92 50.4083 1.75733 50.0136 1.672C49.891 1.64533 49.7656 1.62933 49.6376 1.624C49.5096 1.61333 49.3976 1.608 49.3016 1.608H46.0616V6.504ZM58.0874 12.24C57.2287 12.24 56.4954 12.0453 55.8874 11.656C55.2794 11.2667 54.8127 10.728 54.4874 10.04C54.162 9.352 53.9994 8.56267 53.9994 7.672C53.9994 6.76533 54.1647 5.97067 54.4954 5.288C54.826 4.60533 55.2954 4.07467 55.9034 3.696C56.5167 3.312 57.2447 3.12 58.0874 3.12C58.9514 3.12 59.6874 3.31467 60.2954 3.704C60.9087 4.088 61.3754 4.624 61.6954 5.312C62.0207 5.99467 62.1834 6.78133 62.1834 7.672C62.1834 8.57867 62.0207 9.376 61.6954 10.064C61.37 10.7467 60.9007 11.28 60.2874 11.664C59.674 12.048 58.9407 12.24 58.0874 12.24ZM58.0874 11.112C59.0474 11.112 59.762 10.7947 60.2314 10.16C60.7007 9.52 60.9354 8.69067 60.9354 7.672C60.9354 6.62667 60.698 5.79467 60.2234 5.176C59.754 4.55733 59.042 4.248 58.0874 4.248C57.442 4.248 56.9087 4.39467 56.4874 4.688C56.0714 4.976 55.7594 5.37867 55.5514 5.896C55.3487 6.408 55.2474 7 55.2474 7.672C55.2474 8.712 55.4874 9.54667 55.9674 10.176C56.4474 10.8 57.154 11.112 58.0874 11.112ZM68.6521 12C68.1668 12.1013 67.6868 12.1413 67.2121 12.12C66.7428 12.0987 66.3215 11.9973 65.9481 11.816C65.5801 11.6347 65.3001 11.352 65.1081 10.968C64.9535 10.648 64.8681 10.3253 64.8521 10C64.8415 9.66933 64.8361 9.29333 64.8361 8.872V0.959999H66.0041V8.824C66.0041 9.18667 66.0068 9.49067 66.0121 9.736C66.0228 9.976 66.0788 10.1893 66.1801 10.376C66.3721 10.7333 66.6761 10.9467 67.0921 11.016C67.5135 11.0853 68.0335 11.0693 68.6521 10.968V12ZM62.9881 4.368V3.36H68.6521V4.368H62.9881ZM73.5784 12.232C72.565 12.232 71.7304 12.0133 71.0744 11.576C70.4237 11.1387 70.0237 10.5307 69.8744 9.752L71.0744 9.552C71.2024 10.0427 71.493 10.4347 71.9464 10.728C72.405 11.016 72.9704 11.16 73.6424 11.16C74.2984 11.16 74.8157 11.024 75.1944 10.752C75.573 10.4747 75.7624 10.0987 75.7624 9.624C75.7624 9.35733 75.701 9.14133 75.5784 8.976C75.461 8.80533 75.2184 8.648 74.8504 8.504C74.4824 8.36 73.933 8.18933 73.2024 7.992C72.4184 7.77867 71.805 7.56533 71.3624 7.352C70.9197 7.13867 70.605 6.89333 70.4184 6.616C70.2317 6.33333 70.1384 5.98933 70.1384 5.584C70.1384 5.09333 70.277 4.664 70.5544 4.296C70.8317 3.92267 71.2157 3.63467 71.7064 3.432C72.197 3.224 72.7677 3.12 73.4184 3.12C74.069 3.12 74.6504 3.22667 75.1624 3.44C75.6797 3.648 76.0957 3.94133 76.4104 4.32C76.725 4.69867 76.9117 5.13867 76.9704 5.64L75.7704 5.856C75.6904 5.34933 75.437 4.94933 75.0104 4.656C74.589 4.35733 74.053 4.20267 73.4024 4.192C72.789 4.176 72.2904 4.29333 71.9064 4.544C71.5224 4.78933 71.3304 5.11733 71.3304 5.528C71.3304 5.75733 71.3997 5.95467 71.5384 6.12C71.677 6.28 71.9277 6.432 72.2904 6.576C72.6584 6.72 73.181 6.87733 73.8584 7.048C74.653 7.25067 75.277 7.464 75.7304 7.688C76.1837 7.912 76.5064 8.176 76.6984 8.48C76.8904 8.784 76.9864 9.16 76.9864 9.608C76.9864 10.424 76.6824 11.0667 76.0744 11.536C75.4717 12 74.6397 12.232 73.5784 12.232ZM84.4358 12.24C83.7851 12.24 83.2384 12.1227 82.7958 11.888C82.3584 11.6533 82.0304 11.3413 81.8118 10.952C81.5931 10.5627 81.4838 10.1387 81.4838 9.68C81.4838 9.21067 81.5771 8.81067 81.7638 8.48C81.9558 8.144 82.2144 7.86933 82.5398 7.656C82.8704 7.44267 83.2518 7.28 83.6838 7.168C84.1211 7.06133 84.6038 6.968 85.1318 6.888C85.6651 6.80267 86.1851 6.73067 86.6918 6.672C87.2038 6.608 87.6518 6.54667 88.0358 6.488L87.6198 6.744C87.6358 5.89067 87.4704 5.25867 87.1238 4.848C86.7771 4.43733 86.1744 4.232 85.3158 4.232C84.7238 4.232 84.2224 4.36533 83.8118 4.632C83.4064 4.89867 83.1211 5.32 82.9557 5.896L81.8118 5.56C82.0091 4.78667 82.4064 4.18667 83.0038 3.76C83.6011 3.33333 84.3771 3.12 85.3318 3.12C86.1211 3.12 86.7904 3.26933 87.3398 3.568C87.8944 3.86133 88.2864 4.288 88.5158 4.848C88.6224 5.09867 88.6918 5.37867 88.7238 5.688C88.7558 5.99733 88.7718 6.312 88.7718 6.632V12H87.7238V9.832L88.0278 9.96C87.7344 10.7013 87.2784 11.2667 86.6598 11.656C86.0411 12.0453 85.2998 12.24 84.4358 12.24ZM84.5718 11.224C85.1211 11.224 85.6011 11.1253 86.0118 10.928C86.4224 10.7307 86.7531 10.4613 87.0038 10.12C87.2544 9.77333 87.4171 9.384 87.4918 8.952C87.5558 8.67467 87.5904 8.37067 87.5958 8.04C87.6011 7.704 87.6038 7.45333 87.6038 7.288L88.0518 7.52C87.6518 7.57333 87.2171 7.62667 86.7478 7.68C86.2838 7.73333 85.8251 7.79467 85.3718 7.864C84.9238 7.93333 84.5184 8.016 84.1558 8.112C83.9104 8.18133 83.6731 8.28 83.4438 8.408C83.2144 8.53067 83.0251 8.696 82.8758 8.904C82.7318 9.112 82.6598 9.37067 82.6598 9.68C82.6598 9.93067 82.7211 10.1733 82.8438 10.408C82.9718 10.6427 83.1744 10.8373 83.4518 10.992C83.7344 11.1467 84.1078 11.224 84.5718 11.224ZM90.8544 12V3.36H91.9104V5.44L91.7024 5.168C91.7984 4.912 91.9237 4.67733 92.0784 4.464C92.233 4.24533 92.401 4.06667 92.5824 3.928C92.8064 3.73067 93.0677 3.58133 93.3664 3.48C93.665 3.37333 93.9664 3.312 94.2704 3.296C94.5744 3.27467 94.8517 3.296 95.1024 3.36V4.464C94.7877 4.384 94.4437 4.36533 94.0704 4.408C93.697 4.45067 93.353 4.6 93.0384 4.856C92.7504 5.08 92.5344 5.34933 92.3904 5.664C92.2464 5.97333 92.1504 6.304 92.1024 6.656C92.0544 7.00267 92.0304 7.34667 92.0304 7.688V12H90.8544ZM100.12 12.24C99.2771 12.24 98.5464 12.0533 97.9278 11.68C97.3144 11.3067 96.8371 10.7813 96.4958 10.104C96.1544 9.42667 95.9838 8.632 95.9838 7.72C95.9838 6.776 96.1518 5.96 96.4878 5.272C96.8238 4.584 97.2958 4.05333 97.9038 3.68C98.5171 3.30667 99.2398 3.12 100.072 3.12C100.925 3.12 101.653 3.31733 102.256 3.712C102.858 4.10133 103.314 4.66133 103.624 5.392C103.933 6.12267 104.074 6.99467 104.048 8.008H102.848V7.592C102.826 6.472 102.584 5.62667 102.12 5.056C101.661 4.48533 100.989 4.2 100.104 4.2C99.1758 4.2 98.4638 4.50133 97.9678 5.104C97.4771 5.70667 97.2318 6.56533 97.2318 7.68C97.2318 8.768 97.4771 9.61333 97.9678 10.216C98.4638 10.8133 99.1651 11.112 100.072 11.112C100.69 11.112 101.229 10.9707 101.688 10.688C102.152 10.4 102.517 9.98667 102.784 9.448L103.88 9.872C103.538 10.624 103.034 11.208 102.368 11.624C101.706 12.0347 100.957 12.24 100.12 12.24ZM96.8158 8.008V7.024H103.416V8.008H96.8158ZM112.61 12.24C111.741 12.24 111.005 12.0453 110.402 11.656C109.8 11.2667 109.341 10.7307 109.026 10.048C108.717 9.36 108.557 8.57067 108.546 7.68C108.557 6.77333 108.722 5.97867 109.042 5.296C109.362 4.608 109.824 4.07467 110.426 3.696C111.029 3.312 111.76 3.12 112.618 3.12C113.493 3.12 114.253 3.33333 114.898 3.76C115.549 4.18667 115.994 4.77067 116.234 5.512L115.082 5.88C114.88 5.36267 114.557 4.96267 114.114 4.68C113.677 4.392 113.176 4.248 112.61 4.248C111.976 4.248 111.45 4.39467 111.034 4.688C110.618 4.976 110.309 5.37867 110.106 5.896C109.904 6.41333 109.8 7.008 109.794 7.68C109.805 8.71467 110.045 9.54667 110.514 10.176C110.984 10.8 111.682 11.112 112.61 11.112C113.197 11.112 113.696 10.9787 114.106 10.712C114.522 10.44 114.837 10.0453 115.05 9.528L116.234 9.88C115.914 10.648 115.445 11.2347 114.826 11.64C114.208 12.04 113.469 12.24 112.61 12.24ZM121.259 12.24C120.401 12.24 119.667 12.0453 119.059 11.656C118.451 11.2667 117.985 10.728 117.659 10.04C117.334 9.352 117.171 8.56267 117.171 7.672C117.171 6.76533 117.337 5.97067 117.667 5.288C117.998 4.60533 118.467 4.07467 119.075 3.696C119.689 3.312 120.417 3.12 121.259 3.12C122.123 3.12 122.859 3.31467 123.467 3.704C124.081 4.088 124.547 4.624 124.867 5.312C125.193 5.99467 125.355 6.78133 125.355 7.672C125.355 8.57867 125.193 9.376 124.867 10.064C124.542 10.7467 124.073 11.28 123.459 11.664C122.846 12.048 122.113 12.24 121.259 12.24ZM121.259 11.112C122.219 11.112 122.934 10.7947 123.403 10.16C123.873 9.52 124.107 8.69067 124.107 7.672C124.107 6.62667 123.87 5.79467 123.395 5.176C122.926 4.55733 122.214 4.248 121.259 4.248C120.614 4.248 120.081 4.39467 119.659 4.688C119.243 4.976 118.931 5.37867 118.723 5.896C118.521 6.408 118.419 7 118.419 7.672C118.419 8.712 118.659 9.54667 119.139 10.176C119.619 10.8 120.326 11.112 121.259 11.112ZM133.36 12V7.592C133.36 7.112 133.315 6.672 133.224 6.272C133.133 5.86667 132.987 5.51467 132.784 5.216C132.587 4.912 132.328 4.67733 132.008 4.512C131.693 4.34667 131.309 4.264 130.856 4.264C130.44 4.264 130.072 4.336 129.752 4.48C129.437 4.624 129.171 4.832 128.952 5.104C128.739 5.37067 128.576 5.696 128.464 6.08C128.352 6.464 128.296 6.90133 128.296 7.392L127.464 7.208C127.464 6.32267 127.619 5.57867 127.928 4.976C128.237 4.37333 128.664 3.91733 129.208 3.608C129.752 3.29867 130.376 3.144 131.08 3.144C131.597 3.144 132.048 3.224 132.432 3.384C132.821 3.544 133.149 3.76 133.416 4.032C133.688 4.304 133.907 4.616 134.072 4.968C134.237 5.31467 134.357 5.68533 134.432 6.08C134.507 6.46933 134.544 6.85867 134.544 7.248V12H133.36ZM127.112 12V3.36H128.176V5.488H128.296V12H127.112ZM139.844 12.232C138.831 12.232 137.996 12.0133 137.34 11.576C136.689 11.1387 136.289 10.5307 136.14 9.752L137.34 9.552C137.468 10.0427 137.759 10.4347 138.212 10.728C138.671 11.016 139.236 11.16 139.908 11.16C140.564 11.16 141.081 11.024 141.46 10.752C141.839 10.4747 142.028 10.0987 142.028 9.624C142.028 9.35733 141.967 9.14133 141.844 8.976C141.727 8.80533 141.484 8.648 141.116 8.504C140.748 8.36 140.199 8.18933 139.468 7.992C138.684 7.77867 138.071 7.56533 137.628 7.352C137.185 7.13867 136.871 6.89333 136.684 6.616C136.497 6.33333 136.404 5.98933 136.404 5.584C136.404 5.09333 136.543 4.664 136.82 4.296C137.097 3.92267 137.481 3.63467 137.972 3.432C138.463 3.224 139.033 3.12 139.684 3.12C140.335 3.12 140.916 3.22667 141.428 3.44C141.945 3.648 142.361 3.94133 142.676 4.32C142.991 4.69867 143.177 5.13867 143.236 5.64L142.036 5.856C141.956 5.34933 141.703 4.94933 141.276 4.656C140.855 4.35733 140.319 4.20267 139.668 4.192C139.055 4.176 138.556 4.29333 138.172 4.544C137.788 4.78933 137.596 5.11733 137.596 5.528C137.596 5.75733 137.665 5.95467 137.804 6.12C137.943 6.28 138.193 6.432 138.556 6.576C138.924 6.72 139.447 6.87733 140.124 7.048C140.919 7.25067 141.543 7.464 141.996 7.688C142.449 7.912 142.772 8.176 142.964 8.48C143.156 8.784 143.252 9.16 143.252 9.608C143.252 10.424 142.948 11.0667 142.34 11.536C141.737 12 140.905 12.232 139.844 12.232ZM149.73 12C149.245 12.1013 148.765 12.1413 148.29 12.12C147.821 12.0987 147.4 11.9973 147.026 11.816C146.658 11.6347 146.378 11.352 146.186 10.968C146.032 10.648 145.946 10.3253 145.93 10C145.92 9.66933 145.914 9.29333 145.914 8.872V0.959999H147.082V8.824C147.082 9.18667 147.085 9.49067 147.09 9.736C147.101 9.976 147.157 10.1893 147.258 10.376C147.45 10.7333 147.754 10.9467 148.17 11.016C148.592 11.0853 149.112 11.0693 149.73 10.968V12ZM144.066 4.368V3.36H149.73V4.368H144.066ZM151.433 12V3.36H152.489V5.44L152.281 5.168C152.377 4.912 152.502 4.67733 152.657 4.464C152.811 4.24533 152.979 4.06667 153.161 3.928C153.385 3.73067 153.646 3.58133 153.945 3.48C154.243 3.37333 154.545 3.312 154.849 3.296C155.153 3.27467 155.43 3.296 155.681 3.36V4.464C155.366 4.384 155.022 4.36533 154.649 4.408C154.275 4.45067 153.931 4.6 153.617 4.856C153.329 5.08 153.113 5.34933 152.969 5.664C152.825 5.97333 152.729 6.304 152.681 6.656C152.633 7.00267 152.609 7.34667 152.609 7.688V12H151.433ZM160.502 12.216C159.985 12.216 159.531 12.136 159.142 11.976C158.758 11.816 158.43 11.6 158.158 11.328C157.891 11.056 157.675 10.7467 157.51 10.4C157.345 10.048 157.225 9.67733 157.15 9.288C157.075 8.89333 157.038 8.50133 157.038 8.112V3.36H158.222V7.768C158.222 8.24267 158.267 8.68267 158.358 9.088C158.449 9.49333 158.593 9.848 158.79 10.152C158.993 10.4507 159.251 10.6827 159.566 10.848C159.886 11.0133 160.273 11.096 160.726 11.096C161.142 11.096 161.507 11.024 161.822 10.88C162.142 10.736 162.409 10.5307 162.622 10.264C162.841 9.992 163.006 9.664 163.118 9.28C163.23 8.89067 163.286 8.45333 163.286 7.968L164.118 8.152C164.118 9.03733 163.963 9.78133 163.654 10.384C163.345 10.9867 162.918 11.4427 162.374 11.752C161.83 12.0613 161.206 12.216 160.502 12.216ZM163.406 12V9.872H163.286V3.36H164.462V12H163.406ZM170.282 12.24C169.413 12.24 168.677 12.0453 168.074 11.656C167.471 11.2667 167.013 10.7307 166.698 10.048C166.389 9.36 166.229 8.57067 166.218 7.68C166.229 6.77333 166.394 5.97867 166.714 5.296C167.034 4.608 167.495 4.07467 168.098 3.696C168.701 3.312 169.431 3.12 170.29 3.12C171.165 3.12 171.925 3.33333 172.57 3.76C173.221 4.18667 173.666 4.77067 173.906 5.512L172.754 5.88C172.551 5.36267 172.229 4.96267 171.786 4.68C171.349 4.392 170.847 4.248 170.282 4.248C169.647 4.248 169.122 4.39467 168.706 4.688C168.29 4.976 167.981 5.37867 167.778 5.896C167.575 6.41333 167.471 7.008 167.466 7.68C167.477 8.71467 167.717 9.54667 168.186 10.176C168.655 10.8 169.354 11.112 170.282 11.112C170.869 11.112 171.367 10.9787 171.778 10.712C172.194 10.44 172.509 10.0453 172.722 9.528L173.906 9.88C173.586 10.648 173.117 11.2347 172.498 11.64C171.879 12.04 171.141 12.24 170.282 12.24ZM180.262 12C179.776 12.1013 179.296 12.1413 178.822 12.12C178.352 12.0987 177.931 11.9973 177.558 11.816C177.19 11.6347 176.91 11.352 176.718 10.968C176.563 10.648 176.478 10.3253 176.462 10C176.451 9.66933 176.446 9.29333 176.446 8.872V0.959999H177.614V8.824C177.614 9.18667 177.616 9.49067 177.622 9.736C177.632 9.976 177.688 10.1893 177.79 10.376C177.982 10.7333 178.286 10.9467 178.702 11.016C179.123 11.0853 179.643 11.0693 180.262 10.968V12ZM174.598 4.368V3.36H180.262V4.368H174.598ZM185.307 12.24C184.465 12.24 183.734 12.0533 183.115 11.68C182.502 11.3067 182.025 10.7813 181.683 10.104C181.342 9.42667 181.171 8.632 181.171 7.72C181.171 6.776 181.339 5.96 181.675 5.272C182.011 4.584 182.483 4.05333 183.091 3.68C183.705 3.30667 184.427 3.12 185.259 3.12C186.113 3.12 186.841 3.31733 187.443 3.712C188.046 4.10133 188.502 4.66133 188.811 5.392C189.121 6.12267 189.262 6.99467 189.235 8.008H188.035V7.592C188.014 6.472 187.771 5.62667 187.307 5.056C186.849 4.48533 186.177 4.2 185.291 4.2C184.363 4.2 183.651 4.50133 183.155 5.104C182.665 5.70667 182.419 6.56533 182.419 7.68C182.419 8.768 182.665 9.61333 183.155 10.216C183.651 10.8133 184.353 11.112 185.259 11.112C185.878 11.112 186.417 10.9707 186.875 10.688C187.339 10.4 187.705 9.98667 187.971 9.448L189.067 9.872C188.726 10.624 188.222 11.208 187.555 11.624C186.894 12.0347 186.145 12.24 185.307 12.24ZM182.003 8.008V7.024H188.603V8.008H182.003ZM194.363 12.24C193.557 12.24 192.869 12.04 192.299 11.64C191.728 11.2347 191.291 10.688 190.987 10C190.683 9.312 190.531 8.536 190.531 7.672C190.531 6.81333 190.68 6.04 190.979 5.352C191.283 4.664 191.717 4.12 192.283 3.72C192.848 3.32 193.525 3.12 194.315 3.12C195.125 3.12 195.808 3.31733 196.363 3.712C196.917 4.10667 197.336 4.648 197.619 5.336C197.907 6.01867 198.051 6.79733 198.051 7.672C198.051 8.53067 197.909 9.30667 197.627 10C197.344 10.688 196.928 11.2347 196.379 11.64C195.829 12.04 195.157 12.24 194.363 12.24ZM194.483 11.144C195.096 11.144 195.603 10.9947 196.003 10.696C196.403 10.3973 196.701 9.98667 196.899 9.464C197.096 8.936 197.195 8.33867 197.195 7.672C197.195 6.99467 197.096 6.39733 196.899 5.88C196.701 5.35733 196.403 4.94933 196.003 4.656C195.608 4.36267 195.109 4.216 194.507 4.216C193.888 4.216 193.376 4.368 192.971 4.672C192.565 4.976 192.264 5.38933 192.067 5.912C191.875 6.43467 191.779 7.02133 191.779 7.672C191.779 8.328 191.877 8.92 192.075 9.448C192.277 9.97067 192.579 10.384 192.979 10.688C193.379 10.992 193.88 11.144 194.483 11.144ZM197.195 12V5.496H197.067V0.48H198.251V12H197.195ZM4.424 36.216C3.90667 36.216 3.45333 36.136 3.064 35.976C2.68 35.816 2.352 35.6 2.08 35.328C1.81333 35.056 1.59733 34.7467 1.432 34.4C1.26667 34.048 1.14667 33.6773 1.072 33.288C0.997333 32.8933 0.96 32.5013 0.96 32.112V27.36H2.144V31.768C2.144 32.2427 2.18933 32.6827 2.28 33.088C2.37067 33.4933 2.51467 33.848 2.712 34.152C2.91467 34.4507 3.17333 34.6827 3.488 34.848C3.808 35.0133 4.19467 35.096 4.648 35.096C5.064 35.096 5.42933 35.024 5.744 34.88C6.064 34.736 6.33067 34.5307 6.544 34.264C6.76267 33.992 6.928 33.664 7.04 33.28C7.152 32.8907 7.208 32.4533 7.208 31.968L8.04 32.152C8.04 33.0373 7.88533 33.7813 7.576 34.384C7.26667 34.9867 6.84 35.4427 6.296 35.752C5.752 36.0613 5.128 36.216 4.424 36.216ZM7.328 36V33.872H7.208V27.36H8.384V36H7.328ZM13.844 36.232C12.8307 36.232 11.996 36.0133 11.34 35.576C10.6893 35.1387 10.2893 34.5307 10.14 33.752L11.34 33.552C11.468 34.0427 11.7587 34.4347 12.212 34.728C12.6707 35.016 13.236 35.16 13.908 35.16C14.564 35.16 15.0813 35.024 15.46 34.752C15.8387 34.4747 16.028 34.0987 16.028 33.624C16.028 33.3573 15.9667 33.1413 15.844 32.976C15.7267 32.8053 15.484 32.648 15.116 32.504C14.748 32.36 14.1987 32.1893 13.468 31.992C12.684 31.7787 12.0707 31.5653 11.628 31.352C11.1853 31.1387 10.8707 30.8933 10.684 30.616C10.4973 30.3333 10.404 29.9893 10.404 29.584C10.404 29.0933 10.5427 28.664 10.82 28.296C11.0973 27.9227 11.4813 27.6347 11.972 27.432C12.4627 27.224 13.0333 27.12 13.684 27.12C14.3347 27.12 14.916 27.2267 15.428 27.44C15.9453 27.648 16.3613 27.9413 16.676 28.32C16.9907 28.6987 17.1773 29.1387 17.236 29.64L16.036 29.856C15.956 29.3493 15.7027 28.9493 15.276 28.656C14.8547 28.3573 14.3187 28.2027 13.668 28.192C13.0547 28.176 12.556 28.2933 12.172 28.544C11.788 28.7893 11.596 29.1173 11.596 29.528C11.596 29.7573 11.6653 29.9547 11.804 30.12C11.9427 30.28 12.1933 30.432 12.556 30.576C12.924 30.72 13.4467 30.8773 14.124 31.048C14.9187 31.2507 15.5427 31.464 15.996 31.688C16.4493 31.912 16.772 32.176 16.964 32.48C17.156 32.784 17.252 33.16 17.252 33.608C17.252 34.424 16.948 35.0667 16.34 35.536C15.7373 36 14.9053 36.232 13.844 36.232ZM19.1863 25.72V24.4H20.3623V25.72H19.1863ZM19.1863 36V27.36H20.3623V36H19.1863ZM29.0006 36V31.592C29.0006 31.112 28.9553 30.672 28.8646 30.272C28.774 29.8667 28.6273 29.5147 28.4246 29.216C28.2273 28.912 27.9686 28.6773 27.6486 28.512C27.334 28.3467 26.95 28.264 26.4966 28.264C26.0806 28.264 25.7126 28.336 25.3926 28.48C25.078 28.624 24.8113 28.832 24.5926 29.104C24.3793 29.3707 24.2166 29.696 24.1046 30.08C23.9926 30.464 23.9366 30.9013 23.9366 31.392L23.1046 31.208C23.1046 30.3227 23.2593 29.5787 23.5686 28.976C23.878 28.3733 24.3046 27.9173 24.8486 27.608C25.3926 27.2987 26.0166 27.144 26.7206 27.144C27.238 27.144 27.6886 27.224 28.0726 27.384C28.462 27.544 28.79 27.76 29.0566 28.032C29.3286 28.304 29.5473 28.616 29.7126 28.968C29.878 29.3147 29.998 29.6853 30.0726 30.08C30.1473 30.4693 30.1846 30.8587 30.1846 31.248V36H29.0006ZM22.7526 36V27.36H23.8166V29.488H23.9366V36H22.7526ZM35.6926 40.08C35.25 40.08 34.8126 40.0133 34.3806 39.88C33.954 39.752 33.5593 39.5467 33.1966 39.264C32.834 38.9867 32.53 38.624 32.2846 38.176L33.3486 37.584C33.5886 38.064 33.9246 38.408 34.3566 38.616C34.794 38.8293 35.2393 38.936 35.6926 38.936C36.3166 38.936 36.8206 38.8187 37.2046 38.584C37.594 38.3547 37.8766 38.0133 38.0526 37.56C38.2286 37.1067 38.314 36.5413 38.3086 35.864V33.56H38.4446V27.36H39.4926V35.88C39.4926 36.1253 39.4846 36.36 39.4686 36.584C39.458 36.8133 39.434 37.0373 39.3966 37.256C39.2953 37.9013 39.0846 38.432 38.7646 38.848C38.45 39.264 38.034 39.5733 37.5166 39.776C37.0046 39.9787 36.3966 40.08 35.6926 40.08ZM35.6126 36.24C34.8073 36.24 34.1193 36.04 33.5486 35.64C32.978 35.2347 32.5406 34.688 32.2366 34C31.9326 33.312 31.7806 32.536 31.7806 31.672C31.7806 30.8133 31.93 30.04 32.2286 29.352C32.5326 28.664 32.9673 28.12 33.5326 27.72C34.098 27.32 34.7753 27.12 35.5646 27.12C36.3753 27.12 37.058 27.3173 37.6126 27.712C38.1673 28.1067 38.586 28.648 38.8686 29.336C39.1566 30.0187 39.3006 30.7973 39.3006 31.672C39.3006 32.5307 39.1593 33.3067 38.8766 34C38.594 34.688 38.178 35.2347 37.6286 35.64C37.0793 36.04 36.4073 36.24 35.6126 36.24ZM35.7326 35.144C36.346 35.144 36.8526 34.9947 37.2526 34.696C37.6526 34.3973 37.9513 33.9867 38.1486 33.464C38.346 32.936 38.4446 32.3387 38.4446 31.672C38.4446 30.9947 38.346 30.3973 38.1486 29.88C37.9513 29.3573 37.6526 28.9493 37.2526 28.656C36.858 28.3627 36.3593 28.216 35.7566 28.216C35.138 28.216 34.626 28.368 34.2206 28.672C33.8153 28.976 33.514 29.3893 33.3166 29.912C33.1246 30.4347 33.0286 31.0213 33.0286 31.672C33.0286 32.328 33.1273 32.92 33.3246 33.448C33.5273 33.9707 33.8286 34.384 34.2286 34.688C34.6286 34.992 35.13 35.144 35.7326 35.144ZM44.9325 36V27.36H45.9885V29.44L45.7805 29.168C45.8765 28.912 46.0018 28.6773 46.1565 28.464C46.3112 28.2453 46.4792 28.0667 46.6605 27.928C46.8845 27.7307 47.1458 27.5813 47.4445 27.48C47.7432 27.3733 48.0445 27.312 48.3485 27.296C48.6525 27.2747 48.9298 27.296 49.1805 27.36V28.464C48.8658 28.384 48.5218 28.3653 48.1485 28.408C47.7752 28.4507 47.4312 28.6 47.1165 28.856C46.8285 29.08 46.6125 29.3493 46.4685 29.664C46.3245 29.9733 46.2285 30.304 46.1805 30.656C46.1325 31.0027 46.1085 31.3467 46.1085 31.688V36H44.9325ZM54.1979 36.24C53.3552 36.24 52.6245 36.0533 52.0059 35.68C51.3925 35.3067 50.9152 34.7813 50.5739 34.104C50.2325 33.4267 50.0619 32.632 50.0619 31.72C50.0619 30.776 50.2299 29.96 50.5659 29.272C50.9019 28.584 51.3739 28.0533 51.9819 27.68C52.5952 27.3067 53.3179 27.12 54.1499 27.12C55.0032 27.12 55.7312 27.3173 56.3339 27.712C56.9365 28.1013 57.3925 28.6613 57.7019 29.392C58.0112 30.1227 58.1525 30.9947 58.1259 32.008H56.9259V31.592C56.9045 30.472 56.6619 29.6267 56.1979 29.056C55.7392 28.4853 55.0672 28.2 54.1819 28.2C53.2539 28.2 52.5419 28.5013 52.0459 29.104C51.5552 29.7067 51.3099 30.5653 51.3099 31.68C51.3099 32.768 51.5552 33.6133 52.0459 34.216C52.5419 34.8133 53.2432 35.112 54.1499 35.112C54.7685 35.112 55.3072 34.9707 55.7659 34.688C56.2299 34.4 56.5952 33.9867 56.8619 33.448L57.9579 33.872C57.6165 34.624 57.1125 35.208 56.4459 35.624C55.7845 36.0347 55.0352 36.24 54.1979 36.24ZM50.8939 32.008V31.024H57.4939V32.008H50.8939ZM63.4852 36.24C62.6159 36.24 61.8799 36.0453 61.2773 35.656C60.6746 35.2667 60.2159 34.7307 59.9013 34.048C59.5919 33.36 59.4319 32.5707 59.4213 31.68C59.4319 30.7733 59.5973 29.9787 59.9173 29.296C60.2373 28.608 60.6986 28.0747 61.3013 27.696C61.9039 27.312 62.6346 27.12 63.4933 27.12C64.3679 27.12 65.1279 27.3333 65.7733 27.76C66.4239 28.1867 66.8693 28.7707 67.1093 29.512L65.9573 29.88C65.7546 29.3627 65.4319 28.9627 64.9893 28.68C64.5519 28.392 64.0506 28.248 63.4852 28.248C62.8506 28.248 62.3253 28.3947 61.9093 28.688C61.4933 28.976 61.1839 29.3787 60.9813 29.896C60.7786 30.4133 60.6746 31.008 60.6693 31.68C60.6799 32.7147 60.9199 33.5467 61.3893 34.176C61.8586 34.8 62.5573 35.112 63.4852 35.112C64.0719 35.112 64.5706 34.9787 64.9813 34.712C65.3973 34.44 65.7119 34.0453 65.9253 33.528L67.1093 33.88C66.7893 34.648 66.3199 35.2347 65.7013 35.64C65.0826 36.04 64.3439 36.24 63.4852 36.24ZM69.6801 39.84L71.3521 35.304L71.3761 36.648L67.5921 27.36H68.8401L71.9441 35.128H71.4321L74.2961 27.36H75.4961L70.8561 39.84H69.6801ZM80.1571 36.24C79.2878 36.24 78.5518 36.0453 77.9491 35.656C77.3465 35.2667 76.8878 34.7307 76.5731 34.048C76.2638 33.36 76.1038 32.5707 76.0931 31.68C76.1038 30.7733 76.2691 29.9787 76.5891 29.296C76.9091 28.608 77.3705 28.0747 77.9731 27.696C78.5758 27.312 79.3065 27.12 80.1651 27.12C81.0398 27.12 81.7998 27.3333 82.4451 27.76C83.0958 28.1867 83.5411 28.7707 83.7811 29.512L82.6291 29.88C82.4265 29.3627 82.1038 28.9627 81.6611 28.68C81.2238 28.392 80.7225 28.248 80.1571 28.248C79.5225 28.248 78.9971 28.3947 78.5811 28.688C78.1651 28.976 77.8558 29.3787 77.6531 29.896C77.4505 30.4133 77.3465 31.008 77.3411 31.68C77.3518 32.7147 77.5918 33.5467 78.0611 34.176C78.5305 34.8 79.2291 35.112 80.1571 35.112C80.7438 35.112 81.2425 34.9787 81.6531 34.712C82.0691 34.44 82.3838 34.0453 82.5971 33.528L83.7811 33.88C83.4611 34.648 82.9918 35.2347 82.3731 35.64C81.7545 36.04 81.0158 36.24 80.1571 36.24ZM85.5925 36V24.24H86.7685V36H85.5925ZM92.8229 36.24C91.9802 36.24 91.2495 36.0533 90.6309 35.68C90.0175 35.3067 89.5402 34.7813 89.1989 34.104C88.8575 33.4267 88.6869 32.632 88.6869 31.72C88.6869 30.776 88.8549 29.96 89.1909 29.272C89.5269 28.584 89.9989 28.0533 90.6069 27.68C91.2202 27.3067 91.9429 27.12 92.7749 27.12C93.6282 27.12 94.3562 27.3173 94.9589 27.712C95.5615 28.1013 96.0175 28.6613 96.3269 29.392C96.6362 30.1227 96.7775 30.9947 96.7509 32.008H95.5509V31.592C95.5295 30.472 95.2869 29.6267 94.8229 29.056C94.3642 28.4853 93.6922 28.2 92.8069 28.2C91.8789 28.2 91.1669 28.5013 90.6709 29.104C90.1802 29.7067 89.9349 30.5653 89.9349 31.68C89.9349 32.768 90.1802 33.6133 90.6709 34.216C91.1669 34.8133 91.8682 35.112 92.7749 35.112C93.3935 35.112 93.9322 34.9707 94.3909 34.688C94.8549 34.4 95.2202 33.9867 95.4869 33.448L96.5829 33.872C96.2415 34.624 95.7375 35.208 95.0709 35.624C94.4095 36.0347 93.6602 36.24 92.8229 36.24ZM89.5189 32.008V31.024H96.1189V32.008H89.5189ZM101.878 36.24C101.073 36.24 100.385 36.04 99.8143 35.64C99.2436 35.2347 98.8063 34.688 98.5023 34C98.1983 33.312 98.0463 32.536 98.0463 31.672C98.0463 30.8133 98.1956 30.04 98.4943 29.352C98.7983 28.664 99.2329 28.12 99.7983 27.72C100.364 27.32 101.041 27.12 101.83 27.12C102.641 27.12 103.324 27.3173 103.878 27.712C104.433 28.1067 104.852 28.648 105.134 29.336C105.422 30.0187 105.566 30.7973 105.566 31.672C105.566 32.5307 105.425 33.3067 105.142 34C104.86 34.688 104.444 35.2347 103.894 35.64C103.345 36.04 102.673 36.24 101.878 36.24ZM101.998 35.144C102.612 35.144 103.118 34.9947 103.518 34.696C103.918 34.3973 104.217 33.9867 104.414 33.464C104.612 32.936 104.71 32.3387 104.71 31.672C104.71 30.9947 104.612 30.3973 104.414 29.88C104.217 29.3573 103.918 28.9493 103.518 28.656C103.124 28.3627 102.625 28.216 102.022 28.216C101.404 28.216 100.892 28.368 100.486 28.672C100.081 28.976 99.7796 29.3893 99.5823 29.912C99.3903 30.4347 99.2943 31.0213 99.2943 31.672C99.2943 32.328 99.3929 32.92 99.5903 33.448C99.7929 33.9707 100.094 34.384 100.494 34.688C100.894 34.992 101.396 35.144 101.998 35.144ZM104.71 36V29.496H104.582V24.48H105.766V36H104.71ZM5 60.24C4.20533 60.24 3.53333 60.04 2.984 59.64C2.43467 59.2347 2.01867 58.688 1.736 58C1.45333 57.3067 1.312 56.5307 1.312 55.672C1.312 54.7973 1.45333 54.0187 1.736 53.336C2.024 52.648 2.44533 52.1067 3 51.712C3.55467 51.3173 4.23733 51.12 5.048 51.12C5.83733 51.12 6.51467 51.32 7.08 51.72C7.64533 52.12 8.07733 52.664 8.376 53.352C8.68 54.04 8.832 54.8133 8.832 55.672C8.832 56.536 8.68 57.312 8.376 58C8.072 58.688 7.63467 59.2347 7.064 59.64C6.49333 60.04 5.80533 60.24 5 60.24ZM1.112 63.84V51.36H2.168V57.864H2.296V63.84H1.112ZM4.88 59.144C5.48267 59.144 5.984 58.992 6.384 58.688C6.784 58.384 7.08267 57.9707 7.28 57.448C7.48267 56.92 7.584 56.328 7.584 55.672C7.584 55.0213 7.48533 54.4347 7.288 53.912C7.09067 53.3893 6.78933 52.976 6.384 52.672C5.984 52.368 5.47467 52.216 4.856 52.216C4.25333 52.216 3.752 52.3627 3.352 52.656C2.95733 52.9493 2.66133 53.3573 2.464 53.88C2.26667 54.3973 2.168 54.9947 2.168 55.672C2.168 56.3387 2.26667 56.936 2.464 57.464C2.66133 57.9867 2.96 58.3973 3.36 58.696C3.76 58.9947 4.26667 59.144 4.88 59.144ZM14.1968 60.24C13.3381 60.24 12.6048 60.0453 11.9968 59.656C11.3888 59.2667 10.9221 58.728 10.5968 58.04C10.2714 57.352 10.1088 56.5627 10.1088 55.672C10.1088 54.7653 10.2741 53.9707 10.6048 53.288C10.9354 52.6053 11.4048 52.0747 12.0128 51.696C12.6261 51.312 13.3541 51.12 14.1968 51.12C15.0608 51.12 15.7968 51.3147 16.4048 51.704C17.0181 52.088 17.4848 52.624 17.8048 53.312C18.1301 53.9947 18.2928 54.7813 18.2928 55.672C18.2928 56.5787 18.1301 57.376 17.8048 58.064C17.4794 58.7467 17.0101 59.28 16.3968 59.664C15.7834 60.048 15.0501 60.24 14.1968 60.24ZM14.1968 59.112C15.1568 59.112 15.8714 58.7947 16.3408 58.16C16.8101 57.52 17.0448 56.6907 17.0448 55.672C17.0448 54.6267 16.8074 53.7947 16.3328 53.176C15.8634 52.5573 15.1514 52.248 14.1968 52.248C13.5514 52.248 13.0181 52.3947 12.5968 52.688C12.1808 52.976 11.8688 53.3787 11.6608 53.896C11.4581 54.408 11.3568 55 11.3568 55.672C11.3568 56.712 11.5968 57.5467 12.0768 58.176C12.5568 58.8 13.2634 59.112 14.1968 59.112ZM20.2175 60V48.24H21.3935V60H20.2175ZM25.0239 63.84L26.6959 59.304L26.7199 60.648L22.9359 51.36H24.1839L27.2879 59.128H26.7759L29.6399 51.36H30.8399L26.1999 63.84H25.0239ZM36.1094 60.24C35.3147 60.24 34.6427 60.04 34.0934 59.64C33.544 59.2347 33.128 58.688 32.8454 58C32.5627 57.3067 32.4214 56.5307 32.4214 55.672C32.4214 54.7973 32.5627 54.0187 32.8454 53.336C33.1334 52.648 33.5547 52.1067 34.1094 51.712C34.664 51.3173 35.3467 51.12 36.1574 51.12C36.9467 51.12 37.624 51.32 38.1894 51.72C38.7547 52.12 39.1867 52.664 39.4854 53.352C39.7894 54.04 39.9414 54.8133 39.9414 55.672C39.9414 56.536 39.7894 57.312 39.4854 58C39.1814 58.688 38.744 59.2347 38.1734 59.64C37.6027 60.04 36.9147 60.24 36.1094 60.24ZM32.2214 63.84V51.36H33.2774V57.864H33.4054V63.84H32.2214ZM35.9894 59.144C36.592 59.144 37.0934 58.992 37.4934 58.688C37.8934 58.384 38.192 57.9707 38.3894 57.448C38.592 56.92 38.6934 56.328 38.6934 55.672C38.6934 55.0213 38.5947 54.4347 38.3974 53.912C38.2 53.3893 37.8987 52.976 37.4934 52.672C37.0934 52.368 36.584 52.216 35.9654 52.216C35.3627 52.216 34.8614 52.3627 34.4614 52.656C34.0667 52.9493 33.7707 53.3573 33.5734 53.88C33.376 54.3973 33.2774 54.9947 33.2774 55.672C33.2774 56.3387 33.376 56.936 33.5734 57.464C33.7707 57.9867 34.0694 58.3973 34.4694 58.696C34.8694 58.9947 35.376 59.144 35.9894 59.144ZM41.6981 60V51.36H42.7541V53.44L42.5461 53.168C42.6421 52.912 42.7675 52.6773 42.9221 52.464C43.0768 52.2453 43.2448 52.0667 43.4261 51.928C43.6501 51.7307 43.9115 51.5813 44.2101 51.48C44.5088 51.3733 44.8101 51.312 45.1141 51.296C45.4181 51.2747 45.6955 51.296 45.9461 51.36V52.464C45.6315 52.384 45.2875 52.3653 44.9141 52.408C44.5408 52.4507 44.1968 52.6 43.8821 52.856C43.5941 53.08 43.3781 53.3493 43.2341 53.664C43.0901 53.9733 42.9941 54.304 42.9461 54.656C42.8981 55.0027 42.8741 55.3467 42.8741 55.688V60H41.6981ZM50.9155 60.24C50.0568 60.24 49.3235 60.0453 48.7155 59.656C48.1075 59.2667 47.6408 58.728 47.3155 58.04C46.9902 57.352 46.8275 56.5627 46.8275 55.672C46.8275 54.7653 46.9928 53.9707 47.3235 53.288C47.6542 52.6053 48.1235 52.0747 48.7315 51.696C49.3448 51.312 50.0728 51.12 50.9155 51.12C51.7795 51.12 52.5155 51.3147 53.1235 51.704C53.7368 52.088 54.2035 52.624 54.5235 53.312C54.8488 53.9947 55.0115 54.7813 55.0115 55.672C55.0115 56.5787 54.8488 57.376 54.5235 58.064C54.1982 58.7467 53.7288 59.28 53.1155 59.664C52.5022 60.048 51.7688 60.24 50.9155 60.24ZM50.9155 59.112C51.8755 59.112 52.5902 58.7947 53.0595 58.16C53.5288 57.52 53.7635 56.6907 53.7635 55.672C53.7635 54.6267 53.5262 53.7947 53.0515 53.176C52.5822 52.5573 51.8702 52.248 50.9155 52.248C50.2702 52.248 49.7368 52.3947 49.3155 52.688C48.8995 52.976 48.5875 53.3787 48.3795 53.896C48.1768 54.408 48.0755 55 48.0755 55.672C48.0755 56.712 48.3155 57.5467 48.7955 58.176C49.2755 58.8 49.9822 59.112 50.9155 59.112ZM60.6562 60.24C59.8616 60.24 59.1896 60.04 58.6403 59.64C58.0909 59.2347 57.6749 58.688 57.3923 58C57.1096 57.3067 56.9683 56.5307 56.9683 55.672C56.9683 54.7973 57.1096 54.0187 57.3923 53.336C57.6803 52.648 58.1016 52.1067 58.6563 51.712C59.2109 51.3173 59.8936 51.12 60.7043 51.12C61.4936 51.12 62.1709 51.32 62.7363 51.72C63.3016 52.12 63.7336 52.664 64.0323 53.352C64.3363 54.04 64.4883 54.8133 64.4883 55.672C64.4883 56.536 64.3363 57.312 64.0323 58C63.7283 58.688 63.2909 59.2347 62.7203 59.64C62.1496 60.04 61.4616 60.24 60.6562 60.24ZM56.7683 63.84V51.36H57.8243V57.864H57.9523V63.84H56.7683ZM60.5363 59.144C61.1389 59.144 61.6403 58.992 62.0403 58.688C62.4403 58.384 62.7389 57.9707 62.9363 57.448C63.1389 56.92 63.2403 56.328 63.2403 55.672C63.2403 55.0213 63.1416 54.4347 62.9443 53.912C62.7469 53.3893 62.4456 52.976 62.0403 52.672C61.6403 52.368 61.1309 52.216 60.5123 52.216C59.9096 52.216 59.4083 52.3627 59.0083 52.656C58.6136 52.9493 58.3176 53.3573 58.1203 53.88C57.9229 54.3973 57.8243 54.9947 57.8243 55.672C57.8243 56.3387 57.9229 56.936 58.1203 57.464C58.3176 57.9867 58.6163 58.3973 59.0163 58.696C59.4163 58.9947 59.9229 59.144 60.5363 59.144ZM67.1645 63.84L68.8365 59.304L68.8605 60.648L65.0765 51.36H66.3245L69.4285 59.128H68.9165L71.7805 51.36H72.9805L68.3405 63.84H67.1645ZM74.53 60V48.24H75.706V60H74.53ZM81.7604 60.24C80.9177 60.24 80.187 60.0533 79.5684 59.68C78.955 59.3067 78.4777 58.7813 78.1364 58.104C77.795 57.4267 77.6244 56.632 77.6244 55.72C77.6244 54.776 77.7924 53.96 78.1284 53.272C78.4644 52.584 78.9364 52.0533 79.5444 51.68C80.1577 51.3067 80.8804 51.12 81.7124 51.12C82.5657 51.12 83.2937 51.3173 83.8964 51.712C84.499 52.1013 84.955 52.6613 85.2644 53.392C85.5737 54.1227 85.715 54.9947 85.6884 56.008H84.4884V55.592C84.467 54.472 84.2244 53.6267 83.7604 53.056C83.3017 52.4853 82.6297 52.2 81.7444 52.2C80.8164 52.2 80.1044 52.5013 79.6084 53.104C79.1177 53.7067 78.8724 54.5653 78.8724 55.68C78.8724 56.768 79.1177 57.6133 79.6084 58.216C80.1044 58.8133 80.8057 59.112 81.7124 59.112C82.331 59.112 82.8697 58.9707 83.3284 58.688C83.7924 58.4 84.1577 57.9867 84.4244 57.448L85.5204 57.872C85.179 58.624 84.675 59.208 84.0084 59.624C83.347 60.0347 82.5977 60.24 81.7604 60.24ZM78.4564 56.008V55.024H85.0564V56.008H78.4564ZM93.4694 60V55.592C93.4694 55.112 93.424 54.672 93.3334 54.272C93.2427 53.8667 93.096 53.5147 92.8934 53.216C92.696 52.912 92.4374 52.6773 92.1174 52.512C91.8027 52.3467 91.4187 52.264 90.9654 52.264C90.5494 52.264 90.1814 52.336 89.8614 52.48C89.5467 52.624 89.28 52.832 89.0614 53.104C88.848 53.3707 88.6854 53.696 88.5734 54.08C88.4614 54.464 88.4054 54.9013 88.4054 55.392L87.5734 55.208C87.5734 54.3227 87.728 53.5787 88.0374 52.976C88.3467 52.3733 88.7734 51.9173 89.3174 51.608C89.8614 51.2987 90.4854 51.144 91.1894 51.144C91.7067 51.144 92.1574 51.224 92.5414 51.384C92.9307 51.544 93.2587 51.76 93.5254 52.032C93.7974 52.304 94.016 52.616 94.1814 52.968C94.3467 53.3147 94.4667 53.6853 94.5414 54.08C94.616 54.4693 94.6534 54.8587 94.6534 55.248V60H93.4694ZM87.2214 60V51.36H88.2854V53.488H88.4054V60H87.2214ZM100.323 60.24C99.4802 60.24 98.7495 60.0533 98.1309 59.68C97.5175 59.3067 97.0402 58.7813 96.6989 58.104C96.3575 57.4267 96.1869 56.632 96.1869 55.72C96.1869 54.776 96.3549 53.96 96.6909 53.272C97.0269 52.584 97.4989 52.0533 98.1069 51.68C98.7202 51.3067 99.4429 51.12 100.275 51.12C101.128 51.12 101.856 51.3173 102.459 51.712C103.062 52.1013 103.518 52.6613 103.827 53.392C104.136 54.1227 104.278 54.9947 104.251 56.008H103.051V55.592C103.03 54.472 102.787 53.6267 102.323 53.056C101.864 52.4853 101.192 52.2 100.307 52.2C99.3789 52.2 98.6669 52.5013 98.1709 53.104C97.6802 53.7067 97.4349 54.5653 97.4349 55.68C97.4349 56.768 97.6802 57.6133 98.1709 58.216C98.6669 58.8133 99.3682 59.112 100.275 59.112C100.894 59.112 101.432 58.9707 101.891 58.688C102.355 58.4 102.72 57.9867 102.987 57.448L104.083 57.872C103.742 58.624 103.238 59.208 102.571 59.624C101.91 60.0347 101.16 60.24 100.323 60.24ZM97.0189 56.008V55.024H103.619V56.008H97.0189ZM111.069 60L108.429 51.352L109.605 51.36L111.653 58.072L113.709 51.36H114.781L116.837 58.072L118.901 51.36H120.069L117.429 60H116.405L114.245 53.12L112.093 60H111.069ZM127.751 60V55.592C127.751 55.112 127.705 54.672 127.615 54.272C127.524 53.8667 127.377 53.5147 127.175 53.216C126.977 52.912 126.719 52.6773 126.399 52.512C126.084 52.3467 125.7 52.264 125.247 52.264C124.831 52.264 124.463 52.336 124.143 52.48C123.828 52.624 123.561 52.832 123.343 53.104C123.129 53.3707 122.967 53.696 122.855 54.08C122.743 54.464 122.687 54.9013 122.687 55.392L121.855 55.208C121.855 54.3227 122.009 53.5787 122.319 52.976C122.628 52.3733 123.055 51.9173 123.599 51.608C124.143 51.2987 124.767 51.144 125.471 51.144C125.988 51.144 126.439 51.224 126.823 51.384C127.212 51.544 127.54 51.76 127.807 52.032C128.079 52.304 128.297 52.616 128.463 52.968C128.628 53.3147 128.748 53.6853 128.823 54.08C128.897 54.4693 128.935 54.8587 128.935 55.248V60H127.751ZM121.503 60V48.48H122.567V54.984H122.687V60H121.503ZM131.171 49.72V48.4H132.347V49.72H131.171ZM131.171 60V51.36H132.347V60H131.171ZM138.329 60.24C137.46 60.24 136.724 60.0453 136.121 59.656C135.518 59.2667 135.06 58.7307 134.745 58.048C134.436 57.36 134.276 56.5707 134.265 55.68C134.276 54.7733 134.441 53.9787 134.761 53.296C135.081 52.608 135.542 52.0747 136.145 51.696C136.748 51.312 137.478 51.12 138.337 51.12C139.212 51.12 139.972 51.3333 140.617 51.76C141.268 52.1867 141.713 52.7707 141.953 53.512L140.801 53.88C140.598 53.3627 140.276 52.9627 139.833 52.68C139.396 52.392 138.894 52.248 138.329 52.248C137.694 52.248 137.169 52.3947 136.753 52.688C136.337 52.976 136.028 53.3787 135.825 53.896C135.622 54.4133 135.518 55.008 135.513 55.68C135.524 56.7147 135.764 57.5467 136.233 58.176C136.702 58.8 137.401 59.112 138.329 59.112C138.916 59.112 139.414 58.9787 139.825 58.712C140.241 58.44 140.556 58.0453 140.769 57.528L141.953 57.88C141.633 58.648 141.164 59.2347 140.545 59.64C139.926 60.04 139.188 60.24 138.329 60.24ZM149.844 60V55.592C149.844 55.112 149.799 54.672 149.708 54.272C149.618 53.8667 149.471 53.5147 149.268 53.216C149.071 52.912 148.812 52.6773 148.492 52.512C148.178 52.3467 147.794 52.264 147.34 52.264C146.924 52.264 146.556 52.336 146.236 52.48C145.922 52.624 145.655 52.832 145.436 53.104C145.223 53.3707 145.06 53.696 144.948 54.08C144.836 54.464 144.78 54.9013 144.78 55.392L143.948 55.208C143.948 54.3227 144.103 53.5787 144.412 52.976C144.722 52.3733 145.148 51.9173 145.692 51.608C146.236 51.2987 146.86 51.144 147.564 51.144C148.082 51.144 148.532 51.224 148.916 51.384C149.306 51.544 149.634 51.76 149.9 52.032C150.172 52.304 150.391 52.616 150.556 52.968C150.722 53.3147 150.842 53.6853 150.916 54.08C150.991 54.4693 151.028 54.8587 151.028 55.248V60H149.844ZM143.596 60V48.48H144.66V54.984H144.78V60H143.596ZM159.891 60.24C159.022 60.24 158.286 60.0453 157.684 59.656C157.081 59.2667 156.622 58.7307 156.308 58.048C155.998 57.36 155.838 56.5707 155.828 55.68C155.838 54.7733 156.004 53.9787 156.324 53.296C156.644 52.608 157.105 52.0747 157.708 51.696C158.31 51.312 159.041 51.12 159.9 51.12C160.774 51.12 161.534 51.3333 162.18 51.76C162.83 52.1867 163.276 52.7707 163.516 53.512L162.364 53.88C162.161 53.3627 161.838 52.9627 161.396 52.68C160.958 52.392 160.457 52.248 159.891 52.248C159.257 52.248 158.732 52.3947 158.316 52.688C157.9 52.976 157.59 53.3787 157.388 53.896C157.185 54.4133 157.081 55.008 157.076 55.68C157.086 56.7147 157.326 57.5467 157.796 58.176C158.265 58.8 158.964 59.112 159.891 59.112C160.478 59.112 160.977 58.9787 161.388 58.712C161.804 58.44 162.118 58.0453 162.332 57.528L163.516 57.88C163.196 58.648 162.726 59.2347 162.108 59.64C161.489 60.04 160.75 60.24 159.891 60.24ZM167.576 60.24C166.926 60.24 166.379 60.1227 165.936 59.888C165.499 59.6533 165.171 59.3413 164.952 58.952C164.734 58.5627 164.624 58.1387 164.624 57.68C164.624 57.2107 164.718 56.8107 164.904 56.48C165.096 56.144 165.355 55.8693 165.68 55.656C166.011 55.4427 166.392 55.28 166.824 55.168C167.262 55.0613 167.744 54.968 168.272 54.888C168.806 54.8027 169.326 54.7307 169.832 54.672C170.344 54.608 170.792 54.5467 171.176 54.488L170.76 54.744C170.776 53.8907 170.611 53.2587 170.264 52.848C169.918 52.4373 169.315 52.232 168.456 52.232C167.864 52.232 167.363 52.3653 166.952 52.632C166.547 52.8987 166.262 53.32 166.096 53.896L164.952 53.56C165.15 52.7867 165.547 52.1867 166.144 51.76C166.742 51.3333 167.518 51.12 168.472 51.12C169.262 51.12 169.931 51.2693 170.48 51.568C171.035 51.8613 171.427 52.288 171.656 52.848C171.763 53.0987 171.832 53.3787 171.864 53.688C171.896 53.9973 171.912 54.312 171.912 54.632V60H170.864V57.832L171.168 57.96C170.875 58.7013 170.419 59.2667 169.8 59.656C169.182 60.0453 168.44 60.24 167.576 60.24ZM167.712 59.224C168.262 59.224 168.742 59.1253 169.152 58.928C169.563 58.7307 169.894 58.4613 170.144 58.12C170.395 57.7733 170.558 57.384 170.632 56.952C170.696 56.6747 170.731 56.3707 170.736 56.04C170.742 55.704 170.744 55.4533 170.744 55.288L171.192 55.52C170.792 55.5733 170.358 55.6267 169.888 55.68C169.424 55.7333 168.966 55.7947 168.512 55.864C168.064 55.9333 167.659 56.016 167.296 56.112C167.051 56.1813 166.814 56.28 166.584 56.408C166.355 56.5307 166.166 56.696 166.016 56.904C165.872 57.112 165.8 57.3707 165.8 57.68C165.8 57.9307 165.862 58.1733 165.984 58.408C166.112 58.6427 166.315 58.8373 166.592 58.992C166.875 59.1467 167.248 59.224 167.712 59.224ZM180.235 60V55.592C180.235 55.112 180.19 54.672 180.099 54.272C180.008 53.8667 179.862 53.5147 179.659 53.216C179.462 52.912 179.203 52.6773 178.883 52.512C178.568 52.3467 178.184 52.264 177.731 52.264C177.315 52.264 176.947 52.336 176.627 52.48C176.312 52.624 176.046 52.832 175.827 53.104C175.614 53.3707 175.451 53.696 175.339 54.08C175.227 54.464 175.171 54.9013 175.171 55.392L174.339 55.208C174.339 54.3227 174.494 53.5787 174.803 52.976C175.112 52.3733 175.539 51.9173 176.083 51.608C176.627 51.2987 177.251 51.144 177.955 51.144C178.472 51.144 178.923 51.224 179.307 51.384C179.696 51.544 180.024 51.76 180.291 52.032C180.563 52.304 180.782 52.616 180.947 52.968C181.112 53.3147 181.232 53.6853 181.307 54.08C181.382 54.4693 181.419 54.8587 181.419 55.248V60H180.235ZM173.987 60V51.36H175.051V53.488H175.171V60H173.987ZM190.578 60.24C189.783 60.24 189.111 60.04 188.562 59.64C188.013 59.2347 187.597 58.688 187.314 58C187.031 57.3067 186.89 56.5307 186.89 55.672C186.89 54.7973 187.031 54.0187 187.314 53.336C187.602 52.648 188.023 52.1067 188.578 51.712C189.133 51.3173 189.815 51.12 190.626 51.12C191.415 51.12 192.093 51.32 192.658 51.72C193.223 52.12 193.655 52.664 193.954 53.352C194.258 54.04 194.41 54.8133 194.41 55.672C194.41 56.536 194.258 57.312 193.954 58C193.65 58.688 193.213 59.2347 192.642 59.64C192.071 60.04 191.383 60.24 190.578 60.24ZM186.69 60V48.48H187.874V53.496H187.746V60H186.69ZM190.458 59.144C191.061 59.144 191.562 58.992 191.962 58.688C192.362 58.384 192.661 57.9707 192.858 57.448C193.061 56.92 193.162 56.328 193.162 55.672C193.162 55.0213 193.063 54.4347 192.866 53.912C192.669 53.3893 192.367 52.976 191.962 52.672C191.562 52.368 191.053 52.216 190.434 52.216C189.831 52.216 189.33 52.3627 188.93 52.656C188.535 52.9493 188.239 53.3573 188.042 53.88C187.845 54.3973 187.746 54.9947 187.746 55.672C187.746 56.3387 187.845 56.936 188.042 57.464C188.239 57.9867 188.538 58.3973 188.938 58.696C189.338 58.9947 189.845 59.144 190.458 59.144ZM199.823 60.24C198.98 60.24 198.25 60.0533 197.631 59.68C197.018 59.3067 196.54 58.7813 196.199 58.104C195.858 57.4267 195.687 56.632 195.687 55.72C195.687 54.776 195.855 53.96 196.191 53.272C196.527 52.584 196.999 52.0533 197.607 51.68C198.22 51.3067 198.943 51.12 199.775 51.12C200.628 51.12 201.356 51.3173 201.959 51.712C202.562 52.1013 203.018 52.6613 203.327 53.392C203.636 54.1227 203.778 54.9947 203.751 56.008H202.551V55.592C202.53 54.472 202.287 53.6267 201.823 53.056C201.364 52.4853 200.692 52.2 199.807 52.2C198.879 52.2 198.167 52.5013 197.671 53.104C197.18 53.7067 196.935 54.5653 196.935 55.68C196.935 56.768 197.18 57.6133 197.671 58.216C198.167 58.8133 198.868 59.112 199.775 59.112C200.394 59.112 200.932 58.9707 201.391 58.688C201.855 58.4 202.22 57.9867 202.487 57.448L203.583 57.872C203.242 58.624 202.738 59.208 202.071 59.624C201.41 60.0347 200.66 60.24 199.823 60.24ZM196.519 56.008V55.024H203.119V56.008H196.519ZM1.976 84V74.72C1.976 74.496 1.98667 74.2747 2.008 74.056C2.03467 73.8373 2.08533 73.6293 2.16 73.432C2.23467 73.2293 2.352 73.0427 2.512 72.872C2.688 72.68 2.88 72.5413 3.088 72.456C3.296 72.3653 3.512 72.3067 3.736 72.28C3.96533 72.2533 4.18933 72.24 4.408 72.24H5.512V73.232H4.488C4.04 73.232 3.704 73.3413 3.48 73.56C3.26133 73.7787 3.152 74.1227 3.152 74.592V84H1.976ZM0.48 76.368V75.36H5.512V76.368H0.48ZM10.0959 84.216C9.57854 84.216 9.12521 84.136 8.73588 83.976C8.35188 83.816 8.02388 83.6 7.75188 83.328C7.48521 83.056 7.26921 82.7467 7.10388 82.4C6.93854 82.048 6.81854 81.6773 6.74388 81.288C6.66921 80.8933 6.63188 80.5013 6.63188 80.112V75.36H7.81588V79.768C7.81588 80.2427 7.86121 80.6827 7.95188 81.088C8.04254 81.4933 8.18654 81.848 8.38388 82.152C8.58654 82.4507 8.84521 82.6827 9.15988 82.848C9.47988 83.0133 9.86654 83.096 10.3199 83.096C10.7359 83.096 11.1012 83.024 11.4159 82.88C11.7359 82.736 12.0025 82.5307 12.2159 82.264C12.4345 81.992 12.5999 81.664 12.7119 81.28C12.8239 80.8907 12.8799 80.4533 12.8799 79.968L13.7119 80.152C13.7119 81.0373 13.5572 81.7813 13.2479 82.384C12.9385 82.9867 12.5119 83.4427 11.9679 83.752C11.4239 84.0613 10.7999 84.216 10.0959 84.216ZM12.9999 84V81.872H12.8799V75.36H14.0559V84H12.9999ZM16.4519 84V72.24H17.6279V84H16.4519ZM20.1863 84V72.24H21.3623V84H20.1863ZM24.9926 87.84L26.6646 83.304L26.6886 84.648L22.9046 75.36H24.1526L27.2566 83.128H26.7446L29.6086 75.36H30.8086L26.1686 87.84H24.9926ZM35.4013 84V75.36H36.4573V77.44L36.2493 77.168C36.3453 76.912 36.4706 76.6773 36.6253 76.464C36.7799 76.2453 36.9479 76.0667 37.1293 75.928C37.3533 75.7307 37.6146 75.5813 37.9133 75.48C38.2119 75.3733 38.5133 75.312 38.8173 75.296C39.1213 75.2747 39.3986 75.296 39.6493 75.36V76.464C39.3346 76.384 38.9906 76.3653 38.6173 76.408C38.2439 76.4507 37.8999 76.6 37.5853 76.856C37.2973 77.08 37.0813 77.3493 36.9373 77.664C36.7933 77.9733 36.6973 78.304 36.6493 78.656C36.6013 79.0027 36.5773 79.3467 36.5773 79.688V84H35.4013ZM44.6666 84.24C43.824 84.24 43.0933 84.0533 42.4746 83.68C41.8613 83.3067 41.384 82.7813 41.0426 82.104C40.7013 81.4267 40.5306 80.632 40.5306 79.72C40.5306 78.776 40.6986 77.96 41.0346 77.272C41.3706 76.584 41.8426 76.0533 42.4506 75.68C43.064 75.3067 43.7866 75.12 44.6186 75.12C45.472 75.12 46.2 75.3173 46.8026 75.712C47.4053 76.1013 47.8613 76.6613 48.1706 77.392C48.48 78.1227 48.6213 78.9947 48.5946 80.008H47.3946V79.592C47.3733 78.472 47.1306 77.6267 46.6666 77.056C46.208 76.4853 45.536 76.2 44.6506 76.2C43.7226 76.2 43.0106 76.5013 42.5146 77.104C42.024 77.7067 41.7786 78.5653 41.7786 79.68C41.7786 80.768 42.024 81.6133 42.5146 82.216C43.0106 82.8133 43.712 83.112 44.6186 83.112C45.2373 83.112 45.776 82.9707 46.2346 82.688C46.6986 82.4 47.064 81.9867 47.3306 81.448L48.4266 81.872C48.0853 82.624 47.5813 83.208 46.9146 83.624C46.2533 84.0347 45.504 84.24 44.6666 84.24ZM41.3626 80.008V79.024H47.9626V80.008H41.3626ZM53.954 84.24C53.0847 84.24 52.3487 84.0453 51.746 83.656C51.1433 83.2667 50.6847 82.7307 50.37 82.048C50.0607 81.36 49.9007 80.5707 49.89 79.68C49.9007 78.7733 50.066 77.9787 50.386 77.296C50.706 76.608 51.1673 76.0747 51.77 75.696C52.3727 75.312 53.1033 75.12 53.962 75.12C54.8367 75.12 55.5967 75.3333 56.242 75.76C56.8927 76.1867 57.338 76.7707 57.578 77.512L56.426 77.88C56.2233 77.3627 55.9007 76.9627 55.458 76.68C55.0207 76.392 54.5193 76.248 53.954 76.248C53.3193 76.248 52.794 76.3947 52.378 76.688C51.962 76.976 51.6527 77.3787 51.45 77.896C51.2473 78.4133 51.1433 79.008 51.138 79.68C51.1487 80.7147 51.3887 81.5467 51.858 82.176C52.3273 82.8 53.026 83.112 53.954 83.112C54.5407 83.112 55.0393 82.9787 55.45 82.712C55.866 82.44 56.1807 82.0453 56.394 81.528L57.578 81.88C57.258 82.648 56.7887 83.2347 56.17 83.64C55.5513 84.04 54.8127 84.24 53.954 84.24ZM60.1489 87.84L61.8209 83.304L61.8449 84.648L58.0609 75.36H59.3089L62.4129 83.128H61.9009L64.7649 75.36H65.9649L61.3249 87.84H60.1489ZM70.6259 84.24C69.7565 84.24 69.0205 84.0453 68.4179 83.656C67.8152 83.2667 67.3565 82.7307 67.0419 82.048C66.7325 81.36 66.5725 80.5707 66.5619 79.68C66.5725 78.7733 66.7379 77.9787 67.0579 77.296C67.3779 76.608 67.8392 76.0747 68.4419 75.696C69.0445 75.312 69.7752 75.12 70.6339 75.12C71.5085 75.12 72.2685 75.3333 72.9139 75.76C73.5645 76.1867 74.0099 76.7707 74.2499 77.512L73.0979 77.88C72.8952 77.3627 72.5725 76.9627 72.1299 76.68C71.6925 76.392 71.1912 76.248 70.6259 76.248C69.9912 76.248 69.4659 76.3947 69.0499 76.688C68.6339 76.976 68.3245 77.3787 68.1219 77.896C67.9192 78.4133 67.8152 79.008 67.8099 79.68C67.8205 80.7147 68.0605 81.5467 68.5299 82.176C68.9992 82.8 69.6979 83.112 70.6259 83.112C71.2125 83.112 71.7112 82.9787 72.1219 82.712C72.5379 82.44 72.8525 82.0453 73.0659 81.528L74.2499 81.88C73.9299 82.648 73.4605 83.2347 72.8419 83.64C72.2232 84.04 71.4845 84.24 70.6259 84.24ZM76.0613 84V72.24H77.2373V84H76.0613ZM83.2916 84.24C82.449 84.24 81.7183 84.0533 81.0996 83.68C80.4863 83.3067 80.009 82.7813 79.6676 82.104C79.3263 81.4267 79.1556 80.632 79.1556 79.72C79.1556 78.776 79.3236 77.96 79.6596 77.272C79.9956 76.584 80.4676 76.0533 81.0756 75.68C81.689 75.3067 82.4116 75.12 83.2436 75.12C84.097 75.12 84.825 75.3173 85.4276 75.712C86.0303 76.1013 86.4863 76.6613 86.7956 77.392C87.105 78.1227 87.2463 78.9947 87.2196 80.008H86.0196V79.592C85.9983 78.472 85.7556 77.6267 85.2916 77.056C84.833 76.4853 84.161 76.2 83.2756 76.2C82.3476 76.2 81.6356 76.5013 81.1396 77.104C80.649 77.7067 80.4036 78.5653 80.4036 79.68C80.4036 80.768 80.649 81.6133 81.1396 82.216C81.6356 82.8133 82.337 83.112 83.2436 83.112C83.8623 83.112 84.401 82.9707 84.8596 82.688C85.3236 82.4 85.689 81.9867 85.9556 81.448L87.0516 81.872C86.7103 82.624 86.2063 83.208 85.5396 83.624C84.8783 84.0347 84.129 84.24 83.2916 84.24ZM79.9876 80.008V79.024H86.5876V80.008H79.9876ZM92.347 84.24C91.5417 84.24 90.8537 84.04 90.283 83.64C89.7123 83.2347 89.275 82.688 88.971 82C88.667 81.312 88.515 80.536 88.515 79.672C88.515 78.8133 88.6643 78.04 88.963 77.352C89.267 76.664 89.7017 76.12 90.267 75.72C90.8323 75.32 91.5097 75.12 92.299 75.12C93.1097 75.12 93.7923 75.3173 94.347 75.712C94.9017 76.1067 95.3203 76.648 95.603 77.336C95.891 78.0187 96.035 78.7973 96.035 79.672C96.035 80.5307 95.8937 81.3067 95.611 82C95.3283 82.688 94.9123 83.2347 94.363 83.64C93.8137 84.04 93.1417 84.24 92.347 84.24ZM92.467 83.144C93.0803 83.144 93.587 82.9947 93.987 82.696C94.387 82.3973 94.6857 81.9867 94.883 81.464C95.0803 80.936 95.179 80.3387 95.179 79.672C95.179 78.9947 95.0803 78.3973 94.883 77.88C94.6857 77.3573 94.387 76.9493 93.987 76.656C93.5923 76.3627 93.0937 76.216 92.491 76.216C91.8723 76.216 91.3603 76.368 90.955 76.672C90.5497 76.976 90.2483 77.3893 90.051 77.912C89.859 78.4347 89.763 79.0213 89.763 79.672C89.763 80.328 89.8617 80.92 90.059 81.448C90.2617 81.9707 90.563 82.384 90.963 82.688C91.363 82.992 91.8643 83.144 92.467 83.144ZM95.179 84V77.496H95.051V72.48H96.235V84H95.179ZM98.7034 84V82.632H100.071V84H98.7034Z" fill="#F8F8F8"/>
</svg>
