<svg width="205" height="133" viewBox="0 0 205 133" fill="none" xmlns="http://www.w3.org/2000/svg">
<path d="M5.12 12.24C4.31467 12.24 3.58933 12.1067 2.944 11.84C2.304 11.568 1.77333 11.184 1.352 10.688C0.936 10.192 0.664 9.60267 0.536 8.92L1.736 8.72C1.928 9.46667 2.33333 10.0533 2.952 10.48C3.57067 10.9013 4.30933 11.112 5.168 11.112C5.73333 11.112 6.24 11.024 6.688 10.848C7.136 10.6667 7.488 10.4107 7.744 10.08C8 9.74933 8.128 9.35733 8.128 8.904C8.128 8.60533 8.07467 8.352 7.968 8.144C7.86133 7.93067 7.72 7.75467 7.544 7.616C7.368 7.47733 7.176 7.36267 6.968 7.272C6.76 7.176 6.55733 7.09867 6.36 7.04L3.44 6.168C3.088 6.06667 2.76267 5.93867 2.464 5.784C2.16533 5.624 1.904 5.43467 1.68 5.216C1.46133 4.992 1.29067 4.73067 1.168 4.432C1.04533 4.13333 0.984 3.792 0.984 3.408C0.984 2.75733 1.15467 2.19467 1.496 1.72C1.83733 1.24533 2.304 0.879999 2.896 0.624C3.488 0.368 4.16267 0.242666 4.92 0.247999C5.688 0.247999 6.37333 0.383999 6.976 0.655999C7.584 0.927999 8.08533 1.31733 8.48 1.824C8.87467 2.32533 9.136 2.92 9.264 3.608L8.032 3.832C7.952 3.33067 7.768 2.896 7.48 2.528C7.192 2.16 6.824 1.87733 6.376 1.68C5.93333 1.47733 5.44533 1.37333 4.912 1.368C4.39467 1.368 3.93333 1.456 3.528 1.632C3.128 1.80267 2.81067 2.03733 2.576 2.336C2.34133 2.63467 2.224 2.976 2.224 3.36C2.224 3.74933 2.33067 4.06133 2.544 4.296C2.76267 4.53067 3.02933 4.71467 3.344 4.848C3.664 4.98133 3.97333 5.09067 4.272 5.176L6.528 5.84C6.76267 5.904 7.03733 5.99733 7.352 6.12C7.672 6.23733 7.98133 6.408 8.28 6.632C8.584 6.85067 8.83467 7.13867 9.032 7.496C9.22933 7.85333 9.328 8.30667 9.328 8.856C9.328 9.38933 9.22133 9.86667 9.008 10.288C8.8 10.7093 8.504 11.064 8.12 11.352C7.74133 11.64 7.296 11.8587 6.784 12.008C6.27733 12.1627 5.72267 12.24 5.12 12.24ZM17.2194 12V7.592C17.2194 7.112 17.174 6.672 17.0834 6.272C16.9927 5.86667 16.846 5.51467 16.6434 5.216C16.446 4.912 16.1874 4.67733 15.8674 4.512C15.5527 4.34667 15.1687 4.264 14.7154 4.264C14.2994 4.264 13.9314 4.336 13.6114 4.48C13.2967 4.624 13.03 4.832 12.8114 5.104C12.598 5.37067 12.4354 5.696 12.3234 6.08C12.2114 6.464 12.1554 6.90133 12.1554 7.392L11.3234 7.208C11.3234 6.32267 11.478 5.57867 11.7874 4.976C12.0967 4.37333 12.5234 3.91733 13.0674 3.608C13.6114 3.29867 14.2354 3.144 14.9394 3.144C15.4567 3.144 15.9074 3.224 16.2914 3.384C16.6807 3.544 17.0087 3.76 17.2754 4.032C17.5474 4.304 17.766 4.616 17.9314 4.968C18.0967 5.31467 18.2167 5.68533 18.2914 6.08C18.366 6.46933 18.4034 6.85867 18.4034 7.248V12H17.2194ZM10.9714 12V0.48H12.0354V6.984H12.1554V12H10.9714ZM20.6394 1.72V0.4H21.8154V1.72H20.6394ZM20.6394 12V3.36H21.8154V12H20.6394ZM28.0938 12.24C27.2991 12.24 26.6271 12.04 26.0778 11.64C25.5284 11.2347 25.1124 10.688 24.8298 10C24.5471 9.30667 24.4058 8.53067 24.4058 7.672C24.4058 6.79733 24.5471 6.01867 24.8298 5.336C25.1178 4.648 25.5391 4.10667 26.0938 3.712C26.6484 3.31733 27.3311 3.12 28.1418 3.12C28.9311 3.12 29.6084 3.32 30.1738 3.72C30.7391 4.12 31.1711 4.664 31.4698 5.352C31.7738 6.04 31.9258 6.81333 31.9258 7.672C31.9258 8.536 31.7738 9.312 31.4698 10C31.1658 10.688 30.7284 11.2347 30.1578 11.64C29.5871 12.04 28.8991 12.24 28.0938 12.24ZM24.2058 15.84V3.36H25.2618V9.864H25.3898V15.84H24.2058ZM27.9738 11.144C28.5764 11.144 29.0778 10.992 29.4778 10.688C29.8778 10.384 30.1764 9.97067 30.3738 9.448C30.5764 8.92 30.6778 8.328 30.6778 7.672C30.6778 7.02133 30.5791 6.43467 30.3818 5.912C30.1844 5.38933 29.8831 4.976 29.4778 4.672C29.0778 4.368 28.5684 4.216 27.9498 4.216C27.3471 4.216 26.8458 4.36267 26.4458 4.656C26.0511 4.94933 25.7551 5.35733 25.5578 5.88C25.3604 6.39733 25.2618 6.99467 25.2618 7.672C25.2618 8.33867 25.3604 8.936 25.5578 9.464C25.7551 9.98667 26.0538 10.3973 26.4538 10.696C26.8538 10.9947 27.3604 11.144 27.9738 11.144ZM37.5625 12.24C36.7678 12.24 36.0958 12.04 35.5465 11.64C34.9972 11.2347 34.5812 10.688 34.2985 10C34.0158 9.30667 33.8745 8.53067 33.8745 7.672C33.8745 6.79733 34.0158 6.01867 34.2985 5.336C34.5865 4.648 35.0078 4.10667 35.5625 3.712C36.1172 3.31733 36.7998 3.12 37.6105 3.12C38.3998 3.12 39.0772 3.32 39.6425 3.72C40.2078 4.12 40.6398 4.664 40.9385 5.352C41.2425 6.04 41.3945 6.81333 41.3945 7.672C41.3945 8.536 41.2425 9.312 40.9385 10C40.6345 10.688 40.1972 11.2347 39.6265 11.64C39.0558 12.04 38.3678 12.24 37.5625 12.24ZM33.6745 15.84V3.36H34.7305V9.864H34.8585V15.84H33.6745ZM37.4425 11.144C38.0452 11.144 38.5465 10.992 38.9465 10.688C39.3465 10.384 39.6452 9.97067 39.8425 9.448C40.0452 8.92 40.1465 8.328 40.1465 7.672C40.1465 7.02133 40.0478 6.43467 39.8505 5.912C39.6532 5.38933 39.3518 4.976 38.9465 4.672C38.5465 4.368 38.0372 4.216 37.4185 4.216C36.8158 4.216 36.3145 4.36267 35.9145 4.656C35.5198 4.94933 35.2238 5.35733 35.0265 5.88C34.8292 6.39733 34.7305 6.99467 34.7305 7.672C34.7305 8.33867 34.8292 8.936 35.0265 9.464C35.2238 9.98667 35.5225 10.3973 35.9225 10.696C36.3225 10.9947 36.8292 11.144 37.4425 11.144ZM46.8073 12.24C45.9646 12.24 45.2339 12.0533 44.6153 11.68C44.0019 11.3067 43.5246 10.7813 43.1833 10.104C42.8419 9.42667 42.6713 8.632 42.6713 7.72C42.6713 6.776 42.8393 5.96 43.1753 5.272C43.5113 4.584 43.9833 4.05333 44.5913 3.68C45.2046 3.30667 45.9273 3.12 46.7593 3.12C47.6126 3.12 48.3406 3.31733 48.9433 3.712C49.5459 4.10133 50.0019 4.66133 50.3113 5.392C50.6206 6.12267 50.7619 6.99467 50.7353 8.008H49.5353V7.592C49.5139 6.472 49.2713 5.62667 48.8073 5.056C48.3486 4.48533 47.6766 4.2 46.7913 4.2C45.8633 4.2 45.1513 4.50133 44.6553 5.104C44.1646 5.70667 43.9193 6.56533 43.9193 7.68C43.9193 8.768 44.1646 9.61333 44.6553 10.216C45.1513 10.8133 45.8526 11.112 46.7593 11.112C47.3779 11.112 47.9166 10.9707 48.3753 10.688C48.8393 10.4 49.2046 9.98667 49.4713 9.448L50.5673 9.872C50.2259 10.624 49.7219 11.208 49.0553 11.624C48.3939 12.0347 47.6446 12.24 46.8073 12.24ZM43.5033 8.008V7.024H50.1033V8.008H43.5033ZM55.8626 12.24C55.0573 12.24 54.3693 12.04 53.7986 11.64C53.228 11.2347 52.7906 10.688 52.4866 10C52.1826 9.312 52.0306 8.536 52.0306 7.672C52.0306 6.81333 52.18 6.04 52.4786 5.352C52.7826 4.664 53.2173 4.12 53.7826 3.72C54.348 3.32 55.0253 3.12 55.8146 3.12C56.6253 3.12 57.308 3.31733 57.8626 3.712C58.4173 4.10667 58.836 4.648 59.1186 5.336C59.4066 6.01867 59.5506 6.79733 59.5506 7.672C59.5506 8.53067 59.4093 9.30667 59.1266 10C58.844 10.688 58.428 11.2347 57.8786 11.64C57.3293 12.04 56.6573 12.24 55.8626 12.24ZM55.9826 11.144C56.596 11.144 57.1026 10.9947 57.5026 10.696C57.9026 10.3973 58.2013 9.98667 58.3986 9.464C58.596 8.936 58.6946 8.33867 58.6946 7.672C58.6946 6.99467 58.596 6.39733 58.3986 5.88C58.2013 5.35733 57.9026 4.94933 57.5026 4.656C57.108 4.36267 56.6093 4.216 56.0066 4.216C55.388 4.216 54.876 4.368 54.4706 4.672C54.0653 4.976 53.764 5.38933 53.5666 5.912C53.3746 6.43467 53.2786 7.02133 53.2786 7.672C53.2786 8.328 53.3773 8.92 53.5746 9.448C53.7773 9.97067 54.0786 10.384 54.4786 10.688C54.8786 10.992 55.38 11.144 55.9826 11.144ZM58.6946 12V5.496H58.5666V0.48H59.7506V12H58.6946ZM69.3501 4.368V3.36H71.7501V4.368H69.3501ZM66.0541 12V2.72C66.0541 2.496 66.0648 2.27467 66.0861 2.056C66.1128 1.83733 66.1635 1.62933 66.2381 1.432C66.3128 1.22933 66.4301 1.04267 66.5901 0.872C66.7661 0.68 66.9581 0.541333 67.1661 0.455999C67.3741 0.365333 67.5901 0.306666 67.8141 0.28C68.0435 0.253333 68.2675 0.24 68.4861 0.24H69.5901V1.232H68.5661C68.1181 1.232 67.7821 1.34133 67.5581 1.56C67.3395 1.77867 67.2301 2.12267 67.2301 2.592V12H66.0541ZM64.5581 4.368V3.36H69.5901V4.368H64.5581ZM71.6141 12V0.24H72.7901V12H71.6141ZM77.6545 12.24C77.0038 12.24 76.4572 12.1227 76.0145 11.888C75.5772 11.6533 75.2492 11.3413 75.0305 10.952C74.8118 10.5627 74.7025 10.1387 74.7025 9.68C74.7025 9.21067 74.7958 8.81067 74.9825 8.48C75.1745 8.144 75.4332 7.86933 75.7585 7.656C76.0892 7.44267 76.4705 7.28 76.9025 7.168C77.3398 7.06133 77.8225 6.968 78.3505 6.888C78.8838 6.80267 79.4038 6.73067 79.9105 6.672C80.4225 6.608 80.8705 6.54667 81.2545 6.488L80.8385 6.744C80.8545 5.89067 80.6892 5.25867 80.3425 4.848C79.9958 4.43733 79.3932 4.232 78.5345 4.232C77.9425 4.232 77.4412 4.36533 77.0305 4.632C76.6252 4.89867 76.3398 5.32 76.1745 5.896L75.0305 5.56C75.2278 4.78667 75.6252 4.18667 76.2225 3.76C76.8198 3.33333 77.5958 3.12 78.5505 3.12C79.3398 3.12 80.0092 3.26933 80.5585 3.568C81.1132 3.86133 81.5052 4.288 81.7345 4.848C81.8412 5.09867 81.9105 5.37867 81.9425 5.688C81.9745 5.99733 81.9905 6.312 81.9905 6.632V12H80.9425V9.832L81.2465 9.96C80.9532 10.7013 80.4972 11.2667 79.8785 11.656C79.2598 12.0453 78.5185 12.24 77.6545 12.24ZM77.7905 11.224C78.3398 11.224 78.8198 11.1253 79.2305 10.928C79.6412 10.7307 79.9718 10.4613 80.2225 10.12C80.4732 9.77333 80.6358 9.384 80.7105 8.952C80.7745 8.67467 80.8092 8.37067 80.8145 8.04C80.8198 7.704 80.8225 7.45333 80.8225 7.288L81.2705 7.52C80.8705 7.57333 80.4358 7.62667 79.9665 7.68C79.5025 7.73333 79.0438 7.79467 78.5905 7.864C78.1425 7.93333 77.7372 8.016 77.3745 8.112C77.1292 8.18133 76.8918 8.28 76.6625 8.408C76.4332 8.53067 76.2438 8.696 76.0945 8.904C75.9505 9.112 75.8785 9.37067 75.8785 9.68C75.8785 9.93067 75.9398 10.1733 76.0625 10.408C76.1905 10.6427 76.3932 10.8373 76.6705 10.992C76.9532 11.1467 77.3265 11.224 77.7905 11.224ZM88.7771 12C88.2918 12.1013 87.8118 12.1413 87.3371 12.12C86.8678 12.0987 86.4465 11.9973 86.0731 11.816C85.7051 11.6347 85.4251 11.352 85.2331 10.968C85.0785 10.648 84.9931 10.3253 84.9771 10C84.9665 9.66933 84.9611 9.29333 84.9611 8.872V0.959999H86.1291V8.824C86.1291 9.18667 86.1318 9.49067 86.1371 9.736C86.1478 9.976 86.2038 10.1893 86.3051 10.376C86.4971 10.7333 86.8011 10.9467 87.2171 11.016C87.6385 11.0853 88.1585 11.0693 88.7771 10.968V12ZM83.1131 4.368V3.36H88.7771V4.368H83.1131ZM97.5625 12.24C96.7678 12.24 96.0958 12.04 95.5465 11.64C94.9972 11.2347 94.5812 10.688 94.2985 10C94.0158 9.30667 93.8745 8.53067 93.8745 7.672C93.8745 6.79733 94.0158 6.01867 94.2985 5.336C94.5865 4.648 95.0078 4.10667 95.5625 3.712C96.1172 3.31733 96.7998 3.12 97.6105 3.12C98.3998 3.12 99.0772 3.32 99.6425 3.72C100.208 4.12 100.64 4.664 100.939 5.352C101.243 6.04 101.395 6.81333 101.395 7.672C101.395 8.536 101.243 9.312 100.939 10C100.635 10.688 100.197 11.2347 99.6265 11.64C99.0558 12.04 98.3678 12.24 97.5625 12.24ZM93.6745 15.84V3.36H94.7305V9.864H94.8585V15.84H93.6745ZM97.4425 11.144C98.0452 11.144 98.5465 10.992 98.9465 10.688C99.3465 10.384 99.6452 9.97067 99.8425 9.448C100.045 8.92 100.147 8.328 100.147 7.672C100.147 7.02133 100.048 6.43467 99.8505 5.912C99.6532 5.38933 99.3518 4.976 98.9465 4.672C98.5465 4.368 98.0372 4.216 97.4185 4.216C96.8158 4.216 96.3145 4.36267 95.9145 4.656C95.5198 4.94933 95.2238 5.35733 95.0265 5.88C94.8292 6.39733 94.7305 6.99467 94.7305 7.672C94.7305 8.33867 94.8292 8.936 95.0265 9.464C95.2238 9.98667 95.5225 10.3973 95.9225 10.696C96.3225 10.9947 96.8292 11.144 97.4425 11.144ZM105.623 12.24C104.973 12.24 104.426 12.1227 103.983 11.888C103.546 11.6533 103.218 11.3413 102.999 10.952C102.781 10.5627 102.671 10.1387 102.671 9.68C102.671 9.21067 102.765 8.81067 102.951 8.48C103.143 8.144 103.402 7.86933 103.727 7.656C104.058 7.44267 104.439 7.28 104.871 7.168C105.309 7.06133 105.791 6.968 106.319 6.888C106.853 6.80267 107.373 6.73067 107.879 6.672C108.391 6.608 108.839 6.54667 109.223 6.488L108.807 6.744C108.823 5.89067 108.658 5.25867 108.311 4.848C107.965 4.43733 107.362 4.232 106.503 4.232C105.911 4.232 105.41 4.36533 104.999 4.632C104.594 4.89867 104.309 5.32 104.143 5.896L102.999 5.56C103.197 4.78667 103.594 4.18667 104.191 3.76C104.789 3.33333 105.565 3.12 106.519 3.12C107.309 3.12 107.978 3.26933 108.527 3.568C109.082 3.86133 109.474 4.288 109.703 4.848C109.81 5.09867 109.879 5.37867 109.911 5.688C109.943 5.99733 109.959 6.312 109.959 6.632V12H108.911V9.832L109.215 9.96C108.922 10.7013 108.466 11.2667 107.847 11.656C107.229 12.0453 106.487 12.24 105.623 12.24ZM105.759 11.224C106.309 11.224 106.789 11.1253 107.199 10.928C107.61 10.7307 107.941 10.4613 108.191 10.12C108.442 9.77333 108.605 9.384 108.679 8.952C108.743 8.67467 108.778 8.37067 108.783 8.04C108.789 7.704 108.791 7.45333 108.791 7.288L109.239 7.52C108.839 7.57333 108.405 7.62667 107.935 7.68C107.471 7.73333 107.013 7.79467 106.559 7.864C106.111 7.93333 105.706 8.016 105.343 8.112C105.098 8.18133 104.861 8.28 104.631 8.408C104.402 8.53067 104.213 8.696 104.063 8.904C103.919 9.112 103.847 9.37067 103.847 9.68C103.847 9.93067 103.909 10.1733 104.031 10.408C104.159 10.6427 104.362 10.8373 104.639 10.992C104.922 11.1467 105.295 11.224 105.759 11.224ZM115.626 12.24C114.757 12.24 114.021 12.0453 113.418 11.656C112.815 11.2667 112.357 10.7307 112.042 10.048C111.733 9.36 111.573 8.57067 111.562 7.68C111.573 6.77333 111.738 5.97867 112.058 5.296C112.378 4.608 112.839 4.07467 113.442 3.696C114.045 3.312 114.775 3.12 115.634 3.12C116.509 3.12 117.269 3.33333 117.914 3.76C118.565 4.18667 119.01 4.77067 119.25 5.512L118.098 5.88C117.895 5.36267 117.573 4.96267 117.13 4.68C116.693 4.392 116.191 4.248 115.626 4.248C114.991 4.248 114.466 4.39467 114.05 4.688C113.634 4.976 113.325 5.37867 113.122 5.896C112.919 6.41333 112.815 7.008 112.81 7.68C112.821 8.71467 113.061 9.54667 113.53 10.176C113.999 10.8 114.698 11.112 115.626 11.112C116.213 11.112 116.711 10.9787 117.122 10.712C117.538 10.44 117.853 10.0453 118.066 9.528L119.25 9.88C118.93 10.648 118.461 11.2347 117.842 11.64C117.223 12.04 116.485 12.24 115.626 12.24ZM120.893 12L120.901 0.48H122.085V7.52L125.941 3.36H127.509L123.461 7.68L128.037 12H126.325L122.085 7.84V12H120.893ZM132.339 12.24C131.496 12.24 130.765 12.0533 130.147 11.68C129.533 11.3067 129.056 10.7813 128.715 10.104C128.373 9.42667 128.203 8.632 128.203 7.72C128.203 6.776 128.371 5.96 128.707 5.272C129.043 4.584 129.515 4.05333 130.123 3.68C130.736 3.30667 131.459 3.12 132.291 3.12C133.144 3.12 133.872 3.31733 134.475 3.712C135.077 4.10133 135.533 4.66133 135.843 5.392C136.152 6.12267 136.293 6.99467 136.267 8.008H135.067V7.592C135.045 6.472 134.803 5.62667 134.339 5.056C133.88 4.48533 133.208 4.2 132.323 4.2C131.395 4.2 130.683 4.50133 130.187 5.104C129.696 5.70667 129.451 6.56533 129.451 7.68C129.451 8.768 129.696 9.61333 130.187 10.216C130.683 10.8133 131.384 11.112 132.291 11.112C132.909 11.112 133.448 10.9707 133.907 10.688C134.371 10.4 134.736 9.98667 135.003 9.448L136.099 9.872C135.757 10.624 135.253 11.208 134.587 11.624C133.925 12.0347 133.176 12.24 132.339 12.24ZM129.035 8.008V7.024H135.635V8.008H129.035ZM141.394 12.24C140.589 12.24 139.901 12.04 139.33 11.64C138.759 11.2347 138.322 10.688 138.018 10C137.714 9.312 137.562 8.536 137.562 7.672C137.562 6.81333 137.711 6.04 138.01 5.352C138.314 4.664 138.749 4.12 139.314 3.72C139.879 3.32 140.557 3.12 141.346 3.12C142.157 3.12 142.839 3.31733 143.394 3.712C143.949 4.10667 144.367 4.648 144.65 5.336C144.938 6.01867 145.082 6.79733 145.082 7.672C145.082 8.53067 144.941 9.30667 144.658 10C144.375 10.688 143.959 11.2347 143.41 11.64C142.861 12.04 142.189 12.24 141.394 12.24ZM141.514 11.144C142.127 11.144 142.634 10.9947 143.034 10.696C143.434 10.3973 143.733 9.98667 143.93 9.464C144.127 8.936 144.226 8.33867 144.226 7.672C144.226 6.99467 144.127 6.39733 143.93 5.88C143.733 5.35733 143.434 4.94933 143.034 4.656C142.639 4.36267 142.141 4.216 141.538 4.216C140.919 4.216 140.407 4.368 140.002 4.672C139.597 4.976 139.295 5.38933 139.098 5.912C138.906 6.43467 138.81 7.02133 138.81 7.672C138.81 8.328 138.909 8.92 139.106 9.448C139.309 9.97067 139.61 10.384 140.01 10.688C140.41 10.992 140.911 11.144 141.514 11.144ZM144.226 12V5.496H144.098V0.48H145.282V12H144.226ZM153.953 12.232C152.94 12.232 152.105 12.0133 151.449 11.576C150.799 11.1387 150.399 10.5307 150.249 9.752L151.449 9.552C151.577 10.0427 151.868 10.4347 152.321 10.728C152.78 11.016 153.345 11.16 154.017 11.16C154.673 11.16 155.191 11.024 155.569 10.752C155.948 10.4747 156.137 10.0987 156.137 9.624C156.137 9.35733 156.076 9.14133 155.953 8.976C155.836 8.80533 155.593 8.648 155.225 8.504C154.857 8.36 154.308 8.18933 153.577 7.992C152.793 7.77867 152.18 7.56533 151.737 7.352C151.295 7.13867 150.98 6.89333 150.793 6.616C150.607 6.33333 150.513 5.98933 150.513 5.584C150.513 5.09333 150.652 4.664 150.929 4.296C151.207 3.92267 151.591 3.63467 152.081 3.432C152.572 3.224 153.143 3.12 153.793 3.12C154.444 3.12 155.025 3.22667 155.537 3.44C156.055 3.648 156.471 3.94133 156.785 4.32C157.1 4.69867 157.287 5.13867 157.345 5.64L156.145 5.856C156.065 5.34933 155.812 4.94933 155.385 4.656C154.964 4.35733 154.428 4.20267 153.777 4.192C153.164 4.176 152.665 4.29333 152.281 4.544C151.897 4.78933 151.705 5.11733 151.705 5.528C151.705 5.75733 151.775 5.95467 151.913 6.12C152.052 6.28 152.303 6.432 152.665 6.576C153.033 6.72 153.556 6.87733 154.233 7.048C155.028 7.25067 155.652 7.464 156.105 7.688C156.559 7.912 156.881 8.176 157.073 8.48C157.265 8.784 157.361 9.16 157.361 9.608C157.361 10.424 157.057 11.0667 156.449 11.536C155.847 12 155.015 12.232 153.953 12.232ZM162.744 12.24C161.885 12.24 161.152 12.0453 160.544 11.656C159.936 11.2667 159.469 10.728 159.144 10.04C158.818 9.352 158.656 8.56267 158.656 7.672C158.656 6.76533 158.821 5.97067 159.152 5.288C159.482 4.60533 159.952 4.07467 160.56 3.696C161.173 3.312 161.901 3.12 162.744 3.12C163.608 3.12 164.344 3.31467 164.952 3.704C165.565 4.088 166.032 4.624 166.352 5.312C166.677 5.99467 166.84 6.78133 166.84 7.672C166.84 8.57867 166.677 9.376 166.352 10.064C166.026 10.7467 165.557 11.28 164.944 11.664C164.33 12.048 163.597 12.24 162.744 12.24ZM162.744 11.112C163.704 11.112 164.418 10.7947 164.888 10.16C165.357 9.52 165.592 8.69067 165.592 7.672C165.592 6.62667 165.354 5.79467 164.88 5.176C164.41 4.55733 163.698 4.248 162.744 4.248C162.098 4.248 161.565 4.39467 161.144 4.688C160.728 4.976 160.416 5.37867 160.208 5.896C160.005 6.408 159.904 7 159.904 7.672C159.904 8.712 160.144 9.54667 160.624 10.176C161.104 10.8 161.81 11.112 162.744 11.112ZM176.512 12C176.026 12.1013 175.546 12.1413 175.072 12.12C174.602 12.0987 174.181 11.9973 173.808 11.816C173.44 11.6347 173.16 11.352 172.968 10.968C172.813 10.648 172.728 10.3253 172.712 10C172.701 9.66933 172.696 9.29333 172.696 8.872V0.959999H173.864V8.824C173.864 9.18667 173.866 9.49067 173.872 9.736C173.882 9.976 173.938 10.1893 174.04 10.376C174.232 10.7333 174.536 10.9467 174.952 11.016C175.373 11.0853 175.893 11.0693 176.512 10.968V12ZM170.848 4.368V3.36H176.512V4.368H170.848ZM184.454 12V7.592C184.454 7.112 184.408 6.672 184.318 6.272C184.227 5.86667 184.08 5.51467 183.878 5.216C183.68 4.912 183.422 4.67733 183.102 4.512C182.787 4.34667 182.403 4.264 181.95 4.264C181.534 4.264 181.166 4.336 180.846 4.48C180.531 4.624 180.264 4.832 180.046 5.104C179.832 5.37067 179.67 5.696 179.558 6.08C179.446 6.464 179.39 6.90133 179.39 7.392L178.558 7.208C178.558 6.32267 178.712 5.57867 179.022 4.976C179.331 4.37333 179.758 3.91733 180.302 3.608C180.846 3.29867 181.47 3.144 182.174 3.144C182.691 3.144 183.142 3.224 183.526 3.384C183.915 3.544 184.243 3.76 184.51 4.032C184.782 4.304 185 4.616 185.166 4.968C185.331 5.31467 185.451 5.68533 185.526 6.08C185.6 6.46933 185.638 6.85867 185.638 7.248V12H184.454ZM178.206 12V0.48H179.27V6.984H179.39V12H178.206ZM191.37 12.24C190.527 12.24 189.796 12.0533 189.178 11.68C188.564 11.3067 188.087 10.7813 187.746 10.104C187.404 9.42667 187.234 8.632 187.234 7.72C187.234 6.776 187.402 5.96 187.738 5.272C188.074 4.584 188.546 4.05333 189.154 3.68C189.767 3.30667 190.49 3.12 191.322 3.12C192.175 3.12 192.903 3.31733 193.506 3.712C194.108 4.10133 194.564 4.66133 194.874 5.392C195.183 6.12267 195.324 6.99467 195.298 8.008H194.098V7.592C194.076 6.472 193.834 5.62667 193.37 5.056C192.911 4.48533 192.239 4.2 191.354 4.2C190.426 4.2 189.714 4.50133 189.218 5.104C188.727 5.70667 188.482 6.56533 188.482 7.68C188.482 8.768 188.727 9.61333 189.218 10.216C189.714 10.8133 190.415 11.112 191.322 11.112C191.94 11.112 192.479 10.9707 192.938 10.688C193.402 10.4 193.767 9.98667 194.034 9.448L195.13 9.872C194.788 10.624 194.284 11.208 193.618 11.624C192.956 12.0347 192.207 12.24 191.37 12.24ZM188.066 8.008V7.024H194.666V8.008H188.066ZM198.149 15.84L199.821 11.304L199.845 12.648L196.061 3.36H197.309L200.413 11.128H199.901L202.765 3.36H203.965L199.325 15.84H198.149ZM4.704 36.24C3.83467 36.24 3.09867 36.0453 2.496 35.656C1.89333 35.2667 1.43467 34.7307 1.12 34.048C0.810667 33.36 0.650667 32.5707 0.64 31.68C0.650667 30.7733 0.816 29.9787 1.136 29.296C1.456 28.608 1.91733 28.0747 2.52 27.696C3.12267 27.312 3.85333 27.12 4.712 27.12C5.58667 27.12 6.34667 27.3333 6.992 27.76C7.64267 28.1867 8.088 28.7707 8.328 29.512L7.176 29.88C6.97333 29.3627 6.65067 28.9627 6.208 28.68C5.77067 28.392 5.26933 28.248 4.704 28.248C4.06933 28.248 3.544 28.3947 3.128 28.688C2.712 28.976 2.40267 29.3787 2.2 29.896C1.99733 30.4133 1.89333 31.008 1.888 31.68C1.89867 32.7147 2.13867 33.5467 2.608 34.176C3.07733 34.8 3.776 35.112 4.704 35.112C5.29067 35.112 5.78933 34.9787 6.2 34.712C6.616 34.44 6.93067 34.0453 7.144 33.528L8.328 33.88C8.008 34.648 7.53867 35.2347 6.92 35.64C6.30133 36.04 5.56267 36.24 4.704 36.24ZM12.3889 36.24C11.7382 36.24 11.1915 36.1227 10.7489 35.888C10.3115 35.6533 9.98354 35.3413 9.76488 34.952C9.54621 34.5627 9.43688 34.1387 9.43688 33.68C9.43688 33.2107 9.53021 32.8107 9.71688 32.48C9.90888 32.144 10.1675 31.8693 10.4929 31.656C10.8235 31.4427 11.2049 31.28 11.6369 31.168C12.0742 31.0613 12.5569 30.968 13.0849 30.888C13.6182 30.8027 14.1382 30.7307 14.6449 30.672C15.1569 30.608 15.6049 30.5467 15.9889 30.488L15.5729 30.744C15.5889 29.8907 15.4235 29.2587 15.0769 28.848C14.7302 28.4373 14.1275 28.232 13.2689 28.232C12.6769 28.232 12.1755 28.3653 11.7649 28.632C11.3595 28.8987 11.0742 29.32 10.9089 29.896L9.76488 29.56C9.96221 28.7867 10.3595 28.1867 10.9569 27.76C11.5542 27.3333 12.3302 27.12 13.2849 27.12C14.0742 27.12 14.7435 27.2693 15.2929 27.568C15.8475 27.8613 16.2395 28.288 16.4689 28.848C16.5755 29.0987 16.6449 29.3787 16.6769 29.688C16.7089 29.9973 16.7249 30.312 16.7249 30.632V36H15.6769V33.832L15.9809 33.96C15.6875 34.7013 15.2315 35.2667 14.6129 35.656C13.9942 36.0453 13.2529 36.24 12.3889 36.24ZM12.5249 35.224C13.0742 35.224 13.5542 35.1253 13.9649 34.928C14.3755 34.7307 14.7062 34.4613 14.9569 34.12C15.2075 33.7733 15.3702 33.384 15.4449 32.952C15.5089 32.6747 15.5435 32.3707 15.5489 32.04C15.5542 31.704 15.5569 31.4533 15.5569 31.288L16.0049 31.52C15.6049 31.5733 15.1702 31.6267 14.7009 31.68C14.2369 31.7333 13.7782 31.7947 13.3249 31.864C12.8769 31.9333 12.4715 32.016 12.1089 32.112C11.8635 32.1813 11.6262 32.28 11.3969 32.408C11.1675 32.5307 10.9782 32.696 10.8289 32.904C10.6849 33.112 10.6129 33.3707 10.6129 33.68C10.6129 33.9307 10.6742 34.1733 10.7969 34.408C10.9249 34.6427 11.1275 34.8373 11.4049 34.992C11.6875 35.1467 12.0609 35.224 12.5249 35.224ZM25.0475 36V31.592C25.0475 31.112 25.0022 30.672 24.9115 30.272C24.8208 29.8667 24.6742 29.5147 24.4715 29.216C24.2742 28.912 24.0155 28.6773 23.6955 28.512C23.3808 28.3467 22.9968 28.264 22.5435 28.264C22.1275 28.264 21.7595 28.336 21.4395 28.48C21.1248 28.624 20.8582 28.832 20.6395 29.104C20.4262 29.3707 20.2635 29.696 20.1515 30.08C20.0395 30.464 19.9835 30.9013 19.9835 31.392L19.1515 31.208C19.1515 30.3227 19.3062 29.5787 19.6155 28.976C19.9248 28.3733 20.3515 27.9173 20.8955 27.608C21.4395 27.2987 22.0635 27.144 22.7675 27.144C23.2848 27.144 23.7355 27.224 24.1195 27.384C24.5088 27.544 24.8368 27.76 25.1035 28.032C25.3755 28.304 25.5942 28.616 25.7595 28.968C25.9248 29.3147 26.0448 29.6853 26.1195 30.08C26.1942 30.4693 26.2315 30.8587 26.2315 31.248V36H25.0475ZM18.7995 36V27.36H19.8635V29.488H19.9835V36H18.7995ZM35.3906 36.24C34.596 36.24 33.924 36.04 33.3746 35.64C32.8253 35.2347 32.4093 34.688 32.1266 34C31.844 33.3067 31.7026 32.5307 31.7026 31.672C31.7026 30.7973 31.844 30.0187 32.1266 29.336C32.4146 28.648 32.836 28.1067 33.3906 27.712C33.9453 27.3173 34.628 27.12 35.4386 27.12C36.228 27.12 36.9053 27.32 37.4706 27.72C38.036 28.12 38.468 28.664 38.7666 29.352C39.0706 30.04 39.2226 30.8133 39.2226 31.672C39.2226 32.536 39.0706 33.312 38.7666 34C38.4626 34.688 38.0253 35.2347 37.4546 35.64C36.884 36.04 36.196 36.24 35.3906 36.24ZM31.5026 36V24.48H32.6866V29.496H32.5586V36H31.5026ZM35.2706 35.144C35.8733 35.144 36.3746 34.992 36.7746 34.688C37.1746 34.384 37.4733 33.9707 37.6706 33.448C37.8733 32.92 37.9746 32.328 37.9746 31.672C37.9746 31.0213 37.876 30.4347 37.6786 29.912C37.4813 29.3893 37.18 28.976 36.7746 28.672C36.3746 28.368 35.8653 28.216 35.2466 28.216C34.644 28.216 34.1426 28.3627 33.7426 28.656C33.348 28.9493 33.052 29.3573 32.8546 29.88C32.6573 30.3973 32.5586 30.9947 32.5586 31.672C32.5586 32.3387 32.6573 32.936 32.8546 33.464C33.052 33.9867 33.3506 34.3973 33.7506 34.696C34.1506 34.9947 34.6573 35.144 35.2706 35.144ZM44.6354 36.24C43.7927 36.24 43.062 36.0533 42.4434 35.68C41.83 35.3067 41.3527 34.7813 41.0114 34.104C40.67 33.4267 40.4994 32.632 40.4994 31.72C40.4994 30.776 40.6674 29.96 41.0034 29.272C41.3394 28.584 41.8114 28.0533 42.4194 27.68C43.0327 27.3067 43.7554 27.12 44.5874 27.12C45.4407 27.12 46.1687 27.3173 46.7714 27.712C47.374 28.1013 47.83 28.6613 48.1394 29.392C48.4487 30.1227 48.59 30.9947 48.5634 32.008H47.3634V31.592C47.342 30.472 47.0994 29.6267 46.6354 29.056C46.1767 28.4853 45.5047 28.2 44.6194 28.2C43.6914 28.2 42.9794 28.5013 42.4834 29.104C41.9927 29.7067 41.7474 30.5653 41.7474 31.68C41.7474 32.768 41.9927 33.6133 42.4834 34.216C42.9794 34.8133 43.6807 35.112 44.5874 35.112C45.206 35.112 45.7447 34.9707 46.2034 34.688C46.6674 34.4 47.0327 33.9867 47.2994 33.448L48.3954 33.872C48.054 34.624 47.55 35.208 46.8834 35.624C46.222 36.0347 45.4727 36.24 44.6354 36.24ZM41.3314 32.008V31.024H47.9314V32.008H41.3314ZM56.7659 36.232C55.7525 36.232 54.9179 36.0133 54.2619 35.576C53.6112 35.1387 53.2112 34.5307 53.0619 33.752L54.2619 33.552C54.3899 34.0427 54.6805 34.4347 55.1339 34.728C55.5925 35.016 56.1579 35.16 56.8299 35.16C57.4859 35.16 58.0032 35.024 58.3819 34.752C58.7605 34.4747 58.9499 34.0987 58.9499 33.624C58.9499 33.3573 58.8885 33.1413 58.7659 32.976C58.6485 32.8053 58.4059 32.648 58.0379 32.504C57.6699 32.36 57.1205 32.1893 56.3899 31.992C55.6059 31.7787 54.9925 31.5653 54.5499 31.352C54.1072 31.1387 53.7925 30.8933 53.6059 30.616C53.4192 30.3333 53.3259 29.9893 53.3259 29.584C53.3259 29.0933 53.4645 28.664 53.7419 28.296C54.0192 27.9227 54.4032 27.6347 54.8939 27.432C55.3845 27.224 55.9552 27.12 56.6059 27.12C57.2565 27.12 57.8379 27.2267 58.3499 27.44C58.8672 27.648 59.2832 27.9413 59.5979 28.32C59.9125 28.6987 60.0992 29.1387 60.1579 29.64L58.9579 29.856C58.8779 29.3493 58.6245 28.9493 58.1979 28.656C57.7765 28.3573 57.2405 28.2027 56.5899 28.192C55.9765 28.176 55.4779 28.2933 55.0939 28.544C54.7099 28.7893 54.5179 29.1173 54.5179 29.528C54.5179 29.7573 54.5872 29.9547 54.7259 30.12C54.8645 30.28 55.1152 30.432 55.4779 30.576C55.8459 30.72 56.3685 30.8773 57.0459 31.048C57.8405 31.2507 58.4645 31.464 58.9179 31.688C59.3712 31.912 59.6939 32.176 59.8859 32.48C60.0779 32.784 60.1739 33.16 60.1739 33.608C60.1739 34.424 59.8699 35.0667 59.2619 35.536C58.6592 36 57.8272 36.232 56.7659 36.232ZM62.1081 36V24.24H63.2841V36H62.1081ZM65.8425 25.72V24.4H67.0185V25.72H65.8425ZM65.8425 36V27.36H67.0185V36H65.8425ZM73.2969 36.24C72.5022 36.24 71.8302 36.04 71.2809 35.64C70.7315 35.2347 70.3155 34.688 70.0329 34C69.7502 33.3067 69.6089 32.5307 69.6089 31.672C69.6089 30.7973 69.7502 30.0187 70.0329 29.336C70.3209 28.648 70.7422 28.1067 71.2969 27.712C71.8515 27.3173 72.5342 27.12 73.3449 27.12C74.1342 27.12 74.8115 27.32 75.3769 27.72C75.9422 28.12 76.3742 28.664 76.6729 29.352C76.9769 30.04 77.1289 30.8133 77.1289 31.672C77.1289 32.536 76.9769 33.312 76.6729 34C76.3689 34.688 75.9315 35.2347 75.3609 35.64C74.7902 36.04 74.1022 36.24 73.2969 36.24ZM69.4089 39.84V27.36H70.4649V33.864H70.5929V39.84H69.4089ZM73.1769 35.144C73.7795 35.144 74.2809 34.992 74.6809 34.688C75.0809 34.384 75.3795 33.9707 75.5769 33.448C75.7795 32.92 75.8809 32.328 75.8809 31.672C75.8809 31.0213 75.7822 30.4347 75.5849 29.912C75.3875 29.3893 75.0862 28.976 74.6809 28.672C74.2809 28.368 73.7715 28.216 73.1529 28.216C72.5502 28.216 72.0489 28.3627 71.6489 28.656C71.2542 28.9493 70.9582 29.3573 70.7609 29.88C70.5635 30.3973 70.4649 30.9947 70.4649 31.672C70.4649 32.3387 70.5635 32.936 70.7609 33.464C70.9582 33.9867 71.2569 34.3973 71.6569 34.696C72.0569 34.9947 72.5635 35.144 73.1769 35.144ZM82.7656 36.24C81.971 36.24 81.299 36.04 80.7496 35.64C80.2003 35.2347 79.7843 34.688 79.5016 34C79.219 33.3067 79.0776 32.5307 79.0776 31.672C79.0776 30.7973 79.219 30.0187 79.5016 29.336C79.7896 28.648 80.211 28.1067 80.7656 27.712C81.3203 27.3173 82.003 27.12 82.8136 27.12C83.603 27.12 84.2803 27.32 84.8456 27.72C85.411 28.12 85.843 28.664 86.1416 29.352C86.4456 30.04 86.5976 30.8133 86.5976 31.672C86.5976 32.536 86.4456 33.312 86.1416 34C85.8376 34.688 85.4003 35.2347 84.8296 35.64C84.259 36.04 83.571 36.24 82.7656 36.24ZM78.8776 39.84V27.36H79.9336V33.864H80.0616V39.84H78.8776ZM82.6456 35.144C83.2483 35.144 83.7496 34.992 84.1496 34.688C84.5496 34.384 84.8483 33.9707 85.0456 33.448C85.2483 32.92 85.3496 32.328 85.3496 31.672C85.3496 31.0213 85.251 30.4347 85.0536 29.912C84.8563 29.3893 84.555 28.976 84.1496 28.672C83.7496 28.368 83.2403 28.216 82.6216 28.216C82.019 28.216 81.5176 28.3627 81.1176 28.656C80.723 28.9493 80.427 29.3573 80.2296 29.88C80.0323 30.3973 79.9336 30.9947 79.9336 31.672C79.9336 32.3387 80.0323 32.936 80.2296 33.464C80.427 33.9867 80.7256 34.3973 81.1256 34.696C81.5256 34.9947 82.0323 35.144 82.6456 35.144ZM92.0104 36.24C91.1677 36.24 90.437 36.0533 89.8184 35.68C89.205 35.3067 88.7277 34.7813 88.3864 34.104C88.045 33.4267 87.8744 32.632 87.8744 31.72C87.8744 30.776 88.0424 29.96 88.3784 29.272C88.7144 28.584 89.1864 28.0533 89.7944 27.68C90.4077 27.3067 91.1304 27.12 91.9624 27.12C92.8157 27.12 93.5437 27.3173 94.1464 27.712C94.749 28.1013 95.205 28.6613 95.5144 29.392C95.8237 30.1227 95.965 30.9947 95.9384 32.008H94.7384V31.592C94.717 30.472 94.4744 29.6267 94.0104 29.056C93.5517 28.4853 92.8797 28.2 91.9944 28.2C91.0664 28.2 90.3544 28.5013 89.8584 29.104C89.3677 29.7067 89.1224 30.5653 89.1224 31.68C89.1224 32.768 89.3677 33.6133 89.8584 34.216C90.3544 34.8133 91.0557 35.112 91.9624 35.112C92.581 35.112 93.1197 34.9707 93.5784 34.688C94.0424 34.4 94.4077 33.9867 94.6744 33.448L95.7704 33.872C95.429 34.624 94.925 35.208 94.2584 35.624C93.597 36.0347 92.8477 36.24 92.0104 36.24ZM88.7064 32.008V31.024H95.3064V32.008H88.7064ZM101.066 36.24C100.26 36.24 99.5724 36.04 99.0018 35.64C98.4311 35.2347 97.9938 34.688 97.6898 34C97.3858 33.312 97.2338 32.536 97.2338 31.672C97.2338 30.8133 97.3831 30.04 97.6818 29.352C97.9858 28.664 98.4204 28.12 98.9858 27.72C99.5511 27.32 100.228 27.12 101.018 27.12C101.828 27.12 102.511 27.3173 103.066 27.712C103.62 28.1067 104.039 28.648 104.322 29.336C104.61 30.0187 104.754 30.7973 104.754 31.672C104.754 32.5307 104.612 33.3067 104.33 34C104.047 34.688 103.631 35.2347 103.082 35.64C102.532 36.04 101.86 36.24 101.066 36.24ZM101.186 35.144C101.799 35.144 102.306 34.9947 102.706 34.696C103.106 34.3973 103.404 33.9867 103.602 33.464C103.799 32.936 103.898 32.3387 103.898 31.672C103.898 30.9947 103.799 30.3973 103.602 29.88C103.404 29.3573 103.106 28.9493 102.706 28.656C102.311 28.3627 101.812 28.216 101.21 28.216C100.591 28.216 100.079 28.368 99.6738 28.672C99.2684 28.976 98.9671 29.3893 98.7698 29.912C98.5778 30.4347 98.4818 31.0213 98.4818 31.672C98.4818 32.328 98.5804 32.92 98.7778 33.448C98.9804 33.9707 99.2818 34.384 99.6818 34.688C100.082 34.992 100.583 35.144 101.186 35.144ZM103.898 36V29.496H103.77V24.48H104.954V36H103.898ZM115.105 36C114.62 36.1013 114.14 36.1413 113.665 36.12C113.196 36.0987 112.775 35.9973 112.401 35.816C112.033 35.6347 111.753 35.352 111.561 34.968C111.407 34.648 111.321 34.3253 111.305 34C111.295 33.6693 111.289 33.2933 111.289 32.872V24.96H112.457V32.824C112.457 33.1867 112.46 33.4907 112.465 33.736C112.476 33.976 112.532 34.1893 112.633 34.376C112.825 34.7333 113.129 34.9467 113.545 35.016C113.967 35.0853 114.487 35.0693 115.105 34.968V36ZM109.441 28.368V27.36H115.105V28.368H109.441ZM123.048 36V31.592C123.048 31.112 123.002 30.672 122.912 30.272C122.821 29.8667 122.674 29.5147 122.472 29.216C122.274 28.912 122.016 28.6773 121.696 28.512C121.381 28.3467 120.997 28.264 120.544 28.264C120.128 28.264 119.76 28.336 119.44 28.48C119.125 28.624 118.858 28.832 118.64 29.104C118.426 29.3707 118.264 29.696 118.152 30.08C118.04 30.464 117.984 30.9013 117.984 31.392L117.152 31.208C117.152 30.3227 117.306 29.5787 117.616 28.976C117.925 28.3733 118.352 27.9173 118.896 27.608C119.44 27.2987 120.064 27.144 120.768 27.144C121.285 27.144 121.736 27.224 122.12 27.384C122.509 27.544 122.837 27.76 123.104 28.032C123.376 28.304 123.594 28.616 123.76 28.968C123.925 29.3147 124.045 29.6853 124.12 30.08C124.194 30.4693 124.232 30.8587 124.232 31.248V36H123.048ZM116.8 36V24.48H117.864V30.984H117.984V36H116.8ZM126.308 36V27.36H127.364V29.44L127.156 29.168C127.252 28.912 127.377 28.6773 127.532 28.464C127.686 28.2453 127.854 28.0667 128.036 27.928C128.26 27.7307 128.521 27.5813 128.82 27.48C129.118 27.3733 129.42 27.312 129.724 27.296C130.028 27.2747 130.305 27.296 130.556 27.36V28.464C130.241 28.384 129.897 28.3653 129.524 28.408C129.15 28.4507 128.806 28.6 128.492 28.856C128.204 29.08 127.988 29.3493 127.844 29.664C127.7 29.9733 127.604 30.304 127.556 30.656C127.508 31.0027 127.484 31.3467 127.484 31.688V36H126.308ZM135.525 36.24C134.666 36.24 133.933 36.0453 133.325 35.656C132.717 35.2667 132.25 34.728 131.925 34.04C131.6 33.352 131.437 32.5627 131.437 31.672C131.437 30.7653 131.602 29.9707 131.933 29.288C132.264 28.6053 132.733 28.0747 133.341 27.696C133.954 27.312 134.682 27.12 135.525 27.12C136.389 27.12 137.125 27.3147 137.733 27.704C138.346 28.088 138.813 28.624 139.133 29.312C139.458 29.9947 139.621 30.7813 139.621 31.672C139.621 32.5787 139.458 33.376 139.133 34.064C138.808 34.7467 138.338 35.28 137.725 35.664C137.112 36.048 136.378 36.24 135.525 36.24ZM135.525 35.112C136.485 35.112 137.2 34.7947 137.669 34.16C138.138 33.52 138.373 32.6907 138.373 31.672C138.373 30.6267 138.136 29.7947 137.661 29.176C137.192 28.5573 136.48 28.248 135.525 28.248C134.88 28.248 134.346 28.3947 133.925 28.688C133.509 28.976 133.197 29.3787 132.989 29.896C132.786 30.408 132.685 31 132.685 31.672C132.685 32.712 132.925 33.5467 133.405 34.176C133.885 34.8 134.592 35.112 135.525 35.112ZM144.69 36.216C144.172 36.216 143.719 36.136 143.33 35.976C142.946 35.816 142.618 35.6 142.346 35.328C142.079 35.056 141.863 34.7467 141.698 34.4C141.532 34.048 141.412 33.6773 141.338 33.288C141.263 32.8933 141.226 32.5013 141.226 32.112V27.36H142.41V31.768C142.41 32.2427 142.455 32.6827 142.546 33.088C142.636 33.4933 142.78 33.848 142.978 34.152C143.18 34.4507 143.439 34.6827 143.754 34.848C144.074 35.0133 144.46 35.096 144.914 35.096C145.33 35.096 145.695 35.024 146.01 34.88C146.33 34.736 146.596 34.5307 146.81 34.264C147.028 33.992 147.194 33.664 147.306 33.28C147.418 32.8907 147.474 32.4533 147.474 31.968L148.306 32.152C148.306 33.0373 148.151 33.7813 147.842 34.384C147.532 34.9867 147.106 35.4427 146.562 35.752C146.018 36.0613 145.394 36.216 144.69 36.216ZM147.594 36V33.872H147.474V27.36H148.65V36H147.594ZM154.318 40.08C153.875 40.08 153.438 40.0133 153.006 39.88C152.579 39.752 152.184 39.5467 151.822 39.264C151.459 38.9867 151.155 38.624 150.91 38.176L151.974 37.584C152.214 38.064 152.55 38.408 152.982 38.616C153.419 38.8293 153.864 38.936 154.318 38.936C154.942 38.936 155.446 38.8187 155.83 38.584C156.219 38.3547 156.502 38.0133 156.678 37.56C156.854 37.1067 156.939 36.5413 156.934 35.864V33.56H157.07V27.36H158.118V35.88C158.118 36.1253 158.11 36.36 158.094 36.584C158.083 36.8133 158.059 37.0373 158.022 37.256C157.92 37.9013 157.71 38.432 157.39 38.848C157.075 39.264 156.659 39.5733 156.142 39.776C155.63 39.9787 155.022 40.08 154.318 40.08ZM154.238 36.24C153.432 36.24 152.744 36.04 152.174 35.64C151.603 35.2347 151.166 34.688 150.862 34C150.558 33.312 150.406 32.536 150.406 31.672C150.406 30.8133 150.555 30.04 150.854 29.352C151.158 28.664 151.592 28.12 152.158 27.72C152.723 27.32 153.4 27.12 154.19 27.12C155 27.12 155.683 27.3173 156.238 27.712C156.792 28.1067 157.211 28.648 157.494 29.336C157.782 30.0187 157.926 30.7973 157.926 31.672C157.926 32.5307 157.784 33.3067 157.502 34C157.219 34.688 156.803 35.2347 156.254 35.64C155.704 36.04 155.032 36.24 154.238 36.24ZM154.358 35.144C154.971 35.144 155.478 34.9947 155.878 34.696C156.278 34.3973 156.576 33.9867 156.774 33.464C156.971 32.936 157.07 32.3387 157.07 31.672C157.07 30.9947 156.971 30.3973 156.774 29.88C156.576 29.3573 156.278 28.9493 155.878 28.656C155.483 28.3627 154.984 28.216 154.382 28.216C153.763 28.216 153.251 28.368 152.846 28.672C152.44 28.976 152.139 29.3893 151.942 29.912C151.75 30.4347 151.654 31.0213 151.654 31.672C151.654 32.328 151.752 32.92 151.95 33.448C152.152 33.9707 152.454 34.384 152.854 34.688C153.254 34.992 153.755 35.144 154.358 35.144ZM166.594 36V31.592C166.594 31.112 166.549 30.672 166.458 30.272C166.368 29.8667 166.221 29.5147 166.018 29.216C165.821 28.912 165.562 28.6773 165.242 28.512C164.928 28.3467 164.544 28.264 164.09 28.264C163.674 28.264 163.306 28.336 162.986 28.48C162.672 28.624 162.405 28.832 162.186 29.104C161.973 29.3707 161.81 29.696 161.698 30.08C161.586 30.464 161.53 30.9013 161.53 31.392L160.698 31.208C160.698 30.3227 160.853 29.5787 161.162 28.976C161.472 28.3733 161.898 27.9173 162.442 27.608C162.986 27.2987 163.61 27.144 164.314 27.144C164.832 27.144 165.282 27.224 165.666 27.384C166.056 27.544 166.384 27.76 166.65 28.032C166.922 28.304 167.141 28.616 167.306 28.968C167.472 29.3147 167.592 29.6853 167.666 30.08C167.741 30.4693 167.778 30.8587 167.778 31.248V36H166.594ZM160.346 36V24.48H161.41V30.984H161.53V36H160.346ZM174.289 39.84L175.962 35.304L175.986 36.648L172.201 27.36H173.45L176.554 35.128H176.042L178.906 27.36H180.106L175.466 39.84H174.289ZM184.791 36.24C183.932 36.24 183.199 36.0453 182.591 35.656C181.983 35.2667 181.516 34.728 181.191 34.04C180.865 33.352 180.703 32.5627 180.703 31.672C180.703 30.7653 180.868 29.9707 181.199 29.288C181.529 28.6053 181.999 28.0747 182.607 27.696C183.22 27.312 183.948 27.12 184.791 27.12C185.655 27.12 186.391 27.3147 186.999 27.704C187.612 28.088 188.079 28.624 188.399 29.312C188.724 29.9947 188.887 30.7813 188.887 31.672C188.887 32.5787 188.724 33.376 188.399 34.064C188.073 34.7467 187.604 35.28 186.991 35.664C186.377 36.048 185.644 36.24 184.791 36.24ZM184.791 35.112C185.751 35.112 186.465 34.7947 186.935 34.16C187.404 33.52 187.639 32.6907 187.639 31.672C187.639 30.6267 187.401 29.7947 186.927 29.176C186.457 28.5573 185.745 28.248 184.791 28.248C184.145 28.248 183.612 28.3947 183.191 28.688C182.775 28.976 182.463 29.3787 182.255 29.896C182.052 30.408 181.951 31 181.951 31.672C181.951 32.712 182.191 33.5467 182.671 34.176C183.151 34.8 183.857 35.112 184.791 35.112ZM193.955 36.216C193.438 36.216 192.985 36.136 192.595 35.976C192.211 35.816 191.883 35.6 191.611 35.328C191.345 35.056 191.129 34.7467 190.963 34.4C190.798 34.048 190.678 33.6773 190.603 33.288C190.529 32.8933 190.491 32.5013 190.491 32.112V27.36H191.675V31.768C191.675 32.2427 191.721 32.6827 191.811 33.088C191.902 33.4933 192.046 33.848 192.243 34.152C192.446 34.4507 192.705 34.6827 193.019 34.848C193.339 35.0133 193.726 35.096 194.179 35.096C194.595 35.096 194.961 35.024 195.275 34.88C195.595 34.736 195.862 34.5307 196.075 34.264C196.294 33.992 196.459 33.664 196.571 33.28C196.683 32.8907 196.739 32.4533 196.739 31.968L197.571 32.152C197.571 33.0373 197.417 33.7813 197.107 34.384C196.798 34.9867 196.371 35.4427 195.827 35.752C195.283 36.0613 194.659 36.216 193.955 36.216ZM196.859 36V33.872H196.739V27.36H197.915V36H196.859ZM200.151 36V27.36H201.207V29.44L200.999 29.168C201.095 28.912 201.221 28.6773 201.375 28.464C201.53 28.2453 201.698 28.0667 201.879 27.928C202.103 27.7307 202.365 27.5813 202.663 27.48C202.962 27.3733 203.263 27.312 203.567 27.296C203.871 27.2747 204.149 27.296 204.399 27.36V28.464C204.085 28.384 203.741 28.3653 203.367 28.408C202.994 28.4507 202.65 28.6 202.335 28.856C202.047 29.08 201.831 29.3493 201.687 29.664C201.543 29.9733 201.447 30.304 201.399 30.656C201.351 31.0027 201.327 31.3467 201.327 31.688V36H200.151ZM1.28 60V48.24H2.456V60H1.28ZM8.51038 60.24C7.66771 60.24 6.93704 60.0533 6.31838 59.68C5.70504 59.3067 5.22771 58.7813 4.88638 58.104C4.54504 57.4267 4.37438 56.632 4.37438 55.72C4.37438 54.776 4.54238 53.96 4.87838 53.272C5.21438 52.584 5.68638 52.0533 6.29438 51.68C6.90771 51.3067 7.63038 51.12 8.46238 51.12C9.31571 51.12 10.0437 51.3173 10.6464 51.712C11.249 52.1013 11.705 52.6613 12.0144 53.392C12.3237 54.1227 12.465 54.9947 12.4384 56.008H11.2384V55.592C11.217 54.472 10.9744 53.6267 10.5104 53.056C10.0517 52.4853 9.37971 52.2 8.49438 52.2C7.56638 52.2 6.85438 52.5013 6.35838 53.104C5.86771 53.7067 5.62238 54.5653 5.62238 55.68C5.62238 56.768 5.86771 57.6133 6.35838 58.216C6.85438 58.8133 7.55571 59.112 8.46238 59.112C9.08104 59.112 9.61971 58.9707 10.0784 58.688C10.5424 58.4 10.9077 57.9867 11.1744 57.448L12.2704 57.872C11.929 58.624 11.425 59.208 10.7584 59.624C10.097 60.0347 9.34771 60.24 8.51038 60.24ZM5.20638 56.008V55.024H11.8064V56.008H5.20638ZM18.9178 60C18.4324 60.1013 17.9524 60.1413 17.4778 60.12C17.0084 60.0987 16.5871 59.9973 16.2138 59.816C15.8458 59.6347 15.5658 59.352 15.3738 58.968C15.2191 58.648 15.1338 58.3253 15.1178 58C15.1071 57.6693 15.1018 57.2933 15.1018 56.872V48.96H16.2698V56.824C16.2698 57.1867 16.2724 57.4907 16.2778 57.736C16.2884 57.976 16.3444 58.1893 16.4458 58.376C16.6378 58.7333 16.9418 58.9467 17.3578 59.016C17.7791 59.0853 18.2991 59.0693 18.9178 58.968V60ZM13.2538 52.368V51.36H18.9178V52.368H13.2538ZM24.3658 60C23.8804 60.1013 23.4004 60.1413 22.9258 60.12C22.4564 60.0987 22.0351 59.9973 21.6618 59.816C21.2938 59.6347 21.0138 59.352 20.8218 58.968C20.6671 58.648 20.5818 58.3253 20.5658 58C20.5551 57.6693 20.5498 57.2933 20.5498 56.872V48.96H21.7178V56.824C21.7178 57.1867 21.7204 57.4907 21.7257 57.736C21.7364 57.976 21.7924 58.1893 21.8938 58.376C22.0858 58.7333 22.3898 58.9467 22.8058 59.016C23.2271 59.0853 23.7471 59.0693 24.3658 58.968V60ZM18.7018 52.368V51.36H24.3658V52.368H18.7018ZM29.7291 60.24C28.8865 60.24 28.1558 60.0533 27.5371 59.68C26.9238 59.3067 26.4465 58.7813 26.1051 58.104C25.7638 57.4267 25.5931 56.632 25.5931 55.72C25.5931 54.776 25.7611 53.96 26.0971 53.272C26.4331 52.584 26.9051 52.0533 27.5131 51.68C28.1265 51.3067 28.8491 51.12 29.6811 51.12C30.5345 51.12 31.2625 51.3173 31.8651 51.712C32.4678 52.1013 32.9238 52.6613 33.2331 53.392C33.5425 54.1227 33.6838 54.9947 33.6571 56.008H32.4571V55.592C32.4358 54.472 32.1931 53.6267 31.7291 53.056C31.2705 52.4853 30.5985 52.2 29.7131 52.2C28.7851 52.2 28.0731 52.5013 27.5771 53.104C27.0865 53.7067 26.8411 54.5653 26.8411 55.68C26.8411 56.768 27.0865 57.6133 27.5771 58.216C28.0731 58.8133 28.7745 59.112 29.6811 59.112C30.2998 59.112 30.8385 58.9707 31.2971 58.688C31.7611 58.4 32.1265 57.9867 32.3931 57.448L33.4891 57.872C33.1478 58.624 32.6438 59.208 31.9771 59.624C31.3158 60.0347 30.5665 60.24 29.7291 60.24ZM26.4251 56.008V55.024H33.0251V56.008H26.4251ZM35.4325 60V51.36H36.4885V53.44L36.2805 53.168C36.3765 52.912 36.5018 52.6773 36.6565 52.464C36.8112 52.2453 36.9792 52.0667 37.1605 51.928C37.3845 51.7307 37.6458 51.5813 37.9445 51.48C38.2432 51.3733 38.5445 51.312 38.8485 51.296C39.1525 51.2747 39.4298 51.296 39.6805 51.36V52.464C39.3658 52.384 39.0218 52.3653 38.6485 52.408C38.2752 52.4507 37.9312 52.6 37.6165 52.856C37.3285 53.08 37.1125 53.3493 36.9685 53.664C36.8245 53.9733 36.7285 54.304 36.6805 54.656C36.6325 55.0027 36.6085 55.3467 36.6085 55.688V60H35.4325ZM45.0781 60.24C44.2835 60.24 43.6115 60.04 43.0621 59.64C42.5128 59.2347 42.0968 58.688 41.8141 58C41.5315 57.3067 41.3901 56.5307 41.3901 55.672C41.3901 54.7973 41.5315 54.0187 41.8141 53.336C42.1021 52.648 42.5235 52.1067 43.0781 51.712C43.6328 51.3173 44.3155 51.12 45.1261 51.12C45.9155 51.12 46.5928 51.32 47.1581 51.72C47.7235 52.12 48.1555 52.664 48.4541 53.352C48.7581 54.04 48.9101 54.8133 48.9101 55.672C48.9101 56.536 48.7581 57.312 48.4541 58C48.1501 58.688 47.7128 59.2347 47.1421 59.64C46.5715 60.04 45.8835 60.24 45.0781 60.24ZM41.1901 60V48.48H42.3741V53.496H42.2461V60H41.1901ZM44.9581 59.144C45.5608 59.144 46.0621 58.992 46.4621 58.688C46.8621 58.384 47.1608 57.9707 47.3581 57.448C47.5608 56.92 47.6621 56.328 47.6621 55.672C47.6621 55.0213 47.5635 54.4347 47.3661 53.912C47.1688 53.3893 46.8675 52.976 46.4621 52.672C46.0621 52.368 45.5528 52.216 44.9341 52.216C44.3315 52.216 43.8301 52.3627 43.4301 52.656C43.0355 52.9493 42.7395 53.3573 42.5421 53.88C42.3448 54.3973 42.2461 54.9947 42.2461 55.672C42.2461 56.3387 42.3448 56.936 42.5421 57.464C42.7395 57.9867 43.0381 58.3973 43.4381 58.696C43.8381 58.9947 44.3448 59.144 44.9581 59.144ZM54.2749 60.24C53.4162 60.24 52.6829 60.0453 52.0749 59.656C51.4669 59.2667 51.0002 58.728 50.6749 58.04C50.3495 57.352 50.1869 56.5627 50.1869 55.672C50.1869 54.7653 50.3522 53.9707 50.6829 53.288C51.0135 52.6053 51.4829 52.0747 52.0909 51.696C52.7042 51.312 53.4322 51.12 54.2749 51.12C55.1389 51.12 55.8749 51.3147 56.4829 51.704C57.0962 52.088 57.5629 52.624 57.8829 53.312C58.2082 53.9947 58.3709 54.7813 58.3709 55.672C58.3709 56.5787 58.2082 57.376 57.8829 58.064C57.5575 58.7467 57.0882 59.28 56.4749 59.664C55.8615 60.048 55.1282 60.24 54.2749 60.24ZM54.2749 59.112C55.2349 59.112 55.9495 58.7947 56.4189 58.16C56.8882 57.52 57.1229 56.6907 57.1229 55.672C57.1229 54.6267 56.8855 53.7947 56.4109 53.176C55.9415 52.5573 55.2295 52.248 54.2749 52.248C53.6295 52.248 53.0962 52.3947 52.6749 52.688C52.2589 52.976 51.9469 53.3787 51.7389 53.896C51.5362 54.408 51.4349 55 51.4349 55.672C51.4349 56.712 51.6749 57.5467 52.1549 58.176C52.6349 58.8 53.3415 59.112 54.2749 59.112ZM59.0194 60L62.3954 55.632L59.0914 51.36H60.4994L63.0834 54.728L65.6434 51.36H67.0514L63.7474 55.632L67.1314 60H65.7154L63.0834 56.536L60.4354 60H59.0194ZM68.2569 61.672L68.3289 61.088C68.5422 61.104 68.6969 61.0613 68.7929 60.96C68.8889 60.8587 68.9475 60.7227 68.9689 60.552C68.9902 60.3813 68.9955 60.1973 68.9849 60H68.2569V58.312H69.6249V60.32C69.6249 60.8107 69.4995 61.1787 69.2489 61.424C69.0035 61.6693 68.6729 61.752 68.2569 61.672ZM75.87 60V48.48H80.318C80.43 48.48 80.5553 48.4853 80.694 48.496C80.838 48.5013 80.982 48.5173 81.126 48.544C81.7287 48.6347 82.238 48.8453 82.654 49.176C83.0753 49.5013 83.3927 49.912 83.606 50.408C83.8247 50.904 83.934 51.4533 83.934 52.056C83.934 52.6533 83.8247 53.2 83.606 53.696C83.3873 54.192 83.0673 54.6053 82.646 54.936C82.23 55.2613 81.7233 55.4693 81.126 55.56C80.982 55.5813 80.838 55.5973 80.694 55.608C80.5553 55.6187 80.43 55.624 80.318 55.624H77.046V60H75.87ZM77.046 54.504H80.286C80.382 54.504 80.494 54.4987 80.622 54.488C80.75 54.4773 80.8753 54.4587 80.998 54.432C81.3927 54.3467 81.7153 54.184 81.966 53.944C82.222 53.704 82.4113 53.4187 82.534 53.088C82.662 52.7573 82.726 52.4133 82.726 52.056C82.726 51.6987 82.662 51.3547 82.534 51.024C82.4113 50.688 82.222 50.4 81.966 50.16C81.7153 49.92 81.3927 49.7573 80.998 49.672C80.8753 49.6453 80.75 49.6293 80.622 49.624C80.494 49.6133 80.382 49.608 80.286 49.608H77.046V54.504ZM90.1903 60.24C89.0436 60.24 88.0756 59.9867 87.2863 59.48C86.4969 58.968 85.8996 58.2613 85.4943 57.36C85.0889 56.4587 84.8863 55.4187 84.8863 54.24C84.8863 53.0613 85.0889 52.0213 85.4943 51.12C85.8996 50.2187 86.4969 49.5147 87.2863 49.008C88.0756 48.496 89.0436 48.24 90.1903 48.24C91.3423 48.24 92.3103 48.496 93.0943 49.008C93.8836 49.5147 94.4809 50.2187 94.8863 51.12C95.2969 52.0213 95.5023 53.0613 95.5023 54.24C95.5023 55.4187 95.2969 56.4587 94.8863 57.36C94.4809 58.2613 93.8836 58.968 93.0943 59.48C92.3103 59.9867 91.3423 60.24 90.1903 60.24ZM90.1903 59.112C91.0916 59.112 91.8436 58.9067 92.4462 58.496C93.0489 58.0853 93.4996 57.5147 93.7983 56.784C94.1023 56.048 94.2543 55.2 94.2543 54.24C94.2543 53.28 94.1023 52.4347 93.7983 51.704C93.4996 50.9733 93.0489 50.4027 92.4462 49.992C91.8436 49.5813 91.0916 49.3733 90.1903 49.368C89.2889 49.368 88.5396 49.5733 87.9423 49.984C87.3449 50.3947 86.8943 50.968 86.5903 51.704C86.2916 52.4347 86.1396 53.28 86.1343 54.24C86.1289 55.2 86.2756 56.0453 86.5743 56.776C86.8783 57.5013 87.3316 58.072 87.9343 58.488C88.5369 58.8987 89.2889 59.1067 90.1903 59.112ZM99.8559 60V49.608H95.8319V48.48H105.056V49.608H101.032V60H99.8559ZM106.339 60V48.48H110.787C110.899 48.48 111.024 48.4853 111.163 48.496C111.307 48.5013 111.451 48.5173 111.595 48.544C112.197 48.6347 112.707 48.8453 113.123 49.176C113.544 49.5013 113.861 49.912 114.075 50.408C114.293 50.904 114.403 51.4533 114.403 52.056C114.403 52.9253 114.173 53.68 113.715 54.32C113.256 54.96 112.6 55.3627 111.747 55.528L111.339 55.624H107.515V60H106.339ZM113.315 60L111.043 55.312L112.171 54.88L114.667 60H113.315ZM107.515 54.504H110.755C110.851 54.504 110.963 54.4987 111.091 54.488C111.219 54.4773 111.344 54.4587 111.467 54.432C111.861 54.3467 112.184 54.184 112.435 53.944C112.691 53.704 112.88 53.4187 113.003 53.088C113.131 52.7573 113.195 52.4133 113.195 52.056C113.195 51.6987 113.131 51.3547 113.003 51.024C112.88 50.688 112.691 50.4 112.435 50.16C112.184 49.92 111.861 49.7573 111.467 49.672C111.344 49.6453 111.219 49.6293 111.091 49.624C110.963 49.6133 110.851 49.608 110.755 49.608H107.515V54.504ZM119.636 60V48.48H124.084C124.196 48.48 124.321 48.4853 124.46 48.496C124.604 48.5013 124.748 48.5173 124.892 48.544C125.494 48.6347 126.004 48.8453 126.42 49.176C126.841 49.5013 127.158 49.912 127.372 50.408C127.59 50.904 127.7 51.4533 127.7 52.056C127.7 52.6533 127.59 53.2 127.372 53.696C127.153 54.192 126.833 54.6053 126.412 54.936C125.996 55.2613 125.489 55.4693 124.892 55.56C124.748 55.5813 124.604 55.5973 124.46 55.608C124.321 55.6187 124.196 55.624 124.084 55.624H120.812V60H119.636ZM120.812 54.504H124.052C124.148 54.504 124.26 54.4987 124.388 54.488C124.516 54.4773 124.641 54.4587 124.764 54.432C125.158 54.3467 125.481 54.184 125.732 53.944C125.988 53.704 126.177 53.4187 126.3 53.088C126.428 52.7573 126.492 52.4133 126.492 52.056C126.492 51.6987 126.428 51.3547 126.3 51.024C126.177 50.688 125.988 50.4 125.732 50.16C125.481 49.92 125.158 49.7573 124.764 49.672C124.641 49.6453 124.516 49.6293 124.388 49.624C124.26 49.6133 124.148 49.608 124.052 49.608H120.812V54.504ZM132.837 60.24C131.979 60.24 131.245 60.0453 130.637 59.656C130.029 59.2667 129.563 58.728 129.237 58.04C128.912 57.352 128.749 56.5627 128.749 55.672C128.749 54.7653 128.915 53.9707 129.245 53.288C129.576 52.6053 130.045 52.0747 130.653 51.696C131.267 51.312 131.995 51.12 132.837 51.12C133.701 51.12 134.437 51.3147 135.045 51.704C135.659 52.088 136.125 52.624 136.445 53.312C136.771 53.9947 136.933 54.7813 136.933 55.672C136.933 56.5787 136.771 57.376 136.445 58.064C136.12 58.7467 135.651 59.28 135.037 59.664C134.424 60.048 133.691 60.24 132.837 60.24ZM132.837 59.112C133.797 59.112 134.512 58.7947 134.981 58.16C135.451 57.52 135.685 56.6907 135.685 55.672C135.685 54.6267 135.448 53.7947 134.973 53.176C134.504 52.5573 133.792 52.248 132.837 52.248C132.192 52.248 131.659 52.3947 131.237 52.688C130.821 52.976 130.509 53.3787 130.301 53.896C130.099 54.408 129.997 55 129.997 55.672C129.997 56.712 130.237 57.5467 130.717 58.176C131.197 58.8 131.904 59.112 132.837 59.112ZM143.402 60C142.917 60.1013 142.437 60.1413 141.962 60.12C141.493 60.0987 141.071 59.9973 140.698 59.816C140.33 59.6347 140.05 59.352 139.858 58.968C139.703 58.648 139.618 58.3253 139.602 58C139.591 57.6693 139.586 57.2933 139.586 56.872V48.96H140.754V56.824C140.754 57.1867 140.757 57.4907 140.762 57.736C140.773 57.976 140.829 58.1893 140.93 58.376C141.122 58.7333 141.426 58.9467 141.842 59.016C142.263 59.0853 142.783 59.0693 143.402 58.968V60ZM137.738 52.368V51.36H143.402V52.368H137.738ZM148.328 60.232C147.315 60.232 146.48 60.0133 145.824 59.576C145.174 59.1387 144.774 58.5307 144.624 57.752L145.824 57.552C145.952 58.0427 146.243 58.4347 146.696 58.728C147.155 59.016 147.72 59.16 148.392 59.16C149.048 59.16 149.566 59.024 149.944 58.752C150.323 58.4747 150.512 58.0987 150.512 57.624C150.512 57.3573 150.451 57.1413 150.328 56.976C150.211 56.8053 149.968 56.648 149.6 56.504C149.232 56.36 148.683 56.1893 147.952 55.992C147.168 55.7787 146.555 55.5653 146.112 55.352C145.67 55.1387 145.355 54.8933 145.168 54.616C144.982 54.3333 144.888 53.9893 144.888 53.584C144.888 53.0933 145.027 52.664 145.304 52.296C145.582 51.9227 145.966 51.6347 146.456 51.432C146.947 51.224 147.518 51.12 148.168 51.12C148.819 51.12 149.4 51.2267 149.912 51.44C150.43 51.648 150.846 51.9413 151.16 52.32C151.475 52.6987 151.662 53.1387 151.72 53.64L150.52 53.856C150.44 53.3493 150.187 52.9493 149.76 52.656C149.339 52.3573 148.803 52.2027 148.152 52.192C147.539 52.176 147.04 52.2933 146.656 52.544C146.272 52.7893 146.08 53.1173 146.08 53.528C146.08 53.7573 146.15 53.9547 146.288 54.12C146.427 54.28 146.678 54.432 147.04 54.576C147.408 54.72 147.931 54.8773 148.608 55.048C149.403 55.2507 150.027 55.464 150.48 55.688C150.934 55.912 151.256 56.176 151.448 56.48C151.64 56.784 151.736 57.16 151.736 57.608C151.736 58.424 151.432 59.0667 150.824 59.536C150.222 60 149.39 60.232 148.328 60.232ZM162.954 60V55.592C162.954 55.112 162.908 54.672 162.818 54.272C162.727 53.8667 162.58 53.5147 162.378 53.216C162.18 52.912 161.922 52.6773 161.602 52.512C161.287 52.3467 160.903 52.264 160.45 52.264C160.034 52.264 159.666 52.336 159.346 52.48C159.031 52.624 158.764 52.832 158.546 53.104C158.332 53.3707 158.17 53.696 158.058 54.08C157.946 54.464 157.89 54.9013 157.89 55.392L157.058 55.208C157.058 54.3227 157.212 53.5787 157.522 52.976C157.831 52.3733 158.258 51.9173 158.802 51.608C159.346 51.2987 159.97 51.144 160.674 51.144C161.191 51.144 161.642 51.224 162.026 51.384C162.415 51.544 162.743 51.76 163.01 52.032C163.282 52.304 163.5 52.616 163.666 52.968C163.831 53.3147 163.951 53.6853 164.026 54.08C164.1 54.4693 164.138 54.8587 164.138 55.248V60H162.954ZM156.706 60V48.48H157.77V54.984H157.89V60H156.706ZM168.686 60.24C168.035 60.24 167.488 60.1227 167.046 59.888C166.608 59.6533 166.28 59.3413 166.062 58.952C165.843 58.5627 165.734 58.1387 165.734 57.68C165.734 57.2107 165.827 56.8107 166.014 56.48C166.206 56.144 166.464 55.8693 166.79 55.656C167.12 55.4427 167.502 55.28 167.934 55.168C168.371 55.0613 168.854 54.968 169.382 54.888C169.915 54.8027 170.435 54.7307 170.942 54.672C171.454 54.608 171.902 54.5467 172.286 54.488L171.87 54.744C171.886 53.8907 171.72 53.2587 171.374 52.848C171.027 52.4373 170.424 52.232 169.566 52.232C168.974 52.232 168.472 52.3653 168.062 52.632C167.656 52.8987 167.371 53.32 167.206 53.896L166.062 53.56C166.259 52.7867 166.656 52.1867 167.254 51.76C167.851 51.3333 168.627 51.12 169.582 51.12C170.371 51.12 171.04 51.2693 171.59 51.568C172.144 51.8613 172.536 52.288 172.766 52.848C172.872 53.0987 172.942 53.3787 172.974 53.688C173.006 53.9973 173.022 54.312 173.022 54.632V60H171.974V57.832L172.278 57.96C171.984 58.7013 171.528 59.2667 170.91 59.656C170.291 60.0453 169.55 60.24 168.686 60.24ZM168.822 59.224C169.371 59.224 169.851 59.1253 170.262 58.928C170.672 58.7307 171.003 58.4613 171.254 58.12C171.504 57.7733 171.667 57.384 171.742 56.952C171.806 56.6747 171.84 56.3707 171.846 56.04C171.851 55.704 171.854 55.4533 171.854 55.288L172.302 55.52C171.902 55.5733 171.467 55.6267 170.998 55.68C170.534 55.7333 170.075 55.7947 169.622 55.864C169.174 55.9333 168.768 56.016 168.406 56.112C168.16 56.1813 167.923 56.28 167.694 56.408C167.464 56.5307 167.275 56.696 167.126 56.904C166.982 57.112 166.91 57.3707 166.91 57.68C166.91 57.9307 166.971 58.1733 167.094 58.408C167.222 58.6427 167.424 58.8373 167.702 58.992C167.984 59.1467 168.358 59.224 168.822 59.224ZM177.128 60L173.992 51.36H175.184L177.736 58.464L180.272 51.36H181.48L178.344 60H177.128ZM186.26 60.24C185.418 60.24 184.687 60.0533 184.068 59.68C183.455 59.3067 182.978 58.7813 182.636 58.104C182.295 57.4267 182.124 56.632 182.124 55.72C182.124 54.776 182.292 53.96 182.628 53.272C182.964 52.584 183.436 52.0533 184.044 51.68C184.658 51.3067 185.38 51.12 186.212 51.12C187.066 51.12 187.794 51.3173 188.396 51.712C188.999 52.1013 189.455 52.6613 189.764 53.392C190.074 54.1227 190.215 54.9947 190.188 56.008H188.988V55.592C188.967 54.472 188.724 53.6267 188.26 53.056C187.802 52.4853 187.13 52.2 186.244 52.2C185.316 52.2 184.604 52.5013 184.108 53.104C183.618 53.7067 183.372 54.5653 183.372 55.68C183.372 56.768 183.618 57.6133 184.108 58.216C184.604 58.8133 185.306 59.112 186.212 59.112C186.831 59.112 187.37 58.9707 187.828 58.688C188.292 58.4 188.658 57.9867 188.924 57.448L190.02 57.872C189.679 58.624 189.175 59.208 188.508 59.624C187.847 60.0347 187.098 60.24 186.26 60.24ZM182.956 56.008V55.024H189.556V56.008H182.956ZM5.824 84C5.33867 84.1013 4.85867 84.1413 4.384 84.12C3.91467 84.0987 3.49333 83.9973 3.12 83.816C2.752 83.6347 2.472 83.352 2.28 82.968C2.12533 82.648 2.04 82.3253 2.024 82C2.01333 81.6693 2.008 81.2933 2.008 80.872V72.96H3.176V80.824C3.176 81.1867 3.17867 81.4907 3.184 81.736C3.19467 81.976 3.25067 82.1893 3.352 82.376C3.544 82.7333 3.848 82.9467 4.264 83.016C4.68533 83.0853 5.20533 83.0693 5.824 82.968V84ZM0.16 76.368V75.36H5.824V76.368H0.16ZM13.7663 84V79.592C13.7663 79.112 13.7209 78.672 13.6303 78.272C13.5396 77.8667 13.3929 77.5147 13.1903 77.216C12.9929 76.912 12.7343 76.6773 12.4143 76.512C12.0996 76.3467 11.7156 76.264 11.2623 76.264C10.8463 76.264 10.4783 76.336 10.1583 76.48C9.84358 76.624 9.57692 76.832 9.35825 77.104C9.14492 77.3707 8.98225 77.696 8.87025 78.08C8.75825 78.464 8.70225 78.9013 8.70225 79.392L7.87025 79.208C7.87025 78.3227 8.02492 77.5787 8.33425 76.976C8.64358 76.3733 9.07025 75.9173 9.61425 75.608C10.1583 75.2987 10.7823 75.144 11.4863 75.144C12.0036 75.144 12.4543 75.224 12.8383 75.384C13.2276 75.544 13.5556 75.76 13.8223 76.032C14.0943 76.304 14.3129 76.616 14.4783 76.968C14.6436 77.3147 14.7636 77.6853 14.8383 78.08C14.9129 78.4693 14.9503 78.8587 14.9503 79.248V84H13.7663ZM7.51825 84V72.48H8.58225V78.984H8.70225V84H7.51825ZM20.6823 84.24C19.8396 84.24 19.1089 84.0533 18.4903 83.68C17.8769 83.3067 17.3996 82.7813 17.0583 82.104C16.7169 81.4267 16.5463 80.632 16.5463 79.72C16.5463 78.776 16.7143 77.96 17.0503 77.272C17.3863 76.584 17.8583 76.0533 18.4663 75.68C19.0796 75.3067 19.8023 75.12 20.6343 75.12C21.4876 75.12 22.2156 75.3173 22.8183 75.712C23.4209 76.1013 23.8769 76.6613 24.1863 77.392C24.4956 78.1227 24.6369 78.9947 24.6103 80.008H23.4103V79.592C23.3889 78.472 23.1463 77.6267 22.6823 77.056C22.2236 76.4853 21.5516 76.2 20.6663 76.2C19.7383 76.2 19.0263 76.5013 18.5303 77.104C18.0396 77.7067 17.7943 78.5653 17.7943 79.68C17.7943 80.768 18.0396 81.6133 18.5303 82.216C19.0263 82.8133 19.7276 83.112 20.6343 83.112C21.2529 83.112 21.7916 82.9707 22.2503 82.688C22.7143 82.4 23.0796 81.9867 23.3463 81.448L24.4423 81.872C24.1009 82.624 23.5969 83.208 22.9303 83.624C22.2689 84.0347 21.5196 84.24 20.6823 84.24ZM17.3783 80.008V79.024H23.9783V80.008H17.3783ZM32.8128 84.232C31.7994 84.232 30.9648 84.0133 30.3088 83.576C29.6581 83.1387 29.2581 82.5307 29.1088 81.752L30.3088 81.552C30.4368 82.0427 30.7274 82.4347 31.1808 82.728C31.6394 83.016 32.2048 83.16 32.8767 83.16C33.5328 83.16 34.0501 83.024 34.4288 82.752C34.8074 82.4747 34.9968 82.0987 34.9968 81.624C34.9968 81.3573 34.9354 81.1413 34.8128 80.976C34.6954 80.8053 34.4528 80.648 34.0848 80.504C33.7168 80.36 33.1674 80.1893 32.4368 79.992C31.6528 79.7787 31.0394 79.5653 30.5968 79.352C30.1541 79.1387 29.8394 78.8933 29.6528 78.616C29.4661 78.3333 29.3728 77.9893 29.3728 77.584C29.3728 77.0933 29.5114 76.664 29.7888 76.296C30.0661 75.9227 30.4501 75.6347 30.9408 75.432C31.4314 75.224 32.0021 75.12 32.6528 75.12C33.3034 75.12 33.8848 75.2267 34.3968 75.44C34.9141 75.648 35.3301 75.9413 35.6448 76.32C35.9594 76.6987 36.1461 77.1387 36.2048 77.64L35.0048 77.856C34.9248 77.3493 34.6714 76.9493 34.2448 76.656C33.8234 76.3573 33.2874 76.2027 32.6368 76.192C32.0234 76.176 31.5248 76.2933 31.1408 76.544C30.7568 76.7893 30.5648 77.1173 30.5648 77.528C30.5648 77.7573 30.6341 77.9547 30.7728 78.12C30.9114 78.28 31.1621 78.432 31.5248 78.576C31.8928 78.72 32.4154 78.8773 33.0928 79.048C33.8874 79.2507 34.5114 79.464 34.9648 79.688C35.4181 79.912 35.7408 80.176 35.9328 80.48C36.1248 80.784 36.2208 81.16 36.2208 81.608C36.2208 82.424 35.9168 83.0667 35.3088 83.536C34.7061 84 33.8741 84.232 32.8128 84.232ZM48.299 84L48.307 78.328C48.307 77.6613 48.1203 77.1387 47.747 76.76C47.379 76.376 46.9097 76.184 46.339 76.184C46.0137 76.184 45.6963 76.2587 45.387 76.408C45.0777 76.5573 44.8217 76.7973 44.619 77.128C44.4217 77.4587 44.323 77.8907 44.323 78.424L43.627 78.224C43.611 77.6053 43.731 77.064 43.987 76.6C44.2483 76.136 44.6057 75.776 45.059 75.52C45.5177 75.2587 46.035 75.128 46.611 75.128C47.4803 75.128 48.1763 75.3973 48.699 75.936C49.2217 76.4693 49.483 77.192 49.483 78.104L49.475 84H48.299ZM37.987 84V75.36H39.043V77.488H39.171V84H37.987ZM43.155 84L43.163 78.408C43.163 77.72 42.979 77.1787 42.611 76.784C42.2483 76.384 41.7683 76.184 41.171 76.184C40.5737 76.184 40.091 76.3893 39.723 76.8C39.355 77.2053 39.171 77.7467 39.171 78.424L38.467 78.04C38.467 77.4853 38.5977 76.9893 38.859 76.552C39.1203 76.1093 39.4777 75.7627 39.931 75.512C40.3843 75.256 40.899 75.128 41.475 75.128C42.0243 75.128 42.5123 75.2453 42.939 75.48C43.371 75.7147 43.7097 76.056 43.955 76.504C44.2003 76.952 44.323 77.496 44.323 78.136L44.315 84H43.155ZM54.0295 84.24C53.3788 84.24 52.8322 84.1227 52.3895 83.888C51.9522 83.6533 51.6242 83.3413 51.4055 82.952C51.1868 82.5627 51.0775 82.1387 51.0775 81.68C51.0775 81.2107 51.1708 80.8107 51.3575 80.48C51.5495 80.144 51.8082 79.8693 52.1335 79.656C52.4642 79.4427 52.8455 79.28 53.2775 79.168C53.7148 79.0613 54.1975 78.968 54.7255 78.888C55.2588 78.8027 55.7788 78.7307 56.2855 78.672C56.7975 78.608 57.2455 78.5467 57.6295 78.488L57.2135 78.744C57.2295 77.8907 57.0642 77.2587 56.7175 76.848C56.3708 76.4373 55.7682 76.232 54.9095 76.232C54.3175 76.232 53.8162 76.3653 53.4055 76.632C53.0002 76.8987 52.7148 77.32 52.5495 77.896L51.4055 77.56C51.6028 76.7867 52.0002 76.1867 52.5975 75.76C53.1948 75.3333 53.9708 75.12 54.9255 75.12C55.7148 75.12 56.3842 75.2693 56.9335 75.568C57.4882 75.8613 57.8802 76.288 58.1095 76.848C58.2162 77.0987 58.2855 77.3787 58.3175 77.688C58.3495 77.9973 58.3655 78.312 58.3655 78.632V84H57.3175V81.832L57.6215 81.96C57.3282 82.7013 56.8722 83.2667 56.2535 83.656C55.6348 84.0453 54.8935 84.24 54.0295 84.24ZM54.1655 83.224C54.7148 83.224 55.1948 83.1253 55.6055 82.928C56.0162 82.7307 56.3468 82.4613 56.5975 82.12C56.8482 81.7733 57.0108 81.384 57.0855 80.952C57.1495 80.6747 57.1842 80.3707 57.1895 80.04C57.1948 79.704 57.1975 79.4533 57.1975 79.288L57.6455 79.52C57.2455 79.5733 56.8108 79.6267 56.3415 79.68C55.8775 79.7333 55.4188 79.7947 54.9655 79.864C54.5175 79.9333 54.1122 80.016 53.7495 80.112C53.5042 80.1813 53.2668 80.28 53.0375 80.408C52.8082 80.5307 52.6188 80.696 52.4695 80.904C52.3255 81.112 52.2535 81.3707 52.2535 81.68C52.2535 81.9307 52.3148 82.1733 52.4375 82.408C52.5655 82.6427 52.7682 82.8373 53.0455 82.992C53.3282 83.1467 53.7015 83.224 54.1655 83.224ZM60.6081 84V72.24H61.7841V84H60.6081ZM64.3425 84V72.24H65.5185V84H64.3425ZM71.5729 84.24C70.7302 84.24 69.9995 84.0533 69.3809 83.68C68.7675 83.3067 68.2902 82.7813 67.9489 82.104C67.6075 81.4267 67.4369 80.632 67.4369 79.72C67.4369 78.776 67.6049 77.96 67.9409 77.272C68.2769 76.584 68.7489 76.0533 69.3569 75.68C69.9702 75.3067 70.6929 75.12 71.5249 75.12C72.3782 75.12 73.1062 75.3173 73.7089 75.712C74.3115 76.1013 74.7675 76.6613 75.0769 77.392C75.3862 78.1227 75.5275 78.9947 75.5009 80.008H74.3009V79.592C74.2795 78.472 74.0369 77.6267 73.5729 77.056C73.1142 76.4853 72.4422 76.2 71.5569 76.2C70.6289 76.2 69.9169 76.5013 69.4209 77.104C68.9302 77.7067 68.6849 78.5653 68.6849 79.68C68.6849 80.768 68.9302 81.6133 69.4209 82.216C69.9169 82.8133 70.6182 83.112 71.5249 83.112C72.1435 83.112 72.6822 82.9707 73.1409 82.688C73.6049 82.4 73.9702 81.9867 74.2369 81.448L75.3329 81.872C74.9915 82.624 74.4875 83.208 73.8209 83.624C73.1595 84.0347 72.4102 84.24 71.5729 84.24ZM68.2689 80.008V79.024H74.8689V80.008H68.2689ZM80.5003 84.232C79.4869 84.232 78.6523 84.0133 77.9963 83.576C77.3456 83.1387 76.9456 82.5307 76.7963 81.752L77.9963 81.552C78.1243 82.0427 78.4149 82.4347 78.8683 82.728C79.3269 83.016 79.8923 83.16 80.5642 83.16C81.2203 83.16 81.7376 83.024 82.1163 82.752C82.4949 82.4747 82.6843 82.0987 82.6843 81.624C82.6843 81.3573 82.6229 81.1413 82.5003 80.976C82.3829 80.8053 82.1403 80.648 81.7723 80.504C81.4043 80.36 80.8549 80.1893 80.1243 79.992C79.3403 79.7787 78.7269 79.5653 78.2843 79.352C77.8416 79.1387 77.5269 78.8933 77.3403 78.616C77.1536 78.3333 77.0603 77.9893 77.0603 77.584C77.0603 77.0933 77.1989 76.664 77.4763 76.296C77.7536 75.9227 78.1376 75.6347 78.6283 75.432C79.1189 75.224 79.6896 75.12 80.3403 75.12C80.9909 75.12 81.5723 75.2267 82.0843 75.44C82.6016 75.648 83.0176 75.9413 83.3323 76.32C83.6469 76.6987 83.8336 77.1387 83.8923 77.64L82.6923 77.856C82.6123 77.3493 82.3589 76.9493 81.9323 76.656C81.5109 76.3573 80.9749 76.2027 80.3243 76.192C79.7109 76.176 79.2123 76.2933 78.8283 76.544C78.4443 76.7893 78.2523 77.1173 78.2523 77.528C78.2523 77.7573 78.3216 77.9547 78.4603 78.12C78.5989 78.28 78.8496 78.432 79.2123 78.576C79.5803 78.72 80.1029 78.8773 80.7803 79.048C81.5749 79.2507 82.1989 79.464 82.6523 79.688C83.1056 79.912 83.4283 80.176 83.6203 80.48C83.8123 80.784 83.9083 81.16 83.9083 81.608C83.9083 82.424 83.6043 83.0667 82.9963 83.536C82.3936 84 81.5616 84.232 80.5003 84.232ZM90.3865 84C89.9012 84.1013 89.4212 84.1413 88.9465 84.12C88.4772 84.0987 88.0558 83.9973 87.6825 83.816C87.3145 83.6347 87.0345 83.352 86.8425 82.968C86.6878 82.648 86.6025 82.3253 86.5865 82C86.5758 81.6693 86.5705 81.2933 86.5705 80.872V72.96H87.7385V80.824C87.7385 81.1867 87.7412 81.4907 87.7465 81.736C87.7572 81.976 87.8132 82.1893 87.9145 82.376C88.1065 82.7333 88.4105 82.9467 88.8265 83.016C89.2478 83.0853 89.7678 83.0693 90.3865 82.968V84ZM84.7225 76.368V75.36H90.3865V76.368H84.7225ZM98.8759 84.24C98.0065 84.24 97.2705 84.0453 96.6679 83.656C96.0652 83.2667 95.6065 82.7307 95.2919 82.048C94.9825 81.36 94.8225 80.5707 94.8119 79.68C94.8225 78.7733 94.9879 77.9787 95.3079 77.296C95.6279 76.608 96.0892 76.0747 96.6919 75.696C97.2945 75.312 98.0252 75.12 98.8839 75.12C99.7585 75.12 100.519 75.3333 101.164 75.76C101.815 76.1867 102.26 76.7707 102.5 77.512L101.348 77.88C101.145 77.3627 100.823 76.9627 100.38 76.68C99.9425 76.392 99.4412 76.248 98.8759 76.248C98.2412 76.248 97.7159 76.3947 97.2999 76.688C96.8839 76.976 96.5745 77.3787 96.3719 77.896C96.1692 78.4133 96.0652 79.008 96.0599 79.68C96.0705 80.7147 96.3105 81.5467 96.7799 82.176C97.2492 82.8 97.9479 83.112 98.8759 83.112C99.4625 83.112 99.9612 82.9787 100.372 82.712C100.788 82.44 101.103 82.0453 101.316 81.528L102.5 81.88C102.18 82.648 101.711 83.2347 101.092 83.64C100.473 84.04 99.7345 84.24 98.8759 84.24ZM106.561 84.24C105.91 84.24 105.363 84.1227 104.921 83.888C104.483 83.6533 104.155 83.3413 103.937 82.952C103.718 82.5627 103.609 82.1387 103.609 81.68C103.609 81.2107 103.702 80.8107 103.889 80.48C104.081 80.144 104.339 79.8693 104.665 79.656C104.995 79.4427 105.377 79.28 105.809 79.168C106.246 79.0613 106.729 78.968 107.257 78.888C107.79 78.8027 108.31 78.7307 108.817 78.672C109.329 78.608 109.777 78.5467 110.161 78.488L109.745 78.744C109.761 77.8907 109.595 77.2587 109.249 76.848C108.902 76.4373 108.299 76.232 107.441 76.232C106.849 76.232 106.347 76.3653 105.937 76.632C105.531 76.8987 105.246 77.32 105.081 77.896L103.937 77.56C104.134 76.7867 104.531 76.1867 105.129 75.76C105.726 75.3333 106.502 75.12 107.457 75.12C108.246 75.12 108.915 75.2693 109.465 75.568C110.019 75.8613 110.411 76.288 110.641 76.848C110.747 77.0987 110.817 77.3787 110.849 77.688C110.881 77.9973 110.897 78.312 110.897 78.632V84H109.849V81.832L110.153 81.96C109.859 82.7013 109.403 83.2667 108.785 83.656C108.166 84.0453 107.425 84.24 106.561 84.24ZM106.697 83.224C107.246 83.224 107.726 83.1253 108.137 82.928C108.547 82.7307 108.878 82.4613 109.129 82.12C109.379 81.7733 109.542 81.384 109.617 80.952C109.681 80.6747 109.715 80.3707 109.721 80.04C109.726 79.704 109.729 79.4533 109.729 79.288L110.177 79.52C109.777 79.5733 109.342 79.6267 108.873 79.68C108.409 79.7333 107.95 79.7947 107.497 79.864C107.049 79.9333 106.643 80.016 106.281 80.112C106.035 80.1813 105.798 80.28 105.569 80.408C105.339 80.5307 105.15 80.696 105.001 80.904C104.857 81.112 104.785 81.3707 104.785 81.68C104.785 81.9307 104.846 82.1733 104.969 82.408C105.097 82.6427 105.299 82.8373 105.577 82.992C105.859 83.1467 106.233 83.224 106.697 83.224ZM112.979 84V75.36H114.035V77.44L113.827 77.168C113.923 76.912 114.049 76.6773 114.203 76.464C114.358 76.2453 114.526 76.0667 114.707 75.928C114.931 75.7307 115.193 75.5813 115.491 75.48C115.79 75.3733 116.091 75.312 116.395 75.296C116.699 75.2747 116.977 75.296 117.227 75.36V76.464C116.913 76.384 116.569 76.3653 116.195 76.408C115.822 76.4507 115.478 76.6 115.163 76.856C114.875 77.08 114.659 77.3493 114.515 77.664C114.371 77.9733 114.275 78.304 114.227 78.656C114.179 79.0027 114.155 79.3467 114.155 79.688V84H112.979ZM122.625 84.24C121.83 84.24 121.158 84.04 120.609 83.64C120.06 83.2347 119.644 82.688 119.361 82C119.078 81.3067 118.937 80.5307 118.937 79.672C118.937 78.7973 119.078 78.0187 119.361 77.336C119.649 76.648 120.07 76.1067 120.625 75.712C121.18 75.3173 121.862 75.12 122.673 75.12C123.462 75.12 124.14 75.32 124.705 75.72C125.27 76.12 125.702 76.664 126.001 77.352C126.305 78.04 126.457 78.8133 126.457 79.672C126.457 80.536 126.305 81.312 126.001 82C125.697 82.688 125.26 83.2347 124.689 83.64C124.118 84.04 123.43 84.24 122.625 84.24ZM118.737 84V72.48H119.921V77.496H119.793V84H118.737ZM122.505 83.144C123.108 83.144 123.609 82.992 124.009 82.688C124.409 82.384 124.708 81.9707 124.905 81.448C125.108 80.92 125.209 80.328 125.209 79.672C125.209 79.0213 125.11 78.4347 124.913 77.912C124.716 77.3893 124.414 76.976 124.009 76.672C123.609 76.368 123.1 76.216 122.481 76.216C121.878 76.216 121.377 76.3627 120.977 76.656C120.582 76.9493 120.286 77.3573 120.089 77.88C119.892 78.3973 119.793 78.9947 119.793 79.672C119.793 80.3387 119.892 80.936 120.089 81.464C120.286 81.9867 120.585 82.3973 120.985 82.696C121.385 82.9947 121.892 83.144 122.505 83.144ZM131.822 84.24C130.963 84.24 130.23 84.0453 129.622 83.656C129.014 83.2667 128.547 82.728 128.222 82.04C127.896 81.352 127.734 80.5627 127.734 79.672C127.734 78.7653 127.899 77.9707 128.23 77.288C128.56 76.6053 129.03 76.0747 129.638 75.696C130.251 75.312 130.979 75.12 131.822 75.12C132.686 75.12 133.422 75.3147 134.03 75.704C134.643 76.088 135.11 76.624 135.43 77.312C135.755 77.9947 135.918 78.7813 135.918 79.672C135.918 80.5787 135.755 81.376 135.43 82.064C135.104 82.7467 134.635 83.28 134.022 83.664C133.408 84.048 132.675 84.24 131.822 84.24ZM131.822 83.112C132.782 83.112 133.496 82.7947 133.966 82.16C134.435 81.52 134.67 80.6907 134.67 79.672C134.67 78.6267 134.432 77.7947 133.958 77.176C133.488 76.5573 132.776 76.248 131.822 76.248C131.176 76.248 130.643 76.3947 130.222 76.688C129.806 76.976 129.494 77.3787 129.286 77.896C129.083 78.408 128.982 79 128.982 79.672C128.982 80.712 129.222 81.5467 129.702 82.176C130.182 82.8 130.888 83.112 131.822 83.112ZM143.923 84V79.592C143.923 79.112 143.877 78.672 143.787 78.272C143.696 77.8667 143.549 77.5147 143.347 77.216C143.149 76.912 142.891 76.6773 142.571 76.512C142.256 76.3467 141.872 76.264 141.419 76.264C141.003 76.264 140.635 76.336 140.315 76.48C140 76.624 139.733 76.832 139.515 77.104C139.301 77.3707 139.139 77.696 139.027 78.08C138.915 78.464 138.859 78.9013 138.859 79.392L138.027 79.208C138.027 78.3227 138.181 77.5787 138.491 76.976C138.8 76.3733 139.227 75.9173 139.771 75.608C140.315 75.2987 140.939 75.144 141.643 75.144C142.16 75.144 142.611 75.224 142.995 75.384C143.384 75.544 143.712 75.76 143.979 76.032C144.251 76.304 144.469 76.616 144.635 76.968C144.8 77.3147 144.92 77.6853 144.995 78.08C145.069 78.4693 145.107 78.8587 145.107 79.248V84H143.923ZM137.675 84V75.36H138.739V77.488H138.859V84H137.675ZM1.976 108V98.72C1.976 98.496 1.98667 98.2747 2.008 98.056C2.03467 97.8373 2.08533 97.6293 2.16 97.432C2.23467 97.2293 2.352 97.0427 2.512 96.872C2.688 96.68 2.88 96.5413 3.088 96.456C3.296 96.3653 3.512 96.3067 3.736 96.28C3.96533 96.2533 4.18933 96.24 4.408 96.24H5.512V97.232H4.488C4.04 97.232 3.704 97.3413 3.48 97.56C3.26133 97.7787 3.152 98.1227 3.152 98.592V108H1.976ZM0.48 100.368V99.36H5.512V100.368H0.48ZM10.0874 108.24C9.22871 108.24 8.49538 108.045 7.88738 107.656C7.27938 107.267 6.81271 106.728 6.48738 106.04C6.16204 105.352 5.99938 104.563 5.99938 103.672C5.99938 102.765 6.16471 101.971 6.49538 101.288C6.82604 100.605 7.29538 100.075 7.90338 99.696C8.51671 99.312 9.24471 99.12 10.0874 99.12C10.9514 99.12 11.6874 99.3147 12.2954 99.704C12.9087 100.088 13.3754 100.624 13.6954 101.312C14.0207 101.995 14.1834 102.781 14.1834 103.672C14.1834 104.579 14.0207 105.376 13.6954 106.064C13.37 106.747 12.9007 107.28 12.2874 107.664C11.674 108.048 10.9407 108.24 10.0874 108.24ZM10.0874 107.112C11.0474 107.112 11.762 106.795 12.2314 106.16C12.7007 105.52 12.9354 104.691 12.9354 103.672C12.9354 102.627 12.698 101.795 12.2234 101.176C11.754 100.557 11.042 100.248 10.0874 100.248C9.44204 100.248 8.90871 100.395 8.48738 100.688C8.07138 100.976 7.75938 101.379 7.55138 101.896C7.34871 102.408 7.24738 103 7.24738 103.672C7.24738 104.712 7.48738 105.547 7.96738 106.176C8.44738 106.8 9.15404 107.112 10.0874 107.112ZM19.5561 108.24C18.6975 108.24 17.9641 108.045 17.3561 107.656C16.7481 107.267 16.2815 106.728 15.9561 106.04C15.6308 105.352 15.4681 104.563 15.4681 103.672C15.4681 102.765 15.6335 101.971 15.9641 101.288C16.2948 100.605 16.7641 100.075 17.3721 99.696C17.9855 99.312 18.7135 99.12 19.5561 99.12C20.4201 99.12 21.1561 99.3147 21.7641 99.704C22.3775 100.088 22.8441 100.624 23.1641 101.312C23.4895 101.995 23.6521 102.781 23.6521 103.672C23.6521 104.579 23.4895 105.376 23.1641 106.064C22.8388 106.747 22.3695 107.28 21.7561 107.664C21.1428 108.048 20.4095 108.24 19.5561 108.24ZM19.5561 107.112C20.5161 107.112 21.2308 106.795 21.7001 106.16C22.1695 105.52 22.4041 104.691 22.4041 103.672C22.4041 102.627 22.1668 101.795 21.6921 101.176C21.2228 100.557 20.5108 100.248 19.5561 100.248C18.9108 100.248 18.3775 100.395 17.9561 100.688C17.5401 100.976 17.2281 101.379 17.0201 101.896C16.8175 102.408 16.7161 103 16.7161 103.672C16.7161 104.712 16.9561 105.547 17.4361 106.176C17.9161 106.8 18.6228 107.112 19.5561 107.112ZM30.1209 108C29.6355 108.101 29.1555 108.141 28.6809 108.12C28.2115 108.099 27.7902 107.997 27.4169 107.816C27.0489 107.635 26.7689 107.352 26.5769 106.968C26.4222 106.648 26.3369 106.325 26.3209 106C26.3102 105.669 26.3049 105.293 26.3049 104.872V96.96H27.4729V104.824C27.4729 105.187 27.4755 105.491 27.4809 105.736C27.4915 105.976 27.5475 106.189 27.6489 106.376C27.8409 106.733 28.1449 106.947 28.5609 107.016C28.9822 107.085 29.5022 107.069 30.1209 106.968V108ZM24.4569 100.368V99.36H30.1209V100.368H24.4569ZM35.7031 108.24C34.9085 108.24 34.2365 108.04 33.6871 107.64C33.1378 107.235 32.7218 106.688 32.4391 106C32.1565 105.307 32.0151 104.531 32.0151 103.672C32.0151 102.797 32.1565 102.019 32.4391 101.336C32.7271 100.648 33.1485 100.107 33.7031 99.712C34.2578 99.3173 34.9405 99.12 35.7511 99.12C36.5405 99.12 37.2178 99.32 37.7831 99.72C38.3485 100.12 38.7805 100.664 39.0791 101.352C39.3831 102.04 39.5351 102.813 39.5351 103.672C39.5351 104.536 39.3831 105.312 39.0791 106C38.7751 106.688 38.3378 107.235 37.7671 107.64C37.1965 108.04 36.5085 108.24 35.7031 108.24ZM31.8151 111.84V99.36H32.8711V105.864H32.9991V111.84H31.8151ZM35.5831 107.144C36.1858 107.144 36.6871 106.992 37.0871 106.688C37.4871 106.384 37.7858 105.971 37.9831 105.448C38.1858 104.92 38.2871 104.328 38.2871 103.672C38.2871 103.021 38.1885 102.435 37.9911 101.912C37.7938 101.389 37.4925 100.976 37.0871 100.672C36.6871 100.368 36.1778 100.216 35.5591 100.216C34.9565 100.216 34.4551 100.363 34.0551 100.656C33.6605 100.949 33.3645 101.357 33.1671 101.88C32.9698 102.397 32.8711 102.995 32.8711 103.672C32.8711 104.339 32.9698 104.936 33.1671 105.464C33.3645 105.987 33.6631 106.397 34.0631 106.696C34.4631 106.995 34.9698 107.144 35.5831 107.144ZM41.2919 108V99.36H42.3479V101.44L42.1399 101.168C42.2359 100.912 42.3612 100.677 42.5159 100.464C42.6705 100.245 42.8385 100.067 43.0199 99.928C43.2439 99.7307 43.5052 99.5813 43.8039 99.48C44.1025 99.3733 44.4039 99.312 44.7079 99.296C45.0119 99.2747 45.2892 99.296 45.5399 99.36V100.464C45.2252 100.384 44.8812 100.365 44.5079 100.408C44.1345 100.451 43.7905 100.6 43.4759 100.856C43.1879 101.08 42.9719 101.349 42.8279 101.664C42.6839 101.973 42.5879 102.304 42.5399 102.656C42.4919 103.003 42.4679 103.347 42.4679 103.688V108H41.2919ZM47.2175 97.72V96.4H48.3935V97.72H47.2175ZM47.2175 108V99.36H48.3935V108H47.2175ZM57.0319 108V103.592C57.0319 103.112 56.9865 102.672 56.8959 102.272C56.8052 101.867 56.6585 101.515 56.4559 101.216C56.2585 100.912 55.9999 100.677 55.6799 100.512C55.3652 100.347 54.9812 100.264 54.5279 100.264C54.1119 100.264 53.7439 100.336 53.4239 100.48C53.1092 100.624 52.8425 100.832 52.6239 101.104C52.4105 101.371 52.2479 101.696 52.1359 102.08C52.0239 102.464 51.9679 102.901 51.9679 103.392L51.1359 103.208C51.1359 102.323 51.2905 101.579 51.5999 100.976C51.9092 100.373 52.3359 99.9173 52.8799 99.608C53.4239 99.2987 54.0479 99.144 54.7519 99.144C55.2692 99.144 55.7199 99.224 56.1039 99.384C56.4932 99.544 56.8212 99.76 57.0879 100.032C57.3599 100.304 57.5785 100.616 57.7439 100.968C57.9092 101.315 58.0292 101.685 58.1039 102.08C58.1785 102.469 58.2159 102.859 58.2159 103.248V108H57.0319ZM50.7839 108V99.36H51.8479V101.488H51.9679V108H50.7839ZM64.9959 108C64.5105 108.101 64.0305 108.141 63.5559 108.12C63.0865 108.099 62.6652 107.997 62.2919 107.816C61.9239 107.635 61.6439 107.352 61.4519 106.968C61.2972 106.648 61.2119 106.325 61.1959 106C61.1852 105.669 61.1799 105.293 61.1799 104.872V96.96H62.3479V104.824C62.3479 105.187 62.3505 105.491 62.3559 105.736C62.3665 105.976 62.4225 106.189 62.5239 106.376C62.7159 106.733 63.0199 106.947 63.4359 107.016C63.8572 107.085 64.3772 107.069 64.9959 106.968V108ZM59.3319 100.368V99.36H64.9959V100.368H59.3319ZM73.7812 108.24C72.9866 108.24 72.3146 108.04 71.7653 107.64C71.2159 107.235 70.7999 106.688 70.5173 106C70.2346 105.307 70.0933 104.531 70.0933 103.672C70.0933 102.797 70.2346 102.019 70.5173 101.336C70.8053 100.648 71.2266 100.107 71.7813 99.712C72.3359 99.3173 73.0186 99.12 73.8293 99.12C74.6186 99.12 75.2959 99.32 75.8613 99.72C76.4266 100.12 76.8586 100.664 77.1573 101.352C77.4613 102.04 77.6133 102.813 77.6133 103.672C77.6133 104.536 77.4613 105.312 77.1573 106C76.8533 106.688 76.4159 107.235 75.8453 107.64C75.2746 108.04 74.5866 108.24 73.7812 108.24ZM69.8933 111.84V99.36H70.9493V105.864H71.0773V111.84H69.8933ZM73.6613 107.144C74.2639 107.144 74.7653 106.992 75.1653 106.688C75.5653 106.384 75.8639 105.971 76.0613 105.448C76.2639 104.92 76.3653 104.328 76.3653 103.672C76.3653 103.021 76.2666 102.435 76.0693 101.912C75.8719 101.389 75.5706 100.976 75.1653 100.672C74.7653 100.368 74.2559 100.216 73.6373 100.216C73.0346 100.216 72.5333 100.363 72.1333 100.656C71.7386 100.949 71.4426 101.357 71.2453 101.88C71.0479 102.397 70.9493 102.995 70.9493 103.672C70.9493 104.339 71.0479 104.936 71.2453 105.464C71.4426 105.987 71.7413 106.397 72.1413 106.696C72.5413 106.995 73.0479 107.144 73.6613 107.144ZM82.978 108.24C82.1193 108.24 81.386 108.045 80.778 107.656C80.17 107.267 79.7033 106.728 79.378 106.04C79.0527 105.352 78.89 104.563 78.89 103.672C78.89 102.765 79.0553 101.971 79.386 101.288C79.7167 100.605 80.186 100.075 80.794 99.696C81.4073 99.312 82.1353 99.12 82.978 99.12C83.842 99.12 84.578 99.3147 85.186 99.704C85.7993 100.088 86.266 100.624 86.586 101.312C86.9113 101.995 87.074 102.781 87.074 103.672C87.074 104.579 86.9113 105.376 86.586 106.064C86.2607 106.747 85.7913 107.28 85.178 107.664C84.5647 108.048 83.8313 108.24 82.978 108.24ZM82.978 107.112C83.938 107.112 84.6527 106.795 85.122 106.16C85.5913 105.52 85.826 104.691 85.826 103.672C85.826 102.627 85.5887 101.795 85.114 101.176C84.6447 100.557 83.9327 100.248 82.978 100.248C82.3327 100.248 81.7993 100.395 81.378 100.688C80.962 100.976 80.65 101.379 80.442 101.896C80.2393 102.408 80.138 103 80.138 103.672C80.138 104.712 80.378 105.547 80.858 106.176C81.338 106.8 82.0447 107.112 82.978 107.112ZM91.9846 108.232C90.9713 108.232 90.1366 108.013 89.4806 107.576C88.83 107.139 88.43 106.531 88.2806 105.752L89.4806 105.552C89.6086 106.043 89.8993 106.435 90.3526 106.728C90.8113 107.016 91.3766 107.16 92.0486 107.16C92.7046 107.16 93.222 107.024 93.6006 106.752C93.9793 106.475 94.1686 106.099 94.1686 105.624C94.1686 105.357 94.1073 105.141 93.9846 104.976C93.8673 104.805 93.6246 104.648 93.2566 104.504C92.8886 104.36 92.3393 104.189 91.6086 103.992C90.8246 103.779 90.2113 103.565 89.7686 103.352C89.326 103.139 89.0113 102.893 88.8246 102.616C88.638 102.333 88.5446 101.989 88.5446 101.584C88.5446 101.093 88.6833 100.664 88.9606 100.296C89.238 99.9227 89.622 99.6347 90.1126 99.432C90.6033 99.224 91.174 99.12 91.8246 99.12C92.4753 99.12 93.0566 99.2267 93.5686 99.44C94.086 99.648 94.502 99.9413 94.8166 100.32C95.1313 100.699 95.318 101.139 95.3766 101.64L94.1766 101.856C94.0966 101.349 93.8433 100.949 93.4166 100.656C92.9953 100.357 92.4593 100.203 91.8086 100.192C91.1953 100.176 90.6966 100.293 90.3126 100.544C89.9286 100.789 89.7366 101.117 89.7366 101.528C89.7366 101.757 89.806 101.955 89.9446 102.12C90.0833 102.28 90.334 102.432 90.6966 102.576C91.0646 102.72 91.5873 102.877 92.2646 103.048C93.0593 103.251 93.6833 103.464 94.1366 103.688C94.59 103.912 94.9126 104.176 95.1046 104.48C95.2966 104.784 95.3926 105.16 95.3926 105.608C95.3926 106.424 95.0886 107.067 94.4806 107.536C93.878 108 93.046 108.232 91.9846 108.232ZM100.391 108.232C99.3775 108.232 98.5429 108.013 97.8869 107.576C97.2362 107.139 96.8362 106.531 96.6869 105.752L97.8869 105.552C98.0149 106.043 98.3055 106.435 98.7589 106.728C99.2175 107.016 99.7829 107.16 100.455 107.16C101.111 107.16 101.628 107.024 102.007 106.752C102.386 106.475 102.575 106.099 102.575 105.624C102.575 105.357 102.514 105.141 102.391 104.976C102.274 104.805 102.031 104.648 101.663 104.504C101.295 104.36 100.746 104.189 100.015 103.992C99.2309 103.779 98.6175 103.565 98.1749 103.352C97.7322 103.139 97.4175 102.893 97.2309 102.616C97.0442 102.333 96.9509 101.989 96.9509 101.584C96.9509 101.093 97.0895 100.664 97.3669 100.296C97.6442 99.9227 98.0282 99.6347 98.5189 99.432C99.0095 99.224 99.5802 99.12 100.231 99.12C100.882 99.12 101.463 99.2267 101.975 99.44C102.492 99.648 102.908 99.9413 103.223 100.32C103.538 100.699 103.724 101.139 103.783 101.64L102.583 101.856C102.503 101.349 102.25 100.949 101.823 100.656C101.402 100.357 100.866 100.203 100.215 100.192C99.6015 100.176 99.1029 100.293 98.7189 100.544C98.3349 100.789 98.1429 101.117 98.1429 101.528C98.1429 101.757 98.2122 101.955 98.3509 102.12C98.4895 102.28 98.7402 102.432 99.1029 102.576C99.4709 102.72 99.9935 102.877 100.671 103.048C101.466 103.251 102.09 103.464 102.543 103.688C102.996 103.912 103.319 104.176 103.511 104.48C103.703 104.784 103.799 105.16 103.799 105.608C103.799 106.424 103.495 107.067 102.887 107.536C102.284 108 101.452 108.232 100.391 108.232ZM105.733 97.72V96.4H106.909V97.72H105.733ZM105.733 108V99.36H106.909V108H105.733ZM113.188 108.24C112.393 108.24 111.721 108.04 111.172 107.64C110.622 107.235 110.206 106.688 109.924 106C109.641 105.307 109.5 104.531 109.5 103.672C109.5 102.797 109.641 102.019 109.924 101.336C110.212 100.648 110.633 100.107 111.188 99.712C111.742 99.3173 112.425 99.12 113.236 99.12C114.025 99.12 114.702 99.32 115.268 99.72C115.833 100.12 116.265 100.664 116.564 101.352C116.868 102.04 117.02 102.813 117.02 103.672C117.02 104.536 116.868 105.312 116.564 106C116.26 106.688 115.822 107.235 115.252 107.64C114.681 108.04 113.993 108.24 113.188 108.24ZM109.3 108V96.48H110.484V101.496H110.356V108H109.3ZM113.068 107.144C113.67 107.144 114.172 106.992 114.572 106.688C114.972 106.384 115.27 105.971 115.468 105.448C115.67 104.92 115.772 104.328 115.772 103.672C115.772 103.021 115.673 102.435 115.476 101.912C115.278 101.389 114.977 100.976 114.572 100.672C114.172 100.368 113.662 100.216 113.044 100.216C112.441 100.216 111.94 100.363 111.54 100.656C111.145 100.949 110.849 101.357 110.652 101.88C110.454 102.397 110.356 102.995 110.356 103.672C110.356 104.339 110.454 104.936 110.652 105.464C110.849 105.987 111.148 106.397 111.548 106.696C111.948 106.995 112.454 107.144 113.068 107.144ZM118.936 108V96.24H120.112V108H118.936ZM126.167 108.24C125.324 108.24 124.593 108.053 123.975 107.68C123.361 107.307 122.884 106.781 122.543 106.104C122.201 105.427 122.031 104.632 122.031 103.72C122.031 102.776 122.199 101.96 122.535 101.272C122.871 100.584 123.343 100.053 123.951 99.68C124.564 99.3067 125.287 99.12 126.119 99.12C126.972 99.12 127.7 99.3173 128.303 99.712C128.905 100.101 129.361 100.661 129.671 101.392C129.98 102.123 130.121 102.995 130.095 104.008H128.895V103.592C128.873 102.472 128.631 101.627 128.167 101.056C127.708 100.485 127.036 100.2 126.151 100.2C125.223 100.2 124.511 100.501 124.015 101.104C123.524 101.707 123.279 102.565 123.279 103.68C123.279 104.768 123.524 105.613 124.015 106.216C124.511 106.813 125.212 107.112 126.119 107.112C126.737 107.112 127.276 106.971 127.735 106.688C128.199 106.4 128.564 105.987 128.831 105.448L129.927 105.872C129.585 106.624 129.081 107.208 128.415 107.624C127.753 108.035 127.004 108.24 126.167 108.24ZM122.863 104.008V103.024H129.463V104.008H122.863ZM138.425 108.24C137.62 108.24 136.932 108.04 136.361 107.64C135.79 107.235 135.353 106.688 135.049 106C134.745 105.312 134.593 104.536 134.593 103.672C134.593 102.813 134.742 102.04 135.041 101.352C135.345 100.664 135.78 100.12 136.345 99.72C136.91 99.32 137.588 99.12 138.377 99.12C139.188 99.12 139.87 99.3173 140.425 99.712C140.98 100.107 141.398 100.648 141.681 101.336C141.969 102.019 142.113 102.797 142.113 103.672C142.113 104.531 141.972 105.307 141.689 106C141.406 106.688 140.99 107.235 140.441 107.64C139.892 108.04 139.22 108.24 138.425 108.24ZM138.545 107.144C139.158 107.144 139.665 106.995 140.065 106.696C140.465 106.397 140.764 105.987 140.961 105.464C141.158 104.936 141.257 104.339 141.257 103.672C141.257 102.995 141.158 102.397 140.961 101.88C140.764 101.357 140.465 100.949 140.065 100.656C139.67 100.363 139.172 100.216 138.569 100.216C137.95 100.216 137.438 100.368 137.033 100.672C136.628 100.976 136.326 101.389 136.129 101.912C135.937 102.435 135.841 103.021 135.841 103.672C135.841 104.328 135.94 104.92 136.137 105.448C136.34 105.971 136.641 106.384 137.041 106.688C137.441 106.992 137.942 107.144 138.545 107.144ZM141.257 108V101.496H141.129V96.48H142.313V108H141.257ZM147.862 108.216C147.344 108.216 146.891 108.136 146.502 107.976C146.118 107.816 145.79 107.6 145.518 107.328C145.251 107.056 145.035 106.747 144.87 106.4C144.704 106.048 144.584 105.677 144.51 105.288C144.435 104.893 144.398 104.501 144.398 104.112V99.36H145.582V103.768C145.582 104.243 145.627 104.683 145.718 105.088C145.808 105.493 145.952 105.848 146.15 106.152C146.352 106.451 146.611 106.683 146.926 106.848C147.246 107.013 147.632 107.096 148.086 107.096C148.502 107.096 148.867 107.024 149.182 106.88C149.502 106.736 149.768 106.531 149.982 106.264C150.2 105.992 150.366 105.664 150.478 105.28C150.59 104.891 150.646 104.453 150.646 103.968L151.477 104.152C151.477 105.037 151.323 105.781 151.014 106.384C150.704 106.987 150.278 107.443 149.734 107.752C149.19 108.061 148.566 108.216 147.862 108.216ZM150.766 108V105.872H150.646V99.36H151.822V108H150.766ZM154.058 108V99.36H155.114V101.44L154.906 101.168C155.002 100.912 155.127 100.677 155.282 100.464C155.436 100.245 155.604 100.067 155.786 99.928C156.01 99.7307 156.271 99.5813 156.57 99.48C156.868 99.3733 157.17 99.312 157.474 99.296C157.778 99.2747 158.055 99.296 158.306 99.36V100.464C157.991 100.384 157.647 100.365 157.274 100.408C156.9 100.451 156.556 100.6 156.242 100.856C155.954 101.08 155.738 101.349 155.594 101.664C155.45 101.973 155.354 102.304 155.306 102.656C155.258 103.003 155.234 103.347 155.234 103.688V108H154.058ZM159.983 97.72V96.4H161.159V97.72H159.983ZM159.983 108V99.36H161.159V108H159.983ZM169.798 108V103.592C169.798 103.112 169.752 102.672 169.662 102.272C169.571 101.867 169.424 101.515 169.222 101.216C169.024 100.912 168.766 100.677 168.446 100.512C168.131 100.347 167.747 100.264 167.294 100.264C166.878 100.264 166.51 100.336 166.19 100.48C165.875 100.624 165.608 100.832 165.39 101.104C165.176 101.371 165.014 101.696 164.902 102.08C164.79 102.464 164.734 102.901 164.734 103.392L163.902 103.208C163.902 102.323 164.056 101.579 164.366 100.976C164.675 100.373 165.102 99.9173 165.646 99.608C166.19 99.2987 166.814 99.144 167.518 99.144C168.035 99.144 168.486 99.224 168.87 99.384C169.259 99.544 169.587 99.76 169.854 100.032C170.126 100.304 170.344 100.616 170.51 100.968C170.675 101.315 170.795 101.685 170.87 102.08C170.944 102.469 170.982 102.859 170.982 103.248V108H169.798ZM163.55 108V99.36H164.614V101.488H164.734V108H163.55ZM176.49 112.08C176.047 112.08 175.61 112.013 175.178 111.88C174.751 111.752 174.356 111.547 173.993 111.264C173.631 110.987 173.327 110.624 173.082 110.176L174.146 109.584C174.386 110.064 174.722 110.408 175.154 110.616C175.591 110.829 176.036 110.936 176.49 110.936C177.114 110.936 177.618 110.819 178.002 110.584C178.391 110.355 178.674 110.013 178.85 109.56C179.026 109.107 179.111 108.541 179.106 107.864V105.56H179.242V99.36H180.29V107.88C180.29 108.125 180.282 108.36 180.266 108.584C180.255 108.813 180.231 109.037 180.194 109.256C180.092 109.901 179.882 110.432 179.562 110.848C179.247 111.264 178.831 111.573 178.314 111.776C177.802 111.979 177.194 112.08 176.49 112.08ZM176.41 108.24C175.604 108.24 174.916 108.04 174.346 107.64C173.775 107.235 173.338 106.688 173.034 106C172.73 105.312 172.578 104.536 172.578 103.672C172.578 102.813 172.727 102.04 173.026 101.352C173.33 100.664 173.764 100.12 174.33 99.72C174.895 99.32 175.572 99.12 176.362 99.12C177.172 99.12 177.855 99.3173 178.41 99.712C178.964 100.107 179.383 100.648 179.666 101.336C179.954 102.019 180.098 102.797 180.098 103.672C180.098 104.531 179.956 105.307 179.674 106C179.391 106.688 178.975 107.235 178.426 107.64C177.876 108.04 177.204 108.24 176.41 108.24ZM176.53 107.144C177.143 107.144 177.65 106.995 178.05 106.696C178.45 106.397 178.748 105.987 178.946 105.464C179.143 104.936 179.242 104.339 179.242 103.672C179.242 102.995 179.143 102.397 178.946 101.88C178.748 101.357 178.45 100.949 178.05 100.656C177.655 100.363 177.156 100.216 176.554 100.216C175.935 100.216 175.423 100.368 175.018 100.672C174.612 100.976 174.311 101.389 174.114 101.912C173.922 102.435 173.826 103.021 173.826 103.672C173.826 104.328 173.924 104.92 174.122 105.448C174.324 105.971 174.626 106.384 175.026 106.688C175.426 106.992 175.927 107.144 176.53 107.144ZM5.824 132C5.33867 132.101 4.85867 132.141 4.384 132.12C3.91467 132.099 3.49333 131.997 3.12 131.816C2.752 131.635 2.472 131.352 2.28 130.968C2.12533 130.648 2.04 130.325 2.024 130C2.01333 129.669 2.008 129.293 2.008 128.872V120.96H3.176V128.824C3.176 129.187 3.17867 129.491 3.184 129.736C3.19467 129.976 3.25067 130.189 3.352 130.376C3.544 130.733 3.848 130.947 4.264 131.016C4.68533 131.085 5.20533 131.069 5.824 130.968V132ZM0.16 124.368V123.36H5.824V124.368H0.16ZM7.52625 132V123.36H8.58225V125.44L8.37425 125.168C8.47025 124.912 8.59558 124.677 8.75025 124.464C8.90492 124.245 9.07292 124.067 9.25425 123.928C9.47825 123.731 9.73958 123.581 10.0383 123.48C10.3369 123.373 10.6383 123.312 10.9423 123.296C11.2463 123.275 11.5236 123.296 11.7743 123.36V124.464C11.4596 124.384 11.1156 124.365 10.7423 124.408C10.3689 124.451 10.0249 124.6 9.71025 124.856C9.42225 125.08 9.20625 125.349 9.06225 125.664C8.91825 125.973 8.82225 126.304 8.77425 126.656C8.72625 127.003 8.70225 127.347 8.70225 127.688V132H7.52625ZM15.4514 132.24C14.8007 132.24 14.254 132.123 13.8114 131.888C13.374 131.653 13.046 131.341 12.8274 130.952C12.6087 130.563 12.4994 130.139 12.4994 129.68C12.4994 129.211 12.5927 128.811 12.7794 128.48C12.9714 128.144 13.23 127.869 13.5554 127.656C13.886 127.443 14.2674 127.28 14.6994 127.168C15.1367 127.061 15.6194 126.968 16.1474 126.888C16.6807 126.803 17.2007 126.731 17.7074 126.672C18.2194 126.608 18.6674 126.547 19.0514 126.488L18.6354 126.744C18.6514 125.891 18.486 125.259 18.1394 124.848C17.7927 124.437 17.19 124.232 16.3314 124.232C15.7394 124.232 15.238 124.365 14.8274 124.632C14.422 124.899 14.1367 125.32 13.9714 125.896L12.8274 125.56C13.0247 124.787 13.422 124.187 14.0194 123.76C14.6167 123.333 15.3927 123.12 16.3474 123.12C17.1367 123.12 17.806 123.269 18.3554 123.568C18.91 123.861 19.302 124.288 19.5314 124.848C19.638 125.099 19.7074 125.379 19.7394 125.688C19.7714 125.997 19.7874 126.312 19.7874 126.632V132H18.7394V129.832L19.0434 129.96C18.75 130.701 18.294 131.267 17.6754 131.656C17.0567 132.045 16.3154 132.24 15.4514 132.24ZM15.5874 131.224C16.1367 131.224 16.6167 131.125 17.0274 130.928C17.438 130.731 17.7687 130.461 18.0194 130.12C18.27 129.773 18.4327 129.384 18.5074 128.952C18.5714 128.675 18.606 128.371 18.6114 128.04C18.6167 127.704 18.6194 127.453 18.6194 127.288L19.0674 127.52C18.6674 127.573 18.2327 127.627 17.7634 127.68C17.2994 127.733 16.8407 127.795 16.3874 127.864C15.9394 127.933 15.534 128.016 15.1714 128.112C14.926 128.181 14.6887 128.28 14.4594 128.408C14.23 128.531 14.0407 128.696 13.8914 128.904C13.7474 129.112 13.6754 129.371 13.6754 129.68C13.6754 129.931 13.7367 130.173 13.8594 130.408C13.9874 130.643 14.19 130.837 14.4674 130.992C14.75 131.147 15.1234 131.224 15.5874 131.224ZM28.11 132V127.592C28.11 127.112 28.0647 126.672 27.974 126.272C27.8833 125.867 27.7367 125.515 27.534 125.216C27.3367 124.912 27.078 124.677 26.758 124.512C26.4433 124.347 26.0593 124.264 25.606 124.264C25.19 124.264 24.822 124.336 24.502 124.48C24.1873 124.624 23.9207 124.832 23.702 125.104C23.4887 125.371 23.326 125.696 23.214 126.08C23.102 126.464 23.046 126.901 23.046 127.392L22.214 127.208C22.214 126.323 22.3687 125.579 22.678 124.976C22.9873 124.373 23.414 123.917 23.958 123.608C24.502 123.299 25.126 123.144 25.83 123.144C26.3473 123.144 26.798 123.224 27.182 123.384C27.5713 123.544 27.8993 123.76 28.166 124.032C28.438 124.304 28.6567 124.616 28.822 124.968C28.9873 125.315 29.1073 125.685 29.182 126.08C29.2567 126.469 29.294 126.859 29.294 127.248V132H28.11ZM21.862 132V123.36H22.926V125.488H23.046V132H21.862ZM34.594 132.232C33.5807 132.232 32.746 132.013 32.09 131.576C31.4393 131.139 31.0393 130.531 30.89 129.752L32.09 129.552C32.218 130.043 32.5087 130.435 32.962 130.728C33.4207 131.016 33.986 131.16 34.658 131.16C35.314 131.16 35.8313 131.024 36.21 130.752C36.5887 130.475 36.778 130.099 36.778 129.624C36.778 129.357 36.7167 129.141 36.594 128.976C36.4767 128.805 36.234 128.648 35.866 128.504C35.498 128.36 34.9487 128.189 34.218 127.992C33.434 127.779 32.8207 127.565 32.378 127.352C31.9353 127.139 31.6207 126.893 31.434 126.616C31.2473 126.333 31.154 125.989 31.154 125.584C31.154 125.093 31.2927 124.664 31.57 124.296C31.8473 123.923 32.2313 123.635 32.722 123.432C33.2127 123.224 33.7833 123.12 34.434 123.12C35.0847 123.12 35.666 123.227 36.178 123.44C36.6953 123.648 37.1113 123.941 37.426 124.32C37.7407 124.699 37.9273 125.139 37.986 125.64L36.786 125.856C36.706 125.349 36.4527 124.949 36.026 124.656C35.6047 124.357 35.0687 124.203 34.418 124.192C33.8047 124.176 33.306 124.293 32.922 124.544C32.538 124.789 32.346 125.117 32.346 125.528C32.346 125.757 32.4153 125.955 32.554 126.12C32.6927 126.28 32.9433 126.432 33.306 126.576C33.674 126.72 34.1967 126.877 34.874 127.048C35.6687 127.251 36.2927 127.464 36.746 127.688C37.1993 127.912 37.522 128.176 37.714 128.48C37.906 128.784 38.002 129.16 38.002 129.608C38.002 130.424 37.698 131.067 37.09 131.536C36.4873 132 35.6553 132.232 34.594 132.232ZM39.9363 121.72V120.4H41.1123V121.72H39.9363ZM39.9363 132V123.36H41.1123V132H39.9363ZM48.2146 132C47.7293 132.101 47.2493 132.141 46.7746 132.12C46.3053 132.099 45.884 131.997 45.5106 131.816C45.1426 131.635 44.8626 131.352 44.6706 130.968C44.516 130.648 44.4306 130.325 44.4146 130C44.404 129.669 44.3986 129.293 44.3986 128.872V120.96H45.5666V128.824C45.5666 129.187 45.5693 129.491 45.5746 129.736C45.5853 129.976 45.6413 130.189 45.7426 130.376C45.9346 130.733 46.2386 130.947 46.6546 131.016C47.076 131.085 47.596 131.069 48.2146 130.968V132ZM42.5506 124.368V123.36H48.2146V124.368H42.5506ZM50.1409 132V130.632H51.5089V132H50.1409Z" fill="#F8F8F8"/>
</svg>
