<svg width="180" height="25" viewBox="0 0 180 25" fill="none" xmlns="http://www.w3.org/2000/svg">
<path d="M1.488 12.88L4.032 10.192L0.36 9.4L1.032 7.36L4.464 8.992L3.984 5.2H6.144L5.664 8.992L9.096 7.36L9.768 9.4L6.096 10.192L8.64 12.88L6.912 14.152L5.064 10.912L3.216 14.152L1.488 12.88Z" fill="black"/>
<path d="M22.12 19V7.48H26.568C26.68 7.48 26.8053 7.48533 26.944 7.496C27.088 7.50133 27.232 7.51733 27.376 7.544C27.9787 7.63467 28.488 7.84533 28.904 8.176C29.3253 8.50133 29.6427 8.912 29.856 9.408C30.0747 9.904 30.184 10.4533 30.184 11.056C30.184 11.9253 29.9547 12.68 29.496 13.32C29.0373 13.96 28.3813 14.3627 27.528 14.528L27.12 14.624H23.296V19H22.12ZM29.096 19L26.824 14.312L27.952 13.88L30.448 19H29.096ZM23.296 13.504H26.536C26.632 13.504 26.744 13.4987 26.872 13.488C27 13.4773 27.1253 13.4587 27.248 13.432C27.6427 13.3467 27.9653 13.184 28.216 12.944C28.472 12.704 28.6613 12.4187 28.784 12.088C28.912 11.7573 28.976 11.4133 28.976 11.056C28.976 10.6987 28.912 10.3547 28.784 10.024C28.6613 9.688 28.472 9.4 28.216 9.16C27.9653 8.92 27.6427 8.75733 27.248 8.672C27.1253 8.64533 27 8.62933 26.872 8.624C26.744 8.61333 26.632 8.608 26.536 8.608H23.296V13.504ZM35.8218 19.24C34.9631 19.24 34.2298 19.0453 33.6218 18.656C33.0138 18.2667 32.5471 17.728 32.2218 17.04C31.8964 16.352 31.7338 15.5627 31.7338 14.672C31.7338 13.7653 31.8991 12.9707 32.2298 12.288C32.5604 11.6053 33.0298 11.0747 33.6378 10.696C34.2511 10.312 34.9791 10.12 35.8218 10.12C36.6858 10.12 37.4218 10.3147 38.0298 10.704C38.6431 11.088 39.1098 11.624 39.4298 12.312C39.7551 12.9947 39.9178 13.7813 39.9178 14.672C39.9178 15.5787 39.7551 16.376 39.4298 17.064C39.1044 17.7467 38.6351 18.28 38.0218 18.664C37.4084 19.048 36.6751 19.24 35.8218 19.24ZM35.8218 18.112C36.7818 18.112 37.4964 17.7947 37.9658 17.16C38.4351 16.52 38.6698 15.6907 38.6698 14.672C38.6698 13.6267 38.4324 12.7947 37.9578 12.176C37.4884 11.5573 36.7764 11.248 35.8218 11.248C35.1764 11.248 34.6431 11.3947 34.2218 11.688C33.8058 11.976 33.4938 12.3787 33.2858 12.896C33.0831 13.408 32.9818 14 32.9818 14.672C32.9818 15.712 33.2218 16.5467 33.7018 17.176C34.1818 17.8 34.8884 18.112 35.8218 18.112ZM45.5625 19.24C44.7678 19.24 44.0958 19.04 43.5465 18.64C42.9972 18.2347 42.5812 17.688 42.2985 17C42.0158 16.3067 41.8745 15.5307 41.8745 14.672C41.8745 13.7973 42.0158 13.0187 42.2985 12.336C42.5865 11.648 43.0078 11.1067 43.5625 10.712C44.1172 10.3173 44.7998 10.12 45.6105 10.12C46.3998 10.12 47.0772 10.32 47.6425 10.72C48.2078 11.12 48.6398 11.664 48.9385 12.352C49.2425 13.04 49.3945 13.8133 49.3945 14.672C49.3945 15.536 49.2425 16.312 48.9385 17C48.6345 17.688 48.1972 18.2347 47.6265 18.64C47.0558 19.04 46.3678 19.24 45.5625 19.24ZM41.6745 19V7.48H42.8585V12.496H42.7305V19H41.6745ZM45.4425 18.144C46.0452 18.144 46.5465 17.992 46.9465 17.688C47.3465 17.384 47.6452 16.9707 47.8425 16.448C48.0452 15.92 48.1465 15.328 48.1465 14.672C48.1465 14.0213 48.0478 13.4347 47.8505 12.912C47.6532 12.3893 47.3518 11.976 46.9465 11.672C46.5465 11.368 46.0372 11.216 45.4185 11.216C44.8158 11.216 44.3145 11.3627 43.9145 11.656C43.5198 11.9493 43.2238 12.3573 43.0265 12.88C42.8292 13.3973 42.7305 13.9947 42.7305 14.672C42.7305 15.3387 42.8292 15.936 43.0265 16.464C43.2238 16.9867 43.5225 17.3973 43.9225 17.696C44.3225 17.9947 44.8292 18.144 45.4425 18.144ZM54.4553 19.216C53.9379 19.216 53.4846 19.136 53.0953 18.976C52.7113 18.816 52.3833 18.6 52.1113 18.328C51.8446 18.056 51.6286 17.7467 51.4633 17.4C51.2979 17.048 51.1779 16.6773 51.1033 16.288C51.0286 15.8933 50.9913 15.5013 50.9913 15.112V10.36H52.1753V14.768C52.1753 15.2427 52.2206 15.6827 52.3113 16.088C52.4019 16.4933 52.5459 16.848 52.7433 17.152C52.9459 17.4507 53.2046 17.6827 53.5193 17.848C53.8393 18.0133 54.2259 18.096 54.6793 18.096C55.0953 18.096 55.4606 18.024 55.7753 17.88C56.0953 17.736 56.3619 17.5307 56.5753 17.264C56.7939 16.992 56.9593 16.664 57.0713 16.28C57.1833 15.8907 57.2393 15.4533 57.2393 14.968L58.0712 15.152C58.0712 16.0373 57.9166 16.7813 57.6073 17.384C57.2979 17.9867 56.8713 18.4427 56.3273 18.752C55.7833 19.0613 55.1593 19.216 54.4553 19.216ZM57.3593 19V16.872H57.2393V10.36H58.4153V19H57.3593ZM63.8753 19.232C62.8619 19.232 62.0273 19.0133 61.3713 18.576C60.7206 18.1387 60.3206 17.5307 60.1713 16.752L61.3713 16.552C61.4993 17.0427 61.7899 17.4347 62.2433 17.728C62.7019 18.016 63.2673 18.16 63.9392 18.16C64.5953 18.16 65.1126 18.024 65.4913 17.752C65.8699 17.4747 66.0593 17.0987 66.0593 16.624C66.0593 16.3573 65.9979 16.1413 65.8753 15.976C65.7579 15.8053 65.5153 15.648 65.1473 15.504C64.7793 15.36 64.2299 15.1893 63.4993 14.992C62.7153 14.7787 62.1019 14.5653 61.6593 14.352C61.2166 14.1387 60.9019 13.8933 60.7153 13.616C60.5286 13.3333 60.4353 12.9893 60.4353 12.584C60.4353 12.0933 60.5739 11.664 60.8513 11.296C61.1286 10.9227 61.5126 10.6347 62.0033 10.432C62.4939 10.224 63.0646 10.12 63.7153 10.12C64.3659 10.12 64.9473 10.2267 65.4593 10.44C65.9766 10.648 66.3926 10.9413 66.7073 11.32C67.0219 11.6987 67.2086 12.1387 67.2673 12.64L66.0673 12.856C65.9873 12.3493 65.7339 11.9493 65.3073 11.656C64.8859 11.3573 64.3499 11.2027 63.6993 11.192C63.0859 11.176 62.5873 11.2933 62.2033 11.544C61.8193 11.7893 61.6273 12.1173 61.6273 12.528C61.6273 12.7573 61.6966 12.9547 61.8353 13.12C61.9739 13.28 62.2246 13.432 62.5873 13.576C62.9553 13.72 63.4779 13.8773 64.1553 14.048C64.9499 14.2507 65.5739 14.464 66.0273 14.688C66.4806 14.912 66.8033 15.176 66.9953 15.48C67.1873 15.784 67.2833 16.16 67.2833 16.608C67.2833 17.424 66.9793 18.0667 66.3713 18.536C65.7686 19 64.9366 19.232 63.8753 19.232ZM73.7615 19C73.2762 19.1013 72.7962 19.1413 72.3215 19.12C71.8522 19.0987 71.4308 18.9973 71.0575 18.816C70.6895 18.6347 70.4095 18.352 70.2175 17.968C70.0628 17.648 69.9775 17.3253 69.9615 17C69.9508 16.6693 69.9455 16.2933 69.9455 15.872V7.96H71.1135V15.824C71.1135 16.1867 71.1162 16.4907 71.1215 16.736C71.1322 16.976 71.1882 17.1893 71.2895 17.376C71.4815 17.7333 71.7855 17.9467 72.2015 18.016C72.6228 18.0853 73.1428 18.0693 73.7615 17.968V19ZM68.0975 11.368V10.36H73.7615V11.368H68.0975Z" fill="#333333"/>
</svg>
