<svg version="1.2" xmlns="http://www.w3.org/2000/svg" viewBox="0 0 13 27" width="13" height="27">
	<title>Logo-svg</title>
	<style>
		.s0 { fill: #333333 } 
	</style>
	<path id="Layer" fill-rule="evenodd" class="s0" d="m-118.5 1.1h5.8q3 0 4.4 1.6 1.5 1.6 1.5 4.6v2.5q0 3.1-1.5 4.7-1.4 1.6-4.4 1.6h-1.9v10.2h-3.9zm5.8 11.4q1 0 1.4-0.6 0.6-0.5 0.6-1.8v-3q0-1.3-0.6-1.8-0.4-0.6-1.4-0.6h-1.9v7.8zm16 14.2q-2.9 0-4.5-1.7-1.5-1.6-1.5-4.7v-13.2q0-3 1.5-4.7 1.6-1.6 4.5-1.6 2.9 0 4.4 1.6 1.6 1.7 1.6 4.7v13.2q0 3.1-1.6 4.7-1.5 1.7-4.4 1.7zm0-3.6q2 0 2-2.5v-13.8q0-2.4-2-2.4-2.1 0-2.1 2.4v13.8q0 2.5 2.1 2.5zm13.8-18.4h-4.2v-3.6h12.3v3.6h-4.2v21.6h-3.9zm12.2-3.6h5.8q3.1 0 4.5 1.5 1.4 1.4 1.4 4.3v1.6q0 3.9-2.6 4.9v0.1q1.4 0.4 2 1.8 0.6 1.3 0.6 3.5v4.5q0 1 0.1 1.7 0.1 0.7 0.4 1.3h-4.1q-0.2-0.6-0.3-1.1 0-0.6 0-2v-4.6q0-1.7-0.6-2.4-0.5-0.7-1.9-0.7h-1.4v10.8h-3.9zm5.4 10.8q1.1 0 1.7-0.6 0.6-0.6 0.6-2.1v-1.9q0-1.4-0.5-2-0.4-0.6-1.5-0.6h-1.8v7.2zm19.2-10.8h5.9q2.9 0 4.4 1.6 1.5 1.6 1.5 4.6v2.5q0 3.1-1.5 4.7-1.5 1.6-4.4 1.6h-1.9v10.2h-4zm5.9 11.4q0.9 0 1.4-0.6 0.5-0.5 0.5-1.8v-3q0-1.3-0.5-1.8-0.5-0.6-1.4-0.6h-1.9v7.8zm15.9 14.2q-2.9 0-4.4-1.7-1.6-1.6-1.6-4.7v-13.2q0-3 1.6-4.7 1.5-1.6 4.4-1.6 2.9 0 4.5 1.6 1.5 1.7 1.5 4.7v13.2q0 3.1-1.5 4.7-1.6 1.7-4.5 1.7zm0-3.6q2.1 0 2.1-2.5v-13.8q0-2.4-2.1-2.4-2 0-2 2.4v13.8q0 2.5 2 2.5zm13.8-18.4h-4.1v-3.6h12.2v3.6h-4.1v21.6h-4zm17.4 22q-2.9 0-4.4-1.6-1.5-1.7-1.5-4.8v-1.4h3.8v1.7q0 2.5 2 2.5 1 0 1.5-0.6 0.6-0.6 0.6-1.9 0-1.6-0.8-2.8-0.7-1.2-2.6-2.9-2.5-2.2-3.4-3.9-1-1.8-1-4 0-3 1.5-4.6 1.5-1.6 4.4-1.6 2.8 0 4.3 1.6 1.5 1.6 1.5 4.7v1h-3.8v-1.3q0-1.3-0.5-1.8-0.5-0.6-1.5-0.6-1.9 0-1.9 2.4 0 1.3 0.7 2.5 0.7 1.2 2.7 2.9 2.5 2.2 3.4 3.9 0.9 1.8 0.9 4.2 0 3.1-1.5 4.7-1.5 1.7-4.4 1.7z"/>
</svg>