<svg width="13" height="26" viewBox="0 0 13 26" fill="none" xmlns="http://www.w3.org/2000/svg">
<path d="M0.405953 23.264C0.405953 21.464 0.693953 19.928 1.26995 18.656C1.84595 17.36 2.87795 15.932 4.36595 14.372C5.82995 12.812 6.83795 11.48 7.38995 10.376C7.96595 9.272 8.25395 8.12 8.25395 6.92C8.25395 5.84 8.07395 5.096 7.71395 4.688C7.37795 4.256 6.87395 4.04 6.20195 4.04C4.83395 4.04 4.14995 4.868 4.14995 6.524V9.224H0.405953V6.776C0.405953 4.736 0.909953 3.176 1.91795 2.096C2.92595 0.991999 4.38995 0.439999 6.30995 0.439999C8.22995 0.439999 9.69395 0.991999 10.702 2.096C11.71 3.176 12.214 4.736 12.214 6.776C12.214 8.312 11.842 9.812 11.098 11.276C10.378 12.74 9.11795 14.42 7.31795 16.316C6.14195 17.564 5.34995 18.584 4.94195 19.376C4.53395 20.144 4.32995 20.972 4.32995 21.86V22.4H11.854V26H0.405953V23.264Z" fill="black"/>
</svg>
