<svg width="13" height="27" viewBox="0 0 13 27" fill="none" xmlns="http://www.w3.org/2000/svg">
<path d="M6.17696 26.36C4.23296 26.36 2.75696 25.82 1.74896 24.74C0.764961 23.66 0.272961 22.112 0.272961 20.096V18.044H4.01696V20.276C4.01696 21.932 4.70096 22.76 6.06896 22.76C6.74096 22.76 7.24496 22.556 7.58096 22.148C7.94096 21.716 8.12096 20.972 8.12096 19.916V17.864C8.12096 16.712 7.91696 15.896 7.50896 15.416C7.10096 14.912 6.44096 14.66 5.52896 14.66H4.19696V11.06H5.63696C6.42896 11.06 7.01696 10.856 7.40096 10.448C7.80896 10.04 8.01296 9.356 8.01296 8.396V6.56C8.01296 5.696 7.83296 5.06 7.47296 4.652C7.11296 4.244 6.63296 4.04 6.03296 4.04C4.76096 4.04 4.12496 4.82 4.12496 6.38V8.036H0.380961V6.704C0.380961 4.688 0.872961 3.14 1.85696 2.06C2.86496 0.979999 4.30496 0.439999 6.17696 0.439999C8.07296 0.439999 9.51296 0.979999 10.497 2.06C11.481 3.116 11.973 4.652 11.973 6.668V7.568C11.973 8.936 11.745 10.04 11.289 10.88C10.833 11.696 10.125 12.284 9.16496 12.644V12.716C10.197 13.1 10.941 13.724 11.397 14.588C11.853 15.452 12.081 16.556 12.081 17.9V20.132C12.081 22.148 11.577 23.696 10.569 24.776C9.58496 25.832 8.12096 26.36 6.17696 26.36Z" fill="black"/>
</svg>
