<svg width="10" height="60" viewBox="0 0 10 60" fill="none" xmlns="http://www.w3.org/2000/svg">
<path d="M9.4 0.490047L9.4 2.43405C9.4 3.09005 9.224 3.58205 8.872 3.91005C8.52 4.23805 8.004 4.40205 7.324 4.40205L6.496 4.40205C5.816 4.40205 5.3 4.23805 4.948 3.91005C4.596 3.58205 4.42 3.09005 4.42 2.43405L4.42 1.81005L1 1.81005L1 0.490047L9.4 0.490047ZM5.62 2.43405C5.62 2.65005 5.68 2.81005 5.8 2.91405C5.92 3.02605 6.124 3.08205 6.412 3.08205L7.408 3.08205C7.696 3.08205 7.9 3.02605 8.02 2.91405C8.14 2.81005 8.2 2.65005 8.2 2.43405L8.2 1.81005L5.62 1.81005L5.62 2.43405ZM0.88 9.66695C0.88 9.01895 1.064 8.52295 1.432 8.17895C1.8 7.83495 2.32 7.66295 2.992 7.66295L7.408 7.66295C8.08 7.66295 8.6 7.83495 8.968 8.17895C9.336 8.52295 9.52 9.01895 9.52 9.66695C9.52 10.315 9.336 10.811 8.968 11.155C8.6 11.499 8.08 11.671 7.408 11.671L2.992 11.671C2.32 11.671 1.8 11.499 1.432 11.155C1.064 10.811 0.88 10.315 0.88 9.66695ZM2.08 9.66695C2.08 10.123 2.356 10.351 2.908 10.351L7.492 10.351C8.044 10.351 8.32 10.123 8.32 9.66695C8.32 9.21095 8.044 8.98295 7.492 8.98295L2.908 8.98295C2.356 8.98295 2.08 9.21095 2.08 9.66695ZM8.2 16.1888L8.2 14.8088L9.4 14.8088L9.4 18.8888L8.2 18.8888L8.2 17.5088L1 17.5088L1 16.1888L8.2 16.1888ZM9.4 22.1679L9.4 24.1239C9.4 24.8039 9.24 25.2999 8.92 25.6119C8.608 25.9239 8.124 26.0799 7.468 26.0799L6.952 26.0799C6.08 26.0799 5.528 25.7919 5.296 25.2159L5.272 25.2159C5.176 25.5359 4.98 25.7599 4.684 25.8879C4.388 26.0239 3.992 26.0919 3.496 26.0919L2.02 26.0919C1.78 26.0919 1.584 26.0999 1.432 26.1159C1.288 26.1319 1.144 26.1719 1 26.2359L1 24.8919C1.136 24.8439 1.264 24.8119 1.384 24.7959C1.504 24.7799 1.72 24.7719 2.032 24.7719L3.568 24.7719C3.952 24.7719 4.22 24.7079 4.372 24.5799C4.524 24.4599 4.6 24.2479 4.6 23.9439L4.6 23.4879L1 23.4879L1 22.1679L9.4 22.1679ZM5.8 23.9679C5.8 24.2319 5.868 24.4279 6.004 24.5559C6.14 24.6919 6.368 24.7599 6.688 24.7599L7.336 24.7599C7.64 24.7599 7.86 24.7039 7.996 24.5919C8.132 24.4879 8.2 24.3199 8.2 24.0879L8.2 23.4879L5.8 23.4879L5.8 23.9679ZM9.4 34.2096L9.4 36.1536C9.4 36.8096 9.224 37.3016 8.872 37.6296C8.52 37.9576 8.004 38.1216 7.324 38.1216L6.496 38.1216C5.816 38.1216 5.3 37.9576 4.948 37.6296C4.596 37.3016 4.42 36.8096 4.42 36.1536L4.42 35.5296L1 35.5296L1 34.2096L9.4 34.2096ZM5.62 36.1536C5.62 36.3696 5.68 36.5296 5.8 36.6336C5.92 36.7456 6.124 36.8016 6.412 36.8016L7.408 36.8016C7.696 36.8016 7.9 36.7456 8.02 36.6336C8.14 36.5296 8.2 36.3696 8.2 36.1536L8.2 35.5296L5.62 35.5296L5.62 36.1536ZM0.880001 43.3865C0.880001 42.7385 1.064 42.2425 1.432 41.8985C1.8 41.5545 2.32 41.3825 2.992 41.3825L7.408 41.3825C8.08 41.3825 8.6 41.5545 8.968 41.8985C9.336 42.2425 9.52 42.7385 9.52 43.3865C9.52 44.0345 9.336 44.5305 8.968 44.8745C8.6 45.2185 8.08 45.3905 7.408 45.3905L2.992 45.3905C2.32 45.3905 1.8 45.2185 1.432 44.8745C1.064 44.5305 0.880001 44.0345 0.880001 43.3865ZM2.08 43.3865C2.08 43.8425 2.356 44.0705 2.908 44.0705L7.492 44.0705C8.044 44.0705 8.32 43.8425 8.32 43.3865C8.32 42.9305 8.044 42.7025 7.492 42.7025L2.908 42.7025C2.356 42.7025 2.08 42.9305 2.08 43.3865ZM8.2 49.9083L8.2 48.5283L9.4 48.5283L9.4 52.6083L8.2 52.6083L8.2 51.2283L1 51.2283L1 49.9083L8.2 49.9083ZM0.880001 57.6034C0.880001 56.9634 1.06 56.4794 1.42 56.1514C1.788 55.8234 2.312 55.6594 2.992 55.6594L3.472 55.6594L3.472 56.9074L2.896 56.9074C2.352 56.9074 2.08 57.1354 2.08 57.5914C2.08 57.8154 2.144 57.9834 2.272 58.0954C2.408 58.2154 2.624 58.2754 2.92 58.2754C3.272 58.2754 3.58 58.1954 3.844 58.0354C4.116 57.8754 4.44 57.5794 4.816 57.1474C5.296 56.6034 5.728 56.2234 6.112 56.0074C6.504 55.7914 6.944 55.6834 7.432 55.6834C8.096 55.6834 8.608 55.8514 8.968 56.1874C9.336 56.5234 9.52 57.0114 9.52 57.6514C9.52 58.2834 9.336 58.7594 8.968 59.0794C8.608 59.4074 8.088 59.5714 7.408 59.5714L7.06 59.5714L7.06 58.3234L7.492 58.3234C7.78 58.3234 7.988 58.2674 8.116 58.1554C8.252 58.0434 8.32 57.8794 8.32 57.6634C8.32 57.2234 8.052 57.0034 7.516 57.0034C7.212 57.0034 6.928 57.0834 6.664 57.2434C6.4 57.4114 6.08 57.7114 5.704 58.1434C5.224 58.6954 4.788 59.0754 4.396 59.2834C4.004 59.4914 3.544 59.5954 3.016 59.5954C2.328 59.5954 1.8 59.4234 1.432 59.0794C1.064 58.7434 0.880001 58.2514 0.880001 57.6034Z" fill="#828282"/>
</svg>
