<svg width="6.661133" height="44.501953" viewBox="0 0 6.66113 44.502" fill="none" xmlns="http://www.w3.org/2000/svg" xmlns:xlink="http://www.w3.org/1999/xlink">
	<desc>
			Created with Pixso.
	</desc>
	<defs/>
	<path id="Arrow" d="M3.33057 43.293L5.80566 40.8179C6.00342 40.6201 6.31445 40.6201 6.5127 40.8179C6.71045 41.0161 6.71045 41.3271 6.5127 41.5249L3.68408 44.3535C3.48633 44.5518 3.1748 44.5518 2.97705 44.3535L0.148438 41.5249C-0.0493164 41.3271 -0.0493164 41.0161 0.148438 40.8179C0.34668 40.6201 0.657715 40.6201 0.855469 40.8179L3.33057 43.293Z" fill="#828282" fill-opacity="1.000000" fill-rule="nonzero"/>
	<path id="Arrow" d="M3.83057 0L3.83057 44L2.83057 44L2.83057 0L3.83057 0ZM3.33057 43.293L5.80566 40.8179C6.00342 40.6201 6.31445 40.6201 6.5127 40.8179C6.71045 41.0161 6.71045 41.3271 6.5127 41.5249L3.68408 44.3535C3.48633 44.5518 3.1748 44.5518 2.97705 44.3535L0.148438 41.5249C-0.0493164 41.3271 -0.0493164 41.0161 0.148438 40.8179C0.34668 40.6201 0.657715 40.6201 0.855469 40.8179L3.33057 43.293Z" fill="#03839E" fill-opacity="1.000000" fill-rule="evenodd"/>
</svg>
