<svg xmlns="http://www.w3.org/2000/svg" width="100" height="100" viewBox="0 0 100 100" version="1.1"><path d="" stroke="none" fill="#080404" fill-rule="evenodd"/><path d="M 41.500 3.514 C 34.135 7.472, 30 13.904, 30 21.401 L 30 26 22.045 26 L 14.091 26 13.526 29.250 C 13.215 31.038, 11.251 47.688, 9.161 66.250 L 5.360 100 50 100 L 94.640 100 90.839 66.250 C 88.749 47.688, 86.785 31.038, 86.474 29.250 L 85.909 26 78.075 26 L 70.240 26 69.813 20.098 C 69.342 13.585, 66.632 9.011, 60.775 4.840 C 56.556 1.836, 45.977 1.109, 41.500 3.514 M 45.315 7.071 C 39.091 8.932, 34.024 16.406, 34.006 23.750 C 34 25.991, 34.067 26, 50.136 26 L 66.272 26 65.644 21.418 C 65.298 18.897, 64.225 15.491, 63.258 13.848 C 59.916 8.171, 51.839 5.120, 45.315 7.071 M 18 30.977 C 18 31.514, 16.425 45.668, 14.500 62.430 C 12.575 79.192, 11 93.602, 11 94.453 C 11 95.823, 15.472 96, 50 96 C 84.528 96, 89 95.823, 89 94.453 C 89 93.602, 87.425 79.192, 85.500 62.430 C 83.575 45.668, 82 31.514, 82 30.977 C 82 30.440, 79.300 30, 76 30 C 70.889 30, 70 30.267, 70 31.800 C 70 32.790, 70.485 34.085, 71.078 34.678 C 71.671 35.271, 72.009 37.049, 71.828 38.628 C 71.536 41.181, 71.111 41.500, 68 41.500 C 64.889 41.500, 64.464 41.181, 64.172 38.628 C 63.991 37.049, 64.329 35.271, 64.922 34.678 C 65.515 34.085, 66 32.790, 66 31.800 C 66 30.142, 64.741 30, 50 30 C 35.259 30, 34 30.142, 34 31.800 C 34 32.790, 34.485 34.085, 35.078 34.678 C 35.671 35.271, 36.009 37.049, 35.828 38.628 C 35.536 41.181, 35.111 41.500, 32 41.500 C 28.889 41.500, 28.464 41.181, 28.172 38.628 C 27.991 37.049, 28.329 35.271, 28.922 34.678 C 29.515 34.085, 30 32.790, 30 31.800 C 30 30.267, 29.111 30, 24 30 C 20.700 30, 18 30.440, 18 30.977" stroke="none" fill="#040404" fill-rule="evenodd"/></svg>