<svg width="10" height="37" viewBox="0 0 10 37" fill="none" xmlns="http://www.w3.org/2000/svg">
<path d="M9.18 32.662C9.18 33.522 8.99 34.248 8.61 34.84C8.226 35.432 7.696 35.88 7.02 36.184C6.344 36.488 5.564 36.64 4.68 36.64C3.796 36.64 3.016 36.488 2.34 36.184C1.664 35.88 1.136 35.432 0.755999 34.84C0.372 34.248 0.18 33.522 0.18 32.662C0.18 31.658 0.437999 30.838 0.953999 30.202C1.466 29.566 2.154 29.13 3.018 28.894L3.252 29.794C2.568 29.978 2.026 30.308 1.626 30.784C1.226 31.26 1.026 31.886 1.026 32.662C1.026 33.338 1.18 33.9 1.488 34.348C1.796 34.796 2.226 35.134 2.778 35.362C3.326 35.586 3.96 35.702 4.68 35.71C5.4 35.714 6.034 35.604 6.582 35.38C7.13 35.152 7.56 34.812 7.872 34.36C8.18 33.904 8.334 33.338 8.334 32.662C8.334 31.886 8.134 31.26 7.734 30.784C7.33 30.308 6.788 29.978 6.108 29.794L6.342 28.894C7.206 29.13 7.896 29.566 8.412 30.202C8.924 30.838 9.18 31.658 9.18 32.662ZM9 27.4502L0.359999 27.4502L0.359999 26.5682L8.154 26.5682L8.154 22.4642L9 22.4642L9 27.4502ZM9.18 18.1776C9.18 19.0376 8.99 19.7636 8.61 20.3556C8.226 20.9476 7.696 21.3956 7.02 21.6996C6.344 22.0036 5.564 22.1556 4.68 22.1556C3.796 22.1556 3.016 22.0036 2.34 21.6996C1.664 21.3956 1.136 20.9476 0.755999 20.3556C0.371999 19.7636 0.179999 19.0376 0.179999 18.1776C0.179999 17.3136 0.371999 16.5876 0.755999 15.9996C1.136 15.4076 1.664 14.9596 2.34 14.6556C3.016 14.3476 3.796 14.1936 4.68 14.1936C5.564 14.1936 6.344 14.3476 7.02 14.6556C7.696 14.9596 8.226 15.4076 8.61 15.9996C8.99 16.5876 9.18 17.3136 9.18 18.1776ZM8.334 18.1776C8.334 17.5016 8.18 16.9376 7.872 16.4856C7.564 16.0336 7.136 15.6956 6.588 15.4716C6.036 15.2436 5.4 15.1296 4.68 15.1296C3.96 15.1296 3.326 15.2436 2.778 15.4716C2.23 15.6956 1.802 16.0336 1.494 16.4856C1.186 16.9376 1.03 17.5016 1.026 18.1776C1.026 18.8536 1.18 19.4156 1.488 19.8636C1.796 20.3116 2.226 20.6496 2.778 20.8776C3.326 21.1016 3.96 21.2156 4.68 21.2196C5.4 21.2236 6.034 21.1136 6.582 20.8896C7.126 20.6616 7.554 20.3216 7.866 19.8696C8.174 19.4176 8.33 18.8536 8.334 18.1776ZM9.18 9.99203C9.18 10.596 9.08 11.14 8.88 11.624C8.676 12.104 8.388 12.502 8.016 12.818C7.644 13.13 7.202 13.334 6.69 13.43L6.54 12.53C7.1 12.386 7.54 12.082 7.86 11.618C8.176 11.154 8.334 10.6 8.334 9.95603C8.334 9.53203 8.268 9.15203 8.136 8.81603C8 8.48003 7.808 8.21603 7.56 8.02403C7.312 7.83203 7.018 7.73603 6.678 7.73603C6.454 7.73603 6.264 7.77603 6.108 7.85603C5.948 7.93603 5.816 8.04203 5.712 8.17403C5.608 8.30603 5.522 8.45003 5.454 8.60603C5.382 8.76203 5.324 8.91403 5.28 9.06203L4.626 11.252C4.55 11.516 4.454 11.76 4.338 11.984C4.218 12.208 4.076 12.404 3.912 12.572C3.744 12.736 3.548 12.864 3.324 12.956C3.1 13.048 2.844 13.094 2.556 13.094C2.068 13.094 1.646 12.966 1.29 12.71C0.933998 12.454 0.659999 12.104 0.467999 11.66C0.275999 11.216 0.181999 10.71 0.185998 10.142C0.185998 9.56603 0.287998 9.05203 0.491998 8.60003C0.695998 8.14403 0.987998 7.76803 1.368 7.47203C1.744 7.17603 2.19 6.98003 2.706 6.88403L2.874 7.80803C2.498 7.86803 2.172 8.00603 1.896 8.22203C1.62 8.43803 1.408 8.71403 1.26 9.05003C1.108 9.38203 1.03 9.74803 1.026 10.148C1.026 10.536 1.092 10.882 1.224 11.186C1.352 11.486 1.528 11.724 1.752 11.9C1.976 12.076 2.232 12.164 2.52 12.164C2.812 12.164 3.046 12.084 3.222 11.924C3.398 11.76 3.536 11.56 3.636 11.324C3.736 11.084 3.818 10.852 3.882 10.628L4.38 8.93603C4.428 8.76003 4.498 8.55403 4.59 8.31803C4.678 8.07803 4.806 7.84603 4.974 7.62203C5.138 7.39403 5.354 7.20603 5.622 7.05803C5.89 6.91003 6.23 6.83603 6.642 6.83603C7.042 6.83603 7.4 6.91603 7.716 7.07603C8.032 7.23203 8.298 7.45403 8.514 7.74203C8.73 8.02603 8.894 8.36003 9.006 8.74403C9.122 9.12403 9.18 9.54003 9.18 9.99203ZM9 5.5975L0.359998 5.5975L0.359998 0.197499L1.206 0.197499L1.206 4.7155L4.194 4.7155L4.194 0.917499L5.04 0.917499L5.04 4.7155L8.154 4.7155L8.154 0.197499L9 0.197499L9 5.5975Z" fill="#F8F8F8"/>
</svg>
