<svg width="20" height="21" viewBox="0 0 20 21" fill="none" xmlns="http://www.w3.org/2000/svg">
<path d="M10 6.10352e-05C4.47727 6.10352e-05 0 4.51477 0 10.0837C0 15.1392 3.69318 19.3134 8.50546 20.0426V12.7563H6.03136V10.1057H8.50546V8.34197C8.50546 5.42184 9.91636 4.13985 12.3232 4.13985C13.4759 4.13985 14.0855 4.22602 14.3741 4.26543V6.57917H12.7323C11.7105 6.57917 11.3536 7.5559 11.3536 8.65685V10.1057H14.3482L13.9418 12.7563H11.3536V20.0642C16.2345 19.3964 20 15.1883 20 10.0837C20 4.51477 15.5227 6.10352e-05 10 6.10352e-05Z" fill="black"/>
</svg>
