<svg xmlns="http://www.w3.org/2000/svg" xmlns:xlink="http://www.w3.org/1999/xlink" version="1.1" x="0px" y="0px" viewBox="0 0 100 125" enable-background="new 0 0 100 100" xml:space="preserve"><path d="M80.509,44.482c-0.189-0.243-0.48-0.385-0.788-0.385H51.077c0.227-3.376,1.014-6.653,2.364-9.763  c4.188-9.667,13.077-16.305,23.421-17.627c-2.576,7.426-8.712,13.24-16.328,15.353c-0.532,0.147-0.844,0.699-0.696,1.231  c0.123,0.442,0.525,0.733,0.963,0.733c0.088,0,0.178-0.012,0.268-0.037c8.753-2.428,15.703-9.37,18.151-18.123  c0.001-0.002,0.001-0.005,0.002-0.007c0.004-0.015,0.01-0.03,0.014-0.045c0.016-0.057,0.007-0.113,0.012-0.17  c0.006-0.059,0.026-0.113,0.021-0.174c0-0.009-0.006-0.016-0.007-0.025c-0.007-0.072-0.035-0.136-0.058-0.204  c-0.019-0.058-0.029-0.118-0.057-0.17c-0.025-0.047-0.065-0.082-0.098-0.124c-0.046-0.06-0.087-0.122-0.145-0.17  c-0.037-0.03-0.085-0.046-0.126-0.071c-0.07-0.042-0.137-0.086-0.216-0.11c-0.009-0.002-0.014-0.009-0.023-0.012  c-0.056-0.015-0.11-0.006-0.166-0.012c-0.06-0.006-0.116-0.027-0.179-0.022c-11.718,0.904-21.908,8.182-26.591,18.992  c-0.265,0.61-0.502,1.228-0.727,1.849c-0.287-3.418-1.113-6.736-2.484-9.893C43.71,14.683,33.521,7.406,21.803,6.503  c-0.073-0.007-0.14,0.015-0.21,0.024c-0.045,0.006-0.089-0.003-0.134,0.009c-0.006,0.001-0.01,0.006-0.016,0.008  c-0.086,0.025-0.161,0.072-0.236,0.12c-0.037,0.022-0.079,0.036-0.112,0.063c-0.051,0.042-0.086,0.099-0.129,0.151  c-0.04,0.048-0.086,0.091-0.116,0.146c-0.025,0.047-0.033,0.101-0.051,0.152c-0.025,0.073-0.055,0.144-0.063,0.222  c-0.001,0.009-0.007,0.016-0.007,0.025c-0.005,0.061,0.016,0.116,0.021,0.174c0.005,0.057-0.003,0.113,0.012,0.17  c0.004,0.016,0.01,0.03,0.014,0.045c0.001,0.002,0.001,0.005,0.002,0.007c2.449,8.753,9.399,15.694,18.152,18.122  c0.089,0.024,0.179,0.037,0.268,0.037c0.438,0,0.84-0.291,0.963-0.733c0.147-0.532-0.165-1.083-0.697-1.231  c-7.615-2.112-13.751-7.925-16.327-15.352c10.344,1.322,19.233,7.959,23.421,17.628C48.179,30.02,49,33.987,49,38.084v6.014H20.279  c-0.308,0-0.599,0.142-0.788,0.385s-0.257,0.559-0.182,0.858l11.85,47.402c0.111,0.445,0.511,0.758,0.97,0.758h35.741  c0.459,0,0.859-0.313,0.97-0.758l11.85-47.402C80.766,45.042,80.698,44.725,80.509,44.482z M67.09,91.5H32.91L21.56,46.098H49  v10.006c0,0.553,0.448,1,1,1s1-0.447,1-1v-9.975c0-0.01,0.001-0.021,0.001-0.031H78.44L67.09,91.5z"/><text x="0" y="115" fill="#000000" font-size="5px" font-weight="bold" font-family="'Helvetica Neue', Helvetica, Arial-Unicode, Arial, Sans-serif">Created by Oh Rian</text><text x="0" y="120" fill="#000000" font-size="5px" font-weight="bold" font-family="'Helvetica Neue', Helvetica, Arial-Unicode, Arial, Sans-serif">from the Noun Project</text></svg>