<?xml version="1.0" encoding="utf-8"?>
<svg version="1.1" id="Layer_1" xmlns="http://www.w3.org/2000/svg" xmlns:xlink="http://www.w3.org/1999/xlink" x="0px" y="0px"
	 viewBox="0 0 128 128" style="enable-background:new 0 0 128 128;" xml:space="preserve">
<style type="text/css">
	.st0{enable-background:new    ;}
	.st1{fill:#03839E;}
	.st2{fill:#FFEC7A;}
</style>
<g class="st0">
	<path class="st1" d="M0,1.1h29.2C39,1.1,46.4,3.8,51.3,9c4.9,5.2,7.4,12.9,7.4,23.2v12.5c0,10.2-2.5,18-7.4,23.2
		C46.4,73,39,75.7,29.2,75.7h-9.3v51.2H0V1.1z M29.1,57.7c3.3,0,5.7-0.9,7.3-2.7c1.6-1.7,2.4-4.9,2.4-9.1v-15c0-4.3-0.8-7.4-2.4-9.1
		s-4.1-2.7-7.3-2.7h-9.3v38.6H29.1z"/>
	<path class="st2" d="M69.4,1.1h29.2c9.8,0,17.2,2.7,22.1,7.9c4.9,5.2,7.4,12.9,7.4,23.2v12.5c0,10.2-2.5,18-7.4,23.2
		c-4.9,5.2-12.3,7.9-22.1,7.9h-9.3v51.2H69.4V1.1z M98.4,57.7c3.3,0,5.7-0.9,7.3-2.7c1.6-1.7,2.4-4.9,2.4-9.1v-15
		c0-4.3-0.8-7.4-2.4-9.1s-4.1-2.7-7.3-2.7h-9.3v38.6H98.4z"/>
</g>
</svg>
