<svg width="16" height="16" viewBox="0 0 16 16" fill="none" xmlns="http://www.w3.org/2000/svg">
<rect width="16" height="16" fill="#FFEC7A"/>
<path d="M2.39296 6.9H2.87896C3.04296 6.9 3.16596 6.944 3.24796 7.032C3.32996 7.12 3.37096 7.249 3.37096 7.419V7.626C3.37096 7.796 3.32996 7.925 3.24796 8.013C3.16596 8.101 3.04296 8.145 2.87896 8.145H2.72296V9H2.39296V6.9ZM2.87896 7.845C2.93296 7.845 2.97296 7.83 2.99896 7.8C3.02696 7.77 3.04096 7.719 3.04096 7.647V7.398C3.04096 7.326 3.02696 7.275 2.99896 7.245C2.97296 7.215 2.93296 7.2 2.87896 7.2H2.72296V7.845H2.87896ZM4.49219 9.03C4.33019 9.03 4.20619 8.984 4.12019 8.892C4.03419 8.8 3.99119 8.67 3.99119 8.502V7.398C3.99119 7.23 4.03419 7.1 4.12019 7.008C4.20619 6.916 4.33019 6.87 4.49219 6.87C4.65419 6.87 4.77819 6.916 4.86419 7.008C4.95019 7.1 4.99319 7.23 4.99319 7.398V8.502C4.99319 8.67 4.95019 8.8 4.86419 8.892C4.77819 8.984 4.65419 9.03 4.49219 9.03ZM4.49219 8.73C4.60619 8.73 4.66319 8.661 4.66319 8.523V7.377C4.66319 7.239 4.60619 7.17 4.49219 7.17C4.37819 7.17 4.32119 7.239 4.32119 7.377V8.523C4.32119 8.661 4.37819 8.73 4.49219 8.73ZM5.92764 7.2H5.58264V6.9H6.60264V7.2H6.25764V9H5.92764V7.2ZM7.22741 6.9H7.71641C7.88641 6.9 8.01041 6.94 8.08841 7.02C8.16641 7.098 8.20541 7.219 8.20541 7.383V7.512C8.20541 7.73 8.13341 7.868 7.98941 7.926V7.932C8.06941 7.956 8.12541 8.005 8.15741 8.079C8.19141 8.153 8.20841 8.252 8.20841 8.376V8.745C8.20841 8.805 8.21041 8.854 8.21441 8.892C8.21841 8.928 8.22841 8.964 8.24441 9H7.90841C7.89641 8.966 7.88841 8.934 7.88441 8.904C7.88041 8.874 7.87841 8.82 7.87841 8.742V8.358C7.87841 8.262 7.86241 8.195 7.83041 8.157C7.80041 8.119 7.74741 8.1 7.67141 8.1H7.55741V9H7.22741V6.9ZM7.67741 7.8C7.74341 7.8 7.79241 7.783 7.82441 7.749C7.85841 7.715 7.87541 7.658 7.87541 7.578V7.416C7.87541 7.34 7.86141 7.285 7.83341 7.251C7.80741 7.217 7.76541 7.2 7.70741 7.2H7.55741V7.8H7.67741ZM8.90238 6.9H9.38838C9.55238 6.9 9.67538 6.944 9.75738 7.032C9.83938 7.12 9.88038 7.249 9.88038 7.419V7.626C9.88038 7.796 9.83938 7.925 9.75738 8.013C9.67538 8.101 9.55238 8.145 9.38838 8.145H9.23238V9H8.90238V6.9ZM9.38838 7.845C9.44238 7.845 9.48238 7.83 9.50838 7.8C9.53638 7.77 9.55038 7.719 9.55038 7.647V7.398C9.55038 7.326 9.53638 7.275 9.50838 7.245C9.48238 7.215 9.44238 7.2 9.38838 7.2H9.23238V7.845H9.38838ZM11.0016 9.03C10.8396 9.03 10.7156 8.984 10.6296 8.892C10.5436 8.8 10.5006 8.67 10.5006 8.502V7.398C10.5006 7.23 10.5436 7.1 10.6296 7.008C10.7156 6.916 10.8396 6.87 11.0016 6.87C11.1636 6.87 11.2876 6.916 11.3736 7.008C11.4596 7.1 11.5026 7.23 11.5026 7.398V8.502C11.5026 8.67 11.4596 8.8 11.3736 8.892C11.2876 8.984 11.1636 9.03 11.0016 9.03ZM11.0016 8.73C11.1156 8.73 11.1726 8.661 11.1726 8.523V7.377C11.1726 7.239 11.1156 7.17 11.0016 7.17C10.8876 7.17 10.8306 7.239 10.8306 7.377V8.523C10.8306 8.661 10.8876 8.73 11.0016 8.73ZM12.4371 7.2H12.0921V6.9H13.1121V7.2H12.7671V9H12.4371V7.2ZM14.1658 9.03C14.0058 9.03 13.8848 8.985 13.8028 8.895C13.7208 8.803 13.6798 8.672 13.6798 8.502V8.382H13.9918V8.526C13.9918 8.662 14.0488 8.73 14.1628 8.73C14.2188 8.73 14.2608 8.714 14.2888 8.682C14.3188 8.648 14.3338 8.594 14.3338 8.52C14.3338 8.432 14.3138 8.355 14.2738 8.289C14.2338 8.221 14.1598 8.14 14.0518 8.046C13.9158 7.926 13.8208 7.818 13.7668 7.722C13.7128 7.624 13.6858 7.514 13.6858 7.392C13.6858 7.226 13.7278 7.098 13.8118 7.008C13.8958 6.916 14.0178 6.87 14.1778 6.87C14.3358 6.87 14.4548 6.916 14.5348 7.008C14.6168 7.098 14.6578 7.228 14.6578 7.398V7.485H14.3458V7.377C14.3458 7.305 14.3318 7.253 14.3038 7.221C14.2758 7.187 14.2348 7.17 14.1808 7.17C14.0708 7.17 14.0158 7.237 14.0158 7.371C14.0158 7.447 14.0358 7.518 14.0758 7.584C14.1178 7.65 14.1928 7.73 14.3008 7.824C14.4388 7.944 14.5338 8.053 14.5858 8.151C14.6378 8.249 14.6638 8.364 14.6638 8.496C14.6638 8.668 14.6208 8.8 14.5348 8.892C14.4508 8.984 14.3278 9.03 14.1658 9.03Z" fill="black"/>
</svg>
