<?xml version="1.0" encoding="UTF-8"?>
<svg width="752pt" height="752pt" version="1.1" viewBox="0 0 752 752" xmlns="http://www.w3.org/2000/svg">
 <g>
  <path d="m544.75 263.5c5.2969-4.3281 8.1406-10.973 7.6133-17.793-0.41797-8.2734-3.9609-14.941-9.9805-18.777v0.003906c-3.5469-2.1758-7.4961-3.6094-11.609-4.2148 4.9023-3.9648 8.0703-9.6836 8.8359-15.941 0.85938-6.7031-1.5117-13.418-6.3906-18.094-4.7852-4.9492-11.469-7.6055-18.348-7.293-3.6836 0.17969-7.2812 1.1641-10.543 2.8828 0.21094-6.3281-2.0508-12.496-6.3047-17.188-4.5742-5.0859-11.348-7.6094-18.133-6.7578-7.0742 0.53516-13.543 4.1797-17.668 9.9492-1.6992 2.375-2.9727 5.0312-3.7578 7.8438-3.4492-3.1836-7.75-5.2891-12.375-6.0703-6.7344-1.1719-13.617 1.0234-18.426 5.8789-5.2461 4.7969-8.0859 11.676-7.75 18.777 0.16406 3.4688 1.043 6.8672 2.582 9.9844-6.3242-0.37109-12.543 1.7266-17.348 5.8516-5.207 4.4336-7.9102 11.141-7.2344 17.945 0.34375 7.0391 3.7734 13.57 9.3789 17.848 3.8633 3.3086 8.7227 4.8008 14.309 5.3867-3.1523 2.4219-5.75 5.4922-7.6172 9.0039-2.6133 4.6875-3.1953 10.234-1.6094 15.359 1.1836 3.4453 3.2031 6.543 5.8828 9.0117 2.4727 2.3906 5.4062 4.2539 8.6211 5.4766-7.6055 11.691-13.68 24.309-18.078 37.543-0.43359 1.2344-0.35547 2.5938 0.22266 3.7695 0.57812 1.1719 1.6016 2.0664 2.8438 2.4805 1.2422 0.41016 2.5977 0.30469 3.7617-0.29297 1.1641-0.60156 2.0391-1.6406 2.4258-2.8906 3.1758-9.5352 7.2852-18.73 12.27-27.457l9.8594 7.6445c-4.0352 8.8789-6.8125 18.281-8.2461 27.93-0.027344 0-0.054688 0.015624-0.078125 0.023437-8.5977 2.2383-16.773 5.8672-24.195 10.746-0.49609-6.9766-3.1211-13.633-7.5234-19.066-1.0977-1.2188-2.7383-1.8008-4.3594-1.5508s-3.0078 1.2969-3.6914 2.7891c-2.4961 5.2266-6.0312 9.8867-10.398 13.695 3.2031-23.016-10.145-35.953-10.812-36.582-1.0859-1.0234-2.582-1.4961-4.0625-1.2773-1.4766 0.21875-2.7734 1.1055-3.5156 2.4023-3.9805 6.9531-10.438 12.727-19.195 17.16h0.003906c-2.8203 1.4258-5.5469 3.0234-8.1719 4.7852-1.9258-12.895-11.938-44.887-15.09-55.129l-0.007812-0.027343c0.50391-4.1562-0.054688-8.375-1.6289-12.258 3.4609 0.44922 6.9805 0.17188 10.328-0.80859 6.8047-1.9961 12.371-6.9062 15.207-13.406 1.5742-3.2852 2.3125-6.9062 2.1406-10.547-0.41406-5.3477-3.0039-10.293-7.1602-13.68-3.0312-2.5781-6.5781-4.4727-10.402-5.5664 4.9766-2.6016 8.9453-5.7812 11.312-10.281h0.003906c3.6289-6.0391 4.4102-13.375 2.1367-20.047-1.8867-6.5742-6.8711-11.809-13.344-14.016-5.9883-2.0664-12.547-1.7188-18.281 0.96484 0.28125-3.4648-0.15625-6.9492-1.2852-10.234-2.3086-6.7227-7.4844-12.07-14.125-14.594-6.2656-2.7461-13.477-2.2461-19.309 1.332-4.0117 2.4258-7.2305 5.9727-9.2617 10.199-1.7695-2.3242-3.9297-4.3242-6.3867-5.9062-5.9609-3.8398-13.32-4.8398-20.09-2.7266-6.6211 1.707-11.988 6.5547-14.363 12.969-2.2227 5.9297-2.0508 12.492 0.48438 18.297-3.668-0.39844-7.3789 0.015625-10.867 1.2109-6.5078 2.2422-11.738 7.1758-14.359 13.543-2.8086 6.1445-2.5352 13.262 0.73438 19.176 3.0195 5.5352 8.0703 9.6836 14.094 11.559-3.6016 2.082-6.7422 4.8672-9.2344 8.1992-4.1797 5.7812-5.0156 13.285-2.3555 21.133 2.0273 6.5312 7.1211 11.66 13.637 13.727 6.0312 1.9414 12.578 1.457 18.258-1.3477-0.21094 3.4688 0.30078 6.9414 1.5 10.203 2.4453 6.6719 7.7344 11.906 14.426 14.293 2.6016 1.0195 5.3672 1.5547 8.1562 1.5742 4.3984-0.027344 8.6758-1.4453 12.223-4.0508 2.793-1.9961 5.125-4.5742 6.8359-7.5508 1.5391 1.7461 3.3164 3.2656 5.2773 4.5195 2.7773 1.7891 5.8984 2.9727 9.1641 3.4688 3.207 12.473 5.5234 25.16 6.9375 37.961-23.355-19.555-48.41-18.297-49.789-18.215-2 0.125-3.7188 1.4609-4.3359 3.3711-0.61328 1.9062 0 3.9961 1.5508 5.2656 3.418 2.8086 6.9453 8.7031 9.8516 14.586-6.8086-3.5352-15.336-6.9141-23.512-7.2422-11.516-0.46875-14.535-5.3789-14.902-6.082h-0.003907c-0.72266-2.1992-2.9375-3.543-5.2227-3.1719-2.375 0.39453-4.1328 2.4258-4.1797 4.832-0.12891 9.8281 2.7969 19.457 8.3828 27.547-4.1602-1.0039-8.1016-2.7539-11.633-5.1719-1.4844-1.1328-3.4844-1.3203-5.1484-0.48047-1.668 0.83594-2.7109 2.5547-2.6875 4.418-0.09375 10.043 3.7969 19.711 10.82 26.883h-0.58203c-2.6914 0-4.875 2.1836-4.875 4.875v31.738c0.003907 3.8555 1.4219 7.5742 3.9805 10.461 2.5547 2.8828 6.0781 4.7305 9.9062 5.1992v89.188c-3.8281 0.46875-7.3516 2.3164-9.9062 5.2031-2.5586 2.8828-3.9727 6.6016-3.9805 10.457v31.723c0 2.6953 2.1836 4.875 4.875 4.875h32.809v6.9219c0.007813 4.0273 1.6055 7.8828 4.4531 10.73 2.8477 2.8477 6.7031 4.4492 10.73 4.4531h45.336c4.0273-0.003906 7.8867-1.6055 10.73-4.4531 2.8477-2.8477 4.4492-6.7031 4.4531-10.73v-6.9219h96.871v6.9219c0.007813 4.0273 1.6055 7.8828 4.4531 10.73 2.8477 2.8477 6.7031 4.4492 10.73 4.4531h45.336c4.0234-0.003906 7.8828-1.6055 10.727-4.4531 2.8477-2.8477 4.4492-6.7031 4.4531-10.73v-6.9219h32.816c2.6914 0 4.875-2.1797 4.875-4.875v-31.742c-0.007812-3.8555-1.4219-7.5742-3.9805-10.457-2.5586-2.8828-6.082-4.7344-9.9062-5.1992v-89.188c3.8281-0.46484 7.3516-2.3164 9.9062-5.1992 2.5586-2.8828 3.9727-6.6055 3.9805-10.457v-31.742c-0.003906-0.39453-0.058594-0.78906-0.16016-1.1719 13.984-11.25 15.031-28.586 15.074-29.422l0.003907-0.003907c0.070312-1.3984-0.46484-2.7578-1.4688-3.7344-1-0.98438-2.3789-1.4844-3.7734-1.3672-4.4453 0.34766-8.8633 1.0039-13.215 1.9688 4.4219-9.3242 5.0625-20 1.7891-29.785-0.54688-1.5469-1.8359-2.7109-3.4258-3.1055-1.5938-0.39062-3.2734 0.042969-4.4766 1.1562-9.25 8.4375-20.801 13.934-33.184 15.789-8.7656 1.207-17.246 3.9648-25.043 8.1523 0.30469-4.168-0.25781-8.3555-1.6445-12.297-0.55469-1.3867-1.7188-2.4414-3.1484-2.8633-1.4336-0.42188-2.9805-0.16406-4.1992 0.70312-2.9141 2.0586-5.9961 3.875-9.2148 5.418 1.9922-10.387 5.9258-20.305 11.598-29.23 3.9297 4.0938 9.3828 6.3828 15.059 6.3203 0.99219 0 1.9844-0.0625 2.9727-0.17969 6.8516-0.66797 13.086-4.25 17.109-9.8359 1.3633-1.8867 2.4531-3.957 3.2383-6.1484 2.6875 2.1367 5.8047 3.6719 9.1406 4.5 7.0742 1.8555 14.605-0.12109 19.852-5.2148 5.3438-4.6836 8.3281-11.504 8.1445-18.605-0.085938-3.4766-0.89453-6.8945-2.3672-10.039 6.3125 0.51172 12.574-1.4531 17.465-5.4805zm-224.62 47.914c3.1289 11.332 6.0312 22.953 6.9648 30.113h-0.003906c-3.9102 3.6992-7.2656 7.9492-9.9531 12.617-1.6836-2.4375-3.418-4.6992-5.1875-6.8164-0.85547-13.211-2.668-26.344-5.4258-39.289zm-29.73-24.473h-0.003906c-4.1133-2.7266-6.7812-7.1562-7.2734-12.066l-0.023438-0.18359v0.003907c-0.32031-2.6406-2.6953-4.5352-5.3398-4.2617-2.6406 0.27344-4.582 2.6094-4.3555 5.2578l0.066406 0.78516h-0.003906c0.52734 5.3398-1.7812 10.562-6.0859 13.762-3.2383 2.4297-7.5352 2.9297-11.25 1.3125-4.0742-1.3672-7.3008-4.5195-8.7578-8.5586-1.5859-4.5156-1.1289-9.4922 1.2539-13.641l3.0078-5.4531c1.1953-2.1602 0.58594-4.8711-1.418-6.3125l-0.40625-0.27734 0.003906-0.003906c-1.9258-1.4219-4.6016-1.2383-6.3125 0.4375l-6.7461 6.6094c-1.9531 1.9688-4.4062 3.3711-7.0938 4.0586s-5.5117 0.63281-8.1719-0.15625c-3.5977-1.1211-6.3867-3.9766-7.4297-7.5938-1.6172-4.7695-1.2539-9.1328 1.0234-12.285 6.9102-9.5547 24.387-11.398 24.555-11.422 2.6172-0.26172 4.5586-2.5508 4.3828-5.1758-0.17188-2.625-2.3984-4.6367-5.0273-4.5508-6.2891 0.22656-22.992 0.82812-28.016-8.832v0.003906c-1.9219-3.2969-2.0898-7.332-0.44922-10.777 1.5117-3.8711 4.6562-6.8789 8.5938-8.2148 4.6875-1.5312 9.8125-0.875 13.961 1.7852l5.8945 3.6328v-0.003906c1.9688 1.2148 4.5195 0.875 6.1055-0.80469l0.11719-0.12109 0.10547-0.10938-0.003906-0.003906c1.75-1.8359 1.7969-4.707 0.10938-6.6016l-6.793-7.6211c-1.8711-2.0469-3.1562-4.5625-3.7109-7.2812-0.55859-2.7188-0.36719-5.5391 0.54688-8.1562 1.293-3.5391 4.2773-6.1914 7.9414-7.0547 4.0703-1.3555 8.5312-0.78125 12.125 1.5586 3.9883 2.6562 6.625 6.918 7.2148 11.672l1.168 8.2891c0.35156 2.5156 2.5781 4.3359 5.1133 4.1875 0.40625-0.023438 0.82031-0.035156 1.2344-0.046875v-0.003907c1.3242-0.035156 2.5742-0.60547 3.4688-1.582 0.89062-0.97656 1.3516-2.2734 1.2656-3.5938l-0.55859-8.9805 0.003906 0.003907c-0.21094-2.7656 0.33594-5.5391 1.5742-8.0195 1.2422-2.4844 3.1328-4.582 5.4688-6.0742 3.1992-1.9883 7.1875-2.2305 10.602-0.64844 4.0469 1.4531 7.207 4.6719 8.582 8.7422 1.4883 4.5469 0.92188 9.5156-1.543 13.613l-4.082 7.0391h-0.003906c-1.2148 2.0898-0.71094 4.7578 1.1836 6.2656 1.8945 1.5039 4.6094 1.3945 6.3711-0.26563l8.2891-7.7891c2-1.9258 4.4805-3.2734 7.1836-3.9023s5.5234-0.51562 8.168 0.33203c3.5703 1.1992 6.3008 4.1094 7.2617 7.7539 1.4648 4.0391 1.0039 8.5273-1.2539 12.184-0.058593 0.097656-0.11719 0.19922-0.16797 0.30078-2.8555 5.5391-12.16 8.707-22.938 12.375l-3.1484 1.0742c-2.2109 0.76172-3.5703 2.9844-3.2422 5.3008 0.33203 2.3164 2.2617 4.0703 4.5977 4.1797 2.2109 0.10547 4.332 0.125 6.3789 0.14062 7.8945 0.074219 14.129 0.12891 19.738 4.8516h0.003907c2.1055 1.6602 3.4453 4.1094 3.707 6.7773 0.074219 2.0391-0.35547 4.0664-1.2539 5.8984-1.6406 3.9609-4.9922 6.9609-9.1133 8.1484-4.6172 1.2773-9.5664 0.48438-13.551-2.1797l-6.8398-4.4141c-2.0312-1.3086-4.7188-0.93359-6.3086 0.88672-1.5938 1.8203-1.6094 4.5312-0.042969 6.3711l7.3828 8.6484v0.003907c1.8281 2.0859 3.0586 4.6289 3.5586 7.3594 0.5 2.7305 0.25 5.543-0.72266 8.1406-1.3633 3.5117-4.4023 6.1016-8.0859 6.8906-3.9766 1.2266-8.2891 0.63672-11.789-1.6172zm-75.676 132.78v-26.867h269.88v22.086c0.019532 3.7188-0.74219 7.4062-2.2422 10.812h-261.6c-3.332-0.003906-6.0312-2.7031-6.0391-6.0312zm229.44 104.72v-17.16c0-2.6914-2.1797-4.875-4.875-4.875-2.6914 0-4.875 2.1836-4.875 4.875v17.156h-62.723v-74.691l62.73 1.6016v10.391c0 2.6914 2.1836 4.875 4.875 4.875 2.6914 0 4.875-2.1836 4.875-4.875v-10.137l34.258 0.875v71.965zm-149.48-40.633c-2.6914 0-4.875 2.1797-4.875 4.875v35.766l-61.191-0.003906v-78.352l133.32 3.4062v74.938h-62.383v-35.754c0-1.293-0.51562-2.5352-1.4297-3.4492-0.91406-0.91406-2.1523-1.4258-3.4453-1.4258zm-79.953 83.289v-26.879c0.003906-3.332 2.7031-6.0312 6.0352-6.0352h261.97c1.2656 2.8984 1.8984 6.0312 1.8672 9.1953v23.707zm236.36-223.14c0.074219 5-1.5078 9.8867-4.5 13.898l-0.023437 0.035157-0.10547 0.15625-0.007813 0.015624v0.039063-0.003906c-1.3945 2.2188-0.78125 5.1484 1.3867 6.6211 2.168 1.4766 5.1172 0.96875 6.668-1.1445 0.37891-0.50391 9.332-12.152 32.781-15.672 11.492-1.7266 22.402-6.168 31.832-12.961 0.57031 7.2734-0.89844 18.355-12.875 25.469-2.2383 1.332-3.0352 4.1836-1.8125 6.4844 1.2227 2.2969 4.0352 3.2266 6.3906 2.1133 7.0273-3.0352 14.414-5.1562 21.98-6.3086-2.1211 8.5977-7.8672 15.852-15.754 19.887-0.26953 0.13672-0.52734 0.29688-0.76953 0.48047h-289.43c-0.28906-0.24219-0.60156-0.45312-0.9375-0.625-7.2227-3.5195-12.707-9.8242-15.191-17.469 6.25 2.5586 13.031 3.5352 19.75 2.8438 1.8945-0.21875 3.4922-1.5195 4.082-3.3359 0.58984-1.8164 0.070313-3.8086-1.3359-5.1016-5.0039-5.0078-8.7969-11.094-11.094-17.789 3.9922 1.5234 8.2148 2.3516 12.488 2.4492 14.207 0.58203 31.297 13.539 31.465 13.668v0.003906c1.7109 1.3125 4.0859 1.3477 5.832 0.082031 1.7461-1.2695 2.4531-3.5352 1.7344-5.5703-2.8828-8.1172-6.5586-15.93-10.977-23.324 13.066 2.2695 35.395 10.309 51.039 38.094v0.003906c0.99609 1.7656 2.9766 2.7305 4.9805 2.4258 2.0039-0.30469 3.6094-1.8164 4.0352-3.7969 0.035156-0.16016 3.6797-16.113 25.805-27.32l-0.003906-0.003906c7.4219-3.6016 13.984-8.7578 19.234-15.117 3.5742 6.0664 7.6914 17.758 1.3945 34.484-0.70312 1.8633-0.20312 3.9648 1.2656 5.3125 1.4688 1.3438 3.6055 1.6641 5.4023 0.80078 8.1641-4.2461 15.238-10.328 20.664-17.762 1.7461 4.9023 2.0391 10.203 0.83594 15.266-0.46875 2.082 0.47266 4.2227 2.3203 5.2891 1.8477 1.0664 4.1758 0.80859 5.7422-0.64062 8.3672-7.1406 18.223-12.316 28.848-15.152 5.8984-1.5078 11.57-3.8047 16.855-6.8242zm71.816-85.953-8.707-3.6562c-2.2148-0.92969-4.7773-0.10547-6.0391 1.9414l-0.26172 0.39844h0.003906c-1.3281 2.0781-0.89453 4.8242 1.0117 6.3906l4.8086 3.9531h-0.003907c3.7422 2.9805 6.0039 7.4375 6.1992 12.215 0.13281 4.2969-1.707 8.418-4.9883 11.191-2.8555 2.8711-7.0312 3.9883-10.938 2.9219-5.1836-1.3828-9.2578-5.3867-10.734-10.543l-0.22656-0.75391h-0.003906c-0.77344-2.5469-3.4414-4-6-3.2734-2.5586 0.73047-4.0586 3.375-3.375 5.9453l0.042969 0.16797c1.3516 4.7422 0.5 9.8359-2.3164 13.883-2.418 3.3828-6.2109 5.5234-10.355 5.8477-3.7148 0.625-7.4922-0.66016-10.059-3.418-1.8594-2.0547-3.1289-4.5781-3.6719-7.3008-0.54297-2.7188-0.33594-5.5391 0.59375-8.1523l3.6758-10.766c0.78125-2.2891-0.23438-4.8086-2.3867-5.9141-2.1562-1.1055-4.793-0.46094-6.1992 1.5078l-4.7344 6.625c-2.7188 3.9453-7.0234 6.5117-11.789 7.0234-4.2656 0.42188-8.4922-1.1289-11.477-4.2109-1.5078-1.3711-2.6562-3.0938-3.3438-5.0156-0.73828-2.5742-0.39453-5.3438 0.95312-7.6641 3.4727-6.4609 9.2461-8.8125 16.559-11.789 1.9023-0.77344 3.8672-1.5742 5.8789-2.4844v-0.003906c2.1289-0.96484 3.2734-3.3047 2.7266-5.5781s-2.6289-3.8398-4.9648-3.7305l-3.3203 0.16016c-11.371 0.56641-21.191 1.0547-25.887-3.043-0.085937-0.074219-0.17578-0.14453-0.26562-0.21484-3.4453-2.5703-5.5312-6.5703-5.6641-10.867-0.44922-3.7383 1.0156-7.4531 3.8945-9.8789 2.1406-1.7617 4.7227-2.9102 7.4648-3.3242 2.7461-0.41016 5.5469-0.074218 8.1172 0.98047l10.586 4.1797v-0.003907c2.2461 0.87891 4.7969-0.015624 6-2.1094 1.2031-2.0898 0.69531-4.7461-1.1914-6.2461l-6.3945-5.0391c-3.8047-2.8984-6.1602-7.3086-6.457-12.082-0.22266-4.2891 1.5273-8.4492 4.75-11.293 2.5938-2.7266 6.3867-3.9727 10.094-3.3086 2.7266 0.52734 5.2578 1.7812 7.3242 3.6328 2.0703 1.8477 3.5977 4.2266 4.4258 6.875l2.7852 8.5508c0.41016 1.2578 1.3125 2.293 2.5039 2.8711 1.1914 0.57812 2.5625 0.64844 3.8047 0.19141 0.38672-0.14062 0.76953-0.27734 1.1562-0.40625h0.003906c2.4141-0.79297 3.8164-3.3086 3.2188-5.7812l-1.9727-8.1328c-1.2031-4.6406-0.32812-9.5742 2.4023-13.512 2.4766-3.5 6.4102-5.6836 10.691-5.9258 3.7266-0.55469 7.4844 0.8125 9.9844 3.6289 1.8164 2.0938 3.0352 4.6445 3.5195 7.3789 0.48438 2.7305 0.21875 5.543-0.76562 8.1367l-3.5039 9.582c-0.87109 2.3906 0.23828 5.0469 2.5508 6.1055l0.24219 0.11328c2.1016 1 4.6172 0.37891 6.0078-1.4883l4.1406-5.5469h-0.003906c2.875-4.0078 7.3984-6.5117 12.32-6.8242 4.1523-0.20312 8.1836 1.4336 11.02 4.4727 2.7969 2.5977 4.1289 6.4141 3.5586 10.188-1.1055 10.828-16.855 16.438-22.785 18.539h0.003906c-2.4922 0.87891-3.8281 3.5781-3.0234 6.0898 0.80859 2.5117 3.4688 3.9258 6.0039 3.1914 0.17188-0.046875 17.094-4.7773 27.039 1.5547 3.2812 2.0898 5.2266 6.0117 5.4805 11.043v-0.003906c0.36719 3.7461-1.1719 7.4297-4.1016 9.7969-2.1797 1.7188-4.7852 2.8125-7.5391 3.168-2.7539 0.35156-5.5508-0.046875-8.0977-1.1562z"/>
  <path d="m469.07 221.41c-4.2305 1.6797-7.6211 4.9727-9.4258 9.1484-1.8008 4.1797-1.8711 8.9023-0.19141 13.133 1.6758 4.2305 4.9688 7.6211 9.1445 9.4258 4.1797 1.8047 8.9023 1.875 13.133 0.19531 4.2305-1.6797 7.6211-4.9688 9.4258-9.1484 1.8047-4.1758 1.875-8.9023 0.19922-13.133-1.6836-4.2266-4.9766-7.6133-9.1523-9.418-4.1797-1.8047-8.9023-1.8789-13.133-0.20313z"/>
  <path d="m290.16 227.64c0 9.3164-7.5547 16.871-16.871 16.871s-16.867-7.5547-16.867-16.871 7.5508-16.867 16.867-16.867 16.871 7.5508 16.871 16.867"/>
  <path d="m299.55 466.62c0-2.6953-2.1836-4.875-4.875-4.875-2.6914 0-4.875 2.1797-4.875 4.875v3.1797c0 2.6914 2.1836 4.875 4.875 4.875 2.6914 0 4.875-2.1836 4.875-4.875z"/>
  <path d="m439.28 478.23c-2.6914 0-4.875 2.1836-4.875 4.875v1.2344c0 2.6914 2.1836 4.875 4.875 4.875 2.6953 0 4.875-2.1836 4.875-4.875v-1.2344c0-1.293-0.51172-2.5312-1.4258-3.4453-0.91406-0.91406-2.1562-1.4297-3.4492-1.4297z"/>
 </g>
</svg>
