<?xml version="1.0" encoding="utf-8"?>
<!-- Generator: Adobe Illustrator 24.1.2, SVG Export Plug-In . SVG Version: 6.00 Build 0)  -->
<svg version="1.1" id="Layer_1" xmlns="http://www.w3.org/2000/svg" xmlns:xlink="http://www.w3.org/1999/xlink" x="0px" y="0px"
	 viewBox="0 0 128 128" style="enable-background:new 0 0 128 128;" xml:space="preserve">
<style type="text/css">
	.st0{fill:#FFEC7A;}
	.st1{enable-background:new    ;}
	.st2{fill:#03839E;}
</style>
<g id="Layer_2_1_">
	<path class="st0" d="M0,85.3C0,108.9,19.1,128,42.7,128h21.5h21.2c23.6,0,42.7-19.1,42.7-42.7V63.8V42.7C128,19.1,108.9,0,85.3,0
		H64H42.7C19.1,0,0,19.1,0,42.7v21.6V85.3z"/>
</g>
<g class="st1">
	<path class="st2" d="M27.2,22.1h18.5c6.2,0,10.9,1.7,14,5c3.1,3.3,4.7,8.2,4.7,14.7v7.9c0,6.5-1.6,11.4-4.7,14.7
		c-3.1,3.3-7.8,5-14,5h-5.9v32.5H27.2V22.1z M45.6,58c2.1,0,3.6-0.6,4.6-1.7c1-1.1,1.5-3.1,1.5-5.8V41c0-2.7-0.5-4.7-1.5-5.8
		c-1-1.1-2.6-1.7-4.6-1.7h-5.9V58H45.6z"/>
	<path class="st2" d="M71.2,22.1h18.5c6.2,0,10.9,1.7,14,5c3.1,3.3,4.7,8.2,4.7,14.7v7.9c0,6.5-1.6,11.4-4.7,14.7
		c-3.1,3.3-7.8,5-14,5h-5.9v32.5H71.2V22.1z M89.6,58c2.1,0,3.6-0.6,4.6-1.7c1-1.1,1.5-3.1,1.5-5.8V41c0-2.7-0.5-4.7-1.5-5.8
		c-1-1.1-2.6-1.7-4.6-1.7h-5.9V58H89.6z"/>
</g>
</svg>
