<svg width="519" height="43" viewBox="0 0 519 43" fill="none" xmlns="http://www.w3.org/2000/svg">
<path d="M0.378 1.4V0.329848H-0.692149V1.4H0.378ZM16.908 3.952L16.1251 4.68155V4.68155L16.908 3.952ZM16.908 22.918L16.1251 22.1884L16.908 22.918ZM6.758 25.47V24.3998H5.68785V25.47H6.758ZM6.758 42V43.0701H7.82815V42H6.758ZM0.378 42H-0.692149V43.0701H0.378V42ZM12.094 18.8L11.3117 18.0698L11.2982 18.0842L11.2853 18.0991L12.094 18.8ZM12.094 8.07L11.2853 8.77087L11.2982 8.78577L11.3117 8.80018L12.094 8.07ZM6.758 7.2V6.12985H5.68785V7.2H6.758ZM6.758 19.67H5.68785V20.7401H6.758V19.67ZM0.378 2.47015H9.774V0.329848H0.378V2.47015ZM9.774 2.47015C12.7596 2.47015 14.8075 3.2676 16.1251 4.68155L17.6909 3.22245C15.8378 1.23373 13.1298 0.329848 9.774 0.329848V2.47015ZM16.1251 4.68155C17.4615 6.11577 18.2159 8.3061 18.2159 11.434H20.3561C20.3561 7.98856 19.5252 5.19089 17.6909 3.22245L16.1251 4.68155ZM18.2159 11.434V15.436H20.3561V11.434H18.2159ZM18.2159 15.436C18.2159 18.5639 17.4615 20.7542 16.1251 22.1884L17.6909 23.6475C19.5252 21.6791 20.3561 18.8814 20.3561 15.436H18.2159ZM16.1251 22.1884C14.8075 23.6024 12.7596 24.3998 9.774 24.3998V26.5401C13.1298 26.5401 15.8378 25.6363 17.6909 23.6475L16.1251 22.1884ZM9.774 24.3998H6.758V26.5401H9.774V24.3998ZM5.68785 25.47V42H7.82815V25.47H5.68785ZM6.758 40.9299H0.378V43.0701H6.758V40.9299ZM1.44815 42V1.4H-0.692149V42H1.44815ZM9.774 20.7401C11.011 20.7401 12.1308 20.3915 12.9027 19.5009L11.2853 18.0991C11.0519 18.3685 10.625 18.5998 9.774 18.5998V20.7401ZM12.8763 19.5302C13.6996 18.6481 13.9761 17.3179 13.9761 15.842H11.8359C11.8359 17.1501 11.5711 17.7919 11.3117 18.0698L12.8763 19.5302ZM13.9761 15.842V11.028H11.8359V15.842H13.9761ZM13.9761 11.028C13.9761 9.55206 13.6996 8.2219 12.8763 7.33982L11.3117 8.80018C11.5711 9.0781 11.8359 9.71993 11.8359 11.028H13.9761ZM12.9027 7.36912C12.1308 6.47846 11.011 6.12985 9.774 6.12985V8.27015C10.625 8.27015 11.0519 8.50154 11.2853 8.77087L12.9027 7.36912ZM9.774 6.12985H6.758V8.27015H9.774V6.12985ZM5.68785 7.2V19.67H7.82815V7.2H5.68785ZM6.758 20.7401H9.774V18.5998H6.758V20.7401ZM33.771 39.912L34.5528 39.1812L33.771 39.912ZM33.771 3.488L34.5528 4.21879L33.771 3.488ZM48.155 3.488L47.3733 4.21879L47.3733 4.21879L48.155 3.488ZM48.155 39.912L47.3733 39.1812H47.3733L48.155 39.912ZM40.963 41.5098C38.0377 41.5098 35.9591 40.6856 34.5528 39.1812L32.9893 40.6428C34.9084 42.6958 37.6244 43.6502 40.963 43.6502V41.5098ZM34.5528 39.1812C33.1303 37.6594 32.3472 35.4413 32.3472 32.372H30.2069C30.2069 35.7987 31.0865 38.6072 32.9893 40.6428L34.5528 39.1812ZM32.3472 32.372V11.028H30.2069V32.372H32.3472ZM32.3472 11.028C32.3472 7.95868 33.1303 5.74056 34.5528 4.21879L32.9893 2.75721C31.0865 4.79277 30.2069 7.60132 30.2069 11.028H32.3472ZM34.5528 4.21879C35.9591 2.71443 38.0377 1.89015 40.963 1.89015V-0.250152C37.6244 -0.250152 34.9084 0.70423 32.9893 2.75721L34.5528 4.21879ZM40.963 1.89015C43.8884 1.89015 45.967 2.71443 47.3733 4.21879L48.9368 2.75721C47.0177 0.70423 44.3017 -0.250152 40.963 -0.250152V1.89015ZM47.3733 4.21879C48.7958 5.74056 49.5789 7.95868 49.5789 11.028H51.7192C51.7192 7.60132 50.8396 4.79277 48.9368 2.75721L47.3733 4.21879ZM49.5789 11.028V32.372H51.7192V11.028H49.5789ZM49.5789 32.372C49.5789 35.4413 48.7958 37.6594 47.3733 39.1812L48.9368 40.6428C50.8396 38.6072 51.7192 35.7987 51.7192 32.372H49.5789ZM47.3733 39.1812C45.967 40.6856 43.8884 41.5098 40.963 41.5098V43.6502C44.3017 43.6502 47.0177 42.6958 48.9368 40.6428L47.3733 39.1812ZM40.963 37.8501C42.2896 37.8501 43.4598 37.4389 44.2676 36.4611C45.043 35.5224 45.3392 34.2325 45.3392 32.778H43.1989C43.1989 33.9915 42.9441 34.7026 42.6175 35.0979C42.3232 35.4541 41.8405 35.7099 40.963 35.7099V37.8501ZM45.3392 32.778V10.622H43.1989V32.778H45.3392ZM45.3392 10.622C45.3392 9.16748 45.043 7.87759 44.2676 6.93894C43.4598 5.96114 42.2896 5.54985 40.963 5.54985V7.69015C41.8405 7.69015 42.3232 7.94586 42.6175 8.30206C42.9441 8.69741 43.1989 9.40851 43.1989 10.622H45.3392ZM40.963 5.54985C39.6365 5.54985 38.4663 5.96114 37.6585 6.93894C36.8831 7.87759 36.5869 9.16748 36.5869 10.622H38.7272C38.7272 9.40851 38.982 8.69741 39.3086 8.30206C39.6028 7.94586 40.0856 7.69015 40.963 7.69015V5.54985ZM36.5869 10.622V32.778H38.7272V10.622H36.5869ZM36.5869 32.778C36.5869 34.2325 36.8831 35.5224 37.6585 36.4611C38.4663 37.4389 39.6365 37.8501 40.963 37.8501V35.7099C40.0856 35.7099 39.6028 35.4541 39.3086 35.0979C38.982 34.7026 38.7272 33.9915 38.7272 32.778H36.5869ZM68.7151 7.2H69.7853V6.12985H68.7151V7.2ZM62.0451 7.2H60.975V8.27015H62.0451V7.2ZM62.0451 1.4V0.329848H60.975V1.4H62.0451ZM81.7651 1.4H82.8353V0.329848H81.7651V1.4ZM81.7651 7.2V8.27015H82.8353V7.2H81.7651ZM75.0951 7.2V6.12985H74.025V7.2H75.0951ZM75.0951 42V43.0701H76.1653V42H75.0951ZM68.7151 42H67.645V43.0701H68.7151V42ZM68.7151 6.12985H62.0451V8.27015H68.7151V6.12985ZM63.1153 7.2V1.4H60.975V7.2H63.1153ZM62.0451 2.47015H81.7651V0.329848H62.0451V2.47015ZM80.695 1.4V7.2H82.8353V1.4H80.695ZM81.7651 6.12985H75.0951V8.27015H81.7651V6.12985ZM74.025 7.2V42H76.1653V7.2H74.025ZM75.0951 40.9299H68.7151V43.0701H75.0951V40.9299ZM69.7853 42V7.2H67.645V42H69.7853ZM93.8441 1.4V0.329848H92.7739V1.4H93.8441ZM110.49 3.72L109.724 4.46713L109.733 4.47671L110.49 3.72ZM108.576 21.236L108.176 20.2433L107.506 20.5133V21.236H108.576ZM108.576 21.352H107.506V22.1482L108.269 22.377L108.576 21.352ZM111.824 24.194L110.842 24.6188L110.847 24.6298L110.852 24.6408L111.824 24.194ZM112.926 39.912L111.862 40.024L111.862 40.0302L112.926 39.912ZM113.506 42V43.0701H115.153L114.484 41.5654L113.506 42ZM107.01 42L106.001 42.3562L106.253 43.0701H107.01V42ZM105.502 25.702L104.662 26.3651L104.673 26.3784L104.684 26.3913L105.502 25.702ZM100.224 24.6V23.5299H99.1539V24.6H100.224ZM100.224 42V43.0701H101.294V42H100.224ZM93.8441 42H92.7739V43.0701H93.8441V42ZM105.386 17.814L104.629 17.0573L104.618 17.0688L104.607 17.0806L105.386 17.814ZM105.56 8.186L104.71 8.83606L104.722 8.8514L104.734 8.8663L105.56 8.186ZM100.224 7.2V6.12985H99.1539V7.2H100.224ZM100.224 18.8H99.1539V19.8701H100.224V18.8ZM93.8441 2.47015H103.298V0.329848H93.8441V2.47015ZM103.298 2.47015C106.445 2.47015 108.502 3.21336 109.724 4.46707L111.256 2.97293C109.463 1.1333 106.725 0.329848 103.298 0.329848V2.47015ZM109.733 4.47671C110.961 5.70439 111.682 7.71415 111.682 10.738H113.822C113.822 7.42051 113.035 4.75161 111.247 2.96329L109.733 4.47671ZM111.682 10.738V13.232H113.822V10.738H111.682ZM111.682 13.232C111.682 15.232 111.35 16.7666 110.759 17.899C110.181 19.0077 109.331 19.7782 108.176 20.2433L108.976 22.2287C110.605 21.5725 111.843 20.4483 112.657 18.889C113.458 17.3534 113.822 15.4466 113.822 13.232H111.682ZM107.506 21.236V21.352H109.646V21.236H107.506ZM108.269 22.377C109.525 22.754 110.354 23.4897 110.842 24.6188L112.806 23.7692C112.057 22.037 110.72 20.878 108.884 20.327L108.269 22.377ZM110.852 24.6408C111.42 25.8774 111.74 27.6199 111.74 29.936H113.88C113.88 27.4574 113.543 25.3719 112.797 23.7472L110.852 24.6408ZM111.74 29.936V37.07H113.88V29.936H111.74ZM111.74 37.07C111.74 38.2489 111.779 39.2374 111.862 40.024L113.99 39.8C113.918 39.1172 113.88 38.2111 113.88 37.07H111.74ZM111.862 40.0302C111.953 40.8446 112.178 41.6469 112.528 42.4346L114.484 41.5654C114.215 40.9611 114.054 40.3714 113.99 39.7938L111.862 40.0302ZM113.506 40.9299H107.01V43.0701H113.506V40.9299ZM108.019 41.6438C107.807 41.0433 107.673 40.4971 107.607 40.0026L105.485 40.2854C105.574 40.9509 105.749 41.642 106.001 42.3562L108.019 41.6438ZM107.607 40.0026C107.54 39.5018 107.5 38.5238 107.5 37.012H105.36C105.36 38.5163 105.397 39.6262 105.485 40.2854L107.607 40.0026ZM107.5 37.012V29.588H105.36V37.012H107.5ZM107.5 29.588C107.5 27.6826 107.197 26.053 106.321 25.0127L104.684 26.3913C105.045 26.8203 105.36 27.7814 105.36 29.588H107.5ZM106.342 25.0389C105.466 23.9289 104.037 23.5299 102.428 23.5299V25.6701C103.758 25.6701 104.378 26.0058 104.662 26.3651L106.342 25.0389ZM102.428 23.5299H100.224V25.6701H102.428V23.5299ZM99.1539 24.6V42H101.294V24.6H99.1539ZM100.224 40.9299H93.8441V43.0701H100.224V40.9299ZM94.9142 42V1.4H92.7739V42H94.9142ZM102.544 19.8701C103.991 19.8701 105.273 19.4961 106.165 18.5474L104.607 17.0806C104.262 17.4466 103.65 17.7299 102.544 17.7299V19.8701ZM106.143 18.5707C107.099 17.6145 107.442 16.1602 107.442 14.508H105.302C105.302 15.9491 104.988 16.6988 104.629 17.0573L106.143 18.5707ZM107.442 14.508V11.376H105.302V14.508H107.442ZM107.442 11.376C107.442 9.8217 107.165 8.4511 106.386 7.5057L104.734 8.8663C105.038 9.23556 105.302 9.99162 105.302 11.376H107.442ZM106.41 7.53594C105.639 6.52696 104.452 6.12985 103.124 6.12985V8.27015C104.039 8.27015 104.476 8.53037 104.71 8.83606L106.41 7.53594ZM103.124 6.12985H100.224V8.27015H103.124V6.12985ZM99.1539 7.2V18.8H101.294V7.2H99.1539ZM100.224 19.8701H102.544V17.7299H100.224V19.8701ZM144.506 1.4V0.329848H143.436V1.4H144.506ZM161.036 3.952L160.253 4.68155V4.68155L161.036 3.952ZM161.036 22.918L160.253 22.1884L161.036 22.918ZM150.886 25.47V24.3998H149.816V25.47H150.886ZM150.886 42V43.0701H151.956V42H150.886ZM144.506 42H143.436V43.0701H144.506V42ZM156.222 18.8L155.439 18.0698L155.426 18.0842L155.413 18.0991L156.222 18.8ZM156.222 8.07L155.413 8.77087L155.426 8.78577L155.439 8.80018L156.222 8.07ZM150.886 7.2V6.12985H149.816V7.2H150.886ZM150.886 19.67H149.816V20.7401H150.886V19.67ZM144.506 2.47015H153.902V0.329848H144.506V2.47015ZM153.902 2.47015C156.887 2.47015 158.935 3.2676 160.253 4.68155L161.819 3.22245C159.966 1.23373 157.257 0.329848 153.902 0.329848V2.47015ZM160.253 4.68155C161.589 6.11577 162.344 8.3061 162.344 11.434H164.484C164.484 7.98856 163.653 5.19089 161.819 3.22245L160.253 4.68155ZM162.344 11.434V15.436H164.484V11.434H162.344ZM162.344 15.436C162.344 18.5639 161.589 20.7542 160.253 22.1884L161.819 23.6475C163.653 21.6791 164.484 18.8814 164.484 15.436H162.344ZM160.253 22.1884C158.935 23.6024 156.887 24.3998 153.902 24.3998V26.5401C157.257 26.5401 159.966 25.6363 161.819 23.6475L160.253 22.1884ZM153.902 24.3998H150.886V26.5401H153.902V24.3998ZM149.816 25.47V42H151.956V25.47H149.816ZM150.886 40.9299H144.506V43.0701H150.886V40.9299ZM145.576 42V1.4H143.436V42H145.576ZM153.902 20.7401C155.139 20.7401 156.259 20.3915 157.03 19.5009L155.413 18.0991C155.18 18.3685 154.753 18.5998 153.902 18.5998V20.7401ZM157.004 19.5302C157.827 18.6481 158.104 17.3179 158.104 15.842H155.964C155.964 17.1501 155.699 17.7919 155.439 18.0698L157.004 19.5302ZM158.104 15.842V11.028H155.964V15.842H158.104ZM158.104 11.028C158.104 9.55206 157.827 8.2219 157.004 7.33982L155.439 8.80018C155.699 9.0781 155.964 9.71993 155.964 11.028H158.104ZM157.03 7.36912C156.259 6.47846 155.139 6.12985 153.902 6.12985V8.27015C154.753 8.27015 155.18 8.50154 155.413 8.77087L157.03 7.36912ZM153.902 6.12985H150.886V8.27015H153.902V6.12985ZM149.816 7.2V19.67H151.956V7.2H149.816ZM150.886 20.7401H153.902V18.5998H150.886V20.7401ZM177.899 39.912L178.681 39.1812L177.899 39.912ZM177.899 3.488L178.681 4.21879L177.899 3.488ZM192.283 3.488L191.501 4.21879V4.21879L192.283 3.488ZM192.283 39.912L191.501 39.1812L192.283 39.912ZM185.091 41.5098C182.165 41.5098 180.087 40.6856 178.681 39.1812L177.117 40.6428C179.036 42.6958 181.752 43.6502 185.091 43.6502V41.5098ZM178.681 39.1812C177.258 37.6594 176.475 35.4413 176.475 32.372H174.335C174.335 35.7987 175.214 38.6072 177.117 40.6428L178.681 39.1812ZM176.475 32.372V11.028H174.335V32.372H176.475ZM176.475 11.028C176.475 7.95868 177.258 5.74056 178.681 4.21879L177.117 2.75721C175.214 4.79277 174.335 7.60132 174.335 11.028H176.475ZM178.681 4.21879C180.087 2.71443 182.165 1.89015 185.091 1.89015V-0.250152C181.752 -0.250152 179.036 0.70423 177.117 2.75721L178.681 4.21879ZM185.091 1.89015C188.016 1.89015 190.095 2.71443 191.501 4.21879L193.065 2.75721C191.145 0.70423 188.429 -0.250152 185.091 -0.250152V1.89015ZM191.501 4.21879C192.924 5.74056 193.707 7.95868 193.707 11.028H195.847C195.847 7.60132 194.967 4.79277 193.065 2.75721L191.501 4.21879ZM193.707 11.028V32.372H195.847V11.028H193.707ZM193.707 32.372C193.707 35.4413 192.924 37.6594 191.501 39.1812L193.065 40.6428C194.967 38.6072 195.847 35.7987 195.847 32.372H193.707ZM191.501 39.1812C190.095 40.6856 188.016 41.5098 185.091 41.5098V43.6502C188.429 43.6502 191.145 42.6958 193.065 40.6428L191.501 39.1812ZM185.091 37.8501C186.417 37.8501 187.588 37.4389 188.395 36.4611C189.171 35.5224 189.467 34.2325 189.467 32.778H187.327C187.327 33.9915 187.072 34.7026 186.745 35.0979C186.451 35.4541 185.968 35.7099 185.091 35.7099V37.8501ZM189.467 32.778V10.622H187.327V32.778H189.467ZM189.467 10.622C189.467 9.16748 189.171 7.87759 188.395 6.93894C187.588 5.96114 186.417 5.54985 185.091 5.54985V7.69015C185.968 7.69015 186.451 7.94586 186.745 8.30206C187.072 8.69741 187.327 9.40851 187.327 10.622H189.467ZM185.091 5.54985C183.764 5.54985 182.594 5.96114 181.786 6.93894C181.011 7.87759 180.715 9.16748 180.715 10.622H182.855C182.855 9.40851 183.11 8.69741 183.436 8.30206C183.731 7.94586 184.213 7.69015 185.091 7.69015V5.54985ZM180.715 10.622V32.778H182.855V10.622H180.715ZM180.715 32.778C180.715 34.2325 181.011 35.5224 181.786 36.4611C182.594 37.4389 183.764 37.8501 185.091 37.8501V35.7099C184.213 35.7099 183.731 35.4541 183.436 35.0979C183.11 34.7026 182.855 33.9915 182.855 32.778H180.715ZM212.843 7.2H213.913V6.12985H212.843V7.2ZM206.173 7.2H205.103V8.27015H206.173V7.2ZM206.173 1.4V0.329848H205.103V1.4H206.173ZM225.893 1.4H226.963V0.329848H225.893V1.4ZM225.893 7.2V8.27015H226.963V7.2H225.893ZM219.223 7.2V6.12985H218.153V7.2H219.223ZM219.223 42V43.0701H220.293V42H219.223ZM212.843 42H211.773V43.0701H212.843V42ZM212.843 6.12985H206.173V8.27015H212.843V6.12985ZM207.243 7.2V1.4H205.103V7.2H207.243ZM206.173 2.47015H225.893V0.329848H206.173V2.47015ZM224.823 1.4V7.2H226.963V1.4H224.823ZM225.893 6.12985H219.223V8.27015H225.893V6.12985ZM218.153 7.2V42H220.293V7.2H218.153ZM219.223 40.9299H212.843V43.0701H219.223V40.9299ZM213.913 42V7.2H211.773V42H213.913ZM239.248 39.97L238.449 40.6821L238.457 40.6907L239.248 39.97ZM236.87 30.052V28.9818H235.8V30.052H236.87ZM242.902 30.052H243.972V28.9818H242.902V30.052ZM248.644 35.852L247.841 35.144L247.838 35.1473L248.644 35.852ZM248.354 28.254L247.431 28.7966L247.439 28.8087L248.354 28.254ZM244.062 23.556L243.354 24.3585L243.359 24.3632L244.062 23.556ZM238.552 17.292L237.615 17.8085L237.619 17.8167L238.552 17.292ZM239.422 3.488L240.204 4.21822L240.212 4.20957L239.422 3.488ZM253.4 3.488L252.592 4.19021L252.6 4.19957L252.609 4.20873L253.4 3.488ZM255.778 12.71V13.7801H256.848V12.71H255.778ZM249.746 12.71H248.676V13.7801H249.746V12.71ZM248.934 7.606L248.108 8.2863L248.118 8.29865L248.128 8.31069L248.934 7.606ZM244.526 14.624L243.611 15.1787L243.617 15.1887L243.623 15.1985L244.526 14.624ZM248.876 19.264L248.173 20.0712L248.174 20.0715L248.876 19.264ZM254.386 25.586L253.441 26.0876L254.386 25.586ZM253.4 39.912L252.618 39.1812L252.61 39.1904L253.4 39.912ZM246.266 41.5098C243.374 41.5098 241.363 40.7024 240.039 39.2493L238.457 40.6907C240.304 42.7176 242.971 43.6502 246.266 43.6502V41.5098ZM240.047 39.258C238.693 37.7389 237.94 35.496 237.94 32.372H235.8C235.8 35.8213 236.632 38.6437 238.449 40.682L240.047 39.258ZM237.94 32.372V30.052H235.8V32.372H237.94ZM236.87 31.1221H242.902V28.9818H236.87V31.1221ZM241.832 30.052V32.836H243.972V30.052H241.832ZM241.832 32.836C241.832 34.2741 242.129 35.552 242.908 36.4815C243.718 37.4471 244.886 37.8501 246.208 37.8501V35.7099C245.325 35.7099 244.841 35.4556 244.548 35.1065C244.226 34.7213 243.972 34.0272 243.972 32.836H241.832ZM246.208 37.8501C247.495 37.8501 248.645 37.4757 249.449 36.5567L247.838 35.1473C247.56 35.4657 247.086 35.7099 246.208 35.7099V37.8501ZM249.446 36.56C250.279 35.6161 250.584 34.257 250.584 32.72H248.444C248.444 34.0444 248.169 34.7732 247.841 35.144L249.446 36.56ZM250.584 32.72C250.584 30.8511 250.157 29.165 249.269 27.6993L247.439 28.8087C248.097 29.895 248.444 31.1862 248.444 32.72H250.584ZM249.276 27.7114C248.415 26.2471 246.881 24.5907 244.764 22.7488L243.359 24.3632C245.419 26.1559 246.746 27.6316 247.431 28.7966L249.276 27.7114ZM244.77 22.7536C242.18 20.4685 240.444 18.473 239.485 16.7673L237.619 17.8167C238.748 19.8229 240.685 22.0035 243.354 24.3584L244.77 22.7536ZM239.489 16.7755C238.54 15.0531 238.056 13.1068 238.056 10.912H235.916C235.916 13.4345 236.476 15.7416 237.615 17.8085L239.489 16.7755ZM238.056 10.912C238.056 7.87756 238.822 5.69942 240.204 4.21818L238.639 2.75782C236.774 4.75658 235.916 7.52777 235.916 10.912H238.056ZM240.212 4.20957C241.579 2.71217 243.614 1.89015 246.498 1.89015V-0.250152C243.195 -0.250152 240.512 0.706491 238.632 2.76643L240.212 4.20957ZM246.498 1.89015C249.341 1.89015 251.305 2.71018 252.592 4.19021L254.207 2.78579C252.401 0.708482 249.764 -0.250152 246.498 -0.250152V1.89015ZM252.609 4.20873C253.954 5.68534 254.708 7.9021 254.708 11.028H256.848C256.848 7.58057 256.016 4.77066 254.191 2.76726L252.609 4.20873ZM254.708 11.028V12.71H256.848V11.028H254.708ZM255.778 11.6399H249.746V13.7801H255.778V11.6399ZM250.816 12.71V10.622H248.676V12.71H250.816ZM250.816 10.622C250.816 9.13637 250.535 7.8113 249.739 6.9013L248.128 8.31069C248.415 8.63803 248.676 9.32363 248.676 10.622H250.816ZM249.76 6.92569C248.97 5.96619 247.84 5.54985 246.556 5.54985V7.69015C247.359 7.69015 247.815 7.93114 248.108 8.2863L249.76 6.92569ZM246.556 5.54985C245.266 5.54985 244.124 5.95297 243.336 6.9125C242.582 7.83159 242.296 9.09139 242.296 10.506H244.436C244.436 9.32994 244.682 8.64674 244.99 8.2705C245.266 7.93469 245.719 7.69015 246.556 7.69015V5.54985ZM242.296 10.506C242.296 12.1741 242.738 13.7381 243.611 15.1787L245.441 14.0693C244.767 12.9579 244.436 11.7766 244.436 10.506H242.296ZM243.623 15.1985C244.518 16.6054 246.061 18.2325 248.173 20.0712L249.578 18.4568C247.515 16.6609 246.157 15.1946 245.429 14.0495L243.623 15.1985ZM248.174 20.0715C250.798 22.3539 252.524 24.3601 253.441 26.0876L255.331 25.0844C254.237 23.0226 252.289 20.8141 249.578 18.4565L248.174 20.0715ZM253.441 26.0876C254.35 27.801 254.824 29.8458 254.824 32.256H256.964C256.964 29.5622 256.433 27.1604 255.331 25.0844L253.441 26.0876ZM254.824 32.256C254.824 35.4106 254.037 37.6637 252.618 39.1812L254.182 40.6428C256.088 38.6029 256.964 35.7521 256.964 32.256H254.824ZM252.61 39.1904C251.245 40.6851 249.193 41.5098 246.266 41.5098V43.6502C249.603 43.6502 252.307 42.6962 254.19 40.6336L252.61 39.1904ZM286.821 1.4V0.329848H285.751V1.4H286.821ZM303.699 1.4H304.769V0.329848H303.699V1.4ZM303.699 7.2V8.27015H304.769V7.2H303.699ZM293.201 7.2V6.12985H292.131V7.2H293.201ZM293.201 18.51H292.131V19.5801H293.201V18.51ZM301.437 18.51H302.507V17.4398H301.437V18.51ZM301.437 24.31V25.3801H302.507V24.31H301.437ZM293.201 24.31V23.2398H292.131V24.31H293.201ZM293.201 42V43.0701H294.271V42H293.201ZM286.821 42H285.751V43.0701H286.821V42ZM286.821 2.47015H303.699V0.329848H286.821V2.47015ZM302.629 1.4V7.2H304.769V1.4H302.629ZM303.699 6.12985H293.201V8.27015H303.699V6.12985ZM292.131 7.2V18.51H294.271V7.2H292.131ZM293.201 19.5801H301.437V17.4398H293.201V19.5801ZM300.367 18.51V24.31H302.507V18.51H300.367ZM301.437 23.2398H293.201V25.3801H301.437V23.2398ZM292.131 24.31V42H294.271V24.31H292.131ZM293.201 40.9299H286.821V43.0701H293.201V40.9299ZM287.891 42V1.4H285.751V42H287.891ZM315.748 1.4V0.329848H314.678V1.4H315.748ZM333.148 1.4H334.219V0.329848H333.148V1.4ZM333.148 7.2V8.27015H334.219V7.2H333.148ZM322.128 7.2V6.12985H321.058V7.2H322.128ZM322.128 17.93H321.058V19.0001H322.128V17.93ZM330.886 17.93H331.957V16.8598H330.886V17.93ZM330.886 23.73V24.8001H331.957V23.73H330.886ZM322.128 23.73V22.6598H321.058V23.73H322.128ZM322.128 36.2H321.058V37.2701H322.128V36.2ZM333.148 36.2H334.219V35.1299H333.148V36.2ZM333.148 42V43.0701H334.219V42H333.148ZM315.748 42H314.678V43.0701H315.748V42ZM315.748 2.47015H333.148V0.329848H315.748V2.47015ZM332.078 1.4V7.2H334.219V1.4H332.078ZM333.148 6.12985H322.128V8.27015H333.148V6.12985ZM321.058 7.2V17.93H323.199V7.2H321.058ZM322.128 19.0001H330.886V16.8598H322.128V19.0001ZM329.816 17.93V23.73H331.957V17.93H329.816ZM330.886 22.6598H322.128V24.8001H330.886V22.6598ZM321.058 23.73V36.2H323.199V23.73H321.058ZM322.128 37.2701H333.148V35.1299H322.128V37.2701ZM332.078 36.2V42H334.219V36.2H332.078ZM333.148 40.9299H315.748V43.0701H333.148V40.9299ZM316.819 42V1.4H314.678V42H316.819ZM350.739 1.4V0.329848H349.829L349.683 1.22798L350.739 1.4ZM359.381 1.4L360.437 1.22798L360.291 0.329848H359.381V1.4ZM365.993 42V43.0701H367.251L367.049 41.828L365.993 42ZM359.613 42L358.554 42.1524L358.686 43.0701H359.613V42ZM358.453 33.938L359.512 33.7856L357.383 33.938H358.453ZM358.453 34.054V35.1241H359.523V34.054H358.453ZM351.203 34.054V32.9838H350.278L350.144 33.8994L351.203 34.054ZM350.043 42V43.0701H350.968L351.102 42.1546L350.043 42ZM344.127 42L343.071 41.828L342.868 43.0701H344.127V42ZM357.699 28.544V29.6141H358.931L358.758 28.3939L357.699 28.544ZM354.857 8.476L355.916 8.32594L355.786 7.40585H354.857V8.476ZM354.741 8.476V7.40585H353.809L353.681 8.32895L354.741 8.476ZM351.957 28.544L350.897 28.3969L350.728 29.6141H351.957V28.544ZM350.739 2.47015H359.381V0.329848H350.739V2.47015ZM358.325 1.57201L364.937 42.172L367.049 41.828L360.437 1.22798L358.325 1.57201ZM365.993 40.9299H359.613V43.0701H365.993V40.9299ZM360.672 41.8476L359.512 33.7856L357.394 34.0904L358.554 42.1524L360.672 41.8476ZM357.383 33.938V34.054H359.523V33.938H357.383ZM358.453 32.9838H351.203V35.1241H358.453V32.9838ZM350.144 33.8994L348.984 41.8454L351.102 42.1546L352.262 34.2086L350.144 33.8994ZM350.043 40.9299H344.127V43.0701H350.043V40.9299ZM345.183 42.172L351.795 1.57201L349.683 1.22798L343.071 41.828L345.183 42.172ZM358.758 28.3939L355.916 8.32594L353.797 8.62605L356.639 28.6941L358.758 28.3939ZM354.857 7.40585H354.741V9.54615H354.857V7.40585ZM353.681 8.32895L350.897 28.3969L353.017 28.6911L355.801 8.62305L353.681 8.32895ZM351.957 29.6141H357.699V27.4739H351.957V29.6141ZM380.404 7.2H381.474V6.12985H380.404V7.2ZM373.734 7.2H372.664V8.27015H373.734V7.2ZM373.734 1.4V0.329848H372.664V1.4H373.734ZM393.454 1.4H394.524V0.329848H393.454V1.4ZM393.454 7.2V8.27015H394.524V7.2H393.454ZM386.784 7.2V6.12985H385.714V7.2H386.784ZM386.784 42V43.0701H387.854V42H386.784ZM380.404 42H379.334V43.0701H380.404V42ZM380.404 6.12985H373.734V8.27015H380.404V6.12985ZM374.804 7.2V1.4H372.664V7.2H374.804ZM373.734 2.47015H393.454V0.329848H373.734V2.47015ZM392.384 1.4V7.2H394.524V1.4H392.384ZM393.454 6.12985H386.784V8.27015H393.454V6.12985ZM385.714 7.2V42H387.854V7.2H385.714ZM386.784 40.9299H380.404V43.0701H386.784V40.9299ZM381.474 42V7.2H379.334V42H381.474ZM407.737 39.97L406.947 40.6916L406.955 40.7002L407.737 39.97ZM405.301 1.4V0.329848H404.231V1.4H405.301ZM411.681 1.4H412.751V0.329848H411.681V1.4ZM412.493 35.852L411.688 36.5567L411.7 36.5705L411.712 36.5839L412.493 35.852ZM417.307 35.852L416.526 35.1201L416.514 35.1335L416.502 35.1473L417.307 35.852ZM418.177 1.4V0.329848H417.107V1.4H418.177ZM424.325 1.4H425.395V0.329848H424.325V1.4ZM421.889 39.97L422.671 40.7002L422.679 40.6916L421.889 39.97ZM414.813 41.5098C411.923 41.5098 409.885 40.7029 408.519 39.2398L406.955 40.7002C408.837 42.7171 411.517 43.6502 414.813 43.6502V41.5098ZM408.527 39.2484C407.14 37.7292 406.371 35.49 406.371 32.372H404.231C404.231 35.8273 405.086 38.6534 406.947 40.6916L408.527 39.2484ZM406.371 32.372V1.4H404.231V32.372H406.371ZM405.301 2.47015H411.681V0.329848H405.301V2.47015ZM410.611 1.4V32.836H412.751V1.4H410.611ZM410.611 32.836C410.611 34.3216 410.891 35.6467 411.688 36.5567L413.298 35.1473C413.012 34.82 412.751 34.1344 412.751 32.836H410.611ZM411.712 36.5839C412.54 37.4666 413.662 37.8501 414.929 37.8501V35.7099C414.107 35.7099 413.606 35.4747 413.274 35.1201L411.712 36.5839ZM414.929 37.8501C416.192 37.8501 417.315 37.4674 418.112 36.5567L416.502 35.1473C416.216 35.474 415.754 35.7099 414.929 35.7099V37.8501ZM418.088 36.5839C418.942 35.6729 419.247 34.3354 419.247 32.836H417.107C417.107 34.1206 416.832 34.7938 416.526 35.1201L418.088 36.5839ZM419.247 32.836V1.4H417.107V32.836H419.247ZM418.177 2.47015H424.325V0.329848H418.177V2.47015ZM423.255 1.4V32.372H425.395V1.4H423.255ZM423.255 32.372C423.255 35.49 422.486 37.7292 421.099 39.2484L422.679 40.6916C424.54 38.6534 425.395 35.8273 425.395 32.372H423.255ZM421.107 39.2398C419.741 40.7029 417.703 41.5098 414.813 41.5098V43.6502C418.109 43.6502 420.789 42.7171 422.671 40.7002L421.107 39.2398ZM437.859 1.4V0.329848H436.789V1.4H437.859ZM454.505 3.72L453.739 4.46713L453.748 4.47671L454.505 3.72ZM452.591 21.236L452.191 20.2433L451.521 20.5133V21.236H452.591ZM452.591 21.352H451.521V22.1482L452.283 22.377L452.591 21.352ZM455.839 24.194L454.857 24.6188L454.861 24.6298L454.866 24.6408L455.839 24.194ZM456.941 39.912L455.877 40.024L455.877 40.0302L456.941 39.912ZM457.521 42V43.0701H459.168L458.499 41.5654L457.521 42ZM451.025 42L450.016 42.3562L450.268 43.0701H451.025V42ZM449.517 25.702L448.677 26.3651L448.687 26.3784L448.698 26.3913L449.517 25.702ZM444.239 24.6V23.5299H443.169V24.6H444.239ZM444.239 42V43.0701H445.309V42H444.239ZM437.859 42H436.789V43.0701H437.859V42ZM449.401 17.814L448.644 17.0573L448.633 17.0688L448.622 17.0806L449.401 17.814ZM449.575 8.186L448.725 8.83606L448.737 8.8514L448.749 8.8663L449.575 8.186ZM444.239 7.2V6.12985H443.169V7.2H444.239ZM444.239 18.8H443.169V19.8701H444.239V18.8ZM437.859 2.47015H447.313V0.329848H437.859V2.47015ZM447.313 2.47015C450.459 2.47015 452.516 3.21336 453.739 4.46707L455.271 2.97293C453.477 1.1333 450.74 0.329848 447.313 0.329848V2.47015ZM453.748 4.47671C454.976 5.70439 455.697 7.71415 455.697 10.738H457.837C457.837 7.42051 457.05 4.75161 455.262 2.96329L453.748 4.47671ZM455.697 10.738V13.232H457.837V10.738H455.697ZM455.697 13.232C455.697 15.232 455.365 16.7666 454.774 17.899C454.196 19.0077 453.346 19.7782 452.191 20.2433L452.991 22.2287C454.62 21.5725 455.858 20.4483 456.672 18.889C457.473 17.3534 457.837 15.4466 457.837 13.232H455.697ZM451.521 21.236V21.352H453.661V21.236H451.521ZM452.283 22.377C453.54 22.754 454.368 23.4897 454.857 24.6188L456.821 23.7692C456.072 22.037 454.735 20.878 452.898 20.327L452.283 22.377ZM454.866 24.6408C455.435 25.8774 455.755 27.6199 455.755 29.936H457.895C457.895 27.4574 457.558 25.3719 456.811 23.7472L454.866 24.6408ZM455.755 29.936V37.07H457.895V29.936H455.755ZM455.755 37.07C455.755 38.2489 455.794 39.2374 455.877 40.024L458.005 39.8C457.933 39.1172 457.895 38.2111 457.895 37.07H455.755ZM455.877 40.0302C455.968 40.8446 456.193 41.6469 456.543 42.4346L458.499 41.5654C458.23 40.9611 458.069 40.3714 458.004 39.7938L455.877 40.0302ZM457.521 40.9299H451.025V43.0701H457.521V40.9299ZM452.034 41.6438C451.822 41.0433 451.688 40.4971 451.622 40.0026L449.5 40.2854C449.589 40.9509 449.764 41.642 450.016 42.3562L452.034 41.6438ZM451.622 40.0026C451.555 39.5018 451.515 38.5238 451.515 37.012H449.375C449.375 38.5163 449.412 39.6262 449.5 40.2854L451.622 40.0026ZM451.515 37.012V29.588H449.375V37.012H451.515ZM451.515 29.588C451.515 27.6826 451.211 26.053 450.335 25.0127L448.698 26.3913C449.06 26.8203 449.375 27.7814 449.375 29.588H451.515ZM450.357 25.0389C449.48 23.9289 448.052 23.5299 446.443 23.5299V25.6701C447.773 25.6701 448.393 26.0058 448.677 26.3651L450.357 25.0389ZM446.443 23.5299H444.239V25.6701H446.443V23.5299ZM443.169 24.6V42H445.309V24.6H443.169ZM444.239 40.9299H437.859V43.0701H444.239V40.9299ZM438.929 42V1.4H436.789V42H438.929ZM446.559 19.8701C448.005 19.8701 449.287 19.4961 450.18 18.5474L448.622 17.0806C448.277 17.4466 447.664 17.7299 446.559 17.7299V19.8701ZM450.158 18.5707C451.114 17.6145 451.457 16.1602 451.457 14.508H449.317C449.317 15.9491 449.003 16.6988 448.644 17.0573L450.158 18.5707ZM451.457 14.508V11.376H449.317V14.508H451.457ZM451.457 11.376C451.457 9.8217 451.18 8.4511 450.401 7.5057L448.749 8.8663C449.053 9.23556 449.317 9.99162 449.317 11.376H451.457ZM450.425 7.53594C449.653 6.52696 448.466 6.12985 447.139 6.12985V8.27015C448.054 8.27015 448.491 8.53037 448.725 8.83606L450.425 7.53594ZM447.139 6.12985H444.239V8.27015H447.139V6.12985ZM443.169 7.2V18.8H445.309V7.2H443.169ZM444.239 19.8701H446.559V17.7299H444.239V19.8701ZM470.241 1.4V0.329848H469.171V1.4H470.241ZM487.641 1.4H488.712V0.329848H487.641V1.4ZM487.641 7.2V8.27015H488.712V7.2H487.641ZM476.621 7.2V6.12985H475.551V7.2H476.621ZM476.621 17.93H475.551V19.0001H476.621V17.93ZM485.379 17.93H486.45V16.8598H485.379V17.93ZM485.379 23.73V24.8001H486.45V23.73H485.379ZM476.621 23.73V22.6598H475.551V23.73H476.621ZM476.621 36.2H475.551V37.2701H476.621V36.2ZM487.641 36.2H488.712V35.1299H487.641V36.2ZM487.641 42V43.0701H488.712V42H487.641ZM470.241 42H469.171V43.0701H470.241V42ZM470.241 2.47015H487.641V0.329848H470.241V2.47015ZM486.571 1.4V7.2H488.712V1.4H486.571ZM487.641 6.12985H476.621V8.27015H487.641V6.12985ZM475.551 7.2V17.93H477.692V7.2H475.551ZM476.621 19.0001H485.379V16.8598H476.621V19.0001ZM484.309 17.93V23.73H486.45V17.93H484.309ZM485.379 22.6598H476.621V24.8001H485.379V22.6598ZM475.551 23.73V36.2H477.692V23.73H475.551ZM476.621 37.2701H487.641V35.1299H476.621V37.2701ZM486.571 36.2V42H488.712V36.2H486.571ZM487.641 40.9299H470.241V43.0701H487.641V40.9299ZM471.312 42V1.4H469.171V42H471.312ZM501.691 39.97L500.892 40.6821L500.9 40.6907L501.691 39.97ZM499.313 30.052V28.9818H498.243V30.052H499.313ZM505.345 30.052H506.415V28.9818H505.345V30.052ZM511.087 35.852L510.285 35.144L510.282 35.1473L511.087 35.852ZM510.797 28.254L509.875 28.7966L509.882 28.8087L510.797 28.254ZM506.505 23.556L505.797 24.3585L505.802 24.3632L506.505 23.556ZM500.995 17.292L500.058 17.8085L500.062 17.8167L500.995 17.292ZM501.865 3.488L502.647 4.21822L502.655 4.20957L501.865 3.488ZM515.843 3.488L515.035 4.19021L515.044 4.19957L515.052 4.20873L515.843 3.488ZM518.221 12.71V13.7801H519.291V12.71H518.221ZM512.189 12.71H511.119V13.7801H512.189V12.71ZM511.377 7.606L510.551 8.2863L510.561 8.29865L510.572 8.31069L511.377 7.606ZM506.969 14.624L506.054 15.1787L506.06 15.1887L506.066 15.1985L506.969 14.624ZM511.319 19.264L510.616 20.0712L510.617 20.0715L511.319 19.264ZM516.829 25.586L515.884 26.0876L516.829 25.586ZM515.843 39.912L515.061 39.1812L515.053 39.1904L515.843 39.912ZM508.709 41.5098C505.817 41.5098 503.806 40.7024 502.482 39.2493L500.9 40.6907C502.747 42.7176 505.414 43.6502 508.709 43.6502V41.5098ZM502.49 39.258C501.136 37.7389 500.383 35.496 500.383 32.372H498.243C498.243 35.8213 499.075 38.6437 500.892 40.682L502.49 39.258ZM500.383 32.372V30.052H498.243V32.372H500.383ZM499.313 31.1221H505.345V28.9818H499.313V31.1221ZM504.275 30.052V32.836H506.415V30.052H504.275ZM504.275 32.836C504.275 34.2741 504.572 35.552 505.351 36.4815C506.161 37.4471 507.33 37.8501 508.651 37.8501V35.7099C507.768 35.7099 507.284 35.4556 506.992 35.1065C506.669 34.7213 506.415 34.0272 506.415 32.836H504.275ZM508.651 37.8501C509.939 37.8501 511.088 37.4757 511.892 36.5567L510.282 35.1473C510.003 35.4657 509.529 35.7099 508.651 35.7099V37.8501ZM511.889 36.56C512.722 35.6161 513.027 34.257 513.027 32.72H510.887C510.887 34.0444 510.612 34.7732 510.285 35.144L511.889 36.56ZM513.027 32.72C513.027 30.8511 512.601 29.165 511.712 27.6993L509.882 28.8087C510.54 29.895 510.887 31.1862 510.887 32.72H513.027ZM511.719 27.7114C510.858 26.2471 509.324 24.5907 507.208 22.7488L505.802 24.3632C507.862 26.1559 509.189 27.6316 509.875 28.7966L511.719 27.7114ZM507.213 22.7536C504.623 20.4685 502.887 18.473 501.928 16.7673L500.062 17.8167C501.191 19.8229 503.128 22.0035 505.797 24.3584L507.213 22.7536ZM501.932 16.7755C500.983 15.0531 500.499 13.1068 500.499 10.912H498.359C498.359 13.4345 498.919 15.7416 500.058 17.8085L501.932 16.7755ZM500.499 10.912C500.499 7.87756 501.265 5.69942 502.647 4.21818L501.083 2.75782C499.217 4.75658 498.359 7.52777 498.359 10.912H500.499ZM502.655 4.20957C504.022 2.71217 506.058 1.89015 508.941 1.89015V-0.250152C505.638 -0.250152 502.956 0.706491 501.075 2.76643L502.655 4.20957ZM508.941 1.89015C511.784 1.89015 513.748 2.71018 515.035 4.19021L516.651 2.78579C514.844 0.708482 512.208 -0.250152 508.941 -0.250152V1.89015ZM515.052 4.20873C516.397 5.68534 517.151 7.9021 517.151 11.028H519.291C519.291 7.58057 518.459 4.77066 516.634 2.76726L515.052 4.20873ZM517.151 11.028V12.71H519.291V11.028H517.151ZM518.221 11.6399H512.189V13.7801H518.221V11.6399ZM513.259 12.71V10.622H511.119V12.71H513.259ZM513.259 10.622C513.259 9.13637 512.979 7.8113 512.182 6.9013L510.572 8.31069C510.858 8.63803 511.119 9.32363 511.119 10.622H513.259ZM512.203 6.92569C511.413 5.96619 510.283 5.54985 508.999 5.54985V7.69015C509.803 7.69015 510.258 7.93114 510.551 8.2863L512.203 6.92569ZM508.999 5.54985C507.709 5.54985 506.567 5.95297 505.779 6.9125C505.025 7.83159 504.739 9.09139 504.739 10.506H506.879C506.879 9.32994 507.125 8.64674 507.434 8.2705C507.709 7.93469 508.162 7.69015 508.999 7.69015V5.54985ZM504.739 10.506C504.739 12.1741 505.181 13.7381 506.054 15.1787L507.884 14.0693C507.211 12.9579 506.879 11.7766 506.879 10.506H504.739ZM506.066 15.1985C506.961 16.6054 508.504 18.2325 510.616 20.0712L512.022 18.4568C509.958 16.6609 508.601 15.1946 507.872 14.0495L506.066 15.1985ZM510.617 20.0715C513.242 22.3539 514.967 24.3601 515.884 26.0876L517.774 25.0844C516.68 23.0226 514.733 20.8141 512.021 18.4565L510.617 20.0715ZM515.884 26.0876C516.793 27.801 517.267 29.8458 517.267 32.256H519.407C519.407 29.5622 518.876 27.1604 517.774 25.0844L515.884 26.0876ZM517.267 32.256C517.267 35.4106 516.48 37.6637 515.061 39.1812L516.625 40.6428C518.532 38.6029 519.407 35.7521 519.407 32.256H517.267ZM515.053 39.1904C513.688 40.6851 511.636 41.5098 508.709 41.5098V43.6502C512.046 43.6502 514.75 42.6962 516.633 40.6336L515.053 39.1904Z" fill="#03839E"/>
</svg>
