<svg width="14" height="144" viewBox="0 0 14 144" fill="none" xmlns="http://www.w3.org/2000/svg">
<path d="M11.4 75.492L11.4 77.436C11.4 78.092 11.224 78.584 10.872 78.912C10.52 79.24 10.004 79.404 9.324 79.404L8.496 79.404C7.816 79.404 7.3 79.24 6.948 78.912C6.596 78.584 6.42 78.092 6.42 77.436L6.42 76.812L3 76.812L3 75.492L11.4 75.492ZM7.62 77.436C7.62 77.652 7.68 77.812 7.8 77.916C7.92 78.028 8.124 78.084 8.412 78.084L9.408 78.084C9.696 78.084 9.9 78.028 10.02 77.916C10.14 77.812 10.2 77.652 10.2 77.436L10.2 76.812L7.62 76.812L7.62 77.436ZM2.88 84.6689C2.88 84.0209 3.064 83.5249 3.432 83.1809C3.8 82.8369 4.32 82.6649 4.992 82.6649L9.408 82.6649C10.08 82.6649 10.6 82.8369 10.968 83.1809C11.336 83.5249 11.52 84.0209 11.52 84.6689C11.52 85.3169 11.336 85.8129 10.968 86.1569C10.6 86.5009 10.08 86.6729 9.408 86.6729L4.992 86.6729C4.32 86.6729 3.8 86.5009 3.432 86.1569C3.064 85.8129 2.88 85.3169 2.88 84.6689ZM4.08 84.6689C4.08 85.1249 4.356 85.3529 4.908 85.3529L9.492 85.3529C10.044 85.3529 10.32 85.1249 10.32 84.6689C10.32 84.2129 10.044 83.9849 9.492 83.9849L4.908 83.9849C4.356 83.9849 4.08 84.2129 4.08 84.6689ZM10.2 91.1907L10.2 89.8107L11.4 89.8107L11.4 93.8907L10.2 93.8907L10.2 92.5107L3 92.5107L3 91.1907L10.2 91.1907ZM11.4 97.1698L11.4 99.1258C11.4 99.8058 11.24 100.302 10.92 100.614C10.608 100.926 10.124 101.082 9.468 101.082L8.952 101.082C8.08 101.082 7.528 100.794 7.296 100.218L7.272 100.218C7.176 100.538 6.98 100.762 6.684 100.89C6.388 101.026 5.992 101.094 5.496 101.094L4.02 101.094C3.78 101.094 3.584 101.102 3.432 101.118C3.288 101.134 3.144 101.174 3 101.238L3 99.8938C3.136 99.8458 3.264 99.8138 3.384 99.7978C3.504 99.7818 3.72 99.7738 4.032 99.7738L5.568 99.7738C5.952 99.7738 6.22 99.7098 6.372 99.5818C6.524 99.4618 6.6 99.2498 6.6 98.9458L6.6 98.4898L3 98.4898L3 97.1698L11.4 97.1698ZM7.8 98.9698C7.8 99.2338 7.868 99.4298 8.004 99.5578C8.14 99.6938 8.368 99.7618 8.688 99.7618L9.336 99.7618C9.64 99.7618 9.86 99.7058 9.996 99.5938C10.132 99.4898 10.2 99.3218 10.2 99.0898L10.2 98.4898L7.8 98.4898L7.8 98.9698ZM11.4 109.212L11.4 111.156C11.4 111.812 11.224 112.304 10.872 112.632C10.52 112.96 10.004 113.124 9.324 113.124L8.496 113.124C7.816 113.124 7.3 112.96 6.948 112.632C6.596 112.304 6.42 111.812 6.42 111.156L6.42 110.532L3 110.532L3 109.212L11.4 109.212ZM7.62 111.156C7.62 111.372 7.68 111.532 7.8 111.636C7.92 111.748 8.124 111.804 8.412 111.804L9.408 111.804C9.696 111.804 9.9 111.748 10.02 111.636C10.14 111.532 10.2 111.372 10.2 111.156L10.2 110.532L7.62 110.532L7.62 111.156ZM2.88 118.388C2.88 117.74 3.064 117.244 3.432 116.9C3.8 116.556 4.32 116.384 4.992 116.384L9.408 116.384C10.08 116.384 10.6 116.556 10.968 116.9C11.336 117.244 11.52 117.74 11.52 118.388C11.52 119.036 11.336 119.532 10.968 119.876C10.6 120.22 10.08 120.392 9.408 120.392L4.992 120.392C4.32 120.392 3.8 120.22 3.432 119.876C3.064 119.532 2.88 119.036 2.88 118.388ZM4.08 118.388C4.08 118.844 4.356 119.072 4.908 119.072L9.492 119.072C10.044 119.072 10.32 118.844 10.32 118.388C10.32 117.932 10.044 117.704 9.492 117.704L4.908 117.704C4.356 117.704 4.08 117.932 4.08 118.388ZM10.2 124.91L10.2 123.53L11.4 123.53L11.4 127.61L10.2 127.61L10.2 126.23L3 126.23L3 124.91L10.2 124.91ZM2.88 132.605C2.88 131.965 3.06 131.481 3.42 131.153C3.788 130.825 4.312 130.661 4.992 130.661L5.472 130.661L5.472 131.909L4.896 131.909C4.352 131.909 4.08 132.137 4.08 132.593C4.08 132.817 4.144 132.985 4.272 133.097C4.408 133.217 4.624 133.277 4.92 133.277C5.272 133.277 5.58 133.197 5.844 133.037C6.116 132.877 6.44 132.581 6.816 132.149C7.296 131.605 7.728 131.225 8.112 131.009C8.504 130.793 8.944 130.685 9.432 130.685C10.096 130.685 10.608 130.853 10.968 131.189C11.336 131.525 11.52 132.013 11.52 132.653C11.52 133.285 11.336 133.761 10.968 134.081C10.608 134.409 10.088 134.573 9.408 134.573L9.06 134.573L9.06 133.325L9.492 133.325C9.78 133.325 9.988 133.269 10.116 133.157C10.252 133.045 10.32 132.881 10.32 132.665C10.32 132.225 10.052 132.005 9.516 132.005C9.212 132.005 8.928 132.085 8.664 132.245C8.4 132.413 8.08 132.713 7.704 133.145C7.224 133.697 6.788 134.077 6.396 134.285C6.004 134.493 5.544 134.597 5.016 134.597C4.328 134.597 3.8 134.425 3.432 134.081C3.064 133.745 2.88 133.253 2.88 132.605Z" fill="#828282"/>
<rect x="7" width="65" height="1" transform="rotate(90 7 0)" fill="#828282"/>
</svg>
