<svg width="14" height="14" viewBox="0 0 14 14" fill="none" xmlns="http://www.w3.org/2000/svg">
<circle cx="7" cy="7" r="7" fill="#EB5757"/>
<path d="M6.99821 10.0917C6.50324 10.0917 6.12438 9.95111 5.86162 9.67002C5.59886 9.38893 5.46748 8.99174 5.46748 8.47844V5.10535C5.46748 4.59205 5.59886 4.19486 5.86162 3.91376C6.12438 3.63267 6.50324 3.49213 6.99821 3.49213C7.49317 3.49213 7.87204 3.63267 8.1348 3.91376C8.39755 4.19486 8.52893 4.59205 8.52893 5.10535V8.47844C8.52893 8.99174 8.39755 9.38893 8.1348 9.67002C7.87204 9.95111 7.49317 10.0917 6.99821 10.0917ZM6.99821 9.17506C7.34652 9.17506 7.52067 8.96424 7.52067 8.5426V5.04118C7.52067 4.61955 7.34652 4.40873 6.99821 4.40873C6.6499 4.40873 6.47575 4.61955 6.47575 5.04118V8.5426C6.47575 8.96424 6.6499 9.17506 6.99821 9.17506Z" fill="#F8F8F8"/>
</svg>
