<svg width="443" height="239" viewBox="0 0 443 239" fill="none" xmlns="http://www.w3.org/2000/svg">
<path d="M177.774 110H187.118L192.11 65.2H185.966L182.318 100.784L178.798 65.2H172.014L168.622 100.528L164.846 65.2H157.998L162.99 110H172.654L175.214 86.128L177.774 110ZM220.259 65.2H209.955L202.787 110H209.251L210.467 101.872H219.107L220.323 110H227.427L220.259 65.2ZM214.755 73.136L218.147 95.792H211.363L214.755 73.136ZM238.577 71.6H245.937V110H252.977V71.6H260.337V65.2H238.577V71.6ZM280.397 71.6H292.557V65.2H273.357V110H292.557V103.6H280.397V90.48H290.061V84.08H280.397V71.6ZM328.728 110C328.024 108.336 327.96 106.736 327.96 104.56V97.648C327.96 92.976 326.808 89.584 323.288 88.112C326.424 86.64 327.896 83.632 327.896 79.024V75.504C327.896 68.592 324.76 65.2 317.464 65.2H306.84V110H313.88V91.76H316.312C319.512 91.76 320.92 93.296 320.92 97.456V104.496C320.92 108.144 321.176 108.848 321.56 110H328.728ZM317.272 71.6C319.768 71.6 320.856 73.008 320.856 76.208V80.624C320.856 84.208 319.256 85.36 316.632 85.36H313.88V71.6H317.272ZM342.51 110H349.55V65.2H342.51V110ZM379.657 110H386.889V65.2H380.617V92.016L373.385 65.2H364.553V110H370.889V77.552L379.657 110ZM412.41 91.44H415.61V99.696C415.61 102.896 414.202 104.048 411.962 104.048C409.722 104.048 408.314 102.896 408.314 99.696V75.504C408.314 72.304 409.722 71.088 411.962 71.088C414.202 71.088 415.61 72.304 415.61 75.504V80.304H422.266V75.952C422.266 68.784 418.682 64.688 411.77 64.688C404.858 64.688 401.274 68.784 401.274 75.952V99.248C401.274 106.416 404.858 110.512 411.77 110.512C418.682 110.512 422.266 106.416 422.266 99.248V85.04H412.41V91.44ZM438.77 110L436.914 116.4H439.794L442.866 109.296V103.216H436.082V110H438.77ZM8.024 139.504C8.024 136.304 9.432 135.088 11.672 135.088C13.912 135.088 15.32 136.304 15.32 139.504V163.696C15.32 166.896 13.912 168.112 11.672 168.112C9.432 168.112 8.024 166.896 8.024 163.696V139.504ZM0.984 163.248C0.984 170.416 4.76 174.512 11.672 174.512C18.584 174.512 22.36 170.416 22.36 163.248V139.952C22.36 132.784 18.584 128.688 11.672 128.688C4.76 128.688 0.984 132.784 0.984 139.952V163.248ZM58.743 174C58.039 172.336 57.975 170.736 57.975 168.56V161.648C57.975 156.976 56.823 153.584 53.303 152.112C56.439 150.64 57.911 147.632 57.911 143.024V139.504C57.911 132.592 54.775 129.2 47.479 129.2H36.855V174H43.895V155.76H46.327C49.527 155.76 50.935 157.296 50.935 161.456V168.496C50.935 172.144 51.191 172.848 51.575 174H58.743ZM47.287 135.6C49.783 135.6 50.871 137.008 50.871 140.208V144.624C50.871 148.208 49.271 149.36 46.647 149.36H43.895V135.6H47.287ZM72.525 174H79.565V129.2H72.525V174ZM105.193 155.44H108.393V163.696C108.393 166.896 106.985 168.048 104.745 168.048C102.505 168.048 101.097 166.896 101.097 163.696V139.504C101.097 136.304 102.505 135.088 104.745 135.088C106.985 135.088 108.393 136.304 108.393 139.504V144.304H115.049V139.952C115.049 132.784 111.465 128.688 104.553 128.688C97.6405 128.688 94.0565 132.784 94.0565 139.952V163.248C94.0565 170.416 97.6405 174.512 104.553 174.512C111.465 174.512 115.049 170.416 115.049 163.248V149.04H105.193V155.44ZM145.044 129.2H134.74L127.572 174H134.036L135.252 165.872H143.892L145.108 174H152.212L145.044 129.2ZM139.54 137.136L142.932 159.792H136.148L139.54 137.136ZM175.138 129.2H165.346V174H171.49V142.32L176.738 174H183.394L188.258 141.872V174H194.914V129.2H185.122L180.322 161.008L175.138 129.2ZM209.955 174H216.995V129.2H209.955V174ZM11.928 193.2H1.56V238H8.6V221.168H11.928C18.968 221.168 22.424 217.264 22.424 210.096V204.272C22.424 197.104 18.968 193.2 11.928 193.2ZM11.928 199.6C14.168 199.6 15.384 200.624 15.384 203.824V210.544C15.384 213.744 14.168 214.768 11.928 214.768H8.6V199.6H11.928ZM42.3815 203.504C42.3815 200.304 43.7895 199.088 46.0295 199.088C48.2695 199.088 49.6775 200.304 49.6775 203.504V227.696C49.6775 230.896 48.2695 232.112 46.0295 232.112C43.7895 232.112 42.3815 230.896 42.3815 227.696V203.504ZM35.3415 227.248C35.3415 234.416 39.1175 238.512 46.0295 238.512C52.9415 238.512 56.7175 234.416 56.7175 227.248V203.952C56.7175 196.784 52.9415 192.688 46.0295 192.688C39.1175 192.688 35.3415 196.784 35.3415 203.952V227.248ZM69.1645 199.6H76.5245V238H83.5645V199.6H90.9245V193.2H69.1645V199.6ZM103.049 203.952C103.049 216.752 116.809 218.48 116.809 227.696C116.809 230.896 115.401 232.048 113.161 232.048C110.921 232.048 109.513 230.896 109.513 227.696V224.496H102.857V227.248C102.857 234.416 106.441 238.512 113.353 238.512C120.265 238.512 123.849 234.416 123.849 227.248C123.849 214.448 110.089 212.72 110.089 203.504C110.089 200.304 111.369 199.088 113.609 199.088C115.849 199.088 117.129 200.304 117.129 203.504V205.36H123.785V203.952C123.785 196.784 120.265 192.688 113.417 192.688C106.569 192.688 103.049 196.784 103.049 203.952Z" fill="#03839E"/>
<path d="M1.56 1.2V0.699997H1.06V1.2H1.56ZM1.56 46H1.06V46.5H1.56V46ZM8.6 46V46.5H9.1V46H8.6ZM8.6 29.168V28.668H8.1V29.168H8.6ZM8.6 22.768H8.1V23.268H8.6V22.768ZM8.6 7.6V7.1H8.1V7.6H8.6ZM11.928 0.699997H1.56V1.7H11.928V0.699997ZM1.06 1.2V46H2.06V1.2H1.06ZM1.56 46.5H8.6V45.5H1.56V46.5ZM9.1 46V29.168H8.1V46H9.1ZM8.6 29.668H11.928V28.668H8.6V29.668ZM11.928 29.668C15.5389 29.668 18.315 28.6647 20.1818 26.6608C22.0428 24.6633 22.924 21.7527 22.924 18.096H21.924C21.924 21.6073 21.0772 24.2327 19.4502 25.9792C17.829 27.7193 15.3571 28.668 11.928 28.668V29.668ZM22.924 18.096V12.272H21.924V18.096H22.924ZM22.924 12.272C22.924 8.61529 22.0428 5.70472 20.1818 3.70717C18.315 1.70327 15.5389 0.699997 11.928 0.699997V1.7C15.3571 1.7 17.829 2.64872 19.4502 4.38882C21.0772 6.13527 21.924 8.76071 21.924 12.272H22.924ZM11.928 8.1C12.9808 8.1 13.6741 8.34075 14.1225 8.84446C14.5849 9.36377 14.884 10.2684 14.884 11.824H15.884C15.884 10.1796 15.5751 8.97223 14.8695 8.17953C14.1499 7.37125 13.1152 7.1 11.928 7.1V8.1ZM14.884 11.824V18.544H15.884V11.824H14.884ZM14.884 18.544C14.884 20.0996 14.5849 21.0042 14.1225 21.5235C13.6741 22.0273 12.9808 22.268 11.928 22.268V23.268C13.1152 23.268 14.1499 22.9967 14.8695 22.1885C15.5751 21.3958 15.884 20.1884 15.884 18.544H14.884ZM11.928 22.268H8.6V23.268H11.928V22.268ZM9.1 22.768V7.6H8.1V22.768H9.1ZM8.6 8.1H11.928V7.1H8.6V8.1ZM42.8815 11.504C42.8815 9.96609 43.2213 9.00512 43.7376 8.43001C44.2441 7.86574 44.9981 7.588 46.0295 7.588V6.588C44.8209 6.588 43.7509 6.91826 42.9934 7.76198C42.2457 8.59487 41.8815 9.84191 41.8815 11.504H42.8815ZM46.0295 7.588C47.0609 7.588 47.8149 7.86574 48.3214 8.43001C48.8377 9.00512 49.1775 9.96609 49.1775 11.504H50.1775C50.1775 9.84191 49.8133 8.59487 49.0656 7.76198C48.3081 6.91826 47.2381 6.588 46.0295 6.588V7.588ZM49.1775 11.504V35.696H50.1775V11.504H49.1775ZM49.1775 35.696C49.1775 37.2339 48.8377 38.1949 48.3214 38.77C47.8149 39.3343 47.0609 39.612 46.0295 39.612V40.612C47.2381 40.612 48.3081 40.2817 49.0656 39.438C49.8133 38.6051 50.1775 37.3581 50.1775 35.696H49.1775ZM46.0295 39.612C44.9981 39.612 44.2441 39.3343 43.7376 38.77C43.2213 38.1949 42.8815 37.2339 42.8815 35.696H41.8815C41.8815 37.3581 42.2457 38.6051 42.9934 39.438C43.7509 40.2817 44.8209 40.612 46.0295 40.612V39.612ZM42.8815 35.696V11.504H41.8815V35.696H42.8815ZM34.8415 35.248C34.8415 38.9154 35.808 41.8703 37.7295 43.9108C39.6553 45.9559 42.4739 47.012 46.0295 47.012V46.012C42.6731 46.012 40.1477 45.0201 38.4575 43.2252C36.763 41.4257 35.8415 38.7486 35.8415 35.248H34.8415ZM46.0295 47.012C49.5851 47.012 52.4037 45.9559 54.3295 43.9108C56.2509 41.8703 57.2175 38.9154 57.2175 35.248H56.2175C56.2175 38.7486 55.296 41.4257 53.6015 43.2252C51.9113 45.0201 49.3859 46.012 46.0295 46.012V47.012ZM57.2175 35.248V11.952H56.2175V35.248H57.2175ZM57.2175 11.952C57.2175 8.28457 56.2509 5.32969 54.3295 3.28922C52.4037 1.2441 49.5851 0.188 46.0295 0.188V1.188C49.3859 1.188 51.9113 2.1799 53.6015 3.97478C55.296 5.77431 56.2175 8.45143 56.2175 11.952H57.2175ZM46.0295 0.188C42.4739 0.188 39.6553 1.2441 37.7295 3.28922C35.808 5.32969 34.8415 8.28457 34.8415 11.952H35.8415C35.8415 8.45143 36.763 5.77431 38.4575 3.97478C40.1477 2.1799 42.6731 1.188 46.0295 1.188V0.188ZM34.8415 11.952V35.248H35.8415V11.952H34.8415ZM69.1645 7.6H68.6645V8.1H69.1645V7.6ZM76.5245 7.6H77.0245V7.1H76.5245V7.6ZM76.5245 46H76.0245V46.5H76.5245V46ZM83.5645 46V46.5H84.0645V46H83.5645ZM83.5645 7.6V7.1H83.0645V7.6H83.5645ZM90.9245 7.6V8.1H91.4245V7.6H90.9245ZM90.9245 1.2H91.4245V0.699997H90.9245V1.2ZM69.1645 1.2V0.699997H68.6645V1.2H69.1645ZM69.1645 8.1H76.5245V7.1H69.1645V8.1ZM76.0245 7.6V46H77.0245V7.6H76.0245ZM76.5245 46.5H83.5645V45.5H76.5245V46.5ZM84.0645 46V7.6H83.0645V46H84.0645ZM83.5645 8.1H90.9245V7.1H83.5645V8.1ZM91.4245 7.6V1.2H90.4245V7.6H91.4245ZM90.9245 0.699997H69.1645V1.7H90.9245V0.699997ZM68.6645 1.2V7.6H69.6645V1.2H68.6645ZM125.833 46V46.5H126.587L126.293 45.8052L125.833 46ZM120.393 24.112L120.181 23.6594L119.16 24.1384L120.2 24.5733L120.393 24.112ZM103.945 1.2V0.699997H103.445V1.2H103.945ZM103.945 46H103.445V46.5H103.945V46ZM110.985 46V46.5H111.485V46H110.985ZM110.985 27.76V27.26H110.485V27.76H110.985ZM118.665 46L118.191 46.1581L118.305 46.5H118.665V46ZM110.985 21.36H110.485V21.86H110.985V21.36ZM110.985 7.6V7.1H110.485V7.6H110.985ZM126.293 45.8052C125.633 44.2439 125.565 42.7365 125.565 40.56H124.565C124.565 42.7355 124.625 44.4281 125.373 46.1948L126.293 45.8052ZM125.565 40.56V33.648H124.565V40.56H125.565ZM125.565 33.648C125.565 28.9214 124.398 25.2447 120.586 23.6507L120.2 24.5733C123.428 25.9233 124.565 29.0306 124.565 33.648H125.565ZM120.605 24.5646C123.983 22.9793 125.501 19.7406 125.501 15.024H124.501C124.501 19.5234 123.075 22.3007 120.181 23.6594L120.605 24.5646ZM125.501 15.024V11.504H124.501V15.024H125.501ZM125.501 11.504C125.501 7.98289 124.703 5.25233 122.876 3.40811C121.048 1.56307 118.285 0.699997 114.569 0.699997V1.7C118.149 1.7 120.602 2.53292 122.166 4.11189C123.731 5.69167 124.501 8.11311 124.501 11.504H125.501ZM114.569 0.699997H103.945V1.7H114.569V0.699997ZM103.445 1.2V46H104.445V1.2H103.445ZM103.945 46.5H110.985V45.5H103.945V46.5ZM111.485 46V27.76H110.485V46H111.485ZM110.985 28.26H113.417V27.26H110.985V28.26ZM113.417 28.26C114.944 28.26 115.919 28.6256 116.537 29.3678C117.174 30.1342 117.525 31.4102 117.525 33.456H118.525C118.525 31.3418 118.172 29.7698 117.305 28.7282C116.419 27.6624 115.09 27.26 113.417 27.26V28.26ZM117.525 33.456V40.496H118.525V33.456H117.525ZM117.525 40.496C117.525 42.3274 117.589 43.4437 117.706 44.2554C117.825 45.0794 117.998 45.5801 118.191 46.1581L119.139 45.8419C118.948 45.2679 118.801 44.8406 118.696 44.1126C118.589 43.3723 118.525 42.3126 118.525 40.496H117.525ZM118.665 46.5H125.833V45.5H118.665V46.5ZM114.377 8.1C115.529 8.1 116.252 8.42032 116.71 9.01068C117.191 9.63051 117.461 10.6452 117.461 12.208H118.461C118.461 10.5708 118.187 9.28149 117.5 8.39732C116.79 7.48368 115.721 7.1 114.377 7.1V8.1ZM117.461 12.208V16.624H118.461V12.208H117.461ZM117.461 16.624C117.461 18.354 117.073 19.382 116.478 19.9844C115.884 20.5845 114.987 20.86 113.737 20.86V21.86C115.111 21.86 116.326 21.5595 117.188 20.6876C118.049 19.818 118.461 18.478 118.461 16.624H117.461ZM113.737 20.86H110.985V21.86H113.737V20.86ZM111.485 21.36V7.6H110.485V21.36H111.485ZM110.985 8.1H114.377V7.1H110.985V8.1ZM160.753 27.952L160.406 28.3124L160.828 28.718L161.163 28.2381L160.753 27.952ZM181.745 22.704L182.159 22.984L182.385 22.6487L182.105 22.3572L181.745 22.704ZM178.417 19.248L178.777 18.9012L178.361 18.4697L178.011 18.9556L178.417 19.248ZM157.424 24.752L157.01 24.472L156.775 24.8207L157.078 25.1124L157.424 24.752ZM161.163 28.2381C162.128 26.8546 162.785 25.9911 163.367 25.4679C163.916 24.974 164.376 24.804 164.977 24.804V23.804C164.105 23.804 163.413 24.082 162.698 24.7241C162.016 25.3369 161.297 26.2974 160.342 27.6659L161.163 28.2381ZM164.977 24.804C165.532 24.804 166.14 25.0072 166.826 25.3589C167.513 25.7109 168.223 26.1812 168.994 26.6767C170.495 27.6401 172.231 28.708 174.129 28.708V27.708C172.57 27.708 171.074 26.8239 169.535 25.8353C168.786 25.3548 168.024 24.8491 167.283 24.4691C166.541 24.0888 165.765 23.804 164.977 23.804V24.804ZM174.129 28.708C175.424 28.708 176.661 28.4485 177.973 27.5764C179.267 26.7166 180.607 25.28 182.159 22.984L181.33 22.424C179.81 24.672 178.558 25.9874 177.42 26.7436C176.3 27.4875 175.265 27.708 174.129 27.708V28.708ZM182.105 22.3572L178.777 18.9012L178.056 19.5948L181.384 23.0508L182.105 22.3572ZM178.011 18.9556C177.011 20.3433 176.354 21.2083 175.776 21.7342C175.233 22.2281 174.79 22.396 174.193 22.396V23.396C175.067 23.396 175.744 23.1159 176.449 22.4738C177.119 21.8637 177.839 20.9047 178.822 19.5404L178.011 18.9556ZM174.193 22.396C173.637 22.396 173.029 22.1928 172.343 21.8411C171.656 21.4891 170.946 21.0188 170.175 20.5233C168.674 19.5599 166.938 18.492 165.041 18.492V19.492C166.599 19.492 168.095 20.3761 169.634 21.3647C170.383 21.8452 171.145 22.3509 171.886 22.7309C172.628 23.1112 173.404 23.396 174.193 23.396V22.396ZM165.041 18.492C163.724 18.492 162.486 18.8262 161.181 19.7617C159.895 20.684 158.56 22.18 157.01 24.472L157.839 25.032C159.361 22.78 160.618 21.396 161.764 20.5743C162.891 19.7658 163.925 19.492 165.041 19.492V18.492ZM157.078 25.1124L160.406 28.3124L161.099 27.5916L157.771 24.3916L157.078 25.1124ZM221.665 7.6V7.1H221.165V7.6H221.665ZM233.825 7.6V8.1H234.325V7.6H233.825ZM233.825 1.2H234.325V0.699997H233.825V1.2ZM214.625 1.2V0.699997H214.125V1.2H214.625ZM214.625 46H214.125V46.5H214.625V46ZM233.825 46V46.5H234.325V46H233.825ZM233.825 39.6H234.325V39.1H233.825V39.6ZM221.665 39.6H221.165V40.1H221.665V39.6ZM221.665 26.48V25.98H221.165V26.48H221.665ZM231.329 26.48V26.98H231.829V26.48H231.329ZM231.329 20.08H231.829V19.58H231.329V20.08ZM221.665 20.08H221.165V20.58H221.665V20.08ZM221.665 8.1H233.825V7.1H221.665V8.1ZM234.325 7.6V1.2H233.325V7.6H234.325ZM233.825 0.699997H214.625V1.7H233.825V0.699997ZM214.125 1.2V46H215.125V1.2H214.125ZM214.625 46.5H233.825V45.5H214.625V46.5ZM234.325 46V39.6H233.325V46H234.325ZM233.825 39.1H221.665V40.1H233.825V39.1ZM222.165 39.6V26.48H221.165V39.6H222.165ZM221.665 26.98H231.329V25.98H221.665V26.98ZM231.829 26.48V20.08H230.829V26.48H231.829ZM231.329 19.58H221.665V20.58H231.329V19.58ZM222.165 20.08V7.6H221.165V20.08H222.165ZM261.867 29.296V28.796H261.367V29.296H261.867ZM261.867 16.304H261.367V16.804H261.867V16.304ZM268.523 16.304V16.804H269.023V16.304H268.523ZM268.523 29.296H269.023V28.796H268.523V29.296ZM261.367 29.296V35.696H262.367V29.296H261.367ZM261.367 35.696C261.367 37.2344 261.028 38.1761 260.515 38.7337C260.011 39.2823 259.258 39.548 258.22 39.548V40.548C259.421 40.548 260.492 40.2377 261.252 39.4102C262.003 38.5919 262.367 37.3576 262.367 35.696H261.367ZM258.22 39.548C257.181 39.548 256.428 39.2823 255.924 38.7337C255.411 38.1761 255.072 37.2344 255.072 35.696H254.072C254.072 37.3576 254.436 38.5919 255.187 39.4102C255.947 40.2377 257.018 40.548 258.22 40.548V39.548ZM255.072 35.696V11.504H254.072V35.696H255.072ZM255.072 11.504C255.072 9.96609 255.411 9.00512 255.928 8.43001C256.434 7.86574 257.188 7.588 258.22 7.588V6.588C257.011 6.588 255.941 6.91826 255.183 7.76198C254.436 8.59487 254.072 9.84191 254.072 11.504H255.072ZM258.22 7.588C259.251 7.588 260.005 7.86574 260.511 8.43001C261.028 9.00512 261.367 9.96609 261.367 11.504H262.367C262.367 9.84191 262.003 8.59487 261.256 7.76198C260.498 6.91826 259.428 6.588 258.22 6.588V7.588ZM261.367 11.504V16.304H262.367V11.504H261.367ZM261.867 16.804H268.523V15.804H261.867V16.804ZM269.023 16.304V11.952H268.023V16.304H269.023ZM269.023 11.952C269.023 8.29093 268.108 5.33651 266.236 3.29414C264.357 1.24458 261.584 0.188 258.027 0.188V1.188C261.383 1.188 263.858 2.17942 265.499 3.96986C267.147 5.76749 268.023 8.44507 268.023 11.952H269.023ZM258.027 0.188C254.471 0.188 251.698 1.24458 249.819 3.29414C247.947 5.33651 247.031 8.29093 247.031 11.952H248.031C248.031 8.44507 248.908 5.76749 250.556 3.96986C252.197 2.17942 254.672 1.188 258.027 1.188V0.188ZM247.031 11.952V35.248H248.031V11.952H247.031ZM247.031 35.248C247.031 38.9091 247.947 41.8635 249.819 43.9059C251.698 45.9554 254.471 47.012 258.027 47.012V46.012C254.672 46.012 252.197 45.0206 250.556 43.2301C248.908 41.4325 248.031 38.7549 248.031 35.248H247.031ZM258.027 47.012C261.584 47.012 264.357 45.9554 266.236 43.9059C268.108 41.8635 269.023 38.9091 269.023 35.248H268.023C268.023 38.7549 267.147 41.4325 265.499 43.2301C263.858 45.0206 261.383 46.012 258.027 46.012V47.012ZM269.023 35.248V29.296H268.023V35.248H269.023ZM268.523 28.796H261.867V29.796H268.523V28.796ZM289.679 11.504C289.679 9.96609 290.019 9.00512 290.535 8.43001C291.042 7.86574 291.796 7.588 292.827 7.588V6.588C291.618 6.588 290.548 6.91826 289.791 7.76198C289.043 8.59487 288.679 9.84191 288.679 11.504H289.679ZM292.827 7.588C293.858 7.588 294.612 7.86574 295.119 8.43001C295.635 9.00512 295.975 9.96609 295.975 11.504H296.975C296.975 9.84191 296.611 8.59487 295.863 7.76198C295.106 6.91826 294.036 6.588 292.827 6.588V7.588ZM295.975 11.504V35.696H296.975V11.504H295.975ZM295.975 35.696C295.975 37.2339 295.635 38.1949 295.119 38.77C294.612 39.3343 293.858 39.612 292.827 39.612V40.612C294.036 40.612 295.106 40.2817 295.863 39.438C296.611 38.6051 296.975 37.3581 296.975 35.696H295.975ZM292.827 39.612C291.796 39.612 291.042 39.3343 290.535 38.77C290.019 38.1949 289.679 37.2339 289.679 35.696H288.679C288.679 37.3581 289.043 38.6051 289.791 39.438C290.548 40.2817 291.618 40.612 292.827 40.612V39.612ZM289.679 35.696V11.504H288.679V35.696H289.679ZM281.639 35.248C281.639 38.9154 282.606 41.8703 284.527 43.9108C286.453 45.9559 289.271 47.012 292.827 47.012V46.012C289.471 46.012 286.945 45.0201 285.255 43.2252C283.56 41.4257 282.639 38.7486 282.639 35.248H281.639ZM292.827 47.012C296.383 47.012 299.201 45.9559 301.127 43.9108C303.048 41.8703 304.015 38.9154 304.015 35.248H303.015C303.015 38.7486 302.094 41.4257 300.399 43.2252C298.709 45.0201 296.183 46.012 292.827 46.012V47.012ZM304.015 35.248V11.952H303.015V35.248H304.015ZM304.015 11.952C304.015 8.28457 303.048 5.32969 301.127 3.28922C299.201 1.2441 296.383 0.188 292.827 0.188V1.188C296.183 1.188 298.709 2.1799 300.399 3.97478C302.094 5.77431 303.015 8.45143 303.015 11.952H304.015ZM292.827 0.188C289.271 0.188 286.453 1.2441 284.527 3.28922C282.606 5.32969 281.639 8.28457 281.639 11.952H282.639C282.639 8.45143 283.56 5.77431 285.255 3.97478C286.945 2.1799 289.471 1.188 292.827 1.188V0.188ZM281.639 11.952V35.248H282.639V11.952H281.639ZM320.073 46L320.553 46.1393L320.739 45.5H320.073V46ZM318.217 52.4L317.737 52.2607L317.551 52.9H318.217V52.4ZM321.097 52.4V52.9H321.426L321.556 52.5985L321.097 52.4ZM324.169 45.296L324.628 45.4945L324.669 45.3995V45.296H324.169ZM324.169 39.216H324.669V38.716H324.169V39.216ZM317.385 39.216V38.716H316.885V39.216H317.385ZM317.385 46H316.885V46.5H317.385V46ZM319.593 45.8607L317.737 52.2607L318.697 52.5393L320.553 46.1393L319.593 45.8607ZM318.217 52.9H321.097V51.9H318.217V52.9ZM321.556 52.5985L324.628 45.4945L323.71 45.0975L320.638 52.2015L321.556 52.5985ZM324.669 45.296V39.216H323.669V45.296H324.669ZM324.169 38.716H317.385V39.716H324.169V38.716ZM316.885 39.216V46H317.885V39.216H316.885ZM317.385 46.5H320.073V45.5H317.385V46.5ZM7.128 96.496H7.628V95.996H7.128V96.496ZM0.472 96.496V95.996H-0.0279999V96.496H0.472ZM14.744 77.36H14.244V77.86H14.744V77.36ZM21.4 77.36V77.86H21.9V77.36H21.4ZM0.164 75.952C0.164 82.5754 3.74689 86.3348 7.20436 89.5349C8.94619 91.1471 10.6218 92.5887 11.8794 94.205C13.1218 95.8019 13.924 97.5328 13.924 99.696H14.924C14.924 97.2512 14.0062 95.3101 12.6686 93.591C11.3462 91.8913 9.58181 90.3729 7.88364 88.8011C4.46111 85.6332 1.164 82.1286 1.164 75.952H0.164ZM13.924 99.696C13.924 101.234 13.5841 102.176 13.0718 102.734C12.5679 103.282 11.8145 103.548 10.776 103.548V104.548C11.9775 104.548 13.0481 104.238 13.8082 103.41C14.5599 102.592 14.924 101.358 14.924 99.696H13.924ZM10.776 103.548C9.73748 103.548 8.98413 103.282 8.48022 102.734C7.96795 102.176 7.628 101.234 7.628 99.696H6.628C6.628 101.358 6.99205 102.592 7.74378 103.41C8.50387 104.238 9.57452 104.548 10.776 104.548V103.548ZM7.628 99.696V96.496H6.628V99.696H7.628ZM7.128 95.996H0.472V96.996H7.128V95.996ZM-0.0279999 96.496V99.248H0.972V96.496H-0.0279999ZM-0.0279999 99.248C-0.0279999 102.909 0.887246 105.863 2.75942 107.906C4.63818 109.955 7.41192 111.012 10.968 111.012V110.012C7.61208 110.012 5.13782 109.021 3.49658 107.23C1.84875 105.433 0.972 102.755 0.972 99.248H-0.0279999ZM10.968 111.012C14.5241 111.012 17.2978 109.955 19.1766 107.906C21.0488 105.863 21.964 102.909 21.964 99.248H20.964C20.964 102.755 20.0872 105.433 18.4394 107.23C16.7982 109.021 14.3239 110.012 10.968 110.012V111.012ZM21.964 99.248C21.964 92.6246 18.3811 88.8652 14.9236 85.6651C13.1818 84.0529 11.5062 82.6113 10.2486 80.995C9.00619 79.3981 8.204 77.6672 8.204 75.504H7.204C7.204 77.9488 8.12181 79.8899 9.45938 81.609C10.7818 83.3087 12.5462 84.8271 14.2444 86.3989C17.6669 89.5668 20.964 93.0714 20.964 99.248H21.964ZM8.204 75.504C8.204 73.9558 8.51615 72.9934 9.00454 72.4203C9.47797 71.8648 10.1935 71.588 11.224 71.588V70.588C10.0145 70.588 8.97003 70.9192 8.24346 71.7717C7.53185 72.6066 7.204 73.8521 7.204 75.504H8.204ZM11.224 71.588C12.2545 71.588 12.97 71.8648 13.4435 72.4203C13.9318 72.9934 14.244 73.9558 14.244 75.504H15.244C15.244 73.8521 14.9162 72.6066 14.2045 71.7717C13.478 70.9192 12.4335 70.588 11.224 70.588V71.588ZM14.244 75.504V77.36H15.244V75.504H14.244ZM14.744 77.86H21.4V76.86H14.744V77.86ZM21.9 77.36V75.952H20.9V77.36H21.9ZM21.9 75.952C21.9 72.293 21.0018 69.3394 19.1549 67.2967C17.3003 65.2456 14.5576 64.188 11.032 64.188V65.188C14.3544 65.188 16.7957 66.1784 18.4131 67.9673C20.0382 69.7646 20.9 72.443 20.9 75.952H21.9ZM11.032 64.188C7.50642 64.188 4.76366 65.2456 2.90912 67.2967C1.06217 69.3394 0.164 72.293 0.164 75.952H1.164C1.164 72.443 2.02583 69.7646 3.65088 67.9673C5.26834 66.1784 7.70958 65.188 11.032 65.188V64.188ZM42.4575 71.6V71.1H41.9575V71.6H42.4575ZM54.6175 71.6V72.1H55.1175V71.6H54.6175ZM54.6175 65.2H55.1175V64.7H54.6175V65.2ZM35.4175 65.2V64.7H34.9175V65.2H35.4175ZM35.4175 110H34.9175V110.5H35.4175V110ZM54.6175 110V110.5H55.1175V110H54.6175ZM54.6175 103.6H55.1175V103.1H54.6175V103.6ZM42.4575 103.6H41.9575V104.1H42.4575V103.6ZM42.4575 90.48V89.98H41.9575V90.48H42.4575ZM52.1215 90.48V90.98H52.6215V90.48H52.1215ZM52.1215 84.08H52.6215V83.58H52.1215V84.08ZM42.4575 84.08H41.9575V84.58H42.4575V84.08ZM42.4575 72.1H54.6175V71.1H42.4575V72.1ZM55.1175 71.6V65.2H54.1175V71.6H55.1175ZM54.6175 64.7H35.4175V65.7H54.6175V64.7ZM34.9175 65.2V110H35.9175V65.2H34.9175ZM35.4175 110.5H54.6175V109.5H35.4175V110.5ZM55.1175 110V103.6H54.1175V110H55.1175ZM54.6175 103.1H42.4575V104.1H54.6175V103.1ZM42.9575 103.6V90.48H41.9575V103.6H42.9575ZM42.4575 90.98H52.1215V89.98H42.4575V90.98ZM52.6215 90.48V84.08H51.6215V90.48H52.6215ZM52.1215 83.58H42.4575V84.58H52.1215V83.58ZM42.9575 84.08V71.6H41.9575V84.08H42.9575ZM68.9 110H68.4V110.5H68.9V110ZM87.524 110V110.5H88.024V110H87.524ZM87.524 103.6H88.024V103.1H87.524V103.6ZM75.94 103.6H75.44V104.1H75.94V103.6ZM75.94 65.2H76.44V64.7H75.94V65.2ZM68.9 65.2V64.7H68.4V65.2H68.9ZM68.9 110.5H87.524V109.5H68.9V110.5ZM88.024 110V103.6H87.024V110H88.024ZM87.524 103.1H75.94V104.1H87.524V103.1ZM76.44 103.6V65.2H75.44V103.6H76.44ZM75.94 64.7H68.9V65.7H75.94V64.7ZM68.4 65.2V110H69.4V65.2H68.4ZM107.548 71.6V71.1H107.048V71.6H107.548ZM119.132 71.6V72.1H119.632V71.6H119.132ZM119.132 65.2H119.632V64.7H119.132V65.2ZM100.507 65.2V64.7H100.007V65.2H100.507ZM100.507 110H100.007V110.5H100.507V110ZM107.548 110V110.5H108.048V110H107.548ZM107.548 91.504V91.004H107.048V91.504H107.548ZM116.636 91.504V92.004H117.136V91.504H116.636ZM116.636 85.104H117.136V84.604H116.636V85.104ZM107.548 85.104H107.048V85.604H107.548V85.104ZM107.548 72.1H119.132V71.1H107.548V72.1ZM119.632 71.6V65.2H118.632V71.6H119.632ZM119.132 64.7H100.507V65.7H119.132V64.7ZM100.007 65.2V110H101.007V65.2H100.007ZM100.507 110.5H107.548V109.5H100.507V110.5ZM108.048 110V91.504H107.048V110H108.048ZM107.548 92.004H116.636V91.004H107.548V92.004ZM117.136 91.504V85.104H116.136V91.504H117.136ZM116.636 84.604H107.548V85.604H116.636V84.604ZM108.048 85.104V71.6H107.048V85.104H108.048ZM132.107 90.8H131.607V91.3H132.107V90.8ZM144.908 90.8V91.3H145.408V90.8H144.908ZM144.908 84.4H145.408V83.9H144.908V84.4ZM132.107 84.4V83.9H131.607V84.4H132.107ZM132.107 91.3H144.908V90.3H132.107V91.3ZM145.408 90.8V84.4H144.408V90.8H145.408ZM144.908 83.9H132.107V84.9H144.908V83.9ZM131.607 84.4V90.8H132.607V84.4H131.607ZM177.773 110L177.276 110.053L177.324 110.5H177.773V110ZM187.118 110V110.5H187.565L187.614 110.055L187.118 110ZM192.11 65.2L192.606 65.2554L192.668 64.7H192.11V65.2ZM185.966 65.2V64.7H185.514L185.468 65.149L185.966 65.2ZM182.318 100.784L181.82 100.833L182.815 100.835L182.318 100.784ZM178.798 65.2L179.295 65.1508L179.25 64.7H178.798V65.2ZM172.014 65.2V64.7H171.559L171.516 65.1522L172.014 65.2ZM168.622 100.528L168.124 100.581L169.119 100.576L168.622 100.528ZM164.846 65.2L165.343 65.1469L165.295 64.7H164.846V65.2ZM157.998 65.2V64.7H157.439L157.501 65.2554L157.998 65.2ZM162.99 110L162.493 110.055L162.542 110.5H162.99V110ZM172.654 110V110.5H173.103L173.151 110.053L172.654 110ZM175.214 86.128L175.711 86.0747H174.716L175.214 86.128ZM177.773 110.5H187.118V109.5H177.773V110.5ZM187.614 110.055L192.606 65.2554L191.613 65.1446L186.621 109.945L187.614 110.055ZM192.11 64.7H185.966V65.7H192.11V64.7ZM185.468 65.149L181.82 100.733L182.815 100.835L186.463 65.251L185.468 65.149ZM182.815 100.735L179.295 65.1508L178.3 65.2492L181.82 100.833L182.815 100.735ZM178.798 64.7H172.014V65.7H178.798V64.7ZM171.516 65.1522L168.124 100.48L169.119 100.576L172.511 65.2478L171.516 65.1522ZM169.119 100.475L165.343 65.1469L164.348 65.2531L168.124 100.581L169.119 100.475ZM164.846 64.7H157.998V65.7H164.846V64.7ZM157.501 65.2554L162.493 110.055L163.486 109.945L158.494 65.1446L157.501 65.2554ZM162.99 110.5H172.654V109.5H162.99V110.5ZM173.151 110.053L175.711 86.1813L174.716 86.0747L172.156 109.947L173.151 110.053ZM174.716 86.1813L177.276 110.053L178.271 109.947L175.711 86.0747L174.716 86.1813ZM220.258 65.2L220.752 65.121L220.685 64.7H220.258V65.2ZM209.954 65.2V64.7H209.528L209.461 65.121L209.954 65.2ZM202.786 110L202.293 109.921L202.2 110.5H202.786V110ZM209.251 110V110.5H209.681L209.745 110.074L209.251 110ZM210.467 101.872V101.372H210.036L209.972 101.798L210.467 101.872ZM219.107 101.872L219.601 101.798L219.537 101.372H219.107V101.872ZM220.323 110L219.828 110.074L219.892 110.5H220.323V110ZM227.427 110V110.5H228.013L227.92 109.921L227.427 110ZM214.755 73.136L215.249 73.062H214.26L214.755 73.136ZM218.146 95.792V96.292H218.727L218.641 95.718L218.146 95.792ZM211.363 95.792L210.868 95.718L210.782 96.292H211.363V95.792ZM220.258 64.7H209.954V65.7H220.258V64.7ZM209.461 65.121L202.293 109.921L203.28 110.079L210.448 65.279L209.461 65.121ZM202.786 110.5H209.251V109.5H202.786V110.5ZM209.745 110.074L210.961 101.946L209.972 101.798L208.756 109.926L209.745 110.074ZM210.467 102.372H219.107V101.372H210.467V102.372ZM218.612 101.946L219.828 110.074L220.817 109.926L219.601 101.798L218.612 101.946ZM220.323 110.5H227.427V109.5H220.323V110.5ZM227.92 109.921L220.752 65.121L219.765 65.279L226.933 110.079L227.92 109.921ZM214.26 73.21L217.652 95.866L218.641 95.718L215.249 73.062L214.26 73.21ZM218.146 95.292H211.363V96.292H218.146V95.292ZM211.857 95.866L215.249 73.21L214.26 73.062L210.868 95.718L211.857 95.866ZM238.577 71.6H238.077V72.1H238.577V71.6ZM245.937 71.6H246.437V71.1H245.937V71.6ZM245.937 110H245.437V110.5H245.937V110ZM252.977 110V110.5H253.477V110H252.977ZM252.977 71.6V71.1H252.477V71.6H252.977ZM260.337 71.6V72.1H260.837V71.6H260.337ZM260.337 65.2H260.837V64.7H260.337V65.2ZM238.577 65.2V64.7H238.077V65.2H238.577ZM238.577 72.1H245.937V71.1H238.577V72.1ZM245.437 71.6V110H246.437V71.6H245.437ZM245.937 110.5H252.977V109.5H245.937V110.5ZM253.477 110V71.6H252.477V110H253.477ZM252.977 72.1H260.337V71.1H252.977V72.1ZM260.837 71.6V65.2H259.837V71.6H260.837ZM260.337 64.7H238.577V65.7H260.337V64.7ZM238.077 65.2V71.6H239.077V65.2H238.077ZM280.397 71.6V71.1H279.897V71.6H280.397ZM292.557 71.6V72.1H293.057V71.6H292.557ZM292.557 65.2H293.057V64.7H292.557V65.2ZM273.357 65.2V64.7H272.857V65.2H273.357ZM273.357 110H272.857V110.5H273.357V110ZM292.557 110V110.5H293.057V110H292.557ZM292.557 103.6H293.057V103.1H292.557V103.6ZM280.397 103.6H279.897V104.1H280.397V103.6ZM280.397 90.48V89.98H279.897V90.48H280.397ZM290.061 90.48V90.98H290.561V90.48H290.061ZM290.061 84.08H290.561V83.58H290.061V84.08ZM280.397 84.08H279.897V84.58H280.397V84.08ZM280.397 72.1H292.557V71.1H280.397V72.1ZM293.057 71.6V65.2H292.057V71.6H293.057ZM292.557 64.7H273.357V65.7H292.557V64.7ZM272.857 65.2V110H273.857V65.2H272.857ZM273.357 110.5H292.557V109.5H273.357V110.5ZM293.057 110V103.6H292.057V110H293.057ZM292.557 103.1H280.397V104.1H292.557V103.1ZM280.897 103.6V90.48H279.897V103.6H280.897ZM280.397 90.98H290.061V89.98H280.397V90.98ZM290.561 90.48V84.08H289.561V90.48H290.561ZM290.061 83.58H280.397V84.58H290.061V83.58ZM280.897 84.08V71.6H279.897V84.08H280.897ZM328.728 110V110.5H329.482L329.188 109.805L328.728 110ZM323.288 88.112L323.076 87.6594L322.055 88.1384L323.095 88.5733L323.288 88.112ZM306.84 65.2V64.7H306.34V65.2H306.84ZM306.84 110H306.34V110.5H306.84V110ZM313.88 110V110.5H314.38V110H313.88ZM313.88 91.76V91.26H313.38V91.76H313.88ZM321.56 110L321.086 110.158L321.2 110.5H321.56V110ZM313.88 85.36H313.38V85.86H313.88V85.36ZM313.88 71.6V71.1H313.38V71.6H313.88ZM329.188 109.805C328.528 108.244 328.46 106.737 328.46 104.56H327.46C327.46 106.735 327.52 108.428 328.268 110.195L329.188 109.805ZM328.46 104.56V97.648H327.46V104.56H328.46ZM328.46 97.648C328.46 92.9214 327.293 89.2447 323.481 87.6507L323.095 88.5733C326.323 89.9233 327.46 93.0306 327.46 97.648H328.46ZM323.5 88.5646C326.878 86.9793 328.396 83.7406 328.396 79.024H327.396C327.396 83.5234 325.97 86.3007 323.076 87.6594L323.5 88.5646ZM328.396 79.024V75.504H327.396V79.024H328.396ZM328.396 75.504C328.396 71.9829 327.598 69.2523 325.771 67.4081C323.943 65.5631 321.18 64.7 317.464 64.7V65.7C321.044 65.7 323.497 66.5329 325.061 68.1119C326.626 69.6917 327.396 72.1131 327.396 75.504H328.396ZM317.464 64.7H306.84V65.7H317.464V64.7ZM306.34 65.2V110H307.34V65.2H306.34ZM306.84 110.5H313.88V109.5H306.84V110.5ZM314.38 110V91.76H313.38V110H314.38ZM313.88 92.26H316.312V91.26H313.88V92.26ZM316.312 92.26C317.839 92.26 318.814 92.6256 319.432 93.3678C320.069 94.1342 320.42 95.4102 320.42 97.456H321.42C321.42 95.3418 321.067 93.7698 320.2 92.7282C319.314 91.6624 317.985 91.26 316.312 91.26V92.26ZM320.42 97.456V104.496H321.42V97.456H320.42ZM320.42 104.496C320.42 106.327 320.484 107.444 320.601 108.255C320.72 109.079 320.893 109.58 321.086 110.158L322.034 109.842C321.843 109.268 321.696 108.841 321.591 108.113C321.484 107.372 321.42 106.313 321.42 104.496H320.42ZM321.56 110.5H328.728V109.5H321.56V110.5ZM317.272 72.1C318.424 72.1 319.147 72.4203 319.605 73.0107C320.086 73.6305 320.356 74.6452 320.356 76.208H321.356C321.356 74.5708 321.082 73.2815 320.395 72.3973C319.685 71.4837 318.616 71.1 317.272 71.1V72.1ZM320.356 76.208V80.624H321.356V76.208H320.356ZM320.356 80.624C320.356 82.354 319.968 83.382 319.373 83.9844C318.779 84.5845 317.882 84.86 316.632 84.86V85.86C318.006 85.86 319.221 85.5595 320.083 84.6876C320.944 83.818 321.356 82.478 321.356 80.624H320.356ZM316.632 84.86H313.88V85.86H316.632V84.86ZM314.38 85.36V71.6H313.38V85.36H314.38ZM313.88 72.1H317.272V71.1H313.88V72.1ZM342.51 110H342.01V110.5H342.51V110ZM349.55 110V110.5H350.05V110H349.55ZM349.55 65.2H350.05V64.7H349.55V65.2ZM342.51 65.2V64.7H342.01V65.2H342.51ZM342.51 110.5H349.55V109.5H342.51V110.5ZM350.05 110V65.2H349.05V110H350.05ZM349.55 64.7H342.51V65.7H349.55V64.7ZM342.01 65.2V110H343.01V65.2H342.01ZM379.658 110L379.175 110.13L379.275 110.5H379.658V110ZM386.889 110V110.5H387.389V110H386.889ZM386.889 65.2H387.389V64.7H386.889V65.2ZM380.617 65.2V64.7H380.117V65.2H380.617ZM380.617 92.016L380.135 92.1462L381.117 92.016H380.617ZM373.385 65.2L373.868 65.0698L373.769 64.7H373.385V65.2ZM364.553 65.2V64.7H364.053V65.2H364.553ZM364.553 110H364.053V110.5H364.553V110ZM370.889 110V110.5H371.389V110H370.889ZM370.889 77.552L371.372 77.4216L370.389 77.552H370.889ZM379.658 110.5H386.889V109.5H379.658V110.5ZM387.389 110V65.2H386.389V110H387.389ZM386.889 64.7H380.617V65.7H386.889V64.7ZM380.117 65.2V92.016H381.117V65.2H380.117ZM381.1 91.8858L373.868 65.0698L372.903 65.3302L380.135 92.1462L381.1 91.8858ZM373.385 64.7H364.553V65.7H373.385V64.7ZM364.053 65.2V110H365.053V65.2H364.053ZM364.553 110.5H370.889V109.5H364.553V110.5ZM371.389 110V77.552H370.389V110H371.389ZM370.407 77.6824L379.175 110.13L380.14 109.87L371.372 77.4216L370.407 77.6824ZM412.41 91.44H411.91V91.94H412.41V91.44ZM415.61 91.44H416.11V90.94H415.61V91.44ZM415.61 80.304H415.11V80.804H415.61V80.304ZM422.266 80.304V80.804H422.766V80.304H422.266ZM422.266 85.04H422.766V84.54H422.266V85.04ZM412.41 85.04V84.54H411.91V85.04H412.41ZM412.41 91.94H415.61V90.94H412.41V91.94ZM415.11 91.44V99.696H416.11V91.44H415.11ZM415.11 99.696C415.11 101.234 414.77 102.176 414.258 102.734C413.754 103.282 413.001 103.548 411.962 103.548V104.548C413.163 104.548 414.234 104.238 414.994 103.41C415.746 102.592 416.11 101.358 416.11 99.696H415.11ZM411.962 103.548C410.923 103.548 410.17 103.282 409.666 102.734C409.154 102.176 408.814 101.234 408.814 99.696H407.814C407.814 101.358 408.178 102.592 408.93 103.41C409.69 104.238 410.761 104.548 411.962 104.548V103.548ZM408.814 99.696V75.504H407.814V99.696H408.814ZM408.814 75.504C408.814 73.9661 409.154 73.0051 409.67 72.43C410.177 71.8657 410.931 71.588 411.962 71.588V70.588C410.753 70.588 409.683 70.9183 408.926 71.762C408.178 72.5949 407.814 73.8419 407.814 75.504H408.814ZM411.962 71.588C412.993 71.588 413.747 71.8657 414.254 72.43C414.77 73.0051 415.11 73.9661 415.11 75.504H416.11C416.11 73.8419 415.746 72.5949 414.998 71.762C414.241 70.9183 413.171 70.588 411.962 70.588V71.588ZM415.11 75.504V80.304H416.11V75.504H415.11ZM415.61 80.804H422.266V79.804H415.61V80.804ZM422.766 80.304V75.952H421.766V80.304H422.766ZM422.766 75.952C422.766 72.2909 421.851 69.3365 419.979 67.2941C418.1 65.2446 415.326 64.188 411.77 64.188V65.188C415.126 65.188 417.6 66.1794 419.241 67.9699C420.889 69.7675 421.766 72.4451 421.766 75.952H422.766ZM411.77 64.188C408.214 64.188 405.44 65.2446 403.561 67.2941C401.689 69.3365 400.774 72.2909 400.774 75.952H401.774C401.774 72.4451 402.651 69.7675 404.299 67.9699C405.94 66.1794 408.414 65.188 411.77 65.188V64.188ZM400.774 75.952V99.248H401.774V75.952H400.774ZM400.774 99.248C400.774 102.909 401.689 105.863 403.561 107.906C405.44 109.955 408.214 111.012 411.77 111.012V110.012C408.414 110.012 405.94 109.021 404.299 107.23C402.651 105.433 401.774 102.755 401.774 99.248H400.774ZM411.77 111.012C415.326 111.012 418.1 109.955 419.979 107.906C421.851 105.863 422.766 102.909 422.766 99.248H421.766C421.766 102.755 420.889 105.433 419.241 107.23C417.6 109.021 415.126 110.012 411.77 110.012V111.012ZM422.766 99.248V85.04H421.766V99.248H422.766ZM422.266 84.54H412.41V85.54H422.266V84.54ZM411.91 85.04V91.44H412.91V85.04H411.91ZM438.77 110L439.251 110.139L439.436 109.5H438.77V110ZM436.914 116.4L436.434 116.261L436.249 116.9H436.914V116.4ZM439.794 116.4V116.9H440.123L440.253 116.598L439.794 116.4ZM442.866 109.296L443.325 109.494L443.366 109.399V109.296H442.866ZM442.866 103.216H443.366V102.716H442.866V103.216ZM436.082 103.216V102.716H435.582V103.216H436.082ZM436.082 110H435.582V110.5H436.082V110ZM438.29 109.861L436.434 116.261L437.395 116.539L439.251 110.139L438.29 109.861ZM436.914 116.9H439.794V115.9H436.914V116.9ZM440.253 116.598L443.325 109.494L442.408 109.098L439.336 116.202L440.253 116.598ZM443.366 109.296V103.216H442.366V109.296H443.366ZM442.866 102.716H436.082V103.716H442.866V102.716ZM435.582 103.216V110H436.582V103.216H435.582ZM436.082 110.5H438.77V109.5H436.082V110.5ZM8.524 139.504C8.524 137.966 8.86378 137.005 9.38007 136.43C9.88663 135.866 10.6406 135.588 11.672 135.588V134.588C10.4634 134.588 9.39337 134.918 8.63593 135.762C7.88822 136.595 7.524 137.842 7.524 139.504H8.524ZM11.672 135.588C12.7034 135.588 13.4574 135.866 13.9639 136.43C14.4802 137.005 14.82 137.966 14.82 139.504H15.82C15.82 137.842 15.4558 136.595 14.7081 135.762C13.9506 134.918 12.8806 134.588 11.672 134.588V135.588ZM14.82 139.504V163.696H15.82V139.504H14.82ZM14.82 163.696C14.82 165.234 14.4802 166.195 13.9639 166.77C13.4574 167.334 12.7034 167.612 11.672 167.612V168.612C12.8806 168.612 13.9506 168.282 14.7081 167.438C15.4558 166.605 15.82 165.358 15.82 163.696H14.82ZM11.672 167.612C10.6406 167.612 9.88663 167.334 9.38007 166.77C8.86378 166.195 8.524 165.234 8.524 163.696H7.524C7.524 165.358 7.88822 166.605 8.63593 167.438C9.39337 168.282 10.4634 168.612 11.672 168.612V167.612ZM8.524 163.696V139.504H7.524V163.696H8.524ZM0.484 163.248C0.484 166.915 1.45055 169.87 3.37199 171.911C5.29781 173.956 8.11639 175.012 11.672 175.012V174.012C8.31561 174.012 5.79019 173.02 4.10001 171.225C2.40545 169.426 1.484 166.749 1.484 163.248H0.484ZM11.672 175.012C15.2276 175.012 18.0462 173.956 19.972 171.911C21.8935 169.87 22.86 166.915 22.86 163.248H21.86C21.86 166.749 20.9385 169.426 19.244 171.225C17.5538 173.02 15.0284 174.012 11.672 174.012V175.012ZM22.86 163.248V139.952H21.86V163.248H22.86ZM22.86 139.952C22.86 136.285 21.8935 133.33 19.972 131.289C18.0462 129.244 15.2276 128.188 11.672 128.188V129.188C15.0284 129.188 17.5538 130.18 19.244 131.975C20.9385 133.774 21.86 136.451 21.86 139.952H22.86ZM11.672 128.188C8.11639 128.188 5.29781 129.244 3.37199 131.289C1.45055 133.33 0.484 136.285 0.484 139.952H1.484C1.484 136.451 2.40545 133.774 4.10001 131.975C5.79019 130.18 8.31561 129.188 11.672 129.188V128.188ZM0.484 139.952V163.248H1.484V139.952H0.484ZM58.743 174V174.5H59.4974L59.2035 173.805L58.743 174ZM53.303 152.112L53.0905 151.659L52.0701 152.138L53.1101 152.573L53.303 152.112ZM36.855 129.2V128.7H36.355V129.2H36.855ZM36.855 174H36.355V174.5H36.855V174ZM43.895 174V174.5H44.395V174H43.895ZM43.895 155.76V155.26H43.395V155.76H43.895ZM51.575 174L51.1007 174.158L51.2146 174.5H51.575V174ZM43.895 149.36H43.395V149.86H43.895V149.36ZM43.895 135.6V135.1H43.395V135.6H43.895ZM59.2035 173.805C58.543 172.244 58.475 170.737 58.475 168.56H57.475C57.475 170.735 57.535 172.428 58.2825 174.195L59.2035 173.805ZM58.475 168.56V161.648H57.475V168.56H58.475ZM58.475 161.648C58.475 156.921 57.3077 153.245 53.4959 151.651L53.1101 152.573C56.3383 153.923 57.475 157.031 57.475 161.648H58.475ZM53.5155 152.565C56.8928 150.979 58.411 147.741 58.411 143.024H57.411C57.411 147.523 55.9852 150.301 53.0905 151.659L53.5155 152.565ZM58.411 143.024V139.504H57.411V143.024H58.411ZM58.411 139.504C58.411 135.983 57.6132 133.252 55.7862 131.408C53.9584 129.563 51.1947 128.7 47.479 128.7V129.7C51.0593 129.7 53.5116 130.533 55.0758 132.112C56.6408 133.692 57.411 136.113 57.411 139.504H58.411ZM47.479 128.7H36.855V129.7H47.479V128.7ZM36.355 129.2V174H37.355V129.2H36.355ZM36.855 174.5H43.895V173.5H36.855V174.5ZM44.395 174V155.76H43.395V174H44.395ZM43.895 156.26H46.327V155.26H43.895V156.26ZM46.327 156.26C47.8542 156.26 48.8293 156.626 49.4466 157.368C50.0842 158.134 50.435 159.41 50.435 161.456H51.435C51.435 159.342 51.0818 157.77 50.2154 156.728C49.3287 155.662 47.9998 155.26 46.327 155.26V156.26ZM50.435 161.456V168.496H51.435V161.456H50.435ZM50.435 168.496C50.435 170.327 50.499 171.444 50.6161 172.255C50.735 173.079 50.908 173.58 51.1007 174.158L52.0493 173.842C51.858 173.268 51.711 172.841 51.6059 172.113C51.499 171.372 51.435 170.313 51.435 168.496H50.435ZM51.575 174.5H58.743V173.5H51.575V174.5ZM47.287 136.1C48.4389 136.1 49.1616 136.42 49.6201 137.011C50.1015 137.631 50.371 138.645 50.371 140.208H51.371C51.371 138.571 51.0965 137.281 50.4099 136.397C49.7004 135.484 48.6311 135.1 47.287 135.1V136.1ZM50.371 140.208V144.624H51.371V140.208H50.371ZM50.371 144.624C50.371 146.354 49.9834 147.382 49.3875 147.984C48.7939 148.585 47.8968 148.86 46.647 148.86V149.86C48.0212 149.86 49.2361 149.559 50.0985 148.688C50.9586 147.818 51.371 146.478 51.371 144.624H50.371ZM46.647 148.86H43.895V149.86H46.647V148.86ZM44.395 149.36V135.6H43.395V149.36H44.395ZM43.895 136.1H47.287V135.1H43.895V136.1ZM72.525 174H72.025V174.5H72.525V174ZM79.565 174V174.5H80.065V174H79.565ZM79.565 129.2H80.065V128.7H79.565V129.2ZM72.525 129.2V128.7H72.025V129.2H72.525ZM72.525 174.5H79.565V173.5H72.525V174.5ZM80.065 174V129.2H79.065V174H80.065ZM79.565 128.7H72.525V129.7H79.565V128.7ZM72.025 129.2V174H73.025V129.2H72.025ZM105.193 155.44H104.693V155.94H105.193V155.44ZM108.393 155.44H108.893V154.94H108.393V155.44ZM108.393 144.304H107.893V144.804H108.393V144.304ZM115.049 144.304V144.804H115.549V144.304H115.049ZM115.049 149.04H115.549V148.54H115.049V149.04ZM105.193 149.04V148.54H104.693V149.04H105.193ZM105.193 155.94H108.393V154.94H105.193V155.94ZM107.893 155.44V163.696H108.893V155.44H107.893ZM107.893 163.696C107.893 165.234 107.553 166.176 107.04 166.734C106.536 167.282 105.783 167.548 104.745 167.548V168.548C105.946 168.548 107.017 168.238 107.777 167.41C108.528 166.592 108.893 165.358 108.893 163.696H107.893ZM104.745 167.548C103.706 167.548 102.953 167.282 102.449 166.734C101.936 166.176 101.597 165.234 101.597 163.696H100.597C100.597 165.358 100.961 166.592 101.712 167.41C102.472 168.238 103.543 168.548 104.745 168.548V167.548ZM101.597 163.696V139.504H100.597V163.696H101.597ZM101.597 139.504C101.597 137.966 101.936 137.005 102.453 136.43C102.959 135.866 103.713 135.588 104.745 135.588V134.588C103.536 134.588 102.466 134.918 101.708 135.762C100.961 136.595 100.597 137.842 100.597 139.504H101.597ZM104.745 135.588C105.776 135.588 106.53 135.866 107.036 136.43C107.553 137.005 107.893 137.966 107.893 139.504H108.893C108.893 137.842 108.528 136.595 107.781 135.762C107.023 134.918 105.953 134.588 104.745 134.588V135.588ZM107.893 139.504V144.304H108.893V139.504H107.893ZM108.393 144.804H115.049V143.804H108.393V144.804ZM115.549 144.304V139.952H114.549V144.304H115.549ZM115.549 139.952C115.549 136.291 114.633 133.337 112.761 131.294C110.882 129.245 108.109 128.188 104.553 128.188V129.188C107.908 129.188 110.383 130.179 112.024 131.97C113.672 133.767 114.549 136.445 114.549 139.952H115.549ZM104.553 128.188C100.996 128.188 98.2227 129.245 96.3439 131.294C94.4717 133.337 93.5565 136.291 93.5565 139.952H94.5565C94.5565 136.445 95.4333 133.767 97.0811 131.97C98.7223 130.179 101.197 129.188 104.553 129.188V128.188ZM93.5565 139.952V163.248H94.5565V139.952H93.5565ZM93.5565 163.248C93.5565 166.909 94.4717 169.863 96.3439 171.906C98.2227 173.955 100.996 175.012 104.553 175.012V174.012C101.197 174.012 98.7223 173.021 97.0811 171.23C95.4333 169.433 94.5565 166.755 94.5565 163.248H93.5565ZM104.553 175.012C108.109 175.012 110.882 173.955 112.761 171.906C114.633 169.863 115.549 166.909 115.549 163.248H114.549C114.549 166.755 113.672 169.433 112.024 171.23C110.383 173.021 107.908 174.012 104.553 174.012V175.012ZM115.549 163.248V149.04H114.549V163.248H115.549ZM115.049 148.54H105.193V149.54H115.049V148.54ZM104.693 149.04V155.44H105.693V149.04H104.693ZM145.044 129.2L145.537 129.121L145.47 128.7H145.044V129.2ZM134.74 129.2V128.7H134.313L134.246 129.121L134.74 129.2ZM127.572 174L127.078 173.921L126.985 174.5H127.572V174ZM134.036 174V174.5H134.466L134.53 174.074L134.036 174ZM135.251 165.872V165.372H134.821L134.757 165.798L135.251 165.872ZM143.891 165.872L144.386 165.798L144.322 165.372H143.891V165.872ZM145.107 174L144.613 174.074L144.677 174.5H145.107V174ZM152.212 174V174.5H152.798L152.705 173.921L152.212 174ZM139.54 137.136L140.034 137.062H139.045L139.54 137.136ZM142.932 159.792V160.292H143.512L143.426 159.718L142.932 159.792ZM136.148 159.792L135.653 159.718L135.567 160.292H136.148V159.792ZM145.044 128.7H134.74V129.7H145.044V128.7ZM134.246 129.121L127.078 173.921L128.065 174.079L135.233 129.279L134.246 129.121ZM127.572 174.5H134.036V173.5H127.572V174.5ZM134.53 174.074L135.746 165.946L134.757 165.798L133.541 173.926L134.53 174.074ZM135.251 166.372H143.891V165.372H135.251V166.372ZM143.397 165.946L144.613 174.074L145.602 173.926L144.386 165.798L143.397 165.946ZM145.107 174.5H152.212V173.5H145.107V174.5ZM152.705 173.921L145.537 129.121L144.55 129.279L151.718 174.079L152.705 173.921ZM139.045 137.21L142.437 159.866L143.426 159.718L140.034 137.062L139.045 137.21ZM142.932 159.292H136.148V160.292H142.932V159.292ZM136.642 159.866L140.034 137.21L139.045 137.062L135.653 159.718L136.642 159.866ZM175.138 129.2L175.632 129.12L175.563 128.7H175.138V129.2ZM165.346 129.2V128.7H164.846V129.2H165.346ZM165.346 174H164.846V174.5H165.346V174ZM171.49 174V174.5H171.99V174H171.49ZM171.49 142.32L171.983 142.238L170.99 142.32H171.49ZM176.738 174L176.245 174.082L176.314 174.5H176.738V174ZM183.394 174V174.5H183.824L183.888 174.075L183.394 174ZM188.258 141.872H188.758L187.764 141.797L188.258 141.872ZM188.258 174H187.758V174.5H188.258V174ZM194.914 174V174.5H195.414V174H194.914ZM194.914 129.2H195.414V128.7H194.914V129.2ZM185.122 129.2V128.7H184.692L184.628 129.125L185.122 129.2ZM180.322 161.008L179.829 161.088L180.816 161.083L180.322 161.008ZM175.138 128.7H165.346V129.7H175.138V128.7ZM164.846 129.2V174H165.846V129.2H164.846ZM165.346 174.5H171.49V173.5H165.346V174.5ZM171.99 174V142.32H170.99V174H171.99ZM170.997 142.402L176.245 174.082L177.231 173.918L171.983 142.238L170.997 142.402ZM176.738 174.5H183.394V173.5H176.738V174.5ZM183.888 174.075L188.752 141.947L187.764 141.797L182.9 173.925L183.888 174.075ZM187.758 141.872V174H188.758V141.872H187.758ZM188.258 174.5H194.914V173.5H188.258V174.5ZM195.414 174V129.2H194.414V174H195.414ZM194.914 128.7H185.122V129.7H194.914V128.7ZM184.628 129.125L179.828 160.933L180.816 161.083L185.616 129.275L184.628 129.125ZM180.815 160.928L175.632 129.12L174.645 129.28L179.829 161.088L180.815 160.928ZM209.955 174H209.455V174.5H209.955V174ZM216.995 174V174.5H217.495V174H216.995ZM216.995 129.2H217.495V128.7H216.995V129.2ZM209.955 129.2V128.7H209.455V129.2H209.955ZM209.955 174.5H216.995V173.5H209.955V174.5ZM217.495 174V129.2H216.495V174H217.495ZM216.995 128.7H209.955V129.7H216.995V128.7ZM209.455 129.2V174H210.455V129.2H209.455ZM251.92 129.2V128.7H251.42V129.2H251.92ZM251.92 174H251.42V174.5H251.92V174ZM258.96 174V174.5H259.46V174H258.96ZM258.96 157.168V156.668H258.46V157.168H258.96ZM258.96 150.768H258.46V151.268H258.96V150.768ZM258.96 135.6V135.1H258.46V135.6H258.96ZM262.288 128.7H251.92V129.7H262.288V128.7ZM251.42 129.2V174H252.42V129.2H251.42ZM251.92 174.5H258.96V173.5H251.92V174.5ZM259.46 174V157.168H258.46V174H259.46ZM258.96 157.668H262.288V156.668H258.96V157.668ZM262.288 157.668C265.899 157.668 268.675 156.665 270.542 154.661C272.403 152.663 273.284 149.753 273.284 146.096H272.284C272.284 149.607 271.437 152.233 269.81 153.979C268.189 155.719 265.717 156.668 262.288 156.668V157.668ZM273.284 146.096V140.272H272.284V146.096H273.284ZM273.284 140.272C273.284 136.615 272.403 133.705 270.542 131.707C268.675 129.703 265.899 128.7 262.288 128.7V129.7C265.717 129.7 268.189 130.649 269.81 132.389C271.437 134.135 272.284 136.761 272.284 140.272H273.284ZM262.288 136.1C263.341 136.1 264.034 136.341 264.483 136.844C264.945 137.364 265.244 138.268 265.244 139.824H266.244C266.244 138.18 265.935 136.972 265.229 136.18C264.51 135.371 263.475 135.1 262.288 135.1V136.1ZM265.244 139.824V146.544H266.244V139.824H265.244ZM265.244 146.544C265.244 148.1 264.945 149.004 264.483 149.524C264.034 150.027 263.341 150.268 262.288 150.268V151.268C263.475 151.268 264.51 150.997 265.229 150.188C265.935 149.396 266.244 148.188 266.244 146.544H265.244ZM262.288 150.268H258.96V151.268H262.288V150.268ZM259.46 150.768V135.6H258.46V150.768H259.46ZM258.96 136.1H262.288V135.1H258.96V136.1ZM286.277 174H285.777V174.5H286.277V174ZM304.901 174V174.5H305.401V174H304.901ZM304.901 167.6H305.401V167.1H304.901V167.6ZM293.318 167.6H292.818V168.1H293.318V167.6ZM293.318 129.2H293.818V128.7H293.318V129.2ZM286.277 129.2V128.7H285.777V129.2H286.277ZM286.277 174.5H304.901V173.5H286.277V174.5ZM305.401 174V167.6H304.401V174H305.401ZM304.901 167.1H293.318V168.1H304.901V167.1ZM293.818 167.6V129.2H292.818V167.6H293.818ZM293.318 128.7H286.277V129.7H293.318V128.7ZM285.777 129.2V174H286.777V129.2H285.777ZM333.501 129.2L333.995 129.121L333.927 128.7H333.501V129.2ZM323.197 129.2V128.7H322.771L322.703 129.121L323.197 129.2ZM316.029 174L315.535 173.921L315.443 174.5H316.029V174ZM322.493 174V174.5H322.924L322.988 174.074L322.493 174ZM323.709 165.872V165.372H323.278L323.215 165.798L323.709 165.872ZM332.349 165.872L332.844 165.798L332.78 165.372H332.349V165.872ZM333.565 174L333.071 174.074L333.134 174.5H333.565V174ZM340.669 174V174.5H341.255L341.163 173.921L340.669 174ZM327.997 137.136L328.492 137.062H327.503L327.997 137.136ZM331.389 159.792V160.292H331.969L331.884 159.718L331.389 159.792ZM324.605 159.792L324.111 159.718L324.025 160.292H324.605V159.792ZM333.501 128.7H323.197V129.7H333.501V128.7ZM322.703 129.121L315.535 173.921L316.523 174.079L323.691 129.279L322.703 129.121ZM316.029 174.5H322.493V173.5H316.029V174.5ZM322.988 174.074L324.204 165.946L323.215 165.798L321.999 173.926L322.988 174.074ZM323.709 166.372H332.349V165.372H323.709V166.372ZM331.855 165.946L333.071 174.074L334.06 173.926L332.844 165.798L331.855 165.946ZM333.565 174.5H340.669V173.5H333.565V174.5ZM341.163 173.921L333.995 129.121L333.007 129.279L340.175 174.079L341.163 173.921ZM327.503 137.21L330.895 159.866L331.884 159.718L328.492 137.062L327.503 137.21ZM331.389 159.292H324.605V160.292H331.389V159.292ZM325.099 159.866L328.492 137.21L327.503 137.062L324.111 159.718L325.099 159.866ZM368.908 174L368.425 174.13L368.525 174.5H368.908V174ZM376.139 174V174.5H376.639V174H376.139ZM376.139 129.2H376.639V128.7H376.139V129.2ZM369.867 129.2V128.7H369.367V129.2H369.867ZM369.867 156.016L369.385 156.146L370.367 156.016H369.867ZM362.635 129.2L363.118 129.07L363.019 128.7H362.635V129.2ZM353.803 129.2V128.7H353.303V129.2H353.803ZM353.803 174H353.303V174.5H353.803V174ZM360.139 174V174.5H360.639V174H360.139ZM360.139 141.552L360.622 141.422L359.639 141.552H360.139ZM368.908 174.5H376.139V173.5H368.908V174.5ZM376.639 174V129.2H375.639V174H376.639ZM376.139 128.7H369.867V129.7H376.139V128.7ZM369.367 129.2V156.016H370.367V129.2H369.367ZM370.35 155.886L363.118 129.07L362.153 129.33L369.385 156.146L370.35 155.886ZM362.635 128.7H353.803V129.7H362.635V128.7ZM353.303 129.2V174H354.303V129.2H353.303ZM353.803 174.5H360.139V173.5H353.803V174.5ZM360.639 174V141.552H359.639V174H360.639ZM359.657 141.682L368.425 174.13L369.39 173.87L360.622 141.422L359.657 141.682ZM389.052 135.6H388.552V136.1H389.052V135.6ZM396.412 135.6H396.912V135.1H396.412V135.6ZM396.412 174H395.912V174.5H396.412V174ZM403.452 174V174.5H403.952V174H403.452ZM403.452 135.6V135.1H402.952V135.6H403.452ZM410.812 135.6V136.1H411.312V135.6H410.812ZM410.812 129.2H411.312V128.7H410.812V129.2ZM389.052 129.2V128.7H388.552V129.2H389.052ZM389.052 136.1H396.412V135.1H389.052V136.1ZM395.912 135.6V174H396.912V135.6H395.912ZM396.412 174.5H403.452V173.5H396.412V174.5ZM403.952 174V135.6H402.952V174H403.952ZM403.452 136.1H410.812V135.1H403.452V136.1ZM411.312 135.6V129.2H410.312V135.6H411.312ZM410.812 128.7H389.052V129.7H410.812V128.7ZM388.552 129.2V135.6H389.552V129.2H388.552ZM1.56 193.2V192.7H1.06V193.2H1.56ZM1.56 238H1.06V238.5H1.56V238ZM8.6 238V238.5H9.1V238H8.6ZM8.6 221.168V220.668H8.1V221.168H8.6ZM8.6 214.768H8.1V215.268H8.6V214.768ZM8.6 199.6V199.1H8.1V199.6H8.6ZM11.928 192.7H1.56V193.7H11.928V192.7ZM1.06 193.2V238H2.06V193.2H1.06ZM1.56 238.5H8.6V237.5H1.56V238.5ZM9.1 238V221.168H8.1V238H9.1ZM8.6 221.668H11.928V220.668H8.6V221.668ZM11.928 221.668C15.5389 221.668 18.315 220.665 20.1818 218.661C22.0428 216.663 22.924 213.753 22.924 210.096H21.924C21.924 213.607 21.0772 216.233 19.4502 217.979C17.829 219.719 15.3571 220.668 11.928 220.668V221.668ZM22.924 210.096V204.272H21.924V210.096H22.924ZM22.924 204.272C22.924 200.615 22.0428 197.705 20.1818 195.707C18.315 193.703 15.5389 192.7 11.928 192.7V193.7C15.3571 193.7 17.829 194.649 19.4502 196.389C21.0772 198.135 21.924 200.761 21.924 204.272H22.924ZM11.928 200.1C12.9808 200.1 13.6741 200.341 14.1225 200.844C14.5849 201.364 14.884 202.268 14.884 203.824H15.884C15.884 202.18 15.5751 200.972 14.8695 200.18C14.1499 199.371 13.1152 199.1 11.928 199.1V200.1ZM14.884 203.824V210.544H15.884V203.824H14.884ZM14.884 210.544C14.884 212.1 14.5849 213.004 14.1225 213.524C13.6741 214.027 12.9808 214.268 11.928 214.268V215.268C13.1152 215.268 14.1499 214.997 14.8695 214.188C15.5751 213.396 15.884 212.188 15.884 210.544H14.884ZM11.928 214.268H8.6V215.268H11.928V214.268ZM9.1 214.768V199.6H8.1V214.768H9.1ZM8.6 200.1H11.928V199.1H8.6V200.1ZM42.8815 203.504C42.8815 201.966 43.2213 201.005 43.7376 200.43C44.2441 199.866 44.9981 199.588 46.0295 199.588V198.588C44.8209 198.588 43.7509 198.918 42.9934 199.762C42.2457 200.595 41.8815 201.842 41.8815 203.504H42.8815ZM46.0295 199.588C47.0609 199.588 47.8149 199.866 48.3214 200.43C48.8377 201.005 49.1775 201.966 49.1775 203.504H50.1775C50.1775 201.842 49.8133 200.595 49.0656 199.762C48.3081 198.918 47.2381 198.588 46.0295 198.588V199.588ZM49.1775 203.504V227.696H50.1775V203.504H49.1775ZM49.1775 227.696C49.1775 229.234 48.8377 230.195 48.3214 230.77C47.8149 231.334 47.0609 231.612 46.0295 231.612V232.612C47.2381 232.612 48.3081 232.282 49.0656 231.438C49.8133 230.605 50.1775 229.358 50.1775 227.696H49.1775ZM46.0295 231.612C44.9981 231.612 44.2441 231.334 43.7376 230.77C43.2213 230.195 42.8815 229.234 42.8815 227.696H41.8815C41.8815 229.358 42.2457 230.605 42.9934 231.438C43.7509 232.282 44.8209 232.612 46.0295 232.612V231.612ZM42.8815 227.696V203.504H41.8815V227.696H42.8815ZM34.8415 227.248C34.8415 230.915 35.808 233.87 37.7295 235.911C39.6553 237.956 42.4739 239.012 46.0295 239.012V238.012C42.6731 238.012 40.1477 237.02 38.4575 235.225C36.763 233.426 35.8415 230.749 35.8415 227.248H34.8415ZM46.0295 239.012C49.5851 239.012 52.4037 237.956 54.3295 235.911C56.2509 233.87 57.2175 230.915 57.2175 227.248H56.2175C56.2175 230.749 55.296 233.426 53.6015 235.225C51.9113 237.02 49.3859 238.012 46.0295 238.012V239.012ZM57.2175 227.248V203.952H56.2175V227.248H57.2175ZM57.2175 203.952C57.2175 200.285 56.2509 197.33 54.3295 195.289C52.4037 193.244 49.5851 192.188 46.0295 192.188V193.188C49.3859 193.188 51.9113 194.18 53.6015 195.975C55.296 197.774 56.2175 200.451 56.2175 203.952H57.2175ZM46.0295 192.188C42.4739 192.188 39.6553 193.244 37.7295 195.289C35.808 197.33 34.8415 200.285 34.8415 203.952H35.8415C35.8415 200.451 36.763 197.774 38.4575 195.975C40.1477 194.18 42.6731 193.188 46.0295 193.188V192.188ZM34.8415 203.952V227.248H35.8415V203.952H34.8415ZM69.1645 199.6H68.6645V200.1H69.1645V199.6ZM76.5245 199.6H77.0245V199.1H76.5245V199.6ZM76.5245 238H76.0245V238.5H76.5245V238ZM83.5645 238V238.5H84.0645V238H83.5645ZM83.5645 199.6V199.1H83.0645V199.6H83.5645ZM90.9245 199.6V200.1H91.4245V199.6H90.9245ZM90.9245 193.2H91.4245V192.7H90.9245V193.2ZM69.1645 193.2V192.7H68.6645V193.2H69.1645ZM69.1645 200.1H76.5245V199.1H69.1645V200.1ZM76.0245 199.6V238H77.0245V199.6H76.0245ZM76.5245 238.5H83.5645V237.5H76.5245V238.5ZM84.0645 238V199.6H83.0645V238H84.0645ZM83.5645 200.1H90.9245V199.1H83.5645V200.1ZM91.4245 199.6V193.2H90.4245V199.6H91.4245ZM90.9245 192.7H69.1645V193.7H90.9245V192.7ZM68.6645 193.2V199.6H69.6645V193.2H68.6645ZM109.513 224.496H110.013V223.996H109.513V224.496ZM102.857 224.496V223.996H102.357V224.496H102.857ZM117.129 205.36H116.629V205.86H117.129V205.36ZM123.785 205.36V205.86H124.285V205.36H123.785ZM102.549 203.952C102.549 210.575 106.132 214.335 109.589 217.535C111.331 219.147 113.007 220.589 114.264 222.205C115.507 223.802 116.309 225.533 116.309 227.696H117.309C117.309 225.251 116.391 223.31 115.054 221.591C113.731 219.891 111.967 218.373 110.269 216.801C106.846 213.633 103.549 210.129 103.549 203.952H102.549ZM116.309 227.696C116.309 229.234 115.969 230.176 115.457 230.734C114.953 231.282 114.2 231.548 113.161 231.548V232.548C114.362 232.548 115.433 232.238 116.193 231.41C116.945 230.592 117.309 229.358 117.309 227.696H116.309ZM113.161 231.548C112.122 231.548 111.369 231.282 110.865 230.734C110.353 230.176 110.013 229.234 110.013 227.696H109.013C109.013 229.358 109.377 230.592 110.129 231.41C110.889 232.238 111.96 232.548 113.161 232.548V231.548ZM110.013 227.696V224.496H109.013V227.696H110.013ZM109.513 223.996H102.857V224.996H109.513V223.996ZM102.357 224.496V227.248H103.357V224.496H102.357ZM102.357 227.248C102.357 230.909 103.272 233.863 105.144 235.906C107.023 237.955 109.797 239.012 113.353 239.012V238.012C109.997 238.012 107.523 237.021 105.882 235.23C104.234 233.433 103.357 230.755 103.357 227.248H102.357ZM113.353 239.012C116.909 239.012 119.683 237.955 121.562 235.906C123.434 233.863 124.349 230.909 124.349 227.248H123.349C123.349 230.755 122.472 233.433 120.824 235.23C119.183 237.021 116.709 238.012 113.353 238.012V239.012ZM124.349 227.248C124.349 220.625 120.766 216.865 117.309 213.665C115.567 212.053 113.891 210.611 112.634 208.995C111.391 207.398 110.589 205.667 110.589 203.504H109.589C109.589 205.949 110.507 207.89 111.844 209.609C113.167 211.309 114.931 212.827 116.629 214.399C120.052 217.567 123.349 221.071 123.349 227.248H124.349ZM110.589 203.504C110.589 201.956 110.901 200.993 111.39 200.42C111.863 199.865 112.579 199.588 113.609 199.588V198.588C112.399 198.588 111.355 198.919 110.628 199.772C109.917 200.607 109.589 201.852 109.589 203.504H110.589ZM113.609 199.588C114.639 199.588 115.355 199.865 115.828 200.42C116.317 200.993 116.629 201.956 116.629 203.504H117.629C117.629 201.852 117.301 200.607 116.59 199.772C115.863 198.919 114.819 198.588 113.609 198.588V199.588ZM116.629 203.504V205.36H117.629V203.504H116.629ZM117.129 205.86H123.785V204.86H117.129V205.86ZM124.285 205.36V203.952H123.285V205.36H124.285ZM124.285 203.952C124.285 200.293 123.387 197.339 121.54 195.297C119.685 193.246 116.943 192.188 113.417 192.188V193.188C116.739 193.188 119.181 194.178 120.798 195.967C122.423 197.765 123.285 200.443 123.285 203.952H124.285ZM113.417 192.188C109.891 192.188 107.149 193.246 105.294 195.297C103.447 197.339 102.549 200.293 102.549 203.952H103.549C103.549 200.443 104.411 197.765 106.036 195.967C107.653 194.178 110.095 193.188 113.417 193.188V192.188Z" fill="#03839E"/>
</svg>
