<svg width="441" height="239" viewBox="0 0 441 239" fill="none" xmlns="http://www.w3.org/2000/svg">
<path d="M157.917 65.2H164.701L167.837 99.632H167.965L171.293 65.2H178.973L182.301 99.632H182.429L185.565 65.2H191.645L187.101 110H178.333L175.133 79.792H175.005L171.805 110H162.461L157.917 65.2ZM209.691 65.2H219.227L226.523 110H219.483L218.203 101.104V101.232H210.203L208.923 110H202.395L209.691 65.2ZM217.371 95.152L214.235 73.008H214.107L211.035 95.152H217.371ZM242.425 71.6H235.065V65.2H256.825V71.6H249.465V110H242.425V71.6ZM270.154 65.2H289.354V71.6H277.194V83.44H286.858V89.84H277.194V103.6H289.354V110H270.154V65.2ZM303.324 65.2H313.756C317.383 65.2 320.028 66.0533 321.692 67.76C323.356 69.424 324.188 72.0053 324.188 75.504V78.256C324.188 82.9067 322.652 85.8507 319.58 87.088V87.216C321.287 87.728 322.481 88.7733 323.164 90.352C323.889 91.9307 324.252 94.0427 324.252 96.688V104.56C324.252 105.84 324.295 106.885 324.38 107.696C324.465 108.464 324.679 109.232 325.02 110H317.852C317.596 109.275 317.425 108.592 317.34 107.952C317.255 107.312 317.212 106.16 317.212 104.496V96.304C317.212 94.256 316.871 92.8267 316.188 92.016C315.548 91.2053 314.417 90.8 312.796 90.8H310.364V110H303.324V65.2ZM312.924 84.4C314.332 84.4 315.377 84.0373 316.06 83.312C316.785 82.5867 317.148 81.3707 317.148 79.664V76.208C317.148 74.5867 316.849 73.4133 316.252 72.688C315.697 71.9627 314.801 71.6 313.564 71.6H310.364V84.4H312.924ZM339.056 65.2H346.096V110H339.056V65.2ZM361.289 65.2H370.121L376.969 92.016H377.097V65.2H383.369V110H376.137L367.689 77.296H367.561V110H361.289V65.2ZM408.505 110.64C405.092 110.64 402.489 109.68 400.697 107.76C398.905 105.797 398.009 103.003 398.009 99.376V75.824C398.009 72.1973 398.905 69.424 400.697 67.504C402.489 65.5413 405.092 64.56 408.505 64.56C411.919 64.56 414.521 65.5413 416.313 67.504C418.105 69.424 419.001 72.1973 419.001 75.824V79.664H412.345V75.376C412.345 72.432 411.129 70.96 408.697 70.96C406.265 70.96 405.049 72.432 405.049 75.376V99.888C405.049 102.789 406.265 104.24 408.697 104.24C411.129 104.24 412.345 102.789 412.345 99.888V91.12H408.825V84.72H419.001V99.376C419.001 103.003 418.105 105.797 416.313 107.76C414.521 109.68 411.919 110.64 408.505 110.64ZM435.745 110H433.441V103.216H440.225V109.296L436.705 117.68H433.441L435.745 110ZM12.1574 174.64C8.70142 174.64 6.05609 173.659 4.22142 171.696C2.38676 169.733 1.46942 166.96 1.46942 163.376V139.824C1.46942 136.24 2.38676 133.467 4.22142 131.504C6.05609 129.541 8.70142 128.56 12.1574 128.56C15.6134 128.56 18.2588 129.541 20.0934 131.504C21.9281 133.467 22.8454 136.24 22.8454 139.824V163.376C22.8454 166.96 21.9281 169.733 20.0934 171.696C18.2588 173.659 15.6134 174.64 12.1574 174.64ZM12.1574 168.24C14.5894 168.24 15.8054 166.768 15.8054 163.824V139.376C15.8054 136.432 14.5894 134.96 12.1574 134.96C9.72542 134.96 8.50942 136.432 8.50942 139.376V163.824C8.50942 166.768 9.72542 168.24 12.1574 168.24ZM37.5264 129.2H47.9584C51.5851 129.2 54.2304 130.053 55.8944 131.76C57.5584 133.424 58.3904 136.005 58.3904 139.504V142.256C58.3904 146.907 56.8544 149.851 53.7824 151.088V151.216C55.4891 151.728 56.6838 152.773 57.3664 154.352C58.0918 155.931 58.4544 158.043 58.4544 160.688V168.56C58.4544 169.84 58.4971 170.885 58.5824 171.696C58.6678 172.464 58.8811 173.232 59.2224 174H52.0544C51.7984 173.275 51.6278 172.592 51.5424 171.952C51.4571 171.312 51.4144 170.16 51.4144 168.496V160.304C51.4144 158.256 51.0731 156.827 50.3904 156.016C49.7504 155.205 48.6198 154.8 46.9984 154.8H44.5664V174H37.5264V129.2ZM47.1264 148.4C48.5344 148.4 49.5798 148.037 50.2624 147.312C50.9878 146.587 51.3504 145.371 51.3504 143.664V140.208C51.3504 138.587 51.0518 137.413 50.4544 136.688C49.8998 135.963 49.0038 135.6 47.7664 135.6H44.5664V148.4H47.1264ZM73.2589 129.2H80.2989V174H73.2589V129.2ZM105.475 174.64C102.062 174.64 99.4594 173.68 97.6674 171.76C95.8754 169.797 94.9794 167.003 94.9794 163.376V139.824C94.9794 136.197 95.8754 133.424 97.6674 131.504C99.4594 129.541 102.062 128.56 105.475 128.56C108.889 128.56 111.491 129.541 113.283 131.504C115.075 133.424 115.971 136.197 115.971 139.824V143.664H109.315V139.376C109.315 136.432 108.099 134.96 105.667 134.96C103.235 134.96 102.019 136.432 102.019 139.376V163.888C102.019 166.789 103.235 168.24 105.667 168.24C108.099 168.24 109.315 166.789 109.315 163.888V155.12H105.795V148.72H115.971V163.376C115.971 167.003 115.075 169.797 113.283 171.76C111.491 173.68 108.889 174.64 105.475 174.64ZM135.851 129.2H145.387L152.683 174H145.643L144.363 165.104V165.232H136.363L135.083 174H128.555L135.851 129.2ZM143.531 159.152L140.395 137.008H140.267L137.195 159.152H143.531ZM166.019 129.2H176.067L180.547 161.264H180.675L185.155 129.2H195.203V174H188.547V140.08H188.419L183.299 174H177.411L172.291 140.08H172.163V174H166.019V129.2ZM210.376 129.2H217.416V174H210.376V129.2ZM1.98142 193.2H12.3494C15.8481 193.2 18.4721 194.139 20.2214 196.016C21.9708 197.893 22.8454 200.645 22.8454 204.272V208.688C22.8454 212.315 21.9708 215.067 20.2214 216.944C18.4721 218.821 15.8481 219.76 12.3494 219.76H9.02142V238H1.98142V193.2ZM12.3494 213.36C13.5014 213.36 14.3548 213.04 14.9094 212.4C15.5068 211.76 15.8054 210.672 15.8054 209.136V203.824C15.8054 202.288 15.5068 201.2 14.9094 200.56C14.3548 199.92 13.5014 199.6 12.3494 199.6H9.02142V213.36H12.3494ZM46.7649 238.64C43.3089 238.64 40.6636 237.659 38.8289 235.696C36.9943 233.733 36.0769 230.96 36.0769 227.376V203.824C36.0769 200.24 36.9943 197.467 38.8289 195.504C40.6636 193.541 43.3089 192.56 46.7649 192.56C50.2209 192.56 52.8663 193.541 54.7009 195.504C56.5356 197.467 57.4529 200.24 57.4529 203.824V227.376C57.4529 230.96 56.5356 233.733 54.7009 235.696C52.8663 237.659 50.2209 238.64 46.7649 238.64ZM46.7649 232.24C49.1969 232.24 50.4129 230.768 50.4129 227.824V203.376C50.4129 200.432 49.1969 198.96 46.7649 198.96C44.3329 198.96 43.1169 200.432 43.1169 203.376V227.824C43.1169 230.768 44.3329 232.24 46.7649 232.24ZM77.3879 199.6H70.0279V193.2H91.7879V199.6H84.4279V238H77.3879V199.6ZM114.268 238.64C110.855 238.64 108.274 237.68 106.524 235.76C104.775 233.797 103.9 231.003 103.9 227.376V224.816H110.556V227.888C110.556 230.789 111.772 232.24 114.204 232.24C115.399 232.24 116.295 231.899 116.892 231.216C117.532 230.491 117.852 229.339 117.852 227.76C117.852 225.883 117.426 224.24 116.572 222.832C115.719 221.381 114.14 219.653 111.836 217.648C108.935 215.088 106.908 212.784 105.756 210.736C104.604 208.645 104.028 206.299 104.028 203.696C104.028 200.155 104.924 197.424 106.716 195.504C108.508 193.541 111.111 192.56 114.524 192.56C117.895 192.56 120.434 193.541 122.14 195.504C123.89 197.424 124.764 200.197 124.764 203.824V205.68H118.108V203.376C118.108 201.84 117.81 200.731 117.212 200.048C116.615 199.323 115.74 198.96 114.588 198.96C112.242 198.96 111.068 200.389 111.068 203.248C111.068 204.869 111.495 206.384 112.348 207.792C113.244 209.2 114.844 210.907 117.148 212.912C120.092 215.472 122.119 217.797 123.228 219.888C124.338 221.979 124.892 224.432 124.892 227.248C124.892 230.917 123.975 233.733 122.14 235.696C120.348 237.659 117.724 238.64 114.268 238.64Z" fill="#03839E"/>
<path d="M1.98142 1.2V0.699997H1.48142V1.2H1.98142ZM20.2214 4.016L19.8556 4.35686V4.35686L20.2214 4.016ZM20.2214 24.944L19.8556 24.6031L20.2214 24.944ZM9.02142 27.76V27.26H8.52142V27.76H9.02142ZM9.02142 46V46.5H9.52142V46H9.02142ZM1.98142 46H1.48142V46.5H1.98142V46ZM14.9094 20.4L14.5439 20.0588L14.5376 20.0656L14.5316 20.0725L14.9094 20.4ZM14.9094 8.56L14.5316 8.88746L14.5376 8.89442L14.5439 8.90116L14.9094 8.56ZM9.02142 7.6V7.1H8.52142V7.6H9.02142ZM9.02142 21.36H8.52142V21.86H9.02142V21.36ZM1.98142 1.7H12.3494V0.699997H1.98142V1.7ZM12.3494 1.7C15.7616 1.7 18.2314 2.6138 19.8556 4.35686L20.5872 3.67514C18.7128 1.66353 15.9346 0.699997 12.3494 0.699997V1.7ZM19.8556 4.35686C21.4887 6.10939 22.3454 8.71951 22.3454 12.272H23.3454C23.3454 8.57115 22.4529 5.67727 20.5872 3.67514L19.8556 4.35686ZM22.3454 12.272V16.688H23.3454V12.272H22.3454ZM22.3454 16.688C22.3454 20.2405 21.4887 22.8506 19.8556 24.6031L20.5872 25.2849C22.4529 23.2827 23.3454 20.3888 23.3454 16.688H22.3454ZM19.8556 24.6031C18.2314 26.3462 15.7616 27.26 12.3494 27.26V28.26C15.9346 28.26 18.7128 27.2965 20.5872 25.2849L19.8556 24.6031ZM12.3494 27.26H9.02142V28.26H12.3494V27.26ZM8.52142 27.76V46H9.52142V27.76H8.52142ZM9.02142 45.5H1.98142V46.5H9.02142V45.5ZM2.48142 46V1.2H1.48142V46H2.48142ZM12.3494 21.86C13.5916 21.86 14.6068 21.5126 15.2873 20.7275L14.5316 20.0725C14.1027 20.5674 13.4113 20.86 12.3494 20.86V21.86ZM15.275 20.7412C16.004 19.96 16.3054 18.7112 16.3054 17.136H15.3054C15.3054 18.6328 15.0095 19.56 14.5439 20.0588L15.275 20.7412ZM16.3054 17.136V11.824H15.3054V17.136H16.3054ZM16.3054 11.824C16.3054 10.2488 16.004 8.99998 15.275 8.21884L14.5439 8.90116C15.0095 9.40001 15.3054 10.3272 15.3054 11.824H16.3054ZM15.2873 8.23253C14.6068 7.44738 13.5916 7.1 12.3494 7.1V8.1C13.4113 8.1 14.1027 8.39262 14.5316 8.88746L15.2873 8.23253ZM12.3494 7.1H9.02142V8.1H12.3494V7.1ZM8.52142 7.6V21.36H9.52142V7.6H8.52142ZM9.02142 21.86H12.3494V20.86H9.02142V21.86ZM38.8289 43.696L39.1942 43.3546L38.8289 43.696ZM38.8289 3.504L39.1942 3.84544L38.8289 3.504ZM54.7009 3.504L54.3357 3.84544L54.7009 3.504ZM54.7009 43.696L54.3357 43.3546L54.7009 43.696ZM46.7649 46.14C43.4055 46.14 40.909 45.1891 39.1942 43.3546L38.4637 44.0374C40.4181 46.1283 43.2124 47.14 46.7649 47.14V46.14ZM39.1942 43.3546C37.4717 41.5119 36.5769 38.8765 36.5769 35.376H35.5769C35.5769 39.0435 36.5168 41.9548 38.4637 44.0374L39.1942 43.3546ZM36.5769 35.376V11.824H35.5769V35.376H36.5769ZM36.5769 11.824C36.5769 8.32348 37.4717 5.68808 39.1942 3.84544L38.4637 3.16256C36.5168 5.24525 35.5769 8.15651 35.5769 11.824H36.5769ZM39.1942 3.84544C40.909 2.01094 43.4055 1.06 46.7649 1.06V0.0599976C43.2124 0.0599976 40.4181 1.07172 38.4637 3.16256L39.1942 3.84544ZM46.7649 1.06C50.1244 1.06 52.6208 2.01094 54.3357 3.84544L55.0662 3.16256C53.1117 1.07172 50.3175 0.0599976 46.7649 0.0599976V1.06ZM54.3357 3.84544C56.0581 5.68808 56.9529 8.32348 56.9529 11.824H57.9529C57.9529 8.15651 57.013 5.24525 55.0662 3.16256L54.3357 3.84544ZM56.9529 11.824V35.376H57.9529V11.824H56.9529ZM56.9529 35.376C56.9529 38.8765 56.0581 41.5119 54.3357 43.3546L55.0662 44.0374C57.013 41.9548 57.9529 39.0435 57.9529 35.376H56.9529ZM54.3357 43.3546C52.6208 45.1891 50.1244 46.14 46.7649 46.14V47.14C50.3175 47.14 53.1117 46.1283 55.0662 44.0374L54.3357 43.3546ZM46.7649 40.74C48.0858 40.74 49.1584 40.3357 49.8864 39.4544C50.5992 38.5915 50.9129 37.3523 50.9129 35.824H49.9129C49.9129 37.2397 49.6186 38.2085 49.1154 38.8176C48.6274 39.4083 47.876 39.74 46.7649 39.74V40.74ZM50.9129 35.824V11.376H49.9129V35.824H50.9129ZM50.9129 11.376C50.9129 9.84769 50.5992 8.60848 49.8864 7.74556C49.1584 6.86435 48.0858 6.46 46.7649 6.46V7.46C47.876 7.46 48.6274 7.79165 49.1154 8.38244C49.6186 8.99152 49.9129 9.96031 49.9129 11.376H50.9129ZM46.7649 6.46C45.444 6.46 44.3714 6.86435 43.6434 7.74556C42.9306 8.60848 42.6169 9.84769 42.6169 11.376H43.6169C43.6169 9.96031 43.9112 8.99152 44.4144 8.38244C44.9024 7.79165 45.6538 7.46 46.7649 7.46V6.46ZM42.6169 11.376V35.824H43.6169V11.376H42.6169ZM42.6169 35.824C42.6169 37.3523 42.9306 38.5915 43.6434 39.4544C44.3714 40.3357 45.444 40.74 46.7649 40.74V39.74C45.6538 39.74 44.9024 39.4083 44.4144 38.8176C43.9112 38.2085 43.6169 37.2397 43.6169 35.824H42.6169ZM77.3879 7.6H77.8879V7.1H77.3879V7.6ZM70.0279 7.6H69.5279V8.1H70.0279V7.6ZM70.0279 1.2V0.699997H69.5279V1.2H70.0279ZM91.7879 1.2H92.2879V0.699997H91.7879V1.2ZM91.7879 7.6V8.1H92.2879V7.6H91.7879ZM84.4279 7.6V7.1H83.9279V7.6H84.4279ZM84.4279 46V46.5H84.9279V46H84.4279ZM77.3879 46H76.8879V46.5H77.3879V46ZM77.3879 7.1H70.0279V8.1H77.3879V7.1ZM70.5279 7.6V1.2H69.5279V7.6H70.5279ZM70.0279 1.7H91.7879V0.699997H70.0279V1.7ZM91.2879 1.2V7.6H92.2879V1.2H91.2879ZM91.7879 7.1H84.4279V8.1H91.7879V7.1ZM83.9279 7.6V46H84.9279V7.6H83.9279ZM84.4279 45.5H77.3879V46.5H84.4279V45.5ZM77.8879 46V7.6H76.8879V46H77.8879ZM105.116 1.2V0.699997H104.616V1.2H105.116ZM123.484 3.76L123.126 4.10908L123.131 4.11355L123.484 3.76ZM121.372 23.088L121.186 22.6242L120.872 22.7504V23.088H121.372ZM121.372 23.216H120.872V23.588L121.229 23.6949L121.372 23.216ZM124.956 26.352L124.497 26.5505L124.502 26.5607L124.956 26.352ZM126.172 43.696L125.675 43.7483L125.675 43.7512L126.172 43.696ZM126.812 46V46.5H127.582L127.269 45.7969L126.812 46ZM119.644 46L119.173 46.1664L119.291 46.5H119.644V46ZM117.98 28.016L117.588 28.3258L117.593 28.332L117.598 28.3381L117.98 28.016ZM112.156 26.8V26.3H111.656V26.8H112.156ZM112.156 46V46.5H112.656V46H112.156ZM105.116 46H104.616V46.5H105.116V46ZM117.852 19.312L117.499 18.9584L117.494 18.9638L117.488 18.9693L117.852 19.312ZM118.044 8.688L117.647 8.99172L117.653 8.99889L117.658 9.00585L118.044 8.688ZM112.156 7.6V7.1H111.656V7.6H112.156ZM112.156 20.4H111.656V20.9H112.156V20.4ZM105.116 1.7H115.548V0.699997H105.116V1.7ZM115.548 1.7C119.11 1.7 121.596 2.53926 123.126 4.10905L123.842 3.41095C122.045 1.5674 119.241 0.699997 115.548 0.699997V1.7ZM123.131 4.11355C124.664 5.64658 125.48 8.07393 125.48 11.504H126.48C126.48 7.93673 125.633 5.20142 123.838 3.40644L123.131 4.11355ZM125.48 11.504V14.256H126.48V11.504H125.48ZM125.48 14.256C125.48 16.5312 125.104 18.3429 124.385 19.7207C123.672 21.0875 122.611 22.0502 121.186 22.6242L121.559 23.5518C123.206 22.8885 124.449 21.7605 125.272 20.1833C126.089 18.6171 126.48 16.6315 126.48 14.256H125.48ZM120.872 23.088V23.216H121.872V23.088H120.872ZM121.229 23.6949C122.8 24.1663 123.876 25.1127 124.497 26.5505L125.415 26.1535C124.672 24.434 123.358 23.2897 121.516 22.7371L121.229 23.6949ZM124.502 26.5607C125.186 28.0488 125.544 30.0806 125.544 32.688H126.544C126.544 30.0047 126.178 27.8126 125.411 26.1432L124.502 26.5607ZM125.544 32.688V40.56H126.544V32.688H125.544ZM125.544 40.56C125.544 41.8488 125.587 42.9134 125.675 43.7483L126.67 43.6437C126.587 42.8573 126.544 41.8312 126.544 40.56H125.544ZM125.675 43.7512C125.767 44.5745 125.995 45.3922 126.356 46.2031L127.269 45.7969C126.947 45.0718 126.749 44.3535 126.669 43.6408L125.675 43.7512ZM126.812 45.5H119.644V46.5H126.812V45.5ZM120.116 45.8336C119.869 45.1348 119.708 44.486 119.628 43.8859L118.637 44.0181C118.727 44.698 118.908 45.4145 119.173 46.1664L120.116 45.8336ZM119.628 43.8859C119.548 43.2829 119.504 42.1618 119.504 40.496H118.504C118.504 42.1582 118.547 43.3411 118.637 44.0181L119.628 43.8859ZM119.504 40.496V32.304H118.504V40.496H119.504ZM119.504 32.304C119.504 30.2329 119.166 28.6474 118.363 27.6939L117.598 28.3381C118.16 29.0059 118.504 30.2791 118.504 32.304H119.504ZM118.373 27.7062C117.594 26.7202 116.275 26.3 114.588 26.3V27.3C116.145 27.3 117.086 27.6905 117.588 28.3258L118.373 27.7062ZM114.588 26.3H112.156V27.3H114.588V26.3ZM111.656 26.8V46H112.656V26.8H111.656ZM112.156 45.5H105.116V46.5H112.156V45.5ZM105.616 46V1.2H104.616V46H105.616ZM114.716 20.9C116.204 20.9 117.406 20.5161 118.217 19.6547L117.488 18.9693C116.934 19.5586 116.045 19.9 114.716 19.9V20.9ZM118.206 19.6656C119.071 18.8006 119.44 17.42 119.44 15.664H118.44C118.44 17.3214 118.085 18.3728 117.499 18.9584L118.206 19.6656ZM119.44 15.664V12.208H118.44V15.664H119.44ZM119.44 12.208C119.44 10.547 119.139 9.23007 118.43 8.37015L117.658 9.00585C118.145 9.59659 118.44 10.6264 118.44 12.208H119.44ZM118.442 8.38427C117.761 7.49465 116.69 7.1 115.356 7.1V8.1C116.497 8.1 117.218 8.43069 117.647 8.99172L118.442 8.38427ZM115.356 7.1H112.156V8.1H115.356V7.1ZM111.656 7.6V20.4H112.656V7.6H111.656ZM112.156 20.9H114.716V19.9H112.156V20.9ZM159.163 25.52L158.731 25.2676L158.507 25.6514L158.862 25.9192L159.163 25.52ZM162.811 20.656L163.142 21.0305L163.143 21.0297L162.811 20.656ZM168.955 19.504L169.141 19.0398L168.955 19.504ZM171.643 20.976L171.909 20.5529L171.643 20.976ZM174.011 22.448L173.754 22.8767L173.778 22.8914L173.804 22.9032L174.011 22.448ZM177.275 22L177.628 22.3536L177.636 22.3465L177.642 22.3391L177.275 22ZM179.579 18.928L179.88 18.5288L179.462 18.2138L179.167 18.6452L179.579 18.928ZM183.227 21.68L183.659 21.9324L183.883 21.5486L183.528 21.2808L183.227 21.68ZM179.515 26.608L179.846 26.9825L179.847 26.9817L179.515 26.608ZM173.435 27.696L173.621 27.2318L173.435 27.696ZM170.747 26.224L170.481 26.6471L170.747 26.224ZM168.315 24.816L168.058 25.2447L168.082 25.2594L168.108 25.2712L168.315 24.816ZM165.115 25.264L165.468 25.6176L165.476 25.6105L165.482 25.6031L165.115 25.264ZM162.811 28.272L162.51 28.6712L162.927 28.9862L163.223 28.5548L162.811 28.272ZM159.595 25.7724C160.908 23.5274 162.092 21.9596 163.142 21.0305L162.48 20.2815C161.311 21.315 160.064 22.9899 158.731 25.2676L159.595 25.7724ZM163.143 21.0297C164.201 20.0892 165.447 19.62 166.907 19.62V18.62C165.209 18.62 163.725 19.1748 162.479 20.2823L163.143 21.0297ZM166.907 19.62C167.572 19.62 168.191 19.7371 168.769 19.9682L169.141 19.0398C168.439 18.7589 167.693 18.62 166.907 18.62V19.62ZM168.769 19.9682C169.366 20.2068 170.23 20.6775 171.377 21.3991L171.909 20.5529C170.751 19.8238 169.824 19.3132 169.141 19.0398L168.769 19.9682ZM171.377 21.3991C172.528 22.1242 173.322 22.6176 173.754 22.8767L174.268 22.0193C173.847 21.7664 173.062 21.2785 171.909 20.5529L171.377 21.3991ZM173.804 22.9032C174.332 23.1431 174.871 23.268 175.419 23.268V22.268C175.028 22.268 174.629 22.1796 174.218 21.9928L173.804 22.9032ZM175.419 23.268C176.277 23.268 177.023 22.9595 177.628 22.3536L176.921 21.6464C176.503 22.0645 176.012 22.268 175.419 22.268V23.268ZM177.642 22.3391C178.181 21.7552 178.967 20.7042 179.991 19.2108L179.167 18.6452C178.143 20.1385 177.392 21.1355 176.908 21.6609L177.642 22.3391ZM179.278 19.3272L182.926 22.0792L183.528 21.2808L179.88 18.5288L179.278 19.3272ZM182.795 21.4276C181.483 23.6706 180.277 25.2613 179.183 26.2343L179.847 26.9817C181.056 25.9067 182.325 24.2121 183.659 21.9324L182.795 21.4276ZM179.184 26.2335C178.172 27.1284 176.948 27.58 175.483 27.58V28.58C177.175 28.58 178.639 28.0503 179.846 26.9825L179.184 26.2335ZM175.483 27.58C174.818 27.58 174.199 27.4629 173.621 27.2318L173.249 28.1602C173.951 28.4411 174.697 28.58 175.483 28.58V27.58ZM173.621 27.2318C173.024 26.9932 172.159 26.5225 171.013 25.8009L170.481 26.6471C171.638 27.3762 172.566 27.8868 173.249 28.1602L173.621 27.2318ZM171.013 25.8009C169.863 25.0768 169.026 24.59 168.522 24.3608L168.108 25.2712C168.542 25.4686 169.326 25.9205 170.481 26.6471L171.013 25.8009ZM168.572 24.3873C168.073 24.0875 167.536 23.932 166.971 23.932V24.932C167.344 24.932 167.704 25.0324 168.058 25.2447L168.572 24.3873ZM166.971 23.932C166.1 23.932 165.35 24.2724 164.748 24.9249L165.482 25.6031C165.904 25.1463 166.391 24.932 166.971 24.932V23.932ZM164.761 24.9104C164.213 25.4589 163.422 26.4971 162.399 27.9892L163.223 28.5548C164.248 27.0602 164.993 26.0931 165.468 25.6176L164.761 24.9104ZM163.112 27.8728L159.464 25.1208L158.862 25.9192L162.51 28.6712L163.112 27.8728ZM216.734 1.2V0.699997H216.234V1.2H216.734ZM235.934 1.2H236.434V0.699997H235.934V1.2ZM235.934 7.6V8.1H236.434V7.6H235.934ZM223.774 7.6V7.1H223.274V7.6H223.774ZM223.774 19.44H223.274V19.94H223.774V19.44ZM233.438 19.44H233.938V18.94H233.438V19.44ZM233.438 25.84V26.34H233.938V25.84H233.438ZM223.774 25.84V25.34H223.274V25.84H223.774ZM223.774 39.6H223.274V40.1H223.774V39.6ZM235.934 39.6H236.434V39.1H235.934V39.6ZM235.934 46V46.5H236.434V46H235.934ZM216.734 46H216.234V46.5H216.734V46ZM216.734 1.7H235.934V0.699997H216.734V1.7ZM235.434 1.2V7.6H236.434V1.2H235.434ZM235.934 7.1H223.774V8.1H235.934V7.1ZM223.274 7.6V19.44H224.274V7.6H223.274ZM223.774 19.94H233.438V18.94H223.774V19.94ZM232.938 19.44V25.84H233.938V19.44H232.938ZM233.438 25.34H223.774V26.34H233.438V25.34ZM223.274 25.84V39.6H224.274V25.84H223.274ZM223.774 40.1H235.934V39.1H223.774V40.1ZM235.434 39.6V46H236.434V39.6H235.434ZM235.934 45.5H216.734V46.5H235.934V45.5ZM217.234 46V1.2H216.234V46H217.234ZM252.08 43.76L251.71 44.0968L251.714 44.1012L252.08 43.76ZM252.08 3.44L251.714 3.09881L251.71 3.10325L252.08 3.44ZM267.504 3.44L267.134 3.77677L267.138 3.78116L267.504 3.44ZM270.192 16.304V16.804H270.692V16.304H270.192ZM263.536 16.304H263.036V16.804H263.536V16.304ZM263.536 29.296V28.796H263.036V29.296H263.536ZM270.192 29.296H270.692V28.796H270.192V29.296ZM267.504 43.76L267.138 43.4188L267.134 43.4233L267.504 43.76ZM259.824 46.14C256.55 46.14 254.118 45.2107 252.445 43.4188L251.714 44.1012C253.626 46.1493 256.356 47.14 259.824 47.14V46.14ZM252.45 43.4233C250.81 41.6233 249.956 39.05 249.956 35.632H248.956C248.956 39.2114 249.852 42.0567 251.71 44.0967L252.45 43.4233ZM249.956 35.632V11.568H248.956V35.632H249.956ZM249.956 11.568C249.956 8.15003 250.81 5.57669 252.45 3.77674L251.71 3.10325C249.852 5.14331 248.956 7.98864 248.956 11.568H249.956ZM252.445 3.78116C254.118 1.98932 256.55 1.06 259.824 1.06V0.0599976C256.356 0.0599976 253.626 1.05068 251.714 3.09884L252.445 3.78116ZM259.824 1.06C263.098 1.06 265.506 1.98952 267.134 3.77674L267.874 3.10325C266.003 1.05047 263.291 0.0599976 259.824 0.0599976V1.06ZM267.138 3.78116C268.819 5.5813 269.692 8.15296 269.692 11.568H270.692C270.692 7.98571 269.773 5.1387 267.869 3.09884L267.138 3.78116ZM269.692 11.568V16.304H270.692V11.568H269.692ZM270.192 15.804H263.536V16.804H270.192V15.804ZM264.036 16.304V11.12H263.036V16.304H264.036ZM264.036 11.12C264.036 9.67476 263.732 8.49761 263.038 7.67703C262.33 6.84044 261.29 6.46 260.016 6.46V7.46C261.088 7.46 261.809 7.77289 262.274 8.32297C262.753 8.88905 263.036 9.7919 263.036 11.12H264.036ZM260.016 6.46C258.742 6.46 257.702 6.84044 256.994 7.67703C256.3 8.49761 255.996 9.67476 255.996 11.12H256.996C256.996 9.7919 257.279 8.88905 257.758 8.32297C258.223 7.77289 258.944 7.46 260.016 7.46V6.46ZM255.996 11.12V36.144H256.996V11.12H255.996ZM255.996 36.144C255.996 37.5694 256.301 38.7318 256.997 39.5419C257.705 40.3665 258.744 40.74 260.016 40.74V39.74C258.941 39.74 258.22 39.4309 257.755 38.8901C257.278 38.3349 256.996 37.4492 256.996 36.144H255.996ZM260.016 40.74C261.288 40.74 262.327 40.3665 263.035 39.5419C263.731 38.7318 264.036 37.5694 264.036 36.144H263.036C263.036 37.4492 262.754 38.3349 262.277 38.8901C261.812 39.4309 261.091 39.74 260.016 39.74V40.74ZM264.036 36.144V29.296H263.036V36.144H264.036ZM263.536 29.796H270.192V28.796H263.536V29.796ZM269.692 29.296V35.632H270.692V29.296H269.692ZM269.692 35.632C269.692 39.047 268.819 41.6187 267.138 43.4188L267.869 44.1012C269.773 42.0613 270.692 39.2143 270.692 35.632H269.692ZM267.134 43.4233C265.506 45.2105 263.098 46.14 259.824 46.14V47.14C263.291 47.14 266.003 46.1495 267.874 44.0967L267.134 43.4233ZM286.689 43.696L287.054 43.3546L286.689 43.696ZM286.689 3.504L287.054 3.84544L286.689 3.504ZM302.561 3.504L302.196 3.84544L302.561 3.504ZM302.561 43.696L302.196 43.3546L302.561 43.696ZM294.625 46.14C291.265 46.14 288.769 45.1891 287.054 43.3546L286.324 44.0374C288.278 46.1283 291.072 47.14 294.625 47.14V46.14ZM287.054 43.3546C285.332 41.5119 284.437 38.8765 284.437 35.376H283.437C283.437 39.0435 284.377 41.9548 286.324 44.0374L287.054 43.3546ZM284.437 35.376V11.824H283.437V35.376H284.437ZM284.437 11.824C284.437 8.32348 285.332 5.68808 287.054 3.84544L286.324 3.16256C284.377 5.24525 283.437 8.15651 283.437 11.824H284.437ZM287.054 3.84544C288.769 2.01094 291.265 1.06 294.625 1.06V0.0599976C291.072 0.0599976 288.278 1.07172 286.324 3.16256L287.054 3.84544ZM294.625 1.06C297.984 1.06 300.481 2.01094 302.196 3.84544L302.926 3.16256C300.972 1.07172 298.177 0.0599976 294.625 0.0599976V1.06ZM302.196 3.84544C303.918 5.68808 304.813 8.32348 304.813 11.824H305.813C305.813 8.15651 304.873 5.24525 302.926 3.16256L302.196 3.84544ZM304.813 11.824V35.376H305.813V11.824H304.813ZM304.813 35.376C304.813 38.8765 303.918 41.5119 302.196 43.3546L302.926 44.0374C304.873 41.9548 305.813 39.0435 305.813 35.376H304.813ZM302.196 43.3546C300.481 45.1891 297.984 46.14 294.625 46.14V47.14C298.177 47.14 300.972 46.1283 302.926 44.0374L302.196 43.3546ZM294.625 40.74C295.946 40.74 297.018 40.3357 297.746 39.4544C298.459 38.5915 298.773 37.3523 298.773 35.824H297.773C297.773 37.2397 297.479 38.2085 296.975 38.8176C296.487 39.4083 295.736 39.74 294.625 39.74V40.74ZM298.773 35.824V11.376H297.773V35.824H298.773ZM298.773 11.376C298.773 9.84769 298.459 8.60848 297.746 7.74556C297.018 6.86435 295.946 6.46 294.625 6.46V7.46C295.736 7.46 296.487 7.79165 296.975 8.38244C297.479 8.99152 297.773 9.96031 297.773 11.376H298.773ZM294.625 6.46C293.304 6.46 292.231 6.86435 291.503 7.74556C290.791 8.60848 290.477 9.84769 290.477 11.376H291.477C291.477 9.96031 291.771 8.99152 292.274 8.38244C292.762 7.79165 293.514 7.46 294.625 7.46V6.46ZM290.477 11.376V35.824H291.477V11.376H290.477ZM290.477 35.824C290.477 37.3523 290.791 38.5915 291.503 39.4544C292.231 40.3357 293.304 40.74 294.625 40.74V39.74C293.514 39.74 292.762 39.4083 292.274 38.8176C291.771 38.2085 291.477 37.2397 291.477 35.824H290.477ZM321.923 46L322.402 46.1437L322.595 45.5H321.923V46ZM319.619 46H319.119V46.5H319.619V46ZM319.619 39.216V38.716H319.119V39.216H319.619ZM326.403 39.216H326.903V38.716H326.403V39.216ZM326.403 45.296L326.864 45.4896L326.903 45.3967V45.296H326.403ZM322.883 53.68V54.18H323.215L323.344 53.8736L322.883 53.68ZM319.619 53.68L319.14 53.5363L318.947 54.18H319.619V53.68ZM321.923 45.5H319.619V46.5H321.923V45.5ZM320.119 46V39.216H319.119V46H320.119ZM319.619 39.716H326.403V38.716H319.619V39.716ZM325.903 39.216V45.296H326.903V39.216H325.903ZM325.942 45.1024L322.422 53.4864L323.344 53.8736L326.864 45.4896L325.942 45.1024ZM322.883 53.18H319.619V54.18H322.883V53.18ZM320.098 53.8237L322.402 46.1437L321.444 45.8563L319.14 53.5363L320.098 53.8237ZM3.38942 107.76L3.01614 108.093L3.01982 108.097L3.38942 107.76ZM0.765422 96.816V96.316H0.265422V96.816H0.765422ZM7.42142 96.816H7.92142V96.316H7.42142V96.816ZM13.7574 103.216L13.3825 102.885L13.3811 102.887L13.7574 103.216ZM13.4374 94.832L13.0064 95.0855L13.0098 95.0911L13.4374 94.832ZM8.70142 89.648L8.3706 90.0229L8.37316 90.0252L8.70142 89.648ZM2.62142 82.736L2.18349 82.9773L2.18563 82.9811L2.62142 82.736ZM3.58142 67.504L3.94697 67.8452L3.95066 67.8411L3.58142 67.504ZM19.0054 67.504L18.628 67.8322L18.6358 67.8407L19.0054 67.504ZM21.6294 77.68V78.18H22.1294V77.68H21.6294ZM14.9734 77.68H14.4734V78.18H14.9734V77.68ZM14.0774 72.048L13.6915 72.3659L13.6962 72.3716L13.7011 72.3773L14.0774 72.048ZM9.21342 79.792L8.78572 80.0512L8.79159 80.0604L9.21342 79.792ZM14.0134 84.912L13.6852 85.2892L13.6853 85.2893L14.0134 84.912ZM20.0934 91.888L19.6517 92.1224L20.0934 91.888ZM19.0054 107.696L18.6401 107.355L18.6362 107.359L19.0054 107.696ZM11.1334 110.14C7.81419 110.14 5.38622 109.209 3.75902 107.423L3.01982 108.097C4.89129 110.151 7.62599 111.14 11.1334 111.14V110.14ZM3.76268 107.427C2.12147 105.586 1.26542 102.927 1.26542 99.376H0.265422C0.265422 103.079 1.15871 106.009 3.01617 108.093L3.76268 107.427ZM1.26542 99.376V96.816H0.265422V99.376H1.26542ZM0.765422 97.316H7.42142V96.316H0.765422V97.316ZM6.92142 96.816V99.888H7.92142V96.816H6.92142ZM6.92142 99.888C6.92142 101.396 7.23567 102.621 7.95024 103.473C8.67897 104.343 9.75091 104.74 11.0694 104.74V103.74C9.95593 103.74 9.20387 103.412 8.71661 102.831C8.21517 102.233 7.92142 101.281 7.92142 99.888H6.92142ZM11.0694 104.74C12.3598 104.74 13.4136 104.368 14.1337 103.545L13.3811 102.887C12.9066 103.429 12.1684 103.74 11.0694 103.74V104.74ZM14.1323 103.547C14.8905 102.688 15.2174 101.388 15.2174 99.76H14.2174C14.2174 101.289 13.9044 102.294 13.3825 102.885L14.1323 103.547ZM15.2174 99.76C15.2174 97.8044 14.7721 96.0695 13.865 94.5728L13.0098 95.0911C13.8094 96.4105 14.2174 97.961 14.2174 99.76H15.2174ZM13.8684 94.5785C12.9739 93.0579 11.3469 91.2877 9.02969 89.2708L8.37316 90.0252C10.6639 92.019 12.1943 93.7048 13.0065 95.0855L13.8684 94.5785ZM9.03223 89.2731C6.1494 86.7294 4.16971 84.4686 3.05721 82.4909L2.18563 82.9811C3.37713 85.0993 5.45077 87.4466 8.37061 90.0229L9.03223 89.2731ZM3.05934 82.4947C1.95168 80.4845 1.39342 78.2221 1.39342 75.696H0.393422C0.393422 78.3752 0.987165 80.8062 2.1835 82.9773L3.05934 82.4947ZM1.39342 75.696C1.39342 72.2364 2.26779 69.6443 3.94695 67.8452L3.21589 67.1628C1.31105 69.2037 0.393422 72.073 0.393422 75.696H1.39342ZM3.95066 67.8411C5.62268 66.0099 8.07416 65.06 11.3894 65.06V64.06C7.87802 64.06 5.12417 65.0728 3.21218 67.1669L3.95066 67.8411ZM11.3894 65.06C14.6611 65.06 17.0428 66.0089 18.6281 67.8321L19.3827 67.1759C17.5547 65.0737 14.8591 64.06 11.3894 64.06V65.06ZM18.6358 67.8407C20.273 69.6377 21.1294 72.2724 21.1294 75.824H22.1294C22.1294 72.1222 21.2365 69.2103 19.375 67.1673L18.6358 67.8407ZM21.1294 75.824V77.68H22.1294V75.824H21.1294ZM21.6294 77.18H14.9734V78.18H21.6294V77.18ZM15.4734 77.68V75.376H14.4734V77.68H15.4734ZM15.4734 75.376C15.4734 73.7962 15.1701 72.5375 14.4537 71.7187L13.7011 72.3773C14.1794 72.9238 14.4734 73.8837 14.4734 75.376H15.4734ZM14.4634 71.7301C13.7498 70.8636 12.7178 70.46 11.4534 70.46V71.46C12.4931 71.46 13.2104 71.7817 13.6915 72.3659L14.4634 71.7301ZM11.4534 70.46C10.1741 70.46 9.13324 70.8544 8.42696 71.7148C7.73619 72.5562 7.43342 73.7629 7.43342 75.248H8.43342C8.43342 73.8744 8.71732 72.9371 9.19989 72.3492C9.66694 71.7803 10.3861 71.46 11.4534 71.46V70.46ZM7.43342 75.248C7.43342 76.9622 7.8859 78.5663 8.78582 80.0511L9.64102 79.5328C8.83428 78.2017 8.43342 76.7765 8.43342 75.248H7.43342ZM8.79159 80.0604C9.7265 81.5296 11.3697 83.2738 13.6852 85.2892L14.3417 84.5348C12.0492 82.5395 10.4923 80.8704 9.63525 79.5236L8.79159 80.0604ZM13.6853 85.2893C16.6091 87.8317 18.5839 90.1098 19.6517 92.1224L20.5351 91.6536C19.3843 89.4849 17.3057 87.1123 14.3415 84.5347L13.6853 85.2893ZM19.6517 92.1224C20.7161 94.1283 21.2574 96.4983 21.2574 99.248H22.2574C22.2574 96.3657 21.6894 93.829 20.5351 91.6536L19.6517 92.1224ZM21.2574 99.248C21.2574 102.838 20.3607 105.514 18.6402 107.355L19.3707 108.037C21.3194 105.953 22.2574 102.997 22.2574 99.248H21.2574ZM18.6362 107.359C16.9653 109.189 14.4936 110.14 11.1334 110.14V111.14C14.6853 111.14 17.4615 110.128 19.3747 108.033L18.6362 107.359ZM35.7139 65.2V64.7H35.2139V65.2H35.7139ZM54.9139 65.2H55.4139V64.7H54.9139V65.2ZM54.9139 71.6V72.1H55.4139V71.6H54.9139ZM42.7539 71.6V71.1H42.2539V71.6H42.7539ZM42.7539 83.44H42.2539V83.94H42.7539V83.44ZM52.4179 83.44H52.9179V82.94H52.4179V83.44ZM52.4179 89.84V90.34H52.9179V89.84H52.4179ZM42.7539 89.84V89.34H42.2539V89.84H42.7539ZM42.7539 103.6H42.2539V104.1H42.7539V103.6ZM54.9139 103.6H55.4139V103.1H54.9139V103.6ZM54.9139 110V110.5H55.4139V110H54.9139ZM35.7139 110H35.2139V110.5H35.7139V110ZM35.7139 65.7H54.9139V64.7H35.7139V65.7ZM54.4139 65.2V71.6H55.4139V65.2H54.4139ZM54.9139 71.1H42.7539V72.1H54.9139V71.1ZM42.2539 71.6V83.44H43.2539V71.6H42.2539ZM42.7539 83.94H52.4179V82.94H42.7539V83.94ZM51.9179 83.44V89.84H52.9179V83.44H51.9179ZM52.4179 89.34H42.7539V90.34H52.4179V89.34ZM42.2539 89.84V103.6H43.2539V89.84H42.2539ZM42.7539 104.1H54.9139V103.1H42.7539V104.1ZM54.4139 103.6V110H55.4139V103.6H54.4139ZM54.9139 109.5H35.7139V110.5H54.9139V109.5ZM36.2139 110V65.2H35.2139V110H36.2139ZM68.8839 65.2V64.7H68.3839V65.2H68.8839ZM75.9239 65.2H76.4239V64.7H75.9239V65.2ZM75.9239 103.6H75.4239V104.1H75.9239V103.6ZM87.5079 103.6H88.0079V103.1H87.5079V103.6ZM87.5079 110V110.5H88.0079V110H87.5079ZM68.8839 110H68.3839V110.5H68.8839V110ZM68.8839 65.7H75.9239V64.7H68.8839V65.7ZM75.4239 65.2V103.6H76.4239V65.2H75.4239ZM75.9239 104.1H87.5079V103.1H75.9239V104.1ZM87.0079 103.6V110H88.0079V103.6H87.0079ZM87.5079 109.5H68.8839V110.5H87.5079V109.5ZM69.3839 110V65.2H68.3839V110H69.3839ZM100.804 65.2V64.7H100.304V65.2H100.804ZM119.428 65.2H119.928V64.7H119.428V65.2ZM119.428 71.6V72.1H119.928V71.6H119.428ZM107.844 71.6V71.1H107.344V71.6H107.844ZM107.844 84.08H107.344V84.58H107.844V84.08ZM116.932 84.08H117.432V83.58H116.932V84.08ZM116.932 90.48V90.98H117.432V90.48H116.932ZM107.844 90.48V89.98H107.344V90.48H107.844ZM107.844 110V110.5H108.344V110H107.844ZM100.804 110H100.304V110.5H100.804V110ZM100.804 65.7H119.428V64.7H100.804V65.7ZM118.928 65.2V71.6H119.928V65.2H118.928ZM119.428 71.1H107.844V72.1H119.428V71.1ZM107.344 71.6V84.08H108.344V71.6H107.344ZM107.844 84.58H116.932V83.58H107.844V84.58ZM116.432 84.08V90.48H117.432V84.08H116.432ZM116.932 89.98H107.844V90.98H116.932V89.98ZM107.344 90.48V110H108.344V90.48H107.344ZM107.844 109.5H100.804V110.5H107.844V109.5ZM101.304 110V65.2H100.304V110H101.304ZM131.387 84.4V83.9H130.887V84.4H131.387ZM145.467 84.4H145.967V83.9H145.467V84.4ZM145.467 90.8V91.3H145.967V90.8H145.467ZM131.387 90.8H130.887V91.3H131.387V90.8ZM131.387 84.9H145.467V83.9H131.387V84.9ZM144.967 84.4V90.8H145.967V84.4H144.967ZM145.467 90.3H131.387V91.3H145.467V90.3ZM131.887 90.8V84.4H130.887V90.8H131.887ZM157.917 65.2V64.7H157.364L157.42 65.2505L157.917 65.2ZM164.701 65.2L165.199 65.1546L165.158 64.7H164.701V65.2ZM167.837 99.632L167.339 99.6774L167.381 100.132H167.837V99.632ZM167.965 99.632V100.132H168.419L168.463 99.6801L167.965 99.632ZM171.293 65.2V64.7H170.839L170.796 65.1519L171.293 65.2ZM178.973 65.2L179.471 65.1519L179.427 64.7H178.973V65.2ZM182.301 99.632L181.804 99.6801L181.847 100.132H182.301V99.632ZM182.429 99.632V100.132H182.886L182.927 99.6774L182.429 99.632ZM185.565 65.2V64.7H185.109L185.067 65.1546L185.565 65.2ZM191.645 65.2L192.143 65.2505L192.199 64.7H191.645V65.2ZM187.101 110V110.5H187.553L187.599 110.05L187.101 110ZM178.333 110L177.836 110.053L177.884 110.5H178.333V110ZM175.133 79.792L175.631 79.7393L175.583 79.292H175.133V79.792ZM175.005 79.792V79.292H174.556L174.508 79.7393L175.005 79.792ZM171.805 110V110.5H172.255L172.303 110.053L171.805 110ZM162.461 110L161.964 110.05L162.01 110.5H162.461V110ZM157.917 65.7H164.701V64.7H157.917V65.7ZM164.203 65.2453L167.339 99.6774L168.335 99.5866L165.199 65.1546L164.203 65.2453ZM167.837 100.132H167.965V99.132H167.837V100.132ZM168.463 99.6801L171.791 65.2481L170.796 65.1519L167.468 99.5839L168.463 99.6801ZM171.293 65.7H178.973V64.7H171.293V65.7ZM178.476 65.2481L181.804 99.6801L182.799 99.5839L179.471 65.1519L178.476 65.2481ZM182.301 100.132H182.429V99.132H182.301V100.132ZM182.927 99.6774L186.063 65.2453L185.067 65.1546L181.931 99.5866L182.927 99.6774ZM185.565 65.7H191.645V64.7H185.565V65.7ZM191.148 65.1495L186.604 109.95L187.599 110.05L192.143 65.2505L191.148 65.1495ZM187.101 109.5H178.333V110.5H187.101V109.5ZM178.831 109.947L175.631 79.7393L174.636 79.8447L177.836 110.053L178.831 109.947ZM175.133 79.292H175.005V80.292H175.133V79.292ZM174.508 79.7393L171.308 109.947L172.303 110.053L175.503 79.8447L174.508 79.7393ZM171.805 109.5H162.461V110.5H171.805V109.5ZM162.959 109.95L158.415 65.1495L157.42 65.2505L161.964 110.05L162.959 109.95ZM209.691 65.2V64.7H209.266L209.198 65.1196L209.691 65.2ZM219.227 65.2L219.721 65.1196L219.653 64.7H219.227V65.2ZM226.523 110V110.5H227.111L227.017 109.92L226.523 110ZM219.483 110L218.989 110.071L219.05 110.5H219.483V110ZM218.203 101.104L218.698 101.033L217.703 101.104H218.203ZM218.203 101.232V101.732H218.703V101.232H218.203ZM210.203 101.232V100.732H209.771L209.709 101.16L210.203 101.232ZM208.923 110V110.5H209.356L209.418 110.072L208.923 110ZM202.395 110L201.902 109.92L201.807 110.5H202.395V110ZM217.371 95.152V95.652H217.947L217.866 95.0819L217.371 95.152ZM214.235 73.008L214.73 72.9379L214.67 72.508H214.235V73.008ZM214.107 73.008V72.508H213.672L213.612 72.9393L214.107 73.008ZM211.035 95.152L210.54 95.0833L210.461 95.652H211.035V95.152ZM209.691 65.7H219.227V64.7H209.691V65.7ZM218.734 65.2804L226.03 110.08L227.017 109.92L219.721 65.1196L218.734 65.2804ZM226.523 109.5H219.483V110.5H226.523V109.5ZM219.978 109.929L218.698 101.033L217.709 101.175L218.989 110.071L219.978 109.929ZM217.703 101.104V101.232H218.703V101.104H217.703ZM218.203 100.732H210.203V101.732H218.203V100.732ZM209.709 101.16L208.429 109.928L209.418 110.072L210.698 101.304L209.709 101.16ZM208.923 109.5H202.395V110.5H208.923V109.5ZM202.889 110.08L210.185 65.2804L209.198 65.1196L201.902 109.92L202.889 110.08ZM217.866 95.0819L214.73 72.9379L213.74 73.0781L216.876 95.2221L217.866 95.0819ZM214.235 72.508H214.107V73.508H214.235V72.508ZM213.612 72.9393L210.54 95.0833L211.531 95.2207L214.603 73.0767L213.612 72.9393ZM211.035 95.652H217.371V94.652H211.035V95.652ZM242.425 71.6H242.925V71.1H242.425V71.6ZM235.065 71.6H234.565V72.1H235.065V71.6ZM235.065 65.2V64.7H234.565V65.2H235.065ZM256.825 65.2H257.325V64.7H256.825V65.2ZM256.825 71.6V72.1H257.325V71.6H256.825ZM249.465 71.6V71.1H248.965V71.6H249.465ZM249.465 110V110.5H249.965V110H249.465ZM242.425 110H241.925V110.5H242.425V110ZM242.425 71.1H235.065V72.1H242.425V71.1ZM235.565 71.6V65.2H234.565V71.6H235.565ZM235.065 65.7H256.825V64.7H235.065V65.7ZM256.325 65.2V71.6H257.325V65.2H256.325ZM256.825 71.1H249.465V72.1H256.825V71.1ZM248.965 71.6V110H249.965V71.6H248.965ZM249.465 109.5H242.425V110.5H249.465V109.5ZM242.925 110V71.6H241.925V110H242.925ZM270.154 65.2V64.7H269.654V65.2H270.154ZM289.354 65.2H289.854V64.7H289.354V65.2ZM289.354 71.6V72.1H289.854V71.6H289.354ZM277.194 71.6V71.1H276.694V71.6H277.194ZM277.194 83.44H276.694V83.94H277.194V83.44ZM286.858 83.44H287.358V82.94H286.858V83.44ZM286.858 89.84V90.34H287.358V89.84H286.858ZM277.194 89.84V89.34H276.694V89.84H277.194ZM277.194 103.6H276.694V104.1H277.194V103.6ZM289.354 103.6H289.854V103.1H289.354V103.6ZM289.354 110V110.5H289.854V110H289.354ZM270.154 110H269.654V110.5H270.154V110ZM270.154 65.7H289.354V64.7H270.154V65.7ZM288.854 65.2V71.6H289.854V65.2H288.854ZM289.354 71.1H277.194V72.1H289.354V71.1ZM276.694 71.6V83.44H277.694V71.6H276.694ZM277.194 83.94H286.858V82.94H277.194V83.94ZM286.358 83.44V89.84H287.358V83.44H286.358ZM286.858 89.34H277.194V90.34H286.858V89.34ZM276.694 89.84V103.6H277.694V89.84H276.694ZM277.194 104.1H289.354V103.1H277.194V104.1ZM288.854 103.6V110H289.854V103.6H288.854ZM289.354 109.5H270.154V110.5H289.354V109.5ZM270.654 110V65.2H269.654V110H270.654ZM303.324 65.2V64.7H302.824V65.2H303.324ZM321.692 67.76L321.334 68.1091L321.338 68.1135L321.692 67.76ZM319.58 87.088L319.393 86.6242L319.08 86.7504V87.088H319.58ZM319.58 87.216H319.08V87.588L319.436 87.6949L319.58 87.216ZM323.164 90.352L322.705 90.5505L322.71 90.5608L323.164 90.352ZM324.38 107.696L323.883 107.748L323.883 107.751L324.38 107.696ZM325.02 110V110.5H325.789L325.477 109.797L325.02 110ZM317.852 110L317.38 110.166L317.498 110.5H317.852V110ZM316.188 92.016L315.795 92.3258L315.8 92.332L315.805 92.3381L316.188 92.016ZM310.364 90.8V90.3H309.864V90.8H310.364ZM310.364 110V110.5H310.864V110H310.364ZM303.324 110H302.824V110.5H303.324V110ZM316.06 83.312L315.706 82.9584L315.701 82.9638L315.696 82.9693L316.06 83.312ZM316.252 72.688L315.855 72.9917L315.86 72.9989L315.866 73.0059L316.252 72.688ZM310.364 71.6V71.1H309.864V71.6H310.364ZM310.364 84.4H309.864V84.9H310.364V84.4ZM303.324 65.7H313.756V64.7H303.324V65.7ZM313.756 65.7C317.317 65.7 319.803 66.5393 321.334 68.109L322.05 67.4109C320.252 65.5674 317.448 64.7 313.756 64.7V65.7ZM321.338 68.1135C322.871 69.6466 323.688 72.0739 323.688 75.504H324.688C324.688 71.9367 323.84 69.2014 322.045 67.4064L321.338 68.1135ZM323.688 75.504V78.256H324.688V75.504H323.688ZM323.688 78.256C323.688 80.5312 323.311 82.3429 322.593 83.7207C321.88 85.0874 320.818 86.0502 319.393 86.6242L319.767 87.5518C321.414 86.8885 322.656 85.7605 323.479 84.1833C324.296 82.6171 324.688 80.6315 324.688 78.256H323.688ZM319.08 87.088V87.216H320.08V87.088H319.08ZM319.436 87.6949C321.007 88.1663 322.083 89.1127 322.705 90.5505L323.623 90.1535C322.879 88.434 321.566 87.2897 319.724 86.7371L319.436 87.6949ZM322.71 90.5608C323.393 92.0488 323.752 94.0806 323.752 96.688H324.752C324.752 94.0047 324.385 91.8126 323.618 90.1432L322.71 90.5608ZM323.752 96.688V104.56H324.752V96.688H323.752ZM323.752 104.56C323.752 105.849 323.795 106.913 323.883 107.748L324.877 107.644C324.794 106.857 324.752 105.831 324.752 104.56H323.752ZM323.883 107.751C323.974 108.575 324.203 109.392 324.563 110.203L325.477 109.797C325.155 109.072 324.956 108.353 324.877 107.641L323.883 107.751ZM325.02 109.5H317.852V110.5H325.02V109.5ZM318.323 109.834C318.077 109.135 317.916 108.486 317.836 107.886L316.844 108.018C316.935 108.698 317.115 109.415 317.38 110.166L318.323 109.834ZM317.836 107.886C317.755 107.283 317.712 106.162 317.712 104.496H316.712C316.712 106.158 316.754 107.341 316.844 108.018L317.836 107.886ZM317.712 104.496V96.304H316.712V104.496H317.712ZM317.712 96.304C317.712 94.2329 317.373 92.6474 316.57 91.6939L315.805 92.3381C316.368 93.0059 316.712 94.2791 316.712 96.304H317.712ZM316.58 91.7062C315.802 90.7202 314.482 90.3 312.796 90.3V91.3C314.352 91.3 315.294 91.6905 315.795 92.3258L316.58 91.7062ZM312.796 90.3H310.364V91.3H312.796V90.3ZM309.864 90.8V110H310.864V90.8H309.864ZM310.364 109.5H303.324V110.5H310.364V109.5ZM303.824 110V65.2H302.824V110H303.824ZM312.924 84.9C314.412 84.9 315.613 84.5161 316.424 83.6547L315.696 82.9693C315.141 83.5585 314.252 83.9 312.924 83.9V84.9ZM316.413 83.6656C317.278 82.8006 317.648 81.42 317.648 79.664H316.648C316.648 81.3214 316.292 82.3728 315.706 82.9584L316.413 83.6656ZM317.648 79.664V76.208H316.648V79.664H317.648ZM317.648 76.208C317.648 74.547 317.346 73.2301 316.638 72.3701L315.866 73.0059C316.352 73.5966 316.648 74.6264 316.648 76.208H317.648ZM316.649 72.3843C315.969 71.4946 314.898 71.1 313.564 71.1V72.1C314.705 72.1 315.426 72.4307 315.855 72.9917L316.649 72.3843ZM313.564 71.1H310.364V72.1H313.564V71.1ZM309.864 71.6V84.4H310.864V71.6H309.864ZM310.364 84.9H312.924V83.9H310.364V84.9ZM339.056 65.2V64.7H338.556V65.2H339.056ZM346.096 65.2H346.596V64.7H346.096V65.2ZM346.096 110V110.5H346.596V110H346.096ZM339.056 110H338.556V110.5H339.056V110ZM339.056 65.7H346.096V64.7H339.056V65.7ZM345.596 65.2V110H346.596V65.2H345.596ZM346.096 109.5H339.056V110.5H346.096V109.5ZM339.556 110V65.2H338.556V110H339.556ZM361.289 65.2V64.7H360.789V65.2H361.289ZM370.121 65.2L370.605 65.0763L370.509 64.7H370.121V65.2ZM376.969 92.016L376.484 92.1397L376.581 92.516H376.969V92.016ZM377.097 92.016V92.516H377.597V92.016H377.097ZM377.097 65.2V64.7H376.597V65.2H377.097ZM383.369 65.2H383.869V64.7H383.369V65.2ZM383.369 110V110.5H383.869V110H383.369ZM376.137 110L375.653 110.125L375.75 110.5H376.137V110ZM367.689 77.296L368.173 77.1709L368.076 76.796H367.689V77.296ZM367.561 77.296V76.796H367.061V77.296H367.561ZM367.561 110V110.5H368.061V110H367.561ZM361.289 110H360.789V110.5H361.289V110ZM361.289 65.7H370.121V64.7H361.289V65.7ZM369.636 65.3237L376.484 92.1397L377.453 91.8923L370.605 65.0763L369.636 65.3237ZM376.969 92.516H377.097V91.516H376.969V92.516ZM377.597 92.016V65.2H376.597V92.016H377.597ZM377.097 65.7H383.369V64.7H377.097V65.7ZM382.869 65.2V110H383.869V65.2H382.869ZM383.369 109.5H376.137V110.5H383.369V109.5ZM376.621 109.875L368.173 77.1709L367.205 77.4211L375.653 110.125L376.621 109.875ZM367.689 76.796H367.561V77.796H367.689V76.796ZM367.061 77.296V110H368.061V77.296H367.061ZM367.561 109.5H361.289V110.5H367.561V109.5ZM361.789 110V65.2H360.789V110H361.789ZM400.697 107.76L400.328 108.097L400.332 108.101L400.697 107.76ZM400.697 67.504L401.063 67.8452L401.067 67.8411L400.697 67.504ZM416.313 67.504L415.944 67.8412L415.948 67.8452L416.313 67.504ZM419.001 79.664V80.164H419.501V79.664H419.001ZM412.345 79.664H411.845V80.164H412.345V79.664ZM412.345 91.12H412.845V90.62H412.345V91.12ZM408.825 91.12H408.325V91.62H408.825V91.12ZM408.825 84.72V84.22H408.325V84.72H408.825ZM419.001 84.72H419.501V84.22H419.001V84.72ZM416.313 107.76L416.679 108.101L416.683 108.097L416.313 107.76ZM408.505 110.14C405.187 110.14 402.734 109.209 401.063 107.419L400.332 108.101C402.245 110.151 404.997 111.14 408.505 111.14V110.14ZM401.067 107.423C399.385 105.581 398.509 102.924 398.509 99.376H397.509C397.509 103.081 398.426 106.013 400.328 108.097L401.067 107.423ZM398.509 99.376V75.824H397.509V99.376H398.509ZM398.509 75.824C398.509 72.2753 399.386 69.6422 401.063 67.8452L400.332 67.1628C398.425 69.2058 397.509 72.1194 397.509 75.824H398.509ZM401.067 67.8411C402.739 66.0099 405.19 65.06 408.505 65.06V64.06C404.994 64.06 402.24 65.0728 400.328 67.1669L401.067 67.8411ZM408.505 65.06C411.821 65.06 414.272 66.0099 415.944 67.8411L416.683 67.1669C414.771 65.0728 412.017 64.06 408.505 64.06V65.06ZM415.948 67.8452C417.625 69.6422 418.501 72.2753 418.501 75.824H419.501C419.501 72.1194 418.586 69.2058 416.679 67.1628L415.948 67.8452ZM418.501 75.824V79.664H419.501V75.824H418.501ZM419.001 79.164H412.345V80.164H419.001V79.164ZM412.845 79.664V75.376H411.845V79.664H412.845ZM412.845 75.376C412.845 73.8477 412.532 72.6085 411.819 71.7456C411.091 70.8643 410.018 70.46 408.697 70.46V71.46C409.809 71.46 410.56 71.7917 411.048 72.3824C411.551 72.9915 411.845 73.9603 411.845 75.376H412.845ZM408.697 70.46C407.377 70.46 406.304 70.8643 405.576 71.7456C404.863 72.6085 404.549 73.8477 404.549 75.376H405.549C405.549 73.9603 405.844 72.9915 406.347 72.3824C406.835 71.7917 407.586 71.46 408.697 71.46V70.46ZM404.549 75.376V99.888H405.549V75.376H404.549ZM404.549 99.888C404.549 101.396 404.864 102.621 405.578 103.473C406.307 104.343 407.379 104.74 408.697 104.74V103.74C407.584 103.74 406.832 103.412 406.345 102.831C405.843 102.233 405.549 101.281 405.549 99.888H404.549ZM408.697 104.74C410.016 104.74 411.088 104.343 411.817 103.473C412.531 102.621 412.845 101.396 412.845 99.888H411.845C411.845 101.281 411.552 102.233 411.05 102.831C410.563 103.412 409.811 103.74 408.697 103.74V104.74ZM412.845 99.888V91.12H411.845V99.888H412.845ZM412.345 90.62H408.825V91.62H412.345V90.62ZM409.325 91.12V84.72H408.325V91.12H409.325ZM408.825 85.22H419.001V84.22H408.825V85.22ZM418.501 84.72V99.376H419.501V84.72H418.501ZM418.501 99.376C418.501 102.924 417.626 105.581 415.944 107.423L416.683 108.097C418.585 106.013 419.501 103.081 419.501 99.376H418.501ZM415.948 107.419C414.277 109.209 411.824 110.14 408.505 110.14V111.14C412.014 111.14 414.766 110.151 416.679 108.101L415.948 107.419ZM435.745 110L436.224 110.144L436.417 109.5H435.745V110ZM433.441 110H432.941V110.5H433.441V110ZM433.441 103.216V102.716H432.941V103.216H433.441ZM440.225 103.216H440.725V102.716H440.225V103.216ZM440.225 109.296L440.686 109.49L440.725 109.397V109.296H440.225ZM436.705 117.68V118.18H437.038L437.166 117.874L436.705 117.68ZM433.441 117.68L432.962 117.536L432.769 118.18H433.441V117.68ZM435.745 109.5H433.441V110.5H435.745V109.5ZM433.941 110V103.216H432.941V110H433.941ZM433.441 103.716H440.225V102.716H433.441V103.716ZM439.725 103.216V109.296H440.725V103.216H439.725ZM439.764 109.102L436.244 117.486L437.166 117.874L440.686 109.49L439.764 109.102ZM436.705 117.18H433.441V118.18H436.705V117.18ZM433.92 117.824L436.224 110.144L435.267 109.856L432.962 117.536L433.92 117.824ZM4.22142 171.696L4.58669 171.355L4.22142 171.696ZM4.22142 131.504L4.58669 131.845L4.22142 131.504ZM20.0934 131.504L19.7282 131.845L20.0934 131.504ZM20.0934 171.696L19.7282 171.355L20.0934 171.696ZM12.1574 174.14C8.79795 174.14 6.30155 173.189 4.58669 171.355L3.85616 172.037C5.81063 174.128 8.60489 175.14 12.1574 175.14V174.14ZM4.58669 171.355C2.86422 169.512 1.96942 166.877 1.96942 163.376H0.969422C0.969422 167.043 1.9093 169.955 3.85616 172.037L4.58669 171.355ZM1.96942 163.376V139.824H0.969422V163.376H1.96942ZM1.96942 139.824C1.96942 136.323 2.86422 133.688 4.58669 131.845L3.85616 131.163C1.9093 133.245 0.969422 136.157 0.969422 139.824H1.96942ZM4.58669 131.845C6.30155 130.011 8.79795 129.06 12.1574 129.06V128.06C8.60489 128.06 5.81063 129.072 3.85616 131.163L4.58669 131.845ZM12.1574 129.06C15.5169 129.06 18.0133 130.011 19.7282 131.845L20.4587 131.163C18.5042 129.072 15.71 128.06 12.1574 128.06V129.06ZM19.7282 131.845C21.4506 133.688 22.3454 136.323 22.3454 139.824H23.3454C23.3454 136.157 22.4056 133.245 20.4587 131.163L19.7282 131.845ZM22.3454 139.824V163.376H23.3454V139.824H22.3454ZM22.3454 163.376C22.3454 166.877 21.4506 169.512 19.7282 171.355L20.4587 172.037C22.4056 169.955 23.3454 167.043 23.3454 163.376H22.3454ZM19.7282 171.355C18.0133 173.189 15.5169 174.14 12.1574 174.14V175.14C15.71 175.14 18.5042 174.128 20.4587 172.037L19.7282 171.355ZM12.1574 168.74C13.4783 168.74 14.5509 168.336 15.2789 167.454C15.9917 166.592 16.3054 165.352 16.3054 163.824H15.3054C15.3054 165.24 15.0111 166.208 14.5079 166.818C14.0199 167.408 13.2685 167.74 12.1574 167.74V168.74ZM16.3054 163.824V139.376H15.3054V163.824H16.3054ZM16.3054 139.376C16.3054 137.848 15.9917 136.608 15.2789 135.746C14.5509 134.864 13.4783 134.46 12.1574 134.46V135.46C13.2685 135.46 14.0199 135.792 14.5079 136.382C15.0111 136.992 15.3054 137.96 15.3054 139.376H16.3054ZM12.1574 134.46C10.8365 134.46 9.7639 134.864 9.03594 135.746C8.32309 136.608 8.00942 137.848 8.00942 139.376H9.00942C9.00942 137.96 9.30375 136.992 9.8069 136.382C10.2949 135.792 11.0463 135.46 12.1574 135.46V134.46ZM8.00942 139.376V163.824H9.00942V139.376H8.00942ZM8.00942 163.824C8.00942 165.352 8.32309 166.592 9.03594 167.454C9.7639 168.336 10.8365 168.74 12.1574 168.74V167.74C11.0463 167.74 10.2949 167.408 9.8069 166.818C9.30375 166.208 9.00942 165.24 9.00942 163.824H8.00942ZM37.5264 129.2V128.7H37.0264V129.2H37.5264ZM55.8944 131.76L55.5364 132.109L55.5409 132.114L55.8944 131.76ZM53.7824 151.088L53.5956 150.624L53.2824 150.75V151.088H53.7824ZM53.7824 151.216H53.2824V151.588L53.6387 151.695L53.7824 151.216ZM57.3664 154.352L56.9074 154.551L56.9121 154.561L57.3664 154.352ZM58.5824 171.696L58.0852 171.748L58.0855 171.751L58.5824 171.696ZM59.2224 174V174.5H59.9918L59.6793 173.797L59.2224 174ZM52.0544 174L51.5829 174.166L51.7007 174.5H52.0544V174ZM50.3904 156.016L49.998 156.326L50.0029 156.332L50.008 156.338L50.3904 156.016ZM44.5664 154.8V154.3H44.0664V154.8H44.5664ZM44.5664 174V174.5H45.0664V174H44.5664ZM37.5264 174H37.0264V174.5H37.5264V174ZM50.2624 147.312L49.9089 146.958L49.9035 146.964L49.8983 146.969L50.2624 147.312ZM50.4544 136.688L50.0572 136.992L50.0627 136.999L50.0685 137.006L50.4544 136.688ZM44.5664 135.6V135.1H44.0664V135.6H44.5664ZM44.5664 148.4H44.0664V148.9H44.5664V148.4ZM37.5264 129.7H47.9584V128.7H37.5264V129.7ZM47.9584 129.7C51.5196 129.7 54.0059 130.539 55.5364 132.109L56.2524 131.411C54.455 129.567 51.6505 128.7 47.9584 128.7V129.7ZM55.5409 132.114C57.0739 133.647 57.8904 136.074 57.8904 139.504H58.8904C58.8904 135.937 58.0429 133.201 56.248 131.406L55.5409 132.114ZM57.8904 139.504V142.256H58.8904V139.504H57.8904ZM57.8904 142.256C57.8904 144.531 57.514 146.343 56.7951 147.721C56.0821 149.087 55.0208 150.05 53.5956 150.624L53.9692 151.552C55.616 150.889 56.8588 149.761 57.6817 148.183C58.4989 146.617 58.8904 144.631 58.8904 142.256H57.8904ZM53.2824 151.088V151.216H54.2824V151.088H53.2824ZM53.6387 151.695C55.2099 152.166 56.2858 153.113 56.9075 154.55L57.8253 154.154C57.0817 152.434 55.7682 151.29 53.9261 150.737L53.6387 151.695ZM56.9121 154.561C57.5958 156.049 57.9544 158.081 57.9544 160.688H58.9544C58.9544 158.005 58.5877 155.813 57.8208 154.143L56.9121 154.561ZM57.9544 160.688V168.56H58.9544V160.688H57.9544ZM57.9544 168.56C57.9544 169.849 57.9973 170.913 58.0852 171.748L59.0797 171.644C58.9969 170.857 58.9544 169.831 58.9544 168.56H57.9544ZM58.0855 171.751C58.177 172.575 58.4051 173.392 58.7655 174.203L59.6793 173.797C59.357 173.072 59.1586 172.353 59.0794 171.641L58.0855 171.751ZM59.2224 173.5H52.0544V174.5H59.2224V173.5ZM52.5259 173.834C52.2793 173.135 52.118 172.486 52.038 171.886L51.0468 172.018C51.1375 172.698 51.3176 173.415 51.5829 174.166L52.5259 173.834ZM52.038 171.886C51.9576 171.283 51.9144 170.162 51.9144 168.496H50.9144C50.9144 170.158 50.9565 171.341 51.0468 172.018L52.038 171.886ZM51.9144 168.496V160.304H50.9144V168.496H51.9144ZM51.9144 160.304C51.9144 158.233 51.5758 156.647 50.7729 155.694L50.008 156.338C50.5704 157.006 50.9144 158.279 50.9144 160.304H51.9144ZM50.7829 155.706C50.0044 154.72 48.6849 154.3 46.9984 154.3V155.3C48.5546 155.3 49.4964 155.691 49.998 156.326L50.7829 155.706ZM46.9984 154.3H44.5664V155.3H46.9984V154.3ZM44.0664 154.8V174H45.0664V154.8H44.0664ZM44.5664 173.5H37.5264V174.5H44.5664V173.5ZM38.0264 174V129.2H37.0264V174H38.0264ZM47.1264 148.9C48.6141 148.9 49.8158 148.516 50.6265 147.655L49.8983 146.969C49.3437 147.559 48.4548 147.9 47.1264 147.9V148.9ZM50.616 147.666C51.481 146.801 51.8504 145.42 51.8504 143.664H50.8504C50.8504 145.321 50.4946 146.373 49.9089 146.958L50.616 147.666ZM51.8504 143.664V140.208H50.8504V143.664H51.8504ZM51.8504 140.208C51.8504 138.547 51.5486 137.23 50.8404 136.37L50.0685 137.006C50.5549 137.597 50.8504 138.626 50.8504 140.208H51.8504ZM50.8516 136.384C50.1713 135.495 49.1001 135.1 47.7664 135.1V136.1C48.9074 136.1 49.6282 136.431 50.0572 136.992L50.8516 136.384ZM47.7664 135.1H44.5664V136.1H47.7664V135.1ZM44.0664 135.6V148.4H45.0664V135.6H44.0664ZM44.5664 148.9H47.1264V147.9H44.5664V148.9ZM73.2589 129.2V128.7H72.7589V129.2H73.2589ZM80.2989 129.2H80.7989V128.7H80.2989V129.2ZM80.2989 174V174.5H80.7989V174H80.2989ZM73.2589 174H72.7589V174.5H73.2589V174ZM73.2589 129.7H80.2989V128.7H73.2589V129.7ZM79.7989 129.2V174H80.7989V129.2H79.7989ZM80.2989 173.5H73.2589V174.5H80.2989V173.5ZM73.7589 174V129.2H72.7589V174H73.7589ZM97.6674 171.76L97.2982 172.097L97.3019 172.101L97.6674 171.76ZM97.6674 131.504L98.033 131.845L98.0367 131.841L97.6674 131.504ZM113.283 131.504L112.914 131.841L112.918 131.845L113.283 131.504ZM115.971 143.664V144.164H116.471V143.664H115.971ZM109.315 143.664H108.815V144.164H109.315V143.664ZM109.315 155.12H109.815V154.62H109.315V155.12ZM105.795 155.12H105.295V155.62H105.795V155.12ZM105.795 148.72V148.22H105.295V148.72H105.795ZM115.971 148.72H116.471V148.22H115.971V148.72ZM113.283 171.76L113.649 172.101L113.653 172.097L113.283 171.76ZM105.475 174.14C102.157 174.14 99.7042 173.209 98.033 171.419L97.3019 172.101C99.2147 174.151 101.967 175.14 105.475 175.14V174.14ZM98.0367 171.423C96.3553 169.581 95.4794 166.924 95.4794 163.376H94.4794C94.4794 167.081 95.3955 170.013 97.2982 172.097L98.0367 171.423ZM95.4794 163.376V139.824H94.4794V163.376H95.4794ZM95.4794 139.824C95.4794 136.275 96.3557 133.642 98.033 131.845L97.3019 131.163C95.3952 133.206 94.4794 136.119 94.4794 139.824H95.4794ZM98.0367 131.841C99.7087 130.01 102.16 129.06 105.475 129.06V128.06C101.964 128.06 99.2102 129.073 97.2982 131.167L98.0367 131.841ZM105.475 129.06C108.791 129.06 111.242 130.01 112.914 131.841L113.653 131.167C111.741 129.073 108.987 128.06 105.475 128.06V129.06ZM112.918 131.845C114.595 133.642 115.471 136.275 115.471 139.824H116.471C116.471 136.119 115.556 133.206 113.649 131.163L112.918 131.845ZM115.471 139.824V143.664H116.471V139.824H115.471ZM115.971 143.164H109.315V144.164H115.971V143.164ZM109.815 143.664V139.376H108.815V143.664H109.815ZM109.815 139.376C109.815 137.848 109.502 136.608 108.789 135.746C108.061 134.864 106.988 134.46 105.667 134.46V135.46C106.779 135.46 107.53 135.792 108.018 136.382C108.521 136.992 108.815 137.96 108.815 139.376H109.815ZM105.667 134.46C104.347 134.46 103.274 134.864 102.546 135.746C101.833 136.608 101.519 137.848 101.519 139.376H102.519C102.519 137.96 102.814 136.992 103.317 136.382C103.805 135.792 104.556 135.46 105.667 135.46V134.46ZM101.519 139.376V163.888H102.519V139.376H101.519ZM101.519 163.888C101.519 165.396 101.834 166.621 102.548 167.473C103.277 168.343 104.349 168.74 105.667 168.74V167.74C104.554 167.74 103.802 167.412 103.315 166.831C102.813 166.233 102.519 165.281 102.519 163.888H101.519ZM105.667 168.74C106.986 168.74 108.058 168.343 108.787 167.473C109.501 166.621 109.815 165.396 109.815 163.888H108.815C108.815 165.281 108.522 166.233 108.02 166.831C107.533 167.412 106.781 167.74 105.667 167.74V168.74ZM109.815 163.888V155.12H108.815V163.888H109.815ZM109.315 154.62H105.795V155.62H109.315V154.62ZM106.295 155.12V148.72H105.295V155.12H106.295ZM105.795 149.22H115.971V148.22H105.795V149.22ZM115.471 148.72V163.376H116.471V148.72H115.471ZM115.471 163.376C115.471 166.924 114.595 169.581 112.914 171.423L113.653 172.097C115.555 170.013 116.471 167.081 116.471 163.376H115.471ZM112.918 171.419C111.247 173.209 108.794 174.14 105.475 174.14V175.14C108.984 175.14 111.736 174.151 113.649 172.101L112.918 171.419ZM135.851 129.2V128.7H135.426L135.358 129.12L135.851 129.2ZM145.387 129.2L145.881 129.12L145.813 128.7H145.387V129.2ZM152.683 174V174.5H153.271L153.177 173.92L152.683 174ZM145.643 174L145.149 174.071L145.21 174.5H145.643V174ZM144.363 165.104L144.858 165.033L143.863 165.104H144.363ZM144.363 165.232V165.732H144.863V165.232H144.363ZM136.363 165.232V164.732H135.931L135.869 165.16L136.363 165.232ZM135.083 174V174.5H135.516L135.578 174.072L135.083 174ZM128.555 174L128.062 173.92L127.967 174.5H128.555V174ZM143.531 159.152V159.652H144.107L144.026 159.082L143.531 159.152ZM140.395 137.008L140.89 136.938L140.83 136.508H140.395V137.008ZM140.267 137.008V136.508H139.832L139.772 136.939L140.267 137.008ZM137.195 159.152L136.7 159.083L136.621 159.652H137.195V159.152ZM135.851 129.7H145.387V128.7H135.851V129.7ZM144.894 129.28L152.19 174.08L153.177 173.92L145.881 129.12L144.894 129.28ZM152.683 173.5H145.643V174.5H152.683V173.5ZM146.138 173.929L144.858 165.033L143.869 165.175L145.149 174.071L146.138 173.929ZM143.863 165.104V165.232H144.863V165.104H143.863ZM144.363 164.732H136.363V165.732H144.363V164.732ZM135.869 165.16L134.589 173.928L135.578 174.072L136.858 165.304L135.869 165.16ZM135.083 173.5H128.555V174.5H135.083V173.5ZM129.049 174.08L136.345 129.28L135.358 129.12L128.062 173.92L129.049 174.08ZM144.026 159.082L140.89 136.938L139.9 137.078L143.036 159.222L144.026 159.082ZM140.395 136.508H140.267V137.508H140.395V136.508ZM139.772 136.939L136.7 159.083L137.691 159.221L140.763 137.077L139.772 136.939ZM137.195 159.652H143.531V158.652H137.195V159.652ZM166.019 129.2V128.7H165.519V129.2H166.019ZM176.067 129.2L176.562 129.131L176.502 128.7H176.067V129.2ZM180.547 161.264L180.052 161.333L180.112 161.764H180.547V161.264ZM180.675 161.264V161.764H181.11L181.17 161.333L180.675 161.264ZM185.155 129.2V128.7H184.72L184.66 129.131L185.155 129.2ZM195.203 129.2H195.703V128.7H195.203V129.2ZM195.203 174V174.5H195.703V174H195.203ZM188.547 174H188.047V174.5H188.547V174ZM188.547 140.08H189.047V139.58H188.547V140.08ZM188.419 140.08V139.58H187.989L187.925 140.005L188.419 140.08ZM183.299 174V174.5H183.729L183.793 174.075L183.299 174ZM177.411 174L176.917 174.075L176.981 174.5H177.411V174ZM172.291 140.08L172.785 140.005L172.721 139.58H172.291V140.08ZM172.163 140.08V139.58H171.663V140.08H172.163ZM172.163 174V174.5H172.663V174H172.163ZM166.019 174H165.519V174.5H166.019V174ZM166.019 129.7H176.067V128.7H166.019V129.7ZM175.572 129.269L180.052 161.333L181.042 161.195L176.562 129.131L175.572 129.269ZM180.547 161.764H180.675V160.764H180.547V161.764ZM181.17 161.333L185.65 129.269L184.66 129.131L180.18 161.195L181.17 161.333ZM185.155 129.7H195.203V128.7H185.155V129.7ZM194.703 129.2V174H195.703V129.2H194.703ZM195.203 173.5H188.547V174.5H195.203V173.5ZM189.047 174V140.08H188.047V174H189.047ZM188.547 139.58H188.419V140.58H188.547V139.58ZM187.925 140.005L182.805 173.925L183.793 174.075L188.913 140.155L187.925 140.005ZM183.299 173.5H177.411V174.5H183.299V173.5ZM177.905 173.925L172.785 140.005L171.797 140.155L176.917 174.075L177.905 173.925ZM172.291 139.58H172.163V140.58H172.291V139.58ZM171.663 140.08V174H172.663V140.08H171.663ZM172.163 173.5H166.019V174.5H172.163V173.5ZM166.519 174V129.2H165.519V174H166.519ZM210.376 129.2V128.7H209.876V129.2H210.376ZM217.416 129.2H217.916V128.7H217.416V129.2ZM217.416 174V174.5H217.916V174H217.416ZM210.376 174H209.876V174.5H210.376V174ZM210.376 129.7H217.416V128.7H210.376V129.7ZM216.916 129.2V174H217.916V129.2H216.916ZM217.416 173.5H210.376V174.5H217.416V173.5ZM210.876 174V129.2H209.876V174H210.876ZM252.779 129.2V128.7H252.279V129.2H252.779ZM271.019 132.016L270.653 132.357L271.019 132.016ZM271.019 152.944L270.653 152.603L271.019 152.944ZM259.819 155.76V155.26H259.319V155.76H259.819ZM259.819 174V174.5H260.319V174H259.819ZM252.779 174H252.279V174.5H252.779V174ZM265.707 148.4L265.341 148.059L265.335 148.066L265.329 148.073L265.707 148.4ZM265.707 136.56L265.329 136.887L265.335 136.894L265.341 136.901L265.707 136.56ZM259.819 135.6V135.1H259.319V135.6H259.819ZM259.819 149.36H259.319V149.86H259.819V149.36ZM252.779 129.7H263.147V128.7H252.779V129.7ZM263.147 129.7C266.559 129.7 269.029 130.614 270.653 132.357L271.385 131.675C269.51 129.664 266.732 128.7 263.147 128.7V129.7ZM270.653 132.357C272.286 134.109 273.143 136.72 273.143 140.272H274.143C274.143 136.571 273.25 133.677 271.385 131.675L270.653 132.357ZM273.143 140.272V144.688H274.143V140.272H273.143ZM273.143 144.688C273.143 148.24 272.286 150.851 270.653 152.603L271.385 153.285C273.25 151.283 274.143 148.389 274.143 144.688H273.143ZM270.653 152.603C269.029 154.346 266.559 155.26 263.147 155.26V156.26C266.732 156.26 269.51 155.296 271.385 153.285L270.653 152.603ZM263.147 155.26H259.819V156.26H263.147V155.26ZM259.319 155.76V174H260.319V155.76H259.319ZM259.819 173.5H252.779V174.5H259.819V173.5ZM253.279 174V129.2H252.279V174H253.279ZM263.147 149.86C264.389 149.86 265.404 149.513 266.085 148.727L265.329 148.073C264.9 148.567 264.209 148.86 263.147 148.86V149.86ZM266.072 148.741C266.802 147.96 267.103 146.711 267.103 145.136H266.103C266.103 146.633 265.807 147.56 265.341 148.059L266.072 148.741ZM267.103 145.136V139.824H266.103V145.136H267.103ZM267.103 139.824C267.103 138.249 266.802 137 266.072 136.219L265.341 136.901C265.807 137.4 266.103 138.327 266.103 139.824H267.103ZM266.085 136.233C265.404 135.447 264.389 135.1 263.147 135.1V136.1C264.209 136.1 264.9 136.393 265.329 136.887L266.085 136.233ZM263.147 135.1H259.819V136.1H263.147V135.1ZM259.319 135.6V149.36H260.319V135.6H259.319ZM259.819 149.86H263.147V148.86H259.819V149.86ZM287.386 129.2V128.7H286.886V129.2H287.386ZM294.426 129.2H294.926V128.7H294.426V129.2ZM294.426 167.6H293.926V168.1H294.426V167.6ZM306.01 167.6H306.51V167.1H306.01V167.6ZM306.01 174V174.5H306.51V174H306.01ZM287.386 174H286.886V174.5H287.386V174ZM287.386 129.7H294.426V128.7H287.386V129.7ZM293.926 129.2V167.6H294.926V129.2H293.926ZM294.426 168.1H306.01V167.1H294.426V168.1ZM305.51 167.6V174H306.51V167.6H305.51ZM306.01 173.5H287.386V174.5H306.01V173.5ZM287.886 174V129.2H286.886V174H287.886ZM324.996 129.2V128.7H324.571L324.503 129.12L324.996 129.2ZM334.532 129.2L335.026 129.12L334.958 128.7H334.532V129.2ZM341.828 174V174.5H342.416L342.322 173.92L341.828 174ZM334.788 174L334.294 174.071L334.355 174.5H334.788V174ZM333.508 165.104L334.003 165.033L333.008 165.104H333.508ZM333.508 165.232V165.732H334.008V165.232H333.508ZM325.508 165.232V164.732H325.076L325.014 165.16L325.508 165.232ZM324.228 174V174.5H324.661L324.723 174.072L324.228 174ZM317.7 174L317.207 173.92L317.112 174.5H317.7V174ZM332.676 159.152V159.652H333.252L333.172 159.082L332.676 159.152ZM329.54 137.008L330.035 136.938L329.975 136.508H329.54V137.008ZM329.412 137.008V136.508H328.977L328.917 136.939L329.412 137.008ZM326.34 159.152L325.845 159.083L325.766 159.652H326.34V159.152ZM324.996 129.7H334.532V128.7H324.996V129.7ZM334.039 129.28L341.335 174.08L342.322 173.92L335.026 129.12L334.039 129.28ZM341.828 173.5H334.788V174.5H341.828V173.5ZM335.283 173.929L334.003 165.033L333.014 165.175L334.294 174.071L335.283 173.929ZM333.008 165.104V165.232H334.008V165.104H333.008ZM333.508 164.732H325.508V165.732H333.508V164.732ZM325.014 165.16L323.734 173.928L324.723 174.072L326.003 165.304L325.014 165.16ZM324.228 173.5H317.7V174.5H324.228V173.5ZM318.194 174.08L325.49 129.28L324.503 129.12L317.207 173.92L318.194 174.08ZM333.172 159.082L330.035 136.938L329.045 137.078L332.181 159.222L333.172 159.082ZM329.54 136.508H329.412V137.508H329.54V136.508ZM328.917 136.939L325.845 159.083L326.836 159.221L329.908 137.077L328.917 136.939ZM326.34 159.652H332.676V158.652H326.34V159.652ZM355.164 129.2V128.7H354.664V129.2H355.164ZM363.996 129.2L364.48 129.076L364.384 128.7H363.996V129.2ZM370.844 156.016L370.359 156.14L370.456 156.516H370.844V156.016ZM370.972 156.016V156.516H371.472V156.016H370.972ZM370.972 129.2V128.7H370.472V129.2H370.972ZM377.244 129.2H377.744V128.7H377.244V129.2ZM377.244 174V174.5H377.744V174H377.244ZM370.012 174L369.528 174.125L369.625 174.5H370.012V174ZM361.564 141.296L362.048 141.171L361.951 140.796H361.564V141.296ZM361.436 141.296V140.796H360.936V141.296H361.436ZM361.436 174V174.5H361.936V174H361.436ZM355.164 174H354.664V174.5H355.164V174ZM355.164 129.7H363.996V128.7H355.164V129.7ZM363.511 129.324L370.359 156.14L371.328 155.892L364.48 129.076L363.511 129.324ZM370.844 156.516H370.972V155.516H370.844V156.516ZM371.472 156.016V129.2H370.472V156.016H371.472ZM370.972 129.7H377.244V128.7H370.972V129.7ZM376.744 129.2V174H377.744V129.2H376.744ZM377.244 173.5H370.012V174.5H377.244V173.5ZM370.496 173.875L362.048 141.171L361.08 141.421L369.528 174.125L370.496 173.875ZM361.564 140.796H361.436V141.796H361.564V140.796ZM360.936 141.296V174H361.936V141.296H360.936ZM361.436 173.5H355.164V174.5H361.436V173.5ZM355.664 174V129.2H354.664V174H355.664ZM397.9 135.6H398.4V135.1H397.9V135.6ZM390.54 135.6H390.04V136.1H390.54V135.6ZM390.54 129.2V128.7H390.04V129.2H390.54ZM412.3 129.2H412.8V128.7H412.3V129.2ZM412.3 135.6V136.1H412.8V135.6H412.3ZM404.94 135.6V135.1H404.44V135.6H404.94ZM404.94 174V174.5H405.44V174H404.94ZM397.9 174H397.4V174.5H397.9V174ZM397.9 135.1H390.54V136.1H397.9V135.1ZM391.04 135.6V129.2H390.04V135.6H391.04ZM390.54 129.7H412.3V128.7H390.54V129.7ZM411.8 129.2V135.6H412.8V129.2H411.8ZM412.3 135.1H404.94V136.1H412.3V135.1ZM404.44 135.6V174H405.44V135.6H404.44ZM404.94 173.5H397.9V174.5H404.94V173.5ZM398.4 174V135.6H397.4V174H398.4ZM1.98142 193.2V192.7H1.48142V193.2H1.98142ZM20.2214 196.016L19.8556 196.357L20.2214 196.016ZM20.2214 216.944L19.8556 216.603L20.2214 216.944ZM9.02142 219.76V219.26H8.52142V219.76H9.02142ZM9.02142 238V238.5H9.52142V238H9.02142ZM1.98142 238H1.48142V238.5H1.98142V238ZM14.9094 212.4L14.5439 212.059L14.5376 212.066L14.5316 212.073L14.9094 212.4ZM14.9094 200.56L14.5316 200.887L14.5376 200.894L14.5439 200.901L14.9094 200.56ZM9.02142 199.6V199.1H8.52142V199.6H9.02142ZM9.02142 213.36H8.52142V213.86H9.02142V213.36ZM1.98142 193.7H12.3494V192.7H1.98142V193.7ZM12.3494 193.7C15.7616 193.7 18.2314 194.614 19.8556 196.357L20.5872 195.675C18.7128 193.664 15.9346 192.7 12.3494 192.7V193.7ZM19.8556 196.357C21.4887 198.109 22.3454 200.72 22.3454 204.272H23.3454C23.3454 200.571 22.4529 197.677 20.5872 195.675L19.8556 196.357ZM22.3454 204.272V208.688H23.3454V204.272H22.3454ZM22.3454 208.688C22.3454 212.24 21.4887 214.851 19.8556 216.603L20.5872 217.285C22.4529 215.283 23.3454 212.389 23.3454 208.688H22.3454ZM19.8556 216.603C18.2314 218.346 15.7616 219.26 12.3494 219.26V220.26C15.9346 220.26 18.7128 219.296 20.5872 217.285L19.8556 216.603ZM12.3494 219.26H9.02142V220.26H12.3494V219.26ZM8.52142 219.76V238H9.52142V219.76H8.52142ZM9.02142 237.5H1.98142V238.5H9.02142V237.5ZM2.48142 238V193.2H1.48142V238H2.48142ZM12.3494 213.86C13.5916 213.86 14.6068 213.513 15.2873 212.727L14.5316 212.073C14.1027 212.567 13.4113 212.86 12.3494 212.86V213.86ZM15.275 212.741C16.004 211.96 16.3054 210.711 16.3054 209.136H15.3054C15.3054 210.633 15.0095 211.56 14.5439 212.059L15.275 212.741ZM16.3054 209.136V203.824H15.3054V209.136H16.3054ZM16.3054 203.824C16.3054 202.249 16.004 201 15.275 200.219L14.5439 200.901C15.0095 201.4 15.3054 202.327 15.3054 203.824H16.3054ZM15.2873 200.233C14.6068 199.447 13.5916 199.1 12.3494 199.1V200.1C13.4113 200.1 14.1027 200.393 14.5316 200.887L15.2873 200.233ZM12.3494 199.1H9.02142V200.1H12.3494V199.1ZM8.52142 199.6V213.36H9.52142V199.6H8.52142ZM9.02142 213.86H12.3494V212.86H9.02142V213.86ZM38.8289 235.696L39.1942 235.355L38.8289 235.696ZM38.8289 195.504L39.1942 195.845L38.8289 195.504ZM54.7009 195.504L54.3357 195.845L54.7009 195.504ZM54.7009 235.696L54.3357 235.355L54.7009 235.696ZM46.7649 238.14C43.4055 238.14 40.909 237.189 39.1942 235.355L38.4637 236.037C40.4181 238.128 43.2124 239.14 46.7649 239.14V238.14ZM39.1942 235.355C37.4717 233.512 36.5769 230.877 36.5769 227.376H35.5769C35.5769 231.043 36.5168 233.955 38.4637 236.037L39.1942 235.355ZM36.5769 227.376V203.824H35.5769V227.376H36.5769ZM36.5769 203.824C36.5769 200.323 37.4717 197.688 39.1942 195.845L38.4637 195.163C36.5168 197.245 35.5769 200.157 35.5769 203.824H36.5769ZM39.1942 195.845C40.909 194.011 43.4055 193.06 46.7649 193.06V192.06C43.2124 192.06 40.4181 193.072 38.4637 195.163L39.1942 195.845ZM46.7649 193.06C50.1244 193.06 52.6208 194.011 54.3357 195.845L55.0662 195.163C53.1117 193.072 50.3175 192.06 46.7649 192.06V193.06ZM54.3357 195.845C56.0581 197.688 56.9529 200.323 56.9529 203.824H57.9529C57.9529 200.157 57.013 197.245 55.0662 195.163L54.3357 195.845ZM56.9529 203.824V227.376H57.9529V203.824H56.9529ZM56.9529 227.376C56.9529 230.877 56.0581 233.512 54.3357 235.355L55.0662 236.037C57.013 233.955 57.9529 231.043 57.9529 227.376H56.9529ZM54.3357 235.355C52.6208 237.189 50.1244 238.14 46.7649 238.14V239.14C50.3175 239.14 53.1117 238.128 55.0662 236.037L54.3357 235.355ZM46.7649 232.74C48.0858 232.74 49.1584 232.336 49.8864 231.454C50.5992 230.592 50.9129 229.352 50.9129 227.824H49.9129C49.9129 229.24 49.6186 230.208 49.1154 230.818C48.6274 231.408 47.876 231.74 46.7649 231.74V232.74ZM50.9129 227.824V203.376H49.9129V227.824H50.9129ZM50.9129 203.376C50.9129 201.848 50.5992 200.608 49.8864 199.746C49.1584 198.864 48.0858 198.46 46.7649 198.46V199.46C47.876 199.46 48.6274 199.792 49.1154 200.382C49.6186 200.992 49.9129 201.96 49.9129 203.376H50.9129ZM46.7649 198.46C45.444 198.46 44.3714 198.864 43.6434 199.746C42.9306 200.608 42.6169 201.848 42.6169 203.376H43.6169C43.6169 201.96 43.9112 200.992 44.4144 200.382C44.9024 199.792 45.6538 199.46 46.7649 199.46V198.46ZM42.6169 203.376V227.824H43.6169V203.376H42.6169ZM42.6169 227.824C42.6169 229.352 42.9306 230.592 43.6434 231.454C44.3714 232.336 45.444 232.74 46.7649 232.74V231.74C45.6538 231.74 44.9024 231.408 44.4144 230.818C43.9112 230.208 43.6169 229.24 43.6169 227.824H42.6169ZM77.3879 199.6H77.8879V199.1H77.3879V199.6ZM70.0279 199.6H69.5279V200.1H70.0279V199.6ZM70.0279 193.2V192.7H69.5279V193.2H70.0279ZM91.7879 193.2H92.2879V192.7H91.7879V193.2ZM91.7879 199.6V200.1H92.2879V199.6H91.7879ZM84.4279 199.6V199.1H83.9279V199.6H84.4279ZM84.4279 238V238.5H84.9279V238H84.4279ZM77.3879 238H76.8879V238.5H77.3879V238ZM77.3879 199.1H70.0279V200.1H77.3879V199.1ZM70.5279 199.6V193.2H69.5279V199.6H70.5279ZM70.0279 193.7H91.7879V192.7H70.0279V193.7ZM91.2879 193.2V199.6H92.2879V193.2H91.2879ZM91.7879 199.1H84.4279V200.1H91.7879V199.1ZM83.9279 199.6V238H84.9279V199.6H83.9279ZM84.4279 237.5H77.3879V238.5H84.4279V237.5ZM77.8879 238V199.6H76.8879V238H77.8879ZM106.524 235.76L106.151 236.093L106.155 236.097L106.524 235.76ZM103.9 224.816V224.316H103.4V224.816H103.9ZM110.556 224.816H111.056V224.316H110.556V224.816ZM116.892 231.216L116.518 230.885L116.516 230.887L116.892 231.216ZM116.572 222.832L116.141 223.086L116.145 223.091L116.572 222.832ZM111.836 217.648L111.506 218.023L111.508 218.025L111.836 217.648ZM105.756 210.736L105.318 210.977L105.321 210.981L105.756 210.736ZM106.716 195.504L107.082 195.845L107.086 195.841L106.716 195.504ZM122.14 195.504L121.763 195.832L121.771 195.841L122.14 195.504ZM124.764 205.68V206.18H125.264V205.68H124.764ZM118.108 205.68H117.608V206.18H118.108V205.68ZM117.212 200.048L116.826 200.366L116.831 200.372L116.836 200.377L117.212 200.048ZM112.348 207.792L111.921 208.051L111.927 208.06L112.348 207.792ZM117.148 212.912L116.82 213.289L116.82 213.289L117.148 212.912ZM123.228 219.888L122.787 220.122L123.228 219.888ZM122.14 235.696L121.775 235.355L121.771 235.359L122.14 235.696ZM114.268 238.14C110.949 238.14 108.521 237.209 106.894 235.423L106.155 236.097C108.026 238.151 110.761 239.14 114.268 239.14V238.14ZM106.898 235.427C105.256 233.586 104.4 230.927 104.4 227.376H103.4C103.4 231.079 104.294 234.009 106.151 236.093L106.898 235.427ZM104.4 227.376V224.816H103.4V227.376H104.4ZM103.9 225.316H110.556V224.316H103.9V225.316ZM110.056 224.816V227.888H111.056V224.816H110.056ZM110.056 227.888C110.056 229.396 110.371 230.621 111.085 231.473C111.814 232.343 112.886 232.74 114.204 232.74V231.74C113.091 231.74 112.339 231.412 111.852 230.831C111.35 230.233 111.056 229.281 111.056 227.888H110.056ZM114.204 232.74C115.495 232.74 116.549 232.368 117.269 231.545L116.516 230.887C116.042 231.429 115.303 231.74 114.204 231.74V232.74ZM117.267 231.547C118.025 230.688 118.352 229.388 118.352 227.76H117.352C117.352 229.289 117.039 230.294 116.518 230.885L117.267 231.547ZM118.352 227.76C118.352 225.804 117.907 224.069 117 222.573L116.145 223.091C116.944 224.411 117.352 225.961 117.352 227.76H118.352ZM117.003 222.578C116.109 221.058 114.482 219.288 112.165 217.271L111.508 218.025C113.799 220.019 115.329 221.705 116.141 223.086L117.003 222.578ZM112.167 217.273C109.284 214.729 107.305 212.469 106.192 210.491L105.321 210.981C106.512 213.099 108.586 215.447 111.506 218.023L112.167 217.273ZM106.194 210.495C105.087 208.484 104.528 206.222 104.528 203.696H103.528C103.528 206.375 104.122 208.806 105.319 210.977L106.194 210.495ZM104.528 203.696C104.528 200.236 105.403 197.644 107.082 195.845L106.351 195.163C104.446 197.204 103.528 200.073 103.528 203.696H104.528ZM107.086 195.841C108.758 194.01 111.209 193.06 114.524 193.06V192.06C111.013 192.06 108.259 193.073 106.347 195.167L107.086 195.841ZM114.524 193.06C117.796 193.06 120.178 194.009 121.763 195.832L122.518 195.176C120.69 193.074 117.994 192.06 114.524 192.06V193.06ZM121.771 195.841C123.408 197.638 124.264 200.272 124.264 203.824H125.264C125.264 200.122 124.371 197.21 122.51 195.167L121.771 195.841ZM124.264 203.824V205.68H125.264V203.824H124.264ZM124.764 205.18H118.108V206.18H124.764V205.18ZM118.608 205.68V203.376H117.608V205.68H118.608ZM118.608 203.376C118.608 201.796 118.305 200.538 117.589 199.719L116.836 200.377C117.314 200.924 117.608 201.884 117.608 203.376H118.608ZM117.598 199.73C116.885 198.864 115.853 198.46 114.588 198.46V199.46C115.628 199.46 116.345 199.782 116.826 200.366L117.598 199.73ZM114.588 198.46C113.309 198.46 112.268 198.854 111.562 199.715C110.871 200.556 110.568 201.763 110.568 203.248H111.568C111.568 201.874 111.852 200.937 112.335 200.349C112.802 199.78 113.521 199.46 114.588 199.46V198.46ZM110.568 203.248C110.568 204.962 111.021 206.566 111.921 208.051L112.776 207.533C111.969 206.202 111.568 204.776 111.568 203.248H110.568ZM111.927 208.06C112.862 209.53 114.505 211.274 116.82 213.289L117.477 212.535C115.184 210.54 113.627 208.87 112.77 207.524L111.927 208.06ZM116.82 213.289C119.744 215.832 121.719 218.11 122.787 220.122L123.67 219.654C122.519 217.485 120.441 215.112 117.477 212.535L116.82 213.289ZM122.787 220.122C123.851 222.128 124.392 224.498 124.392 227.248H125.392C125.392 224.366 124.824 221.829 123.67 219.654L122.787 220.122ZM124.392 227.248C124.392 230.838 123.496 233.514 121.775 235.355L122.506 236.037C124.454 233.953 125.392 230.997 125.392 227.248H124.392ZM121.771 235.359C120.1 237.189 117.629 238.14 114.268 238.14V239.14C117.82 239.14 120.597 238.128 122.51 236.033L121.771 235.359Z" fill="#03839E"/>
</svg>
