<?xml version="1.0" encoding="utf-8"?>
<!-- Generator: Adobe Illustrator 25.0.1, SVG Export Plug-In . SVG Version: 6.00 Build 0)  -->
<svg version="1.1" id="Слой_1" xmlns="http://www.w3.org/2000/svg" xmlns:xlink="http://www.w3.org/1999/xlink" x="0px" y="0px"
	 viewBox="0 0 21 21" style="enable-background:new 0 0 21 21;" xml:space="preserve">
<style type="text/css">
	.st0{fill:#1D1D1B;}
</style>
<path class="st0" d="M10.5,0.5c-5.5,0-10,4.5-10,10c0,5.5,4.5,10,10,10c5.5,0,10-4.5,10-10C20.5,5,16,0.5,10.5,0.5z M15,8.2
	c0,0.1,0,0.2,0,0.3c0,3-2.3,6.5-6.5,6.5c-1.3,0-2.5-0.4-3.5-1c0.2,0,0.4,0,0.5,0c1.1,0,2.1-0.4,2.9-1c-1,0-1.9-0.7-2.2-1.6
	c0.1,0,0.3,0,0.4,0c0.2,0,0.4,0,0.6-0.1c-1.1-0.2-1.8-1.1-1.8-2.3c0,0,0,0,0,0c0.3,0.2,0.7,0.3,1,0.3c-0.6-0.4-1-1.1-1-1.9
	c0-0.4,0.1-0.8,0.3-1.2c1.1,1.4,2.8,2.3,4.7,2.4c0-0.2-0.1-0.3-0.1-0.5c0-1.3,1-2.3,2.3-2.3c0.7,0,1.3,0.3,1.7,0.7
	c0.5-0.1,1-0.3,1.5-0.6c-0.2,0.5-0.5,1-1,1.3c0.5-0.1,0.9-0.2,1.3-0.4C15.8,7.5,15.4,7.9,15,8.2z"/>
</svg>
