<?xml version="1.0" encoding="iso-8859-1"?>
<!-- Generator: Adobe Illustrator 16.0.0, SVG Export Plug-In . SVG Version: 6.00 Build 0)  -->
<!DOCTYPE svg PUBLIC "-//W3C//DTD SVG 1.1//EN" "http://www.w3.org/Graphics/SVG/1.1/DTD/svg11.dtd">
<svg version="1.1" id="Capa_1" xmlns="http://www.w3.org/2000/svg" xmlns:xlink="http://www.w3.org/1999/xlink" x="0px" y="0px"
	 width="560.968px" height="560.968px" viewBox="0 0 560.968 560.968" style="enable-background:new 0 0 560.968 560.968;"
	 xml:space="preserve">
<g>
	<g>
		<path d="M414.323,546.72l0.995-14.248l14.506-153.191c0,0,4.695,0,10.48,0s13.101-12.574,16.323-28.085l8.224-39.455
			c3.232-15.511-6.99-28.085-22.835-28.085h-153v-46.216c42.075,5.04,61.841-12.699,71.106-29.691
			c7.583-13.913-4.561-30.935-20.339-29.577c-40.44,3.481-50.175,38.346-50.175,38.346l0.191-39.646c0,0,68.477,4.781,77.246-58.972
			c4.59-33.373-1.55-60.206-8.435-78.183c-5.67-14.793-19.269-14.114-26.813-0.182l-14.392,26.574l-25.082-55.166
			c-6.56-14.42-17.595-14.611-24.652-0.43l-28.458,57.193c0,0-6.159-11.063-13.751-24.7c-7.593-13.646-22.548-14.956-28.305-0.201
			c-5.556,14.258-10.5,35.477-10.146,65.541c0.804,66.938,73.316,70.122,73.316,70.122v38.25
			c-10.213-28.516-31.795-36.577-49.687-37.887c-15.797-1.167-28.573,16.429-20.866,30.266
			c19.813,35.572,70.552,26.746,70.552,26.746v47.813H120.075c-15.845,0-26.679,12.689-24.203,28.334l6.168,38.957
			c2.486,15.645,11.322,28.334,19.747,28.334h15.262l16.495,153l0.402,5.23c0,0,0.268,5.25,0.593,11.733
			c0.335,6.474,13.445,11.724,29.29,11.724h57.375c15.845,0,28.688-6.426,28.688-14.344V532.28h19.125c0,0,0,6.426,0,14.344
			s12.843,14.344,28.688,14.344h66.938C400.486,560.968,413.778,554.59,414.323,546.72z M282.896,474.81l-2.113-2.018
			c-59.201-21.162-80.851-68.937-54.774-90.098c26.067-21.162,55.941,6.148,55.941,6.148h0.22c0,0,29.873-27.301,55.94-6.148
			S342.097,453.657,282.896,474.81z"/>
	</g>
</g>
<g>
</g>
<g>
</g>
<g>
</g>
<g>
</g>
<g>
</g>
<g>
</g>
<g>
</g>
<g>
</g>
<g>
</g>
<g>
</g>
<g>
</g>
<g>
</g>
<g>
</g>
<g>
</g>
<g>
</g>
</svg>
