<?xml version="1.0" encoding="utf-8"?>
<!-- Generator: Adobe Illustrator 25.0.1, SVG Export Plug-In . SVG Version: 6.00 Build 0)  -->
<svg version="1.1" id="Слой_1" xmlns="http://www.w3.org/2000/svg" xmlns:xlink="http://www.w3.org/1999/xlink" x="0px" y="0px"
	 viewBox="0 0 21 21" style="enable-background:new 0 0 21 21;" xml:space="preserve">
<style type="text/css">
	.st0{fill:#39819B;}
</style>
<path class="st0" d="M10.5,0.6c-5.5,0-10,4.5-10,10c0,5,3.7,9.2,8.5,9.9v-7.2H6.5v-2.6H9V8.8c0-2.9,1.4-4.2,3.8-4.2
	c1.2,0,1.8,0.1,2.1,0.1v2.3h-1.6c-1,0-1.4,1-1.4,2.1v1.4h3l-0.4,2.6h-2.6v7.2c4.9-0.7,8.6-4.8,8.6-9.9C20.5,5,16,0.6,10.5,0.6z"/>
<image style="display:none;overflow:visible;" width="320" height="828" xlink:href="../../../../Desktop/Знімок екрана 2023-04-07 о 14.16.07.png"  transform="matrix(0.5 0 0 0.5 -60.1672 -202.8672)">
</image>
</svg>
