<svg width="131" height="27" viewBox="0 0 131 27" fill="none" xmlns="http://www.w3.org/2000/svg">
<path d="M6.272 0.799998H0.44V26H4.4V16.532H6.272C10.232 16.532 12.176 14.336 12.176 10.304V7.028C12.176 2.996 10.232 0.799998 6.272 0.799998ZM6.272 4.4C7.532 4.4 8.216 4.976 8.216 6.776V10.556C8.216 12.356 7.532 12.932 6.272 12.932H4.4V4.4H6.272ZM19.9821 6.596C19.9821 4.796 20.7741 4.112 22.0341 4.112C23.2941 4.112 24.0861 4.796 24.0861 6.596V20.204C24.0861 22.004 23.2941 22.688 22.0341 22.688C20.7741 22.688 19.9821 22.004 19.9821 20.204V6.596ZM16.0221 19.952C16.0221 23.984 18.1461 26.288 22.0341 26.288C25.9221 26.288 28.0461 23.984 28.0461 19.952V6.848C28.0461 2.816 25.9221 0.512 22.0341 0.512C18.1461 0.512 16.0221 2.816 16.0221 6.848V19.952ZM31.6275 4.4H35.7675V26H39.7275V4.4H43.8675V0.799998H31.6275V4.4ZM60.0836 26C59.6876 25.064 59.6516 24.164 59.6516 22.94V19.052C59.6516 16.424 59.0036 14.516 57.0236 13.688C58.7876 12.86 59.6156 11.168 59.6156 8.576V6.596C59.6156 2.708 57.8516 0.799998 53.7476 0.799998H47.7716V26H51.7316V15.74H53.0996C54.8996 15.74 55.6916 16.604 55.6916 18.944V22.904C55.6916 24.956 55.8356 25.352 56.0516 26H60.0836ZM53.6396 4.4C55.0436 4.4 55.6556 5.192 55.6556 6.992V9.476C55.6556 11.492 54.7556 12.14 53.2796 12.14H51.7316V4.4H53.6396ZM77.9978 0.799998H72.1658V26H76.1258V16.532H77.9978C81.9578 16.532 83.9018 14.336 83.9018 10.304V7.028C83.9018 2.996 81.9578 0.799998 77.9978 0.799998ZM77.9978 4.4C79.2578 4.4 79.9418 4.976 79.9418 6.776V10.556C79.9418 12.356 79.2578 12.932 77.9978 12.932H76.1258V4.4H77.9978ZM91.7079 6.596C91.7079 4.796 92.4999 4.112 93.7599 4.112C95.0199 4.112 95.8119 4.796 95.8119 6.596V20.204C95.8119 22.004 95.0199 22.688 93.7599 22.688C92.4999 22.688 91.7079 22.004 91.7079 20.204V6.596ZM87.7479 19.952C87.7479 23.984 89.8719 26.288 93.7599 26.288C97.6479 26.288 99.7719 23.984 99.7719 19.952V6.848C99.7719 2.816 97.6479 0.512 93.7599 0.512C89.8719 0.512 87.7479 2.816 87.7479 6.848V19.952ZM103.353 4.4H107.493V26H111.453V4.4H115.593V0.799998H103.353V4.4ZM118.993 6.848C118.993 14.048 126.733 15.02 126.733 20.204C126.733 22.004 125.941 22.652 124.681 22.652C123.421 22.652 122.629 22.004 122.629 20.204V18.404H118.885V19.952C118.885 23.984 120.901 26.288 124.789 26.288C128.677 26.288 130.693 23.984 130.693 19.952C130.693 12.752 122.953 11.78 122.953 6.596C122.953 4.796 123.673 4.112 124.933 4.112C126.193 4.112 126.913 4.796 126.913 6.596V7.64H130.657V6.848C130.657 2.816 128.677 0.512 124.825 0.512C120.973 0.512 118.993 2.816 118.993 6.848Z" fill="#333333"/>
</svg>
