<svg width="131.235840" height="25.919922" viewBox="0 0 131.236 25.9199" fill="none" xmlns="http://www.w3.org/2000/svg" xmlns:xlink="http://www.w3.org/1999/xlink">
	<desc>
			Created with Pixso.
	</desc>
	<defs/>
	<path id="Logo" d="M-7.41482e-05 0.359764L5.83193 0.359764C7.79993 0.359764 9.27593 0.887764 10.2599 1.94376C11.2439 2.99976 11.7359 4.54776 11.7359 6.58776L11.7359 9.07176C11.7359 11.1118 11.2439 12.6598 10.2599 13.7158C9.27593 14.7718 7.79993 15.2998 5.83193 15.2998L3.95993 15.2998L3.95993 25.5598L-7.41482e-05 25.5598L-7.41482e-05 0.359764ZM5.83193 11.6998C6.47993 11.6998 6.95993 11.5198 7.27193 11.1598C7.60793 10.7998 7.77593 10.1878 7.77593 9.32376L7.77593 6.33576C7.77593 5.47176 7.60793 4.85976 7.27193 4.49976C6.95993 4.13976 6.47993 3.95976 5.83193 3.95976L3.95993 3.95976L3.95993 11.6998L5.83193 11.6998ZM21.7706 25.9198C19.8266 25.9198 18.3386 25.3678 17.3066 24.2638C16.2746 23.1598 15.7586 21.5998 15.7586 19.5838L15.7586 6.33576C15.7586 4.31976 16.2746 2.75976 17.3066 1.65576C18.3386 0.551764 19.8266 -0.000236511 21.7706 -0.000236511C23.7146 -0.000236511 25.2026 0.551764 26.2346 1.65576C27.2666 2.75976 27.7826 4.31976 27.7826 6.33576L27.7826 19.5838C27.7826 21.5998 27.2666 23.1598 26.2346 24.2638C25.2026 25.3678 23.7146 25.9198 21.7706 25.9198ZM21.7706 22.3198C23.1386 22.3198 23.8226 21.4918 23.8226 19.8358L23.8226 6.08377C23.8226 4.42776 23.1386 3.59976 21.7706 3.59976C20.4026 3.59976 19.7186 4.42776 19.7186 6.08377L19.7186 19.8358C19.7186 21.4918 20.4026 22.3198 21.7706 22.3198ZM35.5761 3.95976L31.4361 3.95976L31.4361 0.359764L43.6761 0.359764L43.6761 3.95976L39.5361 3.95976L39.5361 25.5598L35.5761 25.5598L35.5761 3.95976ZM47.7534 0.359764L53.6214 0.359764C55.6614 0.359764 57.1494 0.839764 58.0854 1.79976C59.0214 2.73576 59.4894 4.18776 59.4894 6.15576L59.4894 7.70376C59.4894 10.3198 58.6254 11.9758 56.8974 12.6718L56.8974 12.7438C57.8574 13.0318 58.5294 13.6198 58.9134 14.5078C59.3214 15.3958 59.5254 16.5838 59.5254 18.0718L59.5254 22.4998C59.5254 23.2198 59.5494 23.8078 59.5974 24.2638C59.6454 24.6958 59.7654 25.1278 59.9574 25.5598L55.9254 25.5598C55.7814 25.1518 55.6854 24.7678 55.6374 24.4078C55.5894 24.0478 55.5654 23.3998 55.5654 22.4638L55.5654 17.8558C55.5654 16.7038 55.3734 15.8998 54.9894 15.4438C54.6294 14.9878 53.9934 14.7598 53.0814 14.7598L51.7134 14.7598L51.7134 25.5598L47.7534 25.5598L47.7534 0.359764ZM53.1534 11.1598C53.9454 11.1598 54.5334 10.9558 54.9174 10.5478C55.3254 10.1398 55.5294 9.45576 55.5294 8.49576L55.5294 6.55177C55.5294 5.63976 55.3614 4.97976 55.0254 4.57176C54.7134 4.16376 54.2094 3.95976 53.5134 3.95976L51.7134 3.95976L51.7134 11.1598L53.1534 11.1598ZM72.3585 0.359764L78.1905 0.359764C80.1585 0.359764 81.6345 0.887764 82.6185 1.94376C83.6025 2.99976 84.0945 4.54776 84.0945 6.58776L84.0945 9.07176C84.0945 11.1118 83.6025 12.6598 82.6185 13.7158C81.6345 14.7718 80.1585 15.2998 78.1905 15.2998L76.3185 15.2998L76.3185 25.5598L72.3585 25.5598L72.3585 0.359764ZM78.1905 11.6998C78.8385 11.6998 79.3185 11.5198 79.6305 11.1598C79.9665 10.7998 80.1345 10.1878 80.1345 9.32376L80.1345 6.33576C80.1345 5.47176 79.9665 4.85976 79.6305 4.49976C79.3185 4.13976 78.8385 3.95976 78.1905 3.95976L76.3185 3.95976L76.3185 11.6998L78.1905 11.6998ZM94.1292 25.9198C92.1852 25.9198 90.6972 25.3678 89.6652 24.2638C88.6332 23.1598 88.1172 21.5998 88.1172 19.5838L88.1172 6.33576C88.1172 4.31976 88.6332 2.75976 89.6652 1.65576C90.6972 0.551764 92.1852 -0.000236511 94.1292 -0.000236511C96.0732 -0.000236511 97.5612 0.551764 98.5932 1.65576C99.6252 2.75976 100.141 4.31976 100.141 6.33576L100.141 19.5838C100.141 21.5998 99.6252 23.1598 98.5932 24.2638C97.5612 25.3678 96.0732 25.9198 94.1292 25.9198ZM94.1292 22.3198C95.4972 22.3198 96.1812 21.4918 96.1812 19.8358L96.1812 6.08377C96.1812 4.42776 95.4972 3.59976 94.1292 3.59976C92.7612 3.59976 92.0772 4.42776 92.0772 6.08377L92.0772 19.8358C92.0772 21.4918 92.7612 22.3198 94.1292 22.3198ZM107.935 3.95976L103.795 3.95976L103.795 0.359764L116.035 0.359764L116.035 3.95976L111.895 3.95976L111.895 25.5598L107.935 25.5598L107.935 3.95976ZM125.26 25.9198C123.34 25.9198 121.888 25.3798 120.904 24.2998C119.92 23.1958 119.428 21.6238 119.428 19.5838L119.428 18.1438L123.172 18.1438L123.172 19.8718C123.172 21.5038 123.856 22.3198 125.224 22.3198C125.896 22.3198 126.4 22.1278 126.736 21.7438C127.096 21.3358 127.276 20.6878 127.276 19.7998C127.276 18.7438 127.036 17.8198 126.556 17.0278C126.076 16.2118 125.188 15.2398 123.892 14.1118C122.26 12.6718 121.12 11.3758 120.472 10.2238C119.824 9.04776 119.5 7.72776 119.5 6.26376C119.5 4.27176 120.004 2.73577 121.012 1.65576C122.02 0.551764 123.484 -0.000236511 125.404 -0.000236511C127.3 -0.000236511 128.728 0.551764 129.688 1.65576C130.672 2.73577 131.164 4.29576 131.164 6.33576L131.164 7.37976L127.42 7.37976L127.42 6.08377C127.42 5.21976 127.252 4.59576 126.916 4.21176C126.58 3.80376 126.088 3.59976 125.44 3.59976C124.12 3.59976 123.46 4.40376 123.46 6.01176C123.46 6.92376 123.7 7.77576 124.18 8.56776C124.684 9.35976 125.584 10.3198 126.88 11.4478C128.536 12.8878 129.676 14.1958 130.3 15.3718C130.924 16.5478 131.236 17.9278 131.236 19.5118C131.236 21.5758 130.72 23.1598 129.688 24.2638C128.68 25.3678 127.204 25.9198 125.26 25.9198Z" fill="#333333" fill-opacity="1.000000" fill-rule="evenodd"/>
</svg>
