<svg width="50" height="17" viewBox="0 0 132 27" fill="none" xmlns="http://www.w3.org/2000/svg">
<path d="M0.476 1.11347H6.308C8.276 1.11347 9.752 1.64148 10.736 2.69748C11.72 3.75348 12.212 5.30148 12.212 7.34148V9.82548C12.212 11.8655 11.72 13.4135 10.736 14.4695C9.752 15.5255 8.276 16.0535 6.308 16.0535H4.436V26.3135H0.476V1.11347ZM6.308 12.4535C6.956 12.4535 7.436 12.2735 7.748 11.9135C8.084 11.5535 8.252 10.9415 8.252 10.0775V7.08948C8.252 6.22547 8.084 5.61347 7.748 5.25348C7.436 4.89348 6.956 4.71348 6.308 4.71348H4.436V12.4535H6.308ZM22.2467 26.6735C20.3027 26.6735 18.8147 26.1215 17.7827 25.0175C16.7507 23.9135 16.2347 22.3535 16.2347 20.3375V7.08948C16.2347 5.07348 16.7507 3.51348 17.7827 2.40948C18.8147 1.30548 20.3027 0.753475 22.2467 0.753475C24.1907 0.753475 25.6787 1.30548 26.7107 2.40948C27.7427 3.51348 28.2587 5.07348 28.2587 7.08948V20.3375C28.2587 22.3535 27.7427 23.9135 26.7107 25.0175C25.6787 26.1215 24.1907 26.6735 22.2467 26.6735ZM22.2467 23.0735C23.6147 23.0735 24.2987 22.2455 24.2987 20.5895V6.83748C24.2987 5.18148 23.6147 4.35348 22.2467 4.35348C20.8787 4.35348 20.1947 5.18148 20.1947 6.83748V20.5895C20.1947 22.2455 20.8787 23.0735 22.2467 23.0735ZM36.0522 4.71348H31.9122V1.11347H44.1522V4.71348H40.0122V26.3135H36.0522V4.71348ZM48.2294 1.11347H54.0974C56.1374 1.11347 57.6254 1.59348 58.5614 2.55348C59.4974 3.48948 59.9654 4.94147 59.9654 6.90948V8.45748C59.9654 11.0735 59.1014 12.7295 57.3734 13.4255V13.4975C58.3334 13.7855 59.0054 14.3735 59.3894 15.2615C59.7974 16.1495 60.0014 17.3375 60.0014 18.8255V23.2535C60.0014 23.9735 60.0254 24.5615 60.0734 25.0175C60.1214 25.4495 60.2414 25.8815 60.4334 26.3135H56.4014C56.2574 25.9055 56.1614 25.5215 56.1134 25.1615C56.0654 24.8015 56.0414 24.1535 56.0414 23.2175V18.6095C56.0414 17.4575 55.8494 16.6535 55.4654 16.1975C55.1054 15.7415 54.4694 15.5135 53.5574 15.5135H52.1894V26.3135H48.2294V1.11347ZM53.6294 11.9135C54.4214 11.9135 55.0094 11.7095 55.3934 11.3015C55.8014 10.8935 56.0054 10.2095 56.0054 9.24948V7.30548C56.0054 6.39348 55.8374 5.73348 55.5014 5.32548C55.1894 4.91748 54.6854 4.71348 53.9894 4.71348H52.1894V11.9135H53.6294ZM72.8346 1.11347H78.6666C80.6346 1.11347 82.1106 1.64148 83.0946 2.69748C84.0786 3.75348 84.5706 5.30148 84.5706 7.34148V9.82548C84.5706 11.8655 84.0786 13.4135 83.0946 14.4695C82.1106 15.5255 80.6346 16.0535 78.6666 16.0535H76.7946V26.3135H72.8346V1.11347ZM78.6666 12.4535C79.3146 12.4535 79.7946 12.2735 80.1066 11.9135C80.4426 11.5535 80.6106 10.9415 80.6106 10.0775V7.08948C80.6106 6.22547 80.4426 5.61347 80.1066 5.25348C79.7946 4.89348 79.3146 4.71348 78.6666 4.71348H76.7946V12.4535H78.6666ZM94.6053 26.6735C92.6613 26.6735 91.1733 26.1215 90.1413 25.0175C89.1093 23.9135 88.5933 22.3535 88.5933 20.3375V7.08948C88.5933 5.07348 89.1093 3.51348 90.1413 2.40948C91.1733 1.30548 92.6613 0.753475 94.6053 0.753475C96.5493 0.753475 98.0373 1.30548 99.0693 2.40948C100.101 3.51348 100.617 5.07348 100.617 7.08948V20.3375C100.617 22.3535 100.101 23.9135 99.0693 25.0175C98.0373 26.1215 96.5493 26.6735 94.6053 26.6735ZM94.6053 23.0735C95.9733 23.0735 96.6573 22.2455 96.6573 20.5895V6.83748C96.6573 5.18148 95.9733 4.35348 94.6053 4.35348C93.2373 4.35348 92.5533 5.18148 92.5533 6.83748V20.5895C92.5533 22.2455 93.2373 23.0735 94.6053 23.0735ZM108.411 4.71348H104.271V1.11347H116.511V4.71348H112.371V26.3135H108.411V4.71348ZM125.736 26.6735C123.816 26.6735 122.364 26.1335 121.38 25.0535C120.396 23.9495 119.904 22.3775 119.904 20.3375V18.8975H123.648V20.6255C123.648 22.2575 124.332 23.0735 125.7 23.0735C126.372 23.0735 126.876 22.8815 127.212 22.4975C127.572 22.0895 127.752 21.4415 127.752 20.5535C127.752 19.4975 127.512 18.5735 127.032 17.7815C126.552 16.9655 125.664 15.9935 124.368 14.8655C122.736 13.4255 121.596 12.1295 120.948 10.9775C120.3 9.80148 119.976 8.48148 119.976 7.01748C119.976 5.02548 120.48 3.48948 121.488 2.40948C122.496 1.30548 123.96 0.753475 125.88 0.753475C127.776 0.753475 129.204 1.30548 130.164 2.40948C131.148 3.48948 131.64 5.04948 131.64 7.08948V8.13348H127.896V6.83748C127.896 5.97348 127.728 5.34948 127.392 4.96547C127.056 4.55748 126.564 4.35348 125.916 4.35348C124.596 4.35348 123.936 5.15748 123.936 6.76548C123.936 7.67748 124.176 8.52948 124.656 9.32148C125.16 10.1135 126.06 11.0735 127.356 12.2015C129.012 13.6415 130.152 14.9495 130.776 16.1255C131.4 17.3015 131.712 18.6815 131.712 20.2655C131.712 22.3295 131.196 23.9135 130.164 25.0175C129.156 26.1215 127.68 26.6735 125.736 26.6735Z" fill="white"/>
</svg>
