<svg width="870" height="202" viewBox="0 0 870 202" fill="none" xmlns="http://www.w3.org/2000/svg">
<path d="M0.808001 0.399986V-0.600014H-0.191999V0.399986H0.808001ZM46.024 0.399986L47.0144 0.261608L46.894 -0.600014H46.024V0.399986ZM66.184 144.688L65.1936 144.826L65.314 145.688H66.184V144.688ZM66.76 144.688V145.688H67.63L67.7504 144.826L66.76 144.688ZM86.92 0.399986V-0.600014H86.05L85.9296 0.261608L86.92 0.399986ZM132.136 0.399986H133.136V-0.600014H132.136V0.399986ZM132.136 202V203H133.136V202H132.136ZM102.184 202H101.184V203H102.184V202ZM102.184 49.36H103.184V48.36H102.184V49.36ZM101.608 49.36V48.36H100.748L100.619 49.2107L101.608 49.36ZM78.568 202V203H79.4284L79.5568 202.149L78.568 202ZM52.072 202L51.0832 202.149L51.2116 203H52.072V202ZM29.032 49.36L30.0208 49.2107L29.8924 48.36H29.032V49.36ZM28.456 49.36V48.36H27.456V49.36H28.456ZM28.456 202V203H29.456V202H28.456ZM0.808001 202H-0.191999V203H0.808001V202ZM0.808001 1.39999H46.024V-0.600014H0.808001V1.39999ZM45.0336 0.538364L65.1936 144.826L67.1744 144.55L47.0144 0.261608L45.0336 0.538364ZM66.184 145.688H66.76V143.688H66.184V145.688ZM67.7504 144.826L87.9104 0.538364L85.9296 0.261608L65.7696 144.55L67.7504 144.826ZM86.92 1.39999H132.136V-0.600014H86.92V1.39999ZM131.136 0.399986V202H133.136V0.399986H131.136ZM132.136 201H102.184V203H132.136V201ZM103.184 202V49.36H101.184V202H103.184ZM102.184 48.36H101.608V50.36H102.184V48.36ZM100.619 49.2107L77.5792 201.851L79.5568 202.149L102.597 49.5092L100.619 49.2107ZM78.568 201H52.072V203H78.568V201ZM53.0608 201.851L30.0208 49.2107L28.0432 49.5092L51.0832 202.149L53.0608 201.851ZM29.032 48.36H28.456V50.36H29.032V48.36ZM27.456 49.36V202H29.456V49.36H27.456ZM28.456 201H0.808001V203H28.456V201ZM1.808 202V0.399986H-0.191999V202H1.808ZM224.897 0.399986V-0.600014H224.046L223.91 0.239246L224.897 0.399986ZM267.809 0.399986L268.796 0.239246L268.659 -0.600014H267.809V0.399986ZM300.641 202V203H301.817L301.628 201.839L300.641 202ZM268.961 202L267.971 202.142L268.094 203H268.961V202ZM263.201 161.968L264.191 161.826L262.201 161.968H263.201ZM263.201 162.544V163.544H264.201V162.544H263.201ZM227.201 162.544V161.544H226.336L226.211 162.4L227.201 162.544ZM221.441 202V203H222.305L222.43 202.144L221.441 202ZM192.065 202L191.078 201.839L190.889 203H192.065V202ZM259.457 135.184V136.184H260.608L260.447 135.044L259.457 135.184ZM245.345 35.536L246.335 35.3958L246.213 34.536H245.345V35.536ZM244.769 35.536V34.536H243.898L243.778 35.3986L244.769 35.536ZM230.945 135.184L229.954 135.047L229.796 136.184H230.945V135.184ZM224.897 1.39999H267.809V-0.600014H224.897V1.39999ZM266.822 0.560726L299.654 202.161L301.628 201.839L268.796 0.239246L266.822 0.560726ZM300.641 201H268.961V203H300.641V201ZM269.951 201.858L264.191 161.826L262.211 162.11L267.971 202.142L269.951 201.858ZM262.201 161.968V162.544H264.201V161.968H262.201ZM263.201 161.544H227.201V163.544H263.201V161.544ZM226.211 162.4L220.451 201.856L222.43 202.144L228.19 162.688L226.211 162.4ZM221.441 201H192.065V203H221.441V201ZM193.052 202.161L225.884 0.560726L223.91 0.239246L191.078 201.839L193.052 202.161ZM260.447 135.044L246.335 35.3958L244.355 35.6762L258.467 135.324L260.447 135.044ZM245.345 34.536H244.769V36.536H245.345V34.536ZM243.778 35.3986L229.954 135.047L231.935 135.321L245.759 35.6734L243.778 35.3986ZM230.945 136.184H259.457V134.184H230.945V136.184ZM360.651 0.399986V-0.600014H359.651V0.399986H360.651ZM443.306 11.92L442.59 12.6181L442.599 12.6271L443.306 11.92ZM433.802 98.896L433.429 97.9684L432.802 98.2207V98.896H433.802ZM433.802 99.472H432.802V100.216L433.515 100.43L433.802 99.472ZM449.931 113.584L449.013 113.981L449.017 113.991L449.022 114.001L449.931 113.584ZM455.402 191.632L454.408 191.737L454.409 191.742L455.402 191.632ZM458.283 202V203H459.821L459.196 201.594L458.283 202ZM426.026 202L425.083 202.333L425.319 203H426.026V202ZM418.539 121.072L417.754 121.692L417.763 121.704L417.774 121.716L418.539 121.072ZM392.331 115.6V114.6H391.331V115.6H392.331ZM392.331 202V203H393.331V202H392.331ZM360.651 202H359.651V203H360.651V202ZM417.962 81.904L417.255 81.1969L417.245 81.2076L417.234 81.2186L417.962 81.904ZM418.827 34.096L418.032 34.7034L418.043 34.7178L418.055 34.7317L418.827 34.096ZM392.331 29.2V28.2H391.331V29.2H392.331ZM392.331 86.8H391.331V87.8H392.331V86.8ZM360.651 1.39999H407.595V-0.600014H360.651V1.39999ZM407.595 1.39999C423.784 1.39999 435.369 5.21185 442.591 12.6181L444.022 11.2219C436.268 3.26813 424.045 -0.600014 407.595 -0.600014V1.39999ZM442.599 12.6271C449.825 19.8531 453.539 31.1612 453.539 46.768H455.539C455.539 30.8868 451.764 18.9628 444.014 11.2129L442.599 12.6271ZM453.539 46.768V59.152H455.539V46.768H453.539ZM453.539 59.152C453.539 69.5157 451.826 77.8858 448.468 84.3214C445.122 90.7349 440.119 95.2737 433.429 97.9684L434.176 99.8236C441.31 96.9503 446.675 92.0811 450.241 85.2466C453.795 78.4342 455.539 69.7163 455.539 59.152H453.539ZM432.802 98.896V99.472H434.802V98.896H432.802ZM433.515 100.43C440.924 102.653 446.063 107.159 449.013 113.981L450.848 113.187C447.654 105.801 442.041 100.899 434.09 98.5142L433.515 100.43ZM449.022 114.001C452.203 120.924 453.827 130.268 453.827 142.096H455.827C455.827 130.116 454.186 120.452 450.839 113.166L449.022 114.001ZM453.827 142.096V177.52H455.827V142.096H453.827ZM453.827 177.52C453.827 183.298 454.019 188.04 454.408 191.737L456.397 191.527C456.018 187.928 455.827 183.262 455.827 177.52H453.827ZM454.409 191.742C454.805 195.309 455.795 198.864 457.369 202.406L459.196 201.594C457.698 198.224 456.768 194.867 456.396 191.522L454.409 191.742ZM458.283 201H426.026V203H458.283V201ZM426.969 201.667C425.836 198.456 425.087 195.452 424.714 192.652L422.731 192.916C423.126 195.876 423.913 199.016 425.083 202.333L426.969 201.667ZM424.714 192.652C424.34 189.846 424.147 184.723 424.147 177.232H422.147C422.147 184.716 422.337 189.962 422.731 192.916L424.714 192.652ZM424.147 177.232V140.368H422.147V177.232H424.147ZM424.147 140.368C424.147 131.106 422.616 124.361 419.303 120.428L417.774 121.716C420.605 125.079 422.147 131.198 422.147 140.368H424.147ZM419.323 120.452C416.167 116.454 410.701 114.6 403.275 114.6V116.6C410.44 116.6 415.151 118.394 417.754 121.692L419.323 120.452ZM403.275 114.6H392.331V116.6H403.275V114.6ZM391.331 115.6V202H393.331V115.6H391.331ZM392.331 201H360.651V203H392.331V201ZM361.651 202V0.399986H359.651V202H361.651ZM403.85 87.8C410.346 87.8 415.363 86.1256 418.691 82.5894L417.234 81.2186C414.418 84.2104 410.027 85.8 403.85 85.8V87.8ZM418.67 82.6111C422.213 79.0678 423.858 73.2666 423.858 65.488H421.858C421.858 73.0694 420.24 78.2122 417.255 81.1969L418.67 82.6111ZM423.858 65.488V49.936H421.858V65.488H423.858ZM423.858 49.936C423.858 42.5606 422.508 36.9935 419.598 33.4603L418.055 34.7317C420.521 37.7265 421.858 42.7194 421.858 49.936H423.858ZM419.621 33.4885C416.874 29.896 412.491 28.2 406.73 28.2V30.2C412.106 30.2 415.787 31.768 418.032 34.7034L419.621 33.4885ZM406.73 28.2H392.331V30.2H406.73V28.2ZM391.331 29.2V86.8H393.331V29.2H391.331ZM392.331 87.8H403.85V85.8H392.331V87.8ZM545.652 29.2H546.652V28.2H545.652V29.2ZM512.532 29.2H511.532V30.2H512.532V29.2ZM512.532 0.399986V-0.600014H511.532V0.399986H512.532ZM610.452 0.399986H611.452V-0.600014H610.452V0.399986ZM610.452 29.2V30.2H611.452V29.2H610.452ZM577.332 29.2V28.2H576.332V29.2H577.332ZM577.332 202V203H578.332V202H577.332ZM545.652 202H544.652V203H545.652V202ZM545.652 28.2H512.532V30.2H545.652V28.2ZM513.532 29.2V0.399986H511.532V29.2H513.532ZM512.532 1.39999H610.452V-0.600014H512.532V1.39999ZM609.452 0.399986V29.2H611.452V0.399986H609.452ZM610.452 28.2H577.332V30.2H610.452V28.2ZM576.332 29.2V202H578.332V29.2H576.332ZM577.332 201H545.652V203H577.332V201ZM546.652 202V29.2H544.652V202H546.652ZM670.43 0.399986V-0.600014H669.43V0.399986H670.43ZM702.11 0.399986H703.11V-0.600014H702.11V0.399986ZM702.11 202V203H703.11V202H702.11ZM670.43 202H669.43V203H670.43V202ZM670.43 1.39999H702.11V-0.600014H670.43V1.39999ZM701.11 0.399986V202H703.11V0.399986H701.11ZM702.11 201H670.43V203H702.11V201ZM671.43 202V0.399986H669.43V202H671.43ZM770.477 0.399986V-0.600014H769.477V0.399986H770.477ZM810.221 0.399986L811.19 0.152557L810.997 -0.600014H810.221V0.399986ZM841.037 121.072L840.068 121.319L840.26 122.072H841.037V121.072ZM841.613 121.072V122.072H842.613V121.072H841.613ZM841.613 0.399986V-0.600014H840.613V0.399986H841.613ZM869.837 0.399986H870.837V-0.600014H869.837V0.399986ZM869.837 202V203H870.837V202H869.837ZM837.293 202L836.325 202.25L836.518 203H837.293V202ZM799.277 54.832L800.245 54.5819L800.051 53.832H799.277V54.832ZM798.701 54.832V53.832H797.701V54.832H798.701ZM798.701 202V203H799.701V202H798.701ZM770.477 202H769.477V203H770.477V202ZM770.477 1.39999H810.221V-0.600014H770.477V1.39999ZM809.252 0.647415L840.068 121.319L842.006 120.825L811.19 0.152557L809.252 0.647415ZM841.037 122.072H841.613V120.072H841.037V122.072ZM842.613 121.072V0.399986H840.613V121.072H842.613ZM841.613 1.39999H869.837V-0.600014H841.613V1.39999ZM868.837 0.399986V202H870.837V0.399986H868.837ZM869.837 201H837.293V203H869.837V201ZM838.261 201.75L800.245 54.5819L798.309 55.0821L836.325 202.25L838.261 201.75ZM799.277 53.832H798.701V55.832H799.277V53.832ZM797.701 54.832V202H799.701V54.832H797.701ZM798.701 201H770.477V203H798.701V201ZM771.477 202V0.399986H769.477V202H771.477Z" fill="#03839E"/>
</svg>
