<svg width="34" height="34" viewBox="0 0 34 34" fill="none" xmlns="http://www.w3.org/2000/svg">
<path d="M33.7346 17C33.7346 22.525 29.2721 27.0406 23.6939 27.0406C18.1689 27.0406 13.6533 22.525 13.6533 17C13.6533 11.475 18.1158 6.95938 23.6408 6.95938C29.2721 6.95938 33.7346 11.475 33.7346 17Z" fill="#FFB600"/>
<path d="M23.6939 6.95938C29.2189 6.95938 33.7346 11.475 33.7346 17C33.7346 22.525 29.2721 27.0406 23.6939 27.0406C18.1689 27.0406 13.6533 22.525 13.6533 17" fill="#F7981D"/>
<path d="M23.6938 6.95938C29.2188 6.95938 33.7345 11.475 33.7345 17C33.7345 22.525 29.272 27.0406 23.6938 27.0406" fill="#FF8500"/>
<path d="M10.2 6.95938C4.72813 7.01251 0.265625 11.475 0.265625 17C0.265625 22.525 4.72812 27.0406 10.3062 27.0406C12.9094 27.0406 15.2469 26.0313 17.0531 24.4375C17.425 24.1188 17.7437 23.7469 18.0625 23.375H15.9906C15.725 23.0563 15.4594 22.6844 15.2469 22.3656H18.8063C19.0188 22.0469 19.2313 21.675 19.3906 21.3031H14.6625C14.5031 20.9844 14.3438 20.6125 14.2375 20.2406H19.7625C20.0813 19.2313 20.2938 18.1688 20.2938 17.0531C20.2938 16.3094 20.1875 15.6188 20.0812 14.9281H13.9188C13.9719 14.5563 14.0781 14.2375 14.1844 13.8656H19.7094C19.6031 13.4938 19.4438 13.1219 19.2844 12.8031H14.6094C14.7688 12.4313 14.9812 12.1125 15.1938 11.7406H18.7531C18.5406 11.3688 18.275 10.9969 17.9562 10.6781H15.9906C16.3094 10.3063 16.6281 9.98751 17 9.66876C15.2469 8.02188 12.8562 7.06563 10.2531 7.06563C10.2531 6.95938 10.2531 6.95938 10.2 6.95938Z" fill="#FF5050"/>
<path d="M0.265625 17C0.265625 22.525 4.72812 27.0406 10.3062 27.0406C12.9094 27.0406 15.2469 26.0313 17.0531 24.4375C17.425 24.1188 17.7437 23.7469 18.0625 23.375H15.9906C15.725 23.0563 15.4594 22.6844 15.2469 22.3656H18.8063C19.0188 22.0469 19.2313 21.675 19.3906 21.3031H14.6625C14.5031 20.9844 14.3438 20.6125 14.2375 20.2406H19.7625C20.0813 19.2313 20.2938 18.1688 20.2938 17.0531C20.2938 16.3094 20.1875 15.6188 20.0812 14.9281H13.9188C13.9719 14.5563 14.0781 14.2375 14.1844 13.8656H19.7094C19.6031 13.4938 19.4438 13.1219 19.2844 12.8031H14.6094C14.7688 12.4313 14.9812 12.1125 15.1938 11.7406H18.7531C18.5406 11.3688 18.275 10.9969 17.9562 10.6781H15.9906C16.3094 10.3063 16.6281 9.9875 17 9.66875C15.2469 8.02188 12.8562 7.06563 10.2531 7.06563H10.2" fill="#E52836"/>
<path d="M10.3064 27.0406C12.9096 27.0406 15.2471 26.0313 17.0533 24.4375C17.4252 24.1188 17.7439 23.7469 18.0627 23.375H15.9908C15.7252 23.0563 15.4596 22.6844 15.2471 22.3656H18.8064C19.0189 22.0469 19.2314 21.675 19.3908 21.3031H14.6627C14.5033 20.9844 14.3439 20.6125 14.2377 20.2406H19.7627C20.0814 19.2313 20.2939 18.1688 20.2939 17.0531C20.2939 16.3094 20.1877 15.6188 20.0814 14.9281H13.9189C13.9721 14.5563 14.0783 14.2375 14.1846 13.8656H19.7096C19.6033 13.4938 19.4439 13.1219 19.2846 12.8031H14.6096C14.7689 12.4313 14.9814 12.1125 15.1939 11.7406H18.7533C18.5408 11.3688 18.2752 10.9969 17.9564 10.6781H15.9908C16.3096 10.3063 16.6283 9.9875 17.0002 9.66875C15.2471 8.02188 12.8564 7.06563 10.2533 7.06563H10.2002" fill="#CB2026"/>
<path d="M13.8653 19.55L14.0247 18.6469C13.9716 18.6469 13.8653 18.7 13.7591 18.7C13.3872 18.7 13.3341 18.4875 13.3872 18.3812L13.706 16.5219H14.2903L14.4497 15.5125H13.9185L14.0247 14.875H12.9622C12.9622 14.875 12.3247 18.3813 12.3247 18.8063C12.3247 19.4438 12.6966 19.7094 13.1747 19.7094C13.4935 19.7094 13.7591 19.6031 13.8653 19.55Z" fill="white"/>
<path d="M14.2373 17.85C14.2373 19.3375 15.2467 19.7094 16.0967 19.7094C16.8936 19.7094 17.2123 19.55 17.2123 19.55L17.4248 18.5406C17.4248 18.5406 16.8404 18.8063 16.3092 18.8063C15.1404 18.8063 15.3529 17.9563 15.3529 17.9563H17.5311C17.5311 17.9563 17.6904 17.2656 17.6904 17C17.6904 16.3094 17.3186 15.4594 16.1498 15.4594C15.0342 15.3531 14.2373 16.5219 14.2373 17.85ZM16.0967 16.3094C16.6811 16.3094 16.5748 17 16.5748 17.0531H15.4061C15.4061 17 15.5123 16.3094 16.0967 16.3094Z" fill="white"/>
<path d="M22.8438 19.55L23.0563 18.3813C23.0563 18.3813 22.525 18.6469 22.1531 18.6469C21.4094 18.6469 21.0906 18.0625 21.0906 17.425C21.0906 16.15 21.7281 15.4594 22.4719 15.4594C23.0031 15.4594 23.4281 15.7781 23.4281 15.7781L23.5875 14.6625C23.5875 14.6625 22.95 14.3969 22.3656 14.3969C21.1437 14.3969 19.9219 15.4594 19.9219 17.4781C19.9219 18.8063 20.5594 19.7094 21.8344 19.7094C22.2594 19.7094 22.8438 19.55 22.8438 19.55Z" fill="white"/>
<path d="M8.02168 15.3531C7.27793 15.3531 6.74668 15.5656 6.74668 15.5656L6.5873 16.4688C6.5873 16.4688 7.06543 16.2563 7.75605 16.2563C8.12793 16.2563 8.44668 16.3094 8.44668 16.6281C8.44668 16.8406 8.39355 16.8938 8.39355 16.8938C8.39355 16.8938 8.0748 16.8938 7.91543 16.8938C7.0123 16.8938 6.00293 17.2656 6.00293 18.4875C6.00293 19.4438 6.64043 19.6563 7.0123 19.6563C7.75605 19.6563 8.0748 19.1781 8.12793 19.1781L8.0748 19.6031H9.03105L9.45605 16.6813C9.45605 15.4063 8.39355 15.3531 8.02168 15.3531ZM8.23418 17.7438C8.23418 17.9031 8.12793 18.7531 7.49043 18.7531C7.17168 18.7531 7.06543 18.4875 7.06543 18.3281C7.06543 18.0625 7.2248 17.6906 8.02168 17.6906C8.18105 17.7438 8.23418 17.7438 8.23418 17.7438Z" fill="white"/>
<path d="M10.4655 19.6563C10.7312 19.6563 12.0593 19.7094 12.0593 18.275C12.0593 16.9469 10.7843 17.2125 10.7843 16.6813C10.7843 16.4156 10.9968 16.3094 11.3687 16.3094C11.528 16.3094 12.1124 16.3625 12.1124 16.3625L12.2718 15.4063C12.2718 15.4063 11.8999 15.3 11.2624 15.3C10.4655 15.3 9.66865 15.6188 9.66865 16.6813C9.66865 17.9031 10.9968 17.7969 10.9968 18.275C10.9968 18.5938 10.6249 18.6469 10.3593 18.6469C9.88115 18.6469 9.40303 18.4875 9.40303 18.4875L9.24365 19.4438C9.29678 19.55 9.5624 19.6563 10.4655 19.6563Z" fill="white"/>
<path d="M31.6624 14.5031L31.4499 15.9375C31.4499 15.9375 31.0249 15.4063 30.4405 15.4063C29.4843 15.4063 28.6343 16.575 28.6343 17.9563C28.6343 18.8063 29.0593 19.7094 29.9624 19.7094C30.5999 19.7094 30.9718 19.2844 30.9718 19.2844L30.9187 19.6563H31.9812L32.778 14.5563L31.6624 14.5031ZM31.1843 17.3188C31.1843 17.9031 30.9187 18.6469 30.3343 18.6469C29.9624 18.6469 29.7499 18.3281 29.7499 17.7969C29.7499 16.9469 30.1218 16.4156 30.5999 16.4156C30.9718 16.4156 31.1843 16.6813 31.1843 17.3188Z" fill="white"/>
<path d="M2.23105 19.6031L2.86855 15.7781L2.9748 19.6031H3.71855L5.09981 15.7781L4.51543 19.6031H5.63106L6.48106 14.5031H4.72793L3.66543 17.6375L3.6123 14.5031H2.07168L1.22168 19.6031H2.23105Z" fill="white"/>
<path d="M18.7 19.6031C19.0188 17.85 19.0719 16.4156 19.8156 16.6813C19.9219 15.9906 20.0812 15.725 20.1875 15.4594C20.1875 15.4594 20.1344 15.4594 19.975 15.4594C19.4969 15.4594 19.125 16.0969 19.125 16.0969L19.2313 15.5125H18.2219L17.5312 19.6563H18.7V19.6031Z" fill="white"/>
<path d="M25.2873 15.3531C24.5436 15.3531 24.0123 15.5656 24.0123 15.5656L23.8529 16.4688C23.8529 16.4688 24.3311 16.2563 25.0217 16.2563C25.3936 16.2563 25.7123 16.3094 25.7123 16.6281C25.7123 16.8406 25.6592 16.8938 25.6592 16.8938C25.6592 16.8938 25.3404 16.8938 25.1811 16.8938C24.2779 16.8938 23.2686 17.2656 23.2686 18.4875C23.2686 19.4438 23.9061 19.6563 24.2779 19.6563C25.0217 19.6563 25.3404 19.1781 25.3936 19.1781L25.3404 19.6031H26.2967L26.7217 16.6813C26.7748 15.4063 25.6592 15.3531 25.2873 15.3531ZM25.5529 17.7438C25.5529 17.9031 25.4467 18.7531 24.8092 18.7531C24.4904 18.7531 24.3842 18.4875 24.3842 18.3281C24.3842 18.0625 24.5436 17.6906 25.3404 17.6906C25.4998 17.7438 25.4998 17.7438 25.5529 17.7438Z" fill="white"/>
<path d="M27.6248 19.6031C27.9436 17.85 27.9967 16.4156 28.7404 16.6813C28.8467 15.9906 29.0061 15.725 29.1123 15.4594C29.1123 15.4594 29.0592 15.4594 28.8998 15.4594C28.4217 15.4594 28.0498 16.0969 28.0498 16.0969L28.1561 15.5125H27.1467L26.4561 19.6563H27.6248V19.6031Z" fill="white"/>
<path d="M12.2188 18.8063C12.2188 19.4438 12.5906 19.7094 13.0687 19.7094C13.4406 19.7094 13.7594 19.6031 13.8656 19.55L14.025 18.6469C13.9719 18.6469 13.8656 18.7 13.7594 18.7C13.3875 18.7 13.3344 18.4875 13.3875 18.3812L13.7062 16.5219H14.2906L14.45 15.5125H13.9187L14.025 14.875" fill="#DCE5E5"/>
<path d="M14.7686 17.85C14.7686 19.3375 15.2467 19.7094 16.0967 19.7094C16.8936 19.7094 17.2123 19.55 17.2123 19.55L17.4248 18.5406C17.4248 18.5406 16.8404 18.8063 16.3092 18.8063C15.1404 18.8063 15.3529 17.9563 15.3529 17.9563H17.5311C17.5311 17.9563 17.6904 17.2656 17.6904 17C17.6904 16.3094 17.3186 15.4594 16.1498 15.4594C15.0342 15.3531 14.7686 16.5219 14.7686 17.85ZM16.0967 16.3094C16.6811 16.3094 16.7873 17 16.7873 17.0531H15.4061C15.4061 17 15.5123 16.3094 16.0967 16.3094Z" fill="#DCE5E5"/>
<path d="M22.8438 19.55L23.0563 18.3813C23.0563 18.3813 22.525 18.6469 22.1531 18.6469C21.4094 18.6469 21.0906 18.0625 21.0906 17.425C21.0906 16.15 21.7281 15.4594 22.4719 15.4594C23.0031 15.4594 23.4281 15.7781 23.4281 15.7781L23.5875 14.6625C23.5875 14.6625 22.95 14.3969 22.3656 14.3969C21.1437 14.3969 20.4531 15.4594 20.4531 17.4781C20.4531 18.8063 20.5594 19.7094 21.8344 19.7094C22.2594 19.7094 22.8438 19.55 22.8438 19.55Z" fill="#DCE5E5"/>
<path d="M6.5873 16.5219C6.5873 16.5219 7.06543 16.3094 7.75605 16.3094C8.12793 16.3094 8.44668 16.3625 8.44668 16.6813C8.44668 16.8938 8.39355 16.9469 8.39355 16.9469C8.39355 16.9469 8.0748 16.9469 7.91543 16.9469C7.0123 16.9469 6.00293 17.3188 6.00293 18.5406C6.00293 19.4969 6.64043 19.7094 7.0123 19.7094C7.75605 19.7094 8.0748 19.2313 8.12793 19.2313L8.0748 19.6563H9.03105L9.45605 16.7344C9.45605 15.5125 8.39355 15.4594 7.96855 15.4594L6.5873 16.5219ZM8.76543 17.7438C8.76543 17.9031 8.12793 18.7531 7.49043 18.7531C7.17168 18.7531 7.06543 18.4875 7.06543 18.3281C7.06543 18.0625 7.2248 17.6906 8.02168 17.6906C8.18105 17.7438 8.76543 17.7438 8.76543 17.7438Z" fill="#DCE5E5"/>
<path d="M9.29688 19.55C9.29688 19.55 9.61562 19.6563 10.5187 19.6563C10.7844 19.6563 12.1125 19.7094 12.1125 18.275C12.1125 16.9469 10.8375 17.2125 10.8375 16.6813C10.8375 16.4156 11.05 16.3094 11.4219 16.3094C11.5813 16.3094 12.1656 16.3625 12.1656 16.3625L12.325 15.4063C12.325 15.4063 11.9531 15.3 11.3156 15.3C10.5187 15.3 10.2531 15.6188 10.2531 16.6813C10.2531 17.9031 11.05 17.7969 11.05 18.275C11.05 18.5938 10.6781 18.6469 10.4125 18.6469" fill="#DCE5E5"/>
<path d="M31.4499 15.9375C31.4499 15.9375 31.0249 15.4063 30.4405 15.4063C29.4842 15.4063 29.1655 16.575 29.1655 17.9563C29.1655 18.8063 29.0592 19.7094 29.9624 19.7094C30.5999 19.7094 30.9717 19.2844 30.9717 19.2844L30.9186 19.6563H31.9811L32.778 14.5563L31.4499 15.9375ZM31.3967 17.3188C31.3967 17.9031 30.9186 18.6469 30.3342 18.6469C29.9623 18.6469 29.7499 18.3281 29.7499 17.7969C29.7499 16.9469 30.1217 16.4156 30.5999 16.4156C30.9717 16.4156 31.3967 16.6813 31.3967 17.3188Z" fill="#DCE5E5"/>
<path d="M2.23105 19.6031L2.86855 15.7781L2.9748 19.6031H3.71855L5.09981 15.7781L4.51543 19.6031H5.63106L6.48106 14.5031H5.15293L3.66543 17.6375L3.6123 14.5031H3.02793L1.22168 19.6031H2.23105Z" fill="#DCE5E5"/>
<path d="M17.584 19.6031H18.6996C19.0184 17.85 19.0715 16.4156 19.8152 16.6813C19.9215 15.9906 20.0809 15.725 20.1871 15.4594C20.1871 15.4594 20.134 15.4594 19.9746 15.4594C19.4965 15.4594 19.1246 16.0969 19.1246 16.0969L19.2309 15.5125" fill="#DCE5E5"/>
<path d="M23.8529 16.5219C23.8529 16.5219 24.3311 16.3094 25.0217 16.3094C25.3936 16.3094 25.7123 16.3625 25.7123 16.6813C25.7123 16.8938 25.6592 16.9469 25.6592 16.9469C25.6592 16.9469 25.3404 16.9469 25.1811 16.9469C24.2779 16.9469 23.2686 17.3188 23.2686 18.5406C23.2686 19.4969 23.9061 19.7094 24.2779 19.7094C25.0217 19.7094 25.3404 19.2313 25.3936 19.2313L25.3404 19.6563H26.2967L26.7217 16.7344C26.7217 15.5125 25.6592 15.4594 25.2342 15.4594L23.8529 16.5219ZM26.0311 17.7438C26.0311 17.9031 25.3936 18.7531 24.7561 18.7531C24.4373 18.7531 24.3311 18.4875 24.3311 18.3281C24.3311 18.0625 24.4904 17.6906 25.2873 17.6906C25.4998 17.7438 26.0311 17.7438 26.0311 17.7438Z" fill="#DCE5E5"/>
<path d="M26.5093 19.6031H27.6249C27.9437 17.85 27.9968 16.4156 28.7405 16.6813C28.8468 15.9906 29.0062 15.725 29.1124 15.4594C29.1124 15.4594 29.0593 15.4594 28.8999 15.4594C28.4218 15.4594 28.0499 16.0969 28.0499 16.0969L28.1562 15.5125" fill="#DCE5E5"/>
</svg>
