<svg width="847" height="268" viewBox="0 0 847 268" fill="none" xmlns="http://www.w3.org/2000/svg">
<path d="M0.691014 1.83634H22.4834L32.1998 71.3778H32.4774L42.1938 1.83634H63.9862V99H49.5505V25.4332H49.2728L38.1684 99H25.3983L14.2939 25.4332H14.0163V99H0.691014V1.83634ZM103.835 1.83634H124.517L140.341 99H125.072L122.296 79.7061V79.9837H104.946L102.17 99H88.0114L103.835 1.83634ZM120.492 66.7972L113.69 18.7706H113.413L106.75 66.7972H120.492ZM169.972 15.7169H154.009V1.83634H201.203V15.7169H185.24V99H169.972V15.7169ZM225.252 1.83634H266.893V15.7169H240.52V41.3958H261.48V55.2764H240.52V85.1195H266.893V99H225.252V1.83634ZM292.334 1.83634H314.959C322.825 1.83634 328.562 3.68708 332.171 7.38855C335.78 10.9975 337.584 16.596 337.584 24.184V30.1526C337.584 40.2391 334.253 46.6242 327.59 49.3077V49.5853C331.292 50.6958 333.883 52.9629 335.363 56.3868C336.937 59.8107 337.723 64.3912 337.723 70.1285V87.2016C337.723 89.9777 337.816 92.2448 338.001 94.003C338.186 95.6687 338.648 97.3343 339.389 99H323.843C323.287 97.4269 322.917 95.9463 322.732 94.5582C322.547 93.1702 322.455 90.6717 322.455 87.0628V69.2957C322.455 64.8539 321.714 61.7539 320.234 59.9957C318.846 58.2375 316.393 57.3584 312.877 57.3584H307.602V99H292.334V1.83634ZM313.155 43.4779C316.208 43.4779 318.475 42.6913 319.956 41.1182C321.529 39.5451 322.316 36.9078 322.316 33.2063V25.7108C322.316 22.1944 321.668 19.6497 320.372 18.0766C319.169 16.5034 317.226 15.7169 314.543 15.7169H307.602V43.4779H313.155ZM364.973 1.83634H380.242V99H364.973V1.83634ZM420.132 1.83634H440.814L456.638 99H441.369L438.593 79.7061V79.9837H421.243L418.467 99H404.308L420.132 1.83634ZM436.789 66.7972L429.987 18.7706H429.71L423.047 66.7972H436.789ZM480.702 1.83634H495.971V85.1195H521.095V99H480.702V1.83634ZM564.922 100.388C557.519 100.388 551.921 98.306 548.127 94.1418C544.333 89.8851 542.436 83.824 542.436 75.9583V70.4061H556.872V77.0688C556.872 83.3613 559.509 86.5075 564.783 86.5075C567.375 86.5075 569.318 85.7672 570.613 84.2866C572.001 82.7135 572.695 80.215 572.695 76.7912C572.695 72.7195 571.77 69.1569 569.919 66.1032C568.069 62.9569 564.645 59.2092 559.648 54.8599C553.355 49.3077 548.96 44.3107 546.461 39.869C543.963 35.3347 542.713 30.2451 542.713 24.6004C542.713 16.9198 544.657 10.9975 548.543 6.83333C552.43 2.57663 558.075 0.448287 565.478 0.448287C572.788 0.448287 578.294 2.57663 581.995 6.83333C585.789 10.9975 587.686 17.0124 587.686 24.878V28.9034H573.251V23.9064C573.251 20.575 572.603 18.1691 571.307 16.6885C570.012 15.1154 568.115 14.3288 565.616 14.3288C560.527 14.3288 557.982 17.4288 557.982 23.6288C557.982 27.1452 558.907 30.4302 560.758 33.4839C562.701 36.5376 566.172 40.2391 571.169 44.5884C577.554 50.1406 581.949 55.1838 584.355 59.7181C586.761 64.2524 587.964 69.5733 587.964 75.6807C587.964 83.6389 585.974 89.7463 581.995 94.003C578.109 98.2597 572.418 100.388 564.922 100.388ZM664.061 1.83634H684.743L700.566 99H685.298L682.522 79.7061V79.9837H665.171L662.395 99H648.237L664.061 1.83634ZM680.717 66.7972L673.916 18.7706H673.638L666.976 66.7972H680.717ZM724.631 1.83634H743.786L758.638 59.9957H758.916V1.83634H772.519V99H756.834L738.511 28.0705H738.234V99H724.631V1.83634ZM800.524 1.83634H823.843C831.431 1.83634 837.122 3.87215 840.916 7.94377C844.71 12.0154 846.607 17.984 846.607 25.8496V74.9867C846.607 82.8523 844.71 88.8209 840.916 92.8926C837.122 96.9642 831.431 99 823.843 99H800.524V1.83634ZM823.565 85.1195C826.064 85.1195 827.961 84.3792 829.256 82.8986C830.644 81.418 831.338 79.012 831.338 75.6807V25.1556C831.338 21.8243 830.644 19.4183 829.256 17.9377C827.961 16.4572 826.064 15.7169 823.565 15.7169H815.792V85.1195H823.565ZM0.691014 168.836H41.0833V182.717H15.9596V209.784H35.6699V223.664H15.9596V266H0.691014V168.836ZM65.0619 168.836H106.704V182.717H80.3305V208.396H101.29V222.276H80.3305V252.119H106.704V266H65.0619V168.836ZM143.942 168.836H164.624L180.448 266H165.18L162.403 246.706V246.984H145.053L142.277 266H128.119L143.942 168.836ZM160.599 233.797L153.798 185.771H153.52L146.857 233.797H160.599ZM210.079 182.717H194.116V168.836H241.31V182.717H225.347V266H210.079V182.717ZM287.568 267.388C280.165 267.388 274.52 265.306 270.634 261.142C266.747 256.885 264.804 250.824 264.804 242.958V168.836H280.072V244.069C280.072 247.4 280.72 249.806 282.016 251.287C283.404 252.767 285.347 253.508 287.845 253.508C290.344 253.508 292.241 252.767 293.536 251.287C294.924 249.806 295.618 247.4 295.618 244.069V168.836H310.332V242.958C310.332 250.824 308.389 256.885 304.502 261.142C300.615 265.306 294.971 267.388 287.568 267.388ZM337.863 168.836H360.488C368.354 168.836 374.091 170.687 377.7 174.389C381.309 177.997 383.113 183.596 383.113 191.184V197.153C383.113 207.239 379.782 213.624 373.12 216.308V216.585C376.821 217.696 379.412 219.963 380.893 223.387C382.466 226.811 383.252 231.391 383.252 237.129V254.202C383.252 256.978 383.345 259.245 383.53 261.003C383.715 262.669 384.178 264.334 384.918 266H369.372C368.817 264.427 368.446 262.946 368.261 261.558C368.076 260.17 367.984 257.672 367.984 254.063V236.296C367.984 231.854 367.243 228.754 365.763 226.996C364.375 225.238 361.923 224.358 358.406 224.358H353.132V266H337.863V168.836ZM358.684 210.478C361.737 210.478 364.005 209.691 365.485 208.118C367.058 206.545 367.845 203.908 367.845 200.206V192.711C367.845 189.194 367.197 186.65 365.902 185.077C364.699 183.503 362.755 182.717 360.072 182.717H353.132V210.478H358.684ZM410.503 168.836H452.144V182.717H425.771V208.396H446.731V222.276H425.771V252.119H452.144V266H410.503V168.836ZM497.705 267.388C490.302 267.388 484.703 265.306 480.909 261.142C477.115 256.885 475.218 250.824 475.218 242.958V237.406H489.654V244.069C489.654 250.361 492.291 253.508 497.566 253.508C500.157 253.508 502.1 252.767 503.396 251.287C504.784 249.714 505.478 247.215 505.478 243.791C505.478 239.72 504.553 236.157 502.702 233.103C500.851 229.957 497.427 226.209 492.43 221.86C486.138 216.308 481.742 211.311 479.244 206.869C476.745 202.335 475.496 197.245 475.496 191.6C475.496 183.92 477.439 177.997 481.326 173.833C485.212 169.577 490.857 167.448 498.26 167.448C505.57 167.448 511.076 169.577 514.778 173.833C518.572 177.997 520.469 184.012 520.469 191.878V195.903H506.033V190.906C506.033 187.575 505.385 185.169 504.09 183.688C502.794 182.115 500.897 181.329 498.399 181.329C493.309 181.329 490.765 184.429 490.765 190.629C490.765 194.145 491.69 197.43 493.541 200.484C495.484 203.538 498.954 207.239 503.951 211.588C510.336 217.141 514.732 222.184 517.138 226.718C519.543 231.252 520.746 236.573 520.746 242.681C520.746 250.639 518.757 256.746 514.778 261.003C510.891 265.26 505.2 267.388 497.705 267.388Z" fill="#03839E"/>
<path d="M0.691014 1.83634V0.836338H-0.308986V1.83634H0.691014ZM22.4834 1.83634L23.4738 1.69796L23.3534 0.836338H22.4834V1.83634ZM32.1998 71.3778L31.2094 71.5161L31.3298 72.3778H32.1998V71.3778ZM32.4774 71.3778V72.3778H33.3474L33.4678 71.5161L32.4774 71.3778ZM42.1938 1.83634V0.836338H41.3238L41.2034 1.69796L42.1938 1.83634ZM63.9862 1.83634H64.9862V0.836338H63.9862V1.83634ZM63.9862 99V100H64.9862V99H63.9862ZM49.5505 99H48.5505V100H49.5505V99ZM49.5505 25.4332H50.5505V24.4332H49.5505V25.4332ZM49.2728 25.4332V24.4332H48.4125L48.284 25.284L49.2728 25.4332ZM38.1684 99V100H39.0288L39.1572 99.1493L38.1684 99ZM25.3983 99L24.4095 99.1493L24.538 100H25.3983V99ZM14.2939 25.4332L15.2827 25.284L15.1543 24.4332H14.2939V25.4332ZM14.0163 25.4332V24.4332H13.0163V25.4332H14.0163ZM14.0163 99V100H15.0163V99H14.0163ZM0.691014 99H-0.308986V100H0.691014V99ZM0.691014 2.83634H22.4834V0.836338H0.691014V2.83634ZM21.4931 1.97471L31.2094 71.5161L33.1902 71.2394L23.4738 1.69796L21.4931 1.97471ZM32.1998 72.3778H32.4774V70.3778H32.1998V72.3778ZM33.4678 71.5161L43.1842 1.97471L41.2034 1.69796L31.487 71.2394L33.4678 71.5161ZM42.1938 2.83634H63.9862V0.836338H42.1938V2.83634ZM62.9862 1.83634V99H64.9862V1.83634H62.9862ZM63.9862 98H49.5505V100H63.9862V98ZM50.5505 99V25.4332H48.5505V99H50.5505ZM49.5505 24.4332H49.2728V26.4332H49.5505V24.4332ZM48.284 25.284L37.1796 98.8507L39.1572 99.1493L50.2616 25.5825L48.284 25.284ZM38.1684 98H25.3983V100H38.1684V98ZM26.3871 98.8507L15.2827 25.284L13.3051 25.5825L24.4095 99.1493L26.3871 98.8507ZM14.2939 24.4332H14.0163V26.4332H14.2939V24.4332ZM13.0163 25.4332V99H15.0163V25.4332H13.0163ZM14.0163 98H0.691014V100H14.0163V98ZM1.69101 99V1.83634H-0.308986V99H1.69101ZM103.835 1.83634V0.836338H102.985L102.848 1.6756L103.835 1.83634ZM124.517 1.83634L125.504 1.6756L125.368 0.836338H124.517V1.83634ZM140.341 99V100H141.517L141.328 98.8393L140.341 99ZM125.072 99L124.083 99.1424L124.206 100H125.072V99ZM122.296 79.7061L123.286 79.5637L121.296 79.7061H122.296ZM122.296 79.9837V80.9837H123.296V79.9837H122.296ZM104.946 79.9837V78.9837H104.081L103.956 79.8392L104.946 79.9837ZM102.17 99V100H103.034L103.159 99.1445L102.17 99ZM88.0114 99L87.0244 98.8393L86.8354 100H88.0114V99ZM120.492 66.7972V67.7972H121.643L121.482 66.657L120.492 66.7972ZM113.69 18.7706L114.681 18.6304L114.559 17.7706H113.69V18.7706ZM113.413 18.7706V17.7706H112.542L112.422 18.6332L113.413 18.7706ZM106.75 66.7972L105.76 66.6598L105.602 67.7972H106.75V66.7972ZM103.835 2.83634H124.517V0.836338H103.835V2.83634ZM123.53 1.99708L139.354 99.1607L141.328 98.8393L125.504 1.6756L123.53 1.99708ZM140.341 98H125.072V100H140.341V98ZM126.062 98.8576L123.286 79.5637L121.307 79.8485L124.083 99.1424L126.062 98.8576ZM121.296 79.7061V79.9837H123.296V79.7061H121.296ZM122.296 78.9837H104.946V80.9837H122.296V78.9837ZM103.956 79.8392L101.18 98.8555L103.159 99.1445L105.935 80.1281L103.956 79.8392ZM102.17 98H88.0114V100H102.17V98ZM88.9984 99.1607L104.822 1.99708L102.848 1.6756L87.0244 98.8393L88.9984 99.1607ZM121.482 66.657L114.681 18.6304L112.7 18.9108L119.502 66.9374L121.482 66.657ZM113.69 17.7706H113.413V19.7706H113.69V17.7706ZM112.422 18.6332L105.76 66.6598L107.741 66.9346L114.403 18.908L112.422 18.6332ZM106.75 67.7972H120.492V65.7972H106.75V67.7972ZM169.972 15.7169H170.972V14.7169H169.972V15.7169ZM154.009 15.7169H153.009V16.7169H154.009V15.7169ZM154.009 1.83634V0.836338H153.009V1.83634H154.009ZM201.203 1.83634H202.203V0.836338H201.203V1.83634ZM201.203 15.7169V16.7169H202.203V15.7169H201.203ZM185.24 15.7169V14.7169H184.24V15.7169H185.24ZM185.24 99V100H186.24V99H185.24ZM169.972 99H168.972V100H169.972V99ZM169.972 14.7169H154.009V16.7169H169.972V14.7169ZM155.009 15.7169V1.83634H153.009V15.7169H155.009ZM154.009 2.83634H201.203V0.836338H154.009V2.83634ZM200.203 1.83634V15.7169H202.203V1.83634H200.203ZM201.203 14.7169H185.24V16.7169H201.203V14.7169ZM184.24 15.7169V99H186.24V15.7169H184.24ZM185.24 98H169.972V100H185.24V98ZM170.972 99V15.7169H168.972V99H170.972ZM225.252 1.83634V0.836338H224.252V1.83634H225.252ZM266.893 1.83634H267.893V0.836338H266.893V1.83634ZM266.893 15.7169V16.7169H267.893V15.7169H266.893ZM240.52 15.7169V14.7169H239.52V15.7169H240.52ZM240.52 41.3958H239.52V42.3958H240.52V41.3958ZM261.48 41.3958H262.48V40.3958H261.48V41.3958ZM261.48 55.2764V56.2764H262.48V55.2764H261.48ZM240.52 55.2764V54.2764H239.52V55.2764H240.52ZM240.52 85.1195H239.52V86.1195H240.52V85.1195ZM266.893 85.1195H267.893V84.1195H266.893V85.1195ZM266.893 99V100H267.893V99H266.893ZM225.252 99H224.252V100H225.252V99ZM225.252 2.83634H266.893V0.836338H225.252V2.83634ZM265.893 1.83634V15.7169H267.893V1.83634H265.893ZM266.893 14.7169H240.52V16.7169H266.893V14.7169ZM239.52 15.7169V41.3958H241.52V15.7169H239.52ZM240.52 42.3958H261.48V40.3958H240.52V42.3958ZM260.48 41.3958V55.2764H262.48V41.3958H260.48ZM261.48 54.2764H240.52V56.2764H261.48V54.2764ZM239.52 55.2764V85.1195H241.52V55.2764H239.52ZM240.52 86.1195H266.893V84.1195H240.52V86.1195ZM265.893 85.1195V99H267.893V85.1195H265.893ZM266.893 98H225.252V100H266.893V98ZM226.252 99V1.83634H224.252V99H226.252ZM292.334 1.83634V0.836338H291.334V1.83634H292.334ZM332.171 7.38855L331.455 8.0867L331.464 8.09566L332.171 7.38855ZM327.59 49.3077L327.217 48.3801L326.59 48.6324V49.3077H327.59ZM327.59 49.5853H326.59V50.3294L327.303 50.5432L327.59 49.5853ZM335.363 56.3868L334.446 56.7837L334.45 56.7941L334.455 56.8043L335.363 56.3868ZM338.001 94.003L337.006 94.1077L337.007 94.1134L338.001 94.003ZM339.389 99V100H340.928L340.303 98.5939L339.389 99ZM323.843 99L322.9 99.3328L323.135 100H323.843V99ZM320.234 59.9957L319.449 60.6154L319.459 60.6278L319.469 60.6399L320.234 59.9957ZM307.602 57.3584V56.3584H306.602V57.3584H307.602ZM307.602 99V100H308.602V99H307.602ZM292.334 99H291.334V100H292.334V99ZM319.956 41.1182L319.249 40.4111L319.238 40.4218L319.228 40.4329L319.956 41.1182ZM320.372 18.0766L319.578 18.684L319.589 18.6983L319.601 18.7123L320.372 18.0766ZM307.602 15.7169V14.7169H306.602V15.7169H307.602ZM307.602 43.4779H306.602V44.4779H307.602V43.4779ZM292.334 2.83634H314.959V0.836338H292.334V2.83634ZM314.959 2.83634C322.694 2.83634 328.113 4.65893 331.455 8.08665L332.887 6.69045C329.011 2.71522 322.956 0.836338 314.959 0.836338V2.83634ZM331.464 8.09566C334.811 11.4426 336.584 16.7332 336.584 24.184H338.584C338.584 16.4588 336.749 10.5523 332.878 6.68144L331.464 8.09566ZM336.584 24.184V30.1526H338.584V24.184H336.584ZM336.584 30.1526C336.584 35.0956 335.767 39.0396 334.199 42.0437C332.643 45.0257 330.327 47.1276 327.217 48.3801L327.964 50.2353C331.517 48.8043 334.197 46.3719 335.972 42.9688C337.736 39.5879 338.584 35.2961 338.584 30.1526H336.584ZM326.59 49.3077V49.5853H328.59V49.3077H326.59ZM327.303 50.5432C330.734 51.5723 333.087 53.6417 334.446 56.7837L336.281 55.9899C334.679 52.2842 331.85 49.8192 327.878 48.6275L327.303 50.5432ZM334.455 56.8043C335.945 60.0469 336.723 64.4672 336.723 70.1285H338.723C338.723 64.3153 337.929 59.5744 336.272 55.9693L334.455 56.8043ZM336.723 70.1285V87.2016H338.723V70.1285H336.723ZM336.723 87.2016C336.723 89.9954 336.816 92.301 337.006 94.1077L338.995 93.8983C338.815 92.1887 338.723 89.96 338.723 87.2016H336.723ZM337.007 94.1134C337.204 95.8897 337.697 97.6548 338.475 99.4061L340.303 98.5939C339.6 97.0139 339.167 95.4476 338.995 93.8926L337.007 94.1134ZM339.389 98H323.843V100H339.389V98ZM324.786 98.6672C324.249 97.1471 323.898 95.7342 323.723 94.4261L321.741 94.6904C321.937 96.1583 322.326 97.7066 322.9 99.3328L324.786 98.6672ZM323.723 94.4261C323.548 93.112 323.455 90.6752 323.455 87.0628H321.455C321.455 90.6682 321.546 93.2283 321.741 94.6904L323.723 94.4261ZM323.455 87.0628V69.2957H321.455V87.0628H323.455ZM323.455 69.2957C323.455 64.8077 322.72 61.3954 320.999 59.3516L319.469 60.6399C320.709 62.1124 321.455 64.9001 321.455 69.2957H323.455ZM321.019 59.3761C319.354 57.2672 316.524 56.3584 312.877 56.3584V58.3584C316.263 58.3584 318.338 59.2079 319.449 60.6154L321.019 59.3761ZM312.877 56.3584H307.602V58.3584H312.877V56.3584ZM306.602 57.3584V99H308.602V57.3584H306.602ZM307.602 98H292.334V100H307.602V98ZM293.334 99V1.83634H291.334V99H293.334ZM313.155 44.4779C316.368 44.4779 318.947 43.6489 320.684 41.8036L319.228 40.4329C318.003 41.7338 316.049 42.4779 313.155 42.4779V44.4779ZM320.663 41.8253C322.516 39.9729 323.316 37.0064 323.316 33.2063H321.316C321.316 36.8092 320.543 39.1173 319.249 40.4111L320.663 41.8253ZM323.316 33.2063V25.7108H321.316V33.2063H323.316ZM323.316 25.7108C323.316 22.1151 322.662 19.2832 321.144 17.4408L319.601 18.7123C320.674 20.0162 321.316 22.2738 321.316 25.7108H323.316ZM321.167 17.4691C319.713 15.5674 317.419 14.7169 314.543 14.7169V16.7169C317.034 16.7169 318.626 17.4395 319.578 18.684L321.167 17.4691ZM314.543 14.7169H307.602V16.7169H314.543V14.7169ZM306.602 15.7169V43.4779H308.602V15.7169H306.602ZM307.602 44.4779H313.155V42.4779H307.602V44.4779ZM364.973 1.83634V0.836338H363.973V1.83634H364.973ZM380.242 1.83634H381.242V0.836338H380.242V1.83634ZM380.242 99V100H381.242V99H380.242ZM364.973 99H363.973V100H364.973V99ZM364.973 2.83634H380.242V0.836338H364.973V2.83634ZM379.242 1.83634V99H381.242V1.83634H379.242ZM380.242 98H364.973V100H380.242V98ZM365.973 99V1.83634H363.973V99H365.973ZM420.132 1.83634V0.836338H419.282L419.145 1.6756L420.132 1.83634ZM440.814 1.83634L441.801 1.6756L441.664 0.836338H440.814V1.83634ZM456.638 99V100H457.814L457.625 98.8393L456.638 99ZM441.369 99L440.38 99.1424L440.503 100H441.369V99ZM438.593 79.7061L439.583 79.5637L437.593 79.7061H438.593ZM438.593 79.9837V80.9837H439.593V79.9837H438.593ZM421.243 79.9837V78.9837H420.378L420.253 79.8392L421.243 79.9837ZM418.467 99V100H419.331L419.456 99.1445L418.467 99ZM404.308 99L403.321 98.8393L403.132 100H404.308V99ZM436.789 66.7972V67.7972H437.94L437.779 66.657L436.789 66.7972ZM429.987 18.7706L430.977 18.6304L430.856 17.7706H429.987V18.7706ZM429.71 18.7706V17.7706H428.839L428.719 18.6332L429.71 18.7706ZM423.047 66.7972L422.057 66.6598L421.899 67.7972H423.047V66.7972ZM420.132 2.83634H440.814V0.836338H420.132V2.83634ZM439.827 1.99708L455.651 99.1607L457.625 98.8393L441.801 1.6756L439.827 1.99708ZM456.638 98H441.369V100H456.638V98ZM442.359 98.8576L439.583 79.5637L437.603 79.8485L440.38 99.1424L442.359 98.8576ZM437.593 79.7061V79.9837H439.593V79.7061H437.593ZM438.593 78.9837H421.243V80.9837H438.593V78.9837ZM420.253 79.8392L417.477 98.8555L419.456 99.1445L422.232 80.1281L420.253 79.8392ZM418.467 98H404.308V100H418.467V98ZM405.295 99.1607L421.119 1.99708L419.145 1.6756L403.321 98.8393L405.295 99.1607ZM437.779 66.657L430.977 18.6304L428.997 18.9108L435.799 66.9374L437.779 66.657ZM429.987 17.7706H429.71V19.7706H429.987V17.7706ZM428.719 18.6332L422.057 66.6598L424.038 66.9346L430.7 18.908L428.719 18.6332ZM423.047 67.7972H436.789V65.7972H423.047V67.7972ZM480.702 1.83634V0.836338H479.702V1.83634H480.702ZM495.971 1.83634H496.971V0.836338H495.971V1.83634ZM495.971 85.1195H494.971V86.1195H495.971V85.1195ZM521.095 85.1195H522.095V84.1195H521.095V85.1195ZM521.095 99V100H522.095V99H521.095ZM480.702 99H479.702V100H480.702V99ZM480.702 2.83634H495.971V0.836338H480.702V2.83634ZM494.971 1.83634V85.1195H496.971V1.83634H494.971ZM495.971 86.1195H521.095V84.1195H495.971V86.1195ZM520.095 85.1195V99H522.095V85.1195H520.095ZM521.095 98H480.702V100H521.095V98ZM481.702 99V1.83634H479.702V99H481.702ZM548.127 94.1418L547.38 94.8072L547.388 94.8153L548.127 94.1418ZM542.436 70.4061V69.4061H541.436V70.4061H542.436ZM556.872 70.4061H557.872V69.4061H556.872V70.4061ZM570.613 84.2866L569.863 83.625L569.861 83.6281L570.613 84.2866ZM569.919 66.1032L569.057 66.6102L569.064 66.6215L569.919 66.1032ZM559.648 54.8599L558.986 55.6098L558.991 55.6142L559.648 54.8599ZM546.461 39.869L545.585 40.3516L545.59 40.3592L546.461 39.869ZM548.543 6.83333L549.274 7.51569L549.282 7.5076L548.543 6.83333ZM581.995 6.83333L581.241 7.48951L581.248 7.49825L581.256 7.50682L581.995 6.83333ZM587.686 28.9034V29.9034H588.686V28.9034H587.686ZM573.251 28.9034H572.251V29.9034H573.251V28.9034ZM571.307 16.6885L570.535 17.3242L570.545 17.3357L570.555 17.347L571.307 16.6885ZM560.758 33.4839L559.903 34.0022L559.909 34.0116L559.914 34.0208L560.758 33.4839ZM571.169 44.5883L570.512 45.3427L570.512 45.343L571.169 44.5883ZM584.355 59.7181L583.472 60.1868L584.355 59.7181ZM581.995 94.003L581.265 93.3201L581.257 93.3287L581.995 94.003ZM564.922 99.3881C557.708 99.3881 552.416 97.3644 548.866 93.4683L547.388 94.8153C551.426 99.2476 557.331 101.388 564.922 101.388V99.3881ZM548.873 93.4764C545.296 89.4624 543.436 83.672 543.436 75.9583H541.436C541.436 83.9759 543.37 90.3079 547.38 94.8072L548.873 93.4764ZM543.436 75.9583V70.4061H541.436V75.9583H543.436ZM542.436 71.4061H556.872V69.4061H542.436V71.4061ZM555.872 70.4061V77.0688H557.872V70.4061H555.872ZM555.872 77.0688C555.872 80.3304 556.551 82.9628 558.083 84.7902C559.643 86.6514 561.941 87.5075 564.784 87.5075V85.5075C562.351 85.5075 560.693 84.7905 559.616 83.5054C558.51 82.1866 557.872 80.0997 557.872 77.0688H555.872ZM564.784 87.5075C567.566 87.5075 569.825 86.7064 571.366 84.9452L569.861 83.6281C568.811 84.8281 567.183 85.5075 564.784 85.5075V87.5075ZM571.363 84.9483C572.987 83.1074 573.695 80.3143 573.695 76.7912H571.695C571.695 80.1157 571.015 82.3197 569.863 83.625L571.363 84.9483ZM573.695 76.7912C573.695 72.563 572.733 68.8158 570.774 65.5849L569.064 66.6215C570.807 69.4979 571.695 72.8761 571.695 76.7912H573.695ZM570.781 65.5961C568.848 62.31 565.328 58.4779 560.304 54.1056L558.991 55.6142C563.962 59.9405 567.289 63.6038 569.057 66.6102L570.781 65.5961ZM560.309 54.1101C554.054 48.5905 549.752 43.68 547.333 39.3787L545.59 40.3592C548.167 44.9414 552.657 50.0249 558.986 55.6098L560.309 54.1101ZM547.337 39.3864C544.927 35.013 543.713 30.092 543.713 24.6004H541.713C541.713 30.3983 542.998 35.6563 545.585 40.3516L547.337 39.3864ZM543.713 24.6004C543.713 17.0833 545.613 11.438 549.274 7.51565L547.812 6.15101C543.7 10.557 541.713 16.7564 541.713 24.6004H543.713ZM549.282 7.5076C552.928 3.51374 558.271 1.44829 565.478 1.44829V-0.551712C557.878 -0.551712 551.931 1.63953 547.805 6.15906L549.282 7.5076ZM565.478 1.44829C572.59 1.44829 577.782 3.51188 581.241 7.48951L582.75 6.17715C578.806 1.64139 572.986 -0.551712 565.478 -0.551712V1.44829ZM581.256 7.50682C584.826 11.4248 586.686 17.1626 586.686 24.878H588.686C588.686 16.8622 586.753 10.5701 582.735 6.15984L581.256 7.50682ZM586.686 24.878V28.9034H588.686V24.878H586.686ZM587.686 27.9034H573.251V29.9034H587.686V27.9034ZM574.251 28.9034V23.9064H572.251V28.9034H574.251ZM574.251 23.9064C574.251 20.4876 573.594 17.7828 572.06 16.03L570.555 17.347C571.612 18.5554 572.251 20.6625 572.251 23.9064H574.251ZM572.079 16.0528C570.551 14.1973 568.339 13.3288 565.616 13.3288V15.3288C567.89 15.3288 569.472 16.0335 570.535 17.3242L572.079 16.0528ZM565.616 13.3288C562.86 13.3288 560.629 14.1779 559.118 16.0193C557.637 17.8229 556.982 20.4173 556.982 23.6288H558.982C558.982 20.6402 559.599 18.5846 560.664 17.2883C561.697 16.0297 563.284 15.3288 565.616 15.3288V13.3288ZM556.982 23.6288C556.982 27.3309 557.959 30.7948 559.903 34.0022L561.613 32.9656C559.856 30.0657 558.982 26.9595 558.982 23.6288H556.982ZM559.914 34.0208C561.936 37.1968 565.492 40.9734 570.512 45.3427L571.825 43.834C566.851 39.5048 563.467 35.8785 561.602 32.9471L559.914 34.0208ZM570.512 45.343C576.857 50.86 581.149 55.8087 583.472 60.1868L585.238 59.2494C582.75 54.5589 578.25 49.4211 571.825 43.8337L570.512 45.343ZM583.472 60.1868C585.788 64.5517 586.964 69.7058 586.964 75.6807H588.964C588.964 69.4408 587.734 63.9531 585.238 59.2494L583.472 60.1868ZM586.964 75.6807C586.964 83.4794 585.016 89.3075 581.265 93.3201L582.726 94.6859C586.933 90.1851 588.964 83.7984 588.964 75.6807H586.964ZM581.257 93.3287C577.613 97.3201 572.226 99.3881 564.922 99.3881V101.388C572.609 101.388 578.605 99.1993 582.734 94.6773L581.257 93.3287ZM664.061 1.83634V0.836338H663.21L663.074 1.6756L664.061 1.83634ZM684.743 1.83634L685.73 1.6756L685.593 0.836338H684.743V1.83634ZM700.566 99V100H701.742L701.553 98.8393L700.566 99ZM685.298 99L684.308 99.1424L684.431 100H685.298V99ZM682.522 79.7061L683.512 79.5637L681.522 79.7061H682.522ZM682.522 79.9837V80.9837H683.522V79.9837H682.522ZM665.171 79.9837V78.9837H664.307L664.182 79.8392L665.171 79.9837ZM662.395 99V100H663.26L663.385 99.1445L662.395 99ZM648.237 99L647.25 98.8393L647.061 100H648.237V99ZM680.717 66.7972V67.7972H681.869L681.707 66.657L680.717 66.7972ZM673.916 18.7706L674.906 18.6304L674.784 17.7706H673.916V18.7706ZM673.638 18.7706V17.7706H672.767L672.648 18.6332L673.638 18.7706ZM666.976 66.7972L665.985 66.6598L665.827 67.7972H666.976V66.7972ZM664.061 2.83634H684.743V0.836338H664.061V2.83634ZM683.756 1.99708L699.579 99.1607L701.553 98.8393L685.73 1.6756L683.756 1.99708ZM700.566 98H685.298V100H700.566V98ZM686.288 98.8576L683.512 79.5637L681.532 79.8485L684.308 99.1424L686.288 98.8576ZM681.522 79.7061V79.9837H683.522V79.7061H681.522ZM682.522 78.9837H665.171V80.9837H682.522V78.9837ZM664.182 79.8392L661.406 98.8555L663.385 99.1445L666.161 80.1281L664.182 79.8392ZM662.395 98H648.237V100H662.395V98ZM649.224 99.1607L665.048 1.99708L663.074 1.6756L647.25 98.8393L649.224 99.1607ZM681.707 66.657L674.906 18.6304L672.926 18.9108L679.727 66.9374L681.707 66.657ZM673.916 17.7706H673.638V19.7706H673.916V17.7706ZM672.648 18.6332L665.985 66.6598L667.966 66.9346L674.629 18.908L672.648 18.6332ZM666.976 67.7972H680.717V65.7972H666.976V67.7972ZM724.631 1.83634V0.836338H723.631V1.83634H724.631ZM743.786 1.83634L744.755 1.58891L744.563 0.836338H743.786V1.83634ZM758.638 59.9957L757.669 60.2432L757.861 60.9957H758.638V59.9957ZM758.916 59.9957V60.9957H759.916V59.9957H758.916ZM758.916 1.83634V0.836338H757.916V1.83634H758.916ZM772.518 1.83634H773.518V0.836338H772.518V1.83634ZM772.518 99V100H773.518V99H772.518ZM756.833 99L755.865 99.2501L756.059 100H756.833V99ZM738.511 28.0705L739.479 27.8204L739.286 27.0705H738.511V28.0705ZM738.234 28.0705V27.0705H737.234V28.0705H738.234ZM738.234 99V100H739.234V99H738.234ZM724.631 99H723.631V100H724.631V99ZM724.631 2.83634H743.786V0.836338H724.631V2.83634ZM742.817 2.08377L757.669 60.2432L759.607 59.7483L744.755 1.58891L742.817 2.08377ZM758.638 60.9957H758.916V58.9957H758.638V60.9957ZM759.916 59.9957V1.83634H757.916V59.9957H759.916ZM758.916 2.83634H772.518V0.836338H758.916V2.83634ZM771.518 1.83634V99H773.518V1.83634H771.518ZM772.518 98H756.833V100H772.518V98ZM757.802 98.7499L739.479 27.8204L737.543 28.3206L755.865 99.2501L757.802 98.7499ZM738.511 27.0705H738.234V29.0705H738.511V27.0705ZM737.234 28.0705V99H739.234V28.0705H737.234ZM738.234 98H724.631V100H738.234V98ZM725.631 99V1.83634H723.631V99H725.631ZM800.524 1.83634V0.836338H799.524V1.83634H800.524ZM840.916 7.94377L840.184 8.6255V8.6255L840.916 7.94377ZM800.524 99H799.524V100H800.524V99ZM829.256 82.8986L828.527 82.2147L828.515 82.2272L828.504 82.2401L829.256 82.8986ZM829.256 17.9377L828.504 18.5962L828.515 18.6092L828.527 18.6217L829.256 17.9377ZM815.792 15.7169V14.7169H814.792V15.7169H815.792ZM815.792 85.1195H814.792V86.1195H815.792V85.1195ZM800.524 2.83634H823.843V0.836338H800.524V2.83634ZM823.843 2.83634C831.258 2.83634 836.641 4.82242 840.184 8.6255L841.647 7.26205C837.603 2.92188 831.604 0.836338 823.843 0.836338V2.83634ZM840.184 8.6255C843.746 12.4475 845.607 18.1324 845.607 25.8496H847.607C847.607 17.8357 845.674 11.5833 841.647 7.26205L840.184 8.6255ZM845.607 25.8496V74.9867H847.607V25.8496H845.607ZM845.607 74.9867C845.607 82.704 843.746 88.3888 840.184 92.2108L841.647 93.5743C845.674 89.2531 847.607 83.0007 847.607 74.9867H845.607ZM840.184 92.2108C836.641 96.0139 831.258 98 823.843 98V100C831.604 100 837.603 97.9145 841.647 93.5743L840.184 92.2108ZM823.843 98H800.524V100H823.843V98ZM801.524 99V1.83634H799.524V99H801.524ZM823.565 86.1195C826.268 86.1195 828.475 85.3106 830.009 83.5571L828.504 82.2401C827.447 83.4478 825.859 84.1195 823.565 84.1195V86.1195ZM829.986 83.5825C831.63 81.8287 832.338 79.1124 832.338 75.6807H830.338C830.338 78.9117 829.659 81.0073 828.527 82.2147L829.986 83.5825ZM832.338 75.6807V25.1556H830.338V75.6807H832.338ZM832.338 25.1556C832.338 21.7239 831.63 19.0076 829.986 17.2538L828.527 18.6217C829.659 19.8291 830.338 21.9247 830.338 25.1556H832.338ZM830.009 17.2792C828.474 15.5258 826.268 14.7169 823.565 14.7169V16.7169C825.859 16.7169 827.447 17.3885 828.504 18.5962L830.009 17.2792ZM823.565 14.7169H815.792V16.7169H823.565V14.7169ZM814.792 15.7169V85.1195H816.792V15.7169H814.792ZM815.792 86.1195H823.565V84.1195H815.792V86.1195ZM0.691014 168.836V167.836H-0.308986V168.836H0.691014ZM41.0833 168.836H42.0833V167.836H41.0833V168.836ZM41.0833 182.717V183.717H42.0833V182.717H41.0833ZM15.9596 182.717V181.717H14.9596V182.717H15.9596ZM15.9596 209.784H14.9596V210.784H15.9596V209.784ZM35.6699 209.784H36.6699V208.784H35.6699V209.784ZM35.6699 223.664V224.664H36.6699V223.664H35.6699ZM15.9596 223.664V222.664H14.9596V223.664H15.9596ZM15.9596 266V267H16.9596V266H15.9596ZM0.691014 266H-0.308986V267H0.691014V266ZM0.691014 169.836H41.0833V167.836H0.691014V169.836ZM40.0833 168.836V182.717H42.0833V168.836H40.0833ZM41.0833 181.717H15.9596V183.717H41.0833V181.717ZM14.9596 182.717V209.784H16.9596V182.717H14.9596ZM15.9596 210.784H35.6699V208.784H15.9596V210.784ZM34.6699 209.784V223.664H36.6699V209.784H34.6699ZM35.6699 222.664H15.9596V224.664H35.6699V222.664ZM14.9596 223.664V266H16.9596V223.664H14.9596ZM15.9596 265H0.691014V267H15.9596V265ZM1.69101 266V168.836H-0.308986V266H1.69101ZM65.0619 168.836V167.836H64.0619V168.836H65.0619ZM106.703 168.836H107.703V167.836H106.703V168.836ZM106.703 182.717V183.717H107.703V182.717H106.703ZM80.3305 182.717V181.717H79.3305V182.717H80.3305ZM80.3305 208.396H79.3305V209.396H80.3305V208.396ZM101.29 208.396H102.29V207.396H101.29V208.396ZM101.29 222.276V223.276H102.29V222.276H101.29ZM80.3305 222.276V221.276H79.3305V222.276H80.3305ZM80.3305 252.119H79.3305V253.119H80.3305V252.119ZM106.703 252.119H107.703V251.119H106.703V252.119ZM106.703 266V267H107.703V266H106.703ZM65.0619 266H64.0619V267H65.0619V266ZM65.0619 169.836H106.703V167.836H65.0619V169.836ZM105.703 168.836V182.717H107.703V168.836H105.703ZM106.703 181.717H80.3305V183.717H106.703V181.717ZM79.3305 182.717V208.396H81.3305V182.717H79.3305ZM80.3305 209.396H101.29V207.396H80.3305V209.396ZM100.29 208.396V222.276H102.29V208.396H100.29ZM101.29 221.276H80.3305V223.276H101.29V221.276ZM79.3305 222.276V252.119H81.3305V222.276H79.3305ZM80.3305 253.119H106.703V251.119H80.3305V253.119ZM105.703 252.119V266H107.703V252.119H105.703ZM106.703 265H65.0619V267H106.703V265ZM66.0619 266V168.836H64.0619V266H66.0619ZM143.942 168.836V167.836H143.092L142.955 168.676L143.942 168.836ZM164.624 168.836L165.611 168.676L165.475 167.836H164.624V168.836ZM180.448 266V267H181.624L181.435 265.839L180.448 266ZM165.18 266L164.19 266.142L164.313 267H165.18V266ZM162.403 246.706L163.393 246.564L161.403 246.706H162.403ZM162.403 246.984V247.984H163.403V246.984H162.403ZM145.053 246.984V245.984H144.188L144.063 246.839L145.053 246.984ZM142.277 266V267H143.141L143.266 266.144L142.277 266ZM128.119 266L127.132 265.839L126.943 267H128.119V266ZM160.599 233.797V234.797H161.751L161.589 233.657L160.599 233.797ZM153.798 185.771L154.788 185.63L154.666 184.771H153.798V185.771ZM153.52 185.771V184.771H152.649L152.529 185.633L153.52 185.771ZM146.857 233.797L145.867 233.66L145.709 234.797H146.857V233.797ZM143.942 169.836H164.624V167.836H143.942V169.836ZM163.637 168.997L179.461 266.161L181.435 265.839L165.611 168.676L163.637 168.997ZM180.448 265H165.18V267H180.448V265ZM166.169 265.858L163.393 246.564L161.414 246.848L164.19 266.142L166.169 265.858ZM161.403 246.706V246.984H163.403V246.706H161.403ZM162.403 245.984H145.053V247.984H162.403V245.984ZM144.063 246.839L141.287 265.856L143.266 266.144L146.042 247.128L144.063 246.839ZM142.277 265H128.119V267H142.277V265ZM129.106 266.161L144.929 168.997L142.955 168.676L127.132 265.839L129.106 266.161ZM161.589 233.657L154.788 185.63L152.807 185.911L159.609 233.937L161.589 233.657ZM153.798 184.771H153.52V186.771H153.798V184.771ZM152.529 185.633L145.867 233.66L147.848 233.935L154.51 185.908L152.529 185.633ZM146.857 234.797H160.599V232.797H146.857V234.797ZM210.079 182.717H211.079V181.717H210.079V182.717ZM194.116 182.717H193.116V183.717H194.116V182.717ZM194.116 168.836V167.836H193.116V168.836H194.116ZM241.31 168.836H242.31V167.836H241.31V168.836ZM241.31 182.717V183.717H242.31V182.717H241.31ZM225.347 182.717V181.717H224.347V182.717H225.347ZM225.347 266V267H226.347V266H225.347ZM210.079 266H209.079V267H210.079V266ZM210.079 181.717H194.116V183.717H210.079V181.717ZM195.116 182.717V168.836H193.116V182.717H195.116ZM194.116 169.836H241.31V167.836H194.116V169.836ZM240.31 168.836V182.717H242.31V168.836H240.31ZM241.31 181.717H225.347V183.717H241.31V181.717ZM224.347 182.717V266H226.347V182.717H224.347ZM225.347 265H210.079V267H225.347V265ZM211.079 266V182.717H209.079V266H211.079ZM270.634 261.142L269.895 261.816L269.902 261.824L270.634 261.142ZM264.804 168.836V167.836H263.804V168.836H264.804ZM280.072 168.836H281.072V167.836H280.072V168.836ZM282.016 251.287L281.263 251.945L281.274 251.958L281.286 251.971L282.016 251.287ZM293.536 251.287L292.807 250.603L292.795 250.615L292.784 250.628L293.536 251.287ZM295.618 168.836V167.836H294.618V168.836H295.618ZM310.332 168.836H311.332V167.836H310.332V168.836ZM304.502 261.142L305.233 261.824L305.241 261.816L304.502 261.142ZM287.568 266.388C280.354 266.388 275.01 264.365 271.365 260.46L269.902 261.824C274.031 266.247 279.975 268.388 287.568 268.388V266.388ZM271.372 260.468C267.707 256.453 265.804 250.666 265.804 242.958H263.804C263.804 250.982 265.787 257.317 269.895 261.816L271.372 260.468ZM265.804 242.958V168.836H263.804V242.958H265.804ZM264.804 169.836H280.072V167.836H264.804V169.836ZM279.072 168.836V244.069H281.072V168.836H279.072ZM279.072 244.069C279.072 247.488 279.729 250.192 281.263 251.945L282.768 250.628C281.711 249.42 281.072 247.313 281.072 244.069H279.072ZM281.286 251.971C282.905 253.698 285.139 254.508 287.845 254.508V252.508C285.555 252.508 283.902 251.837 282.745 250.603L281.286 251.971ZM287.845 254.508C290.549 254.508 292.755 253.699 294.289 251.945L292.784 250.628C291.727 251.836 290.139 252.508 287.845 252.508V254.508ZM294.266 251.971C295.91 250.217 296.618 247.5 296.618 244.069H294.618C294.618 247.3 293.939 249.395 292.807 250.603L294.266 251.971ZM296.618 244.069V168.836H294.618V244.069H296.618ZM295.618 169.836H310.332V167.836H295.618V169.836ZM309.332 168.836V242.958H311.332V168.836H309.332ZM309.332 242.958C309.332 250.666 307.429 256.453 303.764 260.468L305.241 261.816C309.348 257.317 311.332 250.982 311.332 242.958H309.332ZM303.771 260.46C300.126 264.365 294.781 266.388 287.568 266.388V268.388C295.16 268.388 301.105 266.247 305.233 261.824L303.771 260.46ZM337.863 168.836V167.836H336.863V168.836H337.863ZM377.7 174.389L376.984 175.087L376.993 175.096L377.7 174.389ZM373.12 216.308L372.746 215.38L372.12 215.632V216.308H373.12ZM373.12 216.585H372.12V217.329L372.832 217.543L373.12 216.585ZM380.893 223.387L379.975 223.784L379.979 223.794L379.984 223.804L380.893 223.387ZM383.53 261.003L382.535 261.108L382.536 261.113L383.53 261.003ZM384.918 266V267H386.457L385.832 265.594L384.918 266ZM369.372 266L368.429 266.333L368.664 267H369.372V266ZM365.763 226.996L364.978 227.615L364.988 227.628L364.998 227.64L365.763 226.996ZM353.132 224.358V223.358H352.132V224.358H353.132ZM353.132 266V267H354.132V266H353.132ZM337.863 266H336.863V267H337.863V266ZM365.485 208.118L364.778 207.411L364.767 207.422L364.757 207.433L365.485 208.118ZM365.902 185.077L365.107 185.684L365.118 185.698L365.13 185.712L365.902 185.077ZM353.132 182.717V181.717H352.132V182.717H353.132ZM353.132 210.478H352.132V211.478H353.132V210.478ZM337.863 169.836H360.488V167.836H337.863V169.836ZM360.488 169.836C368.223 169.836 373.642 171.659 376.984 175.087L378.416 173.69C374.54 169.715 368.485 167.836 360.488 167.836V169.836ZM376.993 175.096C380.34 178.443 382.113 183.733 382.113 191.184H384.113C384.113 183.459 382.278 177.552 378.407 173.681L376.993 175.096ZM382.113 191.184V197.153H384.113V191.184H382.113ZM382.113 197.153C382.113 202.096 381.296 206.04 379.728 209.044C378.173 212.026 375.856 214.128 372.746 215.38L373.493 217.235C377.046 215.804 379.726 213.372 381.502 209.969C383.266 206.588 384.113 202.296 384.113 197.153H382.113ZM372.12 216.308V216.585H374.12V216.308H372.12ZM372.832 217.543C376.263 218.572 378.616 220.642 379.975 223.784L381.81 222.99C380.208 219.284 377.379 216.819 373.407 215.628L372.832 217.543ZM379.984 223.804C381.474 227.047 382.252 231.467 382.252 237.129H384.252C384.252 231.315 383.458 226.574 381.801 222.969L379.984 223.804ZM382.252 237.129V254.202H384.252V237.129H382.252ZM382.252 254.202C382.252 256.995 382.345 259.301 382.535 261.108L384.524 260.898C384.344 259.189 384.252 256.96 384.252 254.202H382.252ZM382.536 261.113C382.733 262.89 383.226 264.655 384.004 266.406L385.832 265.594C385.13 264.014 384.697 262.448 384.524 260.893L382.536 261.113ZM384.918 265H369.372V267H384.918V265ZM370.315 265.667C369.778 264.147 369.427 262.734 369.253 261.426L367.27 261.69C367.466 263.158 367.855 264.707 368.429 266.333L370.315 265.667ZM369.253 261.426C369.077 260.112 368.984 257.675 368.984 254.063H366.984C366.984 257.668 367.075 260.228 367.27 261.69L369.253 261.426ZM368.984 254.063V236.296H366.984V254.063H368.984ZM368.984 236.296C368.984 231.808 368.249 228.395 366.528 226.352L364.998 227.64C366.238 229.112 366.984 231.9 366.984 236.296H368.984ZM366.548 226.376C364.883 224.267 362.053 223.358 358.406 223.358V225.358C361.792 225.358 363.867 226.208 364.978 227.615L366.548 226.376ZM358.406 223.358H353.132V225.358H358.406V223.358ZM352.132 224.358V266H354.132V224.358H352.132ZM353.132 265H337.863V267H353.132V265ZM338.863 266V168.836H336.863V266H338.863ZM358.684 211.478C361.897 211.478 364.477 210.649 366.213 208.804L364.757 207.433C363.533 208.734 361.578 209.478 358.684 209.478V211.478ZM366.192 208.825C368.045 206.973 368.845 204.006 368.845 200.206H366.845C366.845 203.809 366.072 206.117 364.778 207.411L366.192 208.825ZM368.845 200.206V192.711H366.845V200.206H368.845ZM368.845 192.711C368.845 189.115 368.191 186.283 366.674 184.441L365.13 185.712C366.204 187.016 366.845 189.274 366.845 192.711H368.845ZM366.696 184.469C365.242 182.567 362.948 181.717 360.072 181.717V183.717C362.563 183.717 364.156 184.439 365.107 185.684L366.696 184.469ZM360.072 181.717H353.132V183.717H360.072V181.717ZM352.132 182.717V210.478H354.132V182.717H352.132ZM353.132 211.478H358.684V209.478H353.132V211.478ZM410.503 168.836V167.836H409.503V168.836H410.503ZM452.144 168.836H453.144V167.836H452.144V168.836ZM452.144 182.717V183.717H453.144V182.717H452.144ZM425.771 182.717V181.717H424.771V182.717H425.771ZM425.771 208.396H424.771V209.396H425.771V208.396ZM446.731 208.396H447.731V207.396H446.731V208.396ZM446.731 222.276V223.276H447.731V222.276H446.731ZM425.771 222.276V221.276H424.771V222.276H425.771ZM425.771 252.119H424.771V253.119H425.771V252.119ZM452.144 252.119H453.144V251.119H452.144V252.119ZM452.144 266V267H453.144V266H452.144ZM410.503 266H409.503V267H410.503V266ZM410.503 169.836H452.144V167.836H410.503V169.836ZM451.144 168.836V182.717H453.144V168.836H451.144ZM452.144 181.717H425.771V183.717H452.144V181.717ZM424.771 182.717V208.396H426.771V182.717H424.771ZM425.771 209.396H446.731V207.396H425.771V209.396ZM445.731 208.396V222.276H447.731V208.396H445.731ZM446.731 221.276H425.771V223.276H446.731V221.276ZM424.771 222.276V252.119H426.771V222.276H424.771ZM425.771 253.119H452.144V251.119H425.771V253.119ZM451.144 252.119V266H453.144V252.119H451.144ZM452.144 265H410.503V267H452.144V265ZM411.503 266V168.836H409.503V266H411.503ZM480.909 261.142L480.163 261.807L480.17 261.815L480.909 261.142ZM475.218 237.406V236.406H474.218V237.406H475.218ZM489.654 237.406H490.654V236.406H489.654V237.406ZM503.396 251.287L502.646 250.625L502.643 250.628L503.396 251.287ZM502.702 233.103L501.84 233.61L501.847 233.621L502.702 233.103ZM492.43 221.86L491.769 222.61L491.774 222.614L492.43 221.86ZM479.244 206.869L478.368 207.352L478.372 207.359L479.244 206.869ZM481.326 173.833L482.057 174.516L482.064 174.508L481.326 173.833ZM514.778 173.833L514.023 174.49L514.031 174.498L514.039 174.507L514.778 173.833ZM520.469 195.903V196.903H521.469V195.903H520.469ZM506.033 195.903H505.033V196.903H506.033V195.903ZM504.09 183.688L503.318 184.324L503.327 184.336L503.337 184.347L504.09 183.688ZM493.541 200.484L492.685 201.002L492.691 201.012L492.697 201.021L493.541 200.484ZM503.951 211.588L503.295 212.343L503.295 212.343L503.951 211.588ZM517.138 226.718L516.254 227.187L517.138 226.718ZM514.778 261.003L514.047 260.32L514.039 260.329L514.778 261.003ZM497.705 266.388C490.49 266.388 485.198 264.364 481.649 260.468L480.17 261.815C484.208 266.248 490.114 268.388 497.705 268.388V266.388ZM481.656 260.476C478.078 256.462 476.218 250.672 476.218 242.958H474.218C474.218 250.976 476.153 257.308 480.163 261.807L481.656 260.476ZM476.218 242.958V237.406H474.218V242.958H476.218ZM475.218 238.406H489.654V236.406H475.218V238.406ZM488.654 237.406V244.069H490.654V237.406H488.654ZM488.654 244.069C488.654 247.33 489.334 249.963 490.866 251.79C492.426 253.651 494.724 254.508 497.566 254.508V252.508C495.134 252.508 493.476 251.79 492.398 250.505C491.293 249.187 490.654 247.1 490.654 244.069H488.654ZM497.566 254.508C500.348 254.508 502.607 253.706 504.148 251.945L502.643 250.628C501.593 251.828 499.966 252.508 497.566 252.508V254.508ZM504.146 251.948C505.77 250.107 506.478 247.314 506.478 243.791H504.478C504.478 247.116 503.798 249.32 502.646 250.625L504.146 251.948ZM506.478 243.791C506.478 239.563 505.515 235.816 503.557 232.585L501.847 233.621C503.59 236.498 504.478 239.876 504.478 243.791H506.478ZM503.564 232.596C501.631 229.31 498.11 225.478 493.087 221.106L491.774 222.614C496.744 226.94 500.071 230.604 501.84 233.61L503.564 232.596ZM493.092 221.11C486.836 215.591 482.535 210.68 480.115 206.379L478.372 207.359C480.95 211.941 485.439 217.025 491.769 222.61L493.092 221.11ZM480.12 206.386C477.71 202.013 476.496 197.092 476.496 191.6H474.496C474.496 197.398 475.781 202.656 478.368 207.352L480.12 206.386ZM476.496 191.6C476.496 184.083 478.396 178.438 482.057 174.516L480.595 173.151C476.483 177.557 474.496 183.756 474.496 191.6H476.496ZM482.064 174.508C485.711 170.514 491.053 168.448 498.26 168.448V166.448C490.661 166.448 484.714 168.64 480.587 173.159L482.064 174.508ZM498.26 168.448C505.372 168.448 510.564 170.512 514.023 174.49L515.532 173.177C511.588 168.641 505.768 166.448 498.26 166.448V168.448ZM514.039 174.507C517.608 178.425 519.469 184.163 519.469 191.878H521.469C521.469 183.862 519.535 177.57 515.517 173.16L514.039 174.507ZM519.469 191.878V195.903H521.469V191.878H519.469ZM520.469 194.903H506.033V196.903H520.469V194.903ZM507.033 195.903V190.906H505.033V195.903H507.033ZM507.033 190.906C507.033 187.488 506.376 184.783 504.842 183.03L503.337 184.347C504.395 185.555 505.033 187.663 505.033 190.906H507.033ZM504.862 183.053C503.334 181.197 501.122 180.329 498.399 180.329V182.329C500.673 182.329 502.255 183.033 503.318 184.324L504.862 183.053ZM498.399 180.329C495.642 180.329 493.412 181.178 491.9 183.019C490.42 184.823 489.765 187.417 489.765 190.629H491.765C491.765 187.64 492.382 185.585 493.446 184.288C494.479 183.03 496.066 182.329 498.399 182.329V180.329ZM489.765 190.629C489.765 194.331 490.742 197.795 492.685 201.002L494.396 199.966C492.638 197.066 491.765 193.959 491.765 190.629H489.765ZM492.697 201.021C494.718 204.197 498.275 207.973 503.295 212.343L504.608 210.834C499.634 206.505 496.25 202.878 494.384 199.947L492.697 201.021ZM503.295 212.343C509.639 217.86 513.931 222.809 516.254 227.187L518.021 226.249C515.532 221.559 511.033 216.421 504.607 210.834L503.295 212.343ZM516.254 227.187C518.57 231.552 519.746 236.706 519.746 242.681H521.746C521.746 236.441 520.517 230.953 518.021 226.249L516.254 227.187ZM519.746 242.681C519.746 250.479 517.798 256.307 514.047 260.32L515.508 261.686C519.716 257.185 521.746 250.798 521.746 242.681H519.746ZM514.039 260.329C510.395 264.32 505.009 266.388 497.705 266.388V268.388C505.392 268.388 511.388 266.199 515.516 261.677L514.039 260.329Z" fill="#03839E"/>
</svg>
