<svg width="24" height="24" viewBox="0 0 24 24" fill="none" xmlns="http://www.w3.org/2000/svg">
<circle cx="12" cy="12" r="12" fill="#333333"/>
<path d="M9.468 15.088C9.468 14.488 9.564 13.976 9.756 13.552C9.948 13.12 10.292 12.644 10.788 12.124C11.276 11.604 11.612 11.16 11.796 10.792C11.988 10.424 12.084 10.04 12.084 9.64C12.084 9.28 12.024 9.032 11.904 8.896C11.792 8.752 11.624 8.68 11.4 8.68C10.944 8.68 10.716 8.956 10.716 9.508V10.408H9.468V9.592C9.468 8.912 9.636 8.392 9.972 8.032C10.308 7.664 10.796 7.48 11.436 7.48C12.076 7.48 12.564 7.664 12.9 8.032C13.236 8.392 13.404 8.912 13.404 9.592C13.404 10.104 13.28 10.604 13.032 11.092C12.792 11.58 12.372 12.14 11.772 12.772C11.38 13.188 11.116 13.528 10.98 13.792C10.844 14.048 10.776 14.324 10.776 14.62V14.8H13.284V16H9.468V15.088Z" fill="#F2F2F2"/>
</svg>
