<svg width="24" height="24" viewBox="0 0 24 24" fill="none" xmlns="http://www.w3.org/2000/svg">
<circle cx="12" cy="12" r="12" fill="#333333"/>
<path d="M11.364 16.12C10.716 16.12 10.224 15.94 9.888 15.58C9.56 15.22 9.396 14.704 9.396 14.032V13.348H10.644V14.092C10.644 14.644 10.872 14.92 11.328 14.92C11.552 14.92 11.72 14.852 11.832 14.716C11.952 14.572 12.012 14.324 12.012 13.972V13.288C12.012 12.904 11.944 12.632 11.808 12.472C11.672 12.304 11.452 12.22 11.148 12.22H10.704V11.02H11.184C11.448 11.02 11.644 10.952 11.772 10.816C11.908 10.68 11.976 10.452 11.976 10.132V9.52C11.976 9.232 11.916 9.02 11.796 8.884C11.676 8.748 11.516 8.68 11.316 8.68C10.892 8.68 10.68 8.94 10.68 9.46V10.012H9.432V9.568C9.432 8.896 9.596 8.38 9.924 8.02C10.26 7.66 10.74 7.48 11.364 7.48C11.996 7.48 12.476 7.66 12.804 8.02C13.132 8.372 13.296 8.884 13.296 9.556V9.856C13.296 10.312 13.22 10.68 13.068 10.96C12.916 11.232 12.68 11.428 12.36 11.548V11.572C12.704 11.7 12.952 11.908 13.104 12.196C13.256 12.484 13.332 12.852 13.332 13.3V14.044C13.332 14.716 13.164 15.232 12.828 15.592C12.5 15.944 12.012 16.12 11.364 16.12Z" fill="#F2F2F2"/>
</svg>
