<svg width="34" height="46" viewBox="0 0 34 46" fill="none" xmlns="http://www.w3.org/2000/svg">
<path d="M19.406 40.264C19.406 38.464 19.694 36.928 20.27 35.656C20.846 34.36 21.878 32.932 23.366 31.372C24.83 29.812 25.838 28.48 26.39 27.376C26.966 26.272 27.254 25.12 27.254 23.92C27.254 22.84 27.074 22.096 26.714 21.688C26.378 21.256 25.874 21.04 25.202 21.04C23.834 21.04 23.15 21.868 23.15 23.524V26.224H19.406V23.776C19.406 21.736 19.91 20.176 20.918 19.096C21.926 17.992 23.39 17.44 25.31 17.44C27.23 17.44 28.694 17.992 29.702 19.096C30.71 20.176 31.214 21.736 31.214 23.776C31.214 25.312 30.842 26.812 30.098 28.276C29.378 29.74 28.118 31.42 26.318 33.316C25.142 34.564 24.35 35.584 23.942 36.376C23.534 37.144 23.33 37.972 23.33 38.86V39.4H30.854V43H19.406V40.264Z" fill="black"/>
<rect x="17.4258" y="1" width="1" height="46.2894" transform="rotate(22 17.4258 1)" fill="#333333"/>
</svg>
