<svg width="21" height="21" viewBox="0 0 21 21" fill="none" xmlns="http://www.w3.org/2000/svg">
<path d="M6.22203 18.3504C4.94645 18.3545 3.66676 18.3586 2.39117 18.3545C2.04664 18.3545 1.82516 18.051 1.88258 17.6982C2.09586 16.3406 2.29684 14.983 2.51012 13.6295C2.70289 12.4113 2.91207 11.1932 3.10484 9.9709C3.2443 9.08906 3.36734 8.20722 3.5068 7.32539C3.71188 6.02519 3.92516 4.725 4.13434 3.4248C4.25328 2.67832 4.36402 1.93183 4.47887 1.18535C4.5527 0.697264 4.93824 0.365037 5.43863 0.365037C7.59606 0.365037 9.75758 0.348631 11.915 0.37324C13.0921 0.385545 14.2611 0.533201 15.3316 1.07871C16.4431 1.63652 17.1199 2.54297 17.3414 3.77344C17.4439 4.34765 17.407 4.92187 17.2963 5.49609C16.8369 5.2623 16.3529 5.11055 15.8525 5.01211C15.2291 4.88906 14.5892 4.85625 13.9535 4.84804C12.3498 4.83164 10.742 4.83574 9.13824 4.84804C8.79781 4.85215 8.4943 4.9916 8.35895 5.34023C8.29742 5.50019 8.27691 5.68066 8.25231 5.85703C8.14156 6.52969 8.03492 7.20644 7.92828 7.8832C7.84625 8.4041 7.75602 8.925 7.67809 9.4459C7.57965 10.1062 7.49352 10.7707 7.36637 11.427C7.32535 11.6443 7.23512 11.8658 7.30074 12.0996C7.25152 12.2473 7.20641 12.3949 7.1818 12.5508C7.06695 13.3096 6.94801 14.0684 6.82906 14.8271C6.68551 15.7459 6.55016 16.6687 6.3943 17.5875C6.34508 17.8418 6.36149 18.1125 6.22203 18.3504Z" fill="#012D8A"/>
<path d="M6.22199 18.3504C6.36144 18.1166 6.34503 17.8418 6.38605 17.5875C6.54191 16.6687 6.67726 15.75 6.82081 14.8271C6.93976 14.0683 7.0587 13.3095 7.17355 12.5508C7.19816 12.3949 7.24328 12.2472 7.29249 12.0996C7.51398 11.7551 7.8216 11.6033 8.23995 11.6074C9.28585 11.6074 10.3318 11.6607 11.3735 11.5295C12.3046 11.4146 13.1946 11.1767 14.0232 10.7338C15.2987 10.0488 16.1683 9.0029 16.7138 7.6781C16.9722 7.04646 17.1773 6.39431 17.2634 5.71345C17.2716 5.69705 17.2757 5.68064 17.2839 5.66833C17.2921 5.62732 17.3003 5.5863 17.3085 5.54529C18.2847 6.06208 18.8056 6.8906 18.945 7.97341C19.0599 8.86345 18.9245 9.72888 18.703 10.5902C18.5267 11.2752 18.256 11.9191 17.8704 12.5097C17.2429 13.4777 16.3693 14.1504 15.2823 14.5359C14.7163 14.7369 14.1339 14.8517 13.5392 14.9215C13.0429 14.9789 12.5466 14.9789 12.0503 14.983C11.5499 14.983 11.23 15.2578 11.1603 15.75C11.0085 16.7877 10.8568 17.8254 10.6763 18.8631C10.6148 19.2158 10.5655 19.5726 10.504 19.9213C10.4261 20.3478 10.1226 20.6021 9.69191 20.6021C8.64601 20.6021 7.60011 20.6021 6.55421 20.6021C6.15636 20.6021 5.96359 20.3724 6.02921 19.9869C6.10714 19.5111 6.18507 19.0394 6.263 18.5636C6.27531 18.4857 6.29581 18.4078 6.22199 18.3504Z" fill="#019AE0"/>
<path d="M17.3127 5.53711C17.3045 5.57813 17.2962 5.61914 17.288 5.66016C17.2798 5.67656 17.2757 5.69297 17.2675 5.70528C17.1814 6.38614 16.9763 7.03828 16.7179 7.66992C16.1724 8.99473 15.3029 10.0406 14.0273 10.7256C13.1988 11.1686 12.3046 11.4064 11.3777 11.5213C10.3359 11.6484 9.29 11.5992 8.2441 11.5992C7.82574 11.5992 7.51812 11.7469 7.29664 12.0914C7.23101 11.8617 7.32125 11.6361 7.36226 11.4188C7.48531 10.7625 7.57555 10.098 7.67398 9.4377C7.75191 8.9168 7.84215 8.3959 7.92418 7.875C8.03082 7.19824 8.13746 6.52559 8.2482 5.84883C8.27691 5.67657 8.29332 5.4961 8.35484 5.33203C8.49019 4.9834 8.79371 4.83985 9.13414 4.83985C10.7378 4.82754 12.3457 4.82344 13.9494 4.83985C14.5851 4.84805 15.2209 4.88086 15.8484 5.00391C16.3488 5.10235 16.8369 5.2541 17.2921 5.48789C17.3003 5.5125 17.3086 5.52481 17.3127 5.53711Z" fill="#001F6B"/>
<path d="M17.2715 5.70938C17.2797 5.69297 17.2838 5.67657 17.292 5.66426C17.2838 5.67657 17.2797 5.69297 17.2715 5.70938Z" fill="#012D8A"/>
</svg>
