<?xml version="1.0" encoding="iso-8859-1"?>
<!-- Generator: Adobe Illustrator 16.0.0, SVG Export Plug-In . SVG Version: 6.00 Build 0)  -->
<!DOCTYPE svg PUBLIC "-//W3C//DTD SVG 1.1//EN" "http://www.w3.org/Graphics/SVG/1.1/DTD/svg11.dtd">
<svg version="1.1" id="Capa_1" xmlns="http://www.w3.org/2000/svg" xmlns:xlink="http://www.w3.org/1999/xlink" x="0px" y="0px"
	 width="449.522px" height="449.521px" viewBox="0 0 449.522 449.521" style="enable-background:new 0 0 449.522 449.521;"
	 xml:space="preserve">
<g>
	<g>
		<path d="M217.93,258.186v51.6h-57.375c-10.566,0-17.289,8.367-15.022,18.676l22.529,102.49
			c2.267,10.318,12.67,18.628,23.228,18.57l66.938-0.382c10.566-0.058,20.731-8.521,22.72-18.896l19.45-101.688
			c1.989-10.366-4.963-18.771-15.529-18.771h-47.812v-49.983c22.673,6.054,72.752,11.236,88.625-54.314
			c2.486-10.27-5.221-21.047-15.673-19.498c-32.34,4.81-58.694,38.565-72.952,58.961v-88.969
			c95.587-75.219,86.713-138.618,50.107-152.417c-38.116-14.373-62.481,19.345-62.481,19.345h-1.711
			c0,0-24.365-33.717-62.491-19.345c-37.504,14.143-45.881,73.401,57.452,151.489v88.691
			c-12.164-20.424-41.396-55.356-78.422-58.407c-10.528-0.87-18.15,9.888-15.664,20.148
			C141.163,277.005,199.188,264.335,217.93,258.186z"/>
	</g>
</g>
<g>
</g>
<g>
</g>
<g>
</g>
<g>
</g>
<g>
</g>
<g>
</g>
<g>
</g>
<g>
</g>
<g>
</g>
<g>
</g>
<g>
</g>
<g>
</g>
<g>
</g>
<g>
</g>
<g>
</g>
</svg>
