<svg width="148" height="27" viewBox="0 0 148 27" fill="none" xmlns="http://www.w3.org/2000/svg">
<path d="M0.715533 0.799998H6.54753C8.51553 0.799998 9.99153 1.328 10.9755 2.384C11.9595 3.44 12.4515 4.988 12.4515 7.028V9.512C12.4515 11.552 11.9595 13.1 10.9755 14.156C9.99153 15.212 8.51553 15.74 6.54753 15.74H4.67553V26H0.715533V0.799998ZM6.54753 12.14C7.19553 12.14 7.67553 11.96 7.98753 11.6C8.32353 11.24 8.49153 10.628 8.49153 9.764V6.776C8.49153 5.912 8.32353 5.3 7.98753 4.94C7.67553 4.58 7.19553 4.4 6.54753 4.4H4.67553V12.14H6.54753ZM25.9063 26.36C23.9623 26.36 22.4743 25.808 21.4423 24.704C20.4103 23.6 19.8943 22.04 19.8943 20.024V6.776C19.8943 4.76 20.4103 3.2 21.4423 2.096C22.4743 0.991999 23.9623 0.439999 25.9063 0.439999C27.8503 0.439999 29.3383 0.991999 30.3703 2.096C31.4023 3.2 31.9183 4.76 31.9183 6.776V20.024C31.9183 22.04 31.4023 23.6 30.3703 24.704C29.3383 25.808 27.8503 26.36 25.9063 26.36ZM25.9063 22.76C27.2743 22.76 27.9583 21.932 27.9583 20.276V6.524C27.9583 4.868 27.2743 4.04 25.9063 4.04C24.5383 4.04 23.8543 4.868 23.8543 6.524V20.276C23.8543 21.932 24.5383 22.76 25.9063 22.76ZM43.1317 4.4H38.9917V0.799998H51.2317V4.4H47.0917V26H43.1317V4.4ZM58.729 0.799998H64.597C66.637 0.799998 68.125 1.28 69.061 2.24C69.997 3.176 70.465 4.628 70.465 6.596V8.144C70.465 10.76 69.601 12.416 67.873 13.112V13.184C68.833 13.472 69.505 14.06 69.889 14.948C70.297 15.836 70.501 17.024 70.501 18.512V22.94C70.501 23.66 70.525 24.248 70.573 24.704C70.621 25.136 70.741 25.568 70.933 26H66.901C66.757 25.592 66.661 25.208 66.613 24.848C66.565 24.488 66.541 23.84 66.541 22.904V18.296C66.541 17.144 66.349 16.34 65.965 15.884C65.605 15.428 64.969 15.2 64.057 15.2H62.689V26H58.729V0.799998ZM64.129 11.6C64.921 11.6 65.509 11.396 65.893 10.988C66.301 10.58 66.505 9.896 66.505 8.936V6.992C66.505 6.08 66.337 5.42 66.001 5.012C65.689 4.604 65.185 4.4 64.489 4.4H62.689V11.6H64.129ZM78.8285 0.799998H84.6605C86.6285 0.799998 88.1045 1.328 89.0885 2.384C90.0725 3.44 90.5645 4.988 90.5645 7.028V9.512C90.5645 11.552 90.0725 13.1 89.0885 14.156C88.1045 15.212 86.6285 15.74 84.6605 15.74H82.7885V26H78.8285V0.799998ZM84.6605 12.14C85.3085 12.14 85.7885 11.96 86.1005 11.6C86.4365 11.24 86.6045 10.628 86.6045 9.764V6.776C86.6045 5.912 86.4365 5.3 86.1005 4.94C85.7885 4.58 85.3085 4.4 84.6605 4.4H82.7885V12.14H84.6605ZM104.019 26.36C102.075 26.36 100.587 25.808 99.5552 24.704C98.5232 23.6 98.0072 22.04 98.0072 20.024V6.776C98.0072 4.76 98.5232 3.2 99.5552 2.096C100.587 0.991999 102.075 0.439999 104.019 0.439999C105.963 0.439999 107.451 0.991999 108.483 2.096C109.515 3.2 110.031 4.76 110.031 6.776V20.024C110.031 22.04 109.515 23.6 108.483 24.704C107.451 25.808 105.963 26.36 104.019 26.36ZM104.019 22.76C105.387 22.76 106.071 21.932 106.071 20.276V6.524C106.071 4.868 105.387 4.04 104.019 4.04C102.651 4.04 101.967 4.868 101.967 6.524V20.276C101.967 21.932 102.651 22.76 104.019 22.76ZM121.245 4.4H117.105V0.799998H129.345V4.4H125.205V26H121.245V4.4ZM141.99 26.36C140.07 26.36 138.618 25.82 137.634 24.74C136.65 23.636 136.158 22.064 136.158 20.024V18.584H139.902V20.312C139.902 21.944 140.586 22.76 141.954 22.76C142.626 22.76 143.13 22.568 143.466 22.184C143.826 21.776 144.006 21.128 144.006 20.24C144.006 19.184 143.766 18.26 143.286 17.468C142.806 16.652 141.918 15.68 140.622 14.552C138.99 13.112 137.85 11.816 137.202 10.664C136.554 9.488 136.23 8.168 136.23 6.704C136.23 4.712 136.734 3.176 137.742 2.096C138.75 0.991999 140.214 0.439999 142.134 0.439999C144.03 0.439999 145.458 0.991999 146.418 2.096C147.402 3.176 147.894 4.736 147.894 6.776V7.82H144.15V6.524C144.15 5.66 143.982 5.036 143.646 4.652C143.31 4.244 142.818 4.04 142.17 4.04C140.85 4.04 140.19 4.844 140.19 6.452C140.19 7.364 140.43 8.216 140.91 9.008C141.414 9.8 142.314 10.76 143.61 11.888C145.266 13.328 146.406 14.636 147.03 15.812C147.654 16.988 147.966 18.368 147.966 19.952C147.966 22.016 147.45 23.6 146.418 24.704C145.41 25.808 143.934 26.36 141.99 26.36Z" fill="black"/>
</svg>
