<svg width="248.548828" height="156.272949" viewBox="0 0 248.549 156.273" fill="none" xmlns="http://www.w3.org/2000/svg" xmlns:xlink="http://www.w3.org/1999/xlink">
	<desc>
			Created with Pixso.
	</desc>
	<defs/>
	<path id="POTR ~ Eco, self-watering, origami plant pots" d="M89.0743 44.0365L92.8903 44.0365L94.6543 63.4045L94.7263 63.4045L96.5983 44.0365L100.918 44.0365L102.79 63.4045L102.862 63.4045L104.626 44.0365L108.046 44.0365L105.49 69.2365L100.558 69.2365L98.7583 52.2445L98.6863 52.2445L96.8863 69.2365L91.6303 69.2365L89.0743 44.0365ZM118.197 44.0365L123.561 44.0365L127.665 69.2365L123.705 69.2365L122.985 64.2325L122.985 64.3045L118.485 64.3045L117.765 69.2365L114.093 69.2365L118.197 44.0365ZM122.517 60.8845L120.753 48.4285L120.681 48.4285L118.953 60.8845L122.517 60.8845ZM136.61 47.6365L132.47 47.6365L132.47 44.0365L144.71 44.0365L144.71 47.6365L140.57 47.6365L140.57 69.2365L136.61 69.2365L136.61 47.6365ZM152.207 44.0365L163.007 44.0365L163.007 47.6365L156.167 47.6365L156.167 54.2965L161.603 54.2965L161.603 57.8965L156.167 57.8965L156.167 65.6365L163.007 65.6365L163.007 69.2365L152.207 69.2365L152.207 44.0365ZM170.865 44.0365L176.733 44.0365C178.773 44.0365 180.261 44.5165 181.197 45.4765C182.133 46.4125 182.601 47.8645 182.601 49.8325L182.601 51.3805C182.601 53.9965 181.737 55.6525 180.009 56.3485L180.009 56.4205C180.969 56.7085 181.641 57.2965 182.025 58.1845C182.433 59.0725 182.637 60.2605 182.637 61.7485L182.637 66.1765C182.637 66.8965 182.661 67.4845 182.709 67.9405C182.757 68.3725 182.877 68.8045 183.069 69.2365L179.037 69.2365C178.893 68.8285 178.797 68.4445 178.749 68.0845C178.701 67.7245 178.677 67.0765 178.677 66.1405L178.677 61.5325C178.677 60.3805 178.485 59.5765 178.101 59.1205C177.741 58.6645 177.105 58.4365 176.193 58.4365L174.825 58.4365L174.825 69.2365L170.865 69.2365L170.865 44.0365ZM176.265 54.8365C177.057 54.8365 177.645 54.6325 178.029 54.2245C178.437 53.8165 178.641 53.1325 178.641 52.1725L178.641 50.2285C178.641 49.3165 178.473 48.6565 178.137 48.2485C177.825 47.8405 177.321 47.6365 176.625 47.6365L174.825 47.6365L174.825 54.8365L176.265 54.8365ZM190.965 44.0365L194.925 44.0365L194.925 69.2365L190.965 69.2365L190.965 44.0365ZM203.471 44.0365L208.439 44.0365L212.291 59.1205L212.363 59.1205L212.363 44.0365L215.891 44.0365L215.891 69.2365L211.823 69.2365L207.071 50.8405L206.999 50.8405L206.999 69.2365L203.471 69.2365L203.471 44.0365ZM230.03 69.5965C228.11 69.5965 226.646 69.0565 225.638 67.9765C224.63 66.8725 224.126 65.3005 224.126 63.2605L224.126 50.0125C224.126 47.9725 224.63 46.4125 225.638 45.3325C226.646 44.2285 228.11 43.6765 230.03 43.6765C231.95 43.6765 233.414 44.2285 234.422 45.3325C235.43 46.4125 235.934 47.9725 235.934 50.0125L235.934 52.1725L232.19 52.1725L232.19 49.7605C232.19 48.1045 231.506 47.2765 230.138 47.2765C228.77 47.2765 228.086 48.1045 228.086 49.7605L228.086 63.5485C228.086 65.1805 228.77 65.9965 230.138 65.9965C231.506 65.9965 232.19 65.1805 232.19 63.5485L232.19 58.6165L230.21 58.6165L230.21 55.0165L235.934 55.0165L235.934 63.2605C235.934 65.3005 235.43 66.8725 234.422 67.9765C233.414 69.0565 231.95 69.5965 230.03 69.5965ZM245.353 69.2365L244.057 69.2365L244.057 65.4205L247.873 65.4205L247.873 68.8405L245.893 73.5565L244.057 73.5565L245.353 69.2365ZM7.08428 112.597C5.14028 112.597 3.65228 112.045 2.62028 110.941C1.58828 109.837 1.07228 108.277 1.07228 106.261L1.07228 93.0125C1.07228 90.9965 1.58828 89.4365 2.62028 88.3325C3.65228 87.2285 5.14028 86.6765 7.08428 86.6765C9.02828 86.6765 10.5163 87.2285 11.5483 88.3325C12.5803 89.4365 13.0963 90.9965 13.0963 93.0125L13.0963 106.261C13.0963 108.277 12.5803 109.837 11.5483 110.941C10.5163 112.045 9.02828 112.597 7.08428 112.597ZM7.08428 108.997C8.45228 108.997 9.13628 108.169 9.13628 106.513L9.13628 92.7605C9.13628 91.1045 8.45228 90.2765 7.08428 90.2765C5.71628 90.2765 5.03228 91.1045 5.03228 92.7605L5.03228 106.513C5.03228 108.169 5.71628 108.997 7.08428 108.997ZM21.3543 87.0365L27.2223 87.0365C29.2623 87.0365 30.7503 87.5165 31.6863 88.4765C32.6223 89.4125 33.0903 90.8645 33.0903 92.8325L33.0903 94.3805C33.0903 96.9965 32.2263 98.6525 30.4983 99.3485L30.4983 99.4205C31.4583 99.7085 32.1303 100.297 32.5143 101.185C32.9223 102.073 33.1263 103.261 33.1263 104.749L33.1263 109.177C33.1263 109.897 33.1503 110.485 33.1983 110.941C33.2463 111.373 33.3663 111.805 33.5583 112.237L29.5263 112.237C29.3823 111.829 29.2863 111.445 29.2383 111.085C29.1903 110.725 29.1663 110.077 29.1663 109.141L29.1663 104.533C29.1663 103.381 28.9743 102.577 28.5903 102.121C28.2303 101.665 27.5943 101.437 26.6823 101.437L25.3143 101.437L25.3143 112.237L21.3543 112.237L21.3543 87.0365ZM26.7543 97.8365C27.5463 97.8365 28.1343 97.6325 28.5183 97.2245C28.9263 96.8165 29.1303 96.1325 29.1303 95.1725L29.1303 93.2285C29.1303 92.3165 28.9623 91.6565 28.6263 91.2485C28.3143 90.8405 27.8103 90.6365 27.1143 90.6365L25.3143 90.6365L25.3143 97.8365L26.7543 97.8365ZM41.4539 87.0365L45.4139 87.0365L45.4139 112.237L41.4539 112.237L41.4539 87.0365ZM59.5756 112.597C57.6557 112.597 56.1917 112.057 55.1837 110.977C54.1757 109.873 53.6716 108.301 53.6716 106.261L53.6716 93.0125C53.6716 90.9725 54.1757 89.4125 55.1837 88.3325C56.1917 87.2285 57.6557 86.6765 59.5756 86.6765C61.4957 86.6765 62.9596 87.2285 63.9677 88.3325C64.9757 89.4125 65.4797 90.9725 65.4797 93.0125L65.4797 95.1725L61.7356 95.1725L61.7356 92.7605C61.7356 91.1045 61.0517 90.2765 59.6837 90.2765C58.3157 90.2765 57.6316 91.1045 57.6316 92.7605L57.6316 106.549C57.6316 108.181 58.3157 108.997 59.6837 108.997C61.0517 108.997 61.7356 108.181 61.7356 106.549L61.7356 101.617L59.7556 101.617L59.7556 98.0165L65.4797 98.0165L65.4797 106.261C65.4797 108.301 64.9757 109.873 63.9677 110.977C62.9596 112.057 61.4957 112.597 59.5756 112.597ZM76.6622 87.0365L82.0262 87.0365L86.1301 112.237L82.1702 112.237L81.4501 107.233L81.4501 107.305L76.9501 107.305L76.2301 112.237L72.5582 112.237L76.6622 87.0365ZM80.9822 103.885L79.2182 91.4285L79.1461 91.4285L77.4182 103.885L80.9822 103.885ZM93.6314 87.0365L99.2834 87.0365L101.803 105.073L101.875 105.073L104.395 87.0365L110.047 87.0365L110.047 112.237L106.303 112.237L106.303 93.1565L106.231 93.1565L103.351 112.237L100.039 112.237L97.1594 93.1565L97.0874 93.1565L97.0874 112.237L93.6314 112.237L93.6314 87.0365ZM118.582 87.0365L122.542 87.0365L122.542 112.237L118.582 112.237L118.582 87.0365ZM1.36028 130.037L7.19228 130.037C9.16028 130.037 10.6363 130.565 11.6203 131.621C12.6043 132.677 13.0963 134.225 13.0963 136.265L13.0963 138.749C13.0963 140.789 12.6043 142.337 11.6203 143.393C10.6363 144.449 9.16028 144.977 7.19228 144.977L5.32028 144.977L5.32028 155.237L1.36028 155.237L1.36028 130.037ZM7.19228 141.377C7.84028 141.377 8.32028 141.197 8.63228 140.837C8.96828 140.477 9.13628 139.865 9.13628 139.001L9.13628 136.013C9.13628 135.149 8.96828 134.537 8.63228 134.177C8.32028 133.817 7.84028 133.637 7.19228 133.637L5.32028 133.637L5.32028 141.377L7.19228 141.377ZM26.551 155.597C24.607 155.597 23.119 155.045 22.087 153.941C21.055 152.837 20.539 151.277 20.539 149.261L20.539 136.013C20.539 133.997 21.055 132.437 22.087 131.333C23.119 130.229 24.607 129.677 26.551 129.677C28.495 129.677 29.983 130.229 31.015 131.333C32.047 132.437 32.563 133.997 32.563 136.013L32.563 149.261C32.563 151.277 32.047 152.837 31.015 153.941C29.983 155.045 28.495 155.597 26.551 155.597ZM26.551 151.997C27.919 151.997 28.603 151.169 28.603 149.513L28.603 135.761C28.603 134.105 27.919 133.277 26.551 133.277C25.183 133.277 24.499 134.105 24.499 135.761L24.499 149.513C24.499 151.169 25.183 151.997 26.551 151.997ZM43.7764 133.637L39.6364 133.637L39.6364 130.037L51.8764 130.037L51.8764 133.637L47.7364 133.637L47.7364 155.237L43.7764 155.237L43.7764 133.637ZM64.5217 155.597C62.6017 155.597 61.1497 155.057 60.1657 153.977C59.1817 152.873 58.6897 151.301 58.6897 149.261L58.6897 147.821L62.4337 147.821L62.4337 149.549C62.4337 151.181 63.1177 151.997 64.4857 151.997C65.1577 151.997 65.6617 151.805 65.9977 151.421C66.3577 151.013 66.5377 150.365 66.5377 149.477C66.5377 148.421 66.2977 147.497 65.8177 146.705C65.3377 145.889 64.4497 144.917 63.1537 143.789C61.5217 142.349 60.3817 141.053 59.7337 139.901C59.0857 138.725 58.7617 137.405 58.7617 135.941C58.7617 133.949 59.2657 132.413 60.2737 131.333C61.2817 130.229 62.7457 129.677 64.6657 129.677C66.5617 129.677 67.9897 130.229 68.9497 131.333C69.9337 132.413 70.4257 133.973 70.4257 136.013L70.4257 137.057L66.6817 137.057L66.6817 135.761C66.6817 134.897 66.5137 134.273 66.1777 133.889C65.8417 133.481 65.3497 133.277 64.7017 133.277C63.3817 133.277 62.7217 134.081 62.7217 135.689C62.7217 136.601 62.9617 137.453 63.4417 138.245C63.9457 139.037 64.8457 139.997 66.1417 141.125C67.7977 142.565 68.9377 143.873 69.5617 145.049C70.1857 146.225 70.4977 147.605 70.4977 149.189C70.4977 151.253 69.9817 152.837 68.9497 153.941C67.9417 155.045 66.4657 155.597 64.5217 155.597Z" fill="#03839E" fill-opacity="1.000000" fill-rule="evenodd"/>
	<path id="POTR ~ Eco, self-watering, origami plant pots" d="M89.0743 44.0365L92.8903 44.0365L94.6543 63.4045L94.7263 63.4045L96.5983 44.0365L100.918 44.0365L102.79 63.4045L102.862 63.4045L104.626 44.0365L108.046 44.0365L105.49 69.2365L100.558 69.2365L98.7583 52.2445L98.6863 52.2445L96.8863 69.2365L91.6303 69.2365L89.0743 44.0365ZM118.197 44.0365L123.561 44.0365L127.665 69.2365L123.705 69.2365L122.985 64.2325L122.985 64.3045L118.485 64.3045L117.765 69.2365L114.093 69.2365L118.197 44.0365ZM122.517 60.8845L120.753 48.4285L120.681 48.4285L118.953 60.8845L122.517 60.8845ZM136.61 47.6365L132.47 47.6365L132.47 44.0365L144.71 44.0365L144.71 47.6365L140.57 47.6365L140.57 69.2365L136.61 69.2365L136.61 47.6365ZM152.207 44.0365L163.007 44.0365L163.007 47.6365L156.167 47.6365L156.167 54.2965L161.603 54.2965L161.603 57.8965L156.167 57.8965L156.167 65.6365L163.007 65.6365L163.007 69.2365L152.207 69.2365L152.207 44.0365ZM170.865 44.0365L176.733 44.0365C178.773 44.0365 180.261 44.5165 181.197 45.4765C182.133 46.4125 182.601 47.8645 182.601 49.8325L182.601 51.3805C182.601 53.9965 181.737 55.6525 180.009 56.3485L180.009 56.4205C180.969 56.7085 181.641 57.2965 182.025 58.1845C182.433 59.0725 182.637 60.2605 182.637 61.7485L182.637 66.1765C182.637 66.8965 182.661 67.4845 182.709 67.9405C182.757 68.3725 182.877 68.8045 183.069 69.2365L179.037 69.2365C178.893 68.8285 178.797 68.4445 178.749 68.0845C178.701 67.7245 178.677 67.0765 178.677 66.1405L178.677 61.5325C178.677 60.3805 178.485 59.5765 178.101 59.1205C177.741 58.6645 177.105 58.4365 176.193 58.4365L174.825 58.4365L174.825 69.2365L170.865 69.2365L170.865 44.0365ZM176.265 54.8365C177.057 54.8365 177.645 54.6325 178.029 54.2245C178.437 53.8165 178.641 53.1325 178.641 52.1725L178.641 50.2285C178.641 49.3165 178.473 48.6565 178.137 48.2485C177.825 47.8405 177.321 47.6365 176.625 47.6365L174.825 47.6365L174.825 54.8365L176.265 54.8365ZM190.965 44.0365L194.925 44.0365L194.925 69.2365L190.965 69.2365L190.965 44.0365ZM203.471 44.0365L208.439 44.0365L212.291 59.1205L212.363 59.1205L212.363 44.0365L215.891 44.0365L215.891 69.2365L211.823 69.2365L207.071 50.8405L206.999 50.8405L206.999 69.2365L203.471 69.2365L203.471 44.0365ZM230.03 69.5965C228.11 69.5965 226.646 69.0565 225.638 67.9765C224.63 66.8725 224.126 65.3005 224.126 63.2605L224.126 50.0125C224.126 47.9725 224.63 46.4125 225.638 45.3325C226.646 44.2285 228.11 43.6765 230.03 43.6765C231.95 43.6765 233.414 44.2285 234.422 45.3325C235.43 46.4125 235.934 47.9725 235.934 50.0125L235.934 52.1725L232.19 52.1725L232.19 49.7605C232.19 48.1045 231.506 47.2765 230.138 47.2765C228.77 47.2765 228.086 48.1045 228.086 49.7605L228.086 63.5485C228.086 65.1805 228.77 65.9965 230.138 65.9965C231.506 65.9965 232.19 65.1805 232.19 63.5485L232.19 58.6165L230.21 58.6165L230.21 55.0165L235.934 55.0165L235.934 63.2605C235.934 65.3005 235.43 66.8725 234.422 67.9765C233.414 69.0565 231.95 69.5965 230.03 69.5965ZM245.353 69.2365L244.057 69.2365L244.057 65.4205L247.873 65.4205L247.873 68.8405L245.893 73.5565L244.057 73.5565L245.353 69.2365ZM7.08428 112.597C5.14028 112.597 3.65228 112.045 2.62028 110.941C1.58828 109.837 1.07228 108.277 1.07228 106.261L1.07228 93.0125C1.07228 90.9965 1.58828 89.4365 2.62028 88.3325C3.65228 87.2285 5.14028 86.6765 7.08428 86.6765C9.02828 86.6765 10.5163 87.2285 11.5483 88.3325C12.5803 89.4365 13.0963 90.9965 13.0963 93.0125L13.0963 106.261C13.0963 108.277 12.5803 109.837 11.5483 110.941C10.5163 112.045 9.02828 112.597 7.08428 112.597ZM7.08428 108.997C8.45228 108.997 9.13628 108.169 9.13628 106.513L9.13628 92.7605C9.13628 91.1045 8.45228 90.2765 7.08428 90.2765C5.71628 90.2765 5.03228 91.1045 5.03228 92.7605L5.03228 106.513C5.03228 108.169 5.71628 108.997 7.08428 108.997ZM21.3543 87.0365L27.2223 87.0365C29.2623 87.0365 30.7503 87.5165 31.6863 88.4765C32.6223 89.4125 33.0903 90.8645 33.0903 92.8325L33.0903 94.3805C33.0903 96.9965 32.2263 98.6525 30.4983 99.3485L30.4983 99.4205C31.4583 99.7085 32.1303 100.297 32.5143 101.185C32.9223 102.073 33.1263 103.261 33.1263 104.749L33.1263 109.177C33.1263 109.897 33.1503 110.485 33.1983 110.941C33.2463 111.373 33.3663 111.805 33.5583 112.237L29.5263 112.237C29.3823 111.829 29.2863 111.445 29.2383 111.085C29.1903 110.725 29.1663 110.077 29.1663 109.141L29.1663 104.533C29.1663 103.381 28.9743 102.577 28.5903 102.121C28.2303 101.665 27.5943 101.437 26.6823 101.437L25.3143 101.437L25.3143 112.237L21.3543 112.237L21.3543 87.0365ZM26.7543 97.8365C27.5463 97.8365 28.1343 97.6325 28.5183 97.2245C28.9263 96.8165 29.1303 96.1325 29.1303 95.1725L29.1303 93.2285C29.1303 92.3165 28.9623 91.6565 28.6263 91.2485C28.3143 90.8405 27.8103 90.6365 27.1143 90.6365L25.3143 90.6365L25.3143 97.8365L26.7543 97.8365ZM41.4539 87.0365L45.4139 87.0365L45.4139 112.237L41.4539 112.237L41.4539 87.0365ZM59.5756 112.597C57.6557 112.597 56.1917 112.057 55.1837 110.977C54.1757 109.873 53.6716 108.301 53.6716 106.261L53.6716 93.0125C53.6716 90.9725 54.1757 89.4125 55.1837 88.3325C56.1917 87.2285 57.6557 86.6765 59.5756 86.6765C61.4957 86.6765 62.9596 87.2285 63.9677 88.3325C64.9757 89.4125 65.4797 90.9725 65.4797 93.0125L65.4797 95.1725L61.7356 95.1725L61.7356 92.7605C61.7356 91.1045 61.0517 90.2765 59.6837 90.2765C58.3157 90.2765 57.6316 91.1045 57.6316 92.7605L57.6316 106.549C57.6316 108.181 58.3157 108.997 59.6837 108.997C61.0517 108.997 61.7356 108.181 61.7356 106.549L61.7356 101.617L59.7556 101.617L59.7556 98.0165L65.4797 98.0165L65.4797 106.261C65.4797 108.301 64.9757 109.873 63.9677 110.977C62.9596 112.057 61.4957 112.597 59.5756 112.597ZM76.6622 87.0365L82.0262 87.0365L86.1301 112.237L82.1702 112.237L81.4501 107.233L81.4501 107.305L76.9501 107.305L76.2301 112.237L72.5582 112.237L76.6622 87.0365ZM80.9822 103.885L79.2182 91.4285L79.1461 91.4285L77.4182 103.885L80.9822 103.885ZM93.6314 87.0365L99.2834 87.0365L101.803 105.073L101.875 105.073L104.395 87.0365L110.047 87.0365L110.047 112.237L106.303 112.237L106.303 93.1565L106.231 93.1565L103.351 112.237L100.039 112.237L97.1594 93.1565L97.0874 93.1565L97.0874 112.237L93.6314 112.237L93.6314 87.0365ZM118.582 87.0365L122.542 87.0365L122.542 112.237L118.582 112.237L118.582 87.0365ZM1.36028 130.037L7.19228 130.037C9.16028 130.037 10.6363 130.565 11.6203 131.621C12.6043 132.677 13.0963 134.225 13.0963 136.265L13.0963 138.749C13.0963 140.789 12.6043 142.337 11.6203 143.393C10.6363 144.449 9.16028 144.977 7.19228 144.977L5.32028 144.977L5.32028 155.237L1.36028 155.237L1.36028 130.037ZM7.19228 141.377C7.84028 141.377 8.32028 141.197 8.63228 140.837C8.96828 140.477 9.13628 139.865 9.13628 139.001L9.13628 136.013C9.13628 135.149 8.96828 134.537 8.63228 134.177C8.32028 133.817 7.84028 133.637 7.19228 133.637L5.32028 133.637L5.32028 141.377L7.19228 141.377ZM26.551 155.597C24.607 155.597 23.119 155.045 22.087 153.941C21.055 152.837 20.539 151.277 20.539 149.261L20.539 136.013C20.539 133.997 21.055 132.437 22.087 131.333C23.119 130.229 24.607 129.677 26.551 129.677C28.495 129.677 29.983 130.229 31.015 131.333C32.047 132.437 32.563 133.997 32.563 136.013L32.563 149.261C32.563 151.277 32.047 152.837 31.015 153.941C29.983 155.045 28.495 155.597 26.551 155.597ZM26.551 151.997C27.919 151.997 28.603 151.169 28.603 149.513L28.603 135.761C28.603 134.105 27.919 133.277 26.551 133.277C25.183 133.277 24.499 134.105 24.499 135.761L24.499 149.513C24.499 151.169 25.183 151.997 26.551 151.997ZM43.7764 133.637L39.6364 133.637L39.6364 130.037L51.8764 130.037L51.8764 133.637L47.7364 133.637L47.7364 155.237L43.7764 155.237L43.7764 133.637ZM64.5217 155.597C62.6017 155.597 61.1497 155.057 60.1657 153.977C59.1817 152.873 58.6897 151.301 58.6897 149.261L58.6897 147.821L62.4337 147.821L62.4337 149.549C62.4337 151.181 63.1177 151.997 64.4857 151.997C65.1577 151.997 65.6617 151.805 65.9977 151.421C66.3577 151.013 66.5377 150.365 66.5377 149.477C66.5377 148.421 66.2977 147.497 65.8177 146.705C65.3377 145.889 64.4497 144.917 63.1537 143.789C61.5217 142.349 60.3817 141.053 59.7337 139.901C59.0857 138.725 58.7617 137.405 58.7617 135.941C58.7617 133.949 59.2657 132.413 60.2737 131.333C61.2817 130.229 62.7457 129.677 64.6657 129.677C66.5617 129.677 67.9897 130.229 68.9497 131.333C69.9337 132.413 70.4257 133.973 70.4257 136.013L70.4257 137.057L66.6817 137.057L66.6817 135.761C66.6817 134.897 66.5137 134.273 66.1777 133.889C65.8417 133.481 65.3497 133.277 64.7017 133.277C63.3817 133.277 62.7217 134.081 62.7217 135.689C62.7217 136.601 62.9617 137.453 63.4417 138.245C63.9457 139.037 64.8457 139.997 66.1417 141.125C67.7977 142.565 68.9377 143.873 69.5617 145.049C70.1857 146.225 70.4977 147.605 70.4977 149.189C70.4977 151.253 69.9817 152.837 68.9497 153.941C67.9417 155.045 66.4657 155.597 64.5217 155.597ZM1.36028 1.03652L7.19228 1.03652C9.16028 1.03652 10.6363 1.56452 11.6203 2.62052C12.6043 3.67652 13.0963 5.22452 13.0963 7.26452L13.0963 9.74852C13.0963 11.7885 12.6043 13.3365 11.6203 14.3925C10.6363 15.4485 9.16028 15.9765 7.19228 15.9765L5.32028 15.9765L5.32028 26.2365L1.36028 26.2365L1.36028 1.03652ZM7.19228 12.3765C7.84028 12.3765 8.32028 12.1965 8.63228 11.8365C8.96828 11.4765 9.13628 10.8645 9.13628 10.0005L9.13628 7.01252C9.13628 6.14852 8.96828 5.53652 8.63228 5.17652C8.32028 4.81652 7.84028 4.63652 7.19228 4.63652L5.32028 4.63652L5.32028 12.3765L7.19228 12.3765ZM26.551 26.5965C24.607 26.5965 23.119 26.0445 22.087 24.9405C21.055 23.8365 20.539 22.2765 20.539 20.2605L20.539 7.01252C20.539 4.99652 21.055 3.43652 22.087 2.33252C23.119 1.22852 24.607 0.676521 26.551 0.676521C28.495 0.676521 29.983 1.22852 31.015 2.33252C32.047 3.43652 32.563 4.99652 32.563 7.01252L32.563 20.2605C32.563 22.2765 32.047 23.8365 31.015 24.9405C29.983 26.0445 28.495 26.5965 26.551 26.5965ZM26.551 22.9965C27.919 22.9965 28.603 22.1685 28.603 20.5125L28.603 6.76052C28.603 5.10452 27.919 4.27652 26.551 4.27652C25.183 4.27652 24.499 5.10452 24.499 6.76052L24.499 20.5125C24.499 22.1685 25.183 22.9965 26.551 22.9965ZM43.7764 4.63652L39.6364 4.63652L39.6364 1.03652L51.8764 1.03652L51.8764 4.63652L47.7364 4.63652L47.7364 26.2365L43.7764 26.2365L43.7764 4.63652ZM59.3737 1.03652L65.2417 1.03652C67.2817 1.03652 68.7697 1.51652 69.7057 2.47652C70.6417 3.41252 71.1097 4.86452 71.1097 6.83252L71.1097 8.38052C71.1097 10.9965 70.2457 12.6525 68.5177 13.3485L68.5177 13.4205C69.4777 13.7085 70.1497 14.2965 70.5337 15.1845C70.9417 16.0725 71.1457 17.2605 71.1457 18.7485L71.1457 23.1765C71.1457 23.8965 71.1697 24.4845 71.2177 24.9405C71.2657 25.3725 71.3857 25.8045 71.5777 26.2365L67.5457 26.2365C67.4017 25.8285 67.3057 25.4445 67.2577 25.0845C67.2097 24.7245 67.1857 24.0765 67.1857 23.1405L67.1857 18.5325C67.1857 17.3805 66.9937 16.5765 66.6097 16.1205C66.2497 15.6645 65.6137 15.4365 64.7017 15.4365L63.3337 15.4365L63.3337 26.2365L59.3737 26.2365L59.3737 1.03652ZM64.7737 11.8365C65.5657 11.8365 66.1537 11.6325 66.5377 11.2245C66.9457 10.8165 67.1497 10.1325 67.1497 9.17252L67.1497 7.22852C67.1497 6.31652 66.9817 5.65652 66.6457 5.24852C66.3337 4.84052 65.8297 4.63652 65.1337 4.63652L63.3337 4.63652L63.3337 11.8365L64.7737 11.8365ZM89.7749 14.7165C90.5189 13.4445 91.2029 12.5325 91.8269 11.9805C92.4749 11.4045 93.2429 11.1165 94.1309 11.1165C94.5389 11.1165 94.9229 11.1885 95.2829 11.3325C95.6429 11.4765 96.1469 11.7525 96.7949 12.1605C97.4429 12.5685 97.8869 12.8445 98.1269 12.9885C98.3909 13.1085 98.6549 13.1685 98.9189 13.1685C99.3269 13.1685 99.6749 13.0245 99.9629 12.7365C100.251 12.4245 100.683 11.8485 101.259 11.0085L103.311 12.5565C102.567 13.8285 101.871 14.7525 101.223 15.3285C100.599 15.8805 99.8429 16.1565 98.9549 16.1565C98.5469 16.1565 98.1629 16.0845 97.8029 15.9405C97.4429 15.7965 96.9389 15.5205 96.2909 15.1125C95.6429 14.7045 95.1869 14.4405 94.9229 14.3205C94.6829 14.1765 94.4309 14.1045 94.1669 14.1045C93.7589 14.1045 93.4109 14.2605 93.1229 14.5725C92.8349 14.8605 92.4029 15.4245 91.8269 16.2645L89.7749 14.7165ZM122.159 1.03652L132.959 1.03652L132.959 4.63652L126.119 4.63652L126.119 11.2965L131.555 11.2965L131.555 14.8965L126.119 14.8965L126.119 22.6365L132.959 22.6365L132.959 26.2365L122.159 26.2365L122.159 1.03652ZM146.397 26.5965C144.501 26.5965 143.049 26.0565 142.041 24.9765C141.057 23.8965 140.565 22.3725 140.565 20.4045L140.565 6.86852C140.565 4.90052 141.057 3.37652 142.041 2.29652C143.049 1.21652 144.501 0.676521 146.397 0.676521C148.293 0.676521 149.733 1.21652 150.717 2.29652C151.725 3.37652 152.229 4.90052 152.229 6.86852L152.229 9.53252L148.485 9.53252L148.485 6.61652C148.485 5.05652 147.825 4.27652 146.505 4.27652C145.185 4.27652 144.525 5.05652 144.525 6.61652L144.525 20.6925C144.525 22.2285 145.185 22.9965 146.505 22.9965C147.825 22.9965 148.485 22.2285 148.485 20.6925L148.485 16.8405L152.229 16.8405L152.229 20.4045C152.229 22.3725 151.725 23.8965 150.717 24.9765C149.733 26.0565 148.293 26.5965 146.397 26.5965ZM165.972 26.5965C164.028 26.5965 162.54 26.0445 161.508 24.9405C160.476 23.8365 159.96 22.2765 159.96 20.2605L159.96 7.01252C159.96 4.99652 160.476 3.43652 161.508 2.33252C162.54 1.22852 164.028 0.676521 165.972 0.676521C167.916 0.676521 169.404 1.22852 170.436 2.33252C171.468 3.43652 171.984 4.99652 171.984 7.01252L171.984 20.2605C171.984 22.2765 171.468 23.8365 170.436 24.9405C169.404 26.0445 167.916 26.5965 165.972 26.5965ZM165.972 22.9965C167.34 22.9965 168.024 22.1685 168.024 20.5125L168.024 6.76052C168.024 5.10452 167.34 4.27652 165.972 4.27652C164.604 4.27652 163.92 5.10452 163.92 6.76052L163.92 20.5125C163.92 22.1685 164.604 22.9965 165.972 22.9965ZM181.327 26.2365L180.031 26.2365L180.031 22.4205L183.847 22.4205L183.847 25.8405L181.867 30.5565L180.031 30.5565L181.327 26.2365ZM6.50828 69.5965C4.58828 69.5965 3.13628 69.0565 2.15228 67.9765C1.16828 66.8725 0.676277 65.3005 0.676277 63.2605L0.676277 61.8205L4.42028 61.8205L4.42028 63.5485C4.42028 65.1805 5.10428 65.9965 6.47228 65.9965C7.14428 65.9965 7.64828 65.8045 7.98428 65.4205C8.34428 65.0125 8.52428 64.3645 8.52428 63.4765C8.52428 62.4205 8.28428 61.4965 7.80428 60.7045C7.32428 59.8885 6.43628 58.9165 5.14028 57.7885C3.50828 56.3485 2.36828 55.0525 1.72028 53.9005C1.07228 52.7245 0.748277 51.4045 0.748277 49.9405C0.748277 47.9485 1.25228 46.4125 2.26028 45.3325C3.26828 44.2285 4.73228 43.6765 6.65228 43.6765C8.54828 43.6765 9.97628 44.2285 10.9363 45.3325C11.9203 46.4125 12.4123 47.9725 12.4123 50.0125L12.4123 51.0565L8.66828 51.0565L8.66828 49.7605C8.66828 48.8965 8.50028 48.2725 8.16428 47.8885C7.82828 47.4805 7.33628 47.2765 6.68828 47.2765C5.36828 47.2765 4.70828 48.0805 4.70828 49.6885C4.70828 50.6005 4.94828 51.4525 5.42828 52.2445C5.93228 53.0365 6.83228 53.9965 8.12828 55.1245C9.78428 56.5645 10.9243 57.8725 11.5483 59.0485C12.1723 60.2245 12.4843 61.6045 12.4843 63.1885C12.4843 65.2525 11.9683 66.8365 10.9363 67.9405C9.92828 69.0445 8.45228 69.5965 6.50828 69.5965ZM20.3348 44.0365L31.1348 44.0365L31.1348 47.6365L24.2948 47.6365L24.2948 54.2965L29.7308 54.2965L29.7308 57.8965L24.2948 57.8965L24.2948 65.6365L31.1348 65.6365L31.1348 69.2365L20.3348 69.2365L20.3348 44.0365ZM38.9929 44.0365L42.9529 44.0365L42.9529 65.6365L49.4689 65.6365L49.4689 69.2365L38.9929 69.2365L38.9929 44.0365ZM56.9479 44.0365L67.4239 44.0365L67.4239 47.6365L60.9079 47.6365L60.9079 54.6565L66.0199 54.6565L66.0199 58.2565L60.9079 58.2565L60.9079 69.2365L56.9479 69.2365L56.9479 44.0365ZM74.1512 54.8365L82.0712 54.8365L82.0712 58.4365L74.1512 58.4365L74.1512 54.8365ZM142.434 87.0365L148.266 87.0365C150.234 87.0365 151.71 87.5645 152.694 88.6205C153.678 89.6765 154.17 91.2245 154.17 93.2645L154.17 95.7485C154.17 97.7885 153.678 99.3365 152.694 100.393C151.71 101.449 150.234 101.977 148.266 101.977L146.394 101.977L146.394 112.237L142.434 112.237L142.434 87.0365ZM148.266 98.3765C148.914 98.3765 149.394 98.1965 149.706 97.8365C150.042 97.4765 150.21 96.8645 150.21 96.0005L150.21 93.0125C150.21 92.1485 150.042 91.5365 149.706 91.1765C149.394 90.8165 148.914 90.6365 148.266 90.6365L146.394 90.6365L146.394 98.3765L148.266 98.3765ZM161.901 87.0365L165.861 87.0365L165.861 108.637L172.377 108.637L172.377 112.237L161.901 112.237L161.901 87.0365ZM183.056 87.0365L188.42 87.0365L192.524 112.237L188.564 112.237L187.844 107.233L187.844 107.305L183.344 107.305L182.624 112.237L178.952 112.237L183.056 87.0365ZM187.376 103.885L185.612 91.4285L185.54 91.4285L183.812 103.885L187.376 103.885ZM200.025 87.0365L204.993 87.0365L208.845 102.121L208.917 102.121L208.917 87.0365L212.445 87.0365L212.445 112.237L208.377 112.237L203.625 93.8405L203.553 93.8405L203.553 112.237L200.025 112.237L200.025 87.0365ZM224.065 90.6365L219.925 90.6365L219.925 87.0365L232.165 87.0365L232.165 90.6365L228.025 90.6365L228.025 112.237L224.065 112.237L224.065 90.6365Z" stroke="#03839E" stroke-opacity="1.000000" stroke-width="0.676417"/>
</svg>
