<svg id="Layer_1" data-name="Layer 1" xmlns="http://www.w3.org/2000/svg" viewBox="0 0 512 512"><defs><style>.cls-1{fill:#898989;}</style></defs><title>bag-other</title><path class="cls-1" d="M473.87,512H38.13a5.45,5.45,0,0,1-5.41-6.09L76.29,135.53a5.45,5.45,0,0,1,5.41-4.81H430.3a5.45,5.45,0,0,1,5.41,4.81l43.57,370.38a5.45,5.45,0,0,1-5.41,6.09ZM44.26,501.11H467.74L425.45,141.62H86.55Z"/><path class="cls-1" d="M343.15,228.77a5.44,5.44,0,0,1-5.45-5.45V92.6a81.7,81.7,0,0,0-163.4,0V223.32a5.45,5.45,0,0,1-10.89,0V92.6a92.6,92.6,0,0,1,185.19,0V223.32A5.44,5.44,0,0,1,343.15,228.77Z"/></svg>