<svg height="859pt" viewBox="-96 -27 859 859.3115" width="859pt" xmlns="http://www.w3.org/2000/svg"><path d="m621.503906 805.6875h-585.683594c-1.175781 0-2.355468-.054688-3.519531-.140625-22.253906-2.050781-38.617187-21.675781-36.601562-43.785156l48.835937-537.070313c1.894532-20.882812 19.128906-36.632812 40.101563-36.632812h488.050781c20.9375.023437 38.167969 15.773437 40.070312 36.632812l48.828126 537.070313c.105468 1.144531.15625 2.386719.15625 3.621093.011718 22.199219-18.027344 40.289063-40.238282 40.304688zm-536.867187-590.777344c-6.984375 0-12.726563 5.246094-13.355469 12.207032l-48.832031 537.085937c-.679688 7.367187 4.785156 13.910156 12.15625 14.578125l1.214843.054688h585.667969c7.398438-.015626 13.402344-6.03125 13.402344-13.441407l-48.878906-538.261719c-.628907-6.960937-6.371094-12.207031-13.351563-12.222656zm136.609375 67.171875c-.019532-7.40625-6.066406-13.449219-13.457032-13.464843l.0625-26.851563c22.125.050781 40.183594 18.109375 40.246094 40.238281zm0 0"/><path d="m449.5 322.324219c-22.210938 0-40.28125-18.066407-40.28125-40.28125 0-22.210938 18.066406-40.277344 40.28125-40.277344 22.210938 0 40.277344 18.066406 40.277344 40.277344 0 22.214843-18.066406 40.28125-40.277344 40.28125zm0-53.707031c-7.40625 0-13.429688 6.019531-13.429688 13.425781 0 7.414062 6.023438 13.429687 13.429688 13.429687 7.410156 0 13.425781-6.015625 13.425781-13.429687 0-7.40625-6.015625-13.425781-13.425781-13.425781zm0 0"/><path d="m207.816406 322.324219c-22.207031 0-40.277344-18.066407-40.277344-40.28125 0-22.210938 18.066407-40.277344 40.277344-40.277344v26.851563c-7.398437 0-13.425781 6.015624-13.425781 13.425781 0 7.40625 6.027344 13.429687 13.425781 13.429687 7.402344 0 13.429688-6.023437 13.429688-13.429687h26.851562c0 22.214843-18.066406 40.28125-40.28125 40.28125zm0 0"/><path d="m221.246094 282.082031c-.019532-7.40625-6.066406-13.449219-13.457032-13.464843l.0625-26.851563c22.125.050781 40.183594 18.109375 40.246094 40.238281zm0 0"/><path d="m462.925781 255.191406h-26.855469v-120.839844c0-59.226562-48.183593-107.414062-107.410156-107.414062-59.226562 0-107.414062 48.1875-107.414062 107.414062v120.839844h-26.855469v-120.839844c0-74.039062 60.230469-134.2695308 134.269531-134.2695308 74.03125 0 134.265625 60.2304688 134.265625 134.2695308zm0 0"/></svg>