<?xml version="1.0" encoding="utf-8"?>
<svg version="1.1" id="Layer_2" xmlns="http://www.w3.org/2000/svg" xmlns:xlink="http://www.w3.org/1999/xlink" x="0px" y="0px"
	 viewBox="0 0 20 20" style="enable-background:new 0 0 20 20;" xml:space="preserve">
<path d="M1,14.1V5.9C1,3.2,3.2,1,5.9,1h8.2C16.8,1,19,3.2,19,5.9v8.2c0,2.7-2.2,4.9-4.9,4.9H5.9C3.2,19,1,16.8,1,14.1z M10,6
	c-2.2,0-4,1.8-4,4s1.8,4,4,4s4-1.8,4-4S12.2,6,10,6z M15,4c-0.6,0-1,0.4-1,1s0.4,1,1,1s1-0.4,1-1S15.6,4,15,4z M10,6.7
	c-1.8,0-3.3,1.5-3.3,3.3s1.5,3.3,3.3,3.3s3.3-1.5,3.3-3.3S11.8,6.7,10,6.7z"/>
<g>
</g>
<g>
</g>
<g>
</g>
<g>
</g>
<g>
</g>
<g>
</g>
<g>
</g>
<g>
</g>
<g>
</g>
<g>
</g>
<g>
</g>
<g>
</g>
<g>
</g>
<g>
</g>
<g>
</g>
</svg>
