<?xml version="1.0" encoding="utf-8"?><svg viewBox="0 0 1024 1024" xmlns="http://www.w3.org/2000/svg" xmlns:xlink="http://www.w3.org/1999/xlink"><style>:root>svg{display:none}:root>svg:target{display:block}</style><svg viewBox="0 0 26 8" id="Arrow" xmlns="http://www.w3.org/2000/svg"><path d="M25.354 4.354a.5.5 0 000-.708L22.172.464a.5.5 0 10-.707.708L24.293 4l-2.828 2.828a.5.5 0 10.707.708l3.182-3.182zM0 4.5h25v-1H0v1z"/></svg><svg viewBox="0 0 8 45" id="Arrow-long" xmlns="http://www.w3.org/2000/svg"><path d="M3.646 44.354a.5.5 0 00.708 0l3.182-3.182a.5.5 0 10-.708-.707L4 43.293l-2.828-2.828a.5.5 0 10-.708.707l3.182 3.182zM3.5 0v44h1V0h-1z"/></svg><svg viewBox="0 0 472.337 472.336" id="bag" xmlns="http://www.w3.org/2000/svg"><path d="M396.061 116.577h-76.377V91.715C319.684 41.143 278.543 0 227.969 0c-50.573 0-91.713 41.143-91.713 91.715v24.862H70.45c-5.549 0-10.05 4.497-10.05 10.05L3.914 462.284a10.05 10.05 0 0010.055 10.053h444.397c5.554 0 10.057-4.499 10.057-10.053l-62.31-335.657c0-5.554-4.499-10.05-10.052-10.05zM156.352 91.715c0-39.49 32.13-71.614 71.612-71.614 39.49 0 71.618 32.13 71.618 71.614v24.862h-143.23V91.715zm291.97 360.52H24.015l56.479-315.562h55.753v44.258c-4.849 3.246-8.037 8.765-8.037 15.035 0 9.988 8.09 18.09 18.087 18.09 9.985 0 18.09-8.095 18.09-18.09 0-6.275-3.197-11.789-8.044-15.035v-44.258h143.244v44.258c-4.849 3.246-8.041 8.765-8.041 15.035 0 9.988 8.093 18.09 18.09 18.09 9.987 0 18.089-8.095 18.089-18.09 0-6.275-3.201-11.789-8.046-15.035v-44.258h66.329l62.314 315.562z"/></svg><svg viewBox="0 0 20 20" id="facebook"><path d="M10 0C4.477 0 0 4.477 0 10c0 5.014 3.693 9.153 8.505 9.876V12.65H6.031v-2.628h2.474v-1.75c0-2.895 1.411-4.167 3.818-4.167 1.153 0 1.762.086 2.051.125v2.295h-1.642c-1.021 0-1.378.968-1.378 2.06v1.437h2.994l-.406 2.628h-2.588v7.248C16.234 19.235 20 15.062 20 10c0-5.523-4.477-10-10-10z"/></svg><svg viewBox="0 0 1024 1024" id="instagram" xmlns="http://www.w3.org/2000/svg"><path d="M507.317 342.69c-92.715 0-168.378 76.5-168.378 170.24 0 93.742 75.663 170.243 168.378 170.243 92.716 0 168.379-76.5 168.379-170.242 0-93.742-75.663-170.242-168.379-170.242zm505.01 170.24c0-70.497.631-140.356-3.285-210.726-3.916-81.736-22.358-154.278-81.473-214.047C868.327 28.259 796.706 9.74 715.864 5.782c-69.726-3.96-138.82-3.321-208.42-3.321-69.727 0-138.821-.639-208.421 3.32-80.842 3.96-152.59 22.606-211.705 82.376-59.242 59.897-77.557 132.31-81.473 214.047C1.929 372.702 2.56 442.561 2.56 512.931s-.632 140.357 3.284 210.727c3.916 81.736 22.358 154.277 81.473 214.047 59.242 59.898 130.863 78.416 211.705 82.375 69.726 3.96 138.82 3.32 208.42 3.32 69.727 0 138.821.64 208.421-3.32 80.842-3.959 152.59-22.605 211.705-82.375 59.242-59.897 77.558-132.31 81.473-214.047 4.042-70.37 3.284-140.23 3.284-210.727zm-505.01 261.94c-143.368 0-259.073-116.985-259.073-261.94 0-144.954 115.705-261.939 259.073-261.939S766.39 367.976 766.39 512.931c0 144.954-115.705 261.94-259.073 261.94zm269.684-473.432c-33.474 0-60.505-27.33-60.505-61.175 0-33.844 27.031-61.175 60.505-61.175 33.473 0 60.505 27.331 60.505 61.175A60.43 61.098 0 01777 301.438z"/></svg><svg viewBox="0 0 11 11" id="square" xmlns="http://www.w3.org/2000/svg" fill="#4F4F4F"><path d="M0 5.073L5.073 0l5.072 5.073-5.072 5.073z"/></svg><svg viewBox="0 0 20 20" id="twitter"><path d="M10 0C4.486 0 0 4.486 0 10s4.486 10 10 10 10-4.486 10-10S15.514 0 10 0zm4.461 7.711c.005.1.007.2.007.3 0 3.04-2.315 6.547-6.55 6.547-1.3 0-2.51-.38-3.527-1.034a4.651 4.651 0 003.407-.952 2.304 2.304 0 01-2.15-1.6 2.319 2.319 0 001.04-.038 2.302 2.302 0 01-1.846-2.286c.31.172.665.276 1.042.288a2.3 2.3 0 01-.712-3.073 6.535 6.535 0 004.743 2.405 2.302 2.302 0 013.922-2.1A4.594 4.594 0 0015.3 5.61a2.312 2.312 0 01-1.014 1.274c.466-.056.911-.18 1.322-.363a4.62 4.62 0 01-1.147 1.19z"/></svg></svg>
