<svg width="248" height="156" viewBox="0 0 248 156" fill="none" xmlns="http://www.w3.org/2000/svg">
<path d="M89.19 43.8H93.006L94.77 63.168H94.842L96.714 43.8H101.034L102.906 63.168H102.978L104.742 43.8H108.162L105.606 69H100.674L98.874 52.008H98.802L97.002 69H91.746L89.19 43.8ZM118.313 43.8H123.677L127.781 69H123.821L123.101 63.996V64.068H118.601L117.881 69H114.209L118.313 43.8ZM122.633 60.648L120.869 48.192H120.797L119.069 60.648H122.633ZM136.726 47.4H132.586V43.8H144.826V47.4H140.686V69H136.726V47.4ZM152.323 43.8H163.123V47.4H156.283V54.06H161.719V57.66H156.283V65.4H163.123V69H152.323V43.8ZM170.981 43.8H176.849C178.889 43.8 180.377 44.28 181.313 45.24C182.249 46.176 182.717 47.628 182.717 49.596V51.144C182.717 53.76 181.853 55.416 180.125 56.112V56.184C181.085 56.472 181.757 57.06 182.141 57.948C182.549 58.836 182.753 60.024 182.753 61.512V65.94C182.753 66.66 182.777 67.248 182.825 67.704C182.873 68.136 182.993 68.568 183.185 69H179.153C179.009 68.592 178.913 68.208 178.865 67.848C178.817 67.488 178.793 66.84 178.793 65.904V61.296C178.793 60.144 178.601 59.34 178.217 58.884C177.857 58.428 177.221 58.2 176.309 58.2H174.941V69H170.981V43.8ZM176.381 54.6C177.173 54.6 177.761 54.396 178.145 53.988C178.553 53.58 178.757 52.896 178.757 51.936V49.992C178.757 49.08 178.589 48.42 178.253 48.012C177.941 47.604 177.437 47.4 176.741 47.4H174.941V54.6H176.381ZM191.081 43.8H195.041V69H191.081V43.8ZM203.586 43.8H208.554L212.406 58.884H212.478V43.8H216.006V69H211.938L207.186 50.604H207.114V69H203.586V43.8ZM230.146 69.36C228.226 69.36 226.762 68.82 225.754 67.74C224.746 66.636 224.242 65.064 224.242 63.024V49.776C224.242 47.736 224.746 46.176 225.754 45.096C226.762 43.992 228.226 43.44 230.146 43.44C232.066 43.44 233.53 43.992 234.538 45.096C235.546 46.176 236.05 47.736 236.05 49.776V51.936H232.306V49.524C232.306 47.868 231.622 47.04 230.254 47.04C228.886 47.04 228.202 47.868 228.202 49.524V63.312C228.202 64.944 228.886 65.76 230.254 65.76C231.622 65.76 232.306 64.944 232.306 63.312V58.38H230.326V54.78H236.05V63.024C236.05 65.064 235.546 66.636 234.538 67.74C233.53 68.82 232.066 69.36 230.146 69.36ZM245.468 69H244.172V65.184H247.988V68.604L246.008 73.32H244.172L245.468 69ZM7.2 112.36C5.256 112.36 3.768 111.808 2.736 110.704C1.704 109.6 1.188 108.04 1.188 106.024V92.776C1.188 90.76 1.704 89.2 2.736 88.096C3.768 86.992 5.256 86.44 7.2 86.44C9.144 86.44 10.632 86.992 11.664 88.096C12.696 89.2 13.212 90.76 13.212 92.776V106.024C13.212 108.04 12.696 109.6 11.664 110.704C10.632 111.808 9.144 112.36 7.2 112.36ZM7.2 108.76C8.568 108.76 9.252 107.932 9.252 106.276V92.524C9.252 90.868 8.568 90.04 7.2 90.04C5.832 90.04 5.148 90.868 5.148 92.524V106.276C5.148 107.932 5.832 108.76 7.2 108.76ZM21.4701 86.8H27.3381C29.3781 86.8 30.8661 87.28 31.8021 88.24C32.7381 89.176 33.2061 90.628 33.2061 92.596V94.144C33.2061 96.76 32.3421 98.416 30.6141 99.112V99.184C31.5741 99.472 32.2461 100.06 32.6301 100.948C33.0381 101.836 33.2421 103.024 33.2421 104.512V108.94C33.2421 109.66 33.2661 110.248 33.3141 110.704C33.3621 111.136 33.4821 111.568 33.6741 112H29.6421C29.4981 111.592 29.4021 111.208 29.3541 110.848C29.3061 110.488 29.2821 109.84 29.2821 108.904V104.296C29.2821 103.144 29.0901 102.34 28.7061 101.884C28.3461 101.428 27.7101 101.2 26.7981 101.2H25.4301V112H21.4701V86.8ZM26.8701 97.6C27.6621 97.6 28.2501 97.396 28.6341 96.988C29.0421 96.58 29.2461 95.896 29.2461 94.936V92.992C29.2461 92.08 29.0781 91.42 28.7421 91.012C28.4301 90.604 27.9261 90.4 27.2301 90.4H25.4301V97.6H26.8701ZM41.5696 86.8H45.5296V112H41.5696V86.8ZM59.6914 112.36C57.7714 112.36 56.3074 111.82 55.2994 110.74C54.2914 109.636 53.7874 108.064 53.7874 106.024V92.776C53.7874 90.736 54.2914 89.176 55.2994 88.096C56.3074 86.992 57.7714 86.44 59.6914 86.44C61.6114 86.44 63.0754 86.992 64.0834 88.096C65.0914 89.176 65.5954 90.736 65.5954 92.776V94.936H61.8514V92.524C61.8514 90.868 61.1674 90.04 59.7994 90.04C58.4314 90.04 57.7474 90.868 57.7474 92.524V106.312C57.7474 107.944 58.4314 108.76 59.7994 108.76C61.1674 108.76 61.8514 107.944 61.8514 106.312V101.38H59.8714V97.78H65.5954V106.024C65.5954 108.064 65.0914 109.636 64.0834 110.74C63.0754 111.82 61.6114 112.36 59.6914 112.36ZM76.7779 86.8H82.1419L86.2459 112H82.2859L81.5659 106.996V107.068H77.0659L76.3459 112H72.6739L76.7779 86.8ZM81.0979 103.648L79.3339 91.192H79.2619L77.5339 103.648H81.0979ZM93.7471 86.8H99.3991L101.919 104.836H101.991L104.511 86.8H110.163V112H106.419V92.92H106.347L103.467 112H100.155L97.2751 92.92H97.2031V112H93.7471V86.8ZM118.698 86.8H122.658V112H118.698V86.8ZM1.476 129.8H7.308C9.276 129.8 10.752 130.328 11.736 131.384C12.72 132.44 13.212 133.988 13.212 136.028V138.512C13.212 140.552 12.72 142.1 11.736 143.156C10.752 144.212 9.276 144.74 7.308 144.74H5.436V155H1.476V129.8ZM7.308 141.14C7.956 141.14 8.436 140.96 8.748 140.6C9.084 140.24 9.252 139.628 9.252 138.764V135.776C9.252 134.912 9.084 134.3 8.748 133.94C8.436 133.58 7.956 133.4 7.308 133.4H5.436V141.14H7.308ZM26.6667 155.36C24.7227 155.36 23.2347 154.808 22.2027 153.704C21.1707 152.6 20.6547 151.04 20.6547 149.024V135.776C20.6547 133.76 21.1707 132.2 22.2027 131.096C23.2347 129.992 24.7227 129.44 26.6667 129.44C28.6107 129.44 30.0987 129.992 31.1307 131.096C32.1627 132.2 32.6787 133.76 32.6787 135.776V149.024C32.6787 151.04 32.1627 152.6 31.1307 153.704C30.0987 154.808 28.6107 155.36 26.6667 155.36ZM26.6667 151.76C28.0347 151.76 28.7187 150.932 28.7187 149.276V135.524C28.7187 133.868 28.0347 133.04 26.6667 133.04C25.2987 133.04 24.6147 133.868 24.6147 135.524V149.276C24.6147 150.932 25.2987 151.76 26.6667 151.76ZM43.8922 133.4H39.7522V129.8H51.9922V133.4H47.8522V155H43.8922V133.4ZM64.6374 155.36C62.7174 155.36 61.2654 154.82 60.2814 153.74C59.2974 152.636 58.8054 151.064 58.8054 149.024V147.584H62.5494V149.312C62.5494 150.944 63.2334 151.76 64.6014 151.76C65.2734 151.76 65.7774 151.568 66.1134 151.184C66.4734 150.776 66.6534 150.128 66.6534 149.24C66.6534 148.184 66.4134 147.26 65.9334 146.468C65.4534 145.652 64.5654 144.68 63.2694 143.552C61.6374 142.112 60.4974 140.816 59.8494 139.664C59.2014 138.488 58.8774 137.168 58.8774 135.704C58.8774 133.712 59.3814 132.176 60.3894 131.096C61.3974 129.992 62.8614 129.44 64.7814 129.44C66.6774 129.44 68.1054 129.992 69.0654 131.096C70.0494 132.176 70.5414 133.736 70.5414 135.776V136.82H66.7974V135.524C66.7974 134.66 66.6294 134.036 66.2934 133.652C65.9574 133.244 65.4654 133.04 64.8174 133.04C63.4974 133.04 62.8374 133.844 62.8374 135.452C62.8374 136.364 63.0774 137.216 63.5574 138.008C64.0614 138.8 64.9614 139.76 66.2574 140.888C67.9134 142.328 69.0534 143.636 69.6774 144.812C70.3014 145.988 70.6134 147.368 70.6134 148.952C70.6134 151.016 70.0974 152.6 69.0654 153.704C68.0574 154.808 66.5814 155.36 64.6374 155.36Z" fill="#03839E"/>
<path d="M1.476 0.799998V0.123581H0.799583V0.799998H1.476ZM11.736 2.384L11.2411 2.84513H11.2411L11.736 2.384ZM11.736 14.156L11.2411 13.6949L11.736 14.156ZM5.436 15.74V15.0636H4.75958V15.74H5.436ZM5.436 26V26.6764H6.11242V26H5.436ZM1.476 26H0.799583V26.6764H1.476V26ZM8.748 11.6L8.2535 11.1385L8.245 11.1476L8.23684 11.157L8.748 11.6ZM8.748 4.94L8.23684 5.38301L8.245 5.39242L8.2535 5.40153L8.748 4.94ZM5.436 4.4V3.72358H4.75958V4.4H5.436ZM5.436 12.14H4.75958V12.8164H5.436V12.14ZM1.476 1.47642H7.308V0.123581H1.476V1.47642ZM7.308 1.47642C9.15901 1.47642 10.4264 1.97078 11.2411 2.84513L12.2309 1.92287C11.0776 0.685217 9.39299 0.123581 7.308 0.123581V1.47642ZM11.2411 2.84513C12.0678 3.7323 12.5356 5.08836 12.5356 7.028H13.8884C13.8884 4.88764 13.3722 3.1477 12.2309 1.92287L11.2411 2.84513ZM12.5356 7.028V9.512H13.8884V7.028H12.5356ZM12.5356 9.512C12.5356 11.4516 12.0678 12.8077 11.2411 13.6949L12.2309 14.6171C13.3722 13.3923 13.8884 11.6524 13.8884 9.512H12.5356ZM11.2411 13.6949C10.4264 14.5692 9.15901 15.0636 7.308 15.0636V16.4164C9.39299 16.4164 11.0776 15.8548 12.2309 14.6171L11.2411 13.6949ZM7.308 15.0636H5.436V16.4164H7.308V15.0636ZM4.75958 15.74V26H6.11242V15.74H4.75958ZM5.436 25.3236H1.476V26.6764H5.436V25.3236ZM2.15242 26V0.799998H0.799583V26H2.15242ZM7.308 12.8164C8.07799 12.8164 8.77698 12.5994 9.25916 12.043L8.23684 11.157C8.09502 11.3206 7.83401 11.4636 7.308 11.4636V12.8164ZM9.2425 12.0615C9.75671 11.5106 9.92842 10.6811 9.92842 9.764H8.57558C8.57558 10.5749 8.41129 10.9694 8.2535 11.1385L9.2425 12.0615ZM9.92842 9.764V6.776H8.57558V9.764H9.92842ZM9.92842 6.776C9.92842 5.85894 9.75671 5.02941 9.2425 4.47847L8.2535 5.40153C8.41129 5.57059 8.57558 5.96505 8.57558 6.776H9.92842ZM9.25916 4.49699C8.77698 3.94063 8.07799 3.72358 7.308 3.72358V5.07642C7.83401 5.07642 8.09502 5.21937 8.23684 5.38301L9.25916 4.49699ZM7.308 3.72358H5.436V5.07642H7.308V3.72358ZM4.75958 4.4V12.14H6.11242V4.4H4.75958ZM5.436 12.8164H7.308V11.4636H5.436V12.8164ZM22.2027 24.704L22.6969 24.2421L22.2027 24.704ZM22.2027 2.096L22.6969 2.55791L22.2027 2.096ZM31.1307 2.096L30.6366 2.55791L31.1307 2.096ZM31.1307 24.704L30.6366 24.2421L31.1307 24.704ZM26.6667 25.6836C24.8533 25.6836 23.5668 25.1727 22.6969 24.2421L21.7086 25.1659C22.9027 26.4433 24.5921 27.0364 26.6667 27.0364V25.6836ZM22.6969 24.2421C21.8166 23.3005 21.3311 21.9271 21.3311 20.024H19.9783C19.9783 22.1529 20.5248 23.8995 21.7086 25.1659L22.6969 24.2421ZM21.3311 20.024V6.776H19.9783V20.024H21.3311ZM21.3311 6.776C21.3311 4.87294 21.8166 3.49954 22.6969 2.55791L21.7086 1.63408C20.5248 2.90046 19.9783 4.64706 19.9783 6.776H21.3311ZM22.6969 2.55791C23.5668 1.6273 24.8533 1.11642 26.6667 1.11642V-0.236418C24.5921 -0.236418 22.9027 0.356698 21.7086 1.63408L22.6969 2.55791ZM26.6667 1.11642C28.4801 1.11642 29.7667 1.6273 30.6366 2.55791L31.6249 1.63408C30.4308 0.356698 28.7413 -0.236418 26.6667 -0.236418V1.11642ZM30.6366 2.55791C31.5168 3.49954 32.0023 4.87294 32.0023 6.776H33.3551C33.3551 4.64706 32.8086 2.90046 31.6249 1.63408L30.6366 2.55791ZM32.0023 6.776V20.024H33.3551V6.776H32.0023ZM32.0023 20.024C32.0023 21.9271 31.5168 23.3005 30.6366 24.2421L31.6249 25.1659C32.8086 23.8995 33.3551 22.1529 33.3551 20.024H32.0023ZM30.6366 24.2421C29.7667 25.1727 28.4801 25.6836 26.6667 25.6836V27.0364C28.7413 27.0364 30.4308 26.4433 31.6249 25.1659L30.6366 24.2421ZM26.6667 23.4364C27.4926 23.4364 28.2229 23.1802 28.7272 22.5698C29.2111 21.9841 29.3951 21.1802 29.3951 20.276H28.0423C28.0423 21.0278 27.8844 21.4659 27.6842 21.7082C27.5045 21.9258 27.2088 22.0836 26.6667 22.0836V23.4364ZM29.3951 20.276V6.524H28.0423V20.276H29.3951ZM29.3951 6.524C29.3951 5.61983 29.2111 4.8159 28.7272 4.2302C28.2229 3.61975 27.4926 3.36358 26.6667 3.36358V4.71642C27.2088 4.71642 27.5045 4.87425 27.6842 5.0918C27.8844 5.3341 28.0423 5.77217 28.0423 6.524H29.3951ZM26.6667 3.36358C25.8408 3.36358 25.1105 3.61975 24.6062 4.2302C24.1224 4.8159 23.9383 5.61983 23.9383 6.524H25.2911C25.2911 5.77217 25.4491 5.3341 25.6492 5.0918C25.8289 4.87425 26.1246 4.71642 26.6667 4.71642V3.36358ZM23.9383 6.524V20.276H25.2911V6.524H23.9383ZM23.9383 20.276C23.9383 21.1802 24.1224 21.9841 24.6062 22.5698C25.1105 23.1802 25.8408 23.4364 26.6667 23.4364V22.0836C26.1246 22.0836 25.8289 21.9258 25.6492 21.7082C25.4491 21.4659 25.2911 21.0278 25.2911 20.276H23.9383ZM43.8922 4.4H44.5686V3.72358H43.8922V4.4ZM39.7522 4.4H39.0757V5.07642H39.7522V4.4ZM39.7522 0.799998V0.123581H39.0757V0.799998H39.7522ZM51.9922 0.799998H52.6686V0.123581H51.9922V0.799998ZM51.9922 4.4V5.07642H52.6686V4.4H51.9922ZM47.8522 4.4V3.72358H47.1757V4.4H47.8522ZM47.8522 26V26.6764H48.5286V26H47.8522ZM43.8922 26H43.2157V26.6764H43.8922V26ZM43.8922 3.72358H39.7522V5.07642H43.8922V3.72358ZM40.4286 4.4V0.799998H39.0757V4.4H40.4286ZM39.7522 1.47642H51.9922V0.123581H39.7522V1.47642ZM51.3157 0.799998V4.4H52.6686V0.799998H51.3157ZM51.9922 3.72358H47.8522V5.07642H51.9922V3.72358ZM47.1757 4.4V26H48.5286V4.4H47.1757ZM47.8522 25.3236H43.8922V26.6764H47.8522V25.3236ZM44.5686 26V4.4H43.2157V26H44.5686ZM59.4894 0.799998V0.123581H58.813V0.799998H59.4894ZM69.8214 2.24L69.3371 2.71224L69.3431 2.7183L69.8214 2.24ZM68.6334 13.112L68.3807 12.4846L67.957 12.6552V13.112H68.6334ZM68.6334 13.184H67.957V13.6873L68.4391 13.8319L68.6334 13.184ZM70.6494 14.948L70.0286 15.2165L70.0316 15.2235L70.0348 15.2304L70.6494 14.948ZM71.3334 24.704L70.6607 24.7748L70.6612 24.7787L71.3334 24.704ZM71.6934 26V26.6764H72.7343L72.3116 25.7253L71.6934 26ZM67.6614 26L67.0236 26.2251L67.1829 26.6764H67.6614V26ZM66.7254 15.884L66.1945 16.3031L66.2011 16.3115L66.208 16.3197L66.7254 15.884ZM63.4494 15.2V14.5236H62.773V15.2H63.4494ZM63.4494 26V26.6764H64.1259V26H63.4494ZM59.4894 26H58.813V26.6764H59.4894V26ZM66.6534 10.988L66.1751 10.5097L66.1679 10.5169L66.1609 10.5244L66.6534 10.988ZM66.7614 5.012L66.2241 5.42289L66.2315 5.43258L66.2393 5.442L66.7614 5.012ZM63.4494 4.4V3.72358H62.773V4.4H63.4494ZM63.4494 11.6H62.773V12.2764H63.4494V11.6ZM59.4894 1.47642H65.3574V0.123581H59.4894V1.47642ZM65.3574 1.47642C67.3089 1.47642 68.5817 1.93738 69.3371 2.71221L70.3057 1.76779C69.1892 0.622619 67.486 0.123581 65.3574 0.123581V1.47642ZM69.3431 2.7183C70.102 3.47711 70.549 4.7208 70.549 6.596H71.9019C71.9019 4.5352 71.4129 2.87488 70.2997 1.7617L69.3431 2.7183ZM70.549 6.596V8.144H71.9019V6.596H70.549ZM70.549 8.144C70.549 9.38417 70.3432 10.3346 69.9777 11.0351C69.62 11.7207 69.0949 12.1969 68.3807 12.4846L68.8862 13.7394C69.9 13.3311 70.6708 12.6313 71.1771 11.6609C71.6756 10.7054 71.9019 9.51983 71.9019 8.144H70.549ZM67.957 13.112V13.184H69.3099V13.112H67.957ZM68.4391 13.8319C69.2158 14.0649 69.727 14.5191 70.0286 15.2165L71.2703 14.6795C70.8038 13.6009 69.9711 12.8791 68.8278 12.5361L68.4391 13.8319ZM70.0348 15.2304C70.3865 15.9958 70.585 17.0754 70.585 18.512H71.9379C71.9379 16.9726 71.7284 15.6762 71.2641 14.6656L70.0348 15.2304ZM70.585 18.512V22.94H71.9379V18.512H70.585ZM70.585 22.94C70.585 23.672 70.6093 24.286 70.6607 24.7748L72.0061 24.6332C71.9616 24.21 71.9379 23.648 71.9379 22.94H70.585ZM70.6612 24.7787C70.7175 25.2855 70.8576 25.7848 71.0753 26.2747L72.3116 25.7253C72.1453 25.3512 72.0454 24.9865 72.0057 24.6293L70.6612 24.7787ZM71.6934 25.3236H67.6614V26.6764H71.6934V25.3236ZM68.2993 25.7749C68.168 25.4028 68.0847 25.0646 68.0439 24.7586L66.7029 24.9374C66.7582 25.3514 66.8669 25.7812 67.0236 26.2251L68.2993 25.7749ZM68.0439 24.7586C68.0026 24.4487 67.9779 23.8424 67.9779 22.904H66.625C66.625 23.8376 66.6483 24.5273 66.7029 24.9374L68.0439 24.7586ZM67.9779 22.904V18.296H66.625V22.904H67.9779ZM67.9779 18.296C67.9779 17.1128 67.7895 16.0975 67.2428 15.4483L66.208 16.3197C66.4293 16.5825 66.625 17.1752 66.625 18.296H67.9779ZM67.2563 15.4649C66.7091 14.7716 65.8176 14.5236 64.8174 14.5236V15.8764C65.6413 15.8764 66.0218 16.0844 66.1945 16.3031L67.2563 15.4649ZM64.8174 14.5236H63.4494V15.8764H64.8174V14.5236ZM62.773 15.2V26H64.1259V15.2H62.773ZM63.4494 25.3236H59.4894V26.6764H63.4494V25.3236ZM60.1659 26V0.799998H58.813V26H60.1659ZM64.8894 12.2764C65.7892 12.2764 66.5887 12.0437 67.146 11.4516L66.1609 10.5244C65.9502 10.7483 65.5737 10.9236 64.8894 10.9236V12.2764ZM67.1317 11.4663C67.7287 10.8694 67.9418 9.96271 67.9418 8.936H66.589C66.589 9.82928 66.3942 10.2906 66.1751 10.5097L67.1317 11.4663ZM67.9418 8.936V6.992H66.589V8.936H67.9418ZM67.9418 6.992C67.9418 6.0263 67.7695 5.17208 67.2836 4.582L66.2393 5.442C66.4253 5.66792 66.589 6.1337 66.589 6.992H67.9418ZM67.2988 4.60111C66.8168 3.97085 66.0757 3.72358 65.2494 3.72358V5.07642C65.8151 5.07642 66.0821 5.23715 66.2241 5.42289L67.2988 4.60111ZM65.2494 3.72358H63.4494V5.07642H65.2494V3.72358ZM62.773 4.4V11.6H64.1259V4.4H62.773ZM63.4494 12.2764H64.8894V10.9236H63.4494V12.2764ZM89.8906 14.48L89.3067 14.1385L89.003 14.6577L89.4832 15.02L89.8906 14.48ZM91.9426 11.744L92.3908 12.2506L92.392 12.2496L91.9426 11.744ZM95.3986 11.096L95.6498 10.468V10.468L95.3986 11.096ZM96.9106 11.924L97.271 11.3516H97.271L96.9106 11.924ZM98.2426 12.752L97.8946 13.332L97.9276 13.3518L97.9627 13.3678L98.2426 12.752ZM100.079 12.5L100.557 12.9783L100.566 12.9687L100.576 12.9588L100.079 12.5ZM101.375 10.772L101.782 10.232L101.217 9.80579L100.817 10.3895L101.375 10.772ZM103.427 12.32L104.01 12.6615L104.314 12.1423L103.834 11.78L103.427 12.32ZM101.339 15.092L101.787 15.5986L101.788 15.5976L101.339 15.092ZM97.9186 15.704L98.1698 15.076H98.1698L97.9186 15.704ZM96.4066 14.876L96.0462 15.4484L96.4066 14.876ZM95.0386 14.084L94.6906 14.664L94.7236 14.6838L94.7587 14.6998L95.0386 14.084ZM93.2386 14.336L93.7169 14.8143L93.7265 14.8047L93.7356 14.7948L93.2386 14.336ZM91.9426 16.028L91.5352 16.568L92.1002 16.9942L92.5005 16.4105L91.9426 16.028ZM90.4745 14.8215C91.2056 13.5716 91.8466 12.732 92.3908 12.2506L91.4944 11.2374C90.7906 11.86 90.0636 12.8444 89.3067 14.1385L90.4745 14.8215ZM92.392 12.2496C92.9129 11.7865 93.5198 11.5564 94.2466 11.5564V10.2036C93.1973 10.2036 92.2683 10.5495 91.4932 11.2384L92.392 12.2496ZM94.2466 11.5564C94.5731 11.5564 94.8714 11.6136 95.1474 11.724L95.6498 10.468C95.2058 10.2903 94.7361 10.2036 94.2466 10.2036V11.5564ZM95.1474 11.724C95.4484 11.8445 95.9103 12.0935 96.5502 12.4964L97.271 11.3516C96.6149 10.9385 96.0688 10.6355 95.6498 10.468L95.1474 11.724ZM96.5502 12.4964C97.1976 12.904 97.6475 13.1837 97.8946 13.332L98.5906 12.172C98.3577 12.0323 97.9196 11.76 97.271 11.3516L96.5502 12.4964ZM97.9627 13.3678C98.3059 13.5238 98.6649 13.6084 99.0346 13.6084V12.2556C98.8763 12.2556 98.7073 12.2202 98.5225 12.1362L97.9627 13.3678ZM99.0346 13.6084C99.6216 13.6084 100.142 13.3934 100.557 12.9783L99.6003 12.0217C99.4394 12.1826 99.2635 12.2556 99.0346 12.2556V13.6084ZM100.576 12.9588C100.9 12.6072 101.356 11.9946 101.932 11.1545L100.817 10.3895C100.241 11.2294 99.833 11.7688 99.5816 12.0412L100.576 12.9588ZM100.967 11.312L103.019 12.86L103.834 11.78L101.782 10.232L100.967 11.312ZM102.843 11.9785C102.113 13.2257 101.46 14.0794 100.889 14.5864L101.788 15.5976C102.514 14.9526 103.252 13.9583 104.01 12.6615L102.843 11.9785ZM100.89 14.5854C100.399 15.0204 99.8053 15.2436 99.0706 15.2436V16.5964C100.112 16.5964 101.031 16.2676 101.787 15.5986L100.89 14.5854ZM99.0706 15.2436C98.7441 15.2436 98.4458 15.1864 98.1698 15.076L97.6674 16.332C98.1114 16.5096 98.5811 16.5964 99.0706 16.5964V15.2436ZM98.1698 15.076C97.8688 14.9555 97.4069 14.7065 96.767 14.3036L96.0462 15.4484C96.7023 15.8615 97.2484 16.1645 97.6674 16.332L98.1698 15.076ZM96.767 14.3036C96.1218 13.8973 95.6297 13.6097 95.3185 13.4682L94.7587 14.6998C94.9755 14.7983 95.3954 15.0387 96.0462 15.4484L96.767 14.3036ZM95.3866 13.504C95.0481 13.3009 94.6767 13.1916 94.2826 13.1916V14.5444C94.4165 14.5444 94.5491 14.5791 94.6906 14.664L95.3866 13.504ZM94.2826 13.1916C93.6773 13.1916 93.1517 13.4329 92.7416 13.8772L93.7356 14.7948C93.9015 14.6151 94.0719 14.5444 94.2826 14.5444V13.1916ZM92.7603 13.8577C92.423 14.195 91.9596 14.8071 91.3847 15.6455L92.5005 16.4105C93.0776 15.5689 93.4782 15.053 93.7169 14.8143L92.7603 13.8577ZM92.35 15.488L90.298 13.94L89.4832 15.02L91.5352 16.568L92.35 15.488ZM122.274 0.799998V0.123581H121.598V0.799998H122.274ZM133.074 0.799998H133.751V0.123581H133.074V0.799998ZM133.074 4.4V5.07642H133.751V4.4H133.074ZM126.234 4.4V3.72358H125.558V4.4H126.234ZM126.234 11.06H125.558V11.7364H126.234V11.06ZM131.67 11.06H132.347V10.3836H131.67V11.06ZM131.67 14.66V15.3364H132.347V14.66H131.67ZM126.234 14.66V13.9836H125.558V14.66H126.234ZM126.234 22.4H125.558V23.0764H126.234V22.4ZM133.074 22.4H133.751V21.7236H133.074V22.4ZM133.074 26V26.6764H133.751V26H133.074ZM122.274 26H121.598V26.6764H122.274V26ZM122.274 1.47642H133.074V0.123581H122.274V1.47642ZM132.398 0.799998V4.4H133.751V0.799998H132.398ZM133.074 3.72358H126.234V5.07642H133.074V3.72358ZM125.558 4.4V11.06H126.911V4.4H125.558ZM126.234 11.7364H131.67V10.3836H126.234V11.7364ZM130.994 11.06V14.66H132.347V11.06H130.994ZM131.67 13.9836H126.234V15.3364H131.67V13.9836ZM125.558 14.66V22.4H126.911V14.66H125.558ZM126.234 23.0764H133.074V21.7236H126.234V23.0764ZM132.398 22.4V26H133.751V22.4H132.398ZM133.074 25.3236H122.274V26.6764H133.074V25.3236ZM122.951 26V0.799998H121.598V26H122.951ZM142.156 24.74L141.656 25.1956L141.662 25.2015L142.156 24.74ZM142.156 2.06L141.662 1.59843L141.656 1.60444L142.156 2.06ZM150.832 2.06L150.332 2.51559L150.338 2.52153L150.832 2.06ZM152.344 9.296V9.97242H153.021V9.296H152.344ZM148.6 9.296H147.924V9.97242H148.6V9.296ZM148.6 16.604V15.9276H147.924V16.604H148.6ZM152.344 16.604H153.021V15.9276H152.344V16.604ZM150.832 24.74L150.338 24.2784L150.332 24.2844L150.832 24.74ZM146.512 25.6836C144.748 25.6836 143.497 25.1851 142.651 24.2785L141.662 25.2015C142.832 26.4549 144.485 27.0364 146.512 27.0364V25.6836ZM142.656 24.2844C141.82 23.3669 141.357 22.0268 141.357 20.168H140.004C140.004 22.2452 140.524 23.9531 141.656 25.1956L142.656 24.2844ZM141.357 20.168V6.632H140.004V20.168H141.357ZM141.357 6.632C141.357 4.77316 141.82 3.43314 142.656 2.51556L141.656 1.60444C140.524 2.84686 140.004 4.55483 140.004 6.632H141.357ZM142.651 2.52153C143.497 1.61491 144.748 1.11642 146.512 1.11642V-0.236418C144.485 -0.236418 142.832 0.345085 141.662 1.59847L142.651 2.52153ZM146.512 1.11642C148.278 1.11642 149.512 1.61519 150.332 2.51556L151.332 1.60444C150.185 0.344811 148.539 -0.236418 146.512 -0.236418V1.11642ZM150.338 2.52153C151.195 3.43938 151.668 4.77713 151.668 6.632H153.021C153.021 4.55087 152.486 2.84062 151.327 1.59847L150.338 2.52153ZM151.668 6.632V9.296H153.021V6.632H151.668ZM152.344 8.61958H148.6V9.97242H152.344V8.61958ZM149.277 9.296V6.38H147.924V9.296H149.277ZM149.277 6.38C149.277 5.52076 149.097 4.75023 148.622 4.18807C148.128 3.60428 147.417 3.36358 146.62 3.36358V4.71642C147.144 4.71642 147.423 4.86572 147.589 5.06193C147.773 5.27977 147.924 5.67924 147.924 6.38H149.277ZM146.62 3.36358C145.824 3.36358 145.113 3.60428 144.619 4.18807C144.143 4.75023 143.964 5.52076 143.964 6.38H145.317C145.317 5.67924 145.467 5.27977 145.652 5.06193C145.818 4.86572 146.097 4.71642 146.62 4.71642V3.36358ZM143.964 6.38V20.456H145.317V6.38H143.964ZM143.964 20.456C143.964 21.3053 144.144 22.0685 144.622 22.6249C145.117 23.2009 145.827 23.4364 146.62 23.4364V22.0836C146.094 22.0836 145.813 21.9351 145.648 21.7431C145.467 21.5315 145.317 21.1427 145.317 20.456H143.964ZM146.62 23.4364C147.414 23.4364 148.123 23.2009 148.618 22.6249C149.097 22.0685 149.277 21.3053 149.277 20.456H147.924C147.924 21.1427 147.774 21.5315 147.592 21.7431C147.427 21.9351 147.147 22.0836 146.62 22.0836V23.4364ZM149.277 20.456V16.604H147.924V20.456H149.277ZM148.6 17.2804H152.344V15.9276H148.6V17.2804ZM151.668 16.604V20.168H153.021V16.604H151.668ZM151.668 20.168C151.668 22.0229 151.195 23.3606 150.338 24.2785L151.327 25.2015C152.486 23.9594 153.021 22.2491 153.021 20.168H151.668ZM150.332 24.2844C149.512 25.1848 148.278 25.6836 146.512 25.6836V27.0364C148.539 27.0364 150.185 26.4552 151.332 25.1956L150.332 24.2844ZM161.624 24.704L162.118 24.2421L161.624 24.704ZM161.624 2.096L162.118 2.55791L161.624 2.096ZM170.552 2.096L170.058 2.55791L170.552 2.096ZM170.552 24.704L170.058 24.2421L170.552 24.704ZM166.088 25.6836C164.275 25.6836 162.988 25.1727 162.118 24.2421L161.13 25.1659C162.324 26.4433 164.013 27.0364 166.088 27.0364V25.6836ZM162.118 24.2421C161.238 23.3005 160.752 21.9271 160.752 20.024H159.4C159.4 22.1529 159.946 23.8995 161.13 25.1659L162.118 24.2421ZM160.752 20.024V6.776H159.4V20.024H160.752ZM160.752 6.776C160.752 4.87294 161.238 3.49954 162.118 2.55791L161.13 1.63408C159.946 2.90046 159.4 4.64706 159.4 6.776H160.752ZM162.118 2.55791C162.988 1.6273 164.275 1.11642 166.088 1.11642V-0.236418C164.013 -0.236418 162.324 0.356698 161.13 1.63408L162.118 2.55791ZM166.088 1.11642C167.901 1.11642 169.188 1.6273 170.058 2.55791L171.046 1.63408C169.852 0.356698 168.163 -0.236418 166.088 -0.236418V1.11642ZM170.058 2.55791C170.938 3.49954 171.424 4.87294 171.424 6.776H172.776C172.776 4.64706 172.23 2.90046 171.046 1.63408L170.058 2.55791ZM171.424 6.776V20.024H172.776V6.776H171.424ZM171.424 20.024C171.424 21.9271 170.938 23.3005 170.058 24.2421L171.046 25.1659C172.23 23.8995 172.776 22.1529 172.776 20.024H171.424ZM170.058 24.2421C169.188 25.1727 167.901 25.6836 166.088 25.6836V27.0364C168.163 27.0364 169.852 26.4433 171.046 25.1659L170.058 24.2421ZM166.088 23.4364C166.914 23.4364 167.644 23.1802 168.148 22.5698C168.632 21.9841 168.816 21.1802 168.816 20.276H167.464C167.464 21.0278 167.306 21.4659 167.105 21.7082C166.926 21.9258 166.63 22.0836 166.088 22.0836V23.4364ZM168.816 20.276V6.524H167.464V20.276H168.816ZM168.816 6.524C168.816 5.61983 168.632 4.8159 168.148 4.2302C167.644 3.61975 166.914 3.36358 166.088 3.36358V4.71642C166.63 4.71642 166.926 4.87425 167.105 5.0918C167.306 5.3341 167.464 5.77217 167.464 6.524H168.816ZM166.088 3.36358C165.262 3.36358 164.532 3.61975 164.027 4.2302C163.544 4.8159 163.36 5.61983 163.36 6.524H164.712C164.712 5.77217 164.87 5.3341 165.07 5.0918C165.25 4.87425 165.546 4.71642 166.088 4.71642V3.36358ZM163.36 6.524V20.276H164.712V6.524H163.36ZM163.36 20.276C163.36 21.1802 163.544 21.9841 164.027 22.5698C164.532 23.1802 165.262 23.4364 166.088 23.4364V22.0836C165.546 22.0836 165.25 21.9258 165.07 21.7082C164.87 21.4659 164.712 21.0278 164.712 20.276H163.36ZM181.443 26L182.091 26.1944L182.352 25.3236H181.443V26ZM180.147 26H179.471V26.6764H180.147V26ZM180.147 22.184V21.5076H179.471V22.184H180.147ZM183.963 22.184H184.64V21.5076H183.963V22.184ZM183.963 25.604L184.587 25.8659L184.64 25.7402V25.604H183.963ZM181.983 30.32V30.9964H182.433L182.607 30.5818L181.983 30.32ZM180.147 30.32L179.499 30.1256L179.238 30.9964H180.147V30.32ZM181.443 25.3236H180.147V26.6764H181.443V25.3236ZM180.824 26V22.184H179.471V26H180.824ZM180.147 22.8604H183.963V21.5076H180.147V22.8604ZM183.287 22.184V25.604H184.64V22.184H183.287ZM183.339 25.3421L181.359 30.0582L182.607 30.5818L184.587 25.8659L183.339 25.3421ZM181.983 29.6436H180.147V30.9964H181.983V29.6436ZM180.795 30.5144L182.091 26.1944L180.795 25.8056L179.499 30.1256L180.795 30.5144ZM2.268 67.74L1.76302 68.1901L1.768 68.1956L2.268 67.74ZM0.792 61.584V60.9076H0.115583V61.584H0.792ZM4.536 61.584H5.21242V60.9076H4.536V61.584ZM8.1 65.184L7.59279 64.7365L7.59094 64.7386L8.1 65.184ZM7.92 60.468L7.33692 60.811L7.34153 60.8186L7.92 60.468ZM5.256 57.552L4.80846 58.0592L4.81192 58.0622L5.256 57.552ZM1.836 53.664L1.24355 53.9905L1.24645 53.9956L1.836 53.664ZM2.376 45.096L2.87053 45.5576L2.87552 45.5521L2.376 45.096ZM11.052 45.096L10.5416 45.5398L10.5467 45.5458L10.552 45.5516L11.052 45.096ZM12.528 50.82V51.4964H13.2044V50.82H12.528ZM8.784 50.82H8.10758V51.4964H8.784V50.82ZM8.28 47.652L7.75785 48.082L7.76428 48.0898L7.77094 48.0974L8.28 47.652ZM5.544 52.008L4.96553 52.3586L4.96936 52.3649L4.97333 52.3712L5.544 52.008ZM8.244 54.888L7.79992 55.3982L7.80015 55.3984L8.244 54.888ZM11.664 58.812L11.0665 59.129L11.664 58.812ZM11.052 67.704L10.5578 67.2421L10.5525 67.2479L11.052 67.704ZM6.624 68.6836C4.8313 68.6836 3.58678 68.1831 2.768 67.2844L1.768 68.1956C2.91722 69.4569 4.5767 70.0364 6.624 70.0364V68.6836ZM2.77295 67.2899C1.93523 66.35 1.46842 64.9612 1.46842 63.024H0.115583C0.115583 65.1668 0.632771 66.922 1.76305 68.1901L2.77295 67.2899ZM1.46842 63.024V61.584H0.115583V63.024H1.46842ZM0.792 62.2604H4.536V60.9076H0.792V62.2604ZM3.85958 61.584V63.312H5.21242V61.584H3.85958ZM3.85958 63.312C3.85958 64.206 4.04445 65.0025 4.53061 65.5825C5.03595 66.1854 5.76532 66.4364 6.588 66.4364V65.0836C6.04268 65.0836 5.74605 64.9266 5.56739 64.7135C5.36955 64.4775 5.21242 64.05 5.21242 63.312H3.85958ZM6.588 66.4364C7.38949 66.4364 8.10696 66.2032 8.60906 65.6294L7.59094 64.7386C7.42104 64.9328 7.13051 65.0836 6.588 65.0836V66.4364ZM8.6072 65.6315C9.12702 65.0424 9.31642 64.1952 9.31642 63.24H7.96358C7.96358 64.0608 7.79298 64.5096 7.5928 64.7365L8.6072 65.6315ZM9.31642 63.24C9.31642 62.0781 9.05114 61.0293 8.49847 60.1174L7.34153 60.8186C7.74887 61.4907 7.96358 62.2899 7.96358 63.24H9.31642ZM8.50303 60.125C7.96738 59.2144 7.01396 58.1853 5.70008 57.0418L4.81192 58.0622C6.09004 59.1747 6.91263 60.0896 7.33697 60.811L8.50303 60.125ZM5.70353 57.0448C4.09656 55.6269 3.02011 54.3894 2.42555 53.3324L1.24645 53.9956C1.94789 55.2426 3.15144 56.5971 4.80847 58.0592L5.70353 57.0448ZM2.42843 53.3376C1.84041 52.2704 1.54042 51.0644 1.54042 49.704H0.187583C0.187583 51.2716 0.535587 52.7056 1.24357 53.9904L2.42843 53.3376ZM1.54042 49.704C1.54042 47.8225 2.01515 46.474 2.8705 45.5575L1.8815 44.6345C0.720849 45.878 0.187583 47.6015 0.187583 49.704H1.54042ZM2.87552 45.5521C3.7212 44.6259 4.98067 44.1164 6.768 44.1164V42.7636C4.71533 42.7636 3.0468 43.3581 1.87648 44.6399L2.87552 45.5521ZM6.768 44.1164C8.53007 44.1164 9.74572 44.6246 10.5416 45.5398L11.5624 44.6521C10.4383 43.3594 8.79793 42.7636 6.768 42.7636V44.1164ZM10.552 45.5516C11.3843 46.4651 11.8516 47.8376 11.8516 49.776H13.2044C13.2044 47.6344 12.6877 45.8869 11.552 44.6404L10.552 45.5516ZM11.8516 49.776V50.82H13.2044V49.776H11.8516ZM12.528 50.1436H8.784V51.4964H12.528V50.1436ZM9.46042 50.82V49.524H8.10758V50.82H9.46042ZM9.46042 49.524C9.46042 48.6008 9.28618 47.7747 8.78906 47.2066L7.77094 48.0974C7.94582 48.2973 8.10758 48.7192 8.10758 49.524H9.46042ZM8.80215 47.222C8.30885 46.623 7.60397 46.3636 6.804 46.3636V47.7164C7.30003 47.7164 7.57915 47.865 7.75785 48.082L8.80215 47.222ZM6.804 46.3636C6.00065 46.3636 5.28799 46.6147 4.79618 47.2138C4.32534 47.7874 4.14758 48.5726 4.14758 49.452H5.50042C5.50042 48.7234 5.65266 48.3026 5.84182 48.0722C6.01001 47.8673 6.28735 47.7164 6.804 47.7164V46.3636ZM4.14758 49.452C4.14758 50.4896 4.4225 51.4626 4.96553 52.3586L6.12247 51.6574C5.7055 50.9694 5.50042 50.2384 5.50042 49.452H4.14758ZM4.97333 52.3712C5.52998 53.2459 6.48835 54.2567 7.79992 55.3982L8.68808 54.3778C7.40765 53.2633 6.56603 52.3541 6.11467 51.6448L4.97333 52.3712ZM7.80015 55.3984C9.42878 56.8146 10.4985 58.0587 11.0665 59.129L12.2615 58.4949C11.5815 57.2133 10.3712 55.8414 8.68785 54.3776L7.80015 55.3984ZM11.0665 59.129C11.6297 60.1905 11.9236 61.4576 11.9236 62.952H13.2764C13.2764 61.2784 12.9463 59.7855 12.2615 58.4949L11.0665 59.129ZM11.9236 62.952C11.9236 64.9081 11.4355 66.3032 10.5579 67.2421L11.5461 68.1659C12.7325 66.8968 13.2764 65.1239 13.2764 62.952H11.9236ZM10.5525 67.2479C9.70836 68.1724 8.43831 68.6836 6.624 68.6836V70.0364C8.69769 70.0364 10.3796 69.4436 11.5515 68.1601L10.5525 67.2479ZM20.4505 43.8V43.1236H19.7741V43.8H20.4505ZM31.2505 43.8H31.9269V43.1236H31.2505V43.8ZM31.2505 47.4V48.0764H31.9269V47.4H31.2505ZM24.4105 47.4V46.7236H23.7341V47.4H24.4105ZM24.4105 54.06H23.7341V54.7364H24.4105V54.06ZM29.8465 54.06H30.5229V53.3836H29.8465V54.06ZM29.8465 57.66V58.3364H30.5229V57.66H29.8465ZM24.4105 57.66V56.9836H23.7341V57.66H24.4105ZM24.4105 65.4H23.7341V66.0764H24.4105V65.4ZM31.2505 65.4H31.9269V64.7236H31.2505V65.4ZM31.2505 69V69.6764H31.9269V69H31.2505ZM20.4505 69H19.7741V69.6764H20.4505V69ZM20.4505 44.4764H31.2505V43.1236H20.4505V44.4764ZM30.5741 43.8V47.4H31.9269V43.8H30.5741ZM31.2505 46.7236H24.4105V48.0764H31.2505V46.7236ZM23.7341 47.4V54.06H25.0869V47.4H23.7341ZM24.4105 54.7364H29.8465V53.3836H24.4105V54.7364ZM29.1701 54.06V57.66H30.5229V54.06H29.1701ZM29.8465 56.9836H24.4105V58.3364H29.8465V56.9836ZM23.7341 57.66V65.4H25.0869V57.66H23.7341ZM24.4105 66.0764H31.2505V64.7236H24.4105V66.0764ZM30.5741 65.4V69H31.9269V65.4H30.5741ZM31.2505 68.3236H20.4505V69.6764H31.2505V68.3236ZM21.1269 69V43.8H19.7741V69H21.1269ZM39.1087 43.8V43.1236H38.4322V43.8H39.1087ZM43.0687 43.8H43.7451V43.1236H43.0687V43.8ZM43.0687 65.4H42.3922V66.0764H43.0687V65.4ZM49.5847 65.4H50.2611V64.7236H49.5847V65.4ZM49.5847 69V69.6764H50.2611V69H49.5847ZM39.1087 69H38.4322V69.6764H39.1087V69ZM39.1087 44.4764H43.0687V43.1236H39.1087V44.4764ZM42.3922 43.8V65.4H43.7451V43.8H42.3922ZM43.0687 66.0764H49.5847V64.7236H43.0687V66.0764ZM48.9082 65.4V69H50.2611V65.4H48.9082ZM49.5847 68.3236H39.1087V69.6764H49.5847V68.3236ZM39.7851 69V43.8H38.4322V69H39.7851ZM57.0637 43.8V43.1236H56.3872V43.8H57.0637ZM67.5397 43.8H68.2161V43.1236H67.5397V43.8ZM67.5397 47.4V48.0764H68.2161V47.4H67.5397ZM61.0237 47.4V46.7236H60.3472V47.4H61.0237ZM61.0237 54.42H60.3472V55.0964H61.0237V54.42ZM66.1357 54.42H66.8121V53.7436H66.1357V54.42ZM66.1357 58.02V58.6964H66.8121V58.02H66.1357ZM61.0237 58.02V57.3436H60.3472V58.02H61.0237ZM61.0237 69V69.6764H61.7001V69H61.0237ZM57.0637 69H56.3872V69.6764H57.0637V69ZM57.0637 44.4764H67.5397V43.1236H57.0637V44.4764ZM66.8632 43.8V47.4H68.2161V43.8H66.8632ZM67.5397 46.7236H61.0237V48.0764H67.5397V46.7236ZM60.3472 47.4V54.42H61.7001V47.4H60.3472ZM61.0237 55.0964H66.1357V53.7436H61.0237V55.0964ZM65.4592 54.42V58.02H66.8121V54.42H65.4592ZM66.1357 57.3436H61.0237V58.6964H66.1357V57.3436ZM60.3472 58.02V69H61.7001V58.02H60.3472ZM61.0237 68.3236H57.0637V69.6764H61.0237V68.3236ZM57.7401 69V43.8H56.3872V69H57.7401ZM74.2669 54.6V53.9236H73.5905V54.6H74.2669ZM82.1869 54.6H82.8633V53.9236H82.1869V54.6ZM82.1869 58.2V58.8764H82.8633V58.2H82.1869ZM74.2669 58.2H73.5905V58.8764H74.2669V58.2ZM74.2669 55.2764H82.1869V53.9236H74.2669V55.2764ZM81.5105 54.6V58.2H82.8633V54.6H81.5105ZM82.1869 57.5236H74.2669V58.8764H82.1869V57.5236ZM74.9433 58.2V54.6H73.5905V58.2H74.9433ZM89.19 43.8V43.1236H88.4415L88.517 43.8683L89.19 43.8ZM93.006 43.8L93.6796 43.7386L93.6236 43.1236H93.006V43.8ZM94.77 63.168L94.0964 63.2294L94.1524 63.8444H94.77V63.168ZM94.842 63.168V63.8444H95.4562L95.5153 63.2331L94.842 63.168ZM96.714 43.8V43.1236H96.0998L96.0407 43.7349L96.714 43.8ZM101.034 43.8L101.707 43.7349L101.648 43.1236H101.034V43.8ZM102.906 63.168L102.233 63.2331L102.292 63.8444H102.906V63.168ZM102.978 63.168V63.8444H103.596L103.652 63.2294L102.978 63.168ZM104.742 43.8V43.1236H104.124L104.068 43.7386L104.742 43.8ZM108.162 43.8L108.835 43.8683L108.91 43.1236H108.162V43.8ZM105.606 69V69.6764H106.217L106.279 69.0683L105.606 69ZM100.674 69L100.001 69.0713L100.065 69.6764H100.674V69ZM98.874 52.008L99.5467 51.9367L99.4826 51.3316H98.874V52.008ZM98.802 52.008V51.3316H98.1935L98.1293 51.9367L98.802 52.008ZM97.002 69V69.6764H97.6105L97.6747 69.0713L97.002 69ZM91.746 69L91.073 69.0683L91.1347 69.6764H91.746V69ZM89.19 44.4764H93.006V43.1236H89.19V44.4764ZM92.3324 43.8614L94.0964 63.2294L95.4436 63.1066L93.6796 43.7386L92.3324 43.8614ZM94.77 63.8444H94.842V62.4916H94.77V63.8444ZM95.5153 63.2331L97.3873 43.8651L96.0407 43.7349L94.1687 63.1029L95.5153 63.2331ZM96.714 44.4764H101.034V43.1236H96.714V44.4764ZM100.361 43.8651L102.233 63.2331L103.579 63.1029L101.707 43.7349L100.361 43.8651ZM102.906 63.8444H102.978V62.4916H102.906V63.8444ZM103.652 63.2294L105.416 43.8614L104.068 43.7386L102.304 63.1066L103.652 63.2294ZM104.742 44.4764H108.162V43.1236H104.742V44.4764ZM107.489 43.7317L104.933 68.9317L106.279 69.0683L108.835 43.8683L107.489 43.7317ZM105.606 68.3236H100.674V69.6764H105.606V68.3236ZM101.347 68.9287L99.5467 51.9367L98.2013 52.0793L100.001 69.0713L101.347 68.9287ZM98.874 51.3316H98.802V52.6844H98.874V51.3316ZM98.1293 51.9367L96.3293 68.9287L97.6747 69.0713L99.4747 52.0793L98.1293 51.9367ZM97.002 68.3236H91.746V69.6764H97.002V68.3236ZM92.419 68.9317L89.863 43.7317L88.517 43.8683L91.073 69.0683L92.419 68.9317ZM118.313 43.8V43.1236H117.738L117.645 43.6913L118.313 43.8ZM123.677 43.8L124.344 43.6913L124.252 43.1236H123.677V43.8ZM127.781 69V69.6764H128.576L128.448 68.8913L127.781 69ZM123.821 69L123.151 69.0963L123.235 69.6764H123.821V69ZM123.101 63.996L123.77 63.8997L122.424 63.996H123.101ZM123.101 64.068V64.7444H123.777V64.068H123.101ZM118.601 64.068V63.3916H118.016L117.932 63.9703L118.601 64.068ZM117.881 69V69.6764H118.466L118.55 69.0977L117.881 69ZM114.209 69L113.541 68.8913L113.413 69.6764H114.209V69ZM122.633 60.648V61.3244H123.412L123.303 60.5532L122.633 60.648ZM120.869 48.192L121.539 48.0972L121.456 47.5156H120.869V48.192ZM120.797 48.192V47.5156H120.208L120.127 48.0991L120.797 48.192ZM119.069 60.648L118.399 60.5551L118.292 61.3244H119.069V60.648ZM118.313 44.4764H123.677V43.1236H118.313V44.4764ZM123.009 43.9087L127.113 69.1087L128.448 68.8913L124.344 43.6913L123.009 43.9087ZM127.781 68.3236H123.821V69.6764H127.781V68.3236ZM124.49 68.9037L123.77 63.8997L122.431 64.0923L123.151 69.0963L124.49 68.9037ZM122.424 63.996V64.068H123.777V63.996H122.424ZM123.101 63.3916H118.601V64.7444H123.101V63.3916ZM117.932 63.9703L117.212 68.9023L118.55 69.0977L119.27 64.1657L117.932 63.9703ZM117.881 68.3236H114.209V69.6764H117.881V68.3236ZM114.876 69.1087L118.98 43.9087L117.645 43.6913L113.541 68.8913L114.876 69.1087ZM123.303 60.5532L121.539 48.0972L120.199 48.2868L121.963 60.7428L123.303 60.5532ZM120.869 47.5156H120.797V48.8684H120.869V47.5156ZM120.127 48.0991L118.399 60.5551L119.739 60.741L121.467 48.2849L120.127 48.0991ZM119.069 61.3244H122.633V59.9716H119.069V61.3244ZM136.726 47.4H137.402V46.7236H136.726V47.4ZM132.586 47.4H131.909V48.0764H132.586V47.4ZM132.586 43.8V43.1236H131.909V43.8H132.586ZM144.826 43.8H145.502V43.1236H144.826V43.8ZM144.826 47.4V48.0764H145.502V47.4H144.826ZM140.686 47.4V46.7236H140.009V47.4H140.686ZM140.686 69V69.6764H141.362V69H140.686ZM136.726 69H136.049V69.6764H136.726V69ZM136.726 46.7236H132.586V48.0764H136.726V46.7236ZM133.262 47.4V43.8H131.909V47.4H133.262ZM132.586 44.4764H144.826V43.1236H132.586V44.4764ZM144.149 43.8V47.4H145.502V43.8H144.149ZM144.826 46.7236H140.686V48.0764H144.826V46.7236ZM140.009 47.4V69H141.362V47.4H140.009ZM140.686 68.3236H136.726V69.6764H140.686V68.3236ZM137.402 69V47.4H136.049V69H137.402ZM152.323 43.8V43.1236H151.647V43.8H152.323ZM163.123 43.8H163.799V43.1236H163.123V43.8ZM163.123 47.4V48.0764H163.799V47.4H163.123ZM156.283 47.4V46.7236H155.607V47.4H156.283ZM156.283 54.06H155.607V54.7364H156.283V54.06ZM161.719 54.06H162.395V53.3836H161.719V54.06ZM161.719 57.66V58.3364H162.395V57.66H161.719ZM156.283 57.66V56.9836H155.607V57.66H156.283ZM156.283 65.4H155.607V66.0764H156.283V65.4ZM163.123 65.4H163.799V64.7236H163.123V65.4ZM163.123 69V69.6764H163.799V69H163.123ZM152.323 69H151.647V69.6764H152.323V69ZM152.323 44.4764H163.123V43.1236H152.323V44.4764ZM162.447 43.8V47.4H163.799V43.8H162.447ZM163.123 46.7236H156.283V48.0764H163.123V46.7236ZM155.607 47.4V54.06H156.959V47.4H155.607ZM156.283 54.7364H161.719V53.3836H156.283V54.7364ZM161.043 54.06V57.66H162.395V54.06H161.043ZM161.719 56.9836H156.283V58.3364H161.719V56.9836ZM155.607 57.66V65.4H156.959V57.66H155.607ZM156.283 66.0764H163.123V64.7236H156.283V66.0764ZM162.447 65.4V69H163.799V65.4H162.447ZM163.123 68.3236H152.323V69.6764H163.123V68.3236ZM152.999 69V43.8H151.647V69H152.999ZM170.981 43.8V43.1236H170.305V43.8H170.981ZM181.313 45.24L180.829 45.7122L180.835 45.7183L181.313 45.24ZM180.125 56.112L179.872 55.4846L179.449 55.6552V56.112H180.125ZM180.125 56.184H179.449V56.6873L179.931 56.8319L180.125 56.184ZM182.141 57.948L181.52 58.2165L181.523 58.2235L181.527 58.2304L182.141 57.948ZM182.825 67.704L182.152 67.7748L182.153 67.7787L182.825 67.704ZM183.185 69V69.6764H184.226L183.803 68.7253L183.185 69ZM179.153 69L178.515 69.2251L178.675 69.6764H179.153V69ZM178.217 58.884L177.686 59.3031L177.693 59.3115L177.7 59.3197L178.217 58.884ZM174.941 58.2V57.5236H174.265V58.2H174.941ZM174.941 69V69.6764H175.618V69H174.941ZM170.981 69H170.305V69.6764H170.981V69ZM178.145 53.988L177.667 53.5097L177.66 53.5169L177.653 53.5244L178.145 53.988ZM178.253 48.012L177.716 48.4229L177.723 48.4326L177.731 48.442L178.253 48.012ZM174.941 47.4V46.7236H174.265V47.4H174.941ZM174.941 54.6H174.265V55.2764H174.941V54.6ZM170.981 44.4764H176.849V43.1236H170.981V44.4764ZM176.849 44.4764C178.801 44.4764 180.073 44.9374 180.829 45.7122L181.797 44.7678C180.681 43.6226 178.978 43.1236 176.849 43.1236V44.4764ZM180.835 45.7183C181.594 46.4771 182.041 47.7208 182.041 49.596H183.394C183.394 47.5352 182.905 45.8749 181.791 44.7617L180.835 45.7183ZM182.041 49.596V51.144H183.394V49.596H182.041ZM182.041 51.144C182.041 52.3842 181.835 53.3346 181.469 54.0351C181.112 54.7207 180.587 55.1969 179.872 55.4846L180.378 56.7394C181.392 56.3311 182.163 55.6313 182.669 54.6609C183.167 53.7054 183.394 52.5198 183.394 51.144H182.041ZM179.449 56.112V56.184H180.802V56.112H179.449ZM179.931 56.8319C180.708 57.0649 181.219 57.5191 181.52 58.2165L182.762 57.6795C182.296 56.6009 181.463 55.8791 180.32 55.5361L179.931 56.8319ZM181.527 58.2304C181.878 58.9958 182.077 60.0754 182.077 61.512H183.43C183.43 59.9726 183.22 58.6762 182.756 57.6656L181.527 58.2304ZM182.077 61.512V65.94H183.43V61.512H182.077ZM182.077 65.94C182.077 66.672 182.101 67.286 182.152 67.7748L183.498 67.6332C183.453 67.21 183.43 66.648 183.43 65.94H182.077ZM182.153 67.7787C182.209 68.2855 182.349 68.7848 182.567 69.2747L183.803 68.7253C183.637 68.3512 183.537 67.9865 183.497 67.6293L182.153 67.7787ZM183.185 68.3236H179.153V69.6764H183.185V68.3236ZM179.791 68.7749C179.66 68.4028 179.576 68.0646 179.536 67.7586L178.195 67.9374C178.25 68.3514 178.359 68.7812 178.515 69.2251L179.791 68.7749ZM179.536 67.7586C179.494 67.4487 179.47 66.8424 179.47 65.904H178.117C178.117 66.8376 178.14 67.5273 178.195 67.9374L179.536 67.7586ZM179.47 65.904V61.296H178.117V65.904H179.47ZM179.47 61.296C179.47 60.1128 179.281 59.0975 178.735 58.4483L177.7 59.3197C177.921 59.5825 178.117 60.1752 178.117 61.296H179.47ZM178.748 58.4649C178.201 57.7716 177.309 57.5236 176.309 57.5236V58.8764C177.133 58.8764 177.514 59.0844 177.686 59.3031L178.748 58.4649ZM176.309 57.5236H174.941V58.8764H176.309V57.5236ZM174.265 58.2V69H175.618V58.2H174.265ZM174.941 68.3236H170.981V69.6764H174.941V68.3236ZM171.658 69V43.8H170.305V69H171.658ZM176.381 55.2764C177.281 55.2764 178.08 55.0437 178.638 54.4516L177.653 53.5244C177.442 53.7483 177.065 53.9236 176.381 53.9236V55.2764ZM178.623 54.4663C179.22 53.8694 179.434 52.9627 179.434 51.936H178.081C178.081 52.8293 177.886 53.2906 177.667 53.5097L178.623 54.4663ZM179.434 51.936V49.992H178.081V51.936H179.434ZM179.434 49.992C179.434 49.0263 179.261 48.1721 178.775 47.582L177.731 48.442C177.917 48.6679 178.081 49.1337 178.081 49.992H179.434ZM178.79 47.6011C178.309 46.9708 177.567 46.7236 176.741 46.7236V48.0764C177.307 48.0764 177.574 48.2372 177.716 48.4229L178.79 47.6011ZM176.741 46.7236H174.941V48.0764H176.741V46.7236ZM174.265 47.4V54.6H175.618V47.4H174.265ZM174.941 55.2764H176.381V53.9236H174.941V55.2764ZM191.081 43.8V43.1236H190.404V43.8H191.081ZM195.041 43.8H195.717V43.1236H195.041V43.8ZM195.041 69V69.6764H195.717V69H195.041ZM191.081 69H190.404V69.6764H191.081V69ZM191.081 44.4764H195.041V43.1236H191.081V44.4764ZM194.364 43.8V69H195.717V43.8H194.364ZM195.041 68.3236H191.081V69.6764H195.041V68.3236ZM191.757 69V43.8H190.404V69H191.757ZM203.586 43.8V43.1236H202.91V43.8H203.586ZM208.554 43.8L209.21 43.6326L209.08 43.1236H208.554V43.8ZM212.406 58.884L211.751 59.0514L211.881 59.5604H212.406V58.884ZM212.478 58.884V59.5604H213.155V58.884H212.478ZM212.478 43.8V43.1236H211.802V43.8H212.478ZM216.006 43.8H216.683V43.1236H216.006V43.8ZM216.006 69V69.6764H216.683V69H216.006ZM211.938 69L211.284 69.1692L211.415 69.6764H211.938V69ZM207.186 50.604L207.841 50.4348L207.71 49.9276H207.186V50.604ZM207.114 50.604V49.9276H206.438V50.604H207.114ZM207.114 69V69.6764H207.791V69H207.114ZM203.586 69H202.91V69.6764H203.586V69ZM203.586 44.4764H208.554V43.1236H203.586V44.4764ZM207.899 43.9674L211.751 59.0514L213.062 58.7166L209.21 43.6326L207.899 43.9674ZM212.406 59.5604H212.478V58.2076H212.406V59.5604ZM213.155 58.884V43.8H211.802V58.884H213.155ZM212.478 44.4764H216.006V43.1236H212.478V44.4764ZM215.33 43.8V69H216.683V43.8H215.33ZM216.006 68.3236H211.938V69.6764H216.006V68.3236ZM212.593 68.8308L207.841 50.4348L206.532 50.7732L211.284 69.1692L212.593 68.8308ZM207.186 49.9276H207.114V51.2804H207.186V49.9276ZM206.438 50.604V69H207.791V50.604H206.438ZM207.114 68.3236H203.586V69.6764H207.114V68.3236ZM204.263 69V43.8H202.91V69H204.263ZM225.754 67.74L225.254 68.1961L225.259 68.2015L225.754 67.74ZM225.754 45.096L226.248 45.5576L226.253 45.5521L225.754 45.096ZM234.538 45.096L234.038 45.5521L234.043 45.5575L234.538 45.096ZM236.05 51.936V52.6124H236.726V51.936H236.05ZM232.306 51.936H231.629V52.6124H232.306V51.936ZM232.306 58.38H232.982V57.7036H232.306V58.38ZM230.326 58.38H229.649V59.0564H230.326V58.38ZM230.326 54.78V54.1036H229.649V54.78H230.326ZM236.05 54.78H236.726V54.1036H236.05V54.78ZM234.538 67.74L235.032 68.2016L235.037 68.1961L234.538 67.74ZM230.146 68.6836C228.354 68.6836 227.093 68.1834 226.248 67.2785L225.259 68.2015C226.431 69.4566 228.097 70.0364 230.146 70.0364V68.6836ZM226.253 67.2839C225.395 66.3439 224.918 64.9574 224.918 63.024H223.565C223.565 65.1706 224.096 66.9281 225.254 68.1961L226.253 67.2839ZM224.918 63.024V49.776H223.565V63.024H224.918ZM224.918 49.776C224.918 47.8414 225.395 46.4712 226.248 45.5575L225.259 44.6345C224.096 45.8808 223.565 47.6306 223.565 49.776H224.918ZM226.253 45.5521C227.099 44.6259 228.358 44.1164 230.146 44.1164V42.7636C228.093 42.7636 226.425 43.3581 225.254 44.6399L226.253 45.5521ZM230.146 44.1164C231.933 44.1164 233.193 44.6259 234.038 45.5521L235.037 44.6399C233.867 43.3581 232.198 42.7636 230.146 42.7636V44.1164ZM234.043 45.5575C234.896 46.4712 235.373 47.8414 235.373 49.776H236.726C236.726 47.6306 236.195 45.8808 235.032 44.6345L234.043 45.5575ZM235.373 49.776V51.936H236.726V49.776H235.373ZM236.05 51.2596H232.306V52.6124H236.05V51.2596ZM232.982 51.936V49.524H231.629V51.936H232.982ZM232.982 49.524C232.982 48.6198 232.798 47.8159 232.314 47.2302C231.81 46.6198 231.08 46.3636 230.254 46.3636V47.7164C230.796 47.7164 231.092 47.8742 231.271 48.0918C231.471 48.3341 231.629 48.7722 231.629 49.524H232.982ZM230.254 46.3636C229.428 46.3636 228.698 46.6198 228.193 47.2302C227.709 47.8159 227.525 48.6198 227.525 49.524H228.878C228.878 48.7722 229.036 48.3341 229.236 48.0918C229.416 47.8742 229.712 47.7164 230.254 47.7164V46.3636ZM227.525 49.524V63.312H228.878V49.524H227.525ZM227.525 63.312C227.525 64.206 227.71 65.0025 228.196 65.5825C228.702 66.1854 229.431 66.4364 230.254 66.4364V65.0836C229.708 65.0836 229.412 64.9266 229.233 64.7135C229.035 64.4775 228.878 64.05 228.878 63.312H227.525ZM230.254 66.4364C231.076 66.4364 231.806 66.1854 232.311 65.5825C232.797 65.0025 232.982 64.206 232.982 63.312H231.629C231.629 64.05 231.472 64.4775 231.274 64.7135C231.096 64.9266 230.799 65.0836 230.254 65.0836V66.4364ZM232.982 63.312V58.38H231.629V63.312H232.982ZM232.306 57.7036H230.326V59.0564H232.306V57.7036ZM231.002 58.38V54.78H229.649V58.38H231.002ZM230.326 55.4564H236.05V54.1036H230.326V55.4564ZM235.373 54.78V63.024H236.726V54.78H235.373ZM235.373 63.024C235.373 64.9574 234.896 66.3439 234.038 67.2839L235.037 68.1961C236.195 66.9281 236.726 65.1706 236.726 63.024H235.373ZM234.043 67.2785C233.199 68.1834 231.937 68.6836 230.146 68.6836V70.0364C232.194 70.0364 233.861 69.4566 235.032 68.2015L234.043 67.2785ZM245.468 69L246.116 69.1944L246.377 68.3236H245.468V69ZM244.172 69H243.496V69.6764H244.172V69ZM244.172 65.184V64.5076H243.496V65.184H244.172ZM247.988 65.184H248.665V64.5076H247.988V65.184ZM247.988 68.604L248.612 68.8659L248.665 68.7402V68.604H247.988ZM246.008 73.32V73.9964H246.458L246.632 73.5818L246.008 73.32ZM244.172 73.32L243.524 73.1256L243.263 73.9964H244.172V73.32ZM245.468 68.3236H244.172V69.6764H245.468V68.3236ZM244.849 69V65.184H243.496V69H244.849ZM244.172 65.8604H247.988V64.5076H244.172V65.8604ZM247.312 65.184V68.604H248.665V65.184H247.312ZM247.365 68.3421L245.385 73.0582L246.632 73.5818L248.612 68.8659L247.365 68.3421ZM246.008 72.6436H244.172V73.9964H246.008V72.6436ZM244.82 73.5144L246.116 69.1944L244.82 68.8056L243.524 73.1256L244.82 73.5144ZM2.736 110.704L3.23014 110.242L2.736 110.704ZM2.736 88.096L3.23014 88.5579L2.736 88.096ZM11.664 88.096L11.1699 88.5579L11.664 88.096ZM11.664 110.704L11.1699 110.242L11.664 110.704ZM7.2 111.684C5.38659 111.684 4.10006 111.173 3.23014 110.242L2.24186 111.166C3.43594 112.443 5.12541 113.036 7.2 113.036V111.684ZM3.23014 110.242C2.34992 109.3 1.86442 107.927 1.86442 106.024H0.511583C0.511583 108.153 1.05808 109.9 2.24186 111.166L3.23014 110.242ZM1.86442 106.024V92.776H0.511583V106.024H1.86442ZM1.86442 92.776C1.86442 90.8729 2.34992 89.4995 3.23014 88.5579L2.24186 87.6341C1.05808 88.9005 0.511583 90.6471 0.511583 92.776H1.86442ZM3.23014 88.5579C4.10006 87.6273 5.38659 87.1164 7.2 87.1164V85.7636C5.12541 85.7636 3.43594 86.3567 2.24186 87.6341L3.23014 88.5579ZM7.2 87.1164C9.01341 87.1164 10.2999 87.6273 11.1699 88.5579L12.1581 87.6341C10.9641 86.3567 9.27459 85.7636 7.2 85.7636V87.1164ZM11.1699 88.5579C12.0501 89.4995 12.5356 90.8729 12.5356 92.776H13.8884C13.8884 90.6471 13.3419 88.9005 12.1581 87.6341L11.1699 88.5579ZM12.5356 92.776V106.024H13.8884V92.776H12.5356ZM12.5356 106.024C12.5356 107.927 12.0501 109.3 11.1699 110.242L12.1581 111.166C13.3419 109.9 13.8884 108.153 13.8884 106.024H12.5356ZM11.1699 110.242C10.2999 111.173 9.01341 111.684 7.2 111.684V113.036C9.27459 113.036 10.9641 112.443 12.1581 111.166L11.1699 110.242ZM7.2 109.436C8.02592 109.436 8.75621 109.18 9.26049 108.57C9.74433 107.984 9.92842 107.18 9.92842 106.276H8.57558C8.57558 107.028 8.41767 107.466 8.21751 107.708C8.03779 107.926 7.74207 108.084 7.2 108.084V109.436ZM9.92842 106.276V92.524H8.57558V106.276H9.92842ZM9.92842 92.524C9.92842 91.6198 9.74433 90.8159 9.26049 90.2302C8.75621 89.6198 8.02592 89.3636 7.2 89.3636V90.7164C7.74207 90.7164 8.03779 90.8742 8.21751 91.0918C8.41767 91.3341 8.57558 91.7722 8.57558 92.524H9.92842ZM7.2 89.3636C6.37407 89.3636 5.64379 89.6198 5.13951 90.2302C4.65567 90.8159 4.47158 91.6198 4.47158 92.524H5.82442C5.82442 91.7722 5.98233 91.3341 6.18249 91.0918C6.36221 90.8742 6.65793 90.7164 7.2 90.7164V89.3636ZM4.47158 92.524V106.276H5.82442V92.524H4.47158ZM4.47158 106.276C4.47158 107.18 4.65567 107.984 5.13951 108.57C5.64379 109.18 6.37407 109.436 7.2 109.436V108.084C6.65793 108.084 6.36221 107.926 6.18249 107.708C5.98233 107.466 5.82442 107.028 5.82442 106.276H4.47158ZM21.4701 86.8V86.1236H20.7936V86.8H21.4701ZM31.8021 88.24L31.3177 88.7122L31.3238 88.7183L31.8021 88.24ZM30.6141 99.112L30.3613 98.4846L29.9376 98.6552V99.112H30.6141ZM30.6141 99.184H29.9376V99.6873L30.4197 99.8319L30.6141 99.184ZM32.6301 100.948L32.0092 101.216L32.0122 101.223L32.0154 101.23L32.6301 100.948ZM33.3141 110.704L32.6413 110.775L32.6418 110.779L33.3141 110.704ZM33.6741 112V112.676H34.7149L34.2922 111.725L33.6741 112ZM29.6421 112L29.0042 112.225L29.1635 112.676H29.6421V112ZM28.7061 101.884L28.1752 102.303L28.1818 102.312L28.1887 102.32L28.7061 101.884ZM25.4301 101.2V100.524H24.7536V101.2H25.4301ZM25.4301 112V112.676H26.1065V112H25.4301ZM21.4701 112H20.7936V112.676H21.4701V112ZM28.6341 96.988L28.1558 96.5097L28.1485 96.5169L28.1415 96.5244L28.6341 96.988ZM28.7421 91.012L28.2047 91.4229L28.2122 91.4326L28.2199 91.442L28.7421 91.012ZM25.4301 90.4V89.7236H24.7536V90.4H25.4301ZM25.4301 97.6H24.7536V98.2764H25.4301V97.6ZM21.4701 87.4764H27.3381V86.1236H21.4701V87.4764ZM27.3381 87.4764C29.2895 87.4764 30.5623 87.9374 31.3177 88.7122L32.2864 87.7678C31.1698 86.6226 29.4666 86.1236 27.3381 86.1236V87.4764ZM31.3238 88.7183C32.0826 89.4771 32.5296 90.7208 32.5296 92.596H33.8825C33.8825 90.5352 33.3935 88.8749 32.2804 87.7617L31.3238 88.7183ZM32.5296 92.596V94.144H33.8825V92.596H32.5296ZM32.5296 94.144C32.5296 95.3842 32.3239 96.3346 31.9584 97.0351C31.6007 97.7207 31.0755 98.1969 30.3613 98.4846L30.8668 99.7394C31.8806 99.3311 32.6515 98.6313 33.1578 97.6609C33.6563 96.7054 33.8825 95.5198 33.8825 94.144H32.5296ZM29.9376 99.112V99.184H31.2905V99.112H29.9376ZM30.4197 99.8319C31.1964 100.065 31.7076 100.519 32.0092 101.216L33.2509 100.68C32.7845 99.6009 31.9517 98.8791 30.8084 98.5361L30.4197 99.8319ZM32.0154 101.23C32.3671 101.996 32.5656 103.075 32.5656 104.512H33.9185C33.9185 102.973 33.7091 101.676 33.2447 100.666L32.0154 101.23ZM32.5656 104.512V108.94H33.9185V104.512H32.5656ZM32.5656 108.94C32.5656 109.672 32.5899 110.286 32.6414 110.775L33.9868 110.633C33.9422 110.21 33.9185 109.648 33.9185 108.94H32.5656ZM32.6418 110.779C32.6981 111.286 32.8382 111.785 33.0559 112.275L34.2922 111.725C34.1259 111.351 34.026 110.986 33.9863 110.629L32.6418 110.779ZM33.6741 111.324H29.6421V112.676H33.6741V111.324ZM30.2799 111.775C30.1486 111.403 30.0653 111.065 30.0245 110.759L28.6836 110.937C28.7388 111.351 28.8475 111.781 29.0042 112.225L30.2799 111.775ZM30.0245 110.759C29.9832 110.449 29.9585 109.842 29.9585 108.904H28.6056C28.6056 109.838 28.6289 110.527 28.6836 110.937L30.0245 110.759ZM29.9585 108.904V104.296H28.6056V108.904H29.9585ZM29.9585 104.296C29.9585 103.113 29.7702 102.097 29.2235 101.448L28.1887 102.32C28.41 102.583 28.6056 103.175 28.6056 104.296H29.9585ZM29.237 101.465C28.6897 100.772 27.7982 100.524 26.7981 100.524V101.876C27.622 101.876 28.0024 102.084 28.1752 102.303L29.237 101.465ZM26.7981 100.524H25.4301V101.876H26.7981V100.524ZM24.7536 101.2V112H26.1065V101.2H24.7536ZM25.4301 111.324H21.4701V112.676H25.4301V111.324ZM22.1465 112V86.8H20.7936V112H22.1465ZM26.8701 98.2764C27.7698 98.2764 28.5693 98.0437 29.1266 97.4516L28.1415 96.5244C27.9308 96.7483 27.5543 96.9236 26.8701 96.9236V98.2764ZM29.1124 97.4663C29.7093 96.8694 29.9225 95.9627 29.9225 94.936H28.5696C28.5696 95.8293 28.3748 96.2906 28.1558 96.5097L29.1124 97.4663ZM29.9225 94.936V92.992H28.5696V94.936H29.9225ZM29.9225 92.992C29.9225 92.0263 29.7502 91.1721 29.2642 90.582L28.2199 91.442C28.406 91.6679 28.5696 92.1337 28.5696 92.992H29.9225ZM29.2794 90.6011C28.7974 89.9708 28.0564 89.7236 27.2301 89.7236V91.0764C27.7958 91.0764 28.0627 91.2372 28.2047 91.4229L29.2794 90.6011ZM27.2301 89.7236H25.4301V91.0764H27.2301V89.7236ZM24.7536 90.4V97.6H26.1065V90.4H24.7536ZM25.4301 98.2764H26.8701V96.9236H25.4301V98.2764ZM41.5696 86.8V86.1236H40.8932V86.8H41.5696ZM45.5296 86.8H46.206V86.1236H45.5296V86.8ZM45.5296 112V112.676H46.206V112H45.5296ZM41.5696 112H40.8932V112.676H41.5696V112ZM41.5696 87.4764H45.5296V86.1236H41.5696V87.4764ZM44.8532 86.8V112H46.206V86.8H44.8532ZM45.5296 111.324H41.5696V112.676H45.5296V111.324ZM42.246 112V86.8H40.8932V112H42.246ZM55.2994 110.74L54.7998 111.196L54.8049 111.202L55.2994 110.74ZM55.2994 88.096L55.7939 88.5576L55.7989 88.5521L55.2994 88.096ZM64.0834 88.096L63.5838 88.5521L63.5889 88.5575L64.0834 88.096ZM65.5954 94.936V95.6124H66.2718V94.936H65.5954ZM61.8514 94.936H61.175V95.6124H61.8514V94.936ZM61.8514 101.38H62.5278V100.704H61.8514V101.38ZM59.8714 101.38H59.195V102.056H59.8714V101.38ZM59.8714 97.78V97.1036H59.195V97.78H59.8714ZM65.5954 97.78H66.2718V97.1036H65.5954V97.78ZM64.0834 110.74L64.5779 111.202L64.5829 111.196L64.0834 110.74ZM59.6914 111.684C57.8997 111.684 56.6385 111.183 55.7939 110.278L54.8049 111.202C55.9763 112.457 57.6431 113.036 59.6914 113.036V111.684ZM55.7989 110.284C54.9406 109.344 54.4638 107.957 54.4638 106.024H53.111C53.111 108.171 53.6421 109.928 54.7999 111.196L55.7989 110.284ZM54.4638 106.024V92.776H53.111V106.024H54.4638ZM54.4638 92.776C54.4638 90.8414 54.9411 89.4712 55.7939 88.5575L54.8049 87.6345C53.6417 88.8808 53.111 90.6305 53.111 92.776H54.4638ZM55.7989 88.5521C56.6446 87.6259 57.904 87.1164 59.6914 87.1164V85.7636C57.6387 85.7636 55.9702 86.3581 54.7999 87.6399L55.7989 88.5521ZM59.6914 87.1164C61.4787 87.1164 62.7382 87.6259 63.5839 88.5521L64.5829 87.6399C63.4126 86.3581 61.744 85.7636 59.6914 85.7636V87.1164ZM63.5889 88.5575C64.4417 89.4712 64.919 90.8414 64.919 92.776H66.2718C66.2718 90.6305 65.7411 88.8808 64.5779 87.6345L63.5889 88.5575ZM64.919 92.776V94.936H66.2718V92.776H64.919ZM65.5954 94.2596H61.8514V95.6124H65.5954V94.2596ZM62.5278 94.936V92.524H61.175V94.936H62.5278ZM62.5278 92.524C62.5278 91.6198 62.3437 90.8159 61.8599 90.2302C61.3556 89.6198 60.6253 89.3636 59.7994 89.3636V90.7164C60.3414 90.7164 60.6372 90.8742 60.8169 91.0918C61.017 91.3341 61.175 91.7722 61.175 92.524H62.5278ZM59.7994 89.3636C58.9734 89.3636 58.2432 89.6198 57.7389 90.2302C57.255 90.8159 57.071 91.6198 57.071 92.524H58.4238C58.4238 91.7722 58.5817 91.3341 58.7819 91.0918C58.9616 90.8742 59.2573 90.7164 59.7994 90.7164V89.3636ZM57.071 92.524V106.312H58.4238V92.524H57.071ZM57.071 106.312C57.071 107.206 57.2558 108.003 57.742 108.583C58.2473 109.185 58.9767 109.436 59.7994 109.436V108.084C59.2541 108.084 58.9574 107.927 58.7788 107.713C58.5809 107.477 58.4238 107.05 58.4238 106.312H57.071ZM59.7994 109.436C60.6221 109.436 61.3514 109.185 61.8568 108.583C62.3429 108.003 62.5278 107.206 62.5278 106.312H61.175C61.175 107.05 61.0178 107.477 60.82 107.713C60.6413 107.927 60.3447 108.084 59.7994 108.084V109.436ZM62.5278 106.312V101.38H61.175V106.312H62.5278ZM61.8514 100.704H59.8714V102.056H61.8514V100.704ZM60.5478 101.38V97.78H59.195V101.38H60.5478ZM59.8714 98.4564H65.5954V97.1036H59.8714V98.4564ZM64.919 97.78V106.024H66.2718V97.78H64.919ZM64.919 106.024C64.919 107.957 64.4421 109.344 63.5839 110.284L64.5829 111.196C65.7406 109.928 66.2718 108.171 66.2718 106.024H64.919ZM63.5889 110.278C62.7443 111.183 61.4831 111.684 59.6914 111.684V113.036C61.7397 113.036 63.4065 112.457 64.5779 111.202L63.5889 110.278ZM76.7779 86.8V86.1236H76.2027L76.1103 86.6913L76.7779 86.8ZM82.1419 86.8L82.8095 86.6913L82.717 86.1236H82.1419V86.8ZM86.2459 112V112.676H87.0414L86.9135 111.891L86.2459 112ZM82.2859 112L81.6164 112.096L81.6998 112.676H82.2859V112ZM81.5659 106.996L82.2354 106.9L80.8895 106.996H81.5659ZM81.5659 107.068V107.744H82.2423V107.068H81.5659ZM77.0659 107.068V106.392H76.481L76.3966 106.97L77.0659 107.068ZM76.3459 112V112.676H76.9307L77.0152 112.098L76.3459 112ZM72.6739 112L72.0063 111.891L71.8784 112.676H72.6739V112ZM81.0979 103.648V104.324H81.8768L81.7676 103.553L81.0979 103.648ZM79.3339 91.192L80.0036 91.0972L79.9212 90.5156H79.3339V91.192ZM79.2619 91.192V90.5156H78.6728L78.5919 91.0991L79.2619 91.192ZM77.5339 103.648L76.8639 103.555L76.7571 104.324H77.5339V103.648ZM76.7779 87.4764H82.1419V86.1236H76.7779V87.4764ZM81.4743 86.9087L85.5783 112.109L86.9135 111.891L82.8095 86.6913L81.4743 86.9087ZM86.2459 111.324H82.2859V112.676H86.2459V111.324ZM82.9554 111.904L82.2354 106.9L80.8964 107.092L81.6164 112.096L82.9554 111.904ZM80.8895 106.996V107.068H82.2423V106.996H80.8895ZM81.5659 106.392H77.0659V107.744H81.5659V106.392ZM76.3966 106.97L75.6766 111.902L77.0152 112.098L77.7352 107.166L76.3966 106.97ZM76.3459 111.324H72.6739V112.676H76.3459V111.324ZM73.3415 112.109L77.4455 86.9087L76.1103 86.6913L72.0063 111.891L73.3415 112.109ZM81.7676 103.553L80.0036 91.0972L78.6641 91.2868L80.4281 103.743L81.7676 103.553ZM79.3339 90.5156H79.2619V91.8684H79.3339V90.5156ZM78.5919 91.0991L76.8639 103.555L78.2039 103.741L79.9319 91.285L78.5919 91.0991ZM77.5339 104.324H81.0979V102.972H77.5339V104.324ZM93.7471 86.8V86.1236H93.0707V86.8H93.7471ZM99.3991 86.8L100.069 86.7064L99.9876 86.1236H99.3991V86.8ZM101.919 104.836L101.249 104.93L101.331 105.512H101.919V104.836ZM101.991 104.836V105.512H102.58L102.661 104.93L101.991 104.836ZM104.511 86.8V86.1236H103.923L103.841 86.7064L104.511 86.8ZM110.163 86.8H110.84V86.1236H110.163V86.8ZM110.163 112V112.676H110.84V112H110.163ZM106.419 112H105.743V112.676H106.419V112ZM106.419 92.92H107.096V92.2436H106.419V92.92ZM106.347 92.92V92.2436H105.765L105.678 92.819L106.347 92.92ZM103.467 112V112.676H104.049L104.136 112.101L103.467 112ZM100.155 112L99.4863 112.101L99.5731 112.676H100.155V112ZM97.2751 92.92L97.9439 92.819L97.8571 92.2436H97.2751V92.92ZM97.2031 92.92V92.2436H96.5267V92.92H97.2031ZM97.2031 112V112.676H97.8795V112H97.2031ZM93.7471 112H93.0707V112.676H93.7471V112ZM93.7471 87.4764H99.3991V86.1236H93.7471V87.4764ZM98.7292 86.8936L101.249 104.93L102.589 104.742L100.069 86.7064L98.7292 86.8936ZM101.919 105.512H101.991V104.16H101.919V105.512ZM102.661 104.93L105.181 86.8936L103.841 86.7064L101.321 104.742L102.661 104.93ZM104.511 87.4764H110.163V86.1236H104.511V87.4764ZM109.487 86.8V112H110.84V86.8H109.487ZM110.163 111.324H106.419V112.676H110.163V111.324ZM107.096 112V92.92H105.743V112H107.096ZM106.419 92.2436H106.347V93.5964H106.419V92.2436ZM105.678 92.819L102.798 111.899L104.136 112.101L107.016 93.021L105.678 92.819ZM103.467 111.324H100.155V112.676H103.467V111.324ZM100.824 111.899L97.9439 92.819L96.6063 93.021L99.4863 112.101L100.824 111.899ZM97.2751 92.2436H97.2031V93.5964H97.2751V92.2436ZM96.5267 92.92V112H97.8795V92.92H96.5267ZM97.2031 111.324H93.7471V112.676H97.2031V111.324ZM94.4235 112V86.8H93.0707V112H94.4235ZM118.698 86.8V86.1236H118.022V86.8H118.698ZM122.658 86.8H123.335V86.1236H122.658V86.8ZM122.658 112V112.676H123.335V112H122.658ZM118.698 112H118.022V112.676H118.698V112ZM118.698 87.4764H122.658V86.1236H118.698V87.4764ZM121.982 86.8V112H123.335V86.8H121.982ZM122.658 111.324H118.698V112.676H122.658V111.324ZM119.375 112V86.8H118.022V112H119.375ZM142.55 86.8V86.1236H141.873V86.8H142.55ZM152.81 88.384L152.315 88.8451L152.81 88.384ZM152.81 100.156L152.315 99.6949L152.81 100.156ZM146.51 101.74V101.064H145.833V101.74H146.51ZM146.51 112V112.676H147.186V112H146.51ZM142.55 112H141.873V112.676H142.55V112ZM149.822 97.6L149.327 97.1385L149.319 97.1476L149.31 97.157L149.822 97.6ZM149.822 90.94L149.31 91.383L149.319 91.3924L149.327 91.4015L149.822 90.94ZM146.51 90.4V89.7236H145.833V90.4H146.51ZM146.51 98.14H145.833V98.8164H146.51V98.14ZM142.55 87.4764H148.382V86.1236H142.55V87.4764ZM148.382 87.4764C150.233 87.4764 151.5 87.9708 152.315 88.8451L153.304 87.9229C152.151 86.6852 150.467 86.1236 148.382 86.1236V87.4764ZM152.315 88.8451C153.141 89.7323 153.609 91.0884 153.609 93.028H154.962C154.962 90.8876 154.446 89.1477 153.304 87.9229L152.315 88.8451ZM153.609 93.028V95.512H154.962V93.028H153.609ZM153.609 95.512C153.609 97.4516 153.141 98.8077 152.315 99.6949L153.304 100.617C154.446 99.3923 154.962 97.6524 154.962 95.512H153.609ZM152.315 99.6949C151.5 100.569 150.233 101.064 148.382 101.064V102.416C150.467 102.416 152.151 101.855 153.304 100.617L152.315 99.6949ZM148.382 101.064H146.51V102.416H148.382V101.064ZM145.833 101.74V112H147.186V101.74H145.833ZM146.51 111.324H142.55V112.676H146.51V111.324ZM143.226 112V86.8H141.873V112H143.226ZM148.382 98.8164C149.152 98.8164 149.851 98.5994 150.333 98.043L149.31 97.157C149.169 97.3206 148.908 97.4636 148.382 97.4636V98.8164ZM150.316 98.0615C150.83 97.5106 151.002 96.6811 151.002 95.764H149.649C149.649 96.5749 149.485 96.9694 149.327 97.1385L150.316 98.0615ZM151.002 95.764V92.776H149.649V95.764H151.002ZM151.002 92.776C151.002 91.8589 150.83 91.0294 150.316 90.4785L149.327 91.4015C149.485 91.5706 149.649 91.965 149.649 92.776H151.002ZM150.333 90.497C149.851 89.9406 149.152 89.7236 148.382 89.7236V91.0764C148.908 91.0764 149.169 91.2194 149.31 91.383L150.333 90.497ZM148.382 89.7236H146.51V91.0764H148.382V89.7236ZM145.833 90.4V98.14H147.186V90.4H145.833ZM146.51 98.8164H148.382V97.4636H146.51V98.8164ZM162.016 86.8V86.1236H161.34V86.8H162.016ZM165.976 86.8H166.653V86.1236H165.976V86.8ZM165.976 108.4H165.3V109.076H165.976V108.4ZM172.492 108.4H173.169V107.724H172.492V108.4ZM172.492 112V112.676H173.169V112H172.492ZM162.016 112H161.34V112.676H162.016V112ZM162.016 87.4764H165.976V86.1236H162.016V87.4764ZM165.3 86.8V108.4H166.653V86.8H165.3ZM165.976 109.076H172.492V107.724H165.976V109.076ZM171.816 108.4V112H173.169V108.4H171.816ZM172.492 111.324H162.016V112.676H172.492V111.324ZM162.693 112V86.8H161.34V112H162.693ZM183.172 86.8V86.1236H182.597L182.504 86.6913L183.172 86.8ZM188.536 86.8L189.204 86.6913L189.111 86.1236H188.536V86.8ZM192.64 112V112.676H193.435L193.308 111.891L192.64 112ZM188.68 112L188.01 112.096L188.094 112.676H188.68V112ZM187.96 106.996L188.629 106.9L187.284 106.996H187.96ZM187.96 107.068V107.744H188.636V107.068H187.96ZM183.46 107.068V106.392H182.875L182.791 106.97L183.46 107.068ZM182.74 112V112.676H183.325L183.409 112.098L182.74 112ZM179.068 112L178.4 111.891L178.272 112.676H179.068V112ZM187.492 103.648V104.324H188.271L188.162 103.553L187.492 103.648ZM185.728 91.192L186.398 91.0972L186.315 90.5156H185.728V91.192ZM185.656 91.192V90.5156H185.067L184.986 91.0991L185.656 91.192ZM183.928 103.648L183.258 103.555L183.151 104.324H183.928V103.648ZM183.172 87.4764H188.536V86.1236H183.172V87.4764ZM187.868 86.9087L191.972 112.109L193.308 111.891L189.204 86.6913L187.868 86.9087ZM192.64 111.324H188.68V112.676H192.64V111.324ZM189.349 111.904L188.629 106.9L187.29 107.092L188.01 112.096L189.349 111.904ZM187.284 106.996V107.068H188.636V106.996H187.284ZM187.96 106.392H183.46V107.744H187.96V106.392ZM182.791 106.97L182.071 111.902L183.409 112.098L184.129 107.166L182.791 106.97ZM182.74 111.324H179.068V112.676H182.74V111.324ZM179.736 112.109L183.84 86.9087L182.504 86.6913L178.4 111.891L179.736 112.109ZM188.162 103.553L186.398 91.0972L185.058 91.2868L186.822 103.743L188.162 103.553ZM185.728 90.5156H185.656V91.8684H185.728V90.5156ZM184.986 91.0991L183.258 103.555L184.598 103.741L186.326 91.285L184.986 91.0991ZM183.928 104.324H187.492V102.972H183.928V104.324ZM200.141 86.8V86.1236H199.465V86.8H200.141ZM205.109 86.8L205.765 86.6326L205.635 86.1236H205.109V86.8ZM208.961 101.884L208.306 102.051L208.436 102.56H208.961V101.884ZM209.033 101.884V102.56H209.71V101.884H209.033ZM209.033 86.8V86.1236H208.357V86.8H209.033ZM212.561 86.8H213.238V86.1236H212.561V86.8ZM212.561 112V112.676H213.238V112H212.561ZM208.493 112L207.838 112.169L207.969 112.676H208.493V112ZM203.741 93.604L204.396 93.4348L204.265 92.9276H203.741V93.604ZM203.669 93.604V92.9276H202.993V93.604H203.669ZM203.669 112V112.676H204.346V112H203.669ZM200.141 112H199.465V112.676H200.141V112ZM200.141 87.4764H205.109V86.1236H200.141V87.4764ZM204.454 86.9674L208.306 102.051L209.617 101.717L205.765 86.6326L204.454 86.9674ZM208.961 102.56H209.033V101.208H208.961V102.56ZM209.71 101.884V86.8H208.357V101.884H209.71ZM209.033 87.4764H212.561V86.1236H209.033V87.4764ZM211.885 86.8V112H213.238V86.8H211.885ZM212.561 111.324H208.493V112.676H212.561V111.324ZM209.148 111.831L204.396 93.4348L203.086 93.7732L207.838 112.169L209.148 111.831ZM203.741 92.9276H203.669V94.2804H203.741V92.9276ZM202.993 93.604V112H204.346V93.604H202.993ZM203.669 111.324H200.141V112.676H203.669V111.324ZM200.818 112V86.8H199.465V112H200.818ZM224.18 90.4H224.857V89.7236H224.18V90.4ZM220.04 90.4H219.364V91.0764H220.04V90.4ZM220.04 86.8V86.1236H219.364V86.8H220.04ZM232.28 86.8H232.957V86.1236H232.28V86.8ZM232.28 90.4V91.0764H232.957V90.4H232.28ZM228.14 90.4V89.7236H227.464V90.4H228.14ZM228.14 112V112.676H228.817V112H228.14ZM224.18 112H223.504V112.676H224.18V112ZM224.18 89.7236H220.04V91.0764H224.18V89.7236ZM220.717 90.4V86.8H219.364V90.4H220.717ZM220.04 87.4764H232.28V86.1236H220.04V87.4764ZM231.604 86.8V90.4H232.957V86.8H231.604ZM232.28 89.7236H228.14V91.0764H232.28V89.7236ZM227.464 90.4V112H228.817V90.4H227.464ZM228.14 111.324H224.18V112.676H228.14V111.324ZM224.857 112V90.4H223.504V112H224.857ZM1.476 129.8V129.124H0.799583V129.8H1.476ZM11.736 131.384L11.2411 131.845H11.2411L11.736 131.384ZM11.736 143.156L11.2411 142.695L11.736 143.156ZM5.436 144.74V144.064H4.75958V144.74H5.436ZM5.436 155V155.676H6.11242V155H5.436ZM1.476 155H0.799583V155.676H1.476V155ZM8.748 140.6L8.2535 140.138L8.245 140.148L8.23684 140.157L8.748 140.6ZM8.748 133.94L8.23684 134.383L8.245 134.392L8.2535 134.402L8.748 133.94ZM5.436 133.4V132.724H4.75958V133.4H5.436ZM5.436 141.14H4.75958V141.816H5.436V141.14ZM1.476 130.476H7.308V129.124H1.476V130.476ZM7.308 130.476C9.15901 130.476 10.4264 130.971 11.2411 131.845L12.2309 130.923C11.0776 129.685 9.39299 129.124 7.308 129.124V130.476ZM11.2411 131.845C12.0678 132.732 12.5356 134.088 12.5356 136.028H13.8884C13.8884 133.888 13.3722 132.148 12.2309 130.923L11.2411 131.845ZM12.5356 136.028V138.512H13.8884V136.028H12.5356ZM12.5356 138.512C12.5356 140.452 12.0678 141.808 11.2411 142.695L12.2309 143.617C13.3722 142.392 13.8884 140.652 13.8884 138.512H12.5356ZM11.2411 142.695C10.4264 143.569 9.15901 144.064 7.308 144.064V145.416C9.39299 145.416 11.0776 144.855 12.2309 143.617L11.2411 142.695ZM7.308 144.064H5.436V145.416H7.308V144.064ZM4.75958 144.74V155H6.11242V144.74H4.75958ZM5.436 154.324H1.476V155.676H5.436V154.324ZM2.15242 155V129.8H0.799583V155H2.15242ZM7.308 141.816C8.07799 141.816 8.77698 141.599 9.25916 141.043L8.23684 140.157C8.09502 140.321 7.83401 140.464 7.308 140.464V141.816ZM9.2425 141.062C9.75671 140.511 9.92842 139.681 9.92842 138.764H8.57558C8.57558 139.575 8.41129 139.969 8.2535 140.138L9.2425 141.062ZM9.92842 138.764V135.776H8.57558V138.764H9.92842ZM9.92842 135.776C9.92842 134.859 9.75671 134.029 9.2425 133.478L8.2535 134.402C8.41129 134.571 8.57558 134.965 8.57558 135.776H9.92842ZM9.25916 133.497C8.77698 132.941 8.07799 132.724 7.308 132.724V134.076C7.83401 134.076 8.09502 134.219 8.23684 134.383L9.25916 133.497ZM7.308 132.724H5.436V134.076H7.308V132.724ZM4.75958 133.4V141.14H6.11242V133.4H4.75958ZM5.436 141.816H7.308V140.464H5.436V141.816ZM22.2027 153.704L22.6969 153.242L22.2027 153.704ZM22.2027 131.096L22.6969 131.558L22.2027 131.096ZM31.1307 131.096L30.6366 131.558L31.1307 131.096ZM31.1307 153.704L30.6366 153.242L31.1307 153.704ZM26.6667 154.684C24.8533 154.684 23.5668 154.173 22.6969 153.242L21.7086 154.166C22.9027 155.443 24.5921 156.036 26.6667 156.036V154.684ZM22.6969 153.242C21.8166 152.3 21.3311 150.927 21.3311 149.024H19.9783C19.9783 151.153 20.5248 152.9 21.7086 154.166L22.6969 153.242ZM21.3311 149.024V135.776H19.9783V149.024H21.3311ZM21.3311 135.776C21.3311 133.873 21.8166 132.5 22.6969 131.558L21.7086 130.634C20.5248 131.9 19.9783 133.647 19.9783 135.776H21.3311ZM22.6969 131.558C23.5668 130.627 24.8533 130.116 26.6667 130.116V128.764C24.5921 128.764 22.9027 129.357 21.7086 130.634L22.6969 131.558ZM26.6667 130.116C28.4801 130.116 29.7667 130.627 30.6366 131.558L31.6249 130.634C30.4308 129.357 28.7413 128.764 26.6667 128.764V130.116ZM30.6366 131.558C31.5168 132.5 32.0023 133.873 32.0023 135.776H33.3551C33.3551 133.647 32.8086 131.9 31.6249 130.634L30.6366 131.558ZM32.0023 135.776V149.024H33.3551V135.776H32.0023ZM32.0023 149.024C32.0023 150.927 31.5168 152.3 30.6366 153.242L31.6249 154.166C32.8086 152.9 33.3551 151.153 33.3551 149.024H32.0023ZM30.6366 153.242C29.7667 154.173 28.4801 154.684 26.6667 154.684V156.036C28.7413 156.036 30.4308 155.443 31.6249 154.166L30.6366 153.242ZM26.6667 152.436C27.4926 152.436 28.2229 152.18 28.7272 151.57C29.2111 150.984 29.3951 150.18 29.3951 149.276H28.0423C28.0423 150.028 27.8844 150.466 27.6842 150.708C27.5045 150.926 27.2088 151.084 26.6667 151.084V152.436ZM29.3951 149.276V135.524H28.0423V149.276H29.3951ZM29.3951 135.524C29.3951 134.62 29.2111 133.816 28.7272 133.23C28.2229 132.62 27.4926 132.364 26.6667 132.364V133.716C27.2088 133.716 27.5045 133.874 27.6842 134.092C27.8844 134.334 28.0423 134.772 28.0423 135.524H29.3951ZM26.6667 132.364C25.8408 132.364 25.1105 132.62 24.6062 133.23C24.1224 133.816 23.9383 134.62 23.9383 135.524H25.2911C25.2911 134.772 25.4491 134.334 25.6492 134.092C25.8289 133.874 26.1246 133.716 26.6667 133.716V132.364ZM23.9383 135.524V149.276H25.2911V135.524H23.9383ZM23.9383 149.276C23.9383 150.18 24.1224 150.984 24.6062 151.57C25.1105 152.18 25.8408 152.436 26.6667 152.436V151.084C26.1246 151.084 25.8289 150.926 25.6492 150.708C25.4491 150.466 25.2911 150.028 25.2911 149.276H23.9383ZM43.8922 133.4H44.5686V132.724H43.8922V133.4ZM39.7522 133.4H39.0757V134.076H39.7522V133.4ZM39.7522 129.8V129.124H39.0757V129.8H39.7522ZM51.9922 129.8H52.6686V129.124H51.9922V129.8ZM51.9922 133.4V134.076H52.6686V133.4H51.9922ZM47.8522 133.4V132.724H47.1757V133.4H47.8522ZM47.8522 155V155.676H48.5286V155H47.8522ZM43.8922 155H43.2157V155.676H43.8922V155ZM43.8922 132.724H39.7522V134.076H43.8922V132.724ZM40.4286 133.4V129.8H39.0757V133.4H40.4286ZM39.7522 130.476H51.9922V129.124H39.7522V130.476ZM51.3157 129.8V133.4H52.6686V129.8H51.3157ZM51.9922 132.724H47.8522V134.076H51.9922V132.724ZM47.1757 133.4V155H48.5286V133.4H47.1757ZM47.8522 154.324H43.8922V155.676H47.8522V154.324ZM44.5686 155V133.4H43.2157V155H44.5686ZM60.2814 153.74L59.7765 154.19L59.7814 154.196L60.2814 153.74ZM58.8054 147.584V146.908H58.129V147.584H58.8054ZM62.5494 147.584H63.2259V146.908H62.5494V147.584ZM66.1134 151.184L65.6062 150.736L65.6044 150.739L66.1134 151.184ZM65.9334 146.468L65.3504 146.811L65.355 146.819L65.9334 146.468ZM63.2694 143.552L62.8219 144.059L62.8254 144.062L63.2694 143.552ZM59.8494 139.664L59.257 139.99L59.2599 139.996L59.8494 139.664ZM60.3894 131.096L60.884 131.558L60.889 131.552L60.3894 131.096ZM69.0654 131.096L68.555 131.54L68.5602 131.546L68.5654 131.552L69.0654 131.096ZM70.5414 136.82V137.496H71.2178V136.82H70.5414ZM66.7974 136.82H66.121V137.496H66.7974V136.82ZM66.2934 133.652L65.7713 134.082L65.7777 134.09L65.7844 134.097L66.2934 133.652ZM63.5574 138.008L62.979 138.359L62.9828 138.365L62.9868 138.371L63.5574 138.008ZM66.2574 140.888L65.8134 141.398L65.8136 141.398L66.2574 140.888ZM69.6774 144.812L69.0799 145.129L69.6774 144.812ZM69.0654 153.704L68.5713 153.242L68.5659 153.248L69.0654 153.704ZM64.6374 154.684C62.8447 154.684 61.6002 154.183 60.7814 153.284L59.7814 154.196C60.9307 155.457 62.5901 156.036 64.6374 156.036V154.684ZM60.7864 153.29C59.9487 152.35 59.4819 150.961 59.4819 149.024H58.129C58.129 151.167 58.6462 152.922 59.7765 154.19L60.7864 153.29ZM59.4819 149.024V147.584H58.129V149.024H59.4819ZM58.8054 148.26H62.5494V146.908H58.8054V148.26ZM61.873 147.584V149.312H63.2259V147.584H61.873ZM61.873 149.312C61.873 150.206 62.0579 151.003 62.544 151.583C63.0494 152.185 63.7788 152.436 64.6014 152.436V151.084C64.0561 151.084 63.7595 150.927 63.5808 150.713C63.383 150.477 63.2259 150.05 63.2259 149.312H61.873ZM64.6014 152.436C65.4029 152.436 66.1204 152.203 66.6225 151.629L65.6044 150.739C65.4345 150.933 65.1439 151.084 64.6014 151.084V152.436ZM66.6206 151.632C67.1404 151.042 67.3298 150.195 67.3298 149.24H65.977C65.977 150.061 65.8064 150.51 65.6062 150.736L66.6206 151.632ZM67.3298 149.24C67.3298 148.078 67.0646 147.029 66.5119 146.117L65.355 146.819C65.7623 147.491 65.977 148.29 65.977 149.24H67.3298ZM66.5165 146.125C65.9808 145.214 65.0274 144.185 63.7135 143.042L62.8254 144.062C64.1035 145.175 64.9261 146.09 65.3504 146.811L66.5165 146.125ZM63.717 143.045C62.11 141.627 61.0335 140.389 60.439 139.332L59.2599 139.996C59.9613 141.243 61.1649 142.597 62.8219 144.059L63.717 143.045ZM60.4419 139.338C59.8538 138.27 59.5539 137.064 59.5539 135.704H58.201C58.201 137.272 58.549 138.706 59.257 139.99L60.4419 139.338ZM59.5539 135.704C59.5539 133.823 60.0286 132.474 60.8839 131.558L59.8949 130.634C58.7343 131.878 58.201 133.601 58.201 135.704H59.5539ZM60.889 131.552C61.7346 130.626 62.9941 130.116 64.7814 130.116V128.764C62.7288 128.764 61.0602 129.358 59.8899 130.64L60.889 131.552ZM64.7814 130.116C66.5435 130.116 67.7591 130.625 68.555 131.54L69.5759 130.652C68.4517 129.359 66.8114 128.764 64.7814 128.764V130.116ZM68.5654 131.552C69.3977 132.465 69.865 133.838 69.865 135.776H71.2178C71.2178 133.634 70.7011 131.887 69.5654 130.64L68.5654 131.552ZM69.865 135.776V136.82H71.2178V135.776H69.865ZM70.5414 136.144H66.7974V137.496H70.5414V136.144ZM67.4739 136.82V135.524H66.121V136.82H67.4739ZM67.4739 135.524C67.4739 134.601 67.2996 133.775 66.8025 133.207L65.7844 134.097C65.9593 134.297 66.121 134.719 66.121 135.524H67.4739ZM66.8156 133.222C66.3223 132.623 65.6174 132.364 64.8174 132.364V133.716C65.3135 133.716 65.5926 133.865 65.7713 134.082L66.8156 133.222ZM64.8174 132.364C64.0141 132.364 63.3014 132.615 62.8096 133.214C62.3388 133.787 62.161 134.573 62.161 135.452H63.5139C63.5139 134.723 63.6661 134.303 63.8553 134.072C64.0234 133.867 64.3008 133.716 64.8174 133.716V132.364ZM62.161 135.452C62.161 136.49 62.4359 137.463 62.979 138.359L64.1359 137.657C63.7189 136.969 63.5139 136.238 63.5139 135.452H62.161ZM62.9868 138.371C63.5434 139.246 64.5018 140.257 65.8134 141.398L66.7015 140.378C65.4211 139.263 64.5795 138.354 64.1281 137.645L62.9868 138.371ZM65.8136 141.398C67.4422 142.815 68.512 144.059 69.0799 145.129L70.2749 144.495C69.5949 143.213 68.3847 141.841 66.7013 140.378L65.8136 141.398ZM69.0799 145.129C69.6431 146.19 69.937 147.458 69.937 148.952H71.2899C71.2899 147.278 70.9597 145.786 70.2749 144.495L69.0799 145.129ZM69.937 148.952C69.937 150.908 69.449 152.303 68.5713 153.242L69.5596 154.166C70.7459 152.897 71.2899 151.124 71.2899 148.952H69.937ZM68.5659 153.248C67.7218 154.172 66.4517 154.684 64.6374 154.684V156.036C66.7111 156.036 68.3931 155.444 69.565 154.16L68.5659 153.248Z" fill="#03839E"/>
</svg>
