<svg width="440" height="239" viewBox="0 0 440 239" fill="none" xmlns="http://www.w3.org/2000/svg">
<path d="M157.56 65.2H164.344L167.48 99.632H167.608L170.936 65.2H178.616L181.944 99.632H182.072L185.208 65.2H191.288L186.744 110H177.976L174.776 79.792H174.648L171.448 110H162.104L157.56 65.2ZM209.334 65.2H218.87L226.166 110H219.126L217.846 101.104V101.232H209.846L208.566 110H202.038L209.334 65.2ZM217.014 95.152L213.878 73.008H213.75L210.678 95.152H217.014ZM242.068 71.6H234.708V65.2H256.468V71.6H249.108V110H242.068V71.6ZM269.796 65.2H288.996V71.6H276.836V83.44H286.5V89.84H276.836V103.6H288.996V110H269.796V65.2ZM302.966 65.2H313.398C317.025 65.2 319.67 66.0533 321.334 67.76C322.998 69.424 323.83 72.0053 323.83 75.504V78.256C323.83 82.9067 322.294 85.8507 319.222 87.088V87.216C320.929 87.728 322.124 88.7733 322.806 90.352C323.532 91.9307 323.895 94.0427 323.895 96.688V104.56C323.895 105.84 323.937 106.885 324.022 107.696C324.108 108.464 324.321 109.232 324.663 110H317.494C317.238 109.275 317.068 108.592 316.983 107.952C316.897 107.312 316.854 106.16 316.854 104.496V96.304C316.854 94.256 316.513 92.8267 315.83 92.016C315.19 91.2053 314.06 90.8 312.438 90.8H310.006V110H302.966V65.2ZM312.566 84.4C313.974 84.4 315.02 84.0373 315.702 83.312C316.428 82.5867 316.79 81.3707 316.79 79.664V76.208C316.79 74.5867 316.492 73.4133 315.894 72.688C315.34 71.9627 314.444 71.6 313.206 71.6H310.006V84.4H312.566ZM338.699 65.2H345.739V110H338.699V65.2ZM360.931 65.2H369.763L376.611 92.016H376.739V65.2H383.011V110H375.779L367.331 77.296H367.203V110H360.931V65.2ZM408.148 110.64C404.735 110.64 402.132 109.68 400.34 107.76C398.548 105.797 397.652 103.003 397.652 99.376V75.824C397.652 72.1973 398.548 69.424 400.34 67.504C402.132 65.5413 404.735 64.56 408.148 64.56C411.561 64.56 414.164 65.5413 415.956 67.504C417.748 69.424 418.644 72.1973 418.644 75.824V79.664H411.988V75.376C411.988 72.432 410.772 70.96 408.34 70.96C405.908 70.96 404.692 72.432 404.692 75.376V99.888C404.692 102.789 405.908 104.24 408.34 104.24C410.772 104.24 411.988 102.789 411.988 99.888V91.12H408.468V84.72H418.644V99.376C418.644 103.003 417.748 105.797 415.956 107.76C414.164 109.68 411.561 110.64 408.148 110.64ZM435.388 110H433.084V103.216H439.868V109.296L436.348 117.68H433.084L435.388 110ZM11.8 174.64C8.344 174.64 5.69867 173.659 3.864 171.696C2.02933 169.733 1.112 166.96 1.112 163.376V139.824C1.112 136.24 2.02933 133.467 3.864 131.504C5.69867 129.541 8.344 128.56 11.8 128.56C15.256 128.56 17.9013 129.541 19.736 131.504C21.5707 133.467 22.488 136.24 22.488 139.824V163.376C22.488 166.96 21.5707 169.733 19.736 171.696C17.9013 173.659 15.256 174.64 11.8 174.64ZM11.8 168.24C14.232 168.24 15.448 166.768 15.448 163.824V139.376C15.448 136.432 14.232 134.96 11.8 134.96C9.368 134.96 8.152 136.432 8.152 139.376V163.824C8.152 166.768 9.368 168.24 11.8 168.24ZM37.169 129.2H47.601C51.2277 129.2 53.873 130.053 55.537 131.76C57.201 133.424 58.033 136.005 58.033 139.504V142.256C58.033 146.907 56.497 149.851 53.425 151.088V151.216C55.1317 151.728 56.3263 152.773 57.009 154.352C57.7343 155.931 58.097 158.043 58.097 160.688V168.56C58.097 169.84 58.1397 170.885 58.225 171.696C58.3103 172.464 58.5237 173.232 58.865 174H51.697C51.441 173.275 51.2703 172.592 51.185 171.952C51.0997 171.312 51.057 170.16 51.057 168.496V160.304C51.057 158.256 50.7157 156.827 50.033 156.016C49.393 155.205 48.2623 154.8 46.641 154.8H44.209V174H37.169V129.2ZM46.769 148.4C48.177 148.4 49.2223 148.037 49.905 147.312C50.6303 146.587 50.993 145.371 50.993 143.664V140.208C50.993 138.587 50.6943 137.413 50.097 136.688C49.5423 135.963 48.6463 135.6 47.409 135.6H44.209V148.4H46.769ZM72.9015 129.2H79.9415V174H72.9015V129.2ZM105.118 174.64C101.705 174.64 99.102 173.68 97.31 171.76C95.518 169.797 94.622 167.003 94.622 163.376V139.824C94.622 136.197 95.518 133.424 97.31 131.504C99.102 129.541 101.705 128.56 105.118 128.56C108.531 128.56 111.134 129.541 112.926 131.504C114.718 133.424 115.614 136.197 115.614 139.824V143.664H108.958V139.376C108.958 136.432 107.742 134.96 105.31 134.96C102.878 134.96 101.662 136.432 101.662 139.376V163.888C101.662 166.789 102.878 168.24 105.31 168.24C107.742 168.24 108.958 166.789 108.958 163.888V155.12H105.438V148.72H115.614V163.376C115.614 167.003 114.718 169.797 112.926 171.76C111.134 173.68 108.531 174.64 105.118 174.64ZM135.494 129.2H145.03L152.326 174H145.286L144.006 165.104V165.232H136.006L134.726 174H128.198L135.494 129.2ZM143.174 159.152L140.038 137.008H139.91L136.838 159.152H143.174ZM165.662 129.2H175.71L180.19 161.264H180.318L184.798 129.2H194.846V174H188.19V140.08H188.062L182.942 174H177.054L171.934 140.08H171.806V174H165.662V129.2ZM210.019 129.2H217.059V174H210.019V129.2ZM1.624 193.2H11.992C15.4907 193.2 18.1147 194.139 19.864 196.016C21.6133 197.893 22.488 200.645 22.488 204.272V208.688C22.488 212.315 21.6133 215.067 19.864 216.944C18.1147 218.821 15.4907 219.76 11.992 219.76H8.664V238H1.624V193.2ZM11.992 213.36C13.144 213.36 13.9973 213.04 14.552 212.4C15.1493 211.76 15.448 210.672 15.448 209.136V203.824C15.448 202.288 15.1493 201.2 14.552 200.56C13.9973 199.92 13.144 199.6 11.992 199.6H8.664V213.36H11.992ZM46.4075 238.64C42.9515 238.64 40.3062 237.659 38.4715 235.696C36.6368 233.733 35.7195 230.96 35.7195 227.376V203.824C35.7195 200.24 36.6368 197.467 38.4715 195.504C40.3062 193.541 42.9515 192.56 46.4075 192.56C49.8635 192.56 52.5088 193.541 54.3435 195.504C56.1782 197.467 57.0955 200.24 57.0955 203.824V227.376C57.0955 230.96 56.1782 233.733 54.3435 235.696C52.5088 237.659 49.8635 238.64 46.4075 238.64ZM46.4075 232.24C48.8395 232.24 50.0555 230.768 50.0555 227.824V203.376C50.0555 200.432 48.8395 198.96 46.4075 198.96C43.9755 198.96 42.7595 200.432 42.7595 203.376V227.824C42.7595 230.768 43.9755 232.24 46.4075 232.24ZM77.0305 199.6H69.6705V193.2H91.4305V199.6H84.0705V238H77.0305V199.6ZM113.911 238.64C110.498 238.64 107.916 237.68 106.167 235.76C104.418 233.797 103.543 231.003 103.543 227.376V224.816H110.199V227.888C110.199 230.789 111.415 232.24 113.847 232.24C115.042 232.24 115.938 231.899 116.535 231.216C117.175 230.491 117.495 229.339 117.495 227.76C117.495 225.883 117.068 224.24 116.215 222.832C115.362 221.381 113.783 219.653 111.479 217.648C108.578 215.088 106.551 212.784 105.399 210.736C104.247 208.645 103.671 206.299 103.671 203.696C103.671 200.155 104.567 197.424 106.359 195.504C108.151 193.541 110.754 192.56 114.167 192.56C117.538 192.56 120.076 193.541 121.783 195.504C123.532 197.424 124.407 200.197 124.407 203.824V205.68H117.751V203.376C117.751 201.84 117.452 200.731 116.855 200.048C116.258 199.323 115.383 198.96 114.231 198.96C111.884 198.96 110.711 200.389 110.711 203.248C110.711 204.869 111.138 206.384 111.991 207.792C112.887 209.2 114.487 210.907 116.791 212.912C119.735 215.472 121.762 217.797 122.871 219.888C123.98 221.979 124.535 224.432 124.535 227.248C124.535 230.917 123.618 233.733 121.783 235.696C119.991 237.659 117.367 238.64 113.911 238.64Z" fill="#03839E"/>
<path d="M1.624 1.2V0.699997H1.124V1.2H1.624ZM19.864 4.016L19.4982 4.35686V4.35686L19.864 4.016ZM19.864 24.944L19.4982 24.6031L19.864 24.944ZM8.664 27.76V27.26H8.164V27.76H8.664ZM8.664 46V46.5H9.164V46H8.664ZM1.624 46H1.124V46.5H1.624V46ZM14.552 20.4L14.1865 20.0588L14.1802 20.0656L14.1742 20.0725L14.552 20.4ZM14.552 8.56L14.1742 8.88746L14.1802 8.89442L14.1865 8.90116L14.552 8.56ZM8.664 7.6V7.1H8.164V7.6H8.664ZM8.664 21.36H8.164V21.86H8.664V21.36ZM1.624 1.7H11.992V0.699997H1.624V1.7ZM11.992 1.7C15.4042 1.7 17.874 2.6138 19.4982 4.35686L20.2298 3.67514C18.3554 1.66353 15.5771 0.699997 11.992 0.699997V1.7ZM19.4982 4.35686C21.1312 6.10939 21.988 8.71951 21.988 12.272H22.988C22.988 8.57115 22.0954 5.67727 20.2298 3.67514L19.4982 4.35686ZM21.988 12.272V16.688H22.988V12.272H21.988ZM21.988 16.688C21.988 20.2405 21.1312 22.8506 19.4982 24.6031L20.2298 25.2849C22.0954 23.2827 22.988 20.3888 22.988 16.688H21.988ZM19.4982 24.6031C17.874 26.3462 15.4042 27.26 11.992 27.26V28.26C15.5771 28.26 18.3554 27.2965 20.2298 25.2849L19.4982 24.6031ZM11.992 27.26H8.664V28.26H11.992V27.26ZM8.164 27.76V46H9.164V27.76H8.164ZM8.664 45.5H1.624V46.5H8.664V45.5ZM2.124 46V1.2H1.124V46H2.124ZM11.992 21.86C13.2342 21.86 14.2494 21.5126 14.9298 20.7275L14.1742 20.0725C13.7453 20.5674 13.0538 20.86 11.992 20.86V21.86ZM14.9175 20.7412C15.6466 19.96 15.948 18.7112 15.948 17.136H14.948C14.948 18.6328 14.6521 19.56 14.1865 20.0588L14.9175 20.7412ZM15.948 17.136V11.824H14.948V17.136H15.948ZM15.948 11.824C15.948 10.2488 15.6466 8.99998 14.9175 8.21884L14.1865 8.90116C14.6521 9.40001 14.948 10.3272 14.948 11.824H15.948ZM14.9298 8.23253C14.2494 7.44738 13.2342 7.1 11.992 7.1V8.1C13.0538 8.1 13.7453 8.39262 14.1742 8.88746L14.9298 8.23253ZM11.992 7.1H8.664V8.1H11.992V7.1ZM8.164 7.6V21.36H9.164V7.6H8.164ZM8.664 21.86H11.992V20.86H8.664V21.86ZM38.4715 43.696L38.8368 43.3546L38.4715 43.696ZM38.4715 3.504L38.8368 3.84544L38.4715 3.504ZM54.3435 3.504L53.9782 3.84544L54.3435 3.504ZM54.3435 43.696L53.9782 43.3546L54.3435 43.696ZM46.4075 46.14C43.048 46.14 40.5516 45.1891 38.8368 43.3546L38.1062 44.0374C40.0607 46.1283 42.855 47.14 46.4075 47.14V46.14ZM38.8368 43.3546C37.1143 41.5119 36.2195 38.8765 36.2195 35.376H35.2195C35.2195 39.0435 36.1594 41.9548 38.1062 44.0374L38.8368 43.3546ZM36.2195 35.376V11.824H35.2195V35.376H36.2195ZM36.2195 11.824C36.2195 8.32348 37.1143 5.68808 38.8368 3.84544L38.1062 3.16256C36.1594 5.24525 35.2195 8.15651 35.2195 11.824H36.2195ZM38.8368 3.84544C40.5516 2.01094 43.048 1.06 46.4075 1.06V0.0599976C42.855 0.0599976 40.0607 1.07172 38.1062 3.16256L38.8368 3.84544ZM46.4075 1.06C49.767 1.06 52.2634 2.01094 53.9782 3.84544L54.7088 3.16256C52.7543 1.07172 49.96 0.0599976 46.4075 0.0599976V1.06ZM53.9782 3.84544C55.7007 5.68808 56.5955 8.32348 56.5955 11.824H57.5955C57.5955 8.15651 56.6556 5.24525 54.7088 3.16256L53.9782 3.84544ZM56.5955 11.824V35.376H57.5955V11.824H56.5955ZM56.5955 35.376C56.5955 38.8765 55.7007 41.5119 53.9782 43.3546L54.7088 44.0374C56.6556 41.9548 57.5955 39.0435 57.5955 35.376H56.5955ZM53.9782 43.3546C52.2634 45.1891 49.767 46.14 46.4075 46.14V47.14C49.96 47.14 52.7543 46.1283 54.7088 44.0374L53.9782 43.3546ZM46.4075 40.74C47.7284 40.74 48.801 40.3357 49.529 39.4544C50.2418 38.5915 50.5555 37.3523 50.5555 35.824H49.5555C49.5555 37.2397 49.2612 38.2085 48.758 38.8176C48.27 39.4083 47.5186 39.74 46.4075 39.74V40.74ZM50.5555 35.824V11.376H49.5555V35.824H50.5555ZM50.5555 11.376C50.5555 9.84769 50.2418 8.60848 49.529 7.74556C48.801 6.86435 47.7284 6.46 46.4075 6.46V7.46C47.5186 7.46 48.27 7.79165 48.758 8.38244C49.2612 8.99152 49.5555 9.96031 49.5555 11.376H50.5555ZM46.4075 6.46C45.0866 6.46 44.014 6.86435 43.286 7.74556C42.5732 8.60848 42.2595 9.84769 42.2595 11.376H43.2595C43.2595 9.96031 43.5538 8.99152 44.057 8.38244C44.545 7.79165 45.2964 7.46 46.4075 7.46V6.46ZM42.2595 11.376V35.824H43.2595V11.376H42.2595ZM42.2595 35.824C42.2595 37.3523 42.5732 38.5915 43.286 39.4544C44.014 40.3357 45.0866 40.74 46.4075 40.74V39.74C45.2964 39.74 44.545 39.4083 44.057 38.8176C43.5538 38.2085 43.2595 37.2397 43.2595 35.824H42.2595ZM77.0305 7.6H77.5305V7.1H77.0305V7.6ZM69.6705 7.6H69.1705V8.1H69.6705V7.6ZM69.6705 1.2V0.699997H69.1705V1.2H69.6705ZM91.4305 1.2H91.9305V0.699997H91.4305V1.2ZM91.4305 7.6V8.1H91.9305V7.6H91.4305ZM84.0705 7.6V7.1H83.5705V7.6H84.0705ZM84.0705 46V46.5H84.5705V46H84.0705ZM77.0305 46H76.5305V46.5H77.0305V46ZM77.0305 7.1H69.6705V8.1H77.0305V7.1ZM70.1705 7.6V1.2H69.1705V7.6H70.1705ZM69.6705 1.7H91.4305V0.699997H69.6705V1.7ZM90.9305 1.2V7.6H91.9305V1.2H90.9305ZM91.4305 7.1H84.0705V8.1H91.4305V7.1ZM83.5705 7.6V46H84.5705V7.6H83.5705ZM84.0705 45.5H77.0305V46.5H84.0705V45.5ZM77.5305 46V7.6H76.5305V46H77.5305ZM104.759 1.2V0.699997H104.259V1.2H104.759ZM123.127 3.76L122.769 4.10908L122.773 4.11355L123.127 3.76ZM121.015 23.088L120.828 22.6242L120.515 22.7504V23.088H121.015ZM121.015 23.216H120.515V23.588L120.871 23.6949L121.015 23.216ZM124.599 26.352L124.14 26.5505L124.145 26.5607L124.599 26.352ZM125.815 43.696L125.318 43.7483L125.318 43.7512L125.815 43.696ZM126.455 46V46.5H127.224L126.912 45.7969L126.455 46ZM119.287 46L118.816 46.1664L118.933 46.5H119.287V46ZM117.623 28.016L117.231 28.3258L117.235 28.332L117.241 28.3381L117.623 28.016ZM111.799 26.8V26.3H111.299V26.8H111.799ZM111.799 46V46.5H112.299V46H111.799ZM104.759 46H104.259V46.5H104.759V46ZM117.495 19.312L117.141 18.9584L117.136 18.9638L117.131 18.9693L117.495 19.312ZM117.687 8.688L117.29 8.99172L117.295 8.99889L117.301 9.00585L117.687 8.688ZM111.799 7.6V7.1H111.299V7.6H111.799ZM111.799 20.4H111.299V20.9H111.799V20.4ZM104.759 1.7H115.191V0.699997H104.759V1.7ZM115.191 1.7C118.752 1.7 121.238 2.53926 122.769 4.10905L123.485 3.41095C121.688 1.5674 118.883 0.699997 115.191 0.699997V1.7ZM122.773 4.11355C124.306 5.64658 125.123 8.07393 125.123 11.504H126.123C126.123 7.93673 125.276 5.20142 123.481 3.40644L122.773 4.11355ZM125.123 11.504V14.256H126.123V11.504H125.123ZM125.123 14.256C125.123 16.5312 124.747 18.3429 124.028 19.7207C123.315 21.0875 122.253 22.0502 120.828 22.6242L121.202 23.5518C122.849 22.8885 124.091 21.7605 124.914 20.1833C125.731 18.6171 126.123 16.6315 126.123 14.256H125.123ZM120.515 23.088V23.216H121.515V23.088H120.515ZM120.871 23.6949C122.443 24.1663 123.518 25.1127 124.14 26.5505L125.058 26.1535C124.314 24.434 123.001 23.2897 121.159 22.7371L120.871 23.6949ZM124.145 26.5607C124.828 28.0488 125.187 30.0806 125.187 32.688H126.187C126.187 30.0047 125.82 27.8126 125.053 26.1432L124.145 26.5607ZM125.187 32.688V40.56H126.187V32.688H125.187ZM125.187 40.56C125.187 41.8488 125.23 42.9134 125.318 43.7483L126.312 43.6437C126.229 42.8573 126.187 41.8312 126.187 40.56H125.187ZM125.318 43.7512C125.41 44.5745 125.638 45.3922 125.998 46.2031L126.912 45.7969C126.59 45.0718 126.391 44.3535 126.312 43.6408L125.318 43.7512ZM126.455 45.5H119.287V46.5H126.455V45.5ZM119.758 45.8336C119.512 45.1348 119.351 44.486 119.271 43.8859L118.279 44.0181C118.37 44.698 118.55 45.4145 118.816 46.1664L119.758 45.8336ZM119.271 43.8859C119.19 43.2829 119.147 42.1618 119.147 40.496H118.147C118.147 42.1582 118.189 43.3411 118.279 44.0181L119.271 43.8859ZM119.147 40.496V32.304H118.147V40.496H119.147ZM119.147 32.304C119.147 30.2329 118.808 28.6474 118.005 27.6939L117.241 28.3381C117.803 29.0059 118.147 30.2791 118.147 32.304H119.147ZM118.015 27.7062C117.237 26.7202 115.917 26.3 114.231 26.3V27.3C115.787 27.3 116.729 27.6905 117.231 28.3258L118.015 27.7062ZM114.231 26.3H111.799V27.3H114.231V26.3ZM111.299 26.8V46H112.299V26.8H111.299ZM111.799 45.5H104.759V46.5H111.799V45.5ZM105.259 46V1.2H104.259V46H105.259ZM114.359 20.9C115.847 20.9 117.048 20.5161 117.859 19.6547L117.131 18.9693C116.576 19.5586 115.687 19.9 114.359 19.9V20.9ZM117.849 19.6656C118.714 18.8006 119.083 17.42 119.083 15.664H118.083C118.083 17.3214 117.727 18.3728 117.141 18.9584L117.849 19.6656ZM119.083 15.664V12.208H118.083V15.664H119.083ZM119.083 12.208C119.083 10.547 118.781 9.23007 118.073 8.37015L117.301 9.00585C117.788 9.59659 118.083 10.6264 118.083 12.208H119.083ZM118.084 8.38427C117.404 7.49465 116.333 7.1 114.999 7.1V8.1C116.14 8.1 116.861 8.43069 117.29 8.99172L118.084 8.38427ZM114.999 7.1H111.799V8.1H114.999V7.1ZM111.299 7.6V20.4H112.299V7.6H111.299ZM111.799 20.9H114.359V19.9H111.799V20.9ZM158.806 25.52L158.374 25.2676L158.149 25.6514L158.504 25.9192L158.806 25.52ZM162.454 20.656L162.785 21.0305L162.786 21.0297L162.454 20.656ZM168.598 19.504L168.783 19.0398L168.598 19.504ZM171.286 20.976L171.552 20.5529L171.286 20.976ZM173.654 22.448L173.396 22.8767L173.421 22.8914L173.447 22.9032L173.654 22.448ZM176.918 22L177.271 22.3536L177.278 22.3465L177.285 22.3391L176.918 22ZM179.222 18.928L179.523 18.5288L179.105 18.2138L178.809 18.6452L179.222 18.928ZM182.87 21.68L183.301 21.9324L183.526 21.5486L183.171 21.2808L182.87 21.68ZM179.158 26.608L179.489 26.9825L179.49 26.9817L179.158 26.608ZM173.078 27.696L173.263 27.2318L173.078 27.696ZM170.39 26.224L170.123 26.6471L170.39 26.224ZM167.958 24.816L167.7 25.2447L167.725 25.2594L167.751 25.2712L167.958 24.816ZM164.758 25.264L165.111 25.6176L165.118 25.6105L165.125 25.6031L164.758 25.264ZM162.454 28.272L162.152 28.6712L162.57 28.9862L162.866 28.5548L162.454 28.272ZM159.237 25.7724C160.55 23.5274 161.734 21.9596 162.785 21.0305L162.122 20.2815C160.954 21.315 159.706 22.9899 158.374 25.2676L159.237 25.7724ZM162.786 21.0297C163.844 20.0892 165.09 19.62 166.549 19.62V18.62C164.852 18.62 163.367 19.1748 162.121 20.2823L162.786 21.0297ZM166.549 19.62C167.215 19.62 167.834 19.7371 168.412 19.9682L168.783 19.0398C168.081 18.7589 167.335 18.62 166.549 18.62V19.62ZM168.412 19.9682C169.008 20.2068 169.873 20.6775 171.019 21.3991L171.552 20.5529C170.394 19.8238 169.467 19.3132 168.783 19.0398L168.412 19.9682ZM171.019 21.3991C172.171 22.1242 172.964 22.6176 173.396 22.8767L173.911 22.0193C173.489 21.7664 172.704 21.2785 171.552 20.5529L171.019 21.3991ZM173.447 22.9032C173.974 23.1431 174.514 23.268 175.062 23.268V22.268C174.67 22.268 174.271 22.1796 173.86 21.9928L173.447 22.9032ZM175.062 23.268C175.919 23.268 176.665 22.9595 177.271 22.3536L176.564 21.6464C176.146 22.0645 175.654 22.268 175.062 22.268V23.268ZM177.285 22.3391C177.824 21.7552 178.61 20.7042 179.634 19.2108L178.809 18.6452C177.785 20.1385 177.035 21.1355 176.55 21.6609L177.285 22.3391ZM178.92 19.3272L182.568 22.0792L183.171 21.2808L179.523 18.5288L178.92 19.3272ZM182.438 21.4276C181.126 23.6706 179.92 25.2613 178.825 26.2343L179.49 26.9817C180.699 25.9067 181.968 24.2121 183.301 21.9324L182.438 21.4276ZM178.826 26.2335C177.815 27.1284 176.591 27.58 175.126 27.58V28.58C176.817 28.58 178.282 28.0503 179.489 26.9825L178.826 26.2335ZM175.126 27.58C174.46 27.58 173.841 27.4629 173.263 27.2318L172.892 28.1602C173.594 28.4411 174.34 28.58 175.126 28.58V27.58ZM173.263 27.2318C172.667 26.9932 171.802 26.5225 170.656 25.8009L170.123 26.6471C171.281 27.3762 172.208 27.8868 172.892 28.1602L173.263 27.2318ZM170.656 25.8009C169.506 25.0768 168.669 24.59 168.164 24.3608L167.751 25.2712C168.185 25.4686 168.969 25.9205 170.123 26.6471L170.656 25.8009ZM168.215 24.3873C167.715 24.0875 167.179 23.932 166.614 23.932V24.932C166.987 24.932 167.346 25.0324 167.7 25.2447L168.215 24.3873ZM166.614 23.932C165.742 23.932 164.992 24.2724 164.39 24.9249L165.125 25.6031C165.547 25.1463 166.034 24.932 166.614 24.932V23.932ZM164.404 24.9104C163.855 25.4589 163.064 26.4971 162.041 27.9892L162.866 28.5548C163.891 27.0602 164.636 26.0931 165.111 25.6176L164.404 24.9104ZM162.755 27.8728L159.107 25.1208L158.504 25.9192L162.152 28.6712L162.755 27.8728ZM216.376 1.2V0.699997H215.876V1.2H216.376ZM235.577 1.2H236.077V0.699997H235.577V1.2ZM235.577 7.6V8.1H236.077V7.6H235.577ZM223.417 7.6V7.1H222.917V7.6H223.417ZM223.417 19.44H222.917V19.94H223.417V19.44ZM233.081 19.44H233.581V18.94H233.081V19.44ZM233.081 25.84V26.34H233.581V25.84H233.081ZM223.417 25.84V25.34H222.917V25.84H223.417ZM223.417 39.6H222.917V40.1H223.417V39.6ZM235.577 39.6H236.077V39.1H235.577V39.6ZM235.577 46V46.5H236.077V46H235.577ZM216.376 46H215.876V46.5H216.376V46ZM216.376 1.7H235.577V0.699997H216.376V1.7ZM235.077 1.2V7.6H236.077V1.2H235.077ZM235.577 7.1H223.417V8.1H235.577V7.1ZM222.917 7.6V19.44H223.917V7.6H222.917ZM223.417 19.94H233.081V18.94H223.417V19.94ZM232.581 19.44V25.84H233.581V19.44H232.581ZM233.081 25.34H223.417V26.34H233.081V25.34ZM222.917 25.84V39.6H223.917V25.84H222.917ZM223.417 40.1H235.577V39.1H223.417V40.1ZM235.077 39.6V46H236.077V39.6H235.077ZM235.577 45.5H216.376V46.5H235.577V45.5ZM216.876 46V1.2H215.876V46H216.876ZM251.723 43.76L251.353 44.0968L251.357 44.1012L251.723 43.76ZM251.723 3.44L251.357 3.09881L251.353 3.10325L251.723 3.44ZM267.147 3.44L266.777 3.77677L266.781 3.78116L267.147 3.44ZM269.835 16.304V16.804H270.335V16.304H269.835ZM263.178 16.304H262.678V16.804H263.178V16.304ZM263.178 29.296V28.796H262.678V29.296H263.178ZM269.835 29.296H270.335V28.796H269.835V29.296ZM267.147 43.76L266.781 43.4188L266.777 43.4233L267.147 43.76ZM259.466 46.14C256.193 46.14 253.76 45.2107 252.088 43.4188L251.357 44.1012C253.269 46.1493 255.999 47.14 259.466 47.14V46.14ZM252.092 43.4233C250.452 41.6233 249.598 39.05 249.598 35.632H248.598C248.598 39.2114 249.494 42.0567 251.353 44.0967L252.092 43.4233ZM249.598 35.632V11.568H248.598V35.632H249.598ZM249.598 11.568C249.598 8.15003 250.452 5.57669 252.092 3.77674L251.353 3.10325C249.494 5.14331 248.598 7.98864 248.598 11.568H249.598ZM252.088 3.78116C253.76 1.98932 256.193 1.06 259.466 1.06V0.0599976C255.999 0.0599976 253.269 1.05068 251.357 3.09884L252.088 3.78116ZM259.466 1.06C262.741 1.06 265.149 1.98952 266.777 3.77674L267.516 3.10325C265.646 1.05047 262.934 0.0599976 259.466 0.0599976V1.06ZM266.781 3.78116C268.461 5.5813 269.335 8.15296 269.335 11.568H270.335C270.335 7.98571 269.416 5.1387 267.512 3.09884L266.781 3.78116ZM269.335 11.568V16.304H270.335V11.568H269.335ZM269.835 15.804H263.178V16.804H269.835V15.804ZM263.678 16.304V11.12H262.678V16.304H263.678ZM263.678 11.12C263.678 9.67476 263.375 8.49761 262.68 7.67703C261.972 6.84044 260.933 6.46 259.659 6.46V7.46C260.731 7.46 261.451 7.77289 261.917 8.32297C262.396 8.88905 262.678 9.7919 262.678 11.12H263.678ZM259.659 6.46C258.384 6.46 257.345 6.84044 256.637 7.67703C255.942 8.49761 255.638 9.67476 255.638 11.12H256.638C256.638 9.7919 256.921 8.88905 257.4 8.32297C257.866 7.77289 258.586 7.46 259.659 7.46V6.46ZM255.638 11.12V36.144H256.638V11.12H255.638ZM255.638 36.144C255.638 37.5694 255.943 38.7318 256.639 39.5419C257.348 40.3665 258.387 40.74 259.659 40.74V39.74C258.584 39.74 257.862 39.4309 257.398 38.8901C256.921 38.3349 256.638 37.4492 256.638 36.144H255.638ZM259.659 40.74C260.93 40.74 261.969 40.3665 262.678 39.5419C263.374 38.7318 263.678 37.5694 263.678 36.144H262.678C262.678 37.4492 262.396 38.3349 261.919 38.8901C261.455 39.4309 260.733 39.74 259.659 39.74V40.74ZM263.678 36.144V29.296H262.678V36.144H263.678ZM263.178 29.796H269.835V28.796H263.178V29.796ZM269.335 29.296V35.632H270.335V29.296H269.335ZM269.335 35.632C269.335 39.047 268.461 41.6187 266.781 43.4188L267.512 44.1012C269.416 42.0613 270.335 39.2143 270.335 35.632H269.335ZM266.777 43.4233C265.149 45.2105 262.741 46.14 259.466 46.14V47.14C262.934 47.14 265.646 46.1495 267.516 44.0967L266.777 43.4233ZM286.332 43.696L286.697 43.3546L286.332 43.696ZM286.332 3.504L286.697 3.84544L286.332 3.504ZM302.203 3.504L301.838 3.84544L302.203 3.504ZM302.203 43.696L301.838 43.3546L302.203 43.696ZM294.267 46.14C290.908 46.14 288.412 45.1891 286.697 43.3546L285.966 44.0374C287.921 46.1283 290.715 47.14 294.267 47.14V46.14ZM286.697 43.3546C284.974 41.5119 284.079 38.8765 284.079 35.376H283.079C283.079 39.0435 284.019 41.9548 285.966 44.0374L286.697 43.3546ZM284.079 35.376V11.824H283.079V35.376H284.079ZM284.079 11.824C284.079 8.32348 284.974 5.68808 286.697 3.84544L285.966 3.16256C284.019 5.24525 283.079 8.15651 283.079 11.824H284.079ZM286.697 3.84544C288.412 2.01094 290.908 1.06 294.267 1.06V0.0599976C290.715 0.0599976 287.921 1.07172 285.966 3.16256L286.697 3.84544ZM294.267 1.06C297.627 1.06 300.123 2.01094 301.838 3.84544L302.569 3.16256C300.614 1.07172 297.82 0.0599976 294.267 0.0599976V1.06ZM301.838 3.84544C303.561 5.68808 304.456 8.32348 304.456 11.824H305.456C305.456 8.15651 304.516 5.24525 302.569 3.16256L301.838 3.84544ZM304.456 11.824V35.376H305.456V11.824H304.456ZM304.456 35.376C304.456 38.8765 303.561 41.5119 301.838 43.3546L302.569 44.0374C304.516 41.9548 305.456 39.0435 305.456 35.376H304.456ZM301.838 43.3546C300.123 45.1891 297.627 46.14 294.267 46.14V47.14C297.82 47.14 300.614 46.1283 302.569 44.0374L301.838 43.3546ZM294.267 40.74C295.588 40.74 296.661 40.3357 297.389 39.4544C298.102 38.5915 298.415 37.3523 298.415 35.824H297.415C297.415 37.2397 297.121 38.2085 296.618 38.8176C296.13 39.4083 295.379 39.74 294.267 39.74V40.74ZM298.415 35.824V11.376H297.415V35.824H298.415ZM298.415 11.376C298.415 9.84769 298.102 8.60848 297.389 7.74556C296.661 6.86435 295.588 6.46 294.267 6.46V7.46C295.379 7.46 296.13 7.79165 296.618 8.38244C297.121 8.99152 297.415 9.96031 297.415 11.376H298.415ZM294.267 6.46C292.947 6.46 291.874 6.86435 291.146 7.74556C290.433 8.60848 290.12 9.84769 290.12 11.376H291.12C291.12 9.96031 291.414 8.99152 291.917 8.38244C292.405 7.79165 293.156 7.46 294.267 7.46V6.46ZM290.12 11.376V35.824H291.12V11.376H290.12ZM290.12 35.824C290.12 37.3523 290.433 38.5915 291.146 39.4544C291.874 40.3357 292.947 40.74 294.267 40.74V39.74C293.156 39.74 292.405 39.4083 291.917 38.8176C291.414 38.2085 291.12 37.2397 291.12 35.824H290.12ZM321.566 46L322.044 46.1437L322.238 45.5H321.566V46ZM319.262 46H318.762V46.5H319.262V46ZM319.262 39.216V38.716H318.762V39.216H319.262ZM326.046 39.216H326.546V38.716H326.046V39.216ZM326.046 45.296L326.507 45.4896L326.546 45.3967V45.296H326.046ZM322.526 53.68V54.18H322.858L322.987 53.8736L322.526 53.68ZM319.262 53.68L318.783 53.5363L318.59 54.18H319.262V53.68ZM321.566 45.5H319.262V46.5H321.566V45.5ZM319.762 46V39.216H318.762V46H319.762ZM319.262 39.716H326.046V38.716H319.262V39.716ZM325.546 39.216V45.296H326.546V39.216H325.546ZM325.585 45.1024L322.064 53.4864L322.987 53.8736L326.507 45.4896L325.585 45.1024ZM322.526 53.18H319.262V54.18H322.526V53.18ZM319.74 53.8237L322.044 46.1437L321.087 45.8563L318.783 53.5363L319.74 53.8237ZM3.032 107.76L2.65872 108.093L2.6624 108.097L3.032 107.76ZM0.408 96.816V96.316H-0.0919999V96.816H0.408ZM7.064 96.816H7.564V96.316H7.064V96.816ZM13.4 103.216L13.0251 102.885L13.0237 102.887L13.4 103.216ZM13.08 94.832L12.649 95.0855L12.6524 95.0911L13.08 94.832ZM8.344 89.648L8.01318 90.0229L8.01574 90.0252L8.344 89.648ZM2.264 82.736L1.82606 82.9773L1.82821 82.9811L2.264 82.736ZM3.224 67.504L3.58955 67.8452L3.59324 67.8411L3.224 67.504ZM18.648 67.504L18.2706 67.8322L18.2784 67.8407L18.648 67.504ZM21.272 77.68V78.18H21.772V77.68H21.272ZM14.616 77.68H14.116V78.18H14.616V77.68ZM13.72 72.048L13.334 72.3659L13.3388 72.3716L13.3437 72.3773L13.72 72.048ZM8.856 79.792L8.4283 80.0512L8.43417 80.0604L8.856 79.792ZM13.656 84.912L13.3277 85.2892L13.3279 85.2893L13.656 84.912ZM19.736 91.888L19.2943 92.1224L19.736 91.888ZM18.648 107.696L18.2827 107.355L18.2788 107.359L18.648 107.696ZM10.776 110.14C7.45677 110.14 5.0288 109.209 3.4016 107.423L2.6624 108.097C4.53387 110.151 7.26857 111.14 10.776 111.14V110.14ZM3.40526 107.427C1.76405 105.586 0.908 102.927 0.908 99.376H-0.0919999C-0.0919999 103.079 0.801285 106.009 2.65874 108.093L3.40526 107.427ZM0.908 99.376V96.816H-0.0919999V99.376H0.908ZM0.408 97.316H7.064V96.316H0.408V97.316ZM6.564 96.816V99.888H7.564V96.816H6.564ZM6.564 99.888C6.564 101.396 6.87825 102.621 7.59282 103.473C8.32155 104.343 9.39349 104.74 10.712 104.74V103.74C9.59851 103.74 8.84645 103.412 8.35919 102.831C7.85775 102.233 7.564 101.281 7.564 99.888H6.564ZM10.712 104.74C12.0024 104.74 13.0562 104.368 13.7763 103.545L13.0237 102.887C12.5492 103.429 11.811 103.74 10.712 103.74V104.74ZM13.7749 103.547C14.5331 102.688 14.86 101.388 14.86 99.76H13.86C13.86 101.289 13.5469 102.294 13.0251 102.885L13.7749 103.547ZM14.86 99.76C14.86 97.8044 14.4146 96.0695 13.5076 94.5728L12.6524 95.0911C13.452 96.4105 13.86 97.961 13.86 99.76H14.86ZM13.511 94.5785C12.6165 93.0579 10.9895 91.2877 8.67226 89.2708L8.01574 90.0252C10.3065 92.019 11.8368 93.7048 12.649 95.0855L13.511 94.5785ZM8.67481 89.2731C5.79198 86.7294 3.81229 84.4686 2.69979 82.4909L1.82821 82.9811C3.01971 85.0993 5.09335 87.4466 8.01319 90.0229L8.67481 89.2731ZM2.70192 82.4947C1.59426 80.4845 1.036 78.2221 1.036 75.696H0.036C0.036 78.3752 0.629743 80.8062 1.82608 82.9773L2.70192 82.4947ZM1.036 75.696C1.036 72.2364 1.91037 69.6443 3.58953 67.8452L2.85847 67.1628C0.953633 69.2037 0.036 72.073 0.036 75.696H1.036ZM3.59324 67.8411C5.26525 66.0099 7.71674 65.06 11.032 65.06V64.06C7.5206 64.06 4.76675 65.0728 2.85476 67.1669L3.59324 67.8411ZM11.032 65.06C14.3037 65.06 16.6854 66.0089 18.2707 67.8321L19.0253 67.1759C17.1973 65.0737 14.5017 64.06 11.032 64.06V65.06ZM18.2784 67.8407C19.9156 69.6377 20.772 72.2724 20.772 75.824H21.772C21.772 72.1222 20.8791 69.2103 19.0176 67.1673L18.2784 67.8407ZM20.772 75.824V77.68H21.772V75.824H20.772ZM21.272 77.18H14.616V78.18H21.272V77.18ZM15.116 77.68V75.376H14.116V77.68H15.116ZM15.116 75.376C15.116 73.7962 14.8127 72.5375 14.0963 71.7187L13.3437 72.3773C13.8219 72.9238 14.116 73.8837 14.116 75.376H15.116ZM14.106 71.7301C13.3924 70.8636 12.3603 70.46 11.096 70.46V71.46C12.1357 71.46 12.853 71.7817 13.334 72.3659L14.106 71.7301ZM11.096 70.46C9.81671 70.46 8.77581 70.8544 8.06954 71.7148C7.37877 72.5562 7.076 73.7629 7.076 75.248H8.076C8.076 73.8744 8.3599 72.9371 8.84246 72.3492C9.30952 71.7803 10.0286 71.46 11.096 71.46V70.46ZM7.076 75.248C7.076 76.9622 7.52848 78.5663 8.4284 80.0511L9.2836 79.5328C8.47685 78.2017 8.076 76.7765 8.076 75.248H7.076ZM8.43417 80.0604C9.36908 81.5296 11.0122 83.2738 13.3277 85.2892L13.9843 84.5348C11.6918 82.5395 10.1349 80.8704 9.27783 79.5236L8.43417 80.0604ZM13.3279 85.2893C16.2517 87.8317 18.2264 90.1098 19.2943 92.1224L20.1777 91.6536C19.0269 89.4849 16.9483 87.1123 13.9841 84.5347L13.3279 85.2893ZM19.2943 92.1224C20.3587 94.1283 20.9 96.4983 20.9 99.248H21.9C21.9 96.3657 21.332 93.829 20.1777 91.6536L19.2943 92.1224ZM20.9 99.248C20.9 102.838 20.0033 105.514 18.2827 107.355L19.0133 108.037C20.962 105.953 21.9 102.997 21.9 99.248H20.9ZM18.2788 107.359C16.6079 109.189 14.1361 110.14 10.776 110.14V111.14C14.3279 111.14 17.1041 110.128 19.0172 108.033L18.2788 107.359ZM35.3565 65.2V64.7H34.8565V65.2H35.3565ZM54.5565 65.2H55.0565V64.7H54.5565V65.2ZM54.5565 71.6V72.1H55.0565V71.6H54.5565ZM42.3965 71.6V71.1H41.8965V71.6H42.3965ZM42.3965 83.44H41.8965V83.94H42.3965V83.44ZM52.0605 83.44H52.5605V82.94H52.0605V83.44ZM52.0605 89.84V90.34H52.5605V89.84H52.0605ZM42.3965 89.84V89.34H41.8965V89.84H42.3965ZM42.3965 103.6H41.8965V104.1H42.3965V103.6ZM54.5565 103.6H55.0565V103.1H54.5565V103.6ZM54.5565 110V110.5H55.0565V110H54.5565ZM35.3565 110H34.8565V110.5H35.3565V110ZM35.3565 65.7H54.5565V64.7H35.3565V65.7ZM54.0565 65.2V71.6H55.0565V65.2H54.0565ZM54.5565 71.1H42.3965V72.1H54.5565V71.1ZM41.8965 71.6V83.44H42.8965V71.6H41.8965ZM42.3965 83.94H52.0605V82.94H42.3965V83.94ZM51.5605 83.44V89.84H52.5605V83.44H51.5605ZM52.0605 89.34H42.3965V90.34H52.0605V89.34ZM41.8965 89.84V103.6H42.8965V89.84H41.8965ZM42.3965 104.1H54.5565V103.1H42.3965V104.1ZM54.0565 103.6V110H55.0565V103.6H54.0565ZM54.5565 109.5H35.3565V110.5H54.5565V109.5ZM35.8565 110V65.2H34.8565V110H35.8565ZM68.5265 65.2V64.7H68.0265V65.2H68.5265ZM75.5665 65.2H76.0665V64.7H75.5665V65.2ZM75.5665 103.6H75.0665V104.1H75.5665V103.6ZM87.1505 103.6H87.6505V103.1H87.1505V103.6ZM87.1505 110V110.5H87.6505V110H87.1505ZM68.5265 110H68.0265V110.5H68.5265V110ZM68.5265 65.7H75.5665V64.7H68.5265V65.7ZM75.0665 65.2V103.6H76.0665V65.2H75.0665ZM75.5665 104.1H87.1505V103.1H75.5665V104.1ZM86.6505 103.6V110H87.6505V103.6H86.6505ZM87.1505 109.5H68.5265V110.5H87.1505V109.5ZM69.0265 110V65.2H68.0265V110H69.0265ZM100.447 65.2V64.7H99.9465V65.2H100.447ZM119.071 65.2H119.571V64.7H119.071V65.2ZM119.071 71.6V72.1H119.571V71.6H119.071ZM107.487 71.6V71.1H106.987V71.6H107.487ZM107.487 84.08H106.987V84.58H107.487V84.08ZM116.575 84.08H117.075V83.58H116.575V84.08ZM116.575 90.48V90.98H117.075V90.48H116.575ZM107.487 90.48V89.98H106.987V90.48H107.487ZM107.487 110V110.5H107.987V110H107.487ZM100.447 110H99.9465V110.5H100.447V110ZM100.447 65.7H119.071V64.7H100.447V65.7ZM118.571 65.2V71.6H119.571V65.2H118.571ZM119.071 71.1H107.487V72.1H119.071V71.1ZM106.987 71.6V84.08H107.987V71.6H106.987ZM107.487 84.58H116.575V83.58H107.487V84.58ZM116.075 84.08V90.48H117.075V84.08H116.075ZM116.575 89.98H107.487V90.98H116.575V89.98ZM106.987 90.48V110H107.987V90.48H106.987ZM107.487 109.5H100.447V110.5H107.487V109.5ZM100.947 110V65.2H99.9465V110H100.947ZM131.03 84.4V83.9H130.53V84.4H131.03ZM145.11 84.4H145.61V83.9H145.11V84.4ZM145.11 90.8V91.3H145.61V90.8H145.11ZM131.03 90.8H130.53V91.3H131.03V90.8ZM131.03 84.9H145.11V83.9H131.03V84.9ZM144.61 84.4V90.8H145.61V84.4H144.61ZM145.11 90.3H131.03V91.3H145.11V90.3ZM131.53 90.8V84.4H130.53V90.8H131.53ZM157.56 65.2V64.7H157.007L157.063 65.2505L157.56 65.2ZM164.344 65.2L164.842 65.1546L164.801 64.7H164.344V65.2ZM167.48 99.632L166.982 99.6774L167.023 100.132H167.48V99.632ZM167.608 99.632V100.132H168.062L168.106 99.6801L167.608 99.632ZM170.936 65.2V64.7H170.482L170.438 65.1519L170.936 65.2ZM178.616 65.2L179.114 65.1519L179.07 64.7H178.616V65.2ZM181.944 99.632L181.446 99.6801L181.49 100.132H181.944V99.632ZM182.072 99.632V100.132H182.529L182.57 99.6774L182.072 99.632ZM185.208 65.2V64.7H184.751L184.71 65.1546L185.208 65.2ZM191.288 65.2L191.785 65.2505L191.841 64.7H191.288V65.2ZM186.744 110V110.5H187.196L187.241 110.05L186.744 110ZM177.976 110L177.479 110.053L177.526 110.5H177.976V110ZM174.776 79.792L175.273 79.7393L175.226 79.292H174.776V79.792ZM174.648 79.792V79.292H174.198L174.151 79.7393L174.648 79.792ZM171.448 110V110.5H171.898L171.945 110.053L171.448 110ZM162.104 110L161.607 110.05L161.652 110.5H162.104V110ZM157.56 65.7H164.344V64.7H157.56V65.7ZM163.846 65.2453L166.982 99.6774L167.978 99.5866L164.842 65.1546L163.846 65.2453ZM167.48 100.132H167.608V99.132H167.48V100.132ZM168.106 99.6801L171.434 65.2481L170.438 65.1519L167.11 99.5839L168.106 99.6801ZM170.936 65.7H178.616V64.7H170.936V65.7ZM178.118 65.2481L181.446 99.6801L182.442 99.5839L179.114 65.1519L178.118 65.2481ZM181.944 100.132H182.072V99.132H181.944V100.132ZM182.57 99.6774L185.706 65.2453L184.71 65.1546L181.574 99.5866L182.57 99.6774ZM185.208 65.7H191.288V64.7H185.208V65.7ZM190.791 65.1495L186.247 109.95L187.241 110.05L191.785 65.2505L190.791 65.1495ZM186.744 109.5H177.976V110.5H186.744V109.5ZM178.473 109.947L175.273 79.7393L174.279 79.8447L177.479 110.053L178.473 109.947ZM174.776 79.292H174.648V80.292H174.776V79.292ZM174.151 79.7393L170.951 109.947L171.945 110.053L175.145 79.8447L174.151 79.7393ZM171.448 109.5H162.104V110.5H171.448V109.5ZM162.601 109.95L158.057 65.1495L157.063 65.2505L161.607 110.05L162.601 109.95ZM209.334 65.2V64.7H208.909L208.84 65.1196L209.334 65.2ZM218.87 65.2L219.364 65.1196L219.295 64.7H218.87V65.2ZM226.166 110V110.5H226.754L226.66 109.92L226.166 110ZM219.126 110L218.631 110.071L218.693 110.5H219.126V110ZM217.846 101.104L218.341 101.033L217.346 101.104H217.846ZM217.846 101.232V101.732H218.346V101.232H217.846ZM209.846 101.232V100.732H209.414L209.351 101.16L209.846 101.232ZM208.566 110V110.5H208.998L209.061 110.072L208.566 110ZM202.038 110L201.545 109.92L201.45 110.5H202.038V110ZM217.014 95.152V95.652H217.59L217.509 95.0819L217.014 95.152ZM213.878 73.008L214.373 72.9379L214.312 72.508H213.878V73.008ZM213.75 73.008V72.508H213.315L213.255 72.9393L213.75 73.008ZM210.678 95.152L210.183 95.0833L210.104 95.652H210.678V95.152ZM209.334 65.7H218.87V64.7H209.334V65.7ZM218.377 65.2804L225.673 110.08L226.66 109.92L219.364 65.1196L218.377 65.2804ZM226.166 109.5H219.126V110.5H226.166V109.5ZM219.621 109.929L218.341 101.033L217.351 101.175L218.631 110.071L219.621 109.929ZM217.346 101.104V101.232H218.346V101.104H217.346ZM217.846 100.732H209.846V101.732H217.846V100.732ZM209.351 101.16L208.071 109.928L209.061 110.072L210.341 101.304L209.351 101.16ZM208.566 109.5H202.038V110.5H208.566V109.5ZM202.532 110.08L209.827 65.2804L208.84 65.1196L201.545 109.92L202.532 110.08ZM217.509 95.0819L214.373 72.9379L213.383 73.0781L216.519 95.2221L217.509 95.0819ZM213.878 72.508H213.75V73.508H213.878V72.508ZM213.255 72.9393L210.183 95.0833L211.173 95.2207L214.245 73.0767L213.255 72.9393ZM210.678 95.652H217.014V94.652H210.678V95.652ZM242.068 71.6H242.568V71.1H242.068V71.6ZM234.708 71.6H234.208V72.1H234.708V71.6ZM234.708 65.2V64.7H234.208V65.2H234.708ZM256.468 65.2H256.968V64.7H256.468V65.2ZM256.468 71.6V72.1H256.968V71.6H256.468ZM249.108 71.6V71.1H248.608V71.6H249.108ZM249.108 110V110.5H249.608V110H249.108ZM242.068 110H241.568V110.5H242.068V110ZM242.068 71.1H234.708V72.1H242.068V71.1ZM235.208 71.6V65.2H234.208V71.6H235.208ZM234.708 65.7H256.468V64.7H234.708V65.7ZM255.968 65.2V71.6H256.968V65.2H255.968ZM256.468 71.1H249.108V72.1H256.468V71.1ZM248.608 71.6V110H249.608V71.6H248.608ZM249.108 109.5H242.068V110.5H249.108V109.5ZM242.568 110V71.6H241.568V110H242.568ZM269.796 65.2V64.7H269.296V65.2H269.796ZM288.996 65.2H289.496V64.7H288.996V65.2ZM288.996 71.6V72.1H289.496V71.6H288.996ZM276.836 71.6V71.1H276.336V71.6H276.836ZM276.836 83.44H276.336V83.94H276.836V83.44ZM286.5 83.44H287V82.94H286.5V83.44ZM286.5 89.84V90.34H287V89.84H286.5ZM276.836 89.84V89.34H276.336V89.84H276.836ZM276.836 103.6H276.336V104.1H276.836V103.6ZM288.996 103.6H289.496V103.1H288.996V103.6ZM288.996 110V110.5H289.496V110H288.996ZM269.796 110H269.296V110.5H269.796V110ZM269.796 65.7H288.996V64.7H269.796V65.7ZM288.496 65.2V71.6H289.496V65.2H288.496ZM288.996 71.1H276.836V72.1H288.996V71.1ZM276.336 71.6V83.44H277.336V71.6H276.336ZM276.836 83.94H286.5V82.94H276.836V83.94ZM286 83.44V89.84H287V83.44H286ZM286.5 89.34H276.836V90.34H286.5V89.34ZM276.336 89.84V103.6H277.336V89.84H276.336ZM276.836 104.1H288.996V103.1H276.836V104.1ZM288.496 103.6V110H289.496V103.6H288.496ZM288.996 109.5H269.796V110.5H288.996V109.5ZM270.296 110V65.2H269.296V110H270.296ZM302.966 65.2V64.7H302.466V65.2H302.966ZM321.335 67.76L320.976 68.1091L320.981 68.1135L321.335 67.76ZM319.223 87.088L319.036 86.6242L318.723 86.7504V87.088H319.223ZM319.223 87.216H318.723V87.588L319.079 87.6949L319.223 87.216ZM322.806 90.352L322.347 90.5505L322.352 90.5608L322.806 90.352ZM324.022 107.696L323.525 107.748L323.526 107.751L324.022 107.696ZM324.663 110V110.5H325.432L325.119 109.797L324.663 110ZM317.495 110L317.023 110.166L317.141 110.5H317.495V110ZM315.831 92.016L315.438 92.3258L315.443 92.332L315.448 92.3381L315.831 92.016ZM310.007 90.8V90.3H309.507V90.8H310.007ZM310.007 110V110.5H310.507V110H310.007ZM302.966 110H302.466V110.5H302.966V110ZM315.703 83.312L315.349 82.9584L315.344 82.9638L315.338 82.9693L315.703 83.312ZM315.895 72.688L315.497 72.9917L315.503 72.9989L315.509 73.0059L315.895 72.688ZM310.007 71.6V71.1H309.507V71.6H310.007ZM310.007 84.4H309.507V84.9H310.007V84.4ZM302.966 65.7H313.398V64.7H302.966V65.7ZM313.398 65.7C316.96 65.7 319.446 66.5393 320.977 68.109L321.693 67.4109C319.895 65.5674 317.091 64.7 313.398 64.7V65.7ZM320.981 68.1135C322.514 69.6466 323.331 72.0739 323.331 75.504H324.331C324.331 71.9367 323.483 69.2014 321.688 67.4064L320.981 68.1135ZM323.331 75.504V78.256H324.331V75.504H323.331ZM323.331 78.256C323.331 80.5312 322.954 82.3429 322.235 83.7207C321.522 85.0874 320.461 86.0502 319.036 86.6242L319.409 87.5518C321.056 86.8885 322.299 85.7605 323.122 84.1833C323.939 82.6171 324.331 80.6315 324.331 78.256H323.331ZM318.723 87.088V87.216H319.723V87.088H318.723ZM319.079 87.6949C320.65 88.1663 321.726 89.1127 322.348 90.5505L323.265 90.1535C322.522 88.434 321.208 87.2897 319.366 86.7371L319.079 87.6949ZM322.352 90.5608C323.036 92.0488 323.395 94.0806 323.395 96.688H324.395C324.395 94.0047 324.028 91.8126 323.261 90.1432L322.352 90.5608ZM323.395 96.688V104.56H324.395V96.688H323.395ZM323.395 104.56C323.395 105.849 323.437 106.913 323.525 107.748L324.52 107.644C324.437 106.857 324.395 105.831 324.395 104.56H323.395ZM323.526 107.751C323.617 108.575 323.845 109.392 324.206 110.203L325.119 109.797C324.797 109.072 324.599 108.353 324.519 107.641L323.526 107.751ZM324.663 109.5H317.495V110.5H324.663V109.5ZM317.966 109.834C317.719 109.135 317.558 108.486 317.478 107.886L316.487 108.018C316.578 108.698 316.758 109.415 317.023 110.166L317.966 109.834ZM317.478 107.886C317.398 107.283 317.354 106.162 317.354 104.496H316.354C316.354 106.158 316.397 107.341 316.487 108.018L317.478 107.886ZM317.354 104.496V96.304H316.354V104.496H317.354ZM317.354 96.304C317.354 94.2329 317.016 92.6474 316.213 91.6939L315.448 92.3381C316.01 93.0059 316.354 94.2791 316.354 96.304H317.354ZM316.223 91.7062C315.444 90.7202 314.125 90.3 312.439 90.3V91.3C313.995 91.3 314.936 91.6905 315.438 92.3258L316.223 91.7062ZM312.439 90.3H310.007V91.3H312.439V90.3ZM309.507 90.8V110H310.507V90.8H309.507ZM310.007 109.5H302.966V110.5H310.007V109.5ZM303.466 110V65.2H302.466V110H303.466ZM312.566 84.9C314.054 84.9 315.256 84.5161 316.067 83.6547L315.338 82.9693C314.784 83.5585 313.895 83.9 312.566 83.9V84.9ZM316.056 83.6656C316.921 82.8006 317.29 81.42 317.29 79.664H316.29C316.29 81.3214 315.935 82.3728 315.349 82.9584L316.056 83.6656ZM317.29 79.664V76.208H316.29V79.664H317.29ZM317.29 76.208C317.29 74.547 316.989 73.2301 316.28 72.3701L315.509 73.0059C315.995 73.5966 316.29 74.6264 316.29 76.208H317.29ZM316.292 72.3843C315.611 71.4946 314.54 71.1 313.207 71.1V72.1C314.348 72.1 315.068 72.4307 315.497 72.9917L316.292 72.3843ZM313.207 71.1H310.007V72.1H313.207V71.1ZM309.507 71.6V84.4H310.507V71.6H309.507ZM310.007 84.9H312.566V83.9H310.007V84.9ZM338.699 65.2V64.7H338.199V65.2H338.699ZM345.739 65.2H346.239V64.7H345.739V65.2ZM345.739 110V110.5H346.239V110H345.739ZM338.699 110H338.199V110.5H338.699V110ZM338.699 65.7H345.739V64.7H338.699V65.7ZM345.239 65.2V110H346.239V65.2H345.239ZM345.739 109.5H338.699V110.5H345.739V109.5ZM339.199 110V65.2H338.199V110H339.199ZM360.931 65.2V64.7H360.431V65.2H360.931ZM369.763 65.2L370.248 65.0763L370.152 64.7H369.763V65.2ZM376.612 92.016L376.127 92.1397L376.223 92.516H376.612V92.016ZM376.74 92.016V92.516H377.24V92.016H376.74ZM376.74 65.2V64.7H376.24V65.2H376.74ZM383.012 65.2H383.512V64.7H383.012V65.2ZM383.012 110V110.5H383.512V110H383.012ZM375.779 110L375.295 110.125L375.392 110.5H375.779V110ZM367.331 77.296L367.816 77.1709L367.719 76.796H367.331V77.296ZM367.203 77.296V76.796H366.703V77.296H367.203ZM367.203 110V110.5H367.703V110H367.203ZM360.931 110H360.431V110.5H360.931V110ZM360.931 65.7H369.763V64.7H360.931V65.7ZM369.279 65.3237L376.127 92.1397L377.096 91.8923L370.248 65.0763L369.279 65.3237ZM376.612 92.516H376.74V91.516H376.612V92.516ZM377.24 92.016V65.2H376.24V92.016H377.24ZM376.74 65.7H383.012V64.7H376.74V65.7ZM382.512 65.2V110H383.512V65.2H382.512ZM383.012 109.5H375.779V110.5H383.012V109.5ZM376.264 109.875L367.816 77.1709L366.847 77.4211L375.295 110.125L376.264 109.875ZM367.331 76.796H367.203V77.796H367.331V76.796ZM366.703 77.296V110H367.703V77.296H366.703ZM367.203 109.5H360.931V110.5H367.203V109.5ZM361.431 110V65.2H360.431V110H361.431ZM400.34 107.76L399.971 108.097L399.974 108.101L400.34 107.76ZM400.34 67.504L400.706 67.8452L400.709 67.8411L400.34 67.504ZM415.956 67.504L415.587 67.8412L415.59 67.8452L415.956 67.504ZM418.644 79.664V80.164H419.144V79.664H418.644ZM411.988 79.664H411.488V80.164H411.988V79.664ZM411.988 91.12H412.488V90.62H411.988V91.12ZM408.468 91.12H407.968V91.62H408.468V91.12ZM408.468 84.72V84.22H407.968V84.72H408.468ZM418.644 84.72H419.144V84.22H418.644V84.72ZM415.956 107.76L416.322 108.101L416.325 108.097L415.956 107.76ZM408.148 110.14C404.829 110.14 402.377 109.209 400.706 107.419L399.974 108.101C401.887 110.151 404.64 111.14 408.148 111.14V110.14ZM400.709 107.423C399.028 105.581 398.152 102.924 398.152 99.376H397.152C397.152 103.081 398.068 106.013 399.971 108.097L400.709 107.423ZM398.152 99.376V75.824H397.152V99.376H398.152ZM398.152 75.824C398.152 72.2753 399.028 69.6422 400.706 67.8452L399.974 67.1628C398.068 69.2058 397.152 72.1194 397.152 75.824H398.152ZM400.709 67.8411C402.381 66.0099 404.833 65.06 408.148 65.06V64.06C404.637 64.06 401.883 65.0728 399.971 67.1669L400.709 67.8411ZM408.148 65.06C411.463 65.06 413.915 66.0099 415.587 67.8411L416.325 67.1669C414.413 65.0728 411.659 64.06 408.148 64.06V65.06ZM415.59 67.8452C417.268 69.6422 418.144 72.2753 418.144 75.824H419.144C419.144 72.1194 418.228 69.2058 416.322 67.1628L415.59 67.8452ZM418.144 75.824V79.664H419.144V75.824H418.144ZM418.644 79.164H411.988V80.164H418.644V79.164ZM412.488 79.664V75.376H411.488V79.664H412.488ZM412.488 75.376C412.488 73.8477 412.174 72.6085 411.461 71.7456C410.734 70.8643 409.661 70.46 408.34 70.46V71.46C409.451 71.46 410.202 71.7917 410.691 72.3824C411.194 72.9915 411.488 73.9603 411.488 75.376H412.488ZM408.34 70.46C407.019 70.46 405.946 70.8643 405.219 71.7456C404.506 72.6085 404.192 73.8477 404.192 75.376H405.192C405.192 73.9603 405.486 72.9915 405.99 72.3824C406.478 71.7917 407.229 71.46 408.34 71.46V70.46ZM404.192 75.376V99.888H405.192V75.376H404.192ZM404.192 99.888C404.192 101.396 404.506 102.621 405.221 103.473C405.95 104.343 407.022 104.74 408.34 104.74V103.74C407.227 103.74 406.474 103.412 405.987 102.831C405.486 102.233 405.192 101.281 405.192 99.888H404.192ZM408.34 104.74C409.659 104.74 410.73 104.343 411.459 103.473C412.174 102.621 412.488 101.396 412.488 99.888H411.488C411.488 101.281 411.194 102.233 410.693 102.831C410.206 103.412 409.453 103.74 408.34 103.74V104.74ZM412.488 99.888V91.12H411.488V99.888H412.488ZM411.988 90.62H408.468V91.62H411.988V90.62ZM408.968 91.12V84.72H407.968V91.12H408.968ZM408.468 85.22H418.644V84.22H408.468V85.22ZM418.144 84.72V99.376H419.144V84.72H418.144ZM418.144 99.376C418.144 102.924 417.268 105.581 415.587 107.423L416.325 108.097C418.228 106.013 419.144 103.081 419.144 99.376H418.144ZM415.59 107.419C413.919 109.209 411.467 110.14 408.148 110.14V111.14C411.656 111.14 414.409 110.151 416.322 108.101L415.59 107.419ZM435.388 110L435.867 110.144L436.06 109.5H435.388V110ZM433.084 110H432.584V110.5H433.084V110ZM433.084 103.216V102.716H432.584V103.216H433.084ZM439.868 103.216H440.368V102.716H439.868V103.216ZM439.868 109.296L440.329 109.49L440.368 109.397V109.296H439.868ZM436.348 117.68V118.18H436.68L436.809 117.874L436.348 117.68ZM433.084 117.68L432.605 117.536L432.412 118.18H433.084V117.68ZM435.388 109.5H433.084V110.5H435.388V109.5ZM433.584 110V103.216H432.584V110H433.584ZM433.084 103.716H439.868V102.716H433.084V103.716ZM439.368 103.216V109.296H440.368V103.216H439.368ZM439.407 109.102L435.887 117.486L436.809 117.874L440.329 109.49L439.407 109.102ZM436.348 117.18H433.084V118.18H436.348V117.18ZM433.563 117.824L435.867 110.144L434.909 109.856L432.605 117.536L433.563 117.824ZM3.864 171.696L4.22926 171.355L3.864 171.696ZM3.864 131.504L4.22926 131.845L3.864 131.504ZM19.736 131.504L19.3707 131.845L19.736 131.504ZM19.736 171.696L19.3707 171.355L19.736 171.696ZM11.8 174.14C8.44053 174.14 5.94412 173.189 4.22926 171.355L3.49874 172.037C5.45321 174.128 8.24747 175.14 11.8 175.14V174.14ZM4.22926 171.355C2.50679 169.512 1.612 166.877 1.612 163.376H0.612C0.612 167.043 1.55187 169.955 3.49874 172.037L4.22926 171.355ZM1.612 163.376V139.824H0.612V163.376H1.612ZM1.612 139.824C1.612 136.323 2.50679 133.688 4.22926 131.845L3.49874 131.163C1.55187 133.245 0.612 136.157 0.612 139.824H1.612ZM4.22926 131.845C5.94412 130.011 8.44053 129.06 11.8 129.06V128.06C8.24747 128.06 5.45321 129.072 3.49874 131.163L4.22926 131.845ZM11.8 129.06C15.1595 129.06 17.6559 130.011 19.3707 131.845L20.1013 131.163C18.1468 129.072 15.3525 128.06 11.8 128.06V129.06ZM19.3707 131.845C21.0932 133.688 21.988 136.323 21.988 139.824H22.988C22.988 136.157 22.0481 133.245 20.1013 131.163L19.3707 131.845ZM21.988 139.824V163.376H22.988V139.824H21.988ZM21.988 163.376C21.988 166.877 21.0932 169.512 19.3707 171.355L20.1013 172.037C22.0481 169.955 22.988 167.043 22.988 163.376H21.988ZM19.3707 171.355C17.6559 173.189 15.1595 174.14 11.8 174.14V175.14C15.3525 175.14 18.1468 174.128 20.1013 172.037L19.3707 171.355ZM11.8 168.74C13.1209 168.74 14.1935 168.336 14.9215 167.454C15.6343 166.592 15.948 165.352 15.948 163.824H14.948C14.948 165.24 14.6537 166.208 14.1505 166.818C13.6625 167.408 12.9111 167.74 11.8 167.74V168.74ZM15.948 163.824V139.376H14.948V163.824H15.948ZM15.948 139.376C15.948 137.848 15.6343 136.608 14.9215 135.746C14.1935 134.864 13.1209 134.46 11.8 134.46V135.46C12.9111 135.46 13.6625 135.792 14.1505 136.382C14.6537 136.992 14.948 137.96 14.948 139.376H15.948ZM11.8 134.46C10.4791 134.46 9.40648 134.864 8.67852 135.746C7.96567 136.608 7.652 137.848 7.652 139.376H8.652C8.652 137.96 8.94633 136.992 9.44948 136.382C9.93752 135.792 10.6889 135.46 11.8 135.46V134.46ZM7.652 139.376V163.824H8.652V139.376H7.652ZM7.652 163.824C7.652 165.352 7.96567 166.592 8.67852 167.454C9.40648 168.336 10.4791 168.74 11.8 168.74V167.74C10.6889 167.74 9.93752 167.408 9.44948 166.818C8.94633 166.208 8.652 165.24 8.652 163.824H7.652ZM37.169 129.2V128.7H36.669V129.2H37.169ZM55.537 131.76L55.179 132.109L55.1834 132.114L55.537 131.76ZM53.425 151.088L53.2382 150.624L52.925 150.75V151.088H53.425ZM53.425 151.216H52.925V151.588L53.2813 151.695L53.425 151.216ZM57.009 154.352L56.55 154.551L56.5547 154.561L57.009 154.352ZM58.225 171.696L57.7277 171.748L57.7281 171.751L58.225 171.696ZM58.865 174V174.5H59.6344L59.3219 173.797L58.865 174ZM51.697 174L51.2255 174.166L51.3432 174.5H51.697V174ZM50.033 156.016L49.6406 156.326L49.6455 156.332L49.6505 156.338L50.033 156.016ZM44.209 154.8V154.3H43.709V154.8H44.209ZM44.209 174V174.5H44.709V174H44.209ZM37.169 174H36.669V174.5H37.169V174ZM49.905 147.312L49.5514 146.958L49.5461 146.964L49.5409 146.969L49.905 147.312ZM50.097 136.688L49.6998 136.992L49.7053 136.999L49.711 137.006L50.097 136.688ZM44.209 135.6V135.1H43.709V135.6H44.209ZM44.209 148.4H43.709V148.9H44.209V148.4ZM37.169 129.7H47.601V128.7H37.169V129.7ZM47.601 129.7C51.1622 129.7 53.6485 130.539 55.179 132.109L55.895 131.411C54.0975 129.567 51.2931 128.7 47.601 128.7V129.7ZM55.1834 132.114C56.7165 133.647 57.533 136.074 57.533 139.504H58.533C58.533 135.937 57.6855 133.201 55.8906 131.406L55.1834 132.114ZM57.533 139.504V142.256H58.533V139.504H57.533ZM57.533 142.256C57.533 144.531 57.1566 146.343 56.4377 147.721C55.7246 149.087 54.6634 150.05 53.2382 150.624L53.6118 151.552C55.2586 150.889 56.5014 149.761 57.3243 148.183C58.1414 146.617 58.533 144.631 58.533 142.256H57.533ZM52.925 151.088V151.216H53.925V151.088H52.925ZM53.2813 151.695C54.8525 152.166 55.9283 153.113 56.5501 154.55L57.4679 154.154C56.7243 152.434 55.4108 151.29 53.5687 150.737L53.2813 151.695ZM56.5547 154.561C57.2383 156.049 57.597 158.081 57.597 160.688H58.597C58.597 158.005 58.2303 155.813 57.4633 154.143L56.5547 154.561ZM57.597 160.688V168.56H58.597V160.688H57.597ZM57.597 168.56C57.597 169.849 57.6399 170.913 57.7277 171.748L58.7223 171.644C58.6395 170.857 58.597 169.831 58.597 168.56H57.597ZM57.7281 171.751C57.8195 172.575 58.0477 173.392 58.4081 174.203L59.3219 173.797C58.9996 173.072 58.8011 172.353 58.7219 171.641L57.7281 171.751ZM58.865 173.5H51.697V174.5H58.865V173.5ZM52.1685 173.834C51.9219 173.135 51.7606 172.486 51.6806 171.886L50.6894 172.018C50.78 172.698 50.9601 173.415 51.2255 174.166L52.1685 173.834ZM51.6806 171.886C51.6002 171.283 51.557 170.162 51.557 168.496H50.557C50.557 170.158 50.5991 171.341 50.6894 172.018L51.6806 171.886ZM51.557 168.496V160.304H50.557V168.496H51.557ZM51.557 160.304C51.557 158.233 51.2184 156.647 50.4155 155.694L49.6505 156.338C50.213 157.006 50.557 158.279 50.557 160.304H51.557ZM50.4254 155.706C49.647 154.72 48.3275 154.3 46.641 154.3V155.3C48.1972 155.3 49.139 155.691 49.6406 156.326L50.4254 155.706ZM46.641 154.3H44.209V155.3H46.641V154.3ZM43.709 154.8V174H44.709V154.8H43.709ZM44.209 173.5H37.169V174.5H44.209V173.5ZM37.669 174V129.2H36.669V174H37.669ZM46.769 148.9C48.2567 148.9 49.4583 148.516 50.2691 147.655L49.5409 146.969C48.9863 147.559 48.0973 147.9 46.769 147.9V148.9ZM50.2586 147.666C51.1235 146.801 51.493 145.42 51.493 143.664H50.493C50.493 145.321 50.1371 146.373 49.5514 146.958L50.2586 147.666ZM51.493 143.664V140.208H50.493V143.664H51.493ZM51.493 140.208C51.493 138.547 51.1911 137.23 50.483 136.37L49.711 137.006C50.1975 137.597 50.493 138.626 50.493 140.208H51.493ZM50.4942 136.384C49.8139 135.495 48.7427 135.1 47.409 135.1V136.1C48.55 136.1 49.2708 136.431 49.6998 136.992L50.4942 136.384ZM47.409 135.1H44.209V136.1H47.409V135.1ZM43.709 135.6V148.4H44.709V135.6H43.709ZM44.209 148.9H46.769V147.9H44.209V148.9ZM72.9015 129.2V128.7H72.4015V129.2H72.9015ZM79.9415 129.2H80.4415V128.7H79.9415V129.2ZM79.9415 174V174.5H80.4415V174H79.9415ZM72.9015 174H72.4015V174.5H72.9015V174ZM72.9015 129.7H79.9415V128.7H72.9015V129.7ZM79.4415 129.2V174H80.4415V129.2H79.4415ZM79.9415 173.5H72.9015V174.5H79.9415V173.5ZM73.4015 174V129.2H72.4015V174H73.4015ZM97.31 171.76L96.9407 172.097L96.9445 172.101L97.31 171.76ZM97.31 131.504L97.6756 131.845L97.6792 131.841L97.31 131.504ZM112.926 131.504L112.557 131.841L112.56 131.845L112.926 131.504ZM115.614 143.664V144.164H116.114V143.664H115.614ZM108.958 143.664H108.458V144.164H108.958V143.664ZM108.958 155.12H109.458V154.62H108.958V155.12ZM105.438 155.12H104.938V155.62H105.438V155.12ZM105.438 148.72V148.22H104.938V148.72H105.438ZM115.614 148.72H116.114V148.22H115.614V148.72ZM112.926 171.76L113.292 172.101L113.295 172.097L112.926 171.76ZM105.118 174.14C101.799 174.14 99.3468 173.209 97.6755 171.419L96.9445 172.101C98.8573 174.151 101.61 175.14 105.118 175.14V174.14ZM97.6792 171.423C95.9979 169.581 95.122 166.924 95.122 163.376H94.122C94.122 167.081 95.0381 170.013 96.9408 172.097L97.6792 171.423ZM95.122 163.376V139.824H94.122V163.376H95.122ZM95.122 139.824C95.122 136.275 95.9983 133.642 97.6755 131.845L96.9445 131.163C95.0378 133.206 94.122 136.119 94.122 139.824H95.122ZM97.6792 131.841C99.3513 130.01 101.803 129.06 105.118 129.06V128.06C101.607 128.06 98.8528 129.073 96.9408 131.167L97.6792 131.841ZM105.118 129.06C108.433 129.06 110.885 130.01 112.557 131.841L113.295 131.167C111.383 129.073 108.629 128.06 105.118 128.06V129.06ZM112.56 131.845C114.238 133.642 115.114 136.275 115.114 139.824H116.114C116.114 136.119 115.198 133.206 113.292 131.163L112.56 131.845ZM115.114 139.824V143.664H116.114V139.824H115.114ZM115.614 143.164H108.958V144.164H115.614V143.164ZM109.458 143.664V139.376H108.458V143.664H109.458ZM109.458 139.376C109.458 137.848 109.144 136.608 108.431 135.746C107.704 134.864 106.631 134.46 105.31 134.46V135.46C106.421 135.46 107.172 135.792 107.661 136.382C108.164 136.992 108.458 137.96 108.458 139.376H109.458ZM105.31 134.46C103.989 134.46 102.916 134.864 102.189 135.746C101.476 136.608 101.162 137.848 101.162 139.376H102.162C102.162 137.96 102.456 136.992 102.959 136.382C103.448 135.792 104.199 135.46 105.31 135.46V134.46ZM101.162 139.376V163.888H102.162V139.376H101.162ZM101.162 163.888C101.162 165.396 101.476 166.621 102.191 167.473C102.92 168.343 103.991 168.74 105.31 168.74V167.74C104.197 167.74 103.444 167.412 102.957 166.831C102.456 166.233 102.162 165.281 102.162 163.888H101.162ZM105.31 168.74C106.629 168.74 107.7 168.343 108.429 167.473C109.144 166.621 109.458 165.396 109.458 163.888H108.458C108.458 165.281 108.164 166.233 107.663 166.831C107.176 167.412 106.423 167.74 105.31 167.74V168.74ZM109.458 163.888V155.12H108.458V163.888H109.458ZM108.958 154.62H105.438V155.62H108.958V154.62ZM105.938 155.12V148.72H104.938V155.12H105.938ZM105.438 149.22H115.614V148.22H105.438V149.22ZM115.114 148.72V163.376H116.114V148.72H115.114ZM115.114 163.376C115.114 166.924 114.238 169.581 112.557 171.423L113.295 172.097C115.198 170.013 116.114 167.081 116.114 163.376H115.114ZM112.56 171.419C110.889 173.209 108.437 174.14 105.118 174.14V175.14C108.626 175.14 111.379 174.151 113.292 172.101L112.56 171.419ZM135.494 129.2V128.7H135.069L135 129.12L135.494 129.2ZM145.03 129.2L145.523 129.12L145.455 128.7H145.03V129.2ZM152.326 174V174.5H152.914L152.819 173.92L152.326 174ZM145.286 174L144.791 174.071L144.853 174.5H145.286V174ZM144.006 165.104L144.501 165.033L143.506 165.104H144.006ZM144.006 165.232V165.732H144.506V165.232H144.006ZM136.006 165.232V164.732H135.574L135.511 165.16L136.006 165.232ZM134.726 174V174.5H135.158L135.221 174.072L134.726 174ZM128.198 174L127.704 173.92L127.61 174.5H128.198V174ZM143.174 159.152V159.652H143.75L143.669 159.082L143.174 159.152ZM140.038 137.008L140.533 136.938L140.472 136.508H140.038V137.008ZM139.91 137.008V136.508H139.475L139.415 136.939L139.91 137.008ZM136.838 159.152L136.343 159.083L136.264 159.652H136.838V159.152ZM135.494 129.7H145.03V128.7H135.494V129.7ZM144.536 129.28L151.832 174.08L152.819 173.92L145.523 129.12L144.536 129.28ZM152.326 173.5H145.286V174.5H152.326V173.5ZM145.781 173.929L144.501 165.033L143.511 165.175L144.791 174.071L145.781 173.929ZM143.506 165.104V165.232H144.506V165.104H143.506ZM144.006 164.732H136.006V165.732H144.006V164.732ZM135.511 165.16L134.231 173.928L135.221 174.072L136.501 165.304L135.511 165.16ZM134.726 173.5H128.198V174.5H134.726V173.5ZM128.691 174.08L135.987 129.28L135 129.12L127.704 173.92L128.691 174.08ZM143.669 159.082L140.533 136.938L139.543 137.078L142.679 159.222L143.669 159.082ZM140.038 136.508H139.91V137.508H140.038V136.508ZM139.415 136.939L136.343 159.083L137.333 159.221L140.405 137.077L139.415 136.939ZM136.838 159.652H143.174V158.652H136.838V159.652ZM165.661 129.2V128.7H165.161V129.2H165.661ZM175.71 129.2L176.205 129.131L176.145 128.7H175.71V129.2ZM180.19 161.264L179.694 161.333L179.755 161.764H180.19V161.264ZM180.318 161.264V161.764H180.753L180.813 161.333L180.318 161.264ZM184.798 129.2V128.7H184.363L184.302 129.131L184.798 129.2ZM194.846 129.2H195.346V128.7H194.846V129.2ZM194.846 174V174.5H195.346V174H194.846ZM188.19 174H187.69V174.5H188.19V174ZM188.19 140.08H188.69V139.58H188.19V140.08ZM188.062 140.08V139.58H187.631L187.567 140.005L188.062 140.08ZM182.942 174V174.5H183.372L183.436 174.075L182.942 174ZM177.054 174L176.559 174.075L176.623 174.5H177.054V174ZM171.934 140.08L172.428 140.005L172.364 139.58H171.934V140.08ZM171.806 140.08V139.58H171.306V140.08H171.806ZM171.806 174V174.5H172.306V174H171.806ZM165.661 174H165.161V174.5H165.661V174ZM165.661 129.7H175.71V128.7H165.661V129.7ZM175.214 129.269L179.694 161.333L180.685 161.195L176.205 129.131L175.214 129.269ZM180.19 161.764H180.318V160.764H180.19V161.764ZM180.813 161.333L185.293 129.269L184.302 129.131L179.822 161.195L180.813 161.333ZM184.798 129.7H194.846V128.7H184.798V129.7ZM194.346 129.2V174H195.346V129.2H194.346ZM194.846 173.5H188.19V174.5H194.846V173.5ZM188.69 174V140.08H187.69V174H188.69ZM188.19 139.58H188.062V140.58H188.19V139.58ZM187.567 140.005L182.447 173.925L183.436 174.075L188.556 140.155L187.567 140.005ZM182.942 173.5H177.054V174.5H182.942V173.5ZM177.548 173.925L172.428 140.005L171.439 140.155L176.559 174.075L177.548 173.925ZM171.934 139.58H171.806V140.58H171.934V139.58ZM171.306 140.08V174H172.306V140.08H171.306ZM171.806 173.5H165.661V174.5H171.806V173.5ZM166.161 174V129.2H165.161V174H166.161ZM210.019 129.2V128.7H209.519V129.2H210.019ZM217.059 129.2H217.559V128.7H217.059V129.2ZM217.059 174V174.5H217.559V174H217.059ZM210.019 174H209.519V174.5H210.019V174ZM210.019 129.7H217.059V128.7H210.019V129.7ZM216.559 129.2V174H217.559V129.2H216.559ZM217.059 173.5H210.019V174.5H217.059V173.5ZM210.519 174V129.2H209.519V174H210.519ZM252.421 129.2V128.7H251.921V129.2H252.421ZM270.661 132.016L270.296 132.357L270.661 132.016ZM270.661 152.944L270.296 152.603L270.661 152.944ZM259.461 155.76V155.26H258.961V155.76H259.461ZM259.461 174V174.5H259.961V174H259.461ZM252.421 174H251.921V174.5H252.421V174ZM265.349 148.4L264.984 148.059L264.978 148.066L264.972 148.073L265.349 148.4ZM265.349 136.56L264.972 136.887L264.978 136.894L264.984 136.901L265.349 136.56ZM259.461 135.6V135.1H258.961V135.6H259.461ZM259.461 149.36H258.961V149.86H259.461V149.36ZM252.421 129.7H262.789V128.7H252.421V129.7ZM262.789 129.7C266.202 129.7 268.671 130.614 270.296 132.357L271.027 131.675C269.153 129.664 266.375 128.7 262.789 128.7V129.7ZM270.296 132.357C271.929 134.109 272.785 136.72 272.785 140.272H273.785C273.785 136.571 272.893 133.677 271.027 131.675L270.296 132.357ZM272.785 140.272V144.688H273.785V140.272H272.785ZM272.785 144.688C272.785 148.24 271.929 150.851 270.296 152.603L271.027 153.285C272.893 151.283 273.785 148.389 273.785 144.688H272.785ZM270.296 152.603C268.671 154.346 266.202 155.26 262.789 155.26V156.26C266.375 156.26 269.153 155.296 271.027 153.285L270.296 152.603ZM262.789 155.26H259.461V156.26H262.789V155.26ZM258.961 155.76V174H259.961V155.76H258.961ZM259.461 173.5H252.421V174.5H259.461V173.5ZM252.921 174V129.2H251.921V174H252.921ZM262.789 149.86C264.032 149.86 265.047 149.513 265.727 148.727L264.972 148.073C264.543 148.567 263.851 148.86 262.789 148.86V149.86ZM265.715 148.741C266.444 147.96 266.746 146.711 266.746 145.136H265.746C265.746 146.633 265.45 147.56 264.984 148.059L265.715 148.741ZM266.746 145.136V139.824H265.746V145.136H266.746ZM266.746 139.824C266.746 138.249 266.444 137 265.715 136.219L264.984 136.901C265.45 137.4 265.746 138.327 265.746 139.824H266.746ZM265.727 136.233C265.047 135.447 264.032 135.1 262.789 135.1V136.1C263.851 136.1 264.543 136.393 264.972 136.887L265.727 136.233ZM262.789 135.1H259.461V136.1H262.789V135.1ZM258.961 135.6V149.36H259.961V135.6H258.961ZM259.461 149.86H262.789V148.86H259.461V149.86ZM287.029 129.2V128.7H286.529V129.2H287.029ZM294.069 129.2H294.569V128.7H294.069V129.2ZM294.069 167.6H293.569V168.1H294.069V167.6ZM305.653 167.6H306.153V167.1H305.653V167.6ZM305.653 174V174.5H306.153V174H305.653ZM287.029 174H286.529V174.5H287.029V174ZM287.029 129.7H294.069V128.7H287.029V129.7ZM293.569 129.2V167.6H294.569V129.2H293.569ZM294.069 168.1H305.653V167.1H294.069V168.1ZM305.153 167.6V174H306.153V167.6H305.153ZM305.653 173.5H287.029V174.5H305.653V173.5ZM287.529 174V129.2H286.529V174H287.529ZM324.639 129.2V128.7H324.214L324.146 129.12L324.639 129.2ZM334.175 129.2L334.669 129.12L334.6 128.7H334.175V129.2ZM341.471 174V174.5H342.059L341.965 173.92L341.471 174ZM334.431 174L333.936 174.071L333.998 174.5H334.431V174ZM333.151 165.104L333.646 165.033L332.651 165.104H333.151ZM333.151 165.232V165.732H333.651V165.232H333.151ZM325.151 165.232V164.732H324.719L324.656 165.16L325.151 165.232ZM323.871 174V174.5H324.303L324.366 174.072L323.871 174ZM317.343 174L316.85 173.92L316.755 174.5H317.343V174ZM332.319 159.152V159.652H332.895L332.814 159.082L332.319 159.152ZM329.183 137.008L329.678 136.938L329.617 136.508H329.183V137.008ZM329.055 137.008V136.508H328.62L328.56 136.939L329.055 137.008ZM325.983 159.152L325.488 159.083L325.409 159.652H325.983V159.152ZM324.639 129.7H334.175V128.7H324.639V129.7ZM333.682 129.28L340.978 174.08L341.965 173.92L334.669 129.12L333.682 129.28ZM341.471 173.5H334.431V174.5H341.471V173.5ZM334.926 173.929L333.646 165.033L332.656 165.175L333.936 174.071L334.926 173.929ZM332.651 165.104V165.232H333.651V165.104H332.651ZM333.151 164.732H325.151V165.732H333.151V164.732ZM324.656 165.16L323.376 173.928L324.366 174.072L325.646 165.304L324.656 165.16ZM323.871 173.5H317.343V174.5H323.871V173.5ZM317.837 174.08L325.133 129.28L324.146 129.12L316.85 173.92L317.837 174.08ZM332.814 159.082L329.678 136.938L328.688 137.078L331.824 159.222L332.814 159.082ZM329.183 136.508H329.055V137.508H329.183V136.508ZM328.56 136.939L325.488 159.083L326.478 159.221L329.55 137.077L328.56 136.939ZM325.983 159.652H332.319V158.652H325.983V159.652ZM354.806 129.2V128.7H354.306V129.2H354.806ZM363.638 129.2L364.123 129.076L364.027 128.7H363.638V129.2ZM370.487 156.016L370.002 156.14L370.098 156.516H370.487V156.016ZM370.615 156.016V156.516H371.115V156.016H370.615ZM370.615 129.2V128.7H370.115V129.2H370.615ZM376.887 129.2H377.387V128.7H376.887V129.2ZM376.887 174V174.5H377.387V174H376.887ZM369.654 174L369.17 174.125L369.267 174.5H369.654V174ZM361.206 141.296L361.691 141.171L361.594 140.796H361.206V141.296ZM361.078 141.296V140.796H360.578V141.296H361.078ZM361.078 174V174.5H361.578V174H361.078ZM354.806 174H354.306V174.5H354.806V174ZM354.806 129.7H363.638V128.7H354.806V129.7ZM363.154 129.324L370.002 156.14L370.971 155.892L364.123 129.076L363.154 129.324ZM370.487 156.516H370.615V155.516H370.487V156.516ZM371.115 156.016V129.2H370.115V156.016H371.115ZM370.615 129.7H376.887V128.7H370.615V129.7ZM376.387 129.2V174H377.387V129.2H376.387ZM376.887 173.5H369.654V174.5H376.887V173.5ZM370.139 173.875L361.691 141.171L360.722 141.421L369.17 174.125L370.139 173.875ZM361.206 140.796H361.078V141.796H361.206V140.796ZM360.578 141.296V174H361.578V141.296H360.578ZM361.078 173.5H354.806V174.5H361.078V173.5ZM355.306 174V129.2H354.306V174H355.306ZM397.543 135.6H398.043V135.1H397.543V135.6ZM390.183 135.6H389.683V136.1H390.183V135.6ZM390.183 129.2V128.7H389.683V129.2H390.183ZM411.943 129.2H412.443V128.7H411.943V129.2ZM411.943 135.6V136.1H412.443V135.6H411.943ZM404.583 135.6V135.1H404.083V135.6H404.583ZM404.583 174V174.5H405.083V174H404.583ZM397.543 174H397.043V174.5H397.543V174ZM397.543 135.1H390.183V136.1H397.543V135.1ZM390.683 135.6V129.2H389.683V135.6H390.683ZM390.183 129.7H411.943V128.7H390.183V129.7ZM411.443 129.2V135.6H412.443V129.2H411.443ZM411.943 135.1H404.583V136.1H411.943V135.1ZM404.083 135.6V174H405.083V135.6H404.083ZM404.583 173.5H397.543V174.5H404.583V173.5ZM398.043 174V135.6H397.043V174H398.043ZM1.624 193.2V192.7H1.124V193.2H1.624ZM19.864 196.016L19.4982 196.357L19.864 196.016ZM19.864 216.944L19.4982 216.603L19.864 216.944ZM8.664 219.76V219.26H8.164V219.76H8.664ZM8.664 238V238.5H9.164V238H8.664ZM1.624 238H1.124V238.5H1.624V238ZM14.552 212.4L14.1865 212.059L14.1802 212.066L14.1742 212.073L14.552 212.4ZM14.552 200.56L14.1742 200.887L14.1802 200.894L14.1865 200.901L14.552 200.56ZM8.664 199.6V199.1H8.164V199.6H8.664ZM8.664 213.36H8.164V213.86H8.664V213.36ZM1.624 193.7H11.992V192.7H1.624V193.7ZM11.992 193.7C15.4042 193.7 17.874 194.614 19.4982 196.357L20.2298 195.675C18.3554 193.664 15.5771 192.7 11.992 192.7V193.7ZM19.4982 196.357C21.1312 198.109 21.988 200.72 21.988 204.272H22.988C22.988 200.571 22.0954 197.677 20.2298 195.675L19.4982 196.357ZM21.988 204.272V208.688H22.988V204.272H21.988ZM21.988 208.688C21.988 212.24 21.1312 214.851 19.4982 216.603L20.2298 217.285C22.0954 215.283 22.988 212.389 22.988 208.688H21.988ZM19.4982 216.603C17.874 218.346 15.4042 219.26 11.992 219.26V220.26C15.5771 220.26 18.3554 219.296 20.2298 217.285L19.4982 216.603ZM11.992 219.26H8.664V220.26H11.992V219.26ZM8.164 219.76V238H9.164V219.76H8.164ZM8.664 237.5H1.624V238.5H8.664V237.5ZM2.124 238V193.2H1.124V238H2.124ZM11.992 213.86C13.2342 213.86 14.2494 213.513 14.9298 212.727L14.1742 212.073C13.7453 212.567 13.0538 212.86 11.992 212.86V213.86ZM14.9175 212.741C15.6466 211.96 15.948 210.711 15.948 209.136H14.948C14.948 210.633 14.6521 211.56 14.1865 212.059L14.9175 212.741ZM15.948 209.136V203.824H14.948V209.136H15.948ZM15.948 203.824C15.948 202.249 15.6466 201 14.9175 200.219L14.1865 200.901C14.6521 201.4 14.948 202.327 14.948 203.824H15.948ZM14.9298 200.233C14.2494 199.447 13.2342 199.1 11.992 199.1V200.1C13.0538 200.1 13.7453 200.393 14.1742 200.887L14.9298 200.233ZM11.992 199.1H8.664V200.1H11.992V199.1ZM8.164 199.6V213.36H9.164V199.6H8.164ZM8.664 213.86H11.992V212.86H8.664V213.86ZM38.4715 235.696L38.8368 235.355L38.4715 235.696ZM38.4715 195.504L38.8368 195.845L38.4715 195.504ZM54.3435 195.504L53.9782 195.845L54.3435 195.504ZM54.3435 235.696L53.9782 235.355L54.3435 235.696ZM46.4075 238.14C43.048 238.14 40.5516 237.189 38.8368 235.355L38.1062 236.037C40.0607 238.128 42.855 239.14 46.4075 239.14V238.14ZM38.8368 235.355C37.1143 233.512 36.2195 230.877 36.2195 227.376H35.2195C35.2195 231.043 36.1594 233.955 38.1062 236.037L38.8368 235.355ZM36.2195 227.376V203.824H35.2195V227.376H36.2195ZM36.2195 203.824C36.2195 200.323 37.1143 197.688 38.8368 195.845L38.1062 195.163C36.1594 197.245 35.2195 200.157 35.2195 203.824H36.2195ZM38.8368 195.845C40.5516 194.011 43.048 193.06 46.4075 193.06V192.06C42.855 192.06 40.0607 193.072 38.1062 195.163L38.8368 195.845ZM46.4075 193.06C49.767 193.06 52.2634 194.011 53.9782 195.845L54.7088 195.163C52.7543 193.072 49.96 192.06 46.4075 192.06V193.06ZM53.9782 195.845C55.7007 197.688 56.5955 200.323 56.5955 203.824H57.5955C57.5955 200.157 56.6556 197.245 54.7088 195.163L53.9782 195.845ZM56.5955 203.824V227.376H57.5955V203.824H56.5955ZM56.5955 227.376C56.5955 230.877 55.7007 233.512 53.9782 235.355L54.7088 236.037C56.6556 233.955 57.5955 231.043 57.5955 227.376H56.5955ZM53.9782 235.355C52.2634 237.189 49.767 238.14 46.4075 238.14V239.14C49.96 239.14 52.7543 238.128 54.7088 236.037L53.9782 235.355ZM46.4075 232.74C47.7284 232.74 48.801 232.336 49.529 231.454C50.2418 230.592 50.5555 229.352 50.5555 227.824H49.5555C49.5555 229.24 49.2612 230.208 48.758 230.818C48.27 231.408 47.5186 231.74 46.4075 231.74V232.74ZM50.5555 227.824V203.376H49.5555V227.824H50.5555ZM50.5555 203.376C50.5555 201.848 50.2418 200.608 49.529 199.746C48.801 198.864 47.7284 198.46 46.4075 198.46V199.46C47.5186 199.46 48.27 199.792 48.758 200.382C49.2612 200.992 49.5555 201.96 49.5555 203.376H50.5555ZM46.4075 198.46C45.0866 198.46 44.014 198.864 43.286 199.746C42.5732 200.608 42.2595 201.848 42.2595 203.376H43.2595C43.2595 201.96 43.5538 200.992 44.057 200.382C44.545 199.792 45.2964 199.46 46.4075 199.46V198.46ZM42.2595 203.376V227.824H43.2595V203.376H42.2595ZM42.2595 227.824C42.2595 229.352 42.5732 230.592 43.286 231.454C44.014 232.336 45.0866 232.74 46.4075 232.74V231.74C45.2964 231.74 44.545 231.408 44.057 230.818C43.5538 230.208 43.2595 229.24 43.2595 227.824H42.2595ZM77.0305 199.6H77.5305V199.1H77.0305V199.6ZM69.6705 199.6H69.1705V200.1H69.6705V199.6ZM69.6705 193.2V192.7H69.1705V193.2H69.6705ZM91.4305 193.2H91.9305V192.7H91.4305V193.2ZM91.4305 199.6V200.1H91.9305V199.6H91.4305ZM84.0705 199.6V199.1H83.5705V199.6H84.0705ZM84.0705 238V238.5H84.5705V238H84.0705ZM77.0305 238H76.5305V238.5H77.0305V238ZM77.0305 199.1H69.6705V200.1H77.0305V199.1ZM70.1705 199.6V193.2H69.1705V199.6H70.1705ZM69.6705 193.7H91.4305V192.7H69.6705V193.7ZM90.9305 193.2V199.6H91.9305V193.2H90.9305ZM91.4305 199.1H84.0705V200.1H91.4305V199.1ZM83.5705 199.6V238H84.5705V199.6H83.5705ZM84.0705 237.5H77.0305V238.5H84.0705V237.5ZM77.5305 238V199.6H76.5305V238H77.5305ZM106.167 235.76L105.794 236.093L105.797 236.097L106.167 235.76ZM103.543 224.816V224.316H103.043V224.816H103.543ZM110.199 224.816H110.699V224.316H110.199V224.816ZM116.535 231.216L116.16 230.885L116.159 230.887L116.535 231.216ZM116.215 222.832L115.784 223.086L115.787 223.091L116.215 222.832ZM111.479 217.648L111.148 218.023L111.151 218.025L111.479 217.648ZM105.399 210.736L104.961 210.977L104.963 210.981L105.399 210.736ZM106.359 195.504L106.725 195.845L106.728 195.841L106.359 195.504ZM121.783 195.504L121.406 195.832L121.413 195.841L121.783 195.504ZM124.407 205.68V206.18H124.907V205.68H124.407ZM117.751 205.68H117.251V206.18H117.751V205.68ZM116.855 200.048L116.469 200.366L116.474 200.372L116.479 200.377L116.855 200.048ZM111.991 207.792L111.563 208.051L111.569 208.06L111.991 207.792ZM116.791 212.912L116.463 213.289L116.463 213.289L116.791 212.912ZM122.871 219.888L122.429 220.122L122.871 219.888ZM121.783 235.696L121.418 235.355L121.414 235.359L121.783 235.696ZM113.911 238.14C110.592 238.14 108.164 237.209 106.537 235.423L105.797 236.097C107.669 238.151 110.404 239.14 113.911 239.14V238.14ZM106.54 235.427C104.899 233.586 104.043 230.927 104.043 227.376H103.043C103.043 231.079 103.936 234.009 105.794 236.093L106.54 235.427ZM104.043 227.376V224.816H103.043V227.376H104.043ZM103.543 225.316H110.199V224.316H103.543V225.316ZM109.699 224.816V227.888H110.699V224.816H109.699ZM109.699 227.888C109.699 229.396 110.013 230.621 110.728 231.473C111.457 232.343 112.528 232.74 113.847 232.74V231.74C112.734 231.74 111.981 231.412 111.494 230.831C110.993 230.233 110.699 229.281 110.699 227.888H109.699ZM113.847 232.74C115.137 232.74 116.191 232.368 116.911 231.545L116.159 230.887C115.684 231.429 114.946 231.74 113.847 231.74V232.74ZM116.91 231.547C117.668 230.688 117.995 229.388 117.995 227.76H116.995C116.995 229.289 116.682 230.294 116.16 230.885L116.91 231.547ZM117.995 227.76C117.995 225.804 117.55 224.069 116.643 222.573L115.787 223.091C116.587 224.411 116.995 225.961 116.995 227.76H117.995ZM116.646 222.578C115.752 221.058 114.124 219.288 111.807 217.271L111.151 218.025C113.442 220.019 114.972 221.705 115.784 223.086L116.646 222.578ZM111.81 217.273C108.927 214.729 106.947 212.469 105.835 210.491L104.963 210.981C106.155 213.099 108.228 215.447 111.148 218.023L111.81 217.273ZM105.837 210.495C104.729 208.484 104.171 206.222 104.171 203.696H103.171C103.171 206.375 103.765 208.806 104.961 210.977L105.837 210.495ZM104.171 203.696C104.171 200.236 105.045 197.644 106.725 195.845L105.993 195.163C104.089 197.204 103.171 200.073 103.171 203.696H104.171ZM106.728 195.841C108.4 194.01 110.852 193.06 114.167 193.06V192.06C110.656 192.06 107.902 193.073 105.99 195.167L106.728 195.841ZM114.167 193.06C117.439 193.06 119.82 194.009 121.406 195.832L122.16 195.176C120.332 193.074 117.637 192.06 114.167 192.06V193.06ZM121.413 195.841C123.051 197.638 123.907 200.272 123.907 203.824H124.907C124.907 200.122 124.014 197.21 122.153 195.167L121.413 195.841ZM123.907 203.824V205.68H124.907V203.824H123.907ZM124.407 205.18H117.751V206.18H124.407V205.18ZM118.251 205.68V203.376H117.251V205.68H118.251ZM118.251 203.376C118.251 201.796 117.948 200.538 117.231 199.719L116.479 200.377C116.957 200.924 117.251 201.884 117.251 203.376H118.251ZM117.241 199.73C116.527 198.864 115.495 198.46 114.231 198.46V199.46C115.271 199.46 115.988 199.782 116.469 200.366L117.241 199.73ZM114.231 198.46C112.952 198.46 111.911 198.854 111.205 199.715C110.514 200.556 110.211 201.763 110.211 203.248H111.211C111.211 201.874 111.495 200.937 111.977 200.349C112.445 199.78 113.164 199.46 114.231 199.46V198.46ZM110.211 203.248C110.211 204.962 110.663 206.566 111.563 208.051L112.419 207.533C111.612 206.202 111.211 204.776 111.211 203.248H110.211ZM111.569 208.06C112.504 209.53 114.147 211.274 116.463 213.289L117.119 212.535C114.827 210.54 113.27 208.87 112.413 207.524L111.569 208.06ZM116.463 213.289C119.387 215.832 121.361 218.11 122.429 220.122L123.313 219.654C122.162 217.485 120.083 215.112 117.119 212.535L116.463 213.289ZM122.429 220.122C123.494 222.128 124.035 224.498 124.035 227.248H125.035C125.035 224.366 124.467 221.829 123.313 219.654L122.429 220.122ZM124.035 227.248C124.035 230.838 123.138 233.514 121.418 235.355L122.148 236.037C124.097 233.953 125.035 230.997 125.035 227.248H124.035ZM121.414 235.359C119.743 237.189 117.271 238.14 113.911 238.14V239.14C117.463 239.14 120.239 238.128 122.152 236.033L121.414 235.359Z" fill="#03839E"/>
</svg>
