<svg width="33" height="47" viewBox="0 0 33 47" fill="none" xmlns="http://www.w3.org/2000/svg">
<path d="M19.3215 41.262C19.3215 39.462 19.6095 37.926 20.1855 36.654C20.7615 35.358 21.7935 33.93 23.2815 32.37C24.7455 30.81 25.7535 29.478 26.3055 28.374C26.8815 27.27 27.1695 26.118 27.1695 24.918C27.1695 23.838 26.9895 23.094 26.6295 22.686C26.2935 22.254 25.7895 22.038 25.1175 22.038C23.7495 22.038 23.0655 22.866 23.0655 24.522V27.222H19.3215V24.774C19.3215 22.734 19.8255 21.174 20.8335 20.094C21.8415 18.99 23.3055 18.438 25.2255 18.438C27.1455 18.438 28.6095 18.99 29.6175 20.094C30.6255 21.174 31.1295 22.734 31.1295 24.774C31.1295 26.31 30.7575 27.81 30.0135 29.274C29.2935 30.738 28.0335 32.418 26.2335 34.314C25.0575 35.562 24.2655 36.582 23.8575 37.374C23.4495 38.142 23.2455 38.97 23.2455 39.858V40.398H30.7695V43.998H19.3215V41.262Z" fill="black"/>
<rect x="17.3403" y="1.99805" width="1" height="46.2894" transform="rotate(22 17.3403 1.99805)" fill="#333333"/>
</svg>
