<svg width="33" height="47" viewBox="0 0 33 47" fill="none" xmlns="http://www.w3.org/2000/svg">
<path d="M25.0095 44.358C23.0655 44.358 21.5895 43.818 20.5815 42.738C19.5975 41.658 19.1055 40.11 19.1055 38.094V36.042H22.8495V38.274C22.8495 39.93 23.5335 40.758 24.9015 40.758C25.5735 40.758 26.0775 40.554 26.4135 40.146C26.7735 39.714 26.9535 38.97 26.9535 37.914V35.862C26.9535 34.71 26.7495 33.894 26.3415 33.414C25.9335 32.91 25.2735 32.658 24.3615 32.658H23.0295V29.058H24.4695C25.2615 29.058 25.8495 28.854 26.2335 28.446C26.6415 28.038 26.8455 27.354 26.8455 26.394V24.558C26.8455 23.694 26.6655 23.058 26.3055 22.65C25.9455 22.242 25.4655 22.038 24.8655 22.038C23.5935 22.038 22.9575 22.818 22.9575 24.378V26.034H19.2135V24.702C19.2135 22.686 19.7055 21.138 20.6895 20.058C21.6975 18.978 23.1375 18.438 25.0095 18.438C26.9055 18.438 28.3455 18.978 29.3295 20.058C30.3135 21.114 30.8055 22.65 30.8055 24.666V25.566C30.8055 26.934 30.5775 28.038 30.1215 28.878C29.6655 29.694 28.9575 30.282 27.9975 30.642V30.714C29.0295 31.098 29.7735 31.722 30.2295 32.586C30.6855 33.45 30.9135 34.554 30.9135 35.898V38.13C30.9135 40.146 30.4095 41.694 29.4015 42.774C28.4175 43.83 26.9535 44.358 25.0095 44.358Z" fill="black"/>
<rect x="17.3403" y="1.99805" width="1" height="46.2894" transform="rotate(22 17.3403 1.99805)" fill="#333333"/>
</svg>
