<svg width="33" height="46" viewBox="0 0 33 46" fill="none" xmlns="http://www.w3.org/2000/svg">
<path d="M19.3215 40.262C19.3215 38.462 19.6095 36.926 20.1855 35.654C20.7615 34.358 21.7935 32.93 23.2815 31.37C24.7455 29.81 25.7535 28.478 26.3055 27.374C26.8815 26.27 27.1695 25.118 27.1695 23.918C27.1695 22.838 26.9895 22.094 26.6295 21.686C26.2935 21.254 25.7895 21.038 25.1175 21.038C23.7495 21.038 23.0655 21.866 23.0655 23.522V26.222H19.3215V23.774C19.3215 21.734 19.8255 20.174 20.8335 19.094C21.8415 17.99 23.3055 17.438 25.2255 17.438C27.1455 17.438 28.6095 17.99 29.6175 19.094C30.6255 20.174 31.1295 21.734 31.1295 23.774C31.1295 25.31 30.7575 26.81 30.0135 28.274C29.2935 29.738 28.0335 31.418 26.2335 33.314C25.0575 34.562 24.2655 35.582 23.8575 36.374C23.4495 37.142 23.2455 37.97 23.2455 38.858V39.398H30.7695V42.998H19.3215V40.262Z" fill="black"/>
<rect x="17.3403" y="0.998047" width="1" height="46.2894" transform="rotate(22 17.3403 0.998047)" fill="#333333"/>
</svg>
