<svg width="33" height="44" viewBox="0 0 33 44" fill="none" xmlns="http://www.w3.org/2000/svg">
<path d="M20.2861 39.2639C20.2861 37.4639 20.5741 35.9279 21.1501 34.6559C21.7261 33.3599 22.7581 31.9319 24.2461 30.3719C25.7101 28.8119 26.7181 27.4799 27.2701 26.3759C27.8461 25.2719 28.1341 24.1199 28.1341 22.9199C28.1341 21.8399 27.9541 21.0959 27.5941 20.6879C27.2581 20.2559 26.7541 20.0399 26.0821 20.0399C24.7141 20.0399 24.0301 20.8679 24.0301 22.5239V25.2239H20.2861V22.7759C20.2861 20.7359 20.7901 19.1759 21.7981 18.0959C22.8061 16.9919 24.2701 16.4399 26.1901 16.4399C28.1101 16.4399 29.5741 16.9919 30.5821 18.0959C31.5901 19.1759 32.0941 20.7359 32.0941 22.7759C32.0941 24.3119 31.7221 25.8119 30.9781 27.2759C30.2581 28.7399 28.9981 30.4199 27.1981 32.3159C26.0221 33.5639 25.2301 34.5839 24.8221 35.3759C24.4141 36.1439 24.2101 36.9719 24.2101 37.8599V38.3999H31.7341V41.9999H20.2861V39.2639Z" fill="black"/>
<path d="M18.3052 0L19.2324 0.374607L1.89203 43.2934L0.96485 42.9188L18.3052 0Z" fill="#333333"/>
</svg>
