<svg width="116" height="20" viewBox="0 0 116 20" fill="none" xmlns="http://www.w3.org/2000/svg">
<path d="M115.253 11.3536C115.448 11.1583 115.448 10.8417 115.253 10.6464L112.071 7.46447C111.876 7.2692 111.559 7.2692 111.364 7.46447C111.168 7.65973 111.168 7.97631 111.364 8.17157L114.192 11L111.364 13.8284C111.168 14.0237 111.168 14.3403 111.364 14.5355C111.559 14.7308 111.876 14.7308 112.071 14.5355L115.253 11.3536ZM87.5884 11.5H114.899V10.5H87.5884V11.5Z" fill="#F8F8F8"/>
<path d="M4.82736 15.21C4.10403 15.21 3.45069 15.0863 2.86736 14.839C2.28869 14.587 1.81036 14.23 1.43236 13.768C1.05903 13.3013 0.816359 12.7483 0.704359 12.109L2.23036 11.878C2.38436 12.494 2.70636 12.9747 3.19636 13.32C3.68636 13.6607 4.25803 13.831 4.91136 13.831C5.31736 13.831 5.69069 13.768 6.03136 13.642C6.37203 13.5113 6.64503 13.327 6.85036 13.089C7.06036 12.8463 7.16536 12.557 7.16536 12.221C7.16536 12.039 7.13269 11.878 7.06736 11.738C7.00669 11.598 6.92036 11.4767 6.80836 11.374C6.70103 11.2667 6.56803 11.1757 6.40936 11.101C6.25536 11.0217 6.08503 10.954 5.89836 10.898L3.31536 10.135C3.06336 10.0603 2.80669 9.96467 2.54536 9.848C2.28403 9.72667 2.04369 9.57033 1.82436 9.379C1.60969 9.183 1.43469 8.94267 1.29936 8.658C1.16403 8.36867 1.09636 8.01867 1.09636 7.608C1.09636 6.98733 1.25503 6.46233 1.57236 6.033C1.89436 5.599 2.32836 5.27233 2.87436 5.053C3.42036 4.829 4.03169 4.717 4.70836 4.717C5.38969 4.72633 5.99869 4.84767 6.53536 5.081C7.07669 5.31433 7.52469 5.65033 7.87936 6.089C8.23869 6.523 8.48603 7.05033 8.62136 7.671L7.05336 7.937C6.98336 7.559 6.83403 7.23467 6.60536 6.964C6.37669 6.68867 6.09669 6.47867 5.76536 6.334C5.43403 6.18467 5.07469 6.10767 4.68736 6.103C4.31403 6.09367 3.97103 6.14967 3.65836 6.271C3.35036 6.39233 3.10303 6.56267 2.91636 6.782C2.73436 7.00133 2.64336 7.25333 2.64336 7.538C2.64336 7.818 2.72503 8.04433 2.88836 8.217C3.05169 8.38967 3.25236 8.52733 3.49036 8.63C3.73303 8.728 3.97336 8.80967 4.21136 8.875L6.07336 9.4C6.30669 9.46533 6.57036 9.554 6.86436 9.666C7.16303 9.77333 7.45003 9.925 7.72536 10.121C8.00536 10.317 8.23636 10.5783 8.41836 10.905C8.60036 11.227 8.69136 11.633 8.69136 12.123C8.69136 12.6317 8.58869 13.0797 8.38336 13.467C8.17803 13.8497 7.89569 14.1717 7.53636 14.433C7.18169 14.6897 6.77103 14.8833 6.30436 15.014C5.83769 15.1447 5.34536 15.21 4.82736 15.21ZM14.2011 15.21C13.4125 15.21 12.7148 15.049 12.1081 14.727C11.5061 14.4003 11.0348 13.9453 10.6941 13.362C10.3535 12.774 10.1831 12.0833 10.1831 11.29V4.927L11.6671 4.92V11.213C11.6671 11.6423 11.7395 12.0203 11.8841 12.347C12.0288 12.6737 12.2225 12.9467 12.4651 13.166C12.7078 13.3853 12.9785 13.551 13.2771 13.663C13.5805 13.775 13.8885 13.831 14.2011 13.831C14.5185 13.831 14.8265 13.775 15.1251 13.663C15.4285 13.5463 15.7015 13.3783 15.9441 13.159C16.1868 12.9397 16.3781 12.6667 16.5181 12.34C16.6628 12.0133 16.7351 11.6377 16.7351 11.213V4.92H18.2191V11.29C18.2191 12.0787 18.0488 12.767 17.7081 13.355C17.3675 13.943 16.8938 14.4003 16.2871 14.727C15.6851 15.049 14.9898 15.21 14.2011 15.21ZM20.1773 15V4.92H24.1393C24.7786 4.92 25.3153 5.05067 25.7493 5.312C26.1833 5.57333 26.5099 5.91167 26.7293 6.327C26.9486 6.73767 27.0583 7.17167 27.0583 7.629C27.0583 8.18433 26.9206 8.66033 26.6453 9.057C26.3746 9.45367 26.0083 9.72433 25.5463 9.869L25.5323 9.526C26.1763 9.68467 26.6709 9.995 27.0163 10.457C27.3616 10.9143 27.5343 11.4487 27.5343 12.06C27.5343 12.6527 27.4153 13.1683 27.1773 13.607C26.9439 14.0457 26.6009 14.3887 26.1483 14.636C25.7003 14.8787 25.1566 15 24.5173 15H20.1773ZM21.6613 13.607H24.2933C24.6246 13.607 24.9209 13.544 25.1823 13.418C25.4483 13.292 25.6559 13.1123 25.8053 12.879C25.9593 12.641 26.0363 12.3587 26.0363 12.032C26.0363 11.7287 25.9686 11.4557 25.8333 11.213C25.7026 10.9657 25.5113 10.772 25.2593 10.632C25.0119 10.4873 24.7203 10.415 24.3843 10.415H21.6613V13.607ZM21.6613 9.036H24.1183C24.3889 9.036 24.6316 8.98233 24.8463 8.875C25.0656 8.763 25.2383 8.60433 25.3643 8.399C25.4949 8.189 25.5603 7.937 25.5603 7.643C25.5603 7.251 25.4296 6.929 25.1683 6.677C24.9069 6.425 24.5569 6.299 24.1183 6.299H21.6613V9.036ZM28.9273 15V4.92H30.2503L33.9043 12.501L37.5373 4.92H38.8743V14.993H37.4883V8.098L34.2333 15H33.5683L30.3063 8.098V15H28.9273ZM40.9755 15V4.92H42.4385V15H40.9755ZM47.0535 15V6.299H43.7005V4.92H51.8695V6.299H48.5165V15H47.0535Z" fill="#121212"/>
<path d="M4.82736 15.21C4.10403 15.21 3.45069 15.0863 2.86736 14.839C2.28869 14.587 1.81036 14.23 1.43236 13.768C1.05903 13.3013 0.816359 12.7483 0.704359 12.109L2.23036 11.878C2.38436 12.494 2.70636 12.9747 3.19636 13.32C3.68636 13.6607 4.25803 13.831 4.91136 13.831C5.31736 13.831 5.69069 13.768 6.03136 13.642C6.37203 13.5113 6.64503 13.327 6.85036 13.089C7.06036 12.8463 7.16536 12.557 7.16536 12.221C7.16536 12.039 7.13269 11.878 7.06736 11.738C7.00669 11.598 6.92036 11.4767 6.80836 11.374C6.70103 11.2667 6.56803 11.1757 6.40936 11.101C6.25536 11.0217 6.08503 10.954 5.89836 10.898L3.31536 10.135C3.06336 10.0603 2.80669 9.96467 2.54536 9.848C2.28403 9.72667 2.04369 9.57033 1.82436 9.379C1.60969 9.183 1.43469 8.94267 1.29936 8.658C1.16403 8.36867 1.09636 8.01867 1.09636 7.608C1.09636 6.98733 1.25503 6.46233 1.57236 6.033C1.89436 5.599 2.32836 5.27233 2.87436 5.053C3.42036 4.829 4.03169 4.717 4.70836 4.717C5.38969 4.72633 5.99869 4.84767 6.53536 5.081C7.07669 5.31433 7.52469 5.65033 7.87936 6.089C8.23869 6.523 8.48603 7.05033 8.62136 7.671L7.05336 7.937C6.98336 7.559 6.83403 7.23467 6.60536 6.964C6.37669 6.68867 6.09669 6.47867 5.76536 6.334C5.43403 6.18467 5.07469 6.10767 4.68736 6.103C4.31403 6.09367 3.97103 6.14967 3.65836 6.271C3.35036 6.39233 3.10303 6.56267 2.91636 6.782C2.73436 7.00133 2.64336 7.25333 2.64336 7.538C2.64336 7.818 2.72503 8.04433 2.88836 8.217C3.05169 8.38967 3.25236 8.52733 3.49036 8.63C3.73303 8.728 3.97336 8.80967 4.21136 8.875L6.07336 9.4C6.30669 9.46533 6.57036 9.554 6.86436 9.666C7.16303 9.77333 7.45003 9.925 7.72536 10.121C8.00536 10.317 8.23636 10.5783 8.41836 10.905C8.60036 11.227 8.69136 11.633 8.69136 12.123C8.69136 12.6317 8.58869 13.0797 8.38336 13.467C8.17803 13.8497 7.89569 14.1717 7.53636 14.433C7.18169 14.6897 6.77103 14.8833 6.30436 15.014C5.83769 15.1447 5.34536 15.21 4.82736 15.21ZM14.2011 15.21C13.4125 15.21 12.7148 15.049 12.1081 14.727C11.5061 14.4003 11.0348 13.9453 10.6941 13.362C10.3535 12.774 10.1831 12.0833 10.1831 11.29V4.927L11.6671 4.92V11.213C11.6671 11.6423 11.7395 12.0203 11.8841 12.347C12.0288 12.6737 12.2225 12.9467 12.4651 13.166C12.7078 13.3853 12.9785 13.551 13.2771 13.663C13.5805 13.775 13.8885 13.831 14.2011 13.831C14.5185 13.831 14.8265 13.775 15.1251 13.663C15.4285 13.5463 15.7015 13.3783 15.9441 13.159C16.1868 12.9397 16.3781 12.6667 16.5181 12.34C16.6628 12.0133 16.7351 11.6377 16.7351 11.213V4.92H18.2191V11.29C18.2191 12.0787 18.0488 12.767 17.7081 13.355C17.3675 13.943 16.8938 14.4003 16.2871 14.727C15.6851 15.049 14.9898 15.21 14.2011 15.21ZM20.1773 15V4.92H24.1393C24.7786 4.92 25.3153 5.05067 25.7493 5.312C26.1833 5.57333 26.5099 5.91167 26.7293 6.327C26.9486 6.73767 27.0583 7.17167 27.0583 7.629C27.0583 8.18433 26.9206 8.66033 26.6453 9.057C26.3746 9.45367 26.0083 9.72433 25.5463 9.869L25.5323 9.526C26.1763 9.68467 26.6709 9.995 27.0163 10.457C27.3616 10.9143 27.5343 11.4487 27.5343 12.06C27.5343 12.6527 27.4153 13.1683 27.1773 13.607C26.9439 14.0457 26.6009 14.3887 26.1483 14.636C25.7003 14.8787 25.1566 15 24.5173 15H20.1773ZM21.6613 13.607H24.2933C24.6246 13.607 24.9209 13.544 25.1823 13.418C25.4483 13.292 25.6559 13.1123 25.8053 12.879C25.9593 12.641 26.0363 12.3587 26.0363 12.032C26.0363 11.7287 25.9686 11.4557 25.8333 11.213C25.7026 10.9657 25.5113 10.772 25.2593 10.632C25.0119 10.4873 24.7203 10.415 24.3843 10.415H21.6613V13.607ZM21.6613 9.036H24.1183C24.3889 9.036 24.6316 8.98233 24.8463 8.875C25.0656 8.763 25.2383 8.60433 25.3643 8.399C25.4949 8.189 25.5603 7.937 25.5603 7.643C25.5603 7.251 25.4296 6.929 25.1683 6.677C24.9069 6.425 24.5569 6.299 24.1183 6.299H21.6613V9.036ZM28.9273 15V4.92H30.2503L33.9043 12.501L37.5373 4.92H38.8743V14.993H37.4883V8.098L34.2333 15H33.5683L30.3063 8.098V15H28.9273ZM40.9755 15V4.92H42.4385V15H40.9755ZM47.0535 15V6.299H43.7005V4.92H51.8695V6.299H48.5165V15H47.0535Z" fill="white"/>
</svg>
