<svg width="31.129883" height="43.293457" viewBox="0 0 31.1299 43.2935" fill="none" xmlns="http://www.w3.org/2000/svg" xmlns:xlink="http://www.w3.org/1999/xlink">
	<desc>
			Created with Pixso.
	</desc>
	<defs/>
	<path id="2" d="M19.3218 39.2639C19.3218 37.4639 19.6099 35.928 20.1855 34.656C20.7617 33.3599 21.7939 31.9319 23.2817 30.3718C24.7456 28.812 25.7539 27.48 26.3057 26.376C26.8818 25.272 27.1699 24.1199 27.1699 22.9199C27.1699 21.8398 26.9897 21.0959 26.6299 20.688C26.2939 20.2559 25.7896 20.04 25.1177 20.04C23.75 20.04 23.0659 20.8679 23.0659 22.5239L23.0659 25.2239L19.3218 25.2239L19.3218 22.7759C19.3218 20.7358 19.8257 19.176 20.834 18.0959C21.8418 16.9919 23.3057 16.4399 25.2256 16.4399C27.146 16.4399 28.6099 16.9919 29.6177 18.0959C30.626 19.176 31.1299 20.7358 31.1299 22.7759C31.1299 24.312 30.7578 25.812 30.0137 27.2759C29.2939 28.74 28.0337 30.4199 26.2339 32.3159C25.0576 33.564 24.2656 34.584 23.8579 35.376C23.4497 36.144 23.2456 36.9719 23.2456 37.8599L23.2456 38.3999L30.77 38.3999L30.77 42L19.3218 42L19.3218 39.2639Z" fill="#000000" fill-opacity="1.000000" fill-rule="nonzero"/>
	<path id="Rectangle 4" d="M17.3403 0L18.2676 0.374512L0.927246 43.2935L0 42.9187L17.3403 0Z" fill="#333333" fill-opacity="1.000000" fill-rule="nonzero"/>
</svg>
