<svg width="30.913574" height="43.293457" viewBox="0 0 30.9136 43.2935" fill="none" xmlns="http://www.w3.org/2000/svg" xmlns:xlink="http://www.w3.org/1999/xlink">
	<desc>
			Created with Pixso.
	</desc>
	<defs/>
	<path id="3" d="M25.0093 42.3599C23.0654 42.3599 21.5894 41.8198 20.5815 40.74C19.5977 39.6599 19.1055 38.1121 19.1055 36.0959L19.1055 34.0439L22.8496 34.0439L22.8496 36.2759C22.8496 37.9319 23.5337 38.76 24.9014 38.76C25.5732 38.76 26.0776 38.5559 26.4136 38.1479C26.7734 37.7158 26.9536 36.9719 26.9536 35.916L26.9536 33.864C26.9536 32.7119 26.7495 31.896 26.3413 31.416C25.9336 30.9119 25.2734 30.6599 24.3613 30.6599L23.0293 30.6599L23.0293 27.0601L24.4692 27.0601C25.2612 27.0601 25.8496 26.856 26.2334 26.448C26.6416 26.04 26.8457 25.356 26.8457 24.396L26.8457 22.5601C26.8457 21.696 26.6655 21.0601 26.3057 20.6519C25.9453 20.2439 25.4653 20.04 24.8652 20.04C23.5933 20.04 22.9575 20.8198 22.9575 22.3799L22.9575 24.0359L19.2134 24.0359L19.2134 22.7039C19.2134 20.688 19.7056 19.1399 20.6895 18.0601C21.6973 16.98 23.1377 16.4399 25.0093 16.4399C26.9053 16.4399 28.3457 16.98 29.3296 18.0601C30.3135 19.116 30.8057 20.6519 30.8057 22.668L30.8057 23.5679C30.8057 24.936 30.5776 26.04 30.1216 26.8799C29.6655 27.696 28.9575 28.2839 27.9976 28.644L27.9976 28.7158C29.0293 29.0999 29.7734 29.7239 30.2295 30.5879C30.6855 31.4519 30.9136 32.5559 30.9136 33.8999L30.9136 36.1318C30.9136 38.1479 30.4097 39.696 29.4014 40.7759C28.4175 41.832 26.9536 42.3599 25.0093 42.3599Z" fill="#000000" fill-opacity="1.000000" fill-rule="nonzero"/>
	<path id="Rectangle 4" d="M17.3403 0L18.2676 0.374512L0.927246 43.2935L0 42.9187L17.3403 0Z" fill="#333333" fill-opacity="1.000000" fill-rule="nonzero"/>
</svg>
