<svg width="7.000000" height="45.000000" viewBox="0 0 7 45" fill="none" xmlns="http://www.w3.org/2000/svg" xmlns:xlink="http://www.w3.org/1999/xlink">
	<desc>
			Created with Pixso.
	</desc>
	<defs/>
	<path id="Arrow" d="M3.21 43.29L5.69 40.81C5.89 40.62 6.2 40.62 6.39 40.81C6.59 41.01 6.59 41.32 6.39 41.52L3.57 44.35C3.37 44.55 3.06 44.55 2.86 44.35L0.03 41.52C-0.17 41.32 -0.17 41.01 0.03 40.81C0.23 40.62 0.54 40.62 0.74 40.81L3.21 43.29Z" fill="#828282" fill-opacity="1.000000" fill-rule="nonzero"/>
	<path id="Arrow" d="M3.71 42.79L5.69 40.81C5.89 40.62 6.2 40.62 6.39 40.81C6.59 41.01 6.59 41.32 6.39 41.52L3.57 44.35C3.37 44.55 3.06 44.55 2.86 44.35L0.03 41.52C-0.17 41.32 -0.17 41.01 0.03 40.81C0.23 40.62 0.54 40.62 0.74 40.81L2.71 42.79L2.71 0L3.71 0L3.71 42.79Z" fill="#03839E" fill-opacity="1.000000" fill-rule="evenodd"/>
</svg>
