<?xml version="1.0" encoding="iso-8859-1"?>
<!-- Generator: Adobe Illustrator 16.0.0, SVG Export Plug-In . SVG Version: 6.00 Build 0)  -->
<!DOCTYPE svg PUBLIC "-//W3C//DTD SVG 1.1//EN" "http://www.w3.org/Graphics/SVG/1.1/DTD/svg11.dtd">
<svg version="1.1" id="Capa_1" xmlns="http://www.w3.org/2000/svg" xmlns:xlink="http://www.w3.org/1999/xlink" x="0px" y="0px"
	 width="472.337px" height="472.336px" viewBox="0 0 472.337 472.336" style="enable-background:new 0 0 472.337 472.336;"
	 xml:space="preserve">
<g>
	<path d="M396.061,116.577h-76.377V91.715C319.684,41.143,278.543,0,227.969,0c-50.573,0-91.713,41.143-91.713,91.715v24.862H70.45
		c-5.549,0-10.05,4.497-10.05,10.05L3.914,462.284c0,5.554,4.497,10.053,10.055,10.053h444.397c5.554,0,10.057-4.499,10.057-10.053
		l-62.31-335.657C406.113,121.073,401.614,116.577,396.061,116.577z M156.352,91.715c0-39.49,32.13-71.614,71.612-71.614
		c39.49,0,71.618,32.13,71.618,71.614v24.862h-143.23V91.715z M448.322,452.235H24.015l56.479-315.562h55.753v44.258
		c-4.849,3.246-8.037,8.765-8.037,15.035c0,9.988,8.09,18.09,18.087,18.09c9.985,0,18.09-8.095,18.09-18.09
		c0-6.275-3.197-11.789-8.044-15.035v-44.258h143.244v44.258c-4.849,3.246-8.041,8.765-8.041,15.035
		c0,9.988,8.093,18.09,18.09,18.09c9.987,0,18.089-8.095,18.089-18.09c0-6.275-3.201-11.789-8.046-15.035v-44.258h66.329
		L448.322,452.235z"/>
</g>
<g>
</g>
<g>
</g>
<g>
</g>
<g>
</g>
<g>
</g>
<g>
</g>
<g>
</g>
<g>
</g>
<g>
</g>
<g>
</g>
<g>
</g>
<g>
</g>
<g>
</g>
<g>
</g>
<g>
</g>
</svg>
