<svg width="106" height="20" viewBox="0 0 106 20" fill="none" xmlns="http://www.w3.org/2000/svg">
<path d="M105.354 11.3536C105.549 11.1583 105.549 10.8417 105.354 10.6464L102.172 7.46447C101.976 7.2692 101.66 7.2692 101.464 7.46447C101.269 7.65973 101.269 7.97631 101.464 8.17157L104.293 11L101.464 13.8284C101.269 14.0237 101.269 14.3403 101.464 14.5355C101.66 14.7308 101.976 14.7308 102.172 14.5355L105.354 11.3536ZM80 11.5H105V10.5H80V11.5Z" fill="black"/>
<path d="M0.98 15V4.92H4.942C5.58133 4.92 6.118 5.05067 6.552 5.312C6.986 5.57333 7.31267 5.91167 7.532 6.327C7.75133 6.73767 7.861 7.17167 7.861 7.629C7.861 8.18433 7.72333 8.66033 7.448 9.057C7.17733 9.45367 6.811 9.72433 6.349 9.869L6.335 9.526C6.979 9.68467 7.47367 9.995 7.819 10.457C8.16433 10.9143 8.337 11.4487 8.337 12.06C8.337 12.6527 8.218 13.1683 7.98 13.607C7.74667 14.0457 7.40367 14.3887 6.951 14.636C6.503 14.8787 5.95933 15 5.32 15H0.98ZM2.464 13.607H5.096C5.42733 13.607 5.72367 13.544 5.985 13.418C6.251 13.292 6.45867 13.1123 6.608 12.879C6.762 12.641 6.839 12.3587 6.839 12.032C6.839 11.7287 6.77133 11.4557 6.636 11.213C6.50533 10.9657 6.314 10.772 6.062 10.632C5.81467 10.4873 5.523 10.415 5.187 10.415H2.464V13.607ZM2.464 9.036H4.921C5.19167 9.036 5.43433 8.98233 5.649 8.875C5.86833 8.763 6.041 8.60433 6.167 8.399C6.29767 8.189 6.363 7.937 6.363 7.643C6.363 7.251 6.23233 6.929 5.971 6.677C5.70967 6.425 5.35967 6.299 4.921 6.299H2.464V9.036ZM13.748 15.21C12.9593 15.21 12.2617 15.049 11.655 14.727C11.053 14.4003 10.5817 13.9453 10.241 13.362C9.90033 12.774 9.73 12.0833 9.73 11.29V4.927L11.214 4.92V11.213C11.214 11.6423 11.2863 12.0203 11.431 12.347C11.5757 12.6737 11.7693 12.9467 12.012 13.166C12.2547 13.3853 12.5253 13.551 12.824 13.663C13.1273 13.775 13.4353 13.831 13.748 13.831C14.0653 13.831 14.3733 13.775 14.672 13.663C14.9753 13.5463 15.2483 13.3783 15.491 13.159C15.7337 12.9397 15.925 12.6667 16.065 12.34C16.2097 12.0133 16.282 11.6377 16.282 11.213V4.92H17.766V11.29C17.766 12.0787 17.5957 12.767 17.255 13.355C16.9143 13.943 16.4407 14.4003 15.834 14.727C15.232 15.049 14.5367 15.21 13.748 15.21ZM22.1531 15V10.835L18.7441 4.92H20.4521L22.8951 9.155L25.3381 4.92H27.0461L23.6371 10.835V15H22.1531ZM30.2652 15V4.92H31.7492L36.7122 12.41V4.92H38.1962V15H36.7122L31.7492 7.503V15H30.2652ZM44.3569 15.21C43.3489 15.21 42.4903 14.9907 41.7809 14.552C41.0716 14.1087 40.5279 13.4927 40.1499 12.704C39.7766 11.9153 39.5899 11.0007 39.5899 9.96C39.5899 8.91933 39.7766 8.00467 40.1499 7.216C40.5279 6.42733 41.0716 5.81367 41.7809 5.375C42.4903 4.93167 43.3489 4.71 44.3569 4.71C45.3603 4.71 46.2166 4.93167 46.9259 5.375C47.6399 5.81367 48.1836 6.42733 48.5569 7.216C48.9303 8.00467 49.1169 8.91933 49.1169 9.96C49.1169 11.0007 48.9303 11.9153 48.5569 12.704C48.1836 13.4927 47.6399 14.1087 46.9259 14.552C46.2166 14.9907 45.3603 15.21 44.3569 15.21ZM44.3569 13.817C45.0709 13.8263 45.6636 13.67 46.1349 13.348C46.6109 13.0213 46.9679 12.5687 47.2059 11.99C47.4439 11.4067 47.5629 10.73 47.5629 9.96C47.5629 9.19 47.4439 8.518 47.2059 7.944C46.9679 7.36533 46.6109 6.915 46.1349 6.593C45.6636 6.271 45.0709 6.10767 44.3569 6.103C43.6429 6.09367 43.0479 6.25 42.5719 6.572C42.1006 6.894 41.7459 7.34667 41.5079 7.93C41.2699 8.51333 41.1486 9.19 41.1439 9.96C41.1393 10.73 41.2559 11.4043 41.4939 11.983C41.7319 12.557 42.0889 13.005 42.5649 13.327C43.0456 13.649 43.6429 13.8123 44.3569 13.817ZM52.2244 15L49.2984 4.92H50.8314L52.9524 12.543L55.0734 4.927L56.6134 4.92L58.7344 12.543L60.8554 4.92H62.3954L59.4624 15H58.0064L55.8434 7.461L53.6804 15H52.2244Z" fill="#121212"/>
</svg>
