<svg width="42" height="38" viewBox="0 0 42 38" fill="none" xmlns="http://www.w3.org/2000/svg">
<path d="M41.813 34.8651L39.0395 9.86514C38.9767 9.28853 38.7023 8.7557 38.2694 8.36968C37.8365 7.98366 37.2758 7.77189 36.6958 7.7753H29.4692C29.2656 5.6475 28.2764 3.67194 26.6946 2.23426C25.1128 0.796589 23.052 0 20.9145 0C18.777 0 16.7162 0.796589 15.1344 2.23426C13.5527 3.67194 12.5634 5.6475 12.3598 7.7753H5.13328C4.55327 7.77189 3.9926 7.98366 3.55968 8.36968C3.12676 8.7557 2.85236 9.28853 2.78953 9.86514L0.016097 34.8651C-0.0229349 35.1922 0.00921851 35.5239 0.110354 35.8374C0.211489 36.151 0.379214 36.4389 0.602034 36.6815C0.821671 36.9253 1.08966 37.1207 1.38893 37.2552C1.68821 37.3897 2.01221 37.4604 2.34032 37.4628H39.4888C39.8169 37.4604 40.1409 37.3897 40.4401 37.2552C40.7394 37.1207 41.0074 36.9253 41.227 36.6815C41.4499 36.4389 41.6176 36.151 41.7187 35.8374C41.8199 35.5239 41.852 35.1922 41.813 34.8651V34.8651ZM20.9145 1.5253C22.6436 1.52848 24.3113 2.16692 25.6004 3.31923C26.8896 4.47155 27.7103 6.0574 27.9067 7.7753H13.9223C14.1187 6.0574 14.9395 4.47155 16.2287 3.31923C17.5178 2.16692 19.1854 1.52848 20.9145 1.5253V1.5253ZM40.0552 35.6464C39.9839 35.7261 39.8966 35.7899 39.799 35.8337C39.7014 35.8774 39.5957 35.9001 39.4888 35.9003H2.34032C2.23337 35.9001 2.12766 35.8774 2.03008 35.8337C1.93249 35.7899 1.84521 35.7261 1.77391 35.6464C1.69732 35.5671 1.63989 35.4713 1.60604 35.3663C1.57219 35.2614 1.5628 35.1501 1.5786 35.0409L4.35203 10.0409C4.36701 9.84581 4.4565 9.66394 4.60196 9.53302C4.74741 9.40211 4.93767 9.33221 5.13328 9.3378H12.3208V14.8065C12.3208 15.0137 12.4031 15.2125 12.5496 15.359C12.6961 15.5055 12.8948 15.5878 13.102 15.5878C13.3092 15.5878 13.5079 15.5055 13.6545 15.359C13.801 15.2125 13.8833 15.0137 13.8833 14.8065V9.3378H27.9458V14.8065C27.9458 15.0137 28.0281 15.2125 28.1746 15.359C28.3211 15.5055 28.5198 15.5878 28.727 15.5878C28.9342 15.5878 29.1329 15.5055 29.2795 15.359C29.426 15.2125 29.5083 15.0137 29.5083 14.8065V9.3378H36.6958C36.8914 9.33221 37.0817 9.40211 37.2271 9.53302C37.3726 9.66394 37.4621 9.84581 37.477 10.0409L40.2505 35.0409C40.2663 35.1501 40.2569 35.2614 40.223 35.3663C40.1892 35.4713 40.1318 35.5671 40.0552 35.6464Z" fill="#333333"/>
</svg>
