<svg width="13" height="13" viewBox="0 0 13 13" fill="none" xmlns="http://www.w3.org/2000/svg">
<rect width="13" height="13" fill="#E5E5E5"/>
<g id="Mobile (320px)" clip-path="url(#clip0_1760_281)">
<rect width="320" height="568" transform="translate(-275 -513)" fill="white"/>
<g id="POTR ~ Eco, self-watering, origami plant pots">
<path d="M-155.81 -51.2H-151.994L-150.23 -31.832H-150.158L-148.286 -51.2H-143.966L-142.094 -31.832H-142.022L-140.258 -51.2H-136.838L-139.394 -26H-144.326L-146.126 -42.992H-146.198L-147.998 -26H-153.254L-155.81 -51.2ZM-126.687 -51.2H-121.323L-117.219 -26H-121.179L-121.899 -31.004V-30.932H-126.399L-127.119 -26H-130.791L-126.687 -51.2ZM-122.367 -34.352L-124.131 -46.808H-124.203L-125.931 -34.352H-122.367ZM-108.274 -47.6H-112.414V-51.2H-100.174V-47.6H-104.314V-26H-108.274V-47.6ZM-92.677 -51.2H-81.877V-47.6H-88.717V-40.94H-83.281V-37.34H-88.717V-29.6H-81.877V-26H-92.677V-51.2ZM-74.0188 -51.2H-68.1508C-66.1108 -51.2 -64.6228 -50.72 -63.6868 -49.76C-62.7508 -48.824 -62.2828 -47.372 -62.2828 -45.404V-43.856C-62.2828 -41.24 -63.1468 -39.584 -64.8748 -38.888V-38.816C-63.9148 -38.528 -63.2428 -37.94 -62.8588 -37.052C-62.4508 -36.164 -62.2468 -34.976 -62.2468 -33.488V-29.06C-62.2468 -28.34 -62.2228 -27.752 -62.1748 -27.296C-62.1268 -26.864 -62.0068 -26.432 -61.8148 -26H-65.8468C-65.9908 -26.408 -66.0868 -26.792 -66.1348 -27.152C-66.1828 -27.512 -66.2068 -28.16 -66.2068 -29.096V-33.704C-66.2068 -34.856 -66.3988 -35.66 -66.7828 -36.116C-67.1428 -36.572 -67.7788 -36.8 -68.6908 -36.8H-70.0588V-26H-74.0188V-51.2ZM-68.6188 -40.4C-67.8268 -40.4 -67.2388 -40.604 -66.8548 -41.012C-66.4468 -41.42 -66.2428 -42.104 -66.2428 -43.064V-45.008C-66.2428 -45.92 -66.4108 -46.58 -66.7468 -46.988C-67.0588 -47.396 -67.5628 -47.6 -68.2588 -47.6H-70.0588V-40.4H-68.6188ZM-53.9193 -51.2H-49.9593V-26H-53.9193V-51.2ZM-41.4135 -51.2H-36.4455L-32.5935 -36.116H-32.5215V-51.2H-28.9935V-26H-33.0615L-37.8135 -44.396H-37.8855V-26H-41.4135V-51.2ZM-14.8543 -25.64C-16.7743 -25.64 -18.2383 -26.18 -19.2463 -27.26C-20.2543 -28.364 -20.7583 -29.936 -20.7583 -31.976V-45.224C-20.7583 -47.264 -20.2543 -48.824 -19.2463 -49.904C-18.2383 -51.008 -16.7743 -51.56 -14.8543 -51.56C-12.9343 -51.56 -11.4703 -51.008 -10.4623 -49.904C-9.45426 -48.824 -8.95026 -47.264 -8.95026 -45.224V-43.064H-12.6943V-45.476C-12.6943 -47.132 -13.3783 -47.96 -14.7463 -47.96C-16.1143 -47.96 -16.7983 -47.132 -16.7983 -45.476V-31.688C-16.7983 -30.056 -16.1143 -29.24 -14.7463 -29.24C-13.3783 -29.24 -12.6943 -30.056 -12.6943 -31.688V-36.62H-14.6743V-40.22H-8.95026V-31.976C-8.95026 -29.936 -9.45426 -28.364 -10.4623 -27.26C-11.4703 -26.18 -12.9343 -25.64 -14.8543 -25.64ZM0.468244 -26H-0.827757V-29.816H2.98824V-26.396L1.00824 -21.68H-0.827757L0.468244 -26ZM-237.8 17.36C-239.744 17.36 -241.232 16.808 -242.264 15.704C-243.296 14.6 -243.812 13.04 -243.812 11.024V-2.224C-243.812 -4.24 -243.296 -5.8 -242.264 -6.904C-241.232 -8.008 -239.744 -8.56 -237.8 -8.56C-235.856 -8.56 -234.368 -8.008 -233.336 -6.904C-232.304 -5.8 -231.788 -4.24 -231.788 -2.224V11.024C-231.788 13.04 -232.304 14.6 -233.336 15.704C-234.368 16.808 -235.856 17.36 -237.8 17.36ZM-237.8 13.76C-236.432 13.76 -235.748 12.932 -235.748 11.276V-2.476C-235.748 -4.132 -236.432 -4.96 -237.8 -4.96C-239.168 -4.96 -239.852 -4.132 -239.852 -2.476V11.276C-239.852 12.932 -239.168 13.76 -237.8 13.76ZM-223.53 -8.2H-217.662C-215.622 -8.2 -214.134 -7.72 -213.198 -6.76C-212.262 -5.824 -211.794 -4.372 -211.794 -2.404V-0.856001C-211.794 1.76 -212.658 3.416 -214.386 4.112V4.184C-213.426 4.472 -212.754 5.06 -212.37 5.948C-211.962 6.836 -211.758 8.024 -211.758 9.512V13.94C-211.758 14.66 -211.734 15.248 -211.686 15.704C-211.638 16.136 -211.518 16.568 -211.326 17H-215.358C-215.502 16.592 -215.598 16.208 -215.646 15.848C-215.694 15.488 -215.718 14.84 -215.718 13.904V9.296C-215.718 8.144 -215.91 7.34 -216.294 6.884C-216.654 6.428 -217.29 6.2 -218.202 6.2H-219.57V17H-223.53V-8.2ZM-218.13 2.6C-217.338 2.6 -216.75 2.396 -216.366 1.988C-215.958 1.58 -215.754 0.895999 -215.754 -0.0640013V-2.008C-215.754 -2.92 -215.922 -3.58 -216.258 -3.988C-216.57 -4.396 -217.074 -4.6 -217.77 -4.6H-219.57V2.6H-218.13ZM-203.43 -8.2H-199.47V17H-203.43V-8.2ZM-185.309 17.36C-187.229 17.36 -188.693 16.82 -189.701 15.74C-190.709 14.636 -191.213 13.064 -191.213 11.024V-2.224C-191.213 -4.264 -190.709 -5.824 -189.701 -6.904C-188.693 -8.008 -187.229 -8.56 -185.309 -8.56C-183.389 -8.56 -181.925 -8.008 -180.917 -6.904C-179.909 -5.824 -179.405 -4.264 -179.405 -2.224V-0.0640013H-183.149V-2.476C-183.149 -4.132 -183.833 -4.96 -185.201 -4.96C-186.569 -4.96 -187.253 -4.132 -187.253 -2.476V11.312C-187.253 12.944 -186.569 13.76 -185.201 13.76C-183.833 13.76 -183.149 12.944 -183.149 11.312V6.38H-185.129V2.78H-179.405V11.024C-179.405 13.064 -179.909 14.636 -180.917 15.74C-181.925 16.82 -183.389 17.36 -185.309 17.36ZM-168.222 -8.2H-162.858L-158.754 17H-162.714L-163.434 11.996V12.068H-167.934L-168.654 17H-172.326L-168.222 -8.2ZM-163.902 8.648L-165.666 -3.808H-165.738L-167.466 8.648H-163.902ZM-151.253 -8.2H-145.601L-143.081 9.836H-143.009L-140.489 -8.2H-134.837V17H-138.581V-2.08H-138.653L-141.533 17H-144.845L-147.725 -2.08H-147.797V17H-151.253V-8.2ZM-126.302 -8.2H-122.342V17H-126.302V-8.2ZM-243.524 34.8H-237.692C-235.724 34.8 -234.248 35.328 -233.264 36.384C-232.28 37.44 -231.788 38.988 -231.788 41.028V43.512C-231.788 45.552 -232.28 47.1 -233.264 48.156C-234.248 49.212 -235.724 49.74 -237.692 49.74H-239.564V60H-243.524V34.8ZM-237.692 46.14C-237.044 46.14 -236.564 45.96 -236.252 45.6C-235.916 45.24 -235.748 44.628 -235.748 43.764V40.776C-235.748 39.912 -235.916 39.3 -236.252 38.94C-236.564 38.58 -237.044 38.4 -237.692 38.4H-239.564V46.14H-237.692ZM-218.333 60.36C-220.277 60.36 -221.765 59.808 -222.797 58.704C-223.829 57.6 -224.345 56.04 -224.345 54.024V40.776C-224.345 38.76 -223.829 37.2 -222.797 36.096C-221.765 34.992 -220.277 34.44 -218.333 34.44C-216.389 34.44 -214.901 34.992 -213.869 36.096C-212.837 37.2 -212.321 38.76 -212.321 40.776V54.024C-212.321 56.04 -212.837 57.6 -213.869 58.704C-214.901 59.808 -216.389 60.36 -218.333 60.36ZM-218.333 56.76C-216.965 56.76 -216.281 55.932 -216.281 54.276V40.524C-216.281 38.868 -216.965 38.04 -218.333 38.04C-219.701 38.04 -220.385 38.868 -220.385 40.524V54.276C-220.385 55.932 -219.701 56.76 -218.333 56.76ZM-201.108 38.4H-205.248V34.8H-193.008V38.4H-197.148V60H-201.108V38.4ZM-180.363 60.36C-182.283 60.36 -183.735 59.82 -184.719 58.74C-185.703 57.636 -186.195 56.064 -186.195 54.024V52.584H-182.451V54.312C-182.451 55.944 -181.767 56.76 -180.399 56.76C-179.727 56.76 -179.223 56.568 -178.887 56.184C-178.527 55.776 -178.347 55.128 -178.347 54.24C-178.347 53.184 -178.587 52.26 -179.067 51.468C-179.547 50.652 -180.435 49.68 -181.731 48.552C-183.363 47.112 -184.503 45.816 -185.151 44.664C-185.799 43.488 -186.123 42.168 -186.123 40.704C-186.123 38.712 -185.619 37.176 -184.611 36.096C-183.603 34.992 -182.139 34.44 -180.219 34.44C-178.323 34.44 -176.895 34.992 -175.935 36.096C-174.951 37.176 -174.459 38.736 -174.459 40.776V41.82H-178.203V40.524C-178.203 39.66 -178.371 39.036 -178.707 38.652C-179.043 38.244 -179.535 38.04 -180.183 38.04C-181.503 38.04 -182.163 38.844 -182.163 40.452C-182.163 41.364 -181.923 42.216 -181.443 43.008C-180.939 43.8 -180.039 44.76 -178.743 45.888C-177.087 47.328 -175.947 48.636 -175.323 49.812C-174.699 50.988 -174.387 52.368 -174.387 53.952C-174.387 56.016 -174.903 57.6 -175.935 58.704C-176.943 59.808 -178.419 60.36 -180.363 60.36Z" fill="#03839E"/>
<path d="M-243.524 -94.2V-94.8764H-244.2V-94.2H-243.524ZM-233.264 -92.616L-233.759 -92.1549H-233.759L-233.264 -92.616ZM-233.264 -80.844L-233.759 -81.3051L-233.264 -80.844ZM-239.564 -79.26V-79.9364H-240.24V-79.26H-239.564ZM-239.564 -69V-68.3236H-238.888V-69H-239.564ZM-243.524 -69H-244.2V-68.3236H-243.524V-69ZM-236.252 -83.4L-236.746 -83.8615L-236.755 -83.8524L-236.763 -83.843L-236.252 -83.4ZM-236.252 -90.06L-236.763 -89.617L-236.755 -89.6076L-236.746 -89.5985L-236.252 -90.06ZM-239.564 -90.6V-91.2764H-240.24V-90.6H-239.564ZM-239.564 -82.86H-240.24V-82.1836H-239.564V-82.86ZM-243.524 -93.5236H-237.692V-94.8764H-243.524V-93.5236ZM-237.692 -93.5236C-235.841 -93.5236 -234.574 -93.0292 -233.759 -92.1549L-232.769 -93.0771C-233.922 -94.3148 -235.607 -94.8764 -237.692 -94.8764V-93.5236ZM-233.759 -92.1549C-232.932 -91.2677 -232.464 -89.9116 -232.464 -87.972H-231.112C-231.112 -90.1124 -231.628 -91.8523 -232.769 -93.0771L-233.759 -92.1549ZM-232.464 -87.972V-85.488H-231.112V-87.972H-232.464ZM-232.464 -85.488C-232.464 -83.5484 -232.932 -82.1923 -233.759 -81.3051L-232.769 -80.3829C-231.628 -81.6077 -231.112 -83.3476 -231.112 -85.488H-232.464ZM-233.759 -81.3051C-234.574 -80.4308 -235.841 -79.9364 -237.692 -79.9364V-78.5836C-235.607 -78.5836 -233.922 -79.1452 -232.769 -80.3829L-233.759 -81.3051ZM-237.692 -79.9364H-239.564V-78.5836H-237.692V-79.9364ZM-240.24 -79.26V-69H-238.888V-79.26H-240.24ZM-239.564 -69.6764H-243.524V-68.3236H-239.564V-69.6764ZM-242.848 -69V-94.2H-244.2V-69H-242.848ZM-237.692 -82.1836C-236.922 -82.1836 -236.223 -82.4006 -235.741 -82.957L-236.763 -83.843C-236.905 -83.6794 -237.166 -83.5364 -237.692 -83.5364V-82.1836ZM-235.758 -82.9385C-235.243 -83.4894 -235.072 -84.3189 -235.072 -85.236H-236.424C-236.424 -84.4251 -236.589 -84.0306 -236.746 -83.8615L-235.758 -82.9385ZM-235.072 -85.236V-88.224H-236.424V-85.236H-235.072ZM-235.072 -88.224C-235.072 -89.1411 -235.243 -89.9706 -235.758 -90.5215L-236.746 -89.5985C-236.589 -89.4294 -236.424 -89.0349 -236.424 -88.224H-235.072ZM-235.741 -90.503C-236.223 -91.0594 -236.922 -91.2764 -237.692 -91.2764V-89.9236C-237.166 -89.9236 -236.905 -89.7806 -236.763 -89.617L-235.741 -90.503ZM-237.692 -91.2764H-239.564V-89.9236H-237.692V-91.2764ZM-240.24 -90.6V-82.86H-238.888V-90.6H-240.24ZM-239.564 -82.1836H-237.692V-83.5364H-239.564V-82.1836ZM-222.797 -70.296L-222.303 -70.7579L-222.797 -70.296ZM-222.797 -92.904L-222.303 -92.4421L-222.797 -92.904ZM-213.869 -92.904L-214.363 -92.4421L-213.869 -92.904ZM-213.869 -70.296L-214.363 -70.7579L-213.869 -70.296ZM-218.333 -69.3164C-220.147 -69.3164 -221.433 -69.8273 -222.303 -70.7579L-223.291 -69.8341C-222.097 -68.5567 -220.408 -67.9636 -218.333 -67.9636V-69.3164ZM-222.303 -70.7579C-223.183 -71.6995 -223.669 -73.0729 -223.669 -74.976H-225.022C-225.022 -72.8471 -224.475 -71.1005 -223.291 -69.8341L-222.303 -70.7579ZM-223.669 -74.976V-88.224H-225.022V-74.976H-223.669ZM-223.669 -88.224C-223.669 -90.1271 -223.183 -91.5005 -222.303 -92.4421L-223.291 -93.3659C-224.475 -92.0995 -225.022 -90.3529 -225.022 -88.224H-223.669ZM-222.303 -92.4421C-221.433 -93.3727 -220.147 -93.8836 -218.333 -93.8836V-95.2364C-220.408 -95.2364 -222.097 -94.6433 -223.291 -93.3659L-222.303 -92.4421ZM-218.333 -93.8836C-216.52 -93.8836 -215.233 -93.3727 -214.363 -92.4421L-213.375 -93.3659C-214.569 -94.6433 -216.259 -95.2364 -218.333 -95.2364V-93.8836ZM-214.363 -92.4421C-213.483 -91.5005 -212.998 -90.1271 -212.998 -88.224H-211.645C-211.645 -90.3529 -212.191 -92.0995 -213.375 -93.3659L-214.363 -92.4421ZM-212.998 -88.224V-74.976H-211.645V-88.224H-212.998ZM-212.998 -74.976C-212.998 -73.0729 -213.483 -71.6995 -214.363 -70.7579L-213.375 -69.8341C-212.191 -71.1005 -211.645 -72.8471 -211.645 -74.976H-212.998ZM-214.363 -70.7579C-215.233 -69.8273 -216.52 -69.3164 -218.333 -69.3164V-67.9636C-216.259 -67.9636 -214.569 -68.5567 -213.375 -69.8341L-214.363 -70.7579ZM-218.333 -71.5636C-217.507 -71.5636 -216.777 -71.8198 -216.273 -72.4302C-215.789 -73.0159 -215.605 -73.8198 -215.605 -74.724H-216.958C-216.958 -73.9722 -217.116 -73.5341 -217.316 -73.2918C-217.495 -73.0742 -217.791 -72.9164 -218.333 -72.9164V-71.5636ZM-215.605 -74.724V-88.476H-216.958V-74.724H-215.605ZM-215.605 -88.476C-215.605 -89.3802 -215.789 -90.1841 -216.273 -90.7698C-216.777 -91.3802 -217.507 -91.6364 -218.333 -91.6364V-90.2836C-217.791 -90.2836 -217.495 -90.1258 -217.316 -89.9082C-217.116 -89.6659 -216.958 -89.2278 -216.958 -88.476H-215.605ZM-218.333 -91.6364C-219.159 -91.6364 -219.889 -91.3802 -220.394 -90.7698C-220.878 -90.1841 -221.062 -89.3802 -221.062 -88.476H-219.709C-219.709 -89.2278 -219.551 -89.6659 -219.351 -89.9082C-219.171 -90.1258 -218.875 -90.2836 -218.333 -90.2836V-91.6364ZM-221.062 -88.476V-74.724H-219.709V-88.476H-221.062ZM-221.062 -74.724C-221.062 -73.8198 -220.878 -73.0159 -220.394 -72.4302C-219.889 -71.8198 -219.159 -71.5636 -218.333 -71.5636V-72.9164C-218.875 -72.9164 -219.171 -73.0742 -219.351 -73.2918C-219.551 -73.5341 -219.709 -73.9722 -219.709 -74.724H-221.062ZM-201.108 -90.6H-200.431V-91.2764H-201.108V-90.6ZM-205.248 -90.6H-205.924V-89.9236H-205.248V-90.6ZM-205.248 -94.2V-94.8764H-205.924V-94.2H-205.248ZM-193.008 -94.2H-192.331V-94.8764H-193.008V-94.2ZM-193.008 -90.6V-89.9236H-192.331V-90.6H-193.008ZM-197.148 -90.6V-91.2764H-197.824V-90.6H-197.148ZM-197.148 -69V-68.3236H-196.471V-69H-197.148ZM-201.108 -69H-201.784V-68.3236H-201.108V-69ZM-201.108 -91.2764H-205.248V-89.9236H-201.108V-91.2764ZM-204.571 -90.6V-94.2H-205.924V-90.6H-204.571ZM-205.248 -93.5236H-193.008V-94.8764H-205.248V-93.5236ZM-193.684 -94.2V-90.6H-192.331V-94.2H-193.684ZM-193.008 -91.2764H-197.148V-89.9236H-193.008V-91.2764ZM-197.824 -90.6V-69H-196.471V-90.6H-197.824ZM-197.148 -69.6764H-201.108V-68.3236H-197.148V-69.6764ZM-200.431 -69V-90.6H-201.784V-69H-200.431ZM-185.511 -94.2V-94.8764H-186.187V-94.2H-185.511ZM-175.179 -92.76L-175.663 -92.2878L-175.657 -92.2817L-175.179 -92.76ZM-176.367 -81.888L-176.619 -82.5154L-177.043 -82.3448V-81.888H-176.367ZM-176.367 -81.816H-177.043V-81.3127L-176.561 -81.1681L-176.367 -81.816ZM-174.351 -80.052L-174.971 -79.7835L-174.968 -79.7765L-174.965 -79.7696L-174.351 -80.052ZM-173.667 -70.296L-174.339 -70.2252L-174.339 -70.2213L-173.667 -70.296ZM-173.307 -69V-68.3236H-172.266L-172.688 -69.2747L-173.307 -69ZM-177.339 -69L-177.976 -68.7749L-177.817 -68.3236H-177.339V-69ZM-178.275 -79.116L-178.805 -78.6969L-178.799 -78.6885L-178.792 -78.6803L-178.275 -79.116ZM-181.551 -79.8V-80.4764H-182.227V-79.8H-181.551ZM-181.551 -69V-68.3236H-180.874V-69H-181.551ZM-185.511 -69H-186.187V-68.3236H-185.511V-69ZM-178.347 -84.012L-178.825 -84.4903L-178.832 -84.4831L-178.839 -84.4756L-178.347 -84.012ZM-178.239 -89.988L-178.776 -89.5771L-178.768 -89.5674L-178.761 -89.558L-178.239 -89.988ZM-181.551 -90.6V-91.2764H-182.227V-90.6H-181.551ZM-181.551 -83.4H-182.227V-82.7236H-181.551V-83.4ZM-185.511 -93.5236H-179.643V-94.8764H-185.511V-93.5236ZM-179.643 -93.5236C-177.691 -93.5236 -176.418 -93.0626 -175.663 -92.2878L-174.694 -93.2322C-175.811 -94.3774 -177.514 -94.8764 -179.643 -94.8764V-93.5236ZM-175.657 -92.2817C-174.898 -91.5229 -174.451 -90.2792 -174.451 -88.404H-173.098C-173.098 -90.4648 -173.587 -92.1251 -174.7 -93.2383L-175.657 -92.2817ZM-174.451 -88.404V-86.856H-173.098V-88.404H-174.451ZM-174.451 -86.856C-174.451 -85.6158 -174.657 -84.6654 -175.022 -83.9649C-175.38 -83.2793 -175.905 -82.8031 -176.619 -82.5154L-176.114 -81.2606C-175.1 -81.6689 -174.329 -82.3687 -173.823 -83.3391C-173.324 -84.2946 -173.098 -85.4802 -173.098 -86.856H-174.451ZM-177.043 -81.888V-81.816H-175.69V-81.888H-177.043ZM-176.561 -81.1681C-175.784 -80.9351 -175.273 -80.4809 -174.971 -79.7835L-173.73 -80.3205C-174.196 -81.3991 -175.029 -82.1209 -176.172 -82.4639L-176.561 -81.1681ZM-174.965 -79.7696C-174.614 -79.0042 -174.415 -77.9246 -174.415 -76.488H-173.062C-173.062 -78.0274 -173.272 -79.3238 -173.736 -80.3344L-174.965 -79.7696ZM-174.415 -76.488V-72.06H-173.062V-76.488H-174.415ZM-174.415 -72.06C-174.415 -71.328 -174.391 -70.714 -174.339 -70.2252L-172.994 -70.3668C-173.038 -70.79 -173.062 -71.352 -173.062 -72.06H-174.415ZM-174.339 -70.2213C-174.283 -69.7145 -174.142 -69.2152 -173.925 -68.7253L-172.688 -69.2747C-172.855 -69.6488 -172.955 -70.0135 -172.994 -70.3707L-174.339 -70.2213ZM-173.307 -69.6764H-177.339V-68.3236H-173.307V-69.6764ZM-176.701 -69.2251C-176.832 -69.5972 -176.915 -69.9354 -176.956 -70.2414L-178.297 -70.0626C-178.242 -69.6486 -178.133 -69.2188 -177.976 -68.7749L-176.701 -69.2251ZM-176.956 -70.2414C-176.997 -70.5513 -177.022 -71.1576 -177.022 -72.096H-178.375C-178.375 -71.1624 -178.352 -70.4727 -178.297 -70.0626L-176.956 -70.2414ZM-177.022 -72.096V-76.704H-178.375V-72.096H-177.022ZM-177.022 -76.704C-177.022 -77.8872 -177.21 -78.9025 -177.757 -79.5517L-178.792 -78.6803C-178.571 -78.4175 -178.375 -77.8248 -178.375 -76.704H-177.022ZM-177.744 -79.5351C-178.291 -80.2284 -179.182 -80.4764 -180.183 -80.4764V-79.1236C-179.359 -79.1236 -178.978 -78.9156 -178.805 -78.6969L-177.744 -79.5351ZM-180.183 -80.4764H-181.551V-79.1236H-180.183V-80.4764ZM-182.227 -79.8V-69H-180.874V-79.8H-182.227ZM-181.551 -69.6764H-185.511V-68.3236H-181.551V-69.6764ZM-184.834 -69V-94.2H-186.187V-69H-184.834ZM-180.111 -82.7236C-179.211 -82.7236 -178.411 -82.9563 -177.854 -83.5484L-178.839 -84.4756C-179.05 -84.2517 -179.426 -84.0764 -180.111 -84.0764V-82.7236ZM-177.868 -83.5337C-177.271 -84.1306 -177.058 -85.0373 -177.058 -86.064H-178.411C-178.411 -85.1707 -178.606 -84.7094 -178.825 -84.4903L-177.868 -83.5337ZM-177.058 -86.064V-88.008H-178.411V-86.064H-177.058ZM-177.058 -88.008C-177.058 -88.9737 -177.23 -89.8279 -177.716 -90.418L-178.761 -89.558C-178.575 -89.3321 -178.411 -88.8663 -178.411 -88.008H-177.058ZM-177.701 -90.3989C-178.183 -91.0292 -178.924 -91.2764 -179.751 -91.2764V-89.9236C-179.185 -89.9236 -178.918 -89.7628 -178.776 -89.5771L-177.701 -90.3989ZM-179.751 -91.2764H-181.551V-89.9236H-179.751V-91.2764ZM-182.227 -90.6V-83.4H-180.874V-90.6H-182.227ZM-181.551 -82.7236H-180.111V-84.0764H-181.551V-82.7236ZM-155.109 -80.52L-155.693 -80.8615L-155.997 -80.3423L-155.517 -79.98L-155.109 -80.52ZM-153.057 -83.256L-152.609 -82.7494L-152.608 -82.7504L-153.057 -83.256ZM-149.601 -83.904L-149.35 -84.532V-84.532L-149.601 -83.904ZM-148.089 -83.076L-147.729 -83.6484H-147.729L-148.089 -83.076ZM-146.757 -82.248L-147.105 -81.668L-147.072 -81.6482L-147.037 -81.6322L-146.757 -82.248ZM-144.921 -82.5L-144.443 -82.0217L-144.434 -82.0313L-144.424 -82.0412L-144.921 -82.5ZM-143.625 -84.228L-143.218 -84.768L-143.783 -85.1942L-144.183 -84.6105L-143.625 -84.228ZM-141.573 -82.68L-140.99 -82.3385L-140.686 -82.8577L-141.166 -83.22L-141.573 -82.68ZM-143.661 -79.908L-143.213 -79.4014L-143.212 -79.4024L-143.661 -79.908ZM-147.081 -79.296L-146.83 -79.924H-146.83L-147.081 -79.296ZM-148.593 -80.124L-148.954 -79.5516L-148.593 -80.124ZM-149.961 -80.916L-150.309 -80.336L-150.276 -80.3162L-150.241 -80.3002L-149.961 -80.916ZM-151.761 -80.664L-151.283 -80.1857L-151.274 -80.1953L-151.264 -80.2052L-151.761 -80.664ZM-153.057 -78.972L-153.465 -78.432L-152.9 -78.0058L-152.5 -78.5895L-153.057 -78.972ZM-154.526 -80.1785C-153.794 -81.4284 -153.153 -82.268 -152.609 -82.7494L-153.506 -83.7626C-154.209 -83.14 -154.936 -82.1556 -155.693 -80.8615L-154.526 -80.1785ZM-152.608 -82.7504C-152.087 -83.2135 -151.48 -83.4436 -150.753 -83.4436V-84.7964C-151.803 -84.7964 -152.732 -84.4505 -153.507 -83.7616L-152.608 -82.7504ZM-150.753 -83.4436C-150.427 -83.4436 -150.129 -83.3864 -149.853 -83.276L-149.35 -84.532C-149.794 -84.7097 -150.264 -84.7964 -150.753 -84.7964V-83.4436ZM-149.853 -83.276C-149.552 -83.1555 -149.09 -82.9065 -148.45 -82.5036L-147.729 -83.6484C-148.385 -84.0615 -148.931 -84.3645 -149.35 -84.532L-149.853 -83.276ZM-148.45 -82.5036C-147.802 -82.096 -147.353 -81.8163 -147.105 -81.668L-146.409 -82.828C-146.642 -82.9677 -147.08 -83.24 -147.729 -83.6484L-148.45 -82.5036ZM-147.037 -81.6322C-146.694 -81.4762 -146.335 -81.3916 -145.965 -81.3916V-82.7444C-146.124 -82.7444 -146.293 -82.7798 -146.478 -82.8638L-147.037 -81.6322ZM-145.965 -81.3916C-145.378 -81.3916 -144.858 -81.6066 -144.443 -82.0217L-145.4 -82.9783C-145.561 -82.8174 -145.736 -82.7444 -145.965 -82.7444V-81.3916ZM-144.424 -82.0412C-144.1 -82.3928 -143.644 -83.0054 -143.068 -83.8455L-144.183 -84.6105C-144.759 -83.7706 -145.167 -83.2312 -145.418 -82.9588L-144.424 -82.0412ZM-144.033 -83.688L-141.981 -82.14L-141.166 -83.22L-143.218 -84.768L-144.033 -83.688ZM-142.157 -83.0215C-142.887 -81.7743 -143.54 -80.9206 -144.111 -80.4136L-143.212 -79.4024C-142.486 -80.0474 -141.748 -81.0417 -140.99 -82.3385L-142.157 -83.0215ZM-144.11 -80.4146C-144.601 -79.9796 -145.195 -79.7564 -145.929 -79.7564V-78.4036C-144.888 -78.4036 -143.969 -78.7324 -143.213 -79.4014L-144.11 -80.4146ZM-145.929 -79.7564C-146.256 -79.7564 -146.554 -79.8136 -146.83 -79.924L-147.333 -78.668C-146.889 -78.4904 -146.419 -78.4036 -145.929 -78.4036V-79.7564ZM-146.83 -79.924C-147.131 -80.0445 -147.593 -80.2935 -148.233 -80.6964L-148.954 -79.5516C-148.298 -79.1385 -147.752 -78.8355 -147.333 -78.668L-146.83 -79.924ZM-148.233 -80.6964C-148.878 -81.1027 -149.37 -81.3903 -149.682 -81.5318L-150.241 -80.3002C-150.025 -80.2017 -149.605 -79.9613 -148.954 -79.5516L-148.233 -80.6964ZM-149.613 -81.496C-149.952 -81.6991 -150.323 -81.8084 -150.717 -81.8084V-80.4556C-150.583 -80.4556 -150.451 -80.4209 -150.309 -80.336L-149.613 -81.496ZM-150.717 -81.8084C-151.323 -81.8084 -151.848 -81.5671 -152.258 -81.1228L-151.264 -80.2052C-151.099 -80.3849 -150.928 -80.4556 -150.717 -80.4556V-81.8084ZM-152.24 -81.1423C-152.577 -80.805 -153.04 -80.1929 -153.615 -79.3545L-152.5 -78.5895C-151.922 -79.4311 -151.522 -79.947 -151.283 -80.1857L-152.24 -81.1423ZM-152.65 -79.512L-154.702 -81.06L-155.517 -79.98L-153.465 -78.432L-152.65 -79.512ZM-122.726 -94.2V-94.8764H-123.402V-94.2H-122.726ZM-111.926 -94.2H-111.249V-94.8764H-111.926V-94.2ZM-111.926 -90.6V-89.9236H-111.249V-90.6H-111.926ZM-118.766 -90.6V-91.2764H-119.442V-90.6H-118.766ZM-118.766 -83.94H-119.442V-83.2636H-118.766V-83.94ZM-113.33 -83.94H-112.653V-84.6164H-113.33V-83.94ZM-113.33 -80.34V-79.6636H-112.653V-80.34H-113.33ZM-118.766 -80.34V-81.0164H-119.442V-80.34H-118.766ZM-118.766 -72.6H-119.442V-71.9236H-118.766V-72.6ZM-111.926 -72.6H-111.249V-73.2764H-111.926V-72.6ZM-111.926 -69V-68.3236H-111.249V-69H-111.926ZM-122.726 -69H-123.402V-68.3236H-122.726V-69ZM-122.726 -93.5236H-111.926V-94.8764H-122.726V-93.5236ZM-112.602 -94.2V-90.6H-111.249V-94.2H-112.602ZM-111.926 -91.2764H-118.766V-89.9236H-111.926V-91.2764ZM-119.442 -90.6V-83.94H-118.089V-90.6H-119.442ZM-118.766 -83.2636H-113.33V-84.6164H-118.766V-83.2636ZM-114.006 -83.94V-80.34H-112.653V-83.94H-114.006ZM-113.33 -81.0164H-118.766V-79.6636H-113.33V-81.0164ZM-119.442 -80.34V-72.6H-118.089V-80.34H-119.442ZM-118.766 -71.9236H-111.926V-73.2764H-118.766V-71.9236ZM-112.602 -72.6V-69H-111.249V-72.6H-112.602ZM-111.926 -69.6764H-122.726V-68.3236H-111.926V-69.6764ZM-122.049 -69V-94.2H-123.402V-69H-122.049ZM-102.844 -70.26L-103.344 -69.8044L-103.338 -69.7985L-102.844 -70.26ZM-102.844 -92.94L-103.338 -93.4016L-103.344 -93.3956L-102.844 -92.94ZM-94.1676 -92.94L-94.6676 -92.4844L-94.6621 -92.4785L-94.1676 -92.94ZM-92.6556 -85.704V-85.0276H-91.9792V-85.704H-92.6556ZM-96.3996 -85.704H-97.076V-85.0276H-96.3996V-85.704ZM-96.3996 -78.396V-79.0724H-97.076V-78.396H-96.3996ZM-92.6556 -78.396H-91.9792V-79.0724H-92.6556V-78.396ZM-94.1676 -70.26L-94.6621 -70.7216L-94.6676 -70.7156L-94.1676 -70.26ZM-98.4876 -69.3164C-100.252 -69.3164 -101.503 -69.8149 -102.349 -70.7215L-103.338 -69.7985C-102.168 -68.5451 -100.515 -67.9636 -98.4876 -67.9636V-69.3164ZM-102.344 -70.7156C-103.18 -71.6331 -103.643 -72.9732 -103.643 -74.832H-104.996C-104.996 -72.7548 -104.476 -71.0469 -103.344 -69.8044L-102.344 -70.7156ZM-103.643 -74.832V-88.368H-104.996V-74.832H-103.643ZM-103.643 -88.368C-103.643 -90.2268 -103.18 -91.5669 -102.344 -92.4844L-103.344 -93.3956C-104.476 -92.1531 -104.996 -90.4452 -104.996 -88.368H-103.643ZM-102.349 -92.4785C-101.503 -93.3851 -100.252 -93.8836 -98.4876 -93.8836V-95.2364C-100.515 -95.2364 -102.168 -94.6549 -103.338 -93.4015L-102.349 -92.4785ZM-98.4876 -93.8836C-96.7219 -93.8836 -95.4879 -93.3848 -94.6676 -92.4844L-93.6676 -93.3956C-94.8152 -94.6552 -96.4613 -95.2364 -98.4876 -95.2364V-93.8836ZM-94.6621 -92.4785C-93.8054 -91.5606 -93.332 -90.2229 -93.332 -88.368H-91.9792C-91.9792 -90.4491 -92.5138 -92.1594 -93.6731 -93.4015L-94.6621 -92.4785ZM-93.332 -88.368V-85.704H-91.9792V-88.368H-93.332ZM-92.6556 -86.3804H-96.3996V-85.0276H-92.6556V-86.3804ZM-95.7232 -85.704V-88.62H-97.076V-85.704H-95.7232ZM-95.7232 -88.62C-95.7232 -89.4792 -95.9026 -90.2498 -96.3782 -90.8119C-96.8722 -91.3957 -97.583 -91.6364 -98.3796 -91.6364V-90.2836C-97.8562 -90.2836 -97.577 -90.1343 -97.411 -89.9381C-97.2266 -89.7202 -97.076 -89.3208 -97.076 -88.62H-95.7232ZM-98.3796 -91.6364C-99.1762 -91.6364 -99.887 -91.3957 -100.381 -90.8119C-100.857 -90.2498 -101.036 -89.4792 -101.036 -88.62H-99.6832C-99.6832 -89.3208 -99.5326 -89.7202 -99.3482 -89.9381C-99.1822 -90.1343 -98.903 -90.2836 -98.3796 -90.2836V-91.6364ZM-101.036 -88.62V-74.544H-99.6832V-88.62H-101.036ZM-101.036 -74.544C-101.036 -73.6947 -100.856 -72.9315 -100.378 -72.3751C-99.8826 -71.7991 -99.1729 -71.5636 -98.3796 -71.5636V-72.9164C-98.9063 -72.9164 -99.1866 -73.0649 -99.3516 -73.2569C-99.5334 -73.4685 -99.6832 -73.8573 -99.6832 -74.544H-101.036ZM-98.3796 -71.5636C-97.5863 -71.5636 -96.8766 -71.7991 -96.3816 -72.3751C-95.9035 -72.9315 -95.7232 -73.6947 -95.7232 -74.544H-97.076C-97.076 -73.8573 -97.2257 -73.4685 -97.4076 -73.2569C-97.5726 -73.0649 -97.8529 -72.9164 -98.3796 -72.9164V-71.5636ZM-95.7232 -74.544V-78.396H-97.076V-74.544H-95.7232ZM-96.3996 -77.7196H-92.6556V-79.0724H-96.3996V-77.7196ZM-93.332 -78.396V-74.832H-91.9792V-78.396H-93.332ZM-93.332 -74.832C-93.332 -72.9771 -93.8054 -71.6394 -94.6621 -70.7215L-93.6731 -69.7985C-92.5138 -71.0406 -91.9792 -72.7509 -91.9792 -74.832H-93.332ZM-94.6676 -70.7156C-95.4879 -69.8152 -96.7219 -69.3164 -98.4876 -69.3164V-67.9636C-96.4613 -67.9636 -94.8152 -68.5448 -93.6676 -69.8044L-94.6676 -70.7156ZM-83.376 -70.296L-82.8819 -70.7579L-83.376 -70.296ZM-83.376 -92.904L-82.8819 -92.4421L-83.376 -92.904ZM-74.448 -92.904L-74.9422 -92.4421L-74.448 -92.904ZM-74.448 -70.296L-74.9422 -70.7579L-74.448 -70.296ZM-78.912 -69.3164C-80.7254 -69.3164 -82.012 -69.8273 -82.8819 -70.7579L-83.8702 -69.8341C-82.6761 -68.5567 -80.9866 -67.9636 -78.912 -67.9636V-69.3164ZM-82.8819 -70.7579C-83.7621 -71.6995 -84.2476 -73.0729 -84.2476 -74.976H-85.6004C-85.6004 -72.8471 -85.054 -71.1005 -83.8702 -69.8341L-82.8819 -70.7579ZM-84.2476 -74.976V-88.224H-85.6004V-74.976H-84.2476ZM-84.2476 -88.224C-84.2476 -90.1271 -83.7621 -91.5005 -82.8819 -92.4421L-83.8702 -93.3659C-85.054 -92.0995 -85.6004 -90.3529 -85.6004 -88.224H-84.2476ZM-82.8819 -92.4421C-82.012 -93.3727 -80.7254 -93.8836 -78.912 -93.8836V-95.2364C-80.9866 -95.2364 -82.6761 -94.6433 -83.8702 -93.3659L-82.8819 -92.4421ZM-78.912 -93.8836C-77.0986 -93.8836 -75.8121 -93.3727 -74.9422 -92.4421L-73.9539 -93.3659C-75.148 -94.6433 -76.8374 -95.2364 -78.912 -95.2364V-93.8836ZM-74.9422 -92.4421C-74.062 -91.5005 -73.5764 -90.1271 -73.5764 -88.224H-72.2236C-72.2236 -90.3529 -72.7701 -92.0995 -73.9539 -93.3659L-74.9422 -92.4421ZM-73.5764 -88.224V-74.976H-72.2236V-88.224H-73.5764ZM-73.5764 -74.976C-73.5764 -73.0729 -74.062 -71.6995 -74.9422 -70.7579L-73.9539 -69.8341C-72.7701 -71.1005 -72.2236 -72.8471 -72.2236 -74.976H-73.5764ZM-74.9422 -70.7579C-75.8121 -69.8273 -77.0986 -69.3164 -78.912 -69.3164V-67.9636C-76.8374 -67.9636 -75.148 -68.5567 -73.9539 -69.8341L-74.9422 -70.7579ZM-78.912 -71.5636C-78.0861 -71.5636 -77.3558 -71.8198 -76.8515 -72.4302C-76.3677 -73.0159 -76.1836 -73.8198 -76.1836 -74.724H-77.5365C-77.5365 -73.9722 -77.6944 -73.5341 -77.8945 -73.2918C-78.0742 -73.0742 -78.3699 -72.9164 -78.912 -72.9164V-71.5636ZM-76.1836 -74.724V-88.476H-77.5365V-74.724H-76.1836ZM-76.1836 -88.476C-76.1836 -89.3802 -76.3677 -90.1841 -76.8515 -90.7698C-77.3558 -91.3802 -78.0861 -91.6364 -78.912 -91.6364V-90.2836C-78.3699 -90.2836 -78.0742 -90.1258 -77.8945 -89.9082C-77.6944 -89.6659 -77.5365 -89.2278 -77.5365 -88.476H-76.1836ZM-78.912 -91.6364C-79.738 -91.6364 -80.4682 -91.3802 -80.9725 -90.7698C-81.4564 -90.1841 -81.6404 -89.3802 -81.6404 -88.476H-80.2876C-80.2876 -89.2278 -80.1297 -89.6659 -79.9295 -89.9082C-79.7498 -90.1258 -79.4541 -90.2836 -78.912 -90.2836V-91.6364ZM-81.6404 -88.476V-74.724H-80.2876V-88.476H-81.6404ZM-81.6404 -74.724C-81.6404 -73.8198 -81.4564 -73.0159 -80.9725 -72.4302C-80.4682 -71.8198 -79.738 -71.5636 -78.912 -71.5636V-72.9164C-79.4541 -72.9164 -79.7498 -73.0742 -79.9295 -73.2918C-80.1297 -73.5341 -80.2876 -73.9722 -80.2876 -74.724H-81.6404ZM-63.5569 -69L-62.909 -68.8056L-62.6478 -69.6764H-63.5569V-69ZM-64.8529 -69H-65.5293V-68.3236H-64.8529V-69ZM-64.8529 -72.816V-73.4924H-65.5293V-72.816H-64.8529ZM-61.0369 -72.816H-60.3605V-73.4924H-61.0369V-72.816ZM-61.0369 -69.396L-60.4132 -69.1341L-60.3605 -69.2598V-69.396H-61.0369ZM-63.0169 -64.68V-64.0036H-62.5673L-62.3932 -64.4182L-63.0169 -64.68ZM-64.8529 -64.68L-65.5008 -64.8744L-65.762 -64.0036H-64.8529V-64.68ZM-63.5569 -69.6764H-64.8529V-68.3236H-63.5569V-69.6764ZM-64.1765 -69V-72.816H-65.5293V-69H-64.1765ZM-64.8529 -72.1396H-61.0369V-73.4924H-64.8529V-72.1396ZM-61.7133 -72.816V-69.396H-60.3605V-72.816H-61.7133ZM-61.6606 -69.6579L-63.6406 -64.9418L-62.3932 -64.4182L-60.4132 -69.1341L-61.6606 -69.6579ZM-63.0169 -65.3564H-64.8529V-64.0036H-63.0169V-65.3564ZM-64.205 -64.4856L-62.909 -68.8056L-64.2048 -69.1944L-65.5008 -64.8744L-64.205 -64.4856ZM-242.732 -27.26L-243.237 -26.8099L-243.232 -26.8044L-242.732 -27.26ZM-244.208 -33.416V-34.0924H-244.884V-33.416H-244.208ZM-240.464 -33.416H-239.788V-34.0924H-240.464V-33.416ZM-236.9 -29.816L-237.407 -30.2635L-237.409 -30.2614L-236.9 -29.816ZM-237.08 -34.532L-237.663 -34.189L-237.658 -34.1814L-237.08 -34.532ZM-239.744 -37.448L-240.192 -36.9408L-240.188 -36.9378L-239.744 -37.448ZM-243.164 -41.336L-243.756 -41.0095L-243.754 -41.0044L-243.164 -41.336ZM-242.624 -49.904L-242.129 -49.4424L-242.124 -49.4479L-242.624 -49.904ZM-233.948 -49.904L-234.458 -49.4602L-234.453 -49.4542L-234.448 -49.4484L-233.948 -49.904ZM-232.472 -44.18V-43.5036H-231.796V-44.18H-232.472ZM-236.216 -44.18H-236.892V-43.5036H-236.216V-44.18ZM-236.72 -47.348L-237.242 -46.918L-237.236 -46.9102L-237.229 -46.9026L-236.72 -47.348ZM-239.456 -42.992L-240.034 -42.6414L-240.031 -42.6351L-240.027 -42.6288L-239.456 -42.992ZM-236.756 -40.112L-237.2 -39.6018L-237.2 -39.6016L-236.756 -40.112ZM-233.336 -36.188L-233.934 -35.871L-233.336 -36.188ZM-233.948 -27.296L-234.442 -27.7579L-234.448 -27.7521L-233.948 -27.296ZM-238.376 -26.3164C-240.169 -26.3164 -241.413 -26.8169 -242.232 -27.7156L-243.232 -26.8044C-242.083 -25.5431 -240.423 -24.9636 -238.376 -24.9636V-26.3164ZM-242.227 -27.7101C-243.065 -28.65 -243.532 -30.0388 -243.532 -31.976H-244.884C-244.884 -29.8332 -244.367 -28.078 -243.237 -26.8099L-242.227 -27.7101ZM-243.532 -31.976V-33.416H-244.884V-31.976H-243.532ZM-244.208 -32.7396H-240.464V-34.0924H-244.208V-32.7396ZM-241.14 -33.416V-31.688H-239.788V-33.416H-241.14ZM-241.14 -31.688C-241.14 -30.794 -240.956 -29.9975 -240.469 -29.4175C-239.964 -28.8146 -239.235 -28.5636 -238.412 -28.5636V-29.9164C-238.957 -29.9164 -239.254 -30.0734 -239.433 -30.2865C-239.63 -30.5225 -239.788 -30.95 -239.788 -31.688H-241.14ZM-238.412 -28.5636C-237.611 -28.5636 -236.893 -28.7968 -236.391 -29.3706L-237.409 -30.2614C-237.579 -30.0672 -237.869 -29.9164 -238.412 -29.9164V-28.5636ZM-236.393 -29.3685C-235.873 -29.9576 -235.684 -30.8048 -235.684 -31.76H-237.036C-237.036 -30.9392 -237.207 -30.4904 -237.407 -30.2635L-236.393 -29.3685ZM-235.684 -31.76C-235.684 -32.9219 -235.949 -33.9707 -236.502 -34.8826L-237.658 -34.1814C-237.251 -33.5093 -237.036 -32.7101 -237.036 -31.76H-235.684ZM-236.497 -34.875C-237.033 -35.7856 -237.986 -36.8147 -239.3 -37.9582L-240.188 -36.9378C-238.91 -35.8253 -238.087 -34.9104 -237.663 -34.189L-236.497 -34.875ZM-239.296 -37.9552C-240.903 -39.3731 -241.98 -40.6106 -242.574 -41.6676L-243.754 -41.0044C-243.052 -39.7574 -241.849 -38.4029 -240.192 -36.9408L-239.296 -37.9552ZM-242.572 -41.6624C-243.16 -42.7296 -243.46 -43.9356 -243.46 -45.296H-244.812C-244.812 -43.7284 -244.464 -42.2944 -243.756 -41.0096L-242.572 -41.6624ZM-243.46 -45.296C-243.46 -47.1775 -242.985 -48.526 -242.13 -49.4425L-243.118 -50.3655C-244.279 -49.122 -244.812 -47.3985 -244.812 -45.296H-243.46ZM-242.124 -49.4479C-241.279 -50.3741 -240.019 -50.8836 -238.232 -50.8836V-52.2364C-240.285 -52.2364 -241.953 -51.6419 -243.124 -50.3601L-242.124 -49.4479ZM-238.232 -50.8836C-236.47 -50.8836 -235.254 -50.3754 -234.458 -49.4602L-233.438 -50.3479C-234.562 -51.6406 -236.202 -52.2364 -238.232 -52.2364V-50.8836ZM-234.448 -49.4484C-233.616 -48.5349 -233.148 -47.1624 -233.148 -45.224H-231.796C-231.796 -47.3656 -232.312 -49.1131 -233.448 -50.3596L-234.448 -49.4484ZM-233.148 -45.224V-44.18H-231.796V-45.224H-233.148ZM-232.472 -44.8564H-236.216V-43.5036H-232.472V-44.8564ZM-235.54 -44.18V-45.476H-236.892V-44.18H-235.54ZM-235.54 -45.476C-235.54 -46.3992 -235.714 -47.2253 -236.211 -47.7934L-237.229 -46.9026C-237.054 -46.7027 -236.892 -46.2808 -236.892 -45.476H-235.54ZM-236.198 -47.778C-236.691 -48.377 -237.396 -48.6364 -238.196 -48.6364V-47.2836C-237.7 -47.2836 -237.421 -47.135 -237.242 -46.918L-236.198 -47.778ZM-238.196 -48.6364C-238.999 -48.6364 -239.712 -48.3853 -240.204 -47.7862C-240.675 -47.2126 -240.852 -46.4274 -240.852 -45.548H-239.5C-239.5 -46.2766 -239.347 -46.6974 -239.158 -46.9278C-238.99 -47.1327 -238.713 -47.2836 -238.196 -47.2836V-48.6364ZM-240.852 -45.548C-240.852 -44.5104 -240.577 -43.5374 -240.034 -42.6414L-238.878 -43.3426C-239.295 -44.0306 -239.5 -44.7616 -239.5 -45.548H-240.852ZM-240.027 -42.6288C-239.47 -41.7541 -238.512 -40.7433 -237.2 -39.6018L-236.312 -40.6222C-237.592 -41.7367 -238.434 -42.6459 -238.885 -43.3552L-240.027 -42.6288ZM-237.2 -39.6016C-235.571 -38.1854 -234.501 -36.9413 -233.934 -35.871L-232.738 -36.5051C-233.419 -37.7867 -234.629 -39.1586 -236.312 -40.6224L-237.2 -39.6016ZM-233.934 -35.871C-233.37 -34.8095 -233.076 -33.5424 -233.076 -32.048H-231.724C-231.724 -33.7216 -232.054 -35.2145 -232.738 -36.5051L-233.934 -35.871ZM-233.076 -32.048C-233.076 -30.0919 -233.564 -28.6968 -234.442 -27.7579L-233.454 -26.8341C-232.268 -28.1032 -231.724 -29.8761 -231.724 -32.048H-233.076ZM-234.448 -27.7521C-235.292 -26.8276 -236.562 -26.3164 -238.376 -26.3164V-24.9636C-236.302 -24.9636 -234.62 -25.5564 -233.448 -26.8399L-234.448 -27.7521ZM-224.549 -51.2V-51.8764H-225.226V-51.2H-224.549ZM-213.749 -51.2H-213.073V-51.8764H-213.749V-51.2ZM-213.749 -47.6V-46.9236H-213.073V-47.6H-213.749ZM-220.589 -47.6V-48.2764H-221.266V-47.6H-220.589ZM-220.589 -40.94H-221.266V-40.2636H-220.589V-40.94ZM-215.153 -40.94H-214.477V-41.6164H-215.153V-40.94ZM-215.153 -37.34V-36.6636H-214.477V-37.34H-215.153ZM-220.589 -37.34V-38.0164H-221.266V-37.34H-220.589ZM-220.589 -29.6H-221.266V-28.9236H-220.589V-29.6ZM-213.749 -29.6H-213.073V-30.2764H-213.749V-29.6ZM-213.749 -26V-25.3236H-213.073V-26H-213.749ZM-224.549 -26H-225.226V-25.3236H-224.549V-26ZM-224.549 -50.5236H-213.749V-51.8764H-224.549V-50.5236ZM-214.426 -51.2V-47.6H-213.073V-51.2H-214.426ZM-213.749 -48.2764H-220.589V-46.9236H-213.749V-48.2764ZM-221.266 -47.6V-40.94H-219.913V-47.6H-221.266ZM-220.589 -40.2636H-215.153V-41.6164H-220.589V-40.2636ZM-215.83 -40.94V-37.34H-214.477V-40.94H-215.83ZM-215.153 -38.0164H-220.589V-36.6636H-215.153V-38.0164ZM-221.266 -37.34V-29.6H-219.913V-37.34H-221.266ZM-220.589 -28.9236H-213.749V-30.2764H-220.589V-28.9236ZM-214.426 -29.6V-26H-213.073V-29.6H-214.426ZM-213.749 -26.6764H-224.549V-25.3236H-213.749V-26.6764ZM-223.873 -26V-51.2H-225.226V-26H-223.873ZM-205.891 -51.2V-51.8764H-206.568V-51.2H-205.891ZM-201.931 -51.2H-201.255V-51.8764H-201.931V-51.2ZM-201.931 -29.6H-202.608V-28.9236H-201.931V-29.6ZM-195.415 -29.6H-194.739V-30.2764H-195.415V-29.6ZM-195.415 -26V-25.3236H-194.739V-26H-195.415ZM-205.891 -26H-206.568V-25.3236H-205.891V-26ZM-205.891 -50.5236H-201.931V-51.8764H-205.891V-50.5236ZM-202.608 -51.2V-29.6H-201.255V-51.2H-202.608ZM-201.931 -28.9236H-195.415V-30.2764H-201.931V-28.9236ZM-196.092 -29.6V-26H-194.739V-29.6H-196.092ZM-195.415 -26.6764H-205.891V-25.3236H-195.415V-26.6764ZM-205.215 -26V-51.2H-206.568V-26H-205.215ZM-187.936 -51.2V-51.8764H-188.613V-51.2H-187.936ZM-177.46 -51.2H-176.784V-51.8764H-177.46V-51.2ZM-177.46 -47.6V-46.9236H-176.784V-47.6H-177.46ZM-183.976 -47.6V-48.2764H-184.653V-47.6H-183.976ZM-183.976 -40.58H-184.653V-39.9036H-183.976V-40.58ZM-178.864 -40.58H-178.188V-41.2564H-178.864V-40.58ZM-178.864 -36.98V-36.3036H-178.188V-36.98H-178.864ZM-183.976 -36.98V-37.6564H-184.653V-36.98H-183.976ZM-183.976 -26V-25.3236H-183.3V-26H-183.976ZM-187.936 -26H-188.613V-25.3236H-187.936V-26ZM-187.936 -50.5236H-177.46V-51.8764H-187.936V-50.5236ZM-178.137 -51.2V-47.6H-176.784V-51.2H-178.137ZM-177.46 -48.2764H-183.976V-46.9236H-177.46V-48.2764ZM-184.653 -47.6V-40.58H-183.3V-47.6H-184.653ZM-183.976 -39.9036H-178.864V-41.2564H-183.976V-39.9036ZM-179.541 -40.58V-36.98H-178.188V-40.58H-179.541ZM-178.864 -37.6564H-183.976V-36.3036H-178.864V-37.6564ZM-184.653 -36.98V-26H-183.3V-36.98H-184.653ZM-183.976 -26.6764H-187.936V-25.3236H-183.976V-26.6764ZM-187.26 -26V-51.2H-188.613V-26H-187.26ZM-170.733 -40.4V-41.0764H-171.41V-40.4H-170.733ZM-162.813 -40.4H-162.137V-41.0764H-162.813V-40.4ZM-162.813 -36.8V-36.1236H-162.137V-36.8H-162.813ZM-170.733 -36.8H-171.41V-36.1236H-170.733V-36.8ZM-170.733 -39.7236H-162.813V-41.0764H-170.733V-39.7236ZM-163.49 -40.4V-36.8H-162.137V-40.4H-163.49ZM-162.813 -37.4764H-170.733V-36.1236H-162.813V-37.4764ZM-170.057 -36.8V-40.4H-171.41V-36.8H-170.057ZM-155.81 -51.2V-51.8764H-156.558L-156.483 -51.1317L-155.81 -51.2ZM-151.994 -51.2L-151.32 -51.2614L-151.376 -51.8764H-151.994V-51.2ZM-150.23 -31.832L-150.904 -31.7706L-150.848 -31.1556H-150.23V-31.832ZM-150.158 -31.832V-31.1556H-149.544L-149.485 -31.7669L-150.158 -31.832ZM-148.286 -51.2V-51.8764H-148.9L-148.959 -51.2651L-148.286 -51.2ZM-143.966 -51.2L-143.293 -51.2651L-143.352 -51.8764H-143.966V-51.2ZM-142.094 -31.832L-142.767 -31.7669L-142.708 -31.1556H-142.094V-31.832ZM-142.022 -31.832V-31.1556H-141.404L-141.348 -31.7706L-142.022 -31.832ZM-140.258 -51.2V-51.8764H-140.876L-140.932 -51.2614L-140.258 -51.2ZM-136.838 -51.2L-136.165 -51.1317L-136.09 -51.8764H-136.838V-51.2ZM-139.394 -26V-25.3236H-138.783L-138.721 -25.9317L-139.394 -26ZM-144.326 -26L-144.999 -25.9287L-144.935 -25.3236H-144.326V-26ZM-146.126 -42.992L-145.453 -43.0633L-145.517 -43.6684H-146.126V-42.992ZM-146.198 -42.992V-43.6684H-146.807L-146.871 -43.0633L-146.198 -42.992ZM-147.998 -26V-25.3236H-147.389L-147.325 -25.9287L-147.998 -26ZM-153.254 -26L-153.927 -25.9317L-153.865 -25.3236H-153.254V-26ZM-155.81 -50.5236H-151.994V-51.8764H-155.81V-50.5236ZM-152.668 -51.1386L-150.904 -31.7706L-149.556 -31.8934L-151.32 -51.2614L-152.668 -51.1386ZM-150.23 -31.1556H-150.158V-32.5084H-150.23V-31.1556ZM-149.485 -31.7669L-147.613 -51.1349L-148.959 -51.2651L-150.831 -31.8971L-149.485 -31.7669ZM-148.286 -50.5236H-143.966V-51.8764H-148.286V-50.5236ZM-144.639 -51.1349L-142.767 -31.7669L-141.421 -31.8971L-143.293 -51.2651L-144.639 -51.1349ZM-142.094 -31.1556H-142.022V-32.5084H-142.094V-31.1556ZM-141.348 -31.7706L-139.584 -51.1386L-140.932 -51.2614L-142.696 -31.8934L-141.348 -31.7706ZM-140.258 -50.5236H-136.838V-51.8764H-140.258V-50.5236ZM-137.511 -51.2683L-140.067 -26.0683L-138.721 -25.9317L-136.165 -51.1317L-137.511 -51.2683ZM-139.394 -26.6764H-144.326V-25.3236H-139.394V-26.6764ZM-143.653 -26.0713L-145.453 -43.0633L-146.799 -42.9207L-144.999 -25.9287L-143.653 -26.0713ZM-146.126 -43.6684H-146.198V-42.3156H-146.126V-43.6684ZM-146.871 -43.0633L-148.671 -26.0713L-147.325 -25.9287L-145.525 -42.9207L-146.871 -43.0633ZM-147.998 -26.6764H-153.254V-25.3236H-147.998V-26.6764ZM-152.581 -26.0683L-155.137 -51.2683L-156.483 -51.1317L-153.927 -25.9317L-152.581 -26.0683ZM-126.687 -51.2V-51.8764H-127.262L-127.355 -51.3087L-126.687 -51.2ZM-121.323 -51.2L-120.656 -51.3087L-120.748 -51.8764H-121.323V-51.2ZM-117.219 -26V-25.3236H-116.424L-116.552 -26.1087L-117.219 -26ZM-121.179 -26L-121.849 -25.9037L-121.765 -25.3236H-121.179V-26ZM-121.899 -31.004L-121.23 -31.1003L-122.576 -31.004H-121.899ZM-121.899 -30.932V-30.2556H-121.223V-30.932H-121.899ZM-126.399 -30.932V-31.6084H-126.984L-127.068 -31.0297L-126.399 -30.932ZM-127.119 -26V-25.3236H-126.534L-126.45 -25.9023L-127.119 -26ZM-130.791 -26L-131.459 -26.1087L-131.587 -25.3236H-130.791V-26ZM-122.367 -34.352V-33.6756H-121.588L-121.697 -34.4468L-122.367 -34.352ZM-124.131 -46.808L-123.461 -46.9028L-123.544 -47.4844H-124.131V-46.808ZM-124.203 -46.808V-47.4844H-124.792L-124.873 -46.9009L-124.203 -46.808ZM-125.931 -34.352L-126.601 -34.4449L-126.708 -33.6756H-125.931V-34.352ZM-126.687 -50.5236H-121.323V-51.8764H-126.687V-50.5236ZM-121.991 -51.0913L-117.887 -25.8913L-116.552 -26.1087L-120.656 -51.3087L-121.991 -51.0913ZM-117.219 -26.6764H-121.179V-25.3236H-117.219V-26.6764ZM-120.51 -26.0963L-121.23 -31.1003L-122.569 -30.9077L-121.849 -25.9037L-120.51 -26.0963ZM-122.576 -31.004V-30.932H-121.223V-31.004H-122.576ZM-121.899 -31.6084H-126.399V-30.2556H-121.899V-31.6084ZM-127.068 -31.0297L-127.788 -26.0977L-126.45 -25.9023L-125.73 -30.8343L-127.068 -31.0297ZM-127.119 -26.6764H-130.791V-25.3236H-127.119V-26.6764ZM-130.124 -25.8913L-126.02 -51.0913L-127.355 -51.3087L-131.459 -26.1087L-130.124 -25.8913ZM-121.697 -34.4468L-123.461 -46.9028L-124.801 -46.7132L-123.037 -34.2572L-121.697 -34.4468ZM-124.131 -47.4844H-124.203V-46.1316H-124.131V-47.4844ZM-124.873 -46.9009L-126.601 -34.4449L-125.261 -34.259L-123.533 -46.7151L-124.873 -46.9009ZM-125.931 -33.6756H-122.367V-35.0284H-125.931V-33.6756ZM-108.274 -47.6H-107.598V-48.2764H-108.274V-47.6ZM-112.414 -47.6H-113.091V-46.9236H-112.414V-47.6ZM-112.414 -51.2V-51.8764H-113.091V-51.2H-112.414ZM-100.174 -51.2H-99.4978V-51.8764H-100.174V-51.2ZM-100.174 -47.6V-46.9236H-99.4978V-47.6H-100.174ZM-104.314 -47.6V-48.2764H-104.991V-47.6H-104.314ZM-104.314 -26V-25.3236H-103.638V-26H-104.314ZM-108.274 -26H-108.951V-25.3236H-108.274V-26ZM-108.274 -48.2764H-112.414V-46.9236H-108.274V-48.2764ZM-111.738 -47.6V-51.2H-113.091V-47.6H-111.738ZM-112.414 -50.5236H-100.174V-51.8764H-112.414V-50.5236ZM-100.851 -51.2V-47.6H-99.4978V-51.2H-100.851ZM-100.174 -48.2764H-104.314V-46.9236H-100.174V-48.2764ZM-104.991 -47.6V-26H-103.638V-47.6H-104.991ZM-104.314 -26.6764H-108.274V-25.3236H-104.314V-26.6764ZM-107.598 -26V-47.6H-108.951V-26H-107.598ZM-92.677 -51.2V-51.8764H-93.3534V-51.2H-92.677ZM-81.877 -51.2H-81.2005V-51.8764H-81.877V-51.2ZM-81.877 -47.6V-46.9236H-81.2005V-47.6H-81.877ZM-88.717 -47.6V-48.2764H-89.3934V-47.6H-88.717ZM-88.717 -40.94H-89.3934V-40.2636H-88.717V-40.94ZM-83.281 -40.94H-82.6046V-41.6164H-83.281V-40.94ZM-83.281 -37.34V-36.6636H-82.6046V-37.34H-83.281ZM-88.717 -37.34V-38.0164H-89.3934V-37.34H-88.717ZM-88.717 -29.6H-89.3934V-28.9236H-88.717V-29.6ZM-81.877 -29.6H-81.2005V-30.2764H-81.877V-29.6ZM-81.877 -26V-25.3236H-81.2005V-26H-81.877ZM-92.677 -26H-93.3534V-25.3236H-92.677V-26ZM-92.677 -50.5236H-81.877V-51.8764H-92.677V-50.5236ZM-82.5534 -51.2V-47.6H-81.2005V-51.2H-82.5534ZM-81.877 -48.2764H-88.717V-46.9236H-81.877V-48.2764ZM-89.3934 -47.6V-40.94H-88.0406V-47.6H-89.3934ZM-88.717 -40.2636H-83.281V-41.6164H-88.717V-40.2636ZM-83.9574 -40.94V-37.34H-82.6046V-40.94H-83.9574ZM-83.281 -38.0164H-88.717V-36.6636H-83.281V-38.0164ZM-89.3934 -37.34V-29.6H-88.0406V-37.34H-89.3934ZM-88.717 -28.9236H-81.877V-30.2764H-88.717V-28.9236ZM-82.5534 -29.6V-26H-81.2005V-29.6H-82.5534ZM-81.877 -26.6764H-92.677V-25.3236H-81.877V-26.6764ZM-92.0005 -26V-51.2H-93.3534V-26H-92.0005ZM-74.0188 -51.2V-51.8764H-74.6953V-51.2H-74.0188ZM-63.6868 -49.76L-64.1712 -49.2878L-64.1651 -49.2817L-63.6868 -49.76ZM-64.8748 -38.888L-65.1276 -39.5154L-65.5513 -39.3448V-38.888H-64.8748ZM-64.8748 -38.816H-65.5513V-38.3127L-65.0692 -38.1681L-64.8748 -38.816ZM-62.8588 -37.052L-63.4797 -36.7835L-63.4767 -36.7765L-63.4735 -36.7696L-62.8588 -37.052ZM-62.1748 -27.296L-62.8475 -27.2252L-62.8471 -27.2213L-62.1748 -27.296ZM-61.8148 -26V-25.3236H-60.774L-61.1967 -26.2747L-61.8148 -26ZM-65.8468 -26L-66.4847 -25.7749L-66.3254 -25.3236H-65.8468V-26ZM-66.7828 -36.116L-67.3138 -35.6969L-67.3071 -35.6885L-67.3002 -35.6803L-66.7828 -36.116ZM-70.0588 -36.8V-37.4764H-70.7353V-36.8H-70.0588ZM-70.0588 -26V-25.3236H-69.3824V-26H-70.0588ZM-74.0188 -26H-74.6953V-25.3236H-74.0188V-26ZM-66.8548 -41.012L-67.3331 -41.4903L-67.3404 -41.4831L-67.3474 -41.4756L-66.8548 -41.012ZM-66.7468 -46.988L-67.2842 -46.5771L-67.2767 -46.5674L-67.269 -46.558L-66.7468 -46.988ZM-70.0588 -47.6V-48.2764H-70.7353V-47.6H-70.0588ZM-70.0588 -40.4H-70.7353V-39.7236H-70.0588V-40.4ZM-74.0188 -50.5236H-68.1508V-51.8764H-74.0188V-50.5236ZM-68.1508 -50.5236C-66.1994 -50.5236 -64.9266 -50.0626 -64.1712 -49.2878L-63.2025 -50.2322C-64.3191 -51.3774 -66.0223 -51.8764 -68.1508 -51.8764V-50.5236ZM-64.1651 -49.2817C-63.4063 -48.5229 -62.9593 -47.2792 -62.9593 -45.404H-61.6064C-61.6064 -47.4648 -62.0954 -49.1251 -63.2085 -50.2383L-64.1651 -49.2817ZM-62.9593 -45.404V-43.856H-61.6064V-45.404H-62.9593ZM-62.9593 -43.856C-62.9593 -42.6158 -63.165 -41.6654 -63.5305 -40.9649C-63.8882 -40.2793 -64.4134 -39.8031 -65.1276 -39.5154L-64.6221 -38.2606C-63.6083 -38.6689 -62.8374 -39.3687 -62.3311 -40.3391C-61.8327 -41.2946 -61.6064 -42.4802 -61.6064 -43.856H-62.9593ZM-65.5513 -38.888V-38.816H-64.1984V-38.888H-65.5513ZM-65.0692 -38.1681C-64.2925 -37.9351 -63.7812 -37.4809 -63.4797 -36.7835L-62.238 -37.3205C-62.7044 -38.3991 -63.5372 -39.1209 -64.6805 -39.4639L-65.0692 -38.1681ZM-63.4735 -36.7696C-63.1218 -36.0042 -62.9233 -34.9246 -62.9233 -33.488H-61.5704C-61.5704 -35.0274 -61.7798 -36.3238 -62.2442 -37.3344L-63.4735 -36.7696ZM-62.9233 -33.488V-29.06H-61.5704V-33.488H-62.9233ZM-62.9233 -29.06C-62.9233 -28.328 -62.899 -27.714 -62.8475 -27.2252L-61.5021 -27.3668C-61.5467 -27.79 -61.5704 -28.352 -61.5704 -29.06H-62.9233ZM-62.8471 -27.2213C-62.7908 -26.7145 -62.6507 -26.2152 -62.433 -25.7253L-61.1967 -26.2747C-61.363 -26.6488 -61.4629 -27.0135 -61.5026 -27.3707L-62.8471 -27.2213ZM-61.8148 -26.6764H-65.8468V-25.3236H-61.8148V-26.6764ZM-65.209 -26.2251C-65.3403 -26.5972 -65.4236 -26.9354 -65.4644 -27.2414L-66.8053 -27.0626C-66.7501 -26.6486 -66.6414 -26.2188 -66.4847 -25.7749L-65.209 -26.2251ZM-65.4644 -27.2414C-65.5057 -27.5513 -65.5304 -28.1576 -65.5304 -29.096H-66.8833C-66.8833 -28.1624 -66.86 -27.4727 -66.8053 -27.0626L-65.4644 -27.2414ZM-65.5304 -29.096V-33.704H-66.8833V-29.096H-65.5304ZM-65.5304 -33.704C-65.5304 -34.8872 -65.7188 -35.9025 -66.2654 -36.5517L-67.3002 -35.6803C-67.0789 -35.4175 -66.8833 -34.8248 -66.8833 -33.704H-65.5304ZM-66.2519 -36.5351C-66.7992 -37.2284 -67.6907 -37.4764 -68.6908 -37.4764V-36.1236C-67.867 -36.1236 -67.4865 -35.9156 -67.3138 -35.6969L-66.2519 -36.5351ZM-68.6908 -37.4764H-70.0588V-36.1236H-68.6908V-37.4764ZM-70.7353 -36.8V-26H-69.3824V-36.8H-70.7353ZM-70.0588 -26.6764H-74.0188V-25.3236H-70.0588V-26.6764ZM-73.3424 -26V-51.2H-74.6953V-26H-73.3424ZM-68.6188 -39.7236C-67.7191 -39.7236 -66.9196 -39.9563 -66.3623 -40.5484L-67.3474 -41.4756C-67.5581 -41.2517 -67.9346 -41.0764 -68.6188 -41.0764V-39.7236ZM-66.3765 -40.5337C-65.7796 -41.1306 -65.5664 -42.0373 -65.5664 -43.064H-66.9193C-66.9193 -42.1707 -67.1141 -41.7094 -67.3331 -41.4903L-66.3765 -40.5337ZM-65.5664 -43.064V-45.008H-66.9193V-43.064H-65.5664ZM-65.5664 -45.008C-65.5664 -45.9737 -65.7387 -46.8279 -66.2247 -47.418L-67.269 -46.558C-67.0829 -46.3321 -66.9193 -45.8663 -66.9193 -45.008H-65.5664ZM-66.2095 -47.3989C-66.6915 -48.0292 -67.4325 -48.2764 -68.2588 -48.2764V-46.9236C-67.6931 -46.9236 -67.4262 -46.7628 -67.2842 -46.5771L-66.2095 -47.3989ZM-68.2588 -48.2764H-70.0588V-46.9236H-68.2588V-48.2764ZM-70.7353 -47.6V-40.4H-69.3824V-47.6H-70.7353ZM-70.0588 -39.7236H-68.6188V-41.0764H-70.0588V-39.7236ZM-53.9193 -51.2V-51.8764H-54.5957V-51.2H-53.9193ZM-49.9593 -51.2H-49.2829V-51.8764H-49.9593V-51.2ZM-49.9593 -26V-25.3236H-49.2829V-26H-49.9593ZM-53.9193 -26H-54.5957V-25.3236H-53.9193V-26ZM-53.9193 -50.5236H-49.9593V-51.8764H-53.9193V-50.5236ZM-50.6357 -51.2V-26H-49.2829V-51.2H-50.6357ZM-49.9593 -26.6764H-53.9193V-25.3236H-49.9593V-26.6764ZM-53.2429 -26V-51.2H-54.5957V-26H-53.2429ZM-41.4135 -51.2V-51.8764H-42.09V-51.2H-41.4135ZM-36.4455 -51.2L-35.7901 -51.3674L-35.9201 -51.8764H-36.4455V-51.2ZM-32.5935 -36.116L-33.2489 -35.9486L-33.1189 -35.4396H-32.5935V-36.116ZM-32.5215 -36.116V-35.4396H-31.8451V-36.116H-32.5215ZM-32.5215 -51.2V-51.8764H-33.1979V-51.2H-32.5215ZM-28.9935 -51.2H-28.3171V-51.8764H-28.9935V-51.2ZM-28.9935 -26V-25.3236H-28.3171V-26H-28.9935ZM-33.0615 -26L-33.7164 -25.8308L-33.5854 -25.3236H-33.0615V-26ZM-37.8135 -44.396L-37.1586 -44.5652L-37.2896 -45.0724H-37.8135V-44.396ZM-37.8855 -44.396V-45.0724H-38.5619V-44.396H-37.8855ZM-37.8855 -26V-25.3236H-37.2091V-26H-37.8855ZM-41.4135 -26H-42.09V-25.3236H-41.4135V-26ZM-41.4135 -50.5236H-36.4455V-51.8764H-41.4135V-50.5236ZM-37.1009 -51.0326L-33.2489 -35.9486L-31.9381 -36.2834L-35.7901 -51.3674L-37.1009 -51.0326ZM-32.5935 -35.4396H-32.5215V-36.7924H-32.5935V-35.4396ZM-31.8451 -36.116V-51.2H-33.1979V-36.116H-31.8451ZM-32.5215 -50.5236H-28.9935V-51.8764H-32.5215V-50.5236ZM-29.6699 -51.2V-26H-28.3171V-51.2H-29.6699ZM-28.9935 -26.6764H-33.0615V-25.3236H-28.9935V-26.6764ZM-32.4066 -26.1692L-37.1586 -44.5652L-38.4684 -44.2268L-33.7164 -25.8308L-32.4066 -26.1692ZM-37.8135 -45.0724H-37.8855V-43.7196H-37.8135V-45.0724ZM-38.5619 -44.396V-26H-37.2091V-44.396H-38.5619ZM-37.8855 -26.6764H-41.4135V-25.3236H-37.8855V-26.6764ZM-40.7371 -26V-51.2H-42.09V-26H-40.7371ZM-19.2463 -27.26L-19.7458 -26.8039L-19.7408 -26.7985L-19.2463 -27.26ZM-19.2463 -49.904L-18.7517 -49.4424L-18.7467 -49.4479L-19.2463 -49.904ZM-10.4623 -49.904L-10.9618 -49.4479L-10.9568 -49.4425L-10.4623 -49.904ZM-8.95026 -43.064V-42.3876H-8.27383V-43.064H-8.95026ZM-12.6943 -43.064H-13.3707V-42.3876H-12.6943V-43.064ZM-12.6943 -36.62H-12.0178V-37.2964H-12.6943V-36.62ZM-14.6743 -36.62H-15.3507V-35.9436H-14.6743V-36.62ZM-14.6743 -40.22V-40.8964H-15.3507V-40.22H-14.6743ZM-8.95026 -40.22H-8.27383V-40.8964H-8.95026V-40.22ZM-10.4623 -27.26L-9.96773 -26.7984L-9.96274 -26.8039L-10.4623 -27.26ZM-14.8543 -26.3164C-16.646 -26.3164 -17.9072 -26.8166 -18.7518 -27.7215L-19.7408 -26.7985C-18.5694 -25.5434 -16.9025 -24.9636 -14.8543 -24.9636V-26.3164ZM-18.7467 -27.7161C-19.605 -28.6561 -20.0818 -30.0426 -20.0818 -31.976H-21.4347C-21.4347 -29.8294 -20.9035 -28.0719 -19.7458 -26.8039L-18.7467 -27.7161ZM-20.0818 -31.976V-45.224H-21.4347V-31.976H-20.0818ZM-20.0818 -45.224C-20.0818 -47.1586 -19.6046 -48.5288 -18.7518 -49.4425L-19.7408 -50.3655C-20.904 -49.1192 -21.4347 -47.3694 -21.4347 -45.224H-20.0818ZM-18.7467 -49.4479C-17.9011 -50.3741 -16.6416 -50.8836 -14.8543 -50.8836V-52.2364C-16.9069 -52.2364 -18.5755 -51.6419 -19.7458 -50.3601L-18.7467 -49.4479ZM-14.8543 -50.8836C-13.0669 -50.8836 -11.8074 -50.3741 -10.9618 -49.4479L-9.96274 -50.3601C-11.1331 -51.6419 -12.8016 -52.2364 -14.8543 -52.2364V-50.8836ZM-10.9568 -49.4425C-10.104 -48.5288 -9.62668 -47.1586 -9.62668 -45.224H-8.27383C-8.27383 -47.3694 -8.80455 -49.1192 -9.96776 -50.3655L-10.9568 -49.4425ZM-9.62668 -45.224V-43.064H-8.27383V-45.224H-9.62668ZM-8.95026 -43.7404H-12.6943V-42.3876H-8.95026V-43.7404ZM-12.0178 -43.064V-45.476H-13.3707V-43.064H-12.0178ZM-12.0178 -45.476C-12.0178 -46.3802 -12.2019 -47.1841 -12.6858 -47.7698C-13.19 -48.3802 -13.9203 -48.6364 -14.7463 -48.6364V-47.2836C-14.2042 -47.2836 -13.9085 -47.1258 -13.7287 -46.9082C-13.5286 -46.6659 -13.3707 -46.2278 -13.3707 -45.476H-12.0178ZM-14.7463 -48.6364C-15.5722 -48.6364 -16.3025 -48.3802 -16.8067 -47.7698C-17.2906 -47.1841 -17.4747 -46.3802 -17.4747 -45.476H-16.1218C-16.1218 -46.2278 -15.9639 -46.6659 -15.7638 -46.9082C-15.584 -47.1258 -15.2883 -47.2836 -14.7463 -47.2836V-48.6364ZM-17.4747 -45.476V-31.688H-16.1218V-45.476H-17.4747ZM-17.4747 -31.688C-17.4747 -30.794 -17.2898 -29.9975 -16.8036 -29.4175C-16.2983 -28.8146 -15.5689 -28.5636 -14.7463 -28.5636V-29.9164C-15.2916 -29.9164 -15.5882 -30.0734 -15.7669 -30.2865C-15.9647 -30.5225 -16.1218 -30.95 -16.1218 -31.688H-17.4747ZM-14.7463 -28.5636C-13.9236 -28.5636 -13.1942 -28.8146 -12.6889 -29.4175C-12.2027 -29.9975 -12.0178 -30.794 -12.0178 -31.688H-13.3707C-13.3707 -30.95 -13.5278 -30.5225 -13.7256 -30.2865C-13.9043 -30.0734 -14.2009 -29.9164 -14.7463 -29.9164V-28.5636ZM-12.0178 -31.688V-36.62H-13.3707V-31.688H-12.0178ZM-12.6943 -37.2964H-14.6743V-35.9436H-12.6943V-37.2964ZM-13.9978 -36.62V-40.22H-15.3507V-36.62H-13.9978ZM-14.6743 -39.5436H-8.95026V-40.8964H-14.6743V-39.5436ZM-9.62668 -40.22V-31.976H-8.27383V-40.22H-9.62668ZM-9.62668 -31.976C-9.62668 -30.0426 -10.1035 -28.6561 -10.9618 -27.7161L-9.96274 -26.8039C-8.80499 -28.0719 -8.27383 -29.8294 -8.27383 -31.976H-9.62668ZM-10.9568 -27.7215C-11.8014 -26.8166 -13.0625 -26.3164 -14.8543 -26.3164V-24.9636C-12.806 -24.9636 -11.1391 -25.5434 -9.96776 -26.7985L-10.9568 -27.7215ZM0.468246 -26L1.11613 -25.8056L1.37737 -26.6764H0.468246V-26ZM-0.827759 -26H-1.50418V-25.3236H-0.827759V-26ZM-0.827759 -29.816V-30.4924H-1.50418V-29.816H-0.827759ZM2.98825 -29.816H3.66466V-30.4924H2.98825V-29.816ZM2.98825 -26.396L3.61192 -26.1341L3.66466 -26.2598V-26.396H2.98825ZM1.00824 -21.68V-21.0036H1.45787L1.63193 -21.4182L1.00824 -21.68ZM-0.827759 -21.68L-1.47565 -21.8744L-1.73688 -21.0036H-0.827759V-21.68ZM0.468246 -26.6764H-0.827759V-25.3236H0.468246V-26.6764ZM-0.151337 -26V-29.816H-1.50418V-26H-0.151337ZM-0.827759 -29.1396H2.98825V-30.4924H-0.827759V-29.1396ZM2.31183 -29.816V-26.396H3.66466V-29.816H2.31183ZM2.36456 -26.6579L0.384567 -21.9418L1.63193 -21.4182L3.61192 -26.1341L2.36456 -26.6579ZM1.00824 -22.3564H-0.827759V-21.0036H1.00824V-22.3564ZM-0.179871 -21.4856L1.11613 -25.8056L-0.179642 -26.1944L-1.47565 -21.8744L-0.179871 -21.4856ZM-242.264 15.704L-241.77 15.2421L-242.264 15.704ZM-242.264 -6.904L-241.77 -6.44209L-242.264 -6.904ZM-233.336 -6.904L-233.83 -6.44209L-233.336 -6.904ZM-233.336 15.704L-233.83 15.2421L-233.336 15.704ZM-237.8 16.6836C-239.613 16.6836 -240.9 16.1727 -241.77 15.2421L-242.758 16.1659C-241.564 17.4433 -239.875 18.0364 -237.8 18.0364V16.6836ZM-241.77 15.2421C-242.65 14.3005 -243.136 12.9271 -243.136 11.024H-244.488C-244.488 13.1529 -243.942 14.8995 -242.758 16.1659L-241.77 15.2421ZM-243.136 11.024V-2.224H-244.488V11.024H-243.136ZM-243.136 -2.224C-243.136 -4.12706 -242.65 -5.50046 -241.77 -6.44209L-242.758 -7.36591C-243.942 -6.09954 -244.488 -4.35294 -244.488 -2.224H-243.136ZM-241.77 -6.44209C-240.9 -7.3727 -239.613 -7.88358 -237.8 -7.88358V-9.23642C-239.875 -9.23642 -241.564 -8.6433 -242.758 -7.36591L-241.77 -6.44209ZM-237.8 -7.88358C-235.987 -7.88358 -234.7 -7.3727 -233.83 -6.44209L-232.842 -7.36591C-234.036 -8.6433 -235.725 -9.23642 -237.8 -9.23642V-7.88358ZM-233.83 -6.44209C-232.95 -5.50046 -232.464 -4.12706 -232.464 -2.224H-231.112C-231.112 -4.35294 -231.658 -6.09954 -232.842 -7.36591L-233.83 -6.44209ZM-232.464 -2.224V11.024H-231.112V-2.224H-232.464ZM-232.464 11.024C-232.464 12.9271 -232.95 14.3005 -233.83 15.2421L-232.842 16.1659C-231.658 14.8995 -231.112 13.1529 -231.112 11.024H-232.464ZM-233.83 15.2421C-234.7 16.1727 -235.987 16.6836 -237.8 16.6836V18.0364C-235.725 18.0364 -234.036 17.4433 -232.842 16.1659L-233.83 15.2421ZM-237.8 14.4364C-236.974 14.4364 -236.244 14.1802 -235.74 13.5698C-235.256 12.9841 -235.072 12.1802 -235.072 11.276H-236.424C-236.424 12.0278 -236.582 12.4659 -236.782 12.7082C-236.962 12.9258 -237.258 13.0836 -237.8 13.0836V14.4364ZM-235.072 11.276V-2.476H-236.424V11.276H-235.072ZM-235.072 -2.476C-235.072 -3.38017 -235.256 -4.1841 -235.74 -4.7698C-236.244 -5.38025 -236.974 -5.63641 -237.8 -5.63641V-4.28358C-237.258 -4.28358 -236.962 -4.12576 -236.782 -3.9082C-236.582 -3.6659 -236.424 -3.22783 -236.424 -2.476H-235.072ZM-237.8 -5.63641C-238.626 -5.63641 -239.356 -5.38025 -239.86 -4.7698C-240.344 -4.1841 -240.528 -3.38017 -240.528 -2.476H-239.176C-239.176 -3.22783 -239.018 -3.6659 -238.818 -3.9082C-238.638 -4.12576 -238.342 -4.28358 -237.8 -4.28358V-5.63641ZM-240.528 -2.476V11.276H-239.176V-2.476H-240.528ZM-240.528 11.276C-240.528 12.1802 -240.344 12.9841 -239.86 13.5698C-239.356 14.1802 -238.626 14.4364 -237.8 14.4364V13.0836C-238.342 13.0836 -238.638 12.9258 -238.818 12.7082C-239.018 12.4659 -239.176 12.0278 -239.176 11.276H-240.528ZM-223.53 -8.2V-8.87642H-224.206V-8.2H-223.53ZM-213.198 -6.76L-213.682 -6.28776L-213.676 -6.2817L-213.198 -6.76ZM-214.386 4.112L-214.639 3.48457L-215.062 3.65522V4.112H-214.386ZM-214.386 4.184H-215.062V4.68727L-214.58 4.83189L-214.386 4.184ZM-212.37 5.948L-212.991 6.21648L-212.988 6.22347L-212.985 6.23041L-212.37 5.948ZM-211.686 15.704L-212.359 15.7748L-212.358 15.7787L-211.686 15.704ZM-211.326 17V17.6764H-210.285L-210.708 16.7253L-211.326 17ZM-215.358 17L-215.996 17.2251L-215.837 17.6764H-215.358V17ZM-216.294 6.884L-216.825 7.30314L-216.818 7.31152L-216.811 7.3197L-216.294 6.884ZM-219.57 6.2V5.52358H-220.246V6.2H-219.57ZM-219.57 17V17.6764H-218.894V17H-219.57ZM-223.53 17H-224.206V17.6764H-223.53V17ZM-216.366 1.988L-216.844 1.5097L-216.851 1.51694L-216.859 1.52441L-216.366 1.988ZM-216.258 -3.988L-216.795 -3.57711L-216.788 -3.56741L-216.78 -3.558L-216.258 -3.988ZM-219.57 -4.6V-5.27642H-220.246V-4.6H-219.57ZM-219.57 2.6H-220.246V3.27641H-219.57V2.6ZM-223.53 -7.52358H-217.662V-8.87642H-223.53V-7.52358ZM-217.662 -7.52358C-215.71 -7.52358 -214.438 -7.06262 -213.682 -6.2878L-212.714 -7.23221C-213.83 -8.37738 -215.533 -8.87642 -217.662 -8.87642V-7.52358ZM-213.676 -6.2817C-212.917 -5.52289 -212.47 -4.2792 -212.47 -2.404H-211.118C-211.118 -4.46481 -211.606 -6.12511 -212.72 -7.2383L-213.676 -6.2817ZM-212.47 -2.404V-0.856003H-211.118V-2.404H-212.47ZM-212.47 -0.856003C-212.47 0.384171 -212.676 1.33456 -213.042 2.03511C-213.399 2.7207 -213.925 3.19693 -214.639 3.48457L-214.133 4.73943C-213.119 4.33107 -212.349 3.63129 -211.842 2.66089C-211.344 1.70544 -211.118 0.519829 -211.118 -0.856003H-212.47ZM-215.062 4.112V4.184H-213.71V4.112H-215.062ZM-214.58 4.83189C-213.804 5.06491 -213.292 5.51912 -212.991 6.21648L-211.749 5.67952C-212.216 4.60088 -213.048 3.87909 -214.192 3.53611L-214.58 4.83189ZM-212.985 6.23041C-212.633 6.99577 -212.434 8.07536 -212.434 9.512H-211.082C-211.082 7.97263 -211.291 6.67622 -211.755 5.6656L-212.985 6.23041ZM-212.434 9.512V13.94H-211.082V9.512H-212.434ZM-212.434 13.94C-212.434 14.672 -212.41 15.286 -212.359 15.7748L-211.013 15.6332C-211.058 15.21 -211.082 14.648 -211.082 13.94H-212.434ZM-212.358 15.7787C-212.302 16.2855 -212.162 16.7848 -211.944 17.2747L-210.708 16.7253C-210.874 16.3512 -210.974 15.9865 -211.014 15.6293L-212.358 15.7787ZM-211.326 16.3236H-215.358V17.6764H-211.326V16.3236ZM-214.72 16.7749C-214.851 16.4028 -214.935 16.0646 -214.975 15.7586L-216.316 15.9374C-216.261 16.3514 -216.152 16.7812 -215.996 17.2251L-214.72 16.7749ZM-214.975 15.7586C-215.017 15.4487 -215.042 14.8424 -215.042 13.904H-216.394C-216.394 14.8376 -216.371 15.5273 -216.316 15.9374L-214.975 15.7586ZM-215.042 13.904V9.296H-216.394V13.904H-215.042ZM-215.042 9.296C-215.042 8.11277 -215.23 7.09749 -215.777 6.4483L-216.811 7.3197C-216.59 7.5825 -216.394 8.17522 -216.394 9.296H-215.042ZM-215.763 6.46486C-216.31 5.77164 -217.202 5.52358 -218.202 5.52358V6.87642C-217.378 6.87642 -216.998 7.08437 -216.825 7.30314L-215.763 6.46486ZM-218.202 5.52358H-219.57V6.87642H-218.202V5.52358ZM-220.246 6.2V17H-218.894V6.2H-220.246ZM-219.57 16.3236H-223.53V17.6764H-219.57V16.3236ZM-222.854 17V-8.2H-224.206V17H-222.854ZM-218.13 3.27641C-217.23 3.27641 -216.431 3.04371 -215.873 2.45159L-216.859 1.52441C-217.069 1.74829 -217.446 1.92358 -218.13 1.92358V3.27641ZM-215.888 2.4663C-215.291 1.86938 -215.078 0.962715 -215.078 -0.064003H-216.43C-216.43 0.829285 -216.625 1.29062 -216.844 1.5097L-215.888 2.4663ZM-215.078 -0.064003V-2.008H-216.43V-0.064003H-215.078ZM-215.078 -2.008C-215.078 -2.9737 -215.25 -3.82792 -215.736 -4.41801L-216.78 -3.558C-216.594 -3.33208 -216.43 -2.8663 -216.43 -2.008H-215.078ZM-215.721 -4.39889C-216.203 -5.02915 -216.944 -5.27642 -217.77 -5.27642V-3.92358C-217.204 -3.92358 -216.937 -3.76285 -216.795 -3.57711L-215.721 -4.39889ZM-217.77 -5.27642H-219.57V-3.92358H-217.77V-5.27642ZM-220.246 -4.6V2.6H-218.894V-4.6H-220.246ZM-219.57 3.27641H-218.13V1.92358H-219.57V3.27641ZM-203.43 -8.2V-8.87642H-204.107V-8.2H-203.43ZM-199.47 -8.2H-198.794V-8.87642H-199.47V-8.2ZM-199.47 17V17.6764H-198.794V17H-199.47ZM-203.43 17H-204.107V17.6764H-203.43V17ZM-203.43 -7.52358H-199.47V-8.87642H-203.43V-7.52358ZM-200.147 -8.2V17H-198.794V-8.2H-200.147ZM-199.47 16.3236H-203.43V17.6764H-199.47V16.3236ZM-202.754 17V-8.2H-204.107V17H-202.754ZM-189.701 15.74L-190.2 16.1961L-190.195 16.2015L-189.701 15.74ZM-189.701 -6.904L-189.206 -6.44244L-189.201 -6.44791L-189.701 -6.904ZM-180.917 -6.904L-181.416 -6.44788L-181.411 -6.44247L-180.917 -6.904ZM-179.405 -0.064003V0.612419H-178.728V-0.064003H-179.405ZM-183.149 -0.064003H-183.825V0.612419H-183.149V-0.064003ZM-183.149 6.38H-182.472V5.70358H-183.149V6.38ZM-185.129 6.38H-185.805V7.05642H-185.129V6.38ZM-185.129 2.78V2.10358H-185.805V2.78H-185.129ZM-179.405 2.78H-178.728V2.10358H-179.405V2.78ZM-180.917 15.74L-180.422 16.2016L-180.417 16.1961L-180.917 15.74ZM-185.309 16.6836C-187.1 16.6836 -188.362 16.1834 -189.206 15.2785L-190.195 16.2015C-189.024 17.4566 -187.357 18.0364 -185.309 18.0364V16.6836ZM-189.201 15.2839C-190.059 14.3439 -190.536 12.9574 -190.536 11.024H-191.889C-191.889 13.1706 -191.358 14.9281 -190.2 16.1961L-189.201 15.2839ZM-190.536 11.024V-2.224H-191.889V11.024H-190.536ZM-190.536 -2.224C-190.536 -4.15855 -190.059 -5.52876 -189.206 -6.44247L-190.195 -7.36553C-191.358 -6.11925 -191.889 -4.36945 -191.889 -2.224H-190.536ZM-189.201 -6.44791C-188.355 -7.37413 -187.096 -7.88358 -185.309 -7.88358V-9.23642C-187.361 -9.23642 -189.03 -8.64188 -190.2 -7.36009L-189.201 -6.44791ZM-185.309 -7.88358C-183.521 -7.88358 -182.262 -7.37413 -181.416 -6.44791L-180.417 -7.36008C-181.587 -8.64188 -183.256 -9.23642 -185.309 -9.23642V-7.88358ZM-181.411 -6.44247C-180.558 -5.52876 -180.081 -4.15855 -180.081 -2.224H-178.728C-178.728 -4.36945 -179.259 -6.11925 -180.422 -7.36553L-181.411 -6.44247ZM-180.081 -2.224V-0.064003H-178.728V-2.224H-180.081ZM-179.405 -0.740417H-183.149V0.612419H-179.405V-0.740417ZM-182.472 -0.064003V-2.476H-183.825V-0.064003H-182.472ZM-182.472 -2.476C-182.472 -3.38017 -182.656 -4.1841 -183.14 -4.7698C-183.644 -5.38025 -184.375 -5.63641 -185.201 -5.63641V-4.28358C-184.659 -4.28358 -184.363 -4.12576 -184.183 -3.9082C-183.983 -3.6659 -183.825 -3.22783 -183.825 -2.476H-182.472ZM-185.201 -5.63641C-186.027 -5.63641 -186.757 -5.38025 -187.261 -4.7698C-187.745 -4.1841 -187.929 -3.38017 -187.929 -2.476H-186.576C-186.576 -3.22783 -186.418 -3.6659 -186.218 -3.9082C-186.038 -4.12576 -185.743 -4.28358 -185.201 -4.28358V-5.63641ZM-187.929 -2.476V11.312H-186.576V-2.476H-187.929ZM-187.929 11.312C-187.929 12.206 -187.744 13.0025 -187.258 13.5825C-186.753 14.1854 -186.023 14.4364 -185.201 14.4364V13.0836C-185.746 13.0836 -186.043 12.9266 -186.221 12.7135C-186.419 12.4775 -186.576 12.05 -186.576 11.312H-187.929ZM-185.201 14.4364C-184.378 14.4364 -183.649 14.1854 -183.143 13.5825C-182.657 13.0025 -182.472 12.206 -182.472 11.312H-183.825C-183.825 12.05 -183.982 12.4775 -184.18 12.7135C-184.359 12.9266 -184.655 13.0836 -185.201 13.0836V14.4364ZM-182.472 11.312V6.38H-183.825V11.312H-182.472ZM-183.149 5.70358H-185.129V7.05642H-183.149V5.70358ZM-184.452 6.38V2.78H-185.805V6.38H-184.452ZM-185.129 3.45641H-179.405V2.10358H-185.129V3.45641ZM-180.081 2.78V11.024H-178.728V2.78H-180.081ZM-180.081 11.024C-180.081 12.9574 -180.558 14.3439 -181.416 15.2839L-180.417 16.1961C-179.259 14.9281 -178.728 13.1706 -178.728 11.024H-180.081ZM-181.411 15.2785C-182.256 16.1834 -183.517 16.6836 -185.309 16.6836V18.0364C-183.26 18.0364 -181.594 17.4566 -180.422 16.2015L-181.411 15.2785ZM-168.222 -8.2V-8.87642H-168.797L-168.89 -8.30873L-168.222 -8.2ZM-162.858 -8.2L-162.191 -8.30873L-162.283 -8.87642H-162.858V-8.2ZM-158.754 17V17.6764H-157.959L-158.087 16.8913L-158.754 17ZM-162.714 17L-163.384 17.0963L-163.3 17.6764H-162.714V17ZM-163.434 11.996L-162.765 11.8997L-164.111 11.996H-163.434ZM-163.434 12.068V12.7444H-162.758V12.068H-163.434ZM-167.934 12.068V11.3916H-168.519L-168.603 11.9703L-167.934 12.068ZM-168.654 17V17.6764H-168.069L-167.985 17.0977L-168.654 17ZM-172.326 17L-172.994 16.8913L-173.122 17.6764H-172.326V17ZM-163.902 8.648V9.32442H-163.123L-163.232 8.55315L-163.902 8.648ZM-165.666 -3.808L-164.996 -3.90285L-165.079 -4.48442H-165.666V-3.808ZM-165.738 -3.808V-4.48442H-166.327L-166.408 -3.90095L-165.738 -3.808ZM-167.466 8.648L-168.136 8.55505L-168.243 9.32442H-167.466V8.648ZM-168.222 -7.52358H-162.858V-8.87642H-168.222V-7.52358ZM-163.526 -8.09128L-159.422 17.1087L-158.087 16.8913L-162.191 -8.30873L-163.526 -8.09128ZM-158.754 16.3236H-162.714V17.6764H-158.754V16.3236ZM-162.045 16.9037L-162.765 11.8997L-164.104 12.0923L-163.384 17.0963L-162.045 16.9037ZM-164.111 11.996V12.068H-162.758V11.996H-164.111ZM-163.434 11.3916H-167.934V12.7444H-163.434V11.3916ZM-168.603 11.9703L-169.323 16.9023L-167.985 17.0977L-167.265 12.1657L-168.603 11.9703ZM-168.654 16.3236H-172.326V17.6764H-168.654V16.3236ZM-171.659 17.1087L-167.555 -8.09128L-168.89 -8.30873L-172.994 16.8913L-171.659 17.1087ZM-163.232 8.55315L-164.996 -3.90285L-166.336 -3.71315L-164.572 8.74284L-163.232 8.55315ZM-165.666 -4.48442H-165.738V-3.13158H-165.666V-4.48442ZM-166.408 -3.90095L-168.136 8.55505L-166.796 8.74095L-165.068 -3.71505L-166.408 -3.90095ZM-167.466 9.32442H-163.902V7.97158H-167.466V9.32442ZM-151.253 -8.2V-8.87642H-151.929V-8.2H-151.253ZM-145.601 -8.2L-144.931 -8.2936L-145.012 -8.87642H-145.601V-8.2ZM-143.081 9.836L-143.751 9.9296L-143.669 10.5124H-143.081V9.836ZM-143.009 9.836V10.5124H-142.42L-142.339 9.9296L-143.009 9.836ZM-140.489 -8.2V-8.87642H-141.077L-141.159 -8.2936L-140.489 -8.2ZM-134.837 -8.2H-134.16V-8.87642H-134.837V-8.2ZM-134.837 17V17.6764H-134.16V17H-134.837ZM-138.581 17H-139.257V17.6764H-138.581V17ZM-138.581 -2.08H-137.904V-2.75642H-138.581V-2.08ZM-138.653 -2.08V-2.75642H-139.235L-139.322 -2.18096L-138.653 -2.08ZM-141.533 17V17.6764H-140.951L-140.864 17.101L-141.533 17ZM-144.845 17L-145.514 17.101L-145.427 17.6764H-144.845V17ZM-147.725 -2.08L-147.056 -2.18096L-147.143 -2.75642H-147.725V-2.08ZM-147.797 -2.08V-2.75642H-148.473V-2.08H-147.797ZM-147.797 17V17.6764H-147.12V17H-147.797ZM-151.253 17H-151.929V17.6764H-151.253V17ZM-151.253 -7.52358H-145.601V-8.87642H-151.253V-7.52358ZM-146.271 -8.1064L-143.751 9.9296L-142.411 9.7424L-144.931 -8.2936L-146.271 -8.1064ZM-143.081 10.5124H-143.009V9.15958H-143.081V10.5124ZM-142.339 9.9296L-139.819 -8.1064L-141.159 -8.2936L-143.679 9.7424L-142.339 9.9296ZM-140.489 -7.52358H-134.837V-8.87642H-140.489V-7.52358ZM-135.513 -8.2V17H-134.16V-8.2H-135.513ZM-134.837 16.3236H-138.581V17.6764H-134.837V16.3236ZM-137.904 17V-2.08H-139.257V17H-137.904ZM-138.581 -2.75642H-138.653V-1.40359H-138.581V-2.75642ZM-139.322 -2.18096L-142.202 16.899L-140.864 17.101L-137.984 -1.97904L-139.322 -2.18096ZM-141.533 16.3236H-144.845V17.6764H-141.533V16.3236ZM-144.176 16.899L-147.056 -2.18096L-148.394 -1.97904L-145.514 17.101L-144.176 16.899ZM-147.725 -2.75642H-147.797V-1.40359H-147.725V-2.75642ZM-148.473 -2.08V17H-147.12V-2.08H-148.473ZM-147.797 16.3236H-151.253V17.6764H-147.797V16.3236ZM-150.576 17V-8.2H-151.929V17H-150.576ZM-126.302 -8.2V-8.87642H-126.978V-8.2H-126.302ZM-122.342 -8.2H-121.665V-8.87642H-122.342V-8.2ZM-122.342 17V17.6764H-121.665V17H-122.342ZM-126.302 17H-126.978V17.6764H-126.302V17ZM-126.302 -7.52358H-122.342V-8.87642H-126.302V-7.52358ZM-123.018 -8.2V17H-121.665V-8.2H-123.018ZM-122.342 16.3236H-126.302V17.6764H-122.342V16.3236ZM-125.625 17V-8.2H-126.978V17H-125.625ZM-102.45 -8.2V-8.87642H-103.127V-8.2H-102.45ZM-92.1904 -6.616L-92.6853 -6.15487L-92.1904 -6.616ZM-92.1904 5.156L-92.6853 4.69487L-92.1904 5.156ZM-98.4904 6.74V6.06358H-99.1668V6.74H-98.4904ZM-98.4904 17V17.6764H-97.814V17H-98.4904ZM-102.45 17H-103.127V17.6764H-102.45V17ZM-95.1784 2.6L-95.6729 2.13847L-95.6814 2.14758L-95.6896 2.15699L-95.1784 2.6ZM-95.1784 -4.06L-95.6896 -3.617L-95.6814 -3.60758L-95.6729 -3.59847L-95.1784 -4.06ZM-98.4904 -4.6V-5.27642H-99.1668V-4.6H-98.4904ZM-98.4904 3.14H-99.1668V3.81641H-98.4904V3.14ZM-102.45 -7.52358H-96.6184V-8.87642H-102.45V-7.52358ZM-96.6184 -7.52358C-94.7674 -7.52358 -93.5 -7.02922 -92.6853 -6.15487L-91.6955 -7.07713C-92.8488 -8.31478 -94.5334 -8.87642 -96.6184 -8.87642V-7.52358ZM-92.6853 -6.15487C-91.8586 -5.26771 -91.3908 -3.91164 -91.3908 -1.972H-90.038C-90.038 -4.11236 -90.5542 -5.85229 -91.6955 -7.07713L-92.6853 -6.15487ZM-91.3908 -1.972V0.512001H-90.038V-1.972H-91.3908ZM-91.3908 0.512001C-91.3908 2.45164 -91.8586 3.8077 -92.6853 4.69487L-91.6955 5.61713C-90.5542 4.3923 -90.038 2.65235 -90.038 0.512001H-91.3908ZM-92.6853 4.69487C-93.5 5.56921 -94.7674 6.06358 -96.6184 6.06358V7.41641C-94.5334 7.41641 -92.8488 6.85478 -91.6955 5.61713L-92.6853 4.69487ZM-96.6184 6.06358H-98.4904V7.41641H-96.6184V6.06358ZM-99.1668 6.74V17H-97.814V6.74H-99.1668ZM-98.4904 16.3236H-102.45V17.6764H-98.4904V16.3236ZM-101.774 17V-8.2H-103.127V17H-101.774ZM-96.6184 3.81641C-95.8484 3.81641 -95.1494 3.59937 -94.6673 3.04301L-95.6896 2.15699C-95.8314 2.32063 -96.0924 2.46358 -96.6184 2.46358V3.81641ZM-94.6839 3.06153C-94.1697 2.51059 -93.998 1.68105 -93.998 0.764H-95.3508C-95.3508 1.57494 -95.5151 1.96941 -95.6729 2.13847L-94.6839 3.06153ZM-93.998 0.764V-2.224H-95.3508V0.764H-93.998ZM-93.998 -2.224C-93.998 -3.14106 -94.1697 -3.9706 -94.6839 -4.52153L-95.6729 -3.59847C-95.5151 -3.42941 -95.3508 -3.03495 -95.3508 -2.224H-93.998ZM-94.6673 -4.50301C-95.1494 -5.05937 -95.8484 -5.27642 -96.6184 -5.27642V-3.92358C-96.0924 -3.92358 -95.8314 -3.78063 -95.6896 -3.617L-94.6673 -4.50301ZM-96.6184 -5.27642H-98.4904V-3.92358H-96.6184V-5.27642ZM-99.1668 -4.6V3.14H-97.814V-4.6H-99.1668ZM-98.4904 3.81641H-96.6184V2.46358H-98.4904V3.81641ZM-82.9837 -8.2V-8.87642H-83.6601V-8.2H-82.9837ZM-79.0237 -8.2H-78.3473V-8.87642H-79.0237V-8.2ZM-79.0237 13.4H-79.7001V14.0764H-79.0237V13.4ZM-72.5077 13.4H-71.8313V12.7236H-72.5077V13.4ZM-72.5077 17V17.6764H-71.8313V17H-72.5077ZM-82.9837 17H-83.6601V17.6764H-82.9837V17ZM-82.9837 -7.52358H-79.0237V-8.87642H-82.9837V-7.52358ZM-79.7001 -8.2V13.4H-78.3473V-8.2H-79.7001ZM-79.0237 14.0764H-72.5077V12.7236H-79.0237V14.0764ZM-73.1841 13.4V17H-71.8313V13.4H-73.1841ZM-72.5077 16.3236H-82.9837V17.6764H-72.5077V16.3236ZM-82.3073 17V-8.2H-83.6601V17H-82.3073ZM-61.8281 -8.2V-8.87642H-62.4032L-62.4957 -8.30873L-61.8281 -8.2ZM-56.4641 -8.2L-55.7964 -8.30873L-55.8889 -8.87642H-56.4641V-8.2ZM-52.3601 17V17.6764H-51.5646L-51.6924 16.8913L-52.3601 17ZM-56.3201 17L-56.9896 17.0963L-56.9061 17.6764H-56.3201V17ZM-57.0401 11.996L-56.3705 11.8997L-57.7165 11.996H-57.0401ZM-57.0401 12.068V12.7444H-56.3636V12.068H-57.0401ZM-61.5401 12.068V11.3916H-62.1249L-62.2094 11.9703L-61.5401 12.068ZM-62.2601 17V17.6764H-61.6752L-61.5907 17.0977L-62.2601 17ZM-65.9321 17L-66.5997 16.8913L-66.7276 17.6764H-65.9321V17ZM-57.5081 8.648V9.32442H-56.7291L-56.8383 8.55315L-57.5081 8.648ZM-59.2721 -3.808L-58.6023 -3.90285L-58.6847 -4.48442H-59.2721V-3.808ZM-59.3441 -3.808V-4.48442H-59.9331L-60.0141 -3.90095L-59.3441 -3.808ZM-61.0721 8.648L-61.7421 8.55505L-61.8488 9.32442H-61.0721V8.648ZM-61.8281 -7.52358H-56.4641V-8.87642H-61.8281V-7.52358ZM-57.1317 -8.09128L-53.0277 17.1087L-51.6924 16.8913L-55.7964 -8.30873L-57.1317 -8.09128ZM-52.3601 16.3236H-56.3201V17.6764H-52.3601V16.3236ZM-55.6505 16.9037L-56.3705 11.8997L-57.7096 12.0923L-56.9896 17.0963L-55.6505 16.9037ZM-57.7165 11.996V12.068H-56.3636V11.996H-57.7165ZM-57.0401 11.3916H-61.5401V12.7444H-57.0401V11.3916ZM-62.2094 11.9703L-62.9294 16.9023L-61.5907 17.0977L-60.8707 12.1657L-62.2094 11.9703ZM-62.2601 16.3236H-65.9321V17.6764H-62.2601V16.3236ZM-65.2644 17.1087L-61.1604 -8.09128L-62.4957 -8.30873L-66.5997 16.8913L-65.2644 17.1087ZM-56.8383 8.55315L-58.6023 -3.90285L-59.9418 -3.71315L-58.1778 8.74284L-56.8383 8.55315ZM-59.2721 -4.48442H-59.3441V-3.13158H-59.2721V-4.48442ZM-60.0141 -3.90095L-61.7421 8.55505L-60.4021 8.74095L-58.6741 -3.71505L-60.0141 -3.90095ZM-61.0721 9.32442H-57.5081V7.97158H-61.0721V9.32442ZM-44.8588 -8.2V-8.87642H-45.5353V-8.2H-44.8588ZM-39.8908 -8.2L-39.2355 -8.36737L-39.3654 -8.87642H-39.8908V-8.2ZM-36.0388 6.884L-36.6942 7.05136L-36.5642 7.56042H-36.0388V6.884ZM-35.9668 6.884V7.56042H-35.2904V6.884H-35.9668ZM-35.9668 -8.2V-8.87642H-36.6432V-8.2H-35.9668ZM-32.4388 -8.2H-31.7624V-8.87642H-32.4388V-8.2ZM-32.4388 17V17.6764H-31.7624V17H-32.4388ZM-36.5068 17L-37.1618 17.1692L-37.0307 17.6764H-36.5068V17ZM-41.2588 -1.396L-40.6039 -1.56518L-40.735 -2.07242H-41.2588V-1.396ZM-41.3308 -1.396V-2.07242H-42.0072V-1.396H-41.3308ZM-41.3308 17V17.6764H-40.6544V17H-41.3308ZM-44.8588 17H-45.5353V17.6764H-44.8588V17ZM-44.8588 -7.52358H-39.8908V-8.87642H-44.8588V-7.52358ZM-40.5462 -8.03264L-36.6942 7.05136L-35.3835 6.71664L-39.2355 -8.36737L-40.5462 -8.03264ZM-36.0388 7.56042H-35.9668V6.20758H-36.0388V7.56042ZM-35.2904 6.884V-8.2H-36.6432V6.884H-35.2904ZM-35.9668 -7.52358H-32.4388V-8.87642H-35.9668V-7.52358ZM-33.1152 -8.2V17H-31.7624V-8.2H-33.1152ZM-32.4388 16.3236H-36.5068V17.6764H-32.4388V16.3236ZM-35.8519 16.8308L-40.6039 -1.56518L-41.9138 -1.22682L-37.1618 17.1692L-35.8519 16.8308ZM-41.2588 -2.07242H-41.3308V-0.719582H-41.2588V-2.07242ZM-42.0072 -1.396V17H-40.6544V-1.396H-42.0072ZM-41.3308 16.3236H-44.8588V17.6764H-41.3308V16.3236ZM-44.1824 17V-8.2H-45.5353V17H-44.1824ZM-20.8196 -4.6H-20.1432V-5.27642H-20.8196V-4.6ZM-24.9596 -4.6H-25.636V-3.92358H-24.9596V-4.6ZM-24.9596 -8.2V-8.87642H-25.636V-8.2H-24.9596ZM-12.7196 -8.2H-12.0432V-8.87642H-12.7196V-8.2ZM-12.7196 -4.6V-3.92358H-12.0432V-4.6H-12.7196ZM-16.8596 -4.6V-5.27642H-17.536V-4.6H-16.8596ZM-16.8596 17V17.6764H-16.1832V17H-16.8596ZM-20.8196 17H-21.496V17.6764H-20.8196V17ZM-20.8196 -5.27642H-24.9596V-3.92358H-20.8196V-5.27642ZM-24.2832 -4.6V-8.2H-25.636V-4.6H-24.2832ZM-24.9596 -7.52358H-12.7196V-8.87642H-24.9596V-7.52358ZM-13.396 -8.2V-4.6H-12.0432V-8.2H-13.396ZM-12.7196 -5.27642H-16.8596V-3.92358H-12.7196V-5.27642ZM-17.536 -4.6V17H-16.1832V-4.6H-17.536ZM-16.8596 16.3236H-20.8196V17.6764H-16.8596V16.3236ZM-20.1432 17V-4.6H-21.496V17H-20.1432ZM-243.524 34.8V34.1236H-244.2V34.8H-243.524ZM-233.264 36.384L-233.759 36.8451H-233.759L-233.264 36.384ZM-233.264 48.156L-233.759 47.6949L-233.264 48.156ZM-239.564 49.74V49.0636H-240.24V49.74H-239.564ZM-239.564 60V60.6764H-238.888V60H-239.564ZM-243.524 60H-244.2V60.6764H-243.524V60ZM-236.252 45.6L-236.746 45.1385L-236.755 45.1476L-236.763 45.157L-236.252 45.6ZM-236.252 38.94L-236.763 39.383L-236.755 39.3924L-236.746 39.4015L-236.252 38.94ZM-239.564 38.4V37.7236H-240.24V38.4H-239.564ZM-239.564 46.14H-240.24V46.8164H-239.564V46.14ZM-243.524 35.4764H-237.692V34.1236H-243.524V35.4764ZM-237.692 35.4764C-235.841 35.4764 -234.574 35.9708 -233.759 36.8451L-232.769 35.9229C-233.922 34.6852 -235.607 34.1236 -237.692 34.1236V35.4764ZM-233.759 36.8451C-232.932 37.7323 -232.464 39.0883 -232.464 41.028H-231.112C-231.112 38.8876 -231.628 37.1477 -232.769 35.9229L-233.759 36.8451ZM-232.464 41.028V43.512H-231.112V41.028H-232.464ZM-232.464 43.512C-232.464 45.4516 -232.932 46.8077 -233.759 47.6949L-232.769 48.6171C-231.628 47.3923 -231.112 45.6524 -231.112 43.512H-232.464ZM-233.759 47.6949C-234.574 48.5692 -235.841 49.0636 -237.692 49.0636V50.4164C-235.607 50.4164 -233.922 49.8548 -232.769 48.6171L-233.759 47.6949ZM-237.692 49.0636H-239.564V50.4164H-237.692V49.0636ZM-240.24 49.74V60H-238.888V49.74H-240.24ZM-239.564 59.3236H-243.524V60.6764H-239.564V59.3236ZM-242.848 60V34.8H-244.2V60H-242.848ZM-237.692 46.8164C-236.922 46.8164 -236.223 46.5994 -235.741 46.043L-236.763 45.157C-236.905 45.3206 -237.166 45.4636 -237.692 45.4636V46.8164ZM-235.758 46.0615C-235.243 45.5106 -235.072 44.6811 -235.072 43.764H-236.424C-236.424 44.575 -236.589 44.9694 -236.746 45.1385L-235.758 46.0615ZM-235.072 43.764V40.776H-236.424V43.764H-235.072ZM-235.072 40.776C-235.072 39.8589 -235.243 39.0294 -235.758 38.4785L-236.746 39.4015C-236.589 39.5706 -236.424 39.9651 -236.424 40.776H-235.072ZM-235.741 38.497C-236.223 37.9406 -236.922 37.7236 -237.692 37.7236V39.0764C-237.166 39.0764 -236.905 39.2194 -236.763 39.383L-235.741 38.497ZM-237.692 37.7236H-239.564V39.0764H-237.692V37.7236ZM-240.24 38.4V46.14H-238.888V38.4H-240.24ZM-239.564 46.8164H-237.692V45.4636H-239.564V46.8164ZM-222.797 58.704L-222.303 58.2421L-222.797 58.704ZM-222.797 36.096L-222.303 36.5579L-222.797 36.096ZM-213.869 36.096L-214.363 36.5579L-213.869 36.096ZM-213.869 58.704L-214.363 58.2421L-213.869 58.704ZM-218.333 59.6836C-220.147 59.6836 -221.433 59.1727 -222.303 58.2421L-223.291 59.1659C-222.097 60.4433 -220.408 61.0364 -218.333 61.0364V59.6836ZM-222.303 58.2421C-223.183 57.3005 -223.669 55.9271 -223.669 54.024H-225.022C-225.022 56.1529 -224.475 57.8995 -223.291 59.1659L-222.303 58.2421ZM-223.669 54.024V40.776H-225.022V54.024H-223.669ZM-223.669 40.776C-223.669 38.8729 -223.183 37.4995 -222.303 36.5579L-223.291 35.6341C-224.475 36.9005 -225.022 38.6471 -225.022 40.776H-223.669ZM-222.303 36.5579C-221.433 35.6273 -220.147 35.1164 -218.333 35.1164V33.7636C-220.408 33.7636 -222.097 34.3567 -223.291 35.6341L-222.303 36.5579ZM-218.333 35.1164C-216.52 35.1164 -215.233 35.6273 -214.363 36.5579L-213.375 35.6341C-214.569 34.3567 -216.259 33.7636 -218.333 33.7636V35.1164ZM-214.363 36.5579C-213.483 37.4995 -212.998 38.8729 -212.998 40.776H-211.645C-211.645 38.6471 -212.191 36.9005 -213.375 35.6341L-214.363 36.5579ZM-212.998 40.776V54.024H-211.645V40.776H-212.998ZM-212.998 54.024C-212.998 55.9271 -213.483 57.3005 -214.363 58.2421L-213.375 59.1659C-212.191 57.8995 -211.645 56.1529 -211.645 54.024H-212.998ZM-214.363 58.2421C-215.233 59.1727 -216.52 59.6836 -218.333 59.6836V61.0364C-216.259 61.0364 -214.569 60.4433 -213.375 59.1659L-214.363 58.2421ZM-218.333 57.4364C-217.507 57.4364 -216.777 57.1803 -216.273 56.5698C-215.789 55.9841 -215.605 55.1802 -215.605 54.276H-216.958C-216.958 55.0278 -217.116 55.4659 -217.316 55.7082C-217.495 55.9258 -217.791 56.0836 -218.333 56.0836V57.4364ZM-215.605 54.276V40.524H-216.958V54.276H-215.605ZM-215.605 40.524C-215.605 39.6198 -215.789 38.8159 -216.273 38.2302C-216.777 37.6198 -217.507 37.3636 -218.333 37.3636V38.7164C-217.791 38.7164 -217.495 38.8743 -217.316 39.0918C-217.116 39.3341 -216.958 39.7722 -216.958 40.524H-215.605ZM-218.333 37.3636C-219.159 37.3636 -219.889 37.6198 -220.394 38.2302C-220.878 38.8159 -221.062 39.6198 -221.062 40.524H-219.709C-219.709 39.7722 -219.551 39.3341 -219.351 39.0918C-219.171 38.8743 -218.875 38.7164 -218.333 38.7164V37.3636ZM-221.062 40.524V54.276H-219.709V40.524H-221.062ZM-221.062 54.276C-221.062 55.1802 -220.878 55.9841 -220.394 56.5698C-219.889 57.1803 -219.159 57.4364 -218.333 57.4364V56.0836C-218.875 56.0836 -219.171 55.9258 -219.351 55.7082C-219.551 55.4659 -219.709 55.0278 -219.709 54.276H-221.062ZM-201.108 38.4H-200.431V37.7236H-201.108V38.4ZM-205.248 38.4H-205.924V39.0764H-205.248V38.4ZM-205.248 34.8V34.1236H-205.924V34.8H-205.248ZM-193.008 34.8H-192.331V34.1236H-193.008V34.8ZM-193.008 38.4V39.0764H-192.331V38.4H-193.008ZM-197.148 38.4V37.7236H-197.824V38.4H-197.148ZM-197.148 60V60.6764H-196.471V60H-197.148ZM-201.108 60H-201.784V60.6764H-201.108V60ZM-201.108 37.7236H-205.248V39.0764H-201.108V37.7236ZM-204.571 38.4V34.8H-205.924V38.4H-204.571ZM-205.248 35.4764H-193.008V34.1236H-205.248V35.4764ZM-193.684 34.8V38.4H-192.331V34.8H-193.684ZM-193.008 37.7236H-197.148V39.0764H-193.008V37.7236ZM-197.824 38.4V60H-196.471V38.4H-197.824ZM-197.148 59.3236H-201.108V60.6764H-197.148V59.3236ZM-200.431 60V38.4H-201.784V60H-200.431ZM-184.719 58.74L-185.224 59.1901L-185.219 59.1956L-184.719 58.74ZM-186.195 52.584V51.9076H-186.871V52.584H-186.195ZM-182.451 52.584H-181.774V51.9076H-182.451V52.584ZM-178.887 56.184L-179.394 55.7365L-179.396 55.7386L-178.887 56.184ZM-179.067 51.468L-179.65 51.811L-179.645 51.8186L-179.067 51.468ZM-181.731 48.552L-182.178 49.0592L-182.175 49.0622L-181.731 48.552ZM-185.151 44.664L-185.743 44.9904L-185.74 44.9956L-185.151 44.664ZM-184.611 36.096L-184.116 36.5576L-184.111 36.5521L-184.611 36.096ZM-175.935 36.096L-176.445 36.5399L-176.44 36.5458L-176.435 36.5516L-175.935 36.096ZM-174.459 41.82V42.4964H-173.782V41.82H-174.459ZM-178.203 41.82H-178.879V42.4964H-178.203V41.82ZM-178.707 38.652L-179.229 39.082L-179.222 39.0898L-179.216 39.0974L-178.707 38.652ZM-181.443 43.008L-182.021 43.3586L-182.017 43.3649L-182.013 43.3712L-181.443 43.008ZM-178.743 45.888L-179.187 46.3982L-179.186 46.3984L-178.743 45.888ZM-175.323 49.812L-175.92 50.129L-175.323 49.812ZM-175.935 58.704L-176.429 58.2421L-176.434 58.2479L-175.935 58.704ZM-180.363 59.6836C-182.155 59.6836 -183.4 59.1831 -184.219 58.2844L-185.219 59.1956C-184.069 60.4569 -182.41 61.0364 -180.363 61.0364V59.6836ZM-184.214 58.2899C-185.051 57.3501 -185.518 55.9612 -185.518 54.024H-186.871C-186.871 56.1668 -186.354 57.922 -185.224 59.1901L-184.214 58.2899ZM-185.518 54.024V52.584H-186.871V54.024H-185.518ZM-186.195 53.2604H-182.451V51.9076H-186.195V53.2604ZM-183.127 52.584V54.312H-181.774V52.584H-183.127ZM-183.127 54.312C-183.127 55.206 -182.942 56.0025 -182.456 56.5825C-181.951 57.1854 -181.221 57.4364 -180.399 57.4364V56.0836C-180.944 56.0836 -181.241 55.9266 -181.419 55.7135C-181.617 55.4775 -181.774 55.05 -181.774 54.312H-183.127ZM-180.399 57.4364C-179.597 57.4364 -178.88 57.2032 -178.378 56.6294L-179.396 55.7386C-179.566 55.9328 -179.856 56.0836 -180.399 56.0836V57.4364ZM-178.379 56.6315C-177.86 56.0424 -177.67 55.1952 -177.67 54.24H-179.023C-179.023 55.0608 -179.194 55.5096 -179.394 55.7365L-178.379 56.6315ZM-177.67 54.24C-177.67 53.0781 -177.935 52.0293 -178.488 51.1174L-179.645 51.8186C-179.238 52.4907 -179.023 53.2899 -179.023 54.24H-177.67ZM-178.484 51.125C-179.019 50.2144 -179.973 49.1853 -181.286 48.0418L-182.175 49.0622C-180.897 50.1747 -180.074 51.0896 -179.65 51.811L-178.484 51.125ZM-181.283 48.0448C-182.89 46.6269 -183.966 45.3894 -184.561 44.3324L-185.74 44.9956C-185.039 46.2426 -183.835 47.5971 -182.178 49.0592L-181.283 48.0448ZM-184.558 44.3376C-185.146 43.2704 -185.446 42.0644 -185.446 40.704H-186.799C-186.799 42.2716 -186.451 43.7056 -185.743 44.9904L-184.558 44.3376ZM-185.446 40.704C-185.446 38.8225 -184.971 37.474 -184.116 36.5575L-185.105 35.6345C-186.266 36.878 -186.799 38.6015 -186.799 40.704H-185.446ZM-184.111 36.5521C-183.265 35.6259 -182.006 35.1164 -180.219 35.1164V33.7636C-182.271 33.7636 -183.94 34.3581 -185.11 35.6399L-184.111 36.5521ZM-180.219 35.1164C-178.456 35.1164 -177.241 35.6246 -176.445 36.5399L-175.424 35.6521C-176.548 34.3594 -178.189 33.7636 -180.219 33.7636V35.1164ZM-176.435 36.5516C-175.602 37.4651 -175.135 38.8376 -175.135 40.776H-173.782C-173.782 38.6344 -174.299 36.8869 -175.435 35.6404L-176.435 36.5516ZM-175.135 40.776V41.82H-173.782V40.776H-175.135ZM-174.459 41.1436H-178.203V42.4964H-174.459V41.1436ZM-177.526 41.82V40.524H-178.879V41.82H-177.526ZM-177.526 40.524C-177.526 39.6008 -177.7 38.7747 -178.198 38.2066L-179.216 39.0974C-179.041 39.2973 -178.879 39.7192 -178.879 40.524H-177.526ZM-178.184 38.222C-178.678 37.623 -179.383 37.3636 -180.183 37.3636V38.7164C-179.687 38.7164 -179.407 38.865 -179.229 39.082L-178.184 38.222ZM-180.183 37.3636C-180.986 37.3636 -181.699 37.6147 -182.19 38.2138C-182.661 38.7874 -182.839 39.5726 -182.839 40.452H-181.486C-181.486 39.7234 -181.334 39.3026 -181.145 39.0722C-180.977 38.8673 -180.699 38.7164 -180.183 38.7164V37.3636ZM-182.839 40.452C-182.839 41.4896 -182.564 42.4626 -182.021 43.3586L-180.864 42.6574C-181.281 41.9694 -181.486 41.2384 -181.486 40.452H-182.839ZM-182.013 43.3712C-181.457 44.2459 -180.498 45.2567 -179.187 46.3982L-178.298 45.3778C-179.579 44.2633 -180.421 43.3541 -180.872 42.6449L-182.013 43.3712ZM-179.186 46.3984C-177.558 47.8146 -176.488 49.0587 -175.92 50.129L-174.725 49.4949C-175.405 48.2133 -176.615 46.8414 -178.299 45.3776L-179.186 46.3984ZM-175.92 50.129C-175.357 51.1905 -175.063 52.4576 -175.063 53.952H-173.71C-173.71 52.2784 -174.04 50.7855 -174.725 49.4949L-175.92 50.129ZM-175.063 53.952C-175.063 55.9081 -175.551 57.3032 -176.429 58.2421L-175.44 59.1659C-174.254 57.8968 -173.71 56.1239 -173.71 53.952H-175.063ZM-176.434 58.2479C-177.278 59.1724 -178.548 59.6836 -180.363 59.6836V61.0364C-178.289 61.0364 -176.607 60.4436 -175.435 59.1601L-176.434 58.2479Z" fill="#03839E"/>
</g>
<rect id="Rectangle" x="-186" y="-513" width="231" height="568" fill="#03839E"/>
<g id="Group 19">
<rect id="Rectangle 5" y="11.3135" width="16" height="1" transform="rotate(-45 0 11.3135)" fill="#F8F8F8"/>
<rect id="Rectangle 5.1" x="1" width="16" height="1" transform="rotate(45 1 0)" fill="#F8F8F8"/>
</g>
</g>
<defs>
<clipPath id="clip0_1760_281">
<rect width="320" height="568" fill="white" transform="translate(-275 -513)"/>
</clipPath>
</defs>
</svg>
