<svg id="Слой_1" data-name="Слой 1" xmlns="http://www.w3.org/2000/svg" viewBox="0 0 52.34 90.46"><defs><style>.cls-1,.cls-2{fill:#ffed7b;}.cls-1,.cls-3,.cls-5,.cls-6{stroke:#231f20;stroke-width:2.2px;}.cls-1,.cls-3{stroke-miterlimit:10;}.cls-3,.cls-5{fill:none;}.cls-4{fill:#06839e;}.cls-5,.cls-6{stroke-linecap:round;stroke-linejoin:round;}.cls-6{fill:#8fc045;}</style></defs><polygon class="cls-1" points="39.04 89.36 13.3 89.36 7.3 53.62 45.04 53.62 39.04 89.36"/><path class="cls-2" d="M322.57,424.67c0,2.51-3.64,4.57-8.09,4.57h-34c-4.45,0-8.09-2.06-8.09-4.57s3.64-4.57,8.09-4.57h34C318.93,420.1,322.57,422.15,322.57,424.67Z" transform="translate(-271.33 -375.27)"/><path class="cls-3" d="M322.57,424.67c0,2.51-3.64,4.57-8.09,4.57h-34c-4.45,0-8.09-2.06-8.09-4.57s3.64-4.57,8.09-4.57h34C318.93,420.1,322.57,422.15,322.57,424.67Z" transform="translate(-271.33 -375.27)"/><path class="cls-4" d="M316.47,380.94c0,2.51-3.16,4.57-7,4.57H285.56c-3.87,0-7-2.06-7-4.57s3.16-4.57,7-4.57h23.88C313.31,376.37,316.47,378.43,316.47,380.94Z" transform="translate(-271.33 -375.27)"/><path class="cls-5" d="M316.47,380.94c0,2.51-3.16,4.57-7,4.57H285.56c-3.87,0-7-2.06-7-4.57s3.16-4.57,7-4.57h23.88C313.31,376.37,316.47,378.43,316.47,380.94Z" transform="translate(-271.33 -375.27)"/><path class="cls-4" d="M292.84,400.39a4.82,4.82,0,0,1-5,4.57h-9.28a4.59,4.59,0,1,1,0-9.14h9.28A4.83,4.83,0,0,1,292.84,400.39Z" transform="translate(-271.33 -375.27)"/><path class="cls-5" d="M292.84,400.39a4.82,4.82,0,0,1-5,4.57h-9.28a4.59,4.59,0,1,1,0-9.14h9.28A4.83,4.83,0,0,1,292.84,400.39Z" transform="translate(-271.33 -375.27)"/><path class="cls-4" d="M321.71,394.58a4.83,4.83,0,0,1-5,4.57h-9.27a4.59,4.59,0,1,1,0-9.15h9.27A4.83,4.83,0,0,1,321.71,394.58Z" transform="translate(-271.33 -375.27)"/><path class="cls-5" d="M321.71,394.58a4.83,4.83,0,0,1-5,4.57h-9.27a4.59,4.59,0,1,1,0-9.15h9.27A4.83,4.83,0,0,1,321.71,394.58Z" transform="translate(-271.33 -375.27)"/><path class="cls-6" d="M297.5,394.17" transform="translate(-271.33 -375.27)"/><path class="cls-6" d="M306.16,385.51" transform="translate(-271.33 -375.27)"/><path class="cls-6" d="M297.5,376.85" transform="translate(-271.33 -375.27)"/><path class="cls-6" d="M288.84,385.51" transform="translate(-271.33 -375.27)"/><path class="cls-5" d="M297.5,394.74a8.66,8.66,0,0,1-8.66-8.66" transform="translate(-271.33 -375.27)"/><path class="cls-5" d="M297.5,408.68a8.66,8.66,0,0,0,8.66-8.66" transform="translate(-271.33 -375.27)"/><path class="cls-5" d="M297.5,414.8a8.66,8.66,0,0,1-8.66-8.66" transform="translate(-271.33 -375.27)"/><line class="cls-6" x1="26.17" y1="6.26" x2="26.17" y2="44.44"/></svg>