<?xml version="1.0" encoding="iso-8859-1"?>
<!-- Generator: Adobe Illustrator 19.0.0, SVG Export Plug-In . SVG Version: 6.00 Build 0)  -->
<svg xmlns="http://www.w3.org/2000/svg" xmlns:xlink="http://www.w3.org/1999/xlink" version="1.1" id="Layer_1" x="0px" y="0px" viewBox="0 0 511.553 511.553" style="enable-background:new 0 0 511.553 511.553;" xml:space="preserve" width="512" height="512">
<g>
	<g>
		<rect x="240.776" y="122.464" style="fill:#007842;" width="30" height="87.91"/>
	</g>
	<rect x="240.776" y="122.464" style="fill:#009A2D;" width="15" height="87.91"/>
	<polygon style="fill:#FFAC57;" points="114.397,277.478 141.052,511.553 370.501,511.553 397.155,277.478  "/>
	<polygon style="fill:#FFC073;" points="114.397,277.478 141.052,511.553 255.776,511.553 255.776,277.478  "/>
	<rect x="76.59" y="195.374" style="fill:#FFC073;" width="358.373" height="95.406"/>
	<rect x="76.59" y="195.374" style="fill:#FFDBA9;" width="179.187" height="95.406"/>
	<path style="fill:#00CA3F;" d="M331.755,0c-31.717,0-59.69,16.318-75.979,40.995C239.488,16.318,211.515,0,179.798,0h-36.383   v46.485c0,50.166,40.813,90.979,90.979,90.979h6.383h30h6.383c50.166,0,90.979-40.813,90.979-90.979V0H331.755z"/>
	<path style="fill:#6CEA66;" d="M179.798,0h-36.383v46.485c0,50.166,40.813,90.979,90.979,90.979h21.383V40.995   C239.488,16.318,211.515,0,179.798,0z"/>
</g>















</svg>
