<svg width="20" height="21" viewBox="0 0 20 21" fill="none" xmlns="http://www.w3.org/2000/svg">
<path d="M10 6.10352e-05C4.48602 6.10352e-05 0 4.5236 0 10.0837C0 15.6434 4.48602 20.1673 10 20.1673C15.5136 20.1673 20 15.6434 20 10.0837C20 4.5236 15.5144 6.10352e-05 10 6.10352e-05ZM14.461 7.77581C14.4655 7.87573 14.4679 7.97646 14.4679 8.07719C14.4679 11.1442 12.1534 14.6795 7.91871 14.6795C6.61887 14.6795 5.40885 14.2965 4.39056 13.6377C4.57061 13.6592 4.75389 13.6702 4.93958 13.6702C6.01829 13.6702 7.01039 13.2989 7.79828 12.6767C6.79127 12.658 5.94095 11.987 5.64811 11.0646C5.78829 11.0914 5.93289 11.1064 6.08072 11.1064C6.29058 11.1064 6.4944 11.0788 6.68734 11.0256C5.63442 10.8128 4.8413 9.87491 4.8413 8.74981C4.8413 8.74007 4.8413 8.72991 4.8417 8.72057C5.15186 8.89401 5.50673 8.9988 5.88375 9.01058C5.26666 8.59506 4.86023 7.88426 4.86023 7.07923C4.86023 6.65356 4.97341 6.2547 5.17159 5.91189C6.30629 7.31643 8.0029 8.24007 9.91541 8.33755C9.87594 8.16737 9.8562 7.99068 9.8562 7.80831C9.8562 6.52684 10.8866 5.48744 12.1574 5.48744C12.8196 5.48744 13.417 5.76933 13.8375 6.22018C14.3624 6.1162 14.8538 5.92367 15.2997 5.65682C15.1265 6.19906 14.7627 6.65356 14.2862 6.94113C14.7523 6.88508 15.197 6.76079 15.6082 6.57598C15.3013 7.04064 14.911 7.44966 14.461 7.77581Z" fill="black"/>
</svg>
