<svg width="34" height="46" viewBox="0 0 34 46" fill="none" xmlns="http://www.w3.org/2000/svg">
<path d="M25.177 43.36C23.233 43.36 21.757 42.82 20.749 41.74C19.765 40.66 19.273 39.112 19.273 37.096V35.044H23.017V37.276C23.017 38.932 23.701 39.76 25.069 39.76C25.741 39.76 26.245 39.556 26.581 39.148C26.941 38.716 27.121 37.972 27.121 36.916V34.864C27.121 33.712 26.917 32.896 26.509 32.416C26.101 31.912 25.441 31.66 24.529 31.66H23.197V28.06H24.637C25.429 28.06 26.017 27.856 26.401 27.448C26.809 27.04 27.013 26.356 27.013 25.396V23.56C27.013 22.696 26.833 22.06 26.473 21.652C26.113 21.244 25.633 21.04 25.033 21.04C23.761 21.04 23.125 21.82 23.125 23.38V25.036H19.381V23.704C19.381 21.688 19.873 20.14 20.857 19.06C21.865 17.98 23.305 17.44 25.177 17.44C27.073 17.44 28.513 17.98 29.497 19.06C30.481 20.116 30.973 21.652 30.973 23.668V24.568C30.973 25.936 30.745 27.04 30.289 27.88C29.833 28.696 29.125 29.284 28.165 29.644V29.716C29.197 30.1 29.941 30.724 30.397 31.588C30.853 32.452 31.081 33.556 31.081 34.9V37.132C31.081 39.148 30.577 40.696 29.569 41.776C28.585 42.832 27.121 43.36 25.177 43.36Z" fill="black"/>
<rect x="17.5078" y="1" width="1" height="46.2894" transform="rotate(22 17.5078 1)" fill="#333333"/>
</svg>
