<?xml version="1.0" encoding="UTF-8"?>
<!DOCTYPE svg PUBLIC "-//W3C//DTD SVG 1.1//EN" "http://www.w3.org/Graphics/SVG/1.1/DTD/svg11.dtd">
<!-- Creator: CorelDRAW 2019 (64-Bit) -->
<svg xmlns="http://www.w3.org/2000/svg" xml:space="preserve" width="70.5556mm" height="70.5556mm" version="1.1" style="shape-rendering:geometricPrecision; text-rendering:geometricPrecision; image-rendering:optimizeQuality; fill-rule:evenodd; clip-rule:evenodd"
viewBox="0 0 7055.56 7055.56"
 xmlns:xlink="http://www.w3.org/1999/xlink">
 <defs>
  <style type="text/css">
   <![CDATA[
    .fil0 {fill:#1D1D1E;fill-rule:nonzero}
   ]]>
  </style>
 </defs>
 <g id="Слой_x0020_1">
  <metadata id="CorelCorpID_0Corel-Layer"/>
  <path class="fil0" d="M5785.56 1693.34c0,-233.79 -189.55,-423.34 -423.34,-423.34 -233.78,0 -423.33,189.55 -423.33,423.34 0,233.78 189.55,423.33 423.33,423.33 233.79,0 423.34,-189.55 423.34,-423.33zm-564.45 1834.44c0,-935.21 -758.12,-1693.33 -1693.33,-1693.33 -935.21,0 -1693.34,758.12 -1693.34,1693.33 0,935.18 758.13,1693.34 1693.34,1693.34 934.75,-1.07 1692.27,-758.59 1693.33,-1693.34zm1834.45 -1552.22l0 3104.44c-1.24,1090.59 -885.02,1974.32 -1975.56,1975.56l-3104.44 0c-1090.57,-1.24 -1974.32,-884.97 -1975.56,-1975.56l0 -3104.44c1.24,-1090.58 884.99,-1974.32 1975.56,-1975.56l3104.44 0c1090.54,1.24 1974.32,884.98 1975.56,1975.56zm-2398.89 1552.22c0,623.47 -505.43,1128.89 -1128.89,1128.89 -623.48,0 -1128.89,-505.42 -1128.89,-1128.89 0,-623.46 505.41,-1128.89 1128.89,-1128.89 623.18,0.71 1128.15,505.75 1128.89,1128.89z"/>
 </g>
</svg>
