<?xml version="1.0" encoding="UTF-8" standalone="no"?>
<svg
   width="1024px"
   height="1024px"
   viewBox="0 0 1024 1024"
   version="1.1"
   id="svg52"
   sodipodi:docname="instagram.svg"
   inkscape:version="1.2 (dc2aeda, 2022-05-15)"
   xmlns:inkscape="http://www.inkscape.org/namespaces/inkscape"
   xmlns:sodipodi="http://sodipodi.sourceforge.net/DTD/sodipodi-0.dtd"
   xmlns="http://www.w3.org/2000/svg"
   xmlns:svg="http://www.w3.org/2000/svg">
  <defs
     id="defs56" />
  <sodipodi:namedview
     id="namedview54"
     pagecolor="#ffffff"
     bordercolor="#000000"
     borderopacity="0.25"
     inkscape:showpageshadow="2"
     inkscape:pageopacity="0.0"
     inkscape:pagecheckerboard="0"
     inkscape:deskcolor="#d1d1d1"
     showgrid="false"
     inkscape:zoom="0.53710938"
     inkscape:cx="511.06909"
     inkscape:cy="512"
     inkscape:window-width="1309"
     inkscape:window-height="770"
     inkscape:window-x="0"
     inkscape:window-y="25"
     inkscape:window-maximized="0"
     inkscape:current-layer="svg52" />
  <path
     d="m 507.31718,342.68912 c -92.71555,0 -168.37853,76.50025 -168.37853,170.24179 0,93.74153 75.66298,170.24179 168.37853,170.24179 92.71555,0 168.37853,-76.50026 168.37853,-170.24179 0,-93.74154 -75.66298,-170.24179 -168.37853,-170.24179 z m 505.00932,170.24179 c 0,-70.49772 0.6315,-140.35689 -3.2843,-210.72689 C 1005.1265,220.46752 986.6844,147.92638 927.56876,88.156574 868.3268,28.259051 796.70592,9.7406268 715.86403,5.7815154 646.13788,1.822404 577.04331,2.4609704 507.4435,2.4609704 c -69.72614,0 -138.82071,-0.6385664 -208.42054,3.320545 C 218.18107,9.7406268 146.43388,28.386764 87.318231,88.156574 28.076282,148.05409 9.7605411,220.46752 5.844752,302.20402 1.9289742,372.70174 2.5605542,442.5609 2.5605542,512.93091 c 0,70.37001 -0.63158,140.35689 3.2841978,210.72689 3.9157891,81.73649 22.357839,154.27763 81.473479,214.04744 59.241959,59.89752 130.862839,78.41596 211.704729,82.37506 69.72615,3.9591 138.82072,3.3205 208.42054,3.3205 69.72613,0 138.8207,0.6386 208.42053,-3.3205 80.84189,-3.9591 152.58908,-22.60525 211.70473,-82.37506 59.24195,-59.89752 77.55774,-132.31095 81.47344,-214.04744 4.0421,-70.37 3.2843,-140.22917 3.2843,-210.72689 z M 507.31718,774.87083 c -143.36806,0 -259.07303,-116.98536 -259.07303,-261.93992 0,-144.95456 115.70497,-261.93992 259.07303,-261.93992 143.36806,0 259.07303,116.98536 259.07303,261.93992 0,144.95456 -115.70497,261.93992 -259.07303,261.93992 z m 269.68353,-473.4331 c -33.4736,0 -60.5051,-27.33064 -60.5051,-61.17465 0,-33.84402 27.0315,-61.17466 60.5051,-61.17466 33.4736,0 60.50511,27.33064 60.50511,61.17466 a 60.429322,61.098028 0 0 1 -60.50511,61.17465 z"
     id="path50"
     style="stroke-width:1.27012" />
</svg>
