<svg width="4" height="5" viewBox="0 0 4 5" fill="none" xmlns="http://www.w3.org/2000/svg">
<path d="M0.853907 1.52185C0.853907 1.52185 1.33203 1.30935 2.02266 1.30935C2.39453 1.30935 2.71328 1.36247 2.71328 1.68122C2.71328 1.89372 2.66016 1.94685 2.66016 1.94685C2.66016 1.94685 2.34141 1.94685 2.18203 1.94685C1.27891 1.94685 0.269531 2.31873 0.269531 3.5406C0.269531 4.49685 0.907032 4.70935 1.27891 4.70935C2.02266 4.70935 2.34141 4.23123 2.39453 4.23123L2.34141 4.65622H3.29766L3.72266 1.73435C3.72266 0.512475 2.66016 0.459351 2.23516 0.459351L0.853907 1.52185ZM3.03203 2.74373C3.03203 2.9031 2.39453 3.7531 1.75703 3.7531C1.43828 3.7531 1.33203 3.48747 1.33203 3.3281C1.33203 3.06247 1.49141 2.6906 2.28828 2.6906C2.50078 2.74372 3.03203 2.74373 3.03203 2.74373Z" fill="#DCE5E5"/>
</svg>
