<svg width="34" height="34" viewBox="0 0 34 34" fill="none" xmlns="http://www.w3.org/2000/svg">
<path d="M33.7346 17.0001C33.7346 22.5251 29.2721 27.0407 23.6939 27.0407C18.1689 27.0407 13.6533 22.5251 13.6533 17.0001C13.6533 11.4751 18.1158 6.95947 23.6408 6.95947C29.2721 6.95947 33.7346 11.4751 33.7346 17.0001Z" fill="#FFB600"/>
<path d="M23.6939 6.95947C29.2189 6.95947 33.7346 11.4751 33.7346 17.0001C33.7346 22.5251 29.2721 27.0407 23.6939 27.0407C18.1689 27.0407 13.6533 22.5251 13.6533 17.0001" fill="#F7981D"/>
<path d="M23.6934 6.95947C29.2184 6.95947 33.734 11.4751 33.734 17.0001C33.734 22.5251 29.2715 27.0407 23.6934 27.0407" fill="#FF8500"/>
<path d="M10.2 6.95947C4.72813 7.0126 0.265625 11.4751 0.265625 17.0001C0.265625 22.5251 4.72812 27.0407 10.3062 27.0407C12.9094 27.0407 15.2469 26.0314 17.0531 24.4376C17.425 24.1189 17.7437 23.747 18.0625 23.3751H15.9906C15.725 23.0563 15.4594 22.6845 15.2469 22.3657H18.8063C19.0188 22.047 19.2313 21.6751 19.3906 21.3032H14.6625C14.5031 20.9845 14.3438 20.6126 14.2375 20.2407H19.7625C20.0813 19.2313 20.2938 18.1688 20.2938 17.0532C20.2938 16.3095 20.1875 15.6188 20.0812 14.9282H13.9188C13.9719 14.5563 14.0781 14.2376 14.1844 13.8657H19.7094C19.6031 13.4938 19.4438 13.122 19.2844 12.8032H14.6094C14.7688 12.4313 14.9812 12.1126 15.1938 11.7407H18.7531C18.5406 11.3688 18.275 10.997 17.9562 10.6782H15.9906C16.3094 10.3063 16.6281 9.9876 17 9.66885C15.2469 8.02197 12.8562 7.06572 10.2531 7.06572C10.2531 6.95947 10.2531 6.95947 10.2 6.95947Z" fill="#FF5050"/>
<path d="M0.265625 17C0.265625 22.525 4.72812 27.0407 10.3062 27.0407C12.9094 27.0407 15.2469 26.0313 17.0531 24.4375C17.425 24.1188 17.7437 23.7469 18.0625 23.375H15.9906C15.725 23.0563 15.4594 22.6844 15.2469 22.3657H18.8063C19.0188 22.0469 19.2313 21.675 19.3906 21.3032H14.6625C14.5031 20.9844 14.3438 20.6125 14.2375 20.2407H19.7625C20.0813 19.2313 20.2938 18.1688 20.2938 17.0532C20.2938 16.3094 20.1875 15.6188 20.0812 14.9282H13.9188C13.9719 14.5563 14.0781 14.2375 14.1844 13.8657H19.7094C19.6031 13.4938 19.4438 13.1219 19.2844 12.8032H14.6094C14.7688 12.4313 14.9812 12.1125 15.1938 11.7407H18.7531C18.5406 11.3688 18.275 10.9969 17.9562 10.6782H15.9906C16.3094 10.3063 16.6281 9.98755 17 9.6688C15.2469 8.02192 12.8562 7.06567 10.2531 7.06567H10.2" fill="#E52836"/>
<path d="M10.3064 27.0407C12.9096 27.0407 15.2471 26.0313 17.0533 24.4375C17.4252 24.1188 17.7439 23.7469 18.0627 23.375H15.9908C15.7252 23.0563 15.4596 22.6844 15.2471 22.3657H18.8064C19.0189 22.0469 19.2314 21.675 19.3908 21.3032H14.6627C14.5033 20.9844 14.3439 20.6125 14.2377 20.2407H19.7627C20.0814 19.2313 20.2939 18.1688 20.2939 17.0532C20.2939 16.3094 20.1877 15.6188 20.0814 14.9282H13.9189C13.9721 14.5563 14.0783 14.2375 14.1846 13.8657H19.7096C19.6033 13.4938 19.4439 13.1219 19.2846 12.8032H14.6096C14.7689 12.4313 14.9814 12.1125 15.1939 11.7407H18.7533C18.5408 11.3688 18.2752 10.9969 17.9564 10.6782H15.9908C16.3096 10.3063 16.6283 9.98755 17.0002 9.6688C15.2471 8.02192 12.8564 7.06567 10.2533 7.06567H10.2002" fill="#CB2026"/>
<path d="M13.8658 19.55L14.0252 18.6469C13.9721 18.6469 13.8658 18.7 13.7596 18.7C13.3877 18.7 13.3346 18.4875 13.3877 18.3812L13.7064 16.5219H14.2908L14.4502 15.5125H13.9189L14.0252 14.875H12.9627C12.9627 14.875 12.3252 18.3813 12.3252 18.8063C12.3252 19.4438 12.6971 19.7094 13.1752 19.7094C13.4939 19.7094 13.7596 19.6031 13.8658 19.55Z" fill="white"/>
<path d="M14.2373 17.85C14.2373 19.3375 15.2467 19.7094 16.0967 19.7094C16.8936 19.7094 17.2123 19.55 17.2123 19.55L17.4248 18.5406C17.4248 18.5406 16.8404 18.8062 16.3092 18.8062C15.1404 18.8062 15.3529 17.9562 15.3529 17.9562H17.5311C17.5311 17.9562 17.6904 17.2656 17.6904 17C17.6904 16.3094 17.3186 15.4594 16.1498 15.4594C15.0342 15.3531 14.2373 16.5219 14.2373 17.85ZM16.0967 16.3094C16.6811 16.3094 16.5748 17 16.5748 17.0531H15.4061C15.4061 17 15.5123 16.3094 16.0967 16.3094Z" fill="white"/>
<path d="M22.8438 19.5501L23.0563 18.3813C23.0563 18.3813 22.525 18.647 22.1531 18.647C21.4094 18.647 21.0906 18.0626 21.0906 17.4251C21.0906 16.1501 21.7281 15.4595 22.4719 15.4595C23.0031 15.4595 23.4281 15.7782 23.4281 15.7782L23.5875 14.6626C23.5875 14.6626 22.95 14.397 22.3656 14.397C21.1437 14.397 19.9219 15.4595 19.9219 17.4782C19.9219 18.8063 20.5594 19.7095 21.8344 19.7095C22.2594 19.7095 22.8438 19.5501 22.8438 19.5501Z" fill="white"/>
<path d="M8.02168 15.3533C7.27793 15.3533 6.74668 15.5658 6.74668 15.5658L6.5873 16.4689C6.5873 16.4689 7.06543 16.2564 7.75605 16.2564C8.12793 16.2564 8.44668 16.3095 8.44668 16.6283C8.44668 16.8408 8.39355 16.8939 8.39355 16.8939C8.39355 16.8939 8.0748 16.8939 7.91543 16.8939C7.0123 16.8939 6.00293 17.2658 6.00293 18.4876C6.00293 19.4439 6.64043 19.6564 7.0123 19.6564C7.75605 19.6564 8.0748 19.1783 8.12793 19.1783L8.0748 19.6033H9.03105L9.45605 16.6814C9.45605 15.4064 8.39355 15.3533 8.02168 15.3533ZM8.23418 17.7439C8.23418 17.9033 8.12793 18.7533 7.49043 18.7533C7.17168 18.7533 7.06543 18.4876 7.06543 18.3283C7.06543 18.0626 7.2248 17.6908 8.02168 17.6908C8.18105 17.7439 8.23418 17.7439 8.23418 17.7439Z" fill="white"/>
<path d="M10.465 19.6563C10.7307 19.6563 12.0588 19.7094 12.0588 18.2751C12.0588 16.9469 10.7838 17.2125 10.7838 16.6813C10.7838 16.4157 10.9963 16.3094 11.3682 16.3094C11.5275 16.3094 12.1119 16.3625 12.1119 16.3625L12.2713 15.4063C12.2713 15.4063 11.8994 15.3 11.2619 15.3C10.465 15.3 9.66816 15.6188 9.66816 16.6813C9.66816 17.9032 10.9963 17.7969 10.9963 18.2751C10.9963 18.5938 10.6244 18.6469 10.3588 18.6469C9.88066 18.6469 9.40254 18.4875 9.40254 18.4875L9.24316 19.4438C9.29629 19.55 9.56191 19.6563 10.465 19.6563Z" fill="white"/>
<path d="M31.6619 14.5032L31.4494 15.9375C31.4494 15.9375 31.0244 15.4063 30.44 15.4063C29.4838 15.4063 28.6338 16.575 28.6338 17.9563C28.6338 18.8063 29.0588 19.7094 29.9619 19.7094C30.5994 19.7094 30.9713 19.2844 30.9713 19.2844L30.9182 19.6563H31.9807L32.7775 14.5563L31.6619 14.5032ZM31.1838 17.3188C31.1838 17.9032 30.9182 18.6469 30.3338 18.6469C29.9619 18.6469 29.7494 18.3282 29.7494 17.7969C29.7494 16.9469 30.1213 16.4157 30.5994 16.4157C30.9713 16.4157 31.1838 16.6813 31.1838 17.3188Z" fill="white"/>
<path d="M2.23105 19.6032L2.86855 15.7782L2.9748 19.6032H3.71855L5.09981 15.7782L4.51543 19.6032H5.63106L6.48106 14.5032H4.72793L3.66543 17.6376L3.6123 14.5032H2.07168L1.22168 19.6032H2.23105Z" fill="white"/>
<path d="M18.7 19.6032C19.0188 17.8501 19.0719 16.4157 19.8156 16.6813C19.9219 15.9907 20.0812 15.7251 20.1875 15.4595C20.1875 15.4595 20.1344 15.4595 19.975 15.4595C19.4969 15.4595 19.125 16.097 19.125 16.097L19.2313 15.5126H18.2219L17.5312 19.6563H18.7V19.6032Z" fill="white"/>
<path d="M25.2873 15.3533C24.5436 15.3533 24.0123 15.5658 24.0123 15.5658L23.8529 16.4689C23.8529 16.4689 24.3311 16.2564 25.0217 16.2564C25.3936 16.2564 25.7123 16.3095 25.7123 16.6283C25.7123 16.8408 25.6592 16.8939 25.6592 16.8939C25.6592 16.8939 25.3404 16.8939 25.1811 16.8939C24.2779 16.8939 23.2686 17.2658 23.2686 18.4876C23.2686 19.4439 23.9061 19.6564 24.2779 19.6564C25.0217 19.6564 25.3404 19.1783 25.3936 19.1783L25.3404 19.6033H26.2967L26.7217 16.6814C26.7748 15.4064 25.6592 15.3533 25.2873 15.3533ZM25.5529 17.7439C25.5529 17.9033 25.4467 18.7533 24.8092 18.7533C24.4904 18.7533 24.3842 18.4876 24.3842 18.3283C24.3842 18.0626 24.5436 17.6908 25.3404 17.6908C25.4998 17.7439 25.4998 17.7439 25.5529 17.7439Z" fill="white"/>
<path d="M27.6248 19.6032C27.9436 17.8501 27.9967 16.4157 28.7404 16.6813C28.8467 15.9907 29.0061 15.7251 29.1123 15.4595C29.1123 15.4595 29.0592 15.4595 28.8998 15.4595C28.4217 15.4595 28.0498 16.097 28.0498 16.097L28.1561 15.5126H27.1467L26.4561 19.6563H27.6248V19.6032Z" fill="white"/>
<path d="M12.2188 18.8063C12.2188 19.4438 12.5906 19.7094 13.0687 19.7094C13.4406 19.7094 13.7594 19.6031 13.8656 19.55L14.025 18.6469C13.9719 18.6469 13.8656 18.7 13.7594 18.7C13.3875 18.7 13.3344 18.4875 13.3875 18.3812L13.7062 16.5219H14.2906L14.45 15.5125H13.9187L14.025 14.875" fill="#DCE5E5"/>
<path d="M14.7686 17.85C14.7686 19.3375 15.2467 19.7094 16.0967 19.7094C16.8936 19.7094 17.2123 19.55 17.2123 19.55L17.4248 18.5406C17.4248 18.5406 16.8404 18.8062 16.3092 18.8062C15.1404 18.8062 15.3529 17.9562 15.3529 17.9562H17.5311C17.5311 17.9562 17.6904 17.2656 17.6904 17C17.6904 16.3094 17.3186 15.4594 16.1498 15.4594C15.0342 15.3531 14.7686 16.5219 14.7686 17.85ZM16.0967 16.3094C16.6811 16.3094 16.7873 17 16.7873 17.0531H15.4061C15.4061 17 15.5123 16.3094 16.0967 16.3094Z" fill="#DCE5E5"/>
<path d="M22.8438 19.5501L23.0563 18.3813C23.0563 18.3813 22.525 18.647 22.1531 18.647C21.4094 18.647 21.0906 18.0626 21.0906 17.4251C21.0906 16.1501 21.7281 15.4595 22.4719 15.4595C23.0031 15.4595 23.4281 15.7782 23.4281 15.7782L23.5875 14.6626C23.5875 14.6626 22.95 14.397 22.3656 14.397C21.1437 14.397 20.4531 15.4595 20.4531 17.4782C20.4531 18.8063 20.5594 19.7095 21.8344 19.7095C22.2594 19.7095 22.8438 19.5501 22.8438 19.5501Z" fill="#DCE5E5"/>
<path d="M6.5873 16.522C6.5873 16.522 7.06543 16.3095 7.75605 16.3095C8.12793 16.3095 8.44668 16.3626 8.44668 16.6813C8.44668 16.8938 8.39355 16.947 8.39355 16.947C8.39355 16.947 8.0748 16.947 7.91543 16.947C7.0123 16.947 6.00293 17.3188 6.00293 18.5407C6.00293 19.497 6.64043 19.7095 7.0123 19.7095C7.75605 19.7095 8.0748 19.2313 8.12793 19.2313L8.0748 19.6563H9.03105L9.45605 16.7345C9.45605 15.5126 8.39355 15.4595 7.96855 15.4595L6.5873 16.522ZM8.76543 17.7438C8.76543 17.9032 8.12793 18.7532 7.49043 18.7532C7.17168 18.7532 7.06543 18.4876 7.06543 18.3282C7.06543 18.0626 7.2248 17.6907 8.02168 17.6907C8.18105 17.7438 8.76543 17.7438 8.76543 17.7438Z" fill="#DCE5E5"/>
<path d="M9.29688 19.55C9.29688 19.55 9.61562 19.6563 10.5187 19.6563C10.7844 19.6563 12.1125 19.7094 12.1125 18.2751C12.1125 16.9469 10.8375 17.2125 10.8375 16.6813C10.8375 16.4157 11.05 16.3094 11.4219 16.3094C11.5813 16.3094 12.1656 16.3625 12.1656 16.3625L12.325 15.4063C12.325 15.4063 11.9531 15.3 11.3156 15.3C10.5187 15.3 10.2531 15.6188 10.2531 16.6813C10.2531 17.9032 11.05 17.7969 11.05 18.2751C11.05 18.5938 10.6781 18.6469 10.4125 18.6469" fill="#DCE5E5"/>
<path d="M31.4494 15.9376C31.4494 15.9376 31.0244 15.4064 30.44 15.4064C29.4837 15.4064 29.165 16.5751 29.165 17.9564C29.165 18.8064 29.0587 19.7095 29.9619 19.7095C30.5994 19.7095 30.9712 19.2845 30.9712 19.2845L30.9181 19.6564H31.9806L32.7775 14.5564L31.4494 15.9376ZM31.3962 17.3189C31.3962 17.9033 30.9181 18.647 30.3337 18.647C29.9619 18.647 29.7494 18.3283 29.7494 17.797C29.7494 16.947 30.1212 16.4158 30.5994 16.4158C30.9712 16.4158 31.3962 16.6814 31.3962 17.3189Z" fill="#DCE5E5"/>
<path d="M2.23105 19.6032L2.86855 15.7782L2.9748 19.6032H3.71855L5.09981 15.7782L4.51543 19.6032H5.63106L6.48106 14.5032H5.15293L3.66543 17.6376L3.6123 14.5032H3.02793L1.22168 19.6032H2.23105Z" fill="#DCE5E5"/>
<path d="M17.584 19.6032H18.6996C19.0184 17.8501 19.0715 16.4157 19.8152 16.6813C19.9215 15.9907 20.0809 15.7251 20.1871 15.4595C20.1871 15.4595 20.134 15.4595 19.9746 15.4595C19.4965 15.4595 19.1246 16.097 19.1246 16.097L19.2309 15.5126" fill="#DCE5E5"/>
<path d="M23.8529 16.522C23.8529 16.522 24.3311 16.3095 25.0217 16.3095C25.3936 16.3095 25.7123 16.3626 25.7123 16.6813C25.7123 16.8938 25.6592 16.947 25.6592 16.947C25.6592 16.947 25.3404 16.947 25.1811 16.947C24.2779 16.947 23.2686 17.3188 23.2686 18.5407C23.2686 19.497 23.9061 19.7095 24.2779 19.7095C25.0217 19.7095 25.3404 19.2313 25.3936 19.2313L25.3404 19.6563H26.2967L26.7217 16.7345C26.7217 15.5126 25.6592 15.4595 25.2342 15.4595L23.8529 16.522ZM26.0311 17.7438C26.0311 17.9032 25.3936 18.7532 24.7561 18.7532C24.4373 18.7532 24.3311 18.4876 24.3311 18.3282C24.3311 18.0626 24.4904 17.6907 25.2873 17.6907C25.4998 17.7438 26.0311 17.7438 26.0311 17.7438Z" fill="#DCE5E5"/>
<path d="M26.5088 19.6032H27.6244C27.9432 17.8501 27.9963 16.4157 28.74 16.6813C28.8463 15.9907 29.0057 15.7251 29.1119 15.4595C29.1119 15.4595 29.0588 15.4595 28.8994 15.4595C28.4213 15.4595 28.0494 16.097 28.0494 16.097L28.1557 15.5126" fill="#DCE5E5"/>
</svg>
