<svg width="34" height="22" viewBox="0 0 34 22" fill="none" xmlns="http://www.w3.org/2000/svg">
<path d="M33.7346 11.0001C33.7346 16.5251 29.2721 21.0407 23.6939 21.0407C18.1689 21.0407 13.6533 16.5251 13.6533 11.0001C13.6533 5.4751 18.1158 0.959473 23.6408 0.959473C29.2721 0.959473 33.7346 5.4751 33.7346 11.0001Z" fill="#FFB600"/>
<path d="M23.6939 0.959473C29.2189 0.959473 33.7346 5.4751 33.7346 11.0001C33.7346 16.5251 29.2721 21.0407 23.6939 21.0407C18.1689 21.0407 13.6533 16.5251 13.6533 11.0001" fill="#F7981D"/>
<path d="M23.6934 0.959473C29.2184 0.959473 33.734 5.4751 33.734 11.0001C33.734 16.5251 29.2715 21.0407 23.6934 21.0407" fill="#FF8500"/>
<path d="M10.2 0.959473C4.72813 1.0126 0.265625 5.4751 0.265625 11.0001C0.265625 16.5251 4.72812 21.0407 10.3062 21.0407C12.9094 21.0407 15.2469 20.0314 17.0531 18.4376C17.425 18.1189 17.7437 17.747 18.0625 17.3751H15.9906C15.725 17.0563 15.4594 16.6845 15.2469 16.3657H18.8063C19.0188 16.047 19.2313 15.6751 19.3906 15.3032H14.6625C14.5031 14.9845 14.3438 14.6126 14.2375 14.2407H19.7625C20.0813 13.2313 20.2938 12.1688 20.2938 11.0532C20.2938 10.3095 20.1875 9.61885 20.0812 8.92822H13.9188C13.9719 8.55635 14.0781 8.2376 14.1844 7.86572H19.7094C19.6031 7.49385 19.4438 7.12197 19.2844 6.80322H14.6094C14.7688 6.43135 14.9812 6.1126 15.1938 5.74072H18.7531C18.5406 5.36885 18.275 4.99697 17.9562 4.67822H15.9906C16.3094 4.30635 16.6281 3.9876 17 3.66885C15.2469 2.02197 12.8562 1.06572 10.2531 1.06572C10.2531 0.959473 10.2531 0.959473 10.2 0.959473Z" fill="#FF5050"/>
<path d="M0.265625 11C0.265625 16.525 4.72812 21.0407 10.3062 21.0407C12.9094 21.0407 15.2469 20.0313 17.0531 18.4375C17.425 18.1188 17.7437 17.7469 18.0625 17.375H15.9906C15.725 17.0563 15.4594 16.6844 15.2469 16.3657H18.8063C19.0188 16.0469 19.2313 15.675 19.3906 15.3032H14.6625C14.5031 14.9844 14.3438 14.6125 14.2375 14.2407H19.7625C20.0813 13.2313 20.2938 12.1688 20.2938 11.0532C20.2938 10.3094 20.1875 9.6188 20.0812 8.92817H13.9188C13.9719 8.5563 14.0781 8.23755 14.1844 7.86567H19.7094C19.6031 7.4938 19.4438 7.12192 19.2844 6.80317H14.6094C14.7688 6.4313 14.9812 6.11255 15.1938 5.74067H18.7531C18.5406 5.3688 18.275 4.99692 17.9562 4.67817H15.9906C16.3094 4.3063 16.6281 3.98755 17 3.6688C15.2469 2.02192 12.8562 1.06567 10.2531 1.06567H10.2" fill="#E52836"/>
<path d="M10.3064 21.0407C12.9096 21.0407 15.2471 20.0313 17.0533 18.4375C17.4252 18.1188 17.7439 17.7469 18.0627 17.375H15.9908C15.7252 17.0563 15.4596 16.6844 15.2471 16.3657H18.8064C19.0189 16.0469 19.2314 15.675 19.3908 15.3032H14.6627C14.5033 14.9844 14.3439 14.6125 14.2377 14.2407H19.7627C20.0814 13.2313 20.2939 12.1688 20.2939 11.0532C20.2939 10.3094 20.1877 9.6188 20.0814 8.92817H13.9189C13.9721 8.5563 14.0783 8.23755 14.1846 7.86567H19.7096C19.6033 7.4938 19.4439 7.12192 19.2846 6.80317H14.6096C14.7689 6.4313 14.9814 6.11255 15.1939 5.74067H18.7533C18.5408 5.3688 18.2752 4.99692 17.9564 4.67817H15.9908C16.3096 4.3063 16.6283 3.98755 17.0002 3.6688C15.2471 2.02192 12.8564 1.06567 10.2533 1.06567H10.2002" fill="#CB2026"/>
<path d="M13.8658 13.55L14.0252 12.6469C13.9721 12.6469 13.8658 12.7 13.7596 12.7C13.3877 12.7 13.3346 12.4875 13.3877 12.3812L13.7064 10.5219H14.2908L14.4502 9.5125H13.9189L14.0252 8.875H12.9627C12.9627 8.875 12.3252 12.3813 12.3252 12.8063C12.3252 13.4438 12.6971 13.7094 13.1752 13.7094C13.4939 13.7094 13.7596 13.6031 13.8658 13.55Z" fill="white"/>
<path d="M14.2373 11.85C14.2373 13.3375 15.2467 13.7094 16.0967 13.7094C16.8936 13.7094 17.2123 13.55 17.2123 13.55L17.4248 12.5406C17.4248 12.5406 16.8404 12.8062 16.3092 12.8062C15.1404 12.8062 15.3529 11.9562 15.3529 11.9562H17.5311C17.5311 11.9562 17.6904 11.2656 17.6904 11C17.6904 10.3094 17.3186 9.45936 16.1498 9.45936C15.0342 9.35311 14.2373 10.5219 14.2373 11.85ZM16.0967 10.3094C16.6811 10.3094 16.5748 11 16.5748 11.0531H15.4061C15.4061 11 15.5123 10.3094 16.0967 10.3094Z" fill="white"/>
<path d="M22.8438 13.5501L23.0563 12.3813C23.0563 12.3813 22.525 12.647 22.1531 12.647C21.4094 12.647 21.0906 12.0626 21.0906 11.4251C21.0906 10.1501 21.7281 9.45947 22.4719 9.45947C23.0031 9.45947 23.4281 9.77822 23.4281 9.77822L23.5875 8.6626C23.5875 8.6626 22.95 8.39697 22.3656 8.39697C21.1437 8.39697 19.9219 9.45947 19.9219 11.4782C19.9219 12.8063 20.5594 13.7095 21.8344 13.7095C22.2594 13.7095 22.8438 13.5501 22.8438 13.5501Z" fill="white"/>
<path d="M8.02168 9.35327C7.27793 9.35327 6.74668 9.56577 6.74668 9.56577L6.5873 10.4689C6.5873 10.4689 7.06543 10.2564 7.75605 10.2564C8.12793 10.2564 8.44668 10.3095 8.44668 10.6283C8.44668 10.8408 8.39355 10.8939 8.39355 10.8939C8.39355 10.8939 8.0748 10.8939 7.91543 10.8939C7.0123 10.8939 6.00293 11.2658 6.00293 12.4876C6.00293 13.4439 6.64043 13.6564 7.0123 13.6564C7.75605 13.6564 8.0748 13.1783 8.12793 13.1783L8.0748 13.6033H9.03105L9.45605 10.6814C9.45605 9.4064 8.39355 9.35327 8.02168 9.35327ZM8.23418 11.7439C8.23418 11.9033 8.12793 12.7533 7.49043 12.7533C7.17168 12.7533 7.06543 12.4876 7.06543 12.3283C7.06543 12.0626 7.2248 11.6908 8.02168 11.6908C8.18105 11.7439 8.23418 11.7439 8.23418 11.7439Z" fill="white"/>
<path d="M10.465 13.6563C10.7307 13.6563 12.0588 13.7094 12.0588 12.2751C12.0588 10.9469 10.7838 11.2125 10.7838 10.6813C10.7838 10.4157 10.9963 10.3094 11.3682 10.3094C11.5275 10.3094 12.1119 10.3625 12.1119 10.3625L12.2713 9.4063C12.2713 9.4063 11.8994 9.30005 11.2619 9.30005C10.465 9.30005 9.66816 9.6188 9.66816 10.6813C9.66816 11.9032 10.9963 11.7969 10.9963 12.2751C10.9963 12.5938 10.6244 12.6469 10.3588 12.6469C9.88066 12.6469 9.40254 12.4875 9.40254 12.4875L9.24316 13.4438C9.29629 13.55 9.56191 13.6563 10.465 13.6563Z" fill="white"/>
<path d="M31.6619 8.50317L31.4494 9.93755C31.4494 9.93755 31.0244 9.4063 30.44 9.4063C29.4838 9.4063 28.6338 10.575 28.6338 11.9563C28.6338 12.8063 29.0588 13.7094 29.9619 13.7094C30.5994 13.7094 30.9713 13.2844 30.9713 13.2844L30.9182 13.6563H31.9807L32.7775 8.5563L31.6619 8.50317ZM31.1838 11.3188C31.1838 11.9032 30.9182 12.6469 30.3338 12.6469C29.9619 12.6469 29.7494 12.3282 29.7494 11.7969C29.7494 10.9469 30.1213 10.4157 30.5994 10.4157C30.9713 10.4157 31.1838 10.6813 31.1838 11.3188Z" fill="white"/>
<path d="M2.23105 13.6032L2.86855 9.77817L2.9748 13.6032H3.71855L5.09981 9.77817L4.51543 13.6032H5.63106L6.48106 8.50317H4.72793L3.66543 11.6376L3.6123 8.50317H2.07168L1.22168 13.6032H2.23105Z" fill="white"/>
<path d="M18.7 13.6032C19.0188 11.8501 19.0719 10.4157 19.8156 10.6813C19.9219 9.99072 20.0812 9.7251 20.1875 9.45947C20.1875 9.45947 20.1344 9.45947 19.975 9.45947C19.4969 9.45947 19.125 10.097 19.125 10.097L19.2313 9.5126H18.2219L17.5312 13.6563H18.7V13.6032Z" fill="white"/>
<path d="M25.2873 9.35327C24.5436 9.35327 24.0123 9.56577 24.0123 9.56577L23.8529 10.4689C23.8529 10.4689 24.3311 10.2564 25.0217 10.2564C25.3936 10.2564 25.7123 10.3095 25.7123 10.6283C25.7123 10.8408 25.6592 10.8939 25.6592 10.8939C25.6592 10.8939 25.3404 10.8939 25.1811 10.8939C24.2779 10.8939 23.2686 11.2658 23.2686 12.4876C23.2686 13.4439 23.9061 13.6564 24.2779 13.6564C25.0217 13.6564 25.3404 13.1783 25.3936 13.1783L25.3404 13.6033H26.2967L26.7217 10.6814C26.7748 9.4064 25.6592 9.35327 25.2873 9.35327ZM25.5529 11.7439C25.5529 11.9033 25.4467 12.7533 24.8092 12.7533C24.4904 12.7533 24.3842 12.4876 24.3842 12.3283C24.3842 12.0626 24.5436 11.6908 25.3404 11.6908C25.4998 11.7439 25.4998 11.7439 25.5529 11.7439Z" fill="white"/>
<path d="M27.6248 13.6032C27.9436 11.8501 27.9967 10.4157 28.7404 10.6813C28.8467 9.99072 29.0061 9.7251 29.1123 9.45947C29.1123 9.45947 29.0592 9.45947 28.8998 9.45947C28.4217 9.45947 28.0498 10.097 28.0498 10.097L28.1561 9.5126H27.1467L26.4561 13.6563H27.6248V13.6032Z" fill="white"/>
<path d="M12.2188 12.8063C12.2188 13.4438 12.5906 13.7094 13.0687 13.7094C13.4406 13.7094 13.7594 13.6031 13.8656 13.55L14.025 12.6469C13.9719 12.6469 13.8656 12.7 13.7594 12.7C13.3875 12.7 13.3344 12.4875 13.3875 12.3812L13.7062 10.5219H14.2906L14.45 9.5125H13.9187L14.025 8.875" fill="#DCE5E5"/>
<path d="M14.7686 11.85C14.7686 13.3375 15.2467 13.7094 16.0967 13.7094C16.8936 13.7094 17.2123 13.55 17.2123 13.55L17.4248 12.5406C17.4248 12.5406 16.8404 12.8062 16.3092 12.8062C15.1404 12.8062 15.3529 11.9562 15.3529 11.9562H17.5311C17.5311 11.9562 17.6904 11.2656 17.6904 11C17.6904 10.3094 17.3186 9.45936 16.1498 9.45936C15.0342 9.35311 14.7686 10.5219 14.7686 11.85ZM16.0967 10.3094C16.6811 10.3094 16.7873 11 16.7873 11.0531H15.4061C15.4061 11 15.5123 10.3094 16.0967 10.3094Z" fill="#DCE5E5"/>
<path d="M22.8438 13.5501L23.0563 12.3813C23.0563 12.3813 22.525 12.647 22.1531 12.647C21.4094 12.647 21.0906 12.0626 21.0906 11.4251C21.0906 10.1501 21.7281 9.45947 22.4719 9.45947C23.0031 9.45947 23.4281 9.77822 23.4281 9.77822L23.5875 8.6626C23.5875 8.6626 22.95 8.39697 22.3656 8.39697C21.1437 8.39697 20.4531 9.45947 20.4531 11.4782C20.4531 12.8063 20.5594 13.7095 21.8344 13.7095C22.2594 13.7095 22.8438 13.5501 22.8438 13.5501Z" fill="#DCE5E5"/>
<path d="M6.5873 10.522C6.5873 10.522 7.06543 10.3095 7.75605 10.3095C8.12793 10.3095 8.44668 10.3626 8.44668 10.6813C8.44668 10.8938 8.39355 10.947 8.39355 10.947C8.39355 10.947 8.0748 10.947 7.91543 10.947C7.0123 10.947 6.00293 11.3188 6.00293 12.5407C6.00293 13.497 6.64043 13.7095 7.0123 13.7095C7.75605 13.7095 8.0748 13.2313 8.12793 13.2313L8.0748 13.6563H9.03105L9.45605 10.7345C9.45605 9.5126 8.39355 9.45947 7.96855 9.45947L6.5873 10.522ZM8.76543 11.7438C8.76543 11.9032 8.12793 12.7532 7.49043 12.7532C7.17168 12.7532 7.06543 12.4876 7.06543 12.3282C7.06543 12.0626 7.2248 11.6907 8.02168 11.6907C8.18105 11.7438 8.76543 11.7438 8.76543 11.7438Z" fill="#DCE5E5"/>
<path d="M9.29688 13.55C9.29688 13.55 9.61562 13.6563 10.5187 13.6563C10.7844 13.6563 12.1125 13.7094 12.1125 12.2751C12.1125 10.9469 10.8375 11.2125 10.8375 10.6813C10.8375 10.4157 11.05 10.3094 11.4219 10.3094C11.5813 10.3094 12.1656 10.3625 12.1656 10.3625L12.325 9.4063C12.325 9.4063 11.9531 9.30005 11.3156 9.30005C10.5187 9.30005 10.2531 9.6188 10.2531 10.6813C10.2531 11.9032 11.05 11.7969 11.05 12.2751C11.05 12.5938 10.6781 12.6469 10.4125 12.6469" fill="#DCE5E5"/>
<path d="M31.4494 9.93765C31.4494 9.93765 31.0244 9.4064 30.44 9.4064C29.4837 9.4064 29.165 10.5751 29.165 11.9564C29.165 12.8064 29.0587 13.7095 29.9619 13.7095C30.5994 13.7095 30.9712 13.2845 30.9712 13.2845L30.9181 13.6564H31.9806L32.7775 8.5564L31.4494 9.93765ZM31.3962 11.3189C31.3962 11.9033 30.9181 12.647 30.3337 12.647C29.9619 12.647 29.7494 12.3283 29.7494 11.797C29.7494 10.947 30.1212 10.4158 30.5994 10.4158C30.9712 10.4158 31.3962 10.6814 31.3962 11.3189Z" fill="#DCE5E5"/>
<path d="M2.23105 13.6032L2.86855 9.77817L2.9748 13.6032H3.71855L5.09981 9.77817L4.51543 13.6032H5.63106L6.48106 8.50317H5.15293L3.66543 11.6376L3.6123 8.50317H3.02793L1.22168 13.6032H2.23105Z" fill="#DCE5E5"/>
<path d="M17.584 13.6032H18.6996C19.0184 11.8501 19.0715 10.4157 19.8152 10.6813C19.9215 9.99072 20.0809 9.7251 20.1871 9.45947C20.1871 9.45947 20.134 9.45947 19.9746 9.45947C19.4965 9.45947 19.1246 10.097 19.1246 10.097L19.2309 9.5126" fill="#DCE5E5"/>
<path d="M23.8529 10.522C23.8529 10.522 24.3311 10.3095 25.0217 10.3095C25.3936 10.3095 25.7123 10.3626 25.7123 10.6813C25.7123 10.8938 25.6592 10.947 25.6592 10.947C25.6592 10.947 25.3404 10.947 25.1811 10.947C24.2779 10.947 23.2686 11.3188 23.2686 12.5407C23.2686 13.497 23.9061 13.7095 24.2779 13.7095C25.0217 13.7095 25.3404 13.2313 25.3936 13.2313L25.3404 13.6563H26.2967L26.7217 10.7345C26.7217 9.5126 25.6592 9.45947 25.2342 9.45947L23.8529 10.522ZM26.0311 11.7438C26.0311 11.9032 25.3936 12.7532 24.7561 12.7532C24.4373 12.7532 24.3311 12.4876 24.3311 12.3282C24.3311 12.0626 24.4904 11.6907 25.2873 11.6907C25.4998 11.7438 26.0311 11.7438 26.0311 11.7438Z" fill="#DCE5E5"/>
<path d="M26.5088 13.6032H27.6244C27.9432 11.8501 27.9963 10.4157 28.74 10.6813C28.8463 9.99072 29.0057 9.7251 29.1119 9.45947C29.1119 9.45947 29.0588 9.45947 28.8994 9.45947C28.4213 9.45947 28.0494 10.097 28.0494 10.097L28.1557 9.5126" fill="#DCE5E5"/>
</svg>
