<?xml version="1.0" encoding="utf-8"?>
<!-- Generator: Adobe Illustrator 24.2.3, SVG Export Plug-In . SVG Version: 6.00 Build 0)  -->
<svg version="1.1" id="Layer_1" xmlns="http://www.w3.org/2000/svg" xmlns:xlink="http://www.w3.org/1999/xlink" x="0px" y="0px"
	 viewBox="0 0 32 32" style="enable-background:new 0 0 32 32;" xml:space="preserve">
<style type="text/css">
	.st0{fill:#4D4D4D;}
</style>
<path class="st0" d="M4,10h24c1.1,0,2-0.9,2-2s-0.9-2-2-2H4C2.9,6,2,6.9,2,8S2.9,10,4,10z M28,14H11.2c-1.1,0-2,0.9-2,2s0.9,2,2,2
	H28c1.1,0,2-0.9,2-2S29.1,14,28,14z M28,22h-9.7c-1.1,0-2,0.9-2,2s0.9,2,2,2H28c1.1,0,2-0.9,2-2S29.1,22,28,22z"/>
</svg>
