<svg width="18" height="21" viewBox="0 0 18 21" fill="none" xmlns="http://www.w3.org/2000/svg">
<path d="M5.22203 18.3503C3.94645 18.3544 2.66676 18.3585 1.39117 18.3544C1.04664 18.3544 0.825158 18.0509 0.88258 17.6982C1.09586 16.3406 1.29684 14.9829 1.51012 13.6294C1.70289 12.4113 1.91207 11.1931 2.10484 9.97084C2.2443 9.089 2.36734 8.20716 2.5068 7.32533C2.71188 6.02513 2.92516 4.72494 3.13434 3.42474C3.25328 2.67826 3.36402 1.93177 3.47887 1.18529C3.5527 0.697203 3.93824 0.364976 4.43863 0.364976C6.59606 0.364976 8.75758 0.34857 10.915 0.373179C12.0921 0.385484 13.2611 0.53314 14.3316 1.07865C15.4431 1.63646 16.1199 2.54291 16.3414 3.77337C16.4439 4.34759 16.407 4.92181 16.2963 5.49603C15.8369 5.26224 15.3529 5.11048 14.8525 5.01205C14.2291 4.889 13.5892 4.85619 12.9535 4.84798C11.3498 4.83158 9.74195 4.83568 8.13824 4.84798C7.79781 4.85209 7.4943 4.99154 7.35895 5.34017C7.29742 5.50013 7.27691 5.6806 7.25231 5.85697C7.14156 6.52962 7.03492 7.20638 6.92828 7.88314C6.84625 8.40404 6.75602 8.92494 6.67809 9.44584C6.57965 10.1062 6.49352 10.7706 6.36637 11.4269C6.32535 11.6443 6.23512 11.8658 6.30074 12.0995C6.25152 12.2472 6.20641 12.3949 6.1818 12.5507C6.06695 13.3095 5.94801 14.0683 5.82906 14.8271C5.68551 15.7458 5.55016 16.6687 5.3943 17.5874C5.34508 17.8417 5.36149 18.1124 5.22203 18.3503Z" fill="#012D8A"/>
<path d="M5.22199 18.3502C5.36144 18.1165 5.34503 17.8416 5.38605 17.5874C5.54191 16.6686 5.67726 15.7499 5.82081 14.827C5.93976 14.0682 6.0587 13.3094 6.17355 12.5506C6.19816 12.3948 6.24328 12.2471 6.29249 12.0995C6.51398 11.7549 6.8216 11.6032 7.23995 11.6073C8.28585 11.6073 9.33175 11.6606 10.3735 11.5293C11.3046 11.4145 12.1946 11.1766 13.0232 10.7336C14.2987 10.0487 15.1683 9.00278 15.7138 7.67798C15.9722 7.04634 16.1773 6.39419 16.2634 5.71333C16.2716 5.69692 16.2757 5.68052 16.2839 5.66821C16.2921 5.6272 16.3003 5.58618 16.3085 5.54517C17.2847 6.06196 17.8056 6.89048 17.945 7.97329C18.0599 8.86333 17.9245 9.72876 17.703 10.5901C17.5267 11.275 17.256 11.919 16.8704 12.5096C16.2429 13.4776 15.3693 14.1502 14.2823 14.5358C13.7163 14.7368 13.1339 14.8516 12.5392 14.9213C12.0429 14.9788 11.5466 14.9788 11.0503 14.9829C10.5499 14.9829 10.23 15.2577 10.1603 15.7499C10.0085 16.7875 9.85675 17.8252 9.67628 18.8629C9.61476 19.2157 9.56554 19.5725 9.50402 19.9211C9.42609 20.3477 9.12257 20.602 8.69191 20.602C7.64601 20.602 6.60011 20.602 5.55421 20.602C5.15636 20.602 4.96359 20.3723 5.02921 19.9868C5.10714 19.511 5.18507 19.0393 5.263 18.5635C5.27531 18.4856 5.29581 18.4077 5.22199 18.3502Z" fill="#019AE0"/>
<path d="M16.3127 5.53694C16.3045 5.57796 16.2962 5.61898 16.288 5.65999C16.2798 5.6764 16.2757 5.6928 16.2675 5.70511C16.1814 6.38597 15.9763 7.03812 15.7179 7.66976C15.1724 8.99456 14.3029 10.0405 13.0273 10.7254C12.1988 11.1684 11.3046 11.4063 10.3777 11.5211C9.3359 11.6483 8.29 11.5991 7.2441 11.5991C6.82574 11.5991 6.51812 11.7467 6.29664 12.0912C6.23101 11.8616 6.32125 11.636 6.36226 11.4186C6.48531 10.7623 6.57555 10.0979 6.67398 9.43753C6.75191 8.91663 6.84215 8.39573 6.92418 7.87483C7.03082 7.19808 7.13746 6.52542 7.2482 5.84866C7.27691 5.6764 7.29332 5.49593 7.35484 5.33187C7.49019 4.98323 7.79371 4.83968 8.13414 4.83968C9.73785 4.82737 11.3457 4.82327 12.9494 4.83968C13.5851 4.84788 14.2209 4.88069 14.8484 5.00374C15.3488 5.10218 15.8369 5.25394 16.2921 5.48773C16.3003 5.51233 16.3086 5.52464 16.3127 5.53694Z" fill="#001F6B"/>
<path d="M16.2715 5.70942C16.2797 5.69302 16.2838 5.67661 16.292 5.66431C16.2838 5.67661 16.2797 5.69302 16.2715 5.70942Z" fill="#012D8A"/>
</svg>
