<svg width="21" height="21" viewBox="0 0 21 21" fill="none" xmlns="http://www.w3.org/2000/svg">
<path d="M6.22154 18.3504C4.94596 18.3545 3.66627 18.3586 2.39068 18.3545C2.04615 18.3545 1.82467 18.051 1.88209 17.6982C2.09537 16.3406 2.29635 14.983 2.50963 13.6295C2.7024 12.4113 2.91158 11.1932 3.10436 9.9709C3.24381 9.08906 3.36686 8.20722 3.50631 7.32539C3.71139 6.02519 3.92467 4.725 4.13385 3.4248C4.25279 2.67832 4.36354 1.93183 4.47838 1.18535C4.55221 0.697264 4.93776 0.365037 5.43815 0.365037C7.59557 0.365037 9.75709 0.348631 11.9145 0.37324C13.0917 0.385545 14.2606 0.533201 15.3311 1.07871C16.4426 1.63652 17.1194 2.54297 17.3409 3.77344C17.4434 4.34765 17.4065 4.92187 17.2958 5.49609C16.8364 5.2623 16.3524 5.11055 15.852 5.01211C15.2286 4.88906 14.5887 4.85625 13.953 4.84804C12.3493 4.83164 10.7415 4.83574 9.13775 4.84804C8.79733 4.85215 8.49381 4.9916 8.35846 5.34023C8.29693 5.50019 8.27643 5.68066 8.25182 5.85703C8.14108 6.52969 8.03443 7.20644 7.92779 7.8832C7.84576 8.4041 7.75553 8.925 7.6776 9.4459C7.57916 10.1062 7.49303 10.7707 7.36588 11.427C7.32486 11.6443 7.23463 11.8658 7.30025 12.0996C7.25104 12.2473 7.20592 12.3949 7.18131 12.5508C7.06647 13.3096 6.94752 14.0684 6.82858 14.8271C6.68502 15.7459 6.54967 16.6687 6.39381 17.5875C6.34459 17.8418 6.361 18.1125 6.22154 18.3504Z" fill="#012D8A"/>
<path d="M6.22101 18.3504C6.36046 18.1166 6.34406 17.8418 6.38507 17.5875C6.54093 16.6687 6.67628 15.75 6.81984 14.8271C6.93878 14.0683 7.05773 13.3095 7.17257 12.5508C7.19718 12.3949 7.2423 12.2472 7.29152 12.0996C7.513 11.7551 7.82062 11.6033 8.23898 11.6074C9.28488 11.6074 10.3308 11.6607 11.3726 11.5295C12.3036 11.4146 13.1937 11.1767 14.0222 10.7338C15.2978 10.0488 16.1673 9.0029 16.7128 7.6781C16.9712 7.04646 17.1763 6.39431 17.2624 5.71345C17.2706 5.69705 17.2747 5.68064 17.2829 5.66833C17.2911 5.62732 17.2993 5.5863 17.3075 5.54529C18.2837 6.06208 18.8046 6.8906 18.9441 7.97341C19.0589 8.86345 18.9235 9.72888 18.7021 10.5902C18.5257 11.2752 18.255 11.9191 17.8694 12.5097C17.2419 13.4777 16.3683 14.1504 15.2814 14.5359C14.7153 14.7369 14.1329 14.8517 13.5382 14.9215C13.0419 14.9789 12.5456 14.9789 12.0493 14.983C11.5489 14.983 11.229 15.2578 11.1593 15.75C11.0075 16.7877 10.8558 17.8254 10.6753 18.8631C10.6138 19.2158 10.5646 19.5726 10.503 19.9213C10.4251 20.3478 10.1216 20.6021 9.69093 20.6021C8.64503 20.6021 7.59913 20.6021 6.55324 20.6021C6.15538 20.6021 5.96261 20.3724 6.02824 19.9869C6.10617 19.5111 6.1841 19.0394 6.26203 18.5636C6.27433 18.4857 6.29484 18.4078 6.22101 18.3504Z" fill="#019AE0"/>
<path d="M17.3127 5.53713C17.3045 5.57814 17.2962 5.61916 17.288 5.66017C17.2798 5.67658 17.2757 5.69299 17.2675 5.70529C17.1814 6.38615 16.9763 7.0383 16.7179 7.66994C16.1724 8.99474 15.3029 10.0406 14.0273 10.7256C13.1988 11.1686 12.3046 11.4065 11.3777 11.5213C10.3359 11.6485 9.29 11.5992 8.2441 11.5992C7.82574 11.5992 7.51812 11.7469 7.29664 12.0914C7.23101 11.8617 7.32125 11.6361 7.36226 11.4188C7.48531 10.7625 7.57555 10.0981 7.67398 9.43771C7.75191 8.91681 7.84215 8.39592 7.92418 7.87502C8.03082 7.19826 8.13746 6.5256 8.2482 5.84885C8.27691 5.67658 8.29332 5.49611 8.35484 5.33205C8.49019 4.98342 8.79371 4.83986 9.13414 4.83986C10.7378 4.82756 12.3457 4.82346 13.9494 4.83986C14.5851 4.84806 15.2209 4.88088 15.8484 5.00392C16.3488 5.10236 16.8369 5.25412 17.2921 5.48791C17.3003 5.51252 17.3086 5.52482 17.3127 5.53713Z" fill="#001F6B"/>
<path d="M17.2715 5.70936C17.2797 5.69296 17.2838 5.67655 17.292 5.66425C17.2838 5.67655 17.2797 5.69296 17.2715 5.70936Z" fill="#012D8A"/>
</svg>
