<svg width="148" height="26" viewBox="0 0 148 26" fill="none" xmlns="http://www.w3.org/2000/svg">
<path d="M0 0.36H5.832C7.8 0.36 9.276 0.888 10.26 1.944C11.244 3 11.736 4.548 11.736 6.588V9.072C11.736 11.112 11.244 12.66 10.26 13.716C9.276 14.772 7.8 15.3 5.832 15.3H3.96V25.56H0V0.36ZM5.832 11.7C6.48 11.7 6.96 11.52 7.272 11.16C7.608 10.8 7.776 10.188 7.776 9.324V6.336C7.776 5.472 7.608 4.86 7.272 4.5C6.96 4.14 6.48 3.96 5.832 3.96H3.96V11.7H5.832Z" fill="black"/>
<path d="M25.1907 25.92C23.2467 25.92 21.7587 25.368 20.7267 24.264C19.6947 23.16 19.1787 21.6 19.1787 19.584V6.336C19.1787 4.32 19.6947 2.76 20.7267 1.656C21.7587 0.552 23.2467 0 25.1907 0C27.1347 0 28.6227 0.552 29.6547 1.656C30.6867 2.76 31.2027 4.32 31.2027 6.336V19.584C31.2027 21.6 30.6867 23.16 29.6547 24.264C28.6227 25.368 27.1347 25.92 25.1907 25.92ZM25.1907 22.32C26.5587 22.32 27.2427 21.492 27.2427 19.836V6.084C27.2427 4.428 26.5587 3.6 25.1907 3.6C23.8227 3.6 23.1387 4.428 23.1387 6.084V19.836C23.1387 21.492 23.8227 22.32 25.1907 22.32Z" fill="black"/>
<path d="M42.4162 3.96H38.2762V0.36H50.5162V3.96H46.3762V25.56H42.4162V3.96Z" fill="black"/>
<path d="M58.0134 0.36H63.8814C65.9214 0.36 67.4094 0.84 68.3454 1.8C69.2814 2.736 69.7494 4.188 69.7494 6.156V7.704C69.7494 10.32 68.8854 11.976 67.1574 12.672V12.744C68.1174 13.032 68.7894 13.62 69.1734 14.508C69.5814 15.396 69.7854 16.584 69.7854 18.072V22.5C69.7854 23.22 69.8094 23.808 69.8574 24.264C69.9054 24.696 70.0254 25.128 70.2174 25.56H66.1854C66.0414 25.152 65.9454 24.768 65.8974 24.408C65.8494 24.048 65.8254 23.4 65.8254 22.464V17.856C65.8254 16.704 65.6334 15.9 65.2494 15.444C64.8894 14.988 64.2534 14.76 63.3414 14.76H61.9734V25.56H58.0134V0.36ZM63.4134 11.16C64.2054 11.16 64.7934 10.956 65.1774 10.548C65.5854 10.14 65.7894 9.456 65.7894 8.496V6.552C65.7894 5.64 65.6214 4.98 65.2854 4.572C64.9734 4.164 64.4694 3.96 63.7734 3.96H61.9734V11.16H63.4134Z" fill="black"/>
<path d="M78.113 0.36H83.945C85.913 0.36 87.389 0.888 88.373 1.944C89.357 3 89.849 4.548 89.849 6.588V9.072C89.849 11.112 89.357 12.66 88.373 13.716C87.389 14.772 85.913 15.3 83.945 15.3H82.073V25.56H78.113V0.36ZM83.945 11.7C84.593 11.7 85.073 11.52 85.385 11.16C85.721 10.8 85.889 10.188 85.889 9.324V6.336C85.889 5.472 85.721 4.86 85.385 4.5C85.073 4.14 84.593 3.96 83.945 3.96H82.073V11.7H83.945Z" fill="black"/>
<path d="M103.304 25.92C101.36 25.92 99.8717 25.368 98.8397 24.264C97.8077 23.16 97.2917 21.6 97.2917 19.584V6.336C97.2917 4.32 97.8077 2.76 98.8397 1.656C99.8717 0.552 101.36 0 103.304 0C105.248 0 106.736 0.552 107.768 1.656C108.8 2.76 109.316 4.32 109.316 6.336V19.584C109.316 21.6 108.8 23.16 107.768 24.264C106.736 25.368 105.248 25.92 103.304 25.92ZM103.304 22.32C104.672 22.32 105.356 21.492 105.356 19.836V6.084C105.356 4.428 104.672 3.6 103.304 3.6C101.936 3.6 101.252 4.428 101.252 6.084V19.836C101.252 21.492 101.936 22.32 103.304 22.32Z" fill="black"/>
<path d="M120.529 3.96H116.389V0.36H128.629V3.96H124.489V25.56H120.529V3.96Z" fill="black"/>
<path d="M141.274 25.92C139.354 25.92 137.902 25.38 136.918 24.3C135.934 23.196 135.442 21.624 135.442 19.584V18.144H139.186V19.872C139.186 21.504 139.87 22.32 141.238 22.32C141.91 22.32 142.414 22.128 142.75 21.744C143.11 21.336 143.29 20.688 143.29 19.8C143.29 18.744 143.05 17.82 142.57 17.028C142.09 16.212 141.202 15.24 139.906 14.112C138.274 12.672 137.134 11.376 136.486 10.224C135.838 9.048 135.514 7.728 135.514 6.264C135.514 4.272 136.018 2.736 137.026 1.656C138.034 0.552 139.498 0 141.418 0C143.314 0 144.742 0.552 145.702 1.656C146.686 2.736 147.178 4.296 147.178 6.336V7.38H143.434V6.084C143.434 5.22 143.266 4.596 142.93 4.212C142.594 3.804 142.102 3.6 141.454 3.6C140.134 3.6 139.474 4.404 139.474 6.012C139.474 6.924 139.714 7.776 140.194 8.568C140.698 9.36 141.598 10.32 142.894 11.448C144.55 12.888 145.69 14.196 146.314 15.372C146.938 16.548 147.25 17.928 147.25 19.512C147.25 21.576 146.734 23.16 145.702 24.264C144.694 25.368 143.218 25.92 141.274 25.92Z" fill="black"/>
</svg>
