<svg width="21" height="21" viewBox="0 0 21 21" fill="none" xmlns="http://www.w3.org/2000/svg">
<path d="M10.022 0.996582C4.508 0.996582 0.0219727 5.4826 0.0219727 10.9966C0.0219727 16.5102 4.508 20.9966 10.022 20.9966C15.5355 20.9966 20.022 16.5102 20.022 10.9966C20.022 5.4826 15.5364 0.996582 10.022 0.996582ZM14.483 8.70785C14.4875 8.80694 14.4899 8.90684 14.4899 9.00673C14.4899 12.0483 12.1754 15.5543 7.94069 15.5543C6.64084 15.5543 5.43082 15.1745 4.41253 14.5211C4.59258 14.5425 4.77586 14.5533 4.96155 14.5533C6.04026 14.5533 7.03237 14.1852 7.82025 13.5681C6.81324 13.5496 5.96292 12.8841 5.67008 11.9694C5.81026 11.9959 5.95487 12.0108 6.10269 12.0108C6.31255 12.0108 6.51637 11.9835 6.70932 11.9307C5.65639 11.7196 4.86327 10.7895 4.86327 9.67377C4.86327 9.66411 4.86327 9.65404 4.86367 9.64477C5.17383 9.81677 5.5287 9.92069 5.90572 9.93237C5.28863 9.52031 4.8822 8.8154 4.8822 8.01704C4.8822 7.59491 4.99539 7.19935 5.19357 6.85939C6.32826 8.25228 8.02487 9.16826 9.93738 9.26493C9.89791 9.09616 9.87817 8.92094 9.87817 8.74008C9.87817 7.46923 10.9085 6.43846 12.1794 6.43846C12.8416 6.43846 13.439 6.718 13.8595 7.16511C14.3843 7.062 14.8758 6.87107 15.3217 6.60643C15.1485 7.14417 14.7847 7.59491 14.3082 7.88009C14.7742 7.8245 15.2189 7.70125 15.6302 7.51797C15.3233 7.97878 14.933 8.3844 14.483 8.70785Z" fill="black"/>
</svg>
