<svg width="33" height="46" viewBox="0 0 33 46" fill="none" xmlns="http://www.w3.org/2000/svg">
<path d="M19.3215 40.264C19.3215 38.464 19.6095 36.928 20.1855 35.656C20.7615 34.36 21.7935 32.932 23.2815 31.372C24.7455 29.812 25.7535 28.48 26.3055 27.376C26.8815 26.272 27.1695 25.12 27.1695 23.92C27.1695 22.84 26.9895 22.096 26.6295 21.688C26.2935 21.256 25.7895 21.04 25.1175 21.04C23.7495 21.04 23.0655 21.868 23.0655 23.524V26.224H19.3215V23.776C19.3215 21.736 19.8255 20.176 20.8335 19.096C21.8415 17.992 23.3055 17.44 25.2255 17.44C27.1455 17.44 28.6095 17.992 29.6175 19.096C30.6255 20.176 31.1295 21.736 31.1295 23.776C31.1295 25.312 30.7575 26.812 30.0135 28.276C29.2935 29.74 28.0335 31.42 26.2335 33.316C25.0575 34.564 24.2655 35.584 23.8575 36.376C23.4495 37.144 23.2455 37.972 23.2455 38.86V39.4H30.7695V43H19.3215V40.264Z" fill="black"/>
<rect x="17.3403" y="1" width="1" height="46.2894" transform="rotate(22 17.3403 1)" fill="#333333"/>
</svg>
