<svg width="666" height="163" viewBox="0 0 666 163" fill="none" xmlns="http://www.w3.org/2000/svg">
<path d="M-34.4928 0.67931V-0.125839H-35.2979V0.67931H-34.4928ZM1.91294 0.67931L2.71035 0.567898L2.61342 -0.125839H1.91294V0.67931ZM18.1448 116.853L17.3474 116.964L17.4443 117.658H18.1448V116.853ZM18.6086 116.853V117.658H19.309L19.406 116.964L18.6086 116.853ZM34.8404 0.67931V-0.125839H34.1399L34.043 0.567898L34.8404 0.67931ZM71.2461 0.67931H72.0513V-0.125839H71.2461V0.67931ZM71.2461 162.998V163.803H72.0513V162.998H71.2461ZM47.1302 162.998H46.3251V163.803H47.1302V162.998ZM47.1302 40.0995H47.9354V39.2944H47.1302V40.0995ZM46.6665 40.0995V39.2944H45.9737L45.8703 39.9793L46.6665 40.0995ZM28.1158 162.998V163.803H28.8085L28.9119 163.118L28.1158 162.998ZM6.7825 162.998L5.98637 163.118L6.08976 163.803H6.7825V162.998ZM-11.7682 40.0995L-10.972 39.9793L-11.0754 39.2944H-11.7682V40.0995ZM-12.232 40.0995V39.2944H-13.0371V40.0995H-12.232ZM-12.232 162.998V163.803H-11.4268V162.998H-12.232ZM-34.4928 162.998H-35.2979V163.803H-34.4928V162.998ZM-34.4928 1.48446H1.91294V-0.125839H-34.4928V1.48446ZM1.11554 0.790726L17.3474 116.964L18.9422 116.742L2.71035 0.567898L1.11554 0.790726ZM18.1448 117.658H18.6086V116.048H18.1448V117.658ZM19.406 116.964L35.6378 0.790726L34.043 0.567898L17.8112 116.742L19.406 116.964ZM34.8404 1.48446H71.2461V-0.125839H34.8404V1.48446ZM70.441 0.67931V162.998H72.0513V0.67931H70.441ZM71.2461 162.193H47.1302V163.803H71.2461V162.193ZM47.9354 162.998V40.0995H46.3251V162.998H47.9354ZM47.1302 39.2944H46.6665V40.9047H47.1302V39.2944ZM45.8703 39.9793L27.3197 162.878L28.9119 163.118L47.4626 40.2197L45.8703 39.9793ZM28.1158 162.193H6.7825V163.803H28.1158V162.193ZM7.57863 162.878L-10.972 39.9793L-12.5643 40.2197L5.98637 163.118L7.57863 162.878ZM-11.7682 39.2944H-12.232V40.9047H-11.7682V39.2944ZM-13.0371 40.0995V162.998H-11.4268V40.0995H-13.0371ZM-12.232 162.193H-34.4928V163.803H-12.232V162.193ZM-33.6876 162.998V0.67931H-35.2979V162.998H-33.6876ZM145.933 0.67931V-0.125839H145.248L145.138 0.549892L145.933 0.67931ZM180.483 0.67931L181.278 0.549892L181.168 -0.125839H180.483V0.67931ZM206.918 162.998V163.803H207.865L207.713 162.868L206.918 162.998ZM181.411 162.998L180.614 163.112L180.713 163.803H181.411V162.998ZM176.773 130.766L177.57 130.651L175.968 130.766H176.773ZM176.773 131.23V132.035H177.578V131.23H176.773ZM147.788 131.23V130.425H147.091L146.991 131.113L147.788 131.23ZM143.15 162.998V163.803H143.846L143.947 163.114L143.15 162.998ZM119.498 162.998L118.703 162.868L118.551 163.803H119.498V162.998ZM173.759 109.201V110.006H174.686L174.556 109.088L173.759 109.201ZM162.396 28.9691L163.193 28.8562L163.095 28.164H162.396V28.9691ZM161.933 28.9691V28.164H161.231L161.135 28.8585L161.933 28.9691ZM150.802 109.201L150.005 109.09L149.878 110.006H150.802V109.201ZM145.933 1.48446H180.483V-0.125839H145.933V1.48446ZM179.689 0.808731L206.123 163.127L207.713 162.868L181.278 0.549892L179.689 0.808731ZM206.918 162.193H181.411V163.803H206.918V162.193ZM182.208 162.883L177.57 130.651L175.976 130.881L180.614 163.112L182.208 162.883ZM175.968 130.766V131.23H177.578V130.766H175.968ZM176.773 130.425H147.788V132.035H176.773V130.425ZM146.991 131.113L142.353 162.882L143.947 163.114L148.584 131.346L146.991 131.113ZM143.15 162.193H119.498V163.803H143.15V162.193ZM120.293 163.127L146.727 0.808731L145.138 0.549892L118.703 162.868L120.293 163.127ZM174.556 109.088L163.193 28.8562L161.599 29.082L172.961 109.314L174.556 109.088ZM162.396 28.164H161.933V29.7743H162.396V28.164ZM161.135 28.8585L150.005 109.09L151.6 109.311L162.73 29.0798L161.135 28.8585ZM150.802 110.006H173.759V108.396H150.802V110.006ZM255.235 0.67931V-0.125839H254.43V0.67931H255.235ZM321.785 9.95466L321.209 10.5168L321.216 10.524L321.785 9.95466ZM314.133 79.9835L313.832 79.2366L313.328 79.4398V79.9835H314.133ZM314.133 80.4473H313.328V81.0463L313.902 81.2185L314.133 80.4473ZM327.119 91.8096L326.38 92.1291L326.383 92.1375L326.387 92.1457L327.119 91.8096ZM331.525 154.65L330.724 154.734L330.724 154.739L331.525 154.65ZM333.843 162.998V163.803H335.082L334.579 162.671L333.843 162.998ZM307.872 162.998L307.113 163.266L307.303 163.803H307.872V162.998ZM301.843 97.8385L301.212 98.3374L301.219 98.3474L301.228 98.3571L301.843 97.8385ZM280.742 93.4327V92.6276H279.937V93.4327H280.742ZM280.742 162.998V163.803H281.547V162.998H280.742ZM255.235 162.998H254.43V163.803H255.235V162.998ZM301.38 66.3024L300.81 65.733L300.802 65.7417L300.793 65.7505L301.38 66.3024ZM302.075 27.8097L301.436 28.2988L301.445 28.3103L301.454 28.3215L302.075 27.8097ZM280.742 23.8677V23.0625H279.937V23.8677H280.742ZM280.742 70.2444H279.937V71.0495H280.742V70.2444ZM255.235 1.48446H293.032V-0.125839H255.235V1.48446ZM293.032 1.48446C306.067 1.48446 315.395 4.55359 321.209 10.5167L322.362 9.39258C316.118 2.9886 306.277 -0.125839 293.032 -0.125839V1.48446ZM321.216 10.524C327.034 16.342 330.024 25.4467 330.024 38.0126H331.634C331.634 25.2258 328.595 15.6252 322.355 9.38533L321.216 10.524ZM330.024 38.0126V47.9836H331.634V38.0126H330.024ZM330.024 47.9836C330.024 56.3279 328.645 63.0671 325.941 68.2488C323.247 73.4126 319.219 77.067 313.832 79.2366L314.434 80.7303C320.178 78.4169 324.498 74.4965 327.369 68.9936C330.231 63.5086 331.634 56.4894 331.634 47.9836H330.024ZM313.328 79.9835V80.4473H314.938V79.9835H313.328ZM313.902 81.2185C319.867 83.0081 324.004 86.6363 326.38 92.1291L327.858 91.49C325.286 85.5433 320.766 81.5966 314.365 79.6761L313.902 81.2185ZM326.387 92.1457C328.948 97.7195 330.256 105.243 330.256 114.766H331.866C331.866 105.12 330.545 97.3392 327.85 91.4734L326.387 92.1457ZM330.256 114.766V143.288H331.866V114.766H330.256ZM330.256 143.288C330.256 147.94 330.411 151.758 330.724 154.734L332.325 154.566C332.02 151.668 331.866 147.911 331.866 143.288H330.256ZM330.724 154.739C331.043 157.611 331.84 160.473 333.108 163.325L334.579 162.671C333.373 159.957 332.624 157.255 332.325 154.561L330.724 154.739ZM333.843 162.193H307.872V163.803H333.843V162.193ZM308.632 162.73C307.719 160.145 307.116 157.726 306.815 155.471L305.219 155.684C305.537 158.067 306.171 160.595 307.113 163.266L308.632 162.73ZM306.815 155.471C306.514 153.212 306.359 149.088 306.359 143.056H304.748C304.748 149.082 304.902 153.306 305.219 155.684L306.815 155.471ZM306.359 143.056V113.375H304.748V143.056H306.359ZM306.359 113.375C306.359 105.917 305.126 100.487 302.459 97.3199L301.228 98.3571C303.507 101.064 304.748 105.992 304.748 113.375H306.359ZM302.475 97.3396C299.934 94.12 295.533 92.6276 289.554 92.6276V94.2379C295.323 94.2379 299.116 95.6826 301.212 98.3374L302.475 97.3396ZM289.554 92.6276H280.742V94.2379H289.554V92.6276ZM279.937 93.4327V162.998H281.547V93.4327H279.937ZM280.742 162.193H255.235V163.803H280.742V162.193ZM256.04 162.998V0.67931H254.43V162.998H256.04ZM290.017 71.0495C295.247 71.0495 299.286 69.7014 301.966 66.8542L300.793 65.7505C298.526 68.1594 294.991 69.4392 290.017 69.4392V71.0495ZM301.949 66.8717C304.802 64.0188 306.127 59.348 306.127 53.085H304.517C304.517 59.1891 303.214 63.3299 300.81 65.733L301.949 66.8717ZM306.127 53.085V40.5633H304.517V53.085H306.127ZM306.127 40.5633C306.127 34.625 305.04 30.1426 302.697 27.2979L301.454 28.3215C303.44 30.7328 304.517 34.7528 304.517 40.5633H306.127ZM302.715 27.3206C300.503 24.428 296.974 23.0625 292.336 23.0625V24.6728C296.664 24.6728 299.628 25.9353 301.436 28.2988L302.715 27.3206ZM292.336 23.0625H280.742V24.6728H292.336V23.0625ZM279.937 23.8677V70.2444H281.547V23.8677H279.937ZM280.742 71.0495H290.017V69.4392H280.742V71.0495ZM404.189 23.8677H404.994V23.0625H404.189V23.8677ZM377.523 23.8677H376.717V24.6728H377.523V23.8677ZM377.523 0.67931V-0.125839H376.717V0.67931H377.523ZM456.363 0.67931H457.168V-0.125839H456.363V0.67931ZM456.363 23.8677V24.6728H457.168V23.8677H456.363ZM429.696 23.8677V23.0625H428.891V23.8677H429.696ZM429.696 162.998V163.803H430.502V162.998H429.696ZM404.189 162.998H403.384V163.803H404.189V162.998ZM404.189 23.0625H377.523V24.6728H404.189V23.0625ZM378.328 23.8677V0.67931H376.717V23.8677H378.328ZM377.523 1.48446H456.363V-0.125839H377.523V1.48446ZM455.558 0.67931V23.8677H457.168V0.67931H455.558ZM456.363 23.0625H429.696V24.6728H456.363V23.0625ZM428.891 23.8677V162.998H430.502V23.8677H428.891ZM429.696 162.193H404.189V163.803H429.696V162.193ZM404.994 162.998V23.8677H403.384V162.998H404.994ZM504.655 0.67931V-0.125839H503.849V0.67931H504.655ZM530.162 0.67931H530.967V-0.125839H530.162V0.67931ZM530.162 162.998V163.803H530.967V162.998H530.162ZM504.655 162.998H503.849V163.803H504.655V162.998ZM504.655 1.48446H530.162V-0.125839H504.655V1.48446ZM529.357 0.67931V162.998H530.967V0.67931H529.357ZM530.162 162.193H504.655V163.803H530.162V162.193ZM505.46 162.998V0.67931H503.849V162.998H505.46ZM585.207 0.67931V-0.125839H584.402V0.67931H585.207ZM617.207 0.67931L617.987 0.480091L617.832 -0.125839H617.207V0.67931ZM642.018 97.8385L641.238 98.0377L641.393 98.6437H642.018V97.8385ZM642.482 97.8385V98.6437H643.287V97.8385H642.482ZM642.482 0.67931V-0.125839H641.677V0.67931H642.482ZM665.207 0.67931H666.012V-0.125839H665.207V0.67931ZM665.207 162.998V163.803H666.012V162.998H665.207ZM639.004 162.998L638.224 163.199L638.38 163.803H639.004V162.998ZM608.395 44.5053L609.175 44.3039L609.019 43.7001H608.395V44.5053ZM607.932 44.5053V43.7001H607.126V44.5053H607.932ZM607.932 162.998V163.803H608.737V162.998H607.932ZM585.207 162.998H584.402V163.803H585.207V162.998ZM585.207 1.48446H617.207V-0.125839H585.207V1.48446ZM616.427 0.878529L641.238 98.0377L642.799 97.6393L617.987 0.480091L616.427 0.878529ZM642.018 98.6437H642.482V97.0334H642.018V98.6437ZM643.287 97.8385V0.67931H641.677V97.8385H643.287ZM642.482 1.48446H665.207V-0.125839H642.482V1.48446ZM664.402 0.67931V162.998H666.012V0.67931H664.402ZM665.207 162.193H639.004V163.803H665.207V162.193ZM639.783 162.796L609.175 44.3039L607.616 44.7067L638.224 163.199L639.783 162.796ZM608.395 43.7001H607.932V45.3105H608.395V43.7001ZM607.126 44.5053V162.998H608.737V44.5053H607.126ZM607.932 162.193H585.207V163.803H607.932V162.193ZM586.012 162.998V0.67931H584.402V162.998H586.012Z" fill="#03839E"/>
</svg>
