<svg width="33" height="46" viewBox="0 0 33 46" fill="none" xmlns="http://www.w3.org/2000/svg">
<path d="M25.0095 43.36C23.0655 43.36 21.5895 42.82 20.5815 41.74C19.5975 40.66 19.1055 39.112 19.1055 37.096V35.044H22.8495V37.276C22.8495 38.932 23.5335 39.76 24.9015 39.76C25.5735 39.76 26.0775 39.556 26.4135 39.148C26.7735 38.716 26.9535 37.972 26.9535 36.916V34.864C26.9535 33.712 26.7495 32.896 26.3415 32.416C25.9335 31.912 25.2735 31.66 24.3615 31.66H23.0295V28.06H24.4695C25.2615 28.06 25.8495 27.856 26.2335 27.448C26.6415 27.04 26.8455 26.356 26.8455 25.396V23.56C26.8455 22.696 26.6655 22.06 26.3055 21.652C25.9455 21.244 25.4655 21.04 24.8655 21.04C23.5935 21.04 22.9575 21.82 22.9575 23.38V25.036H19.2135V23.704C19.2135 21.688 19.7055 20.14 20.6895 19.06C21.6975 17.98 23.1375 17.44 25.0095 17.44C26.9055 17.44 28.3455 17.98 29.3295 19.06C30.3135 20.116 30.8055 21.652 30.8055 23.668V24.568C30.8055 25.936 30.5775 27.04 30.1215 27.88C29.6655 28.696 28.9575 29.284 27.9975 29.644V29.716C29.0295 30.1 29.7735 30.724 30.2295 31.588C30.6855 32.452 30.9135 33.556 30.9135 34.9V37.132C30.9135 39.148 30.4095 40.696 29.4015 41.776C28.4175 42.832 26.9535 43.36 25.0095 43.36Z" fill="black"/>
<rect x="17.3403" y="1" width="1" height="46.2894" transform="rotate(22 17.3403 1)" fill="#333333"/>
</svg>
