<svg width="14" height="145" viewBox="0 0 14 145" fill="none" xmlns="http://www.w3.org/2000/svg">
<path d="M2.6 69.506L2.6 67.562C2.6 66.906 2.776 66.414 3.128 66.086C3.48 65.758 3.996 65.594 4.676 65.594L5.504 65.594C6.184 65.594 6.7 65.758 7.052 66.086C7.404 66.414 7.58 66.906 7.58 67.562L7.58 68.186L11 68.186L11 69.506L2.6 69.506ZM6.38 67.562C6.38 67.346 6.32 67.186 6.2 67.082C6.08 66.97 5.876 66.914 5.588 66.914L4.592 66.914C4.304 66.914 4.1 66.97 3.98 67.082C3.86 67.186 3.8 67.346 3.8 67.562L3.8 68.186L6.38 68.186L6.38 67.562ZM11.12 60.3291C11.12 60.9771 10.936 61.4731 10.568 61.8171C10.2 62.1611 9.68 62.3331 9.008 62.3331L4.592 62.3331C3.92 62.3331 3.4 62.1611 3.032 61.8171C2.664 61.4731 2.48 60.9771 2.48 60.3291C2.48 59.6811 2.664 59.1851 3.032 58.8411C3.4 58.4971 3.92 58.3251 4.592 58.3251L9.008 58.3251C9.68 58.3251 10.2 58.4971 10.568 58.8411C10.936 59.1851 11.12 59.6811 11.12 60.3291ZM9.92 60.3291C9.92 59.8731 9.644 59.6451 9.092 59.6451L4.508 59.6451C3.956 59.6451 3.68 59.8731 3.68 60.3291C3.68 60.7851 3.956 61.0131 4.508 61.0131L9.092 61.0131C9.644 61.0131 9.92 60.7851 9.92 60.3291ZM3.8 53.8073L3.8 55.1873L2.6 55.1873L2.6 51.1073L3.8 51.1073L3.8 52.4873L11 52.4873L11 53.8073L3.8 53.8073ZM2.6 47.8282L2.6 45.8722C2.6 45.1922 2.76 44.6962 3.08 44.3842C3.392 44.0722 3.876 43.9162 4.532 43.9162L5.048 43.9162C5.92 43.9162 6.472 44.2042 6.704 44.7802L6.728 44.7802C6.824 44.4602 7.02 44.2362 7.316 44.1082C7.612 43.9722 8.008 43.9042 8.504 43.9042L9.98 43.9042C10.22 43.9042 10.416 43.8962 10.568 43.8802C10.712 43.8642 10.856 43.8242 11 43.7602L11 45.1042C10.864 45.1522 10.736 45.1842 10.616 45.2002C10.496 45.2162 10.28 45.2242 9.968 45.2242L8.432 45.2242C8.048 45.2242 7.78 45.2882 7.628 45.4162C7.476 45.5362 7.4 45.7482 7.4 46.0522L7.4 46.5082L11 46.5082L11 47.8282L2.6 47.8282ZM6.2 46.0282C6.2 45.7642 6.132 45.5682 5.996 45.4402C5.86 45.3042 5.632 45.2362 5.312 45.2362L4.664 45.2362C4.36 45.2362 4.14 45.2922 4.004 45.4042C3.868 45.5082 3.8 45.6762 3.8 45.9082L3.8 46.5082L6.2 46.5082L6.2 46.0282ZM2.6 35.7865L2.6 33.8425C2.6 33.1865 2.776 32.6945 3.128 32.3665C3.48 32.0385 3.996 31.8745 4.676 31.8745L5.504 31.8745C6.184 31.8745 6.7 32.0385 7.052 32.3665C7.404 32.6945 7.58 33.1865 7.58 33.8425L7.58 34.4665L11 34.4665L11 35.7865L2.6 35.7865ZM6.38 33.8425C6.38 33.6265 6.32 33.4665 6.2 33.3625C6.08 33.2505 5.876 33.1945 5.588 33.1945L4.592 33.1945C4.304 33.1945 4.1 33.2505 3.98 33.3625C3.86 33.4665 3.8 33.6265 3.8 33.8425L3.8 34.4665L6.38 34.4665L6.38 33.8425ZM11.12 26.6096C11.12 27.2576 10.936 27.7536 10.568 28.0976C10.2 28.4416 9.68 28.6136 9.008 28.6136L4.592 28.6136C3.92 28.6136 3.4 28.4416 3.032 28.0976C2.664 27.7536 2.48 27.2576 2.48 26.6096C2.48 25.9616 2.664 25.4656 3.032 25.1216C3.4 24.7776 3.92 24.6056 4.592 24.6056L9.008 24.6056C9.68 24.6056 10.2 24.7776 10.568 25.1216C10.936 25.4656 11.12 25.9616 11.12 26.6096ZM9.92 26.6096C9.92 26.1536 9.644 25.9256 9.092 25.9256L4.508 25.9256C3.956 25.9256 3.68 26.1536 3.68 26.6096C3.68 27.0656 3.956 27.2936 4.508 27.2936L9.092 27.2936C9.644 27.2936 9.92 27.0656 9.92 26.6096ZM3.79999 20.0878L3.79999 21.4678L2.59999 21.4678L2.59999 17.3878L3.79999 17.3878L3.79999 18.7678L11 18.7678L11 20.0878L3.79999 20.0878ZM11.12 12.3927C11.12 13.0327 10.94 13.5167 10.58 13.8447C10.212 14.1727 9.68799 14.3367 9.00799 14.3367L8.52799 14.3367L8.52799 13.0887L9.10399 13.0887C9.64799 13.0887 9.91999 12.8607 9.91999 12.4047C9.91999 12.1807 9.85599 12.0127 9.72799 11.9007C9.59199 11.7807 9.37599 11.7207 9.07999 11.7207C8.72799 11.7207 8.41999 11.8007 8.15599 11.9607C7.88399 12.1207 7.55999 12.4167 7.18399 12.8487C6.70399 13.3927 6.27199 13.7727 5.88799 13.9887C5.49599 14.2047 5.05599 14.3127 4.56799 14.3127C3.90399 14.3127 3.39199 14.1447 3.03199 13.8087C2.66399 13.4727 2.47999 12.9847 2.47999 12.3447C2.47999 11.7127 2.66399 11.2367 3.03199 10.9167C3.39199 10.5887 3.91199 10.4247 4.59199 10.4247L4.93999 10.4247L4.93999 11.6727L4.50799 11.6727C4.21999 11.6727 4.01199 11.7287 3.88399 11.8407C3.74799 11.9527 3.67999 12.1167 3.67999 12.3327C3.67999 12.7727 3.94799 12.9927 4.48399 12.9927C4.78799 12.9927 5.07199 12.9127 5.33599 12.7527C5.59999 12.5847 5.91999 12.2847 6.29599 11.8527C6.77599 11.3007 7.21199 10.9207 7.60399 10.7127C7.99599 10.5047 8.45599 10.4007 8.98399 10.4007C9.67199 10.4007 10.2 10.5727 10.568 10.9167C10.936 11.2527 11.12 11.7447 11.12 12.3927Z" fill="#828282"/>
<rect x="7" y="144.998" width="65" height="1" transform="rotate(-90 7 144.998)" fill="#828282"/>
</svg>
