<svg width="33" height="46" viewBox="0 0 33 46" fill="none" xmlns="http://www.w3.org/2000/svg">
<path d="M25.0095 43.358C23.0655 43.358 21.5895 42.818 20.5815 41.738C19.5975 40.658 19.1055 39.11 19.1055 37.094V35.042H22.8495V37.274C22.8495 38.93 23.5335 39.758 24.9015 39.758C25.5735 39.758 26.0775 39.554 26.4135 39.146C26.7735 38.714 26.9535 37.97 26.9535 36.914V34.862C26.9535 33.71 26.7495 32.894 26.3415 32.414C25.9335 31.91 25.2735 31.658 24.3615 31.658H23.0295V28.058H24.4695C25.2615 28.058 25.8495 27.854 26.2335 27.446C26.6415 27.038 26.8455 26.354 26.8455 25.394V23.558C26.8455 22.694 26.6655 22.058 26.3055 21.65C25.9455 21.242 25.4655 21.038 24.8655 21.038C23.5935 21.038 22.9575 21.818 22.9575 23.378V25.034H19.2135V23.702C19.2135 21.686 19.7055 20.138 20.6895 19.058C21.6975 17.978 23.1375 17.438 25.0095 17.438C26.9055 17.438 28.3455 17.978 29.3295 19.058C30.3135 20.114 30.8055 21.65 30.8055 23.666V24.566C30.8055 25.934 30.5775 27.038 30.1215 27.878C29.6655 28.694 28.9575 29.282 27.9975 29.642V29.714C29.0295 30.098 29.7735 30.722 30.2295 31.586C30.6855 32.45 30.9135 33.554 30.9135 34.898V37.13C30.9135 39.146 30.4095 40.694 29.4015 41.774C28.4175 42.83 26.9535 43.358 25.0095 43.358Z" fill="black"/>
<rect x="17.3403" y="0.998047" width="1" height="46.2894" transform="rotate(22 17.3403 0.998047)" fill="#333333"/>
</svg>
