<svg width="36" height="46" viewBox="0 0 36 46" fill="none" xmlns="http://www.w3.org/2000/svg">
<path d="M25.092 43.36C23.148 43.36 21.672 42.82 20.664 41.74C19.68 40.66 19.188 39.112 19.188 37.096V35.044H22.932V37.276C22.932 38.932 23.616 39.76 24.984 39.76C25.656 39.76 26.16 39.556 26.496 39.148C26.856 38.716 27.036 37.972 27.036 36.916V34.864C27.036 33.712 26.832 32.896 26.424 32.416C26.016 31.912 25.356 31.66 24.444 31.66H23.112V28.06H24.552C25.344 28.06 25.932 27.856 26.316 27.448C26.724 27.04 26.928 26.356 26.928 25.396V23.56C26.928 22.696 26.748 22.06 26.388 21.652C26.028 21.244 25.548 21.04 24.948 21.04C23.676 21.04 23.04 21.82 23.04 23.38V25.036H19.296V23.704C19.296 21.688 19.788 20.14 20.772 19.06C21.78 17.98 23.22 17.44 25.092 17.44C26.988 17.44 28.428 17.98 29.412 19.06C30.396 20.116 30.888 21.652 30.888 23.668V24.568C30.888 25.936 30.66 27.04 30.204 27.88C29.748 28.696 29.04 29.284 28.08 29.644V29.716C29.112 30.1 29.856 30.724 30.312 31.588C30.768 32.452 30.996 33.556 30.996 34.9V37.132C30.996 39.148 30.492 40.696 29.484 41.776C28.5 42.832 27.036 43.36 25.092 43.36Z" fill="black"/>
<rect x="17.3403" y="1" width="1" height="46.2894" transform="rotate(22 17.3403 1)" fill="#333333"/>
</svg>
