<?xml version="1.0" encoding="UTF-8"?>
<svg xmlns="http://www.w3.org/2000/svg" xmlns:xlink="http://www.w3.org/1999/xlink" viewBox="0 0 168.34 167.76">
  <defs>
    <style>
      .cls-1 {
        fill: url(#linear-gradient-2);
      }

      .cls-2 {
        fill: #fff;
      }

      .cls-3 {
        isolation: isolate;
      }

      .cls-4 {
        fill: url(#linear-gradient-3);
      }

      .cls-5 {
        fill: url(#linear-gradient);
      }

      .cls-6 {
        fill: url(#linear-gradient-4);
      }

      .cls-7 {
        mix-blend-mode: multiply;
      }
    </style>
    <linearGradient id="linear-gradient" x1="2615.75" y1="967.7" x2="2769.84" y2="967.7" gradientTransform="translate(2900.11 -424.62) rotate(150)" gradientUnits="userSpaceOnUse">
      <stop offset="0" stop-color="#fff774"/>
      <stop offset="1" stop-color="#d73fff"/>
    </linearGradient>
    <linearGradient id="linear-gradient-2" x1="2914.79" y1="821.36" x2="3068.87" y2="821.36" gradientTransform="translate(1557.67 -2646.74) rotate(103)" xlink:href="#linear-gradient"/>
    <linearGradient id="linear-gradient-3" x1="3225.22" y1="942.54" x2="3379.31" y2="942.54" gradientTransform="translate(-981.23 -3180.89) rotate(56)" xlink:href="#linear-gradient"/>
    <linearGradient id="linear-gradient-4" x1="3348.73" y1="1251" x2="3502.82" y2="1251" gradientTransform="translate(-3103.99 -1687.5) rotate(9)" xlink:href="#linear-gradient"/>
  </defs>
  <g class="cls-3">
    <g id="_Слой_1" data-name="Слой 1">
      <g>
        <g>
          <g class="cls-7">
            <path class="cls-5" d="m22.96,131.48c20.27,38.34,64.03,47.81,97.75,21.15,33.72-26.66,44.85-78.92,24.87-116.72C125.6-1.89,81.84-11.36,47.83,14.76,13.83,40.88,2.7,93.14,22.96,131.48Z"/>
          </g>
          <g class="cls-7">
            <path class="cls-1" d="m77.24,161.11c41.86,11.32,78.63-14.22,82.13-57.07,3.5-42.84-27.13-86.62-68.4-97.79C49.69-4.91,12.92,20.64,8.84,63.32c-4.09,42.68,26.54,86.46,68.4,97.79Z"/>
          </g>
          <g class="cls-7">
            <path class="cls-4" d="m135.92,141.63c36.83-22.89,43.22-67.21,14.28-98.98C121.25,10.87,68.35,3.4,32.03,25.97-4.28,48.54-10.67,92.86,17.76,124.96c28.43,32.1,81.33,39.56,118.17,16.67Z"/>
          </g>
          <g class="cls-7">
            <path class="cls-6" d="m161.7,85.42c8.38-42.55-19.67-77.45-62.66-77.95C56.06,6.97,14.52,40.57,6.26,82.52s19.79,76.85,62.66,77.95,84.4-32.5,92.78-75.05Z"/>
          </g>
        </g>
        <g>
          <path class="cls-2" d="m87.14,118.82c-9.44,0-10.68-.04-14.4-.21-3.37-.15-5.99-.65-8.48-1.62-2.44-.95-4.35-2.19-6.19-4.03-1.84-1.84-3.08-3.75-4.03-6.19-.97-2.49-1.47-5.11-1.62-8.48-.17-3.73-.21-4.96-.21-14.4s.04-10.68.21-14.4c.15-3.37.65-5.99,1.62-8.48.95-2.44,2.19-4.35,4.03-6.19,1.84-1.84,3.75-3.08,6.19-4.03,2.49-.97,5.11-1.47,8.48-1.62,3.72-.17,4.95-.21,14.4-.21s10.68.04,14.4.21c3.37.15,5.99.65,8.48,1.62,2.44.95,4.35,2.19,6.19,4.03,1.84,1.84,3.08,3.75,4.03,6.19.97,2.49,1.47,5.11,1.62,8.48.17,3.73.21,4.97.21,14.4s-.04,10.67-.21,14.4c-.15,3.37-.65,5.99-1.62,8.48-.95,2.44-2.19,4.35-4.03,6.19-1.84,1.84-3.75,3.08-6.19,4.03-2.49.97-5.11,1.47-8.48,1.62-3.72.17-4.96.21-14.4.21Zm0-63.56c-9.33,0-10.44.04-14.11.2-3.4.16-5.25.72-6.48,1.2-1.63.63-2.79,1.39-4.01,2.61-1.22,1.22-1.98,2.38-2.61,4.01-.48,1.23-1.05,3.08-1.2,6.48-.17,3.68-.2,4.78-.2,14.11s.04,10.44.2,14.11c.16,3.4.72,5.25,1.2,6.48.63,1.63,1.39,2.79,2.61,4.01,1.22,1.22,2.38,1.98,4.01,2.61,1.23.48,3.08,1.05,6.48,1.2,3.68.17,4.78.2,14.11.2s10.44-.04,14.11-.2c3.4-.16,5.25-.72,6.48-1.2,1.63-.63,2.79-1.39,4.01-2.61,1.22-1.22,1.98-2.38,2.61-4.01.48-1.23,1.05-3.08,1.2-6.48.17-3.69.2-4.79.2-14.11s-.04-10.43-.2-14.11c-.16-3.4-.72-5.25-1.2-6.48-.63-1.63-1.39-2.79-2.61-4.01-1.22-1.22-2.38-1.98-4.01-2.61-1.23-.48-3.08-1.05-6.48-1.2-3.68-.17-4.78-.2-14.11-.2Z"/>
          <path class="cls-2" d="m87.14,66.13c-9.81,0-17.76,7.95-17.76,17.76s7.95,17.76,17.76,17.76,17.76-7.95,17.76-17.76-7.95-17.76-17.76-17.76m0,29.28c-6.37,0-11.53-5.16-11.53-11.53s5.16-11.53,11.53-11.53,11.53,5.16,11.53,11.53-5.16,11.53-11.53,11.53"/>
          <path class="cls-2" d="m109.97,65.24c0,2.31-1.88,4.19-4.19,4.19s-4.19-1.88-4.19-4.19,1.88-4.19,4.19-4.19,4.19,1.88,4.19,4.19"/>
        </g>
      </g>
    </g>
  </g>
</svg>