<svg width="34" height="34" viewBox="0 0 34 34" fill="none" xmlns="http://www.w3.org/2000/svg">
<path d="M33.7336 17C33.7336 22.525 29.2711 27.0406 23.693 27.0406C18.168 27.0406 13.6523 22.525 13.6523 17C13.6523 11.475 18.1148 6.95935 23.6398 6.95935C29.2711 6.95935 33.7336 11.475 33.7336 17Z" fill="#FFB600"/>
<path d="M23.693 6.95935C29.218 6.95935 33.7336 11.475 33.7336 17C33.7336 22.525 29.2711 27.0406 23.693 27.0406C18.168 27.0406 13.6523 22.525 13.6523 17" fill="#F7981D"/>
<path d="M23.6934 6.95935C29.2184 6.95935 33.734 11.475 33.734 17C33.734 22.525 29.2715 27.0406 23.6934 27.0406" fill="#FF8500"/>
<path d="M10.2 6.95935C4.72813 7.01248 0.265625 11.475 0.265625 17C0.265625 22.525 4.72812 27.0406 10.3062 27.0406C12.9094 27.0406 15.2469 26.0312 17.0531 24.4375C17.425 24.1187 17.7437 23.7469 18.0625 23.375H15.9906C15.725 23.0562 15.4594 22.6844 15.2469 22.3656H18.8063C19.0188 22.0469 19.2313 21.675 19.3906 21.3031H14.6625C14.5031 20.9844 14.3438 20.6125 14.2375 20.2406H19.7625C20.0813 19.2312 20.2938 18.1687 20.2938 17.0531C20.2938 16.3094 20.1875 15.6187 20.0812 14.9281H13.9188C13.9719 14.5562 14.0781 14.2375 14.1844 13.8656H19.7094C19.6031 13.4937 19.4438 13.1219 19.2844 12.8031H14.6094C14.7688 12.4312 14.9812 12.1125 15.1938 11.7406H18.7531C18.5406 11.3687 18.275 10.9969 17.9562 10.6781H15.9906C16.3094 10.3062 16.6281 9.98748 17 9.66873C15.2469 8.02185 12.8562 7.0656 10.2531 7.0656C10.2531 6.95935 10.2531 6.95935 10.2 6.95935Z" fill="#FF5050"/>
<path d="M0.265625 17C0.265625 22.525 4.72812 27.0406 10.3062 27.0406C12.9094 27.0406 15.2469 26.0312 17.0531 24.4375C17.425 24.1187 17.7437 23.7469 18.0625 23.375H15.9906C15.725 23.0562 15.4594 22.6844 15.2469 22.3656H18.8063C19.0188 22.0469 19.2313 21.675 19.3906 21.3031H14.6625C14.5031 20.9844 14.3438 20.6125 14.2375 20.2406H19.7625C20.0813 19.2312 20.2938 18.1687 20.2938 17.0531C20.2938 16.3094 20.1875 15.6187 20.0812 14.9281H13.9188C13.9719 14.5562 14.0781 14.2375 14.1844 13.8656H19.7094C19.6031 13.4937 19.4438 13.1219 19.2844 12.8031H14.6094C14.7688 12.4312 14.9812 12.1125 15.1938 11.7406H18.7531C18.5406 11.3687 18.275 10.9969 17.9562 10.6781H15.9906C16.3094 10.3062 16.6281 9.98749 17 9.66874C15.2469 8.02186 12.8562 7.06561 10.2531 7.06561H10.2" fill="#E52836"/>
<path d="M10.3055 27.0406C12.9086 27.0406 15.2461 26.0312 17.0523 24.4375C17.4242 24.1187 17.743 23.7469 18.0617 23.375H15.9898C15.7242 23.0562 15.4586 22.6844 15.2461 22.3656H18.8055C19.018 22.0469 19.2305 21.675 19.3898 21.3031H14.6617C14.5023 20.9844 14.343 20.6125 14.2367 20.2406H19.7617C20.0805 19.2312 20.293 18.1687 20.293 17.0531C20.293 16.3094 20.1867 15.6187 20.0805 14.9281H13.918C13.9711 14.5562 14.0773 14.2375 14.1836 13.8656H19.7086C19.6023 13.4937 19.443 13.1219 19.2836 12.8031H14.6086C14.768 12.4312 14.9805 12.1125 15.193 11.7406H18.7523C18.5398 11.3687 18.2742 10.9969 17.9555 10.6781H15.9898C16.3086 10.3062 16.6273 9.98749 16.9992 9.66874C15.2461 8.02186 12.8555 7.06561 10.2523 7.06561H10.1992" fill="#CB2026"/>
<path d="M13.8668 19.55L14.0262 18.6469C13.973 18.6469 13.8668 18.7 13.7605 18.7C13.3887 18.7 13.3355 18.4875 13.3887 18.3812L13.7074 16.5219H14.2918L14.4512 15.5125H13.9199L14.0262 14.875H12.9637C12.9637 14.875 12.3262 18.3813 12.3262 18.8063C12.3262 19.4438 12.698 19.7094 13.1762 19.7094C13.4949 19.7094 13.7605 19.6031 13.8668 19.55Z" fill="white"/>
<path d="M14.2383 17.85C14.2383 19.3375 15.2477 19.7094 16.0977 19.7094C16.8945 19.7094 17.2133 19.55 17.2133 19.55L17.4258 18.5406C17.4258 18.5406 16.8414 18.8062 16.3102 18.8062C15.1414 18.8062 15.3539 17.9562 15.3539 17.9562H17.532C17.532 17.9562 17.6914 17.2656 17.6914 17C17.6914 16.3094 17.3195 15.4594 16.1508 15.4594C15.0352 15.3531 14.2383 16.5219 14.2383 17.85ZM16.0977 16.3094C16.682 16.3094 16.5758 17 16.5758 17.0531H15.407C15.407 17 15.5133 16.3094 16.0977 16.3094Z" fill="white"/>
<path d="M22.8438 19.55L23.0563 18.3812C23.0563 18.3812 22.525 18.6468 22.1531 18.6468C21.4094 18.6468 21.0906 18.0625 21.0906 17.425C21.0906 16.15 21.7281 15.4594 22.4719 15.4594C23.0031 15.4594 23.4281 15.7781 23.4281 15.7781L23.5875 14.6625C23.5875 14.6625 22.95 14.3969 22.3656 14.3969C21.1437 14.3969 19.9219 15.4594 19.9219 17.4781C19.9219 18.8062 20.5594 19.7093 21.8344 19.7093C22.2594 19.7093 22.8438 19.55 22.8438 19.55Z" fill="white"/>
<path d="M8.02266 15.3531C7.27891 15.3531 6.74766 15.5656 6.74766 15.5656L6.58828 16.4687C6.58828 16.4687 7.06641 16.2562 7.75703 16.2562C8.12891 16.2562 8.44766 16.3093 8.44766 16.6281C8.44766 16.8406 8.39453 16.8937 8.39453 16.8937C8.39453 16.8937 8.07578 16.8937 7.91641 16.8937C7.01328 16.8937 6.00391 17.2656 6.00391 18.4875C6.00391 19.4437 6.64141 19.6562 7.01328 19.6562C7.75703 19.6562 8.07578 19.1781 8.12891 19.1781L8.07578 19.6031H9.03203L9.45703 16.6812C9.45703 15.4062 8.39453 15.3531 8.02266 15.3531ZM8.23516 17.7437C8.23516 17.9031 8.12891 18.7531 7.49141 18.7531C7.17266 18.7531 7.06641 18.4875 7.06641 18.3281C7.06641 18.0625 7.22578 17.6906 8.02266 17.6906C8.18203 17.7437 8.23516 17.7437 8.23516 17.7437Z" fill="white"/>
<path d="M10.466 19.6562C10.7316 19.6562 12.0598 19.7094 12.0598 18.275C12.0598 16.9469 10.7848 17.2125 10.7848 16.6812C10.7848 16.4156 10.9973 16.3094 11.3691 16.3094C11.5285 16.3094 12.1129 16.3625 12.1129 16.3625L12.2723 15.4062C12.2723 15.4062 11.9004 15.3 11.2629 15.3C10.466 15.3 9.66914 15.6187 9.66914 16.6812C9.66914 17.9031 10.9973 17.7969 10.9973 18.275C10.9973 18.5937 10.6254 18.6469 10.3598 18.6469C9.88164 18.6469 9.40352 18.4875 9.40352 18.4875L9.24414 19.4437C9.29727 19.55 9.56289 19.6562 10.466 19.6562Z" fill="white"/>
<path d="M31.6629 14.5031L31.4504 15.9375C31.4504 15.9375 31.0254 15.4062 30.441 15.4062C29.4848 15.4062 28.6348 16.575 28.6348 17.9562C28.6348 18.8062 29.0598 19.7094 29.9629 19.7094C30.6004 19.7094 30.9723 19.2844 30.9723 19.2844L30.9191 19.6562H31.9816L32.7785 14.5562L31.6629 14.5031ZM31.1848 17.3187C31.1848 17.9031 30.9191 18.6469 30.3348 18.6469C29.9629 18.6469 29.7504 18.3281 29.7504 17.7969C29.7504 16.9469 30.1223 16.4156 30.6004 16.4156C30.9723 16.4156 31.1848 16.6812 31.1848 17.3187Z" fill="white"/>
<path d="M2.23203 19.6031L2.86953 15.7781L2.97578 19.6031H3.71953L5.10078 15.7781L4.51641 19.6031H5.63203L6.48203 14.5031H4.72891L3.66641 17.6375L3.61328 14.5031H2.07266L1.22266 19.6031H2.23203Z" fill="white"/>
<path d="M18.7 19.6031C19.0188 17.85 19.0719 16.4156 19.8156 16.6812C19.9219 15.9906 20.0812 15.725 20.1875 15.4594C20.1875 15.4594 20.1344 15.4594 19.975 15.4594C19.4969 15.4594 19.125 16.0968 19.125 16.0968L19.2313 15.5125H18.2219L17.5312 19.6562H18.7V19.6031Z" fill="white"/>
<path d="M25.2883 15.3531C24.5445 15.3531 24.0133 15.5656 24.0133 15.5656L23.8539 16.4687C23.8539 16.4687 24.332 16.2562 25.0227 16.2562C25.3945 16.2562 25.7133 16.3093 25.7133 16.6281C25.7133 16.8406 25.6602 16.8937 25.6602 16.8937C25.6602 16.8937 25.3414 16.8937 25.182 16.8937C24.2789 16.8937 23.2695 17.2656 23.2695 18.4875C23.2695 19.4437 23.907 19.6562 24.2789 19.6562C25.0227 19.6562 25.3414 19.1781 25.3945 19.1781L25.3414 19.6031H26.2977L26.7227 16.6812C26.7758 15.4062 25.6602 15.3531 25.2883 15.3531ZM25.5539 17.7437C25.5539 17.9031 25.4477 18.7531 24.8102 18.7531C24.4914 18.7531 24.3852 18.4875 24.3852 18.3281C24.3852 18.0625 24.5445 17.6906 25.3414 17.6906C25.5008 17.7437 25.5008 17.7437 25.5539 17.7437Z" fill="white"/>
<path d="M27.6258 19.6031C27.9445 17.85 27.9977 16.4156 28.7414 16.6812C28.8477 15.9906 29.007 15.725 29.1133 15.4594C29.1133 15.4594 29.0602 15.4594 28.9008 15.4594C28.4227 15.4594 28.0508 16.0968 28.0508 16.0968L28.157 15.5125H27.1477L26.457 19.6562H27.6258V19.6031Z" fill="white"/>
<path d="M12.2188 18.8063C12.2188 19.4438 12.5906 19.7094 13.0687 19.7094C13.4406 19.7094 13.7594 19.6031 13.8656 19.55L14.025 18.6469C13.9719 18.6469 13.8656 18.7 13.7594 18.7C13.3875 18.7 13.3344 18.4875 13.3875 18.3812L13.7062 16.5219H14.2906L14.45 15.5125H13.9187L14.025 14.875" fill="#DCE5E5"/>
<path d="M14.7695 17.85C14.7695 19.3375 15.2477 19.7094 16.0977 19.7094C16.8945 19.7094 17.2133 19.55 17.2133 19.55L17.4258 18.5406C17.4258 18.5406 16.8414 18.8062 16.3102 18.8062C15.1414 18.8062 15.3539 17.9562 15.3539 17.9562H17.532C17.532 17.9562 17.6914 17.2656 17.6914 17C17.6914 16.3094 17.3195 15.4594 16.1508 15.4594C15.0352 15.3531 14.7695 16.5219 14.7695 17.85ZM16.0977 16.3094C16.682 16.3094 16.7883 17 16.7883 17.0531H15.407C15.407 17 15.5133 16.3094 16.0977 16.3094Z" fill="#DCE5E5"/>
<path d="M22.8438 19.55L23.0563 18.3812C23.0563 18.3812 22.525 18.6468 22.1531 18.6468C21.4094 18.6468 21.0906 18.0625 21.0906 17.425C21.0906 16.15 21.7281 15.4594 22.4719 15.4594C23.0031 15.4594 23.4281 15.7781 23.4281 15.7781L23.5875 14.6625C23.5875 14.6625 22.95 14.3969 22.3656 14.3969C21.1437 14.3969 20.4531 15.4594 20.4531 17.4781C20.4531 18.8062 20.5594 19.7093 21.8344 19.7093C22.2594 19.7093 22.8438 19.55 22.8438 19.55Z" fill="#DCE5E5"/>
<path d="M6.58828 16.5219C6.58828 16.5219 7.06641 16.3094 7.75703 16.3094C8.12891 16.3094 8.44766 16.3625 8.44766 16.6812C8.44766 16.8937 8.39453 16.9468 8.39453 16.9468C8.39453 16.9468 8.07578 16.9468 7.91641 16.9468C7.01328 16.9468 6.00391 17.3187 6.00391 18.5406C6.00391 19.4969 6.64141 19.7093 7.01328 19.7093C7.75703 19.7093 8.07578 19.2312 8.12891 19.2312L8.07578 19.6562H9.03203L9.45703 16.7344C9.45703 15.5125 8.39453 15.4594 7.96953 15.4594L6.58828 16.5219ZM8.76641 17.7437C8.76641 17.9031 8.12891 18.7531 7.49141 18.7531C7.17266 18.7531 7.06641 18.4875 7.06641 18.3281C7.06641 18.0625 7.22578 17.6906 8.02266 17.6906C8.18203 17.7437 8.76641 17.7437 8.76641 17.7437Z" fill="#DCE5E5"/>
<path d="M9.29688 19.55C9.29688 19.55 9.61562 19.6562 10.5187 19.6562C10.7844 19.6562 12.1125 19.7094 12.1125 18.275C12.1125 16.9469 10.8375 17.2125 10.8375 16.6812C10.8375 16.4156 11.05 16.3094 11.4219 16.3094C11.5813 16.3094 12.1656 16.3625 12.1656 16.3625L12.325 15.4062C12.325 15.4062 11.9531 15.3 11.3156 15.3C10.5187 15.3 10.2531 15.6187 10.2531 16.6812C10.2531 17.9031 11.05 17.7969 11.05 18.275C11.05 18.5937 10.6781 18.6469 10.4125 18.6469" fill="#DCE5E5"/>
<path d="M31.4503 15.9375C31.4503 15.9375 31.0253 15.4062 30.441 15.4062C29.4847 15.4062 29.166 16.575 29.166 17.9562C29.166 18.8062 29.0597 19.7093 29.9628 19.7093C30.6003 19.7093 30.9722 19.2843 30.9722 19.2843L30.9191 19.6562H31.9816L32.7785 14.5562L31.4503 15.9375ZM31.3972 17.3187C31.3972 17.9031 30.9191 18.6468 30.3347 18.6468C29.9628 18.6468 29.7503 18.3281 29.7503 17.7968C29.7503 16.9468 30.1222 16.4156 30.6003 16.4156C30.9722 16.4156 31.3972 16.6812 31.3972 17.3187Z" fill="#DCE5E5"/>
<path d="M2.23203 19.6031L2.86953 15.7781L2.97578 19.6031H3.71953L5.10078 15.7781L4.51641 19.6031H5.63203L6.48203 14.5031H5.15391L3.66641 17.6375L3.61328 14.5031H3.02891L1.22266 19.6031H2.23203Z" fill="#DCE5E5"/>
<path d="M17.5859 19.6031H18.7016C19.0203 17.85 19.0734 16.4156 19.8172 16.6812C19.9234 15.9906 20.0828 15.725 20.1891 15.4594C20.1891 15.4594 20.1359 15.4594 19.9766 15.4594C19.4984 15.4594 19.1266 16.0968 19.1266 16.0968L19.2328 15.5125" fill="#DCE5E5"/>
<path d="M23.8539 16.5219C23.8539 16.5219 24.332 16.3094 25.0227 16.3094C25.3945 16.3094 25.7133 16.3625 25.7133 16.6812C25.7133 16.8937 25.6602 16.9468 25.6602 16.9468C25.6602 16.9468 25.3414 16.9468 25.182 16.9468C24.2789 16.9468 23.2695 17.3187 23.2695 18.5406C23.2695 19.4969 23.907 19.7093 24.2789 19.7093C25.0227 19.7093 25.3414 19.2312 25.3945 19.2312L25.3414 19.6562H26.2977L26.7227 16.7344C26.7227 15.5125 25.6602 15.4594 25.2352 15.4594L23.8539 16.5219ZM26.032 17.7437C26.032 17.9031 25.3945 18.7531 24.757 18.7531C24.4383 18.7531 24.332 18.4875 24.332 18.3281C24.332 18.0625 24.4914 17.6906 25.2883 17.6906C25.5008 17.7437 26.032 17.7437 26.032 17.7437Z" fill="#DCE5E5"/>
<path d="M26.5098 19.6031H27.6254C27.9441 17.85 27.9973 16.4156 28.741 16.6812C28.8473 15.9906 29.0066 15.725 29.1129 15.4594C29.1129 15.4594 29.0598 15.4594 28.9004 15.4594C28.4223 15.4594 28.0504 16.0968 28.0504 16.0968L28.1566 15.5125" fill="#DCE5E5"/>
</svg>
