<?xml version="1.0" encoding="UTF-8" standalone="no"?>
<svg width="840px" height="600px" viewBox="0 0 840 600" version="1.1" xmlns="http://www.w3.org/2000/svg" xmlns:xlink="http://www.w3.org/1999/xlink">
    <!-- Generator: Sketch 39.1 (31720) - http://www.bohemiancoding.com/sketch -->
    <title>Visa</title>
    <desc>Created with Sketch.</desc>
    <defs>
        <rect id="path-1" x="0" y="0" width="840" height="600" rx="60"></rect>
        <mask id="mask-2" maskContentUnits="userSpaceOnUse" maskUnits="objectBoundingBox" x="0" y="0" width="840" height="600" fill="white">
            <use xlink:href="#path-1"></use>
        </mask>
    </defs>
    <g id="Page-1" stroke="none" stroke-width="1" fill="none" fill-rule="evenodd">
        <g id="GoPro-Credit_Card-Logos" transform="translate(-1140.000000, -100.000000)">
            <g id="Visa" transform="translate(1140.000000, 100.000000)">
                <use id="CC-BG" stroke="#666666" mask="url(#mask-2)" stroke-width="10" fill="#FFFFFF" xlink:href="#path-1"></use>
                <g id="Visa-Logo" transform="translate(120.000000, 208.000000)">
                    <path d="M212.545527,181.357025 L242.372688,3.10628496 L290.050333,3.10628496 L260.225899,181.357025 L212.545527,181.357025 Z M433.167805,7.48140836 C423.740807,3.90391576 408.914488,0 390.444991,0 C343.307278,0 310.125993,24.1921685 309.850573,58.8298782 C309.55061,84.4488319 333.528507,98.7403751 351.605326,107.256334 C370.183901,115.985522 376.425844,121.57157 376.352216,129.376769 C376.224051,141.314906 361.523171,146.785127 347.814893,146.785127 C328.726383,146.785127 318.58493,144.092136 302.905082,137.437315 L296.772216,134.599539 L290.104872,174.499506 C301.222566,179.464297 321.832703,183.77361 343.222743,184 C393.319175,184 425.87054,160.102665 426.25231,123.114182 C426.424106,102.796973 413.719339,87.3945377 386.204615,74.6798289 C369.543072,66.4165844 359.317084,60.941099 359.434342,52.5751892 C359.44525,45.1648569 368.073257,37.2359329 386.747274,37.2359329 C402.342587,36.9937479 413.632078,40.4606779 422.429154,44.082922 L426.710434,46.1230668 L433.167805,7.48140836 Z M555.473345,3.28792366 L518.627066,3.28792366 C507.198502,3.28792366 498.644123,6.44159263 493.637479,18.0638368 L422.83274,181.420204 L472.910083,181.420204 C472.910083,181.420204 481.079966,159.444554 482.934278,154.621915 C488.396319,154.621915 537.05566,154.714051 544.001151,154.714051 C545.430062,160.934518 549.806785,181.420204 549.806785,181.420204 L594.059406,181.420204 L555.473345,3.28792366 Z M496.653464,118.159921 C500.604785,107.914446 515.646532,68.3382692 515.646532,68.3382692 C515.368385,68.8068444 519.576038,58.0111879 521.983917,51.3300428 L525.201695,66.7035209 C525.201695,66.7035209 534.350545,109.249095 536.234854,118.159921 L496.653464,118.159921 Z M172.546916,3.25633432 L125.880962,124.78052 L120.882499,100.077657 C112.186319,71.615663 85.1160844,40.7660415 54.8362529,25.3083251 L97.5290701,181.201711 L147.988184,181.172754 L223.071477,3.25633432 L172.546916,3.25633432 Z" id="Combined-Shape" fill="#0066B2"></path>
                    <path d="M81.7929571,101.2 L2.93650387,101.2 L2.28484387,97.344474 C63.6471629,81.9306142 104.24586,44.7246511 121.096725,0 L103.960584,85.5003421 C101.004341,97.2922609 92.4124979,100.787791 81.7929571,101.2" id="path30" fill="#F79510" transform="translate(61.690784, 50.600000) scale(1, -1) translate(-61.690784, -50.600000) "></path>
                </g>
            </g>
        </g>
    </g>
</svg>