<?xml version="1.0" encoding="utf-8"?>
<!-- Uploaded to: SVG Repo, www.svgrepo.com, Generator: SVG Repo Mixer Tools -->
<svg fill="#000000" height="800px" width="800px" version="1.2" baseProfile="tiny" id="Layer_1" xmlns="http://www.w3.org/2000/svg" xmlns:xlink="http://www.w3.org/1999/xlink"
	  viewBox="0 0 256 256" xml:space="preserve">
<path id="XMLID_5_" d="M133.1,142L146,69.8c6.5-4.7,25.7-13.1,31-25.8c7-17.2-6.9-37.8-7.2-39.7c0-2-23.8,8.1-30.8,25.1
	c-4.9,11.8-0.2,27.7,1.6,36.3l-11.1,62.2c-4.4-15.2-13.8-29.8-21-39.8c-3.3-7.7-4.3-22.1-12.2-29.3c-12.8-11.4-34.8-8.1-36.6-8.5
	c-1.8-0.4-0.2,24.8,12.6,36.3c10.3,9.5,29,8.5,35.8,9.6c9.2,13.3,19.5,28.5,19.3,43.9l-0.4,2H55v20h10.2l16.5,90h93.8l16.5-90H202
	v-20H133.1z"/>
</svg>