<svg width="101" height="101" viewBox="0 0 101 101" fill="none" xmlns="http://www.w3.org/2000/svg">
<circle cx="50.5" cy="50.5" r="50.5" fill="white"/>
<mask id="path-2-outside-1_29101_239" maskUnits="userSpaceOnUse" x="19" y="21" width="64" height="63" fill="black">
<rect fill="white" x="19" y="21" width="64" height="63"/>
<path d="M21.23 24H26.09C27.73 24 28.96 24.44 29.78 25.32C30.6 26.2 31.01 27.49 31.01 29.19V31.26C31.01 32.96 30.6 34.25 29.78 35.13C28.96 36.01 27.73 36.45 26.09 36.45H24.53V45H21.23V24ZM26.09 33.45C26.63 33.45 27.03 33.3 27.29 33C27.57 32.7 27.71 32.19 27.71 31.47V28.98C27.71 28.26 27.57 27.75 27.29 27.45C27.03 27.15 26.63 27 26.09 27H24.53V33.45H26.09ZM42.2223 45.3C40.6023 45.3 39.3623 44.84 38.5023 43.92C37.6423 43 37.2123 41.7 37.2123 40.02V28.98C37.2123 27.3 37.6423 26 38.5023 25.08C39.3623 24.16 40.6023 23.7 42.2223 23.7C43.8423 23.7 45.0823 24.16 45.9423 25.08C46.8023 26 47.2323 27.3 47.2323 28.98V40.02C47.2323 41.7 46.8023 43 45.9423 43.92C45.0823 44.84 43.8423 45.3 42.2223 45.3ZM42.2223 42.3C43.3623 42.3 43.9323 41.61 43.9323 40.23V28.77C43.9323 27.39 43.3623 26.7 42.2223 26.7C41.0823 26.7 40.5123 27.39 40.5123 28.77V40.23C40.5123 41.61 41.0823 42.3 42.2223 42.3ZM54.114 24H59.004C60.704 24 61.944 24.4 62.724 25.2C63.504 25.98 63.894 27.19 63.894 28.83V30.12C63.894 32.3 63.174 33.68 61.734 34.26V34.32C62.534 34.56 63.094 35.05 63.414 35.79C63.754 36.53 63.924 37.52 63.924 38.76V42.45C63.924 43.05 63.944 43.54 63.984 43.92C64.024 44.28 64.124 44.64 64.284 45H60.924C60.804 44.66 60.724 44.34 60.684 44.04C60.644 43.74 60.624 43.2 60.624 42.42V38.58C60.624 37.62 60.464 36.95 60.144 36.57C59.844 36.19 59.314 36 58.554 36H57.414V45H54.114V24ZM58.614 33C59.274 33 59.764 32.83 60.084 32.49C60.424 32.15 60.594 31.58 60.594 30.78V29.16C60.594 28.4 60.454 27.85 60.174 27.51C59.914 27.17 59.494 27 58.914 27H57.414V33H58.614ZM73.385 27H69.935V24H80.135V27H76.685V45H73.385V27ZM21.23 60H26.09C27.73 60 28.96 60.44 29.78 61.32C30.6 62.2 31.01 63.49 31.01 65.19V67.26C31.01 68.96 30.6 70.25 29.78 71.13C28.96 72.01 27.73 72.45 26.09 72.45H24.53V81H21.23V60ZM26.09 69.45C26.63 69.45 27.03 69.3 27.29 69C27.57 68.7 27.71 68.19 27.71 67.47V64.98C27.71 64.26 27.57 63.75 27.29 63.45C27.03 63.15 26.63 63 26.09 63H24.53V69.45H26.09ZM42.2223 81.3C40.6023 81.3 39.3623 80.84 38.5023 79.92C37.6423 79 37.2123 77.7 37.2123 76.02V64.98C37.2123 63.3 37.6423 62 38.5023 61.08C39.3623 60.16 40.6023 59.7 42.2223 59.7C43.8423 59.7 45.0823 60.16 45.9423 61.08C46.8023 62 47.2323 63.3 47.2323 64.98V76.02C47.2323 77.7 46.8023 79 45.9423 79.92C45.0823 80.84 43.8423 81.3 42.2223 81.3ZM42.2223 78.3C43.3623 78.3 43.9323 77.61 43.9323 76.23V64.77C43.9323 63.39 43.3623 62.7 42.2223 62.7C41.0823 62.7 40.5123 63.39 40.5123 64.77V76.23C40.5123 77.61 41.0823 78.3 42.2223 78.3ZM56.5768 63H53.1268V60H63.3268V63H59.8768V81H56.5768V63ZM73.8645 81.3C72.2645 81.3 71.0545 80.85 70.2345 79.95C69.4145 79.03 69.0045 77.72 69.0045 76.02V74.82H72.1245V76.26C72.1245 77.62 72.6945 78.3 73.8345 78.3C74.3945 78.3 74.8145 78.14 75.0945 77.82C75.3945 77.48 75.5445 76.94 75.5445 76.2C75.5445 75.32 75.3445 74.55 74.9445 73.89C74.5445 73.21 73.8045 72.4 72.7245 71.46C71.3645 70.26 70.4145 69.18 69.8745 68.22C69.3345 67.24 69.0645 66.14 69.0645 64.92C69.0645 63.26 69.4845 61.98 70.3245 61.08C71.1645 60.16 72.3845 59.7 73.9845 59.7C75.5645 59.7 76.7545 60.16 77.5545 61.08C78.3745 61.98 78.7845 63.28 78.7845 64.98V65.85H75.6645V64.77C75.6645 64.05 75.5245 63.53 75.2445 63.21C74.9645 62.87 74.5545 62.7 74.0145 62.7C72.9145 62.7 72.3645 63.37 72.3645 64.71C72.3645 65.47 72.5645 66.18 72.9645 66.84C73.3845 67.5 74.1345 68.3 75.2145 69.24C76.5945 70.44 77.5445 71.53 78.0645 72.51C78.5845 73.49 78.8445 74.64 78.8445 75.96C78.8445 77.68 78.4145 79 77.5545 79.92C76.7145 80.84 75.4845 81.3 73.8645 81.3Z"/>
</mask>
<path d="M21.23 24V22H19.23V24H21.23ZM29.78 25.32L28.3168 26.6834L28.3168 26.6835L29.78 25.32ZM29.78 35.13L28.3168 33.7665L28.3168 33.7665L29.78 35.13ZM24.53 36.45V34.45H22.53V36.45H24.53ZM24.53 45V47H26.53V45H24.53ZM21.23 45H19.23V47H21.23V45ZM27.29 33L25.8279 31.6354L25.8028 31.6623L25.7786 31.6901L27.29 33ZM27.29 27.45L25.7786 28.7599L25.8028 28.7877L25.8279 28.8146L27.29 27.45ZM24.53 27V25H22.53V27H24.53ZM24.53 33.45H22.53V35.45H24.53V33.45ZM21.23 26H26.09V22H21.23V26ZM26.09 26C27.3841 26 27.9973 26.3405 28.3168 26.6834L31.2432 23.9565C29.9227 22.5395 28.0759 22 26.09 22V26ZM28.3168 26.6835C28.6716 27.0642 29.01 27.7867 29.01 29.19H33.01C33.01 27.1933 32.5284 25.3358 31.2432 23.9565L28.3168 26.6835ZM29.01 29.19V31.26H33.01V29.19H29.01ZM29.01 31.26C29.01 32.6633 28.6716 33.3858 28.3168 33.7665L31.2432 36.4935C32.5284 35.1142 33.01 33.2567 33.01 31.26H29.01ZM28.3168 33.7665C27.9973 34.1095 27.3841 34.45 26.09 34.45V38.45C28.0759 38.45 29.9227 37.9105 31.2432 36.4935L28.3168 33.7665ZM26.09 34.45H24.53V38.45H26.09V34.45ZM22.53 36.45V45H26.53V36.45H22.53ZM24.53 43H21.23V47H24.53V43ZM23.23 45V24H19.23V45H23.23ZM26.09 35.45C26.9907 35.45 28.0382 35.1905 28.8014 34.3099L25.7786 31.6901C25.8836 31.569 26.0048 31.4978 26.0928 31.4648C26.1678 31.4367 26.1808 31.45 26.09 31.45V35.45ZM28.7521 34.3646C29.559 33.5001 29.71 32.3469 29.71 31.47H25.71C25.71 31.5863 25.7043 31.6767 25.6966 31.7444C25.6888 31.8125 25.6799 31.8501 25.6763 31.8631C25.668 31.8935 25.6926 31.7804 25.8279 31.6354L28.7521 34.3646ZM29.71 31.47V28.98H25.71V31.47H29.71ZM29.71 28.98C29.71 28.1031 29.559 26.9499 28.7521 26.0854L25.8279 28.8146C25.6926 28.6696 25.668 28.5565 25.6763 28.5869C25.6799 28.5999 25.6888 28.6375 25.6966 28.7056C25.7043 28.7733 25.71 28.8637 25.71 28.98H29.71ZM28.8014 26.1401C28.0382 25.2595 26.9907 25 26.09 25V29C26.1808 29 26.1678 29.0133 26.0928 28.9852C26.0048 28.9522 25.8836 28.881 25.7786 28.7599L28.8014 26.1401ZM26.09 25H24.53V29H26.09V25ZM22.53 27V33.45H26.53V27H22.53ZM24.53 35.45H26.09V31.45H24.53V35.45ZM38.5023 43.92L39.9633 42.5542L39.9633 42.5542L38.5023 43.92ZM38.5023 25.08L39.9633 26.4458L39.9633 26.4458L38.5023 25.08ZM45.9423 25.08L44.4812 26.4458L44.4812 26.4458L45.9423 25.08ZM45.9423 43.92L44.4812 42.5542L44.4812 42.5542L45.9423 43.92ZM42.2223 43.3C40.9884 43.3 40.3441 42.9616 39.9633 42.5542L37.0412 45.2858C38.3804 46.7184 40.2161 47.3 42.2223 47.3V43.3ZM39.9633 42.5542C39.5521 42.1143 39.2123 41.3661 39.2123 40.02H35.2123C35.2123 42.0339 35.7324 43.8857 37.0412 45.2858L39.9633 42.5542ZM39.2123 40.02V28.98H35.2123V40.02H39.2123ZM39.2123 28.98C39.2123 27.6339 39.5521 26.8857 39.9633 26.4458L37.0412 23.7142C35.7324 25.1143 35.2123 26.9661 35.2123 28.98H39.2123ZM39.9633 26.4458C40.3441 26.0384 40.9884 25.7 42.2223 25.7V21.7C40.2161 21.7 38.3804 22.2816 37.0412 23.7142L39.9633 26.4458ZM42.2223 25.7C43.4561 25.7 44.1004 26.0384 44.4812 26.4458L47.4033 23.7142C46.0641 22.2816 44.2284 21.7 42.2223 21.7V25.7ZM44.4812 26.4458C44.8924 26.8857 45.2323 27.6339 45.2323 28.98H49.2323C49.2323 26.9661 48.7121 25.1143 47.4033 23.7142L44.4812 26.4458ZM45.2323 28.98V40.02H49.2323V28.98H45.2323ZM45.2323 40.02C45.2323 41.3661 44.8924 42.1143 44.4812 42.5542L47.4033 45.2858C48.7121 43.8857 49.2323 42.0339 49.2323 40.02H45.2323ZM44.4812 42.5542C44.1004 42.9616 43.4561 43.3 42.2223 43.3V47.3C44.2284 47.3 46.0641 46.7184 47.4033 45.2858L44.4812 42.5542ZM42.2223 44.3C43.2119 44.3 44.2819 43.9821 45.0467 43.0563C45.7511 42.2036 45.9323 41.1452 45.9323 40.23H41.9323C41.9323 40.4439 41.9095 40.5599 41.8972 40.6047C41.8861 40.6447 41.8934 40.5928 41.9628 40.5087C41.997 40.4673 42.0396 40.4266 42.089 40.3907C42.1381 40.355 42.1846 40.331 42.222 40.3159C42.2951 40.2864 42.3095 40.3 42.2223 40.3V44.3ZM45.9323 40.23V28.77H41.9323V40.23H45.9323ZM45.9323 28.77C45.9323 27.8548 45.7511 26.7964 45.0467 25.9437C44.2819 25.0179 43.2119 24.7 42.2223 24.7V28.7C42.3095 28.7 42.2951 28.7136 42.222 28.6841C42.1846 28.669 42.1381 28.645 42.089 28.6093C42.0396 28.5734 41.997 28.5327 41.9628 28.4913C41.8934 28.4072 41.8861 28.3553 41.8972 28.3953C41.9095 28.4401 41.9323 28.5561 41.9323 28.77H45.9323ZM42.2223 24.7C41.2326 24.7 40.1627 25.0179 39.3978 25.9437C38.6935 26.7964 38.5123 27.8548 38.5123 28.77H42.5123C42.5123 28.5561 42.5351 28.4401 42.5474 28.3953C42.5584 28.3553 42.5511 28.4072 42.4817 28.4913C42.4475 28.5327 42.4049 28.5734 42.3556 28.6093C42.3064 28.645 42.26 28.669 42.2225 28.6841C42.1495 28.7136 42.135 28.7 42.2223 28.7V24.7ZM38.5123 28.77V40.23H42.5123V28.77H38.5123ZM38.5123 40.23C38.5123 41.1452 38.6935 42.2036 39.3978 43.0563C40.1627 43.9821 41.2326 44.3 42.2223 44.3V40.3C42.135 40.3 42.1495 40.2864 42.2225 40.3159C42.26 40.331 42.3064 40.355 42.3556 40.3907C42.4049 40.4266 42.4475 40.4673 42.4817 40.5087C42.5511 40.5928 42.5584 40.6447 42.5474 40.6047C42.5351 40.5599 42.5123 40.4439 42.5123 40.23H38.5123ZM54.114 24V22H52.114V24H54.114ZM62.724 25.2L61.292 26.5962L61.3008 26.6053L61.3098 26.6142L62.724 25.2ZM61.734 34.26L60.9868 32.4048L59.734 32.9094V34.26H61.734ZM61.734 34.32H59.734V35.8081L61.1593 36.2357L61.734 34.32ZM63.414 35.79L61.5783 36.5838L61.5872 36.6045L61.5966 36.625L63.414 35.79ZM63.984 43.92L61.9949 44.1294L61.9962 44.1409L63.984 43.92ZM64.284 45V47H67.3615L66.1116 44.1877L64.284 45ZM60.924 45L59.038 45.6656L59.509 47H60.924V45ZM60.144 36.57L58.5742 37.8093L58.5938 37.8341L58.6142 37.8583L60.144 36.57ZM57.414 36V34H55.414V36H57.414ZM57.414 45V47H59.414V45H57.414ZM54.114 45H52.114V47H54.114V45ZM60.084 32.49L58.6698 31.0758L58.6483 31.0972L58.6276 31.1193L60.084 32.49ZM60.174 27.51L58.5853 28.7249L58.6072 28.7536L58.6301 28.7814L60.174 27.51ZM57.414 27V25H55.414V27H57.414ZM57.414 33H55.414V35H57.414V33ZM54.114 26H59.004V22H54.114V26ZM59.004 26C60.4421 26 61.0458 26.3437 61.292 26.5962L64.156 23.8038C62.8422 22.4563 60.9658 22 59.004 22V26ZM61.3098 26.6142C61.5659 26.8703 61.894 27.4644 61.894 28.83H65.894C65.894 26.9156 65.4421 25.0897 64.1382 23.7858L61.3098 26.6142ZM61.894 28.83V30.12H65.894V28.83H61.894ZM61.894 30.12C61.894 31.0094 61.7442 31.5517 61.5808 31.8649C61.4405 32.1338 61.2637 32.2933 60.9868 32.4048L62.4812 36.1152C63.6443 35.6467 64.5475 34.8262 65.1272 33.7151C65.6838 32.6483 65.894 31.4106 65.894 30.12H61.894ZM59.734 34.26V34.32H63.734V34.26H59.734ZM61.1593 36.2357C61.4174 36.3131 61.502 36.4075 61.5783 36.5838L65.2497 34.9962C64.6859 33.6925 63.6506 32.8069 62.3087 32.4043L61.1593 36.2357ZM61.5966 36.625C61.77 37.0024 61.924 37.6719 61.924 38.76H65.924C65.924 37.3681 65.7379 36.0576 65.2313 34.955L61.5966 36.625ZM61.924 38.76V42.45H65.924V38.76H61.924ZM61.924 42.45C61.924 43.0854 61.9448 43.6523 61.995 44.1294L65.973 43.7106C65.9432 43.4277 65.924 43.0146 65.924 42.45H61.924ZM61.9962 44.1409C62.0608 44.7221 62.2202 45.2809 62.4564 45.8123L66.1116 44.1877C66.0278 43.9991 65.9872 43.8379 65.9718 43.6991L61.9962 44.1409ZM64.284 43H60.924V47H64.284V43ZM62.81 44.3344C62.7274 44.1006 62.6851 43.9159 62.6664 43.7757L58.7015 44.3043C58.7628 44.7641 58.8805 45.2194 59.038 45.6656L62.81 44.3344ZM62.6664 43.7757C62.6462 43.6237 62.624 43.207 62.624 42.42H58.624C58.624 43.193 58.6418 43.8563 58.7015 44.3043L62.6664 43.7757ZM62.624 42.42V38.58H58.624V42.42H62.624ZM62.624 38.58C62.624 37.5277 62.4748 36.233 61.6738 35.2817L58.6142 37.8583C58.5111 37.7359 58.5247 37.6797 58.5587 37.822C58.5913 37.9585 58.624 38.2002 58.624 38.58H62.624ZM61.7137 35.3307C60.86 34.2493 59.5745 34 58.554 34V38C58.662 38 58.7389 38.0068 58.7894 38.0143C58.84 38.0217 58.8561 38.0286 58.8466 38.0252C58.836 38.0214 58.7972 38.0061 58.7436 37.9693C58.6885 37.9314 58.6286 37.8781 58.5742 37.8093L61.7137 35.3307ZM58.554 34H57.414V38H58.554V34ZM55.414 36V45H59.414V36H55.414ZM57.414 43H54.114V47H57.414V43ZM56.114 45V24H52.114V45H56.114ZM58.614 35C59.5926 35 60.708 34.7451 61.5404 33.8607L58.6276 31.1193C58.6666 31.0778 58.708 31.0449 58.7465 31.0207C58.7842 30.9969 58.8116 30.9862 58.8209 30.983C58.8296 30.98 58.8194 30.9845 58.7846 30.9896C58.7497 30.9948 58.694 31 58.614 31V35ZM61.4982 33.9042C62.3968 33.0056 62.594 31.7773 62.594 30.78H58.594C58.594 31.0485 58.5643 31.1877 58.5499 31.2359C58.5376 31.277 58.5556 31.19 58.6698 31.0758L61.4982 33.9042ZM62.594 30.78V29.16H58.594V30.78H62.594ZM62.594 29.16C62.594 28.2412 62.4412 27.117 61.7178 26.2386L58.6301 28.7814C58.5372 28.6686 58.5332 28.6018 58.5508 28.6709C58.5686 28.7407 58.594 28.894 58.594 29.16H62.594ZM61.7627 26.2951C61.0001 25.2979 59.8793 25 58.914 25V29C59.0157 29 58.9985 29.0158 58.9136 28.9814C58.8689 28.9633 58.8111 28.9334 58.749 28.8869C58.6863 28.8399 58.6308 28.7844 58.5853 28.7249L61.7627 26.2951ZM58.914 25H57.414V29H58.914V25ZM55.414 27V33H59.414V27H55.414ZM57.414 35H58.614V31H57.414V35ZM73.385 27H75.385V25H73.385V27ZM69.935 27H67.935V29H69.935V27ZM69.935 24V22H67.935V24H69.935ZM80.135 24H82.135V22H80.135V24ZM80.135 27V29H82.135V27H80.135ZM76.685 27V25H74.685V27H76.685ZM76.685 45V47H78.685V45H76.685ZM73.385 45H71.385V47H73.385V45ZM73.385 25H69.935V29H73.385V25ZM71.935 27V24H67.935V27H71.935ZM69.935 26H80.135V22H69.935V26ZM78.135 24V27H82.135V24H78.135ZM80.135 25H76.685V29H80.135V25ZM74.685 27V45H78.685V27H74.685ZM76.685 43H73.385V47H76.685V43ZM75.385 45V27H71.385V45H75.385ZM21.23 60V58H19.23V60H21.23ZM29.78 61.32L28.3168 62.6834L28.3168 62.6835L29.78 61.32ZM29.78 71.13L28.3168 69.7665L28.3168 69.7665L29.78 71.13ZM24.53 72.45V70.45H22.53V72.45H24.53ZM24.53 81V83H26.53V81H24.53ZM21.23 81H19.23V83H21.23V81ZM27.29 69L25.8279 67.6354L25.8028 67.6623L25.7786 67.6901L27.29 69ZM27.29 63.45L25.7786 64.7599L25.8028 64.7877L25.8279 64.8146L27.29 63.45ZM24.53 63V61H22.53V63H24.53ZM24.53 69.45H22.53V71.45H24.53V69.45ZM21.23 62H26.09V58H21.23V62ZM26.09 62C27.3841 62 27.9973 62.3405 28.3168 62.6834L31.2432 59.9565C29.9227 58.5395 28.0759 58 26.09 58V62ZM28.3168 62.6835C28.6716 63.0642 29.01 63.7867 29.01 65.19H33.01C33.01 63.1933 32.5284 61.3358 31.2432 59.9565L28.3168 62.6835ZM29.01 65.19V67.26H33.01V65.19H29.01ZM29.01 67.26C29.01 68.6633 28.6716 69.3858 28.3168 69.7665L31.2432 72.4935C32.5284 71.1142 33.01 69.2567 33.01 67.26H29.01ZM28.3168 69.7665C27.9973 70.1095 27.3841 70.45 26.09 70.45V74.45C28.0759 74.45 29.9227 73.9105 31.2432 72.4935L28.3168 69.7665ZM26.09 70.45H24.53V74.45H26.09V70.45ZM22.53 72.45V81H26.53V72.45H22.53ZM24.53 79H21.23V83H24.53V79ZM23.23 81V60H19.23V81H23.23ZM26.09 71.45C26.9907 71.45 28.0382 71.1905 28.8014 70.3099L25.7786 67.6901C25.8836 67.569 26.0048 67.4978 26.0928 67.4648C26.1678 67.4367 26.1808 67.45 26.09 67.45V71.45ZM28.7521 70.3646C29.559 69.5001 29.71 68.3469 29.71 67.47H25.71C25.71 67.5863 25.7043 67.6767 25.6966 67.7444C25.6888 67.8125 25.6799 67.8501 25.6763 67.8631C25.668 67.8935 25.6926 67.7804 25.8279 67.6354L28.7521 70.3646ZM29.71 67.47V64.98H25.71V67.47H29.71ZM29.71 64.98C29.71 64.1031 29.559 62.9499 28.7521 62.0854L25.8279 64.8146C25.6926 64.6696 25.668 64.5565 25.6763 64.5869C25.6799 64.5999 25.6888 64.6375 25.6966 64.7056C25.7043 64.7733 25.71 64.8637 25.71 64.98H29.71ZM28.8014 62.1401C28.0382 61.2595 26.9907 61 26.09 61V65C26.1808 65 26.1678 65.0133 26.0928 64.9852C26.0048 64.9522 25.8836 64.881 25.7786 64.7599L28.8014 62.1401ZM26.09 61H24.53V65H26.09V61ZM22.53 63V69.45H26.53V63H22.53ZM24.53 71.45H26.09V67.45H24.53V71.45ZM38.5023 79.92L39.9633 78.5542L39.9633 78.5542L38.5023 79.92ZM38.5023 61.08L39.9633 62.4458L39.9633 62.4458L38.5023 61.08ZM45.9423 61.08L44.4812 62.4458L44.4812 62.4458L45.9423 61.08ZM45.9423 79.92L44.4812 78.5542L44.4812 78.5542L45.9423 79.92ZM42.2223 79.3C40.9884 79.3 40.3441 78.9616 39.9633 78.5542L37.0412 81.2858C38.3804 82.7184 40.2161 83.3 42.2223 83.3V79.3ZM39.9633 78.5542C39.5521 78.1143 39.2123 77.3661 39.2123 76.02H35.2123C35.2123 78.0339 35.7324 79.8857 37.0412 81.2858L39.9633 78.5542ZM39.2123 76.02V64.98H35.2123V76.02H39.2123ZM39.2123 64.98C39.2123 63.6339 39.5521 62.8857 39.9633 62.4458L37.0412 59.7142C35.7324 61.1143 35.2123 62.9661 35.2123 64.98H39.2123ZM39.9633 62.4458C40.3441 62.0384 40.9884 61.7 42.2223 61.7V57.7C40.2161 57.7 38.3804 58.2816 37.0412 59.7142L39.9633 62.4458ZM42.2223 61.7C43.4561 61.7 44.1004 62.0384 44.4812 62.4458L47.4033 59.7142C46.0641 58.2816 44.2284 57.7 42.2223 57.7V61.7ZM44.4812 62.4458C44.8924 62.8857 45.2323 63.6339 45.2323 64.98H49.2323C49.2323 62.9661 48.7121 61.1143 47.4033 59.7142L44.4812 62.4458ZM45.2323 64.98V76.02H49.2323V64.98H45.2323ZM45.2323 76.02C45.2323 77.3661 44.8924 78.1143 44.4812 78.5542L47.4033 81.2858C48.7121 79.8857 49.2323 78.0339 49.2323 76.02H45.2323ZM44.4812 78.5542C44.1004 78.9616 43.4561 79.3 42.2223 79.3V83.3C44.2284 83.3 46.0641 82.7184 47.4033 81.2858L44.4812 78.5542ZM42.2223 80.3C43.2119 80.3 44.2819 79.9821 45.0467 79.0563C45.7511 78.2036 45.9323 77.1452 45.9323 76.23H41.9323C41.9323 76.4439 41.9095 76.5599 41.8972 76.6047C41.8861 76.6447 41.8934 76.5928 41.9628 76.5087C41.997 76.4673 42.0396 76.4266 42.089 76.3907C42.1381 76.355 42.1846 76.331 42.222 76.3159C42.2951 76.2864 42.3095 76.3 42.2223 76.3V80.3ZM45.9323 76.23V64.77H41.9323V76.23H45.9323ZM45.9323 64.77C45.9323 63.8548 45.7511 62.7964 45.0467 61.9437C44.2819 61.0179 43.2119 60.7 42.2223 60.7V64.7C42.3095 64.7 42.2951 64.7136 42.222 64.6841C42.1846 64.669 42.1381 64.645 42.089 64.6093C42.0396 64.5734 41.997 64.5327 41.9628 64.4913C41.8934 64.4072 41.8861 64.3553 41.8972 64.3953C41.9095 64.4401 41.9323 64.5561 41.9323 64.77H45.9323ZM42.2223 60.7C41.2326 60.7 40.1627 61.0179 39.3978 61.9437C38.6935 62.7964 38.5123 63.8548 38.5123 64.77H42.5123C42.5123 64.5561 42.5351 64.4401 42.5474 64.3953C42.5584 64.3553 42.5511 64.4072 42.4817 64.4913C42.4475 64.5327 42.4049 64.5734 42.3556 64.6093C42.3064 64.645 42.26 64.669 42.2225 64.6841C42.1495 64.7136 42.135 64.7 42.2223 64.7V60.7ZM38.5123 64.77V76.23H42.5123V64.77H38.5123ZM38.5123 76.23C38.5123 77.1452 38.6935 78.2036 39.3978 79.0563C40.1627 79.9821 41.2326 80.3 42.2223 80.3V76.3C42.135 76.3 42.1495 76.2864 42.2225 76.3159C42.26 76.331 42.3064 76.355 42.3556 76.3907C42.4049 76.4266 42.4475 76.4673 42.4817 76.5087C42.5511 76.5928 42.5584 76.6447 42.5474 76.6047C42.5351 76.5599 42.5123 76.4439 42.5123 76.23H38.5123ZM56.5768 63H58.5768V61H56.5768V63ZM53.1268 63H51.1268V65H53.1268V63ZM53.1268 60V58H51.1268V60H53.1268ZM63.3268 60H65.3268V58H63.3268V60ZM63.3268 63V65H65.3268V63H63.3268ZM59.8768 63V61H57.8768V63H59.8768ZM59.8768 81V83H61.8768V81H59.8768ZM56.5768 81H54.5768V83H56.5768V81ZM56.5768 61H53.1268V65H56.5768V61ZM55.1268 63V60H51.1268V63H55.1268ZM53.1268 62H63.3268V58H53.1268V62ZM61.3268 60V63H65.3268V60H61.3268ZM63.3268 61H59.8768V65H63.3268V61ZM57.8768 63V81H61.8768V63H57.8768ZM59.8768 79H56.5768V83H59.8768V79ZM58.5768 81V63H54.5768V81H58.5768ZM70.2345 79.95L68.7415 81.2807L68.7488 81.2889L68.7561 81.297L70.2345 79.95ZM69.0045 74.82V72.82H67.0045V74.82H69.0045ZM72.1245 74.82H74.1245V72.82H72.1245V74.82ZM75.0945 77.82L73.5948 76.4967L73.5894 76.503L75.0945 77.82ZM74.9445 73.89L73.2207 74.904L73.2273 74.9154L73.2341 74.9266L74.9445 73.89ZM72.7245 71.46L71.4013 72.9597L71.4115 72.9686L72.7245 71.46ZM69.8745 68.22L68.1229 69.1852L68.1271 69.1929L68.1314 69.2005L69.8745 68.22ZM70.3245 61.08L71.7866 62.4446L71.7941 62.4366L71.8015 62.4285L70.3245 61.08ZM77.5545 61.08L76.0453 62.3924L76.0605 62.4098L76.0761 62.427L77.5545 61.08ZM78.7845 65.85V67.85H80.7845V65.85H78.7845ZM75.6645 65.85H73.6645V67.85H75.6645V65.85ZM75.2445 63.21L73.7007 64.4814L73.7197 64.5045L73.7394 64.527L75.2445 63.21ZM72.9645 66.84L71.2541 67.8766L71.2655 67.8953L71.2772 67.9137L72.9645 66.84ZM75.2145 69.24L73.9015 70.7486L73.9022 70.7492L75.2145 69.24ZM78.0645 72.51L76.2978 73.4474L76.2978 73.4474L78.0645 72.51ZM77.5545 79.92L76.0935 78.5542L76.0855 78.5628L76.0776 78.5715L77.5545 79.92ZM73.8645 79.3C72.6409 79.3 72.0444 78.9668 71.7129 78.603L68.7561 81.297C70.0647 82.7332 71.8881 83.3 73.8645 83.3V79.3ZM71.7276 78.6193C71.3401 78.1845 71.0045 77.4161 71.0045 76.02H67.0045C67.0045 78.0239 67.489 79.8755 68.7415 81.2807L71.7276 78.6193ZM71.0045 76.02V74.82H67.0045V76.02H71.0045ZM69.0045 76.82H72.1245V72.82H69.0045V76.82ZM70.1245 74.82V76.26H74.1245V74.82H70.1245ZM70.1245 76.26C70.1245 77.1707 70.308 78.2263 71.0193 79.0748C71.7872 79.9909 72.8545 80.3 73.8345 80.3V76.3C73.7442 76.3 73.7552 76.2861 73.8254 76.3141C73.8616 76.3284 73.9075 76.3516 73.9566 76.3868C74.006 76.4222 74.0494 76.463 74.0848 76.5052C74.1569 76.5913 74.1669 76.6475 74.1576 76.6143C74.1469 76.576 74.1245 76.4668 74.1245 76.26H70.1245ZM73.8345 80.3C74.7774 80.3 75.8286 80.0183 76.5997 79.137L73.5894 76.503C73.6294 76.4572 73.6763 76.4154 73.7272 76.3805C73.7777 76.3459 73.8234 76.324 73.8575 76.311C73.9232 76.286 73.9288 76.3 73.8345 76.3V80.3ZM76.5942 79.1432C77.3667 78.2677 77.5445 77.1386 77.5445 76.2H73.5445C73.5445 76.4432 73.519 76.5744 73.505 76.6247C73.4923 76.6705 73.503 76.6008 73.5949 76.4968L76.5942 79.1432ZM77.5445 76.2C77.5445 75.0068 77.2698 73.8679 76.6549 72.8534L73.2341 74.9266C73.4193 75.2321 73.5445 75.6332 73.5445 76.2H77.5445ZM76.6684 72.876C76.1039 71.9162 75.1704 70.9374 74.0376 69.9514L71.4115 72.9686C72.4386 73.8626 72.9852 74.5038 73.2207 74.904L76.6684 72.876ZM74.0478 69.9603C72.7618 68.8256 71.9997 67.9186 71.6177 67.2395L68.1314 69.2005C68.8294 70.4414 69.9673 71.6944 71.4013 72.9597L74.0478 69.9603ZM71.6262 67.2548C71.2636 66.5966 71.0645 65.8337 71.0645 64.92H67.0645C67.0645 66.4463 67.4055 67.8834 68.1229 69.1852L71.6262 67.2548ZM71.0645 64.92C71.0645 63.5869 71.398 62.861 71.7866 62.4446L68.8624 59.7154C67.5711 61.099 67.0645 62.9331 67.0645 64.92H71.0645ZM71.8015 62.4285C72.1615 62.0342 72.7768 61.7 73.9845 61.7V57.7C71.9922 57.7 70.1675 58.2858 68.8476 59.7315L71.8015 62.4285ZM73.9845 61.7C75.1685 61.7 75.7306 62.0305 76.0453 62.3924L79.0637 59.7676C77.7784 58.2895 75.9605 57.7 73.9845 57.7V61.7ZM76.0761 62.427C76.4476 62.8347 76.7845 63.5805 76.7845 64.98H80.7845C80.7845 62.9795 80.3014 61.1253 79.0329 59.733L76.0761 62.427ZM76.7845 64.98V65.85H80.7845V64.98H76.7845ZM78.7845 63.85H75.6645V67.85H78.7845V63.85ZM77.6645 65.85V64.77H73.6645V65.85H77.6645ZM77.6645 64.77C77.6645 63.875 77.5061 62.7575 76.7497 61.893L73.7394 64.527C73.6321 64.4045 73.6171 64.3184 73.6283 64.3599C73.6403 64.4044 73.6645 64.5306 73.6645 64.77H77.6645ZM76.7884 61.9386C76.0433 61.0338 75.0039 60.7 74.0145 60.7V64.7C74.0771 64.7 74.0453 64.7099 73.961 64.675C73.8659 64.6356 73.7705 64.5663 73.7007 64.4814L76.7884 61.9386ZM74.0145 60.7C73.0407 60.7 71.9846 61.0157 71.2312 61.9335C70.5398 62.7758 70.3645 63.8171 70.3645 64.71H74.3645C74.3645 64.5053 74.3862 64.3968 74.3967 64.3585C74.406 64.3247 74.3961 64.3823 74.3229 64.4715C74.2867 64.5156 74.2417 64.559 74.1892 64.5973C74.137 64.6355 74.0869 64.6617 74.0451 64.6787C73.9633 64.7119 73.9387 64.7 74.0145 64.7V60.7ZM70.3645 64.71C70.3645 65.8414 70.6678 66.9091 71.2541 67.8766L74.6749 65.8034C74.4613 65.4509 74.3645 65.0986 74.3645 64.71H70.3645ZM71.2772 67.9137C71.8529 68.8183 72.7755 69.7686 73.9015 70.7486L76.5276 67.7314C75.4936 66.8314 74.9162 66.1817 74.6519 65.7662L71.2772 67.9137ZM73.9022 70.7492C75.2012 71.8788 75.9436 72.7798 76.2978 73.4474L79.8312 71.5726C79.1455 70.2802 77.9878 69.0012 76.5269 67.7308L73.9022 70.7492ZM76.2978 73.4474C76.6381 74.0886 76.8445 74.905 76.8445 75.96H80.8445C80.8445 74.375 80.531 72.8914 79.8312 71.5726L76.2978 73.4474ZM76.8445 75.96C76.8445 77.3609 76.4972 78.1224 76.0935 78.5542L79.0156 81.2858C80.3319 79.8776 80.8445 77.9991 80.8445 75.96H76.8445ZM76.0776 78.5715C75.7221 78.9608 75.1011 79.3 73.8645 79.3V83.3C75.868 83.3 77.7069 82.7192 79.0315 81.2685L76.0776 78.5715Z" fill="#03839E" mask="url(#path-2-outside-1_29101_239)"/>
</svg>
