<svg width="452.733887" height="155.236572" viewBox="0 0 452.734 155.237" fill="none" xmlns="http://www.w3.org/2000/svg" xmlns:xlink="http://www.w3.org/1999/xlink">
	<desc>
			Created with Pixso.
	</desc>
	<defs/>
	<path id="Andy" d="M25.7955 0.762436L58.5142 0.762436L83.5472 154.474L59.3925 154.474L55.0007 123.951L55.0007 124.391L27.5522 124.391L23.1605 154.474L0.762498 154.474L25.7955 0.762436ZM52.1461 103.53L41.3863 27.5522L40.9471 27.5522L30.4069 103.53L52.1461 103.53ZM129.302 0.762436L159.605 0.762436L183.101 92.7698L183.54 92.7698L183.54 0.762436L205.06 0.762436L205.06 154.474L180.247 154.474L151.261 42.2646L150.822 42.2646L150.822 154.474L129.302 154.474L129.302 0.762436ZM257.049 0.762436L293.94 0.762436C305.944 0.762436 314.947 3.98306 320.949 10.4243C326.951 16.8656 329.952 26.3078 329.952 38.7512L329.952 116.485C329.952 128.929 326.951 138.371 320.949 144.812C314.947 151.253 305.944 154.474 293.94 154.474L257.049 154.474L257.049 0.762436ZM293.501 132.515C297.453 132.515 300.454 131.344 302.504 129.002C304.7 126.66 305.798 122.853 305.798 117.583L305.798 37.6532C305.798 32.3831 304.7 28.5769 302.504 26.2346C300.454 23.8924 297.453 22.7212 293.501 22.7212L281.204 22.7212L281.204 132.515L293.501 132.515ZM398.611 89.0368L369.406 0.762436L395.098 0.762436L411.567 57.1966L412.006 57.1966L428.475 0.762436L451.971 0.762436L422.766 89.0368L422.766 154.474L398.611 154.474L398.611 89.0368Z" stroke="#03839E" stroke-opacity="1.000000" stroke-width="0.762459"/>
</svg>
