<svg width="701.309937" height="163.928711" viewBox="0 0 701.31 163.929" fill="none" xmlns="http://www.w3.org/2000/svg" xmlns:xlink="http://www.w3.org/1999/xlink">
	<desc>
			Created with Pixso.
	</desc>
	<defs/>
	<path id="Martin" d="M0.8052 0.805161L37.2109 0.805161L53.4428 116.979L53.9065 116.979L70.1384 0.805161L106.544 0.805161L106.544 163.124L82.4282 163.124L82.4282 40.2254L81.9644 40.2254L63.4138 163.124L42.0805 163.124L23.5298 40.2254L23.066 40.2254L23.066 163.124L0.8052 163.124L0.8052 0.805161ZM181.231 0.805161L215.781 0.805161L242.216 163.124L216.709 163.124L212.071 130.892L212.071 131.356L183.086 131.356L178.448 163.124L154.796 163.124L181.231 0.805161ZM209.057 109.327L197.694 29.095L197.23 29.095L186.1 109.327L209.057 109.327ZM290.533 0.805161L328.33 0.805161C341.47 0.805161 351.054 3.89694 357.083 10.0805C363.112 16.1095 366.127 25.4621 366.127 38.1384L366.127 48.1094C366.127 64.9596 360.562 75.6263 349.431 80.1093L349.431 80.5731C355.615 82.4282 359.943 86.2156 362.417 91.9354C365.045 97.6552 366.359 105.307 366.359 114.892L366.359 143.414C366.359 148.051 366.513 151.839 366.823 154.776C367.132 157.558 367.905 160.341 369.141 163.124L343.17 163.124C342.243 160.496 341.625 158.022 341.315 155.703C341.006 153.385 340.852 149.211 340.852 143.182L340.852 113.501C340.852 106.08 339.615 100.902 337.141 97.9644C334.823 95.0272 330.726 93.5586 324.852 93.5586L316.04 93.5586L316.04 163.124L290.533 163.124L290.533 0.805161ZM325.315 70.3702C330.417 70.3702 334.204 69.0562 336.678 66.4282C339.306 63.8002 340.62 59.3944 340.62 53.2108L340.62 40.6891C340.62 34.8148 339.538 30.5636 337.373 27.9355C335.364 25.3075 332.117 23.9935 327.634 23.9935L316.04 23.9935L316.04 70.3702L325.315 70.3702ZM439.487 23.9935L412.821 23.9935L412.821 0.805161L491.661 0.805161L491.661 23.9935L464.994 23.9935L464.994 163.124L439.487 163.124L439.487 23.9935ZM539.953 0.805161L565.46 0.805161L565.46 163.124L539.953 163.124L539.953 0.805161ZM620.505 0.805161L652.505 0.805161L677.316 97.9644L677.78 97.9644L677.78 0.805161L700.505 0.805161L700.505 163.124L674.302 163.124L643.693 44.6312L643.229 44.6312L643.229 163.124L620.505 163.124L620.505 0.805161Z" stroke="#03839E" stroke-opacity="1.000000" stroke-width="0.805151"/>
</svg>
