<?xml version="1.0" encoding="iso-8859-1"?>
<!-- Generator: Adobe Illustrator 19.0.0, SVG Export Plug-In . SVG Version: 6.00 Build 0)  -->
<svg version="1.1" id="Capa_1" xmlns="http://www.w3.org/2000/svg" xmlns:xlink="http://www.w3.org/1999/xlink" x="0px" y="0px"
	 viewBox="0 0 64 64" style="enable-background:new 0 0 64 64;" xml:space="preserve">
<g>
	<path d="M54,19h-7V7c0-0.016-0.008-0.029-0.009-0.045c-0.005-0.111-0.024-0.22-0.065-0.324c-0.003-0.008-0.003-0.016-0.007-0.024
		c-0.038-0.088-0.088-0.172-0.151-0.247l-5-6C41.578,0.132,41.297,0,41,0H24c-0.265,0-0.52,0.105-0.707,0.293l-6,6
		c0,0-0.001,0.001-0.002,0.002c-0.083,0.083-0.144,0.182-0.192,0.285c-0.014,0.03-0.022,0.062-0.033,0.094
		c-0.03,0.086-0.048,0.173-0.054,0.264C17.011,6.96,17,6.978,17,7v12h-7c-0.552,0-1,0.448-1,1v39c0,2.757,2.243,5,5,5h36
		c2.757,0,5-2.243,5-5V20C55,19.448,54.552,19,54,19z M25,19V8h14v11H25z M41,8h4v11h-4V8z M24.414,2h16.118l3.333,4H40H24h-3.586
		L24.414,2z M19,8h4v11h-4V8z M53,59c0,1.654-1.346,3-3,3H14c-1.654,0-3-1.346-3-3V21h7h6h16h6h7V59z"/>
	<path d="M44,41H33v-3.026c1.478-0.09,4.199-0.516,6.077-2.393c2.629-2.629,2.423-6.943,2.413-7.126
		c-0.028-0.509-0.435-0.915-0.943-0.943c-0.184-0.009-4.497-0.216-7.126,2.413c-0.619,0.619-1.076,1.332-1.42,2.061
		c-0.344-0.729-0.801-1.442-1.42-2.061c-2.628-2.628-6.942-2.42-7.126-2.413c-0.509,0.028-0.915,0.435-0.943,0.943
		c-0.01,0.183-0.216,4.497,2.413,7.126c1.877,1.878,4.599,2.304,6.077,2.394V41H20c-0.552,0-1,0.448-1,1v5c0,0.552,0.448,1,1,1h2v4
		c0,3.86,3.14,7,7,7h6c3.86,0,7-3.14,7-7v-4h2c0.552,0,1-0.448,1-1v-5C45,41.448,44.552,41,44,41z M34.834,31.337
		c1.348-1.348,3.423-1.71,4.634-1.803c-0.09,1.208-0.45,3.276-1.806,4.631c-1.348,1.348-3.424,1.71-4.634,1.803
		C33.119,34.761,33.478,32.693,34.834,31.337z M26.337,34.166c-1.348-1.348-1.71-3.423-1.803-4.634
		c1.208,0.09,3.276,0.45,4.631,1.806c1.348,1.348,1.71,3.424,1.803,4.634C29.761,35.881,27.693,35.521,26.337,34.166z M40,52
		c0,2.757-2.243,5-5,5h-6c-2.757,0-5-2.243-5-5v-4h16V52z M43,46h-2H23h-2v-3h22V46z"/>
</g>
<g>
</g>
<g>
</g>
<g>
</g>
<g>
</g>
<g>
</g>
<g>
</g>
<g>
</g>
<g>
</g>
<g>
</g>
<g>
</g>
<g>
</g>
<g>
</g>
<g>
</g>
<g>
</g>
<g>
</g>
</svg>
