<svg width="20.000000" height="19.897705" viewBox="0 0 20 19.8977" fill="none" xmlns="http://www.w3.org/2000/svg" xmlns:xlink="http://www.w3.org/1999/xlink">
	<desc>
			Created with Pixso.
	</desc>
	<defs/>
	<path id="Vector" d="M10 0C4.47705 0 0 4.47729 0 10C0 15.0137 3.69336 19.1531 8.50537 19.8765L8.50537 12.6504L6.03125 12.6504L6.03125 10.0217L8.50537 10.0217L8.50537 8.27271C8.50537 5.37671 9.9165 4.10547 12.3232 4.10547C13.4761 4.10547 14.0854 4.19092 14.374 4.22998L14.374 6.52466L12.7324 6.52466C11.7104 6.52466 11.3535 7.49316 11.3535 8.58496L11.3535 10.0217L14.3481 10.0217L13.9419 12.6504L11.3535 12.6504L11.3535 19.8977C16.2344 19.2354 20 15.0623 20 10C20 4.47729 15.5229 0 10 0Z" fill="#000000" fill-opacity="1.000000" fill-rule="nonzero"/>
</svg>
