<svg width="21" height="20" viewBox="0 0 21 20" fill="none" xmlns="http://www.w3.org/2000/svg">
<path d="M10.022 -0.00341797C4.508 -0.00341797 0.0219727 4.4826 0.0219727 9.99658C0.0219727 15.5102 4.508 19.9966 10.022 19.9966C15.5355 19.9966 20.022 15.5102 20.022 9.99658C20.022 4.4826 15.5364 -0.00341797 10.022 -0.00341797ZM14.483 7.70785C14.4875 7.80694 14.4899 7.90684 14.4899 8.00673C14.4899 11.0483 12.1754 14.5543 7.94069 14.5543C6.64084 14.5543 5.43082 14.1745 4.41253 13.5211C4.59258 13.5425 4.77586 13.5533 4.96155 13.5533C6.04026 13.5533 7.03237 13.1852 7.82025 12.5681C6.81324 12.5496 5.96292 11.8841 5.67008 10.9694C5.81026 10.9959 5.95487 11.0108 6.10269 11.0108C6.31255 11.0108 6.51637 10.9835 6.70932 10.9307C5.65639 10.7196 4.86327 9.78954 4.86327 8.67377C4.86327 8.66411 4.86327 8.65404 4.86367 8.64477C5.17383 8.81677 5.5287 8.92069 5.90572 8.93237C5.28863 8.52031 4.8822 7.8154 4.8822 7.01704C4.8822 6.59491 4.99539 6.19935 5.19357 5.85939C6.32826 7.25228 8.02487 8.16826 9.93738 8.26493C9.89791 8.09616 9.87817 7.92094 9.87817 7.74008C9.87817 6.46923 10.9085 5.43846 12.1794 5.43846C12.8416 5.43846 13.439 5.718 13.8595 6.16511C14.3843 6.062 14.8758 5.87107 15.3217 5.60643C15.1485 6.14417 14.7847 6.59491 14.3082 6.88009C14.7742 6.8245 15.2189 6.70125 15.6302 6.51797C15.3233 6.97878 14.933 7.3844 14.483 7.70785Z" fill="black"/>
</svg>
