<svg width="148" height="27" viewBox="0 0 148 27" fill="none" xmlns="http://www.w3.org/2000/svg">
<path d="M0.737505 0.797069H6.56951C8.53751 0.797069 10.0135 1.32507 10.9975 2.38107C11.9815 3.43707 12.4735 4.98507 12.4735 7.02507V9.50907C12.4735 11.5491 11.9815 13.0971 10.9975 14.1531C10.0135 15.2091 8.53751 15.7371 6.56951 15.7371H4.69751V25.9971H0.737505V0.797069ZM6.56951 12.1371C7.21751 12.1371 7.69751 11.9571 8.00951 11.5971C8.34551 11.2371 8.51351 10.6251 8.51351 9.76107V6.77307C8.51351 5.90907 8.34551 5.29707 8.00951 4.93707C7.69751 4.57707 7.21751 4.39707 6.56951 4.39707H4.69751V12.1371H6.56951ZM25.9282 26.3571C23.9842 26.3571 22.4962 25.8051 21.4642 24.7011C20.4322 23.5971 19.9162 22.0371 19.9162 20.0211V6.77307C19.9162 4.75707 20.4322 3.19707 21.4642 2.09307C22.4962 0.989069 23.9842 0.437069 25.9282 0.437069C27.8722 0.437069 29.3602 0.989069 30.3922 2.09307C31.4242 3.19707 31.9402 4.75707 31.9402 6.77307V20.0211C31.9402 22.0371 31.4242 23.5971 30.3922 24.7011C29.3602 25.8051 27.8722 26.3571 25.9282 26.3571ZM25.9282 22.7571C27.2962 22.7571 27.9802 21.9291 27.9802 20.2731V6.52107C27.9802 4.86507 27.2962 4.03707 25.9282 4.03707C24.5602 4.03707 23.8762 4.86507 23.8762 6.52107V20.2731C23.8762 21.9291 24.5602 22.7571 25.9282 22.7571ZM43.1537 4.39707H39.0137V0.797069H51.2537V4.39707H47.1137V25.9971H43.1537V4.39707ZM58.7509 0.797069H64.6189C66.6589 0.797069 68.1469 1.27707 69.0829 2.23707C70.0189 3.17307 70.4869 4.62507 70.4869 6.59307V8.14107C70.4869 10.7571 69.6229 12.4131 67.8949 13.1091V13.1811C68.8549 13.4691 69.5269 14.0571 69.9109 14.9451C70.3189 15.8331 70.5229 17.0211 70.5229 18.5091V22.9371C70.5229 23.6571 70.5469 24.2451 70.5949 24.7011C70.6429 25.1331 70.7629 25.5651 70.9549 25.9971H66.9229C66.7789 25.5891 66.6829 25.2051 66.6349 24.8451C66.5869 24.4851 66.5629 23.8371 66.5629 22.9011V18.2931C66.5629 17.1411 66.3709 16.3371 65.9869 15.8811C65.6269 15.4251 64.9909 15.1971 64.0789 15.1971H62.7109V25.9971H58.7509V0.797069ZM64.1509 11.5971C64.9429 11.5971 65.5309 11.3931 65.9149 10.9851C66.3229 10.5771 66.5269 9.89307 66.5269 8.93307V6.98907C66.5269 6.07707 66.3589 5.41707 66.0229 5.00907C65.7109 4.60107 65.2069 4.39707 64.5109 4.39707H62.7109V11.5971H64.1509ZM78.8505 0.797069H84.6825C86.6505 0.797069 88.1265 1.32507 89.1105 2.38107C90.0945 3.43707 90.5865 4.98507 90.5865 7.02507V9.50907C90.5865 11.5491 90.0945 13.0971 89.1105 14.1531C88.1265 15.2091 86.6505 15.7371 84.6825 15.7371H82.8105V25.9971H78.8505V0.797069ZM84.6825 12.1371C85.3305 12.1371 85.8105 11.9571 86.1225 11.5971C86.4585 11.2371 86.6265 10.6251 86.6265 9.76107V6.77307C86.6265 5.90907 86.4585 5.29707 86.1225 4.93707C85.8105 4.57707 85.3305 4.39707 84.6825 4.39707H82.8105V12.1371H84.6825ZM104.041 26.3571C102.097 26.3571 100.609 25.8051 99.5772 24.7011C98.5452 23.5971 98.0292 22.0371 98.0292 20.0211V6.77307C98.0292 4.75707 98.5452 3.19707 99.5772 2.09307C100.609 0.989069 102.097 0.437069 104.041 0.437069C105.985 0.437069 107.473 0.989069 108.505 2.09307C109.537 3.19707 110.053 4.75707 110.053 6.77307V20.0211C110.053 22.0371 109.537 23.5971 108.505 24.7011C107.473 25.8051 105.985 26.3571 104.041 26.3571ZM104.041 22.7571C105.409 22.7571 106.093 21.9291 106.093 20.2731V6.52107C106.093 4.86507 105.409 4.03707 104.041 4.03707C102.673 4.03707 101.989 4.86507 101.989 6.52107V20.2731C101.989 21.9291 102.673 22.7571 104.041 22.7571ZM121.267 4.39707H117.127V0.797069H129.367V4.39707H125.227V25.9971H121.267V4.39707ZM142.012 26.3571C140.092 26.3571 138.64 25.8171 137.656 24.7371C136.672 23.6331 136.18 22.0611 136.18 20.0211V18.5811H139.924V20.3091C139.924 21.9411 140.608 22.7571 141.976 22.7571C142.648 22.7571 143.152 22.5651 143.488 22.1811C143.848 21.7731 144.028 21.1251 144.028 20.2371C144.028 19.1811 143.788 18.2571 143.308 17.4651C142.828 16.6491 141.94 15.6771 140.644 14.5491C139.012 13.1091 137.872 11.8131 137.224 10.6611C136.576 9.48507 136.252 8.16507 136.252 6.70107C136.252 4.70907 136.756 3.17307 137.764 2.09307C138.772 0.989069 140.236 0.437069 142.156 0.437069C144.052 0.437069 145.48 0.989069 146.44 2.09307C147.424 3.17307 147.916 4.73307 147.916 6.77307V7.81707H144.172V6.52107C144.172 5.65707 144.004 5.03307 143.668 4.64907C143.332 4.24107 142.84 4.03707 142.192 4.03707C140.872 4.03707 140.212 4.84107 140.212 6.44907C140.212 7.36107 140.452 8.21307 140.932 9.00507C141.436 9.79707 142.336 10.7571 143.632 11.8851C145.288 13.3251 146.428 14.6331 147.052 15.8091C147.676 16.9851 147.988 18.3651 147.988 19.9491C147.988 22.0131 147.472 23.5971 146.44 24.7011C145.432 25.8051 143.956 26.3571 142.012 26.3571Z" fill="black"/>
</svg>
