<svg width="20.000000" height="20.000000" viewBox="0 0 20 20" fill="none" xmlns="http://www.w3.org/2000/svg" xmlns:xlink="http://www.w3.org/1999/xlink">
	<desc>
			Created with Pixso.
	</desc>
	<defs/>
	<path id="Vector" d="M10 0C4.48584 0 0 4.48608 0 10C0 15.5137 4.48584 20 10 20C15.5137 20 20 15.5137 20 10C20 4.48608 15.5142 0 10 0ZM14.4609 7.71118C14.4653 7.8103 14.4678 7.91016 14.4678 8.01025C14.4678 11.0518 12.1533 14.5576 7.91895 14.5576C6.61865 14.5576 5.40869 14.178 4.39062 13.5244C4.5708 13.5459 4.75391 13.5566 4.93945 13.5566C6.01807 13.5566 7.01025 13.1885 7.79834 12.5715C6.7915 12.553 5.94092 11.8875 5.64795 10.9727C5.78809 10.9993 5.93311 11.0142 6.08057 11.0142C6.29053 11.0142 6.49463 10.9868 6.6875 10.9341C5.63428 10.7231 4.84131 9.79297 4.84131 8.67725C4.84131 8.66748 4.84131 8.65747 4.8418 8.64819C5.15186 8.82007 5.50684 8.92407 5.88379 8.93579C5.2666 8.52368 4.86035 7.81885 4.86035 7.02051C4.86035 6.59839 4.97363 6.20288 5.17139 5.86279C6.30615 7.25562 8.00293 8.17163 9.91553 8.26831C9.87598 8.09961 9.85596 7.92432 9.85596 7.74341C9.85596 6.47266 10.8867 5.44189 12.1572 5.44189C12.8198 5.44189 13.417 5.72144 13.8374 6.16846C14.3623 6.06543 14.854 5.87451 15.2998 5.60986C15.1265 6.14771 14.7627 6.59839 14.2861 6.88354C14.7524 6.82788 15.1968 6.70459 15.6084 6.52148C15.3013 6.98218 14.9111 7.38794 14.4609 7.71118Z" fill="#000000" fill-opacity="1.000000" fill-rule="nonzero"/>
</svg>
