<?xml version="1.0" encoding="utf-8"?>
<!-- Generator: Adobe Illustrator 24.2.3, SVG Export Plug-In . SVG Version: 6.00 Build 0)  -->
<svg version="1.1" id="Layer_1" xmlns="http://www.w3.org/2000/svg" xmlns:xlink="http://www.w3.org/1999/xlink" x="0px" y="0px"
	 viewBox="0 0 32 32" style="enable-background:new 0 0 32 32;" xml:space="preserve">
<style type="text/css">
	.st0{fill:#4D4D4D;}
</style>
<path class="st0" d="M29.5,28.7l-2-15.6c0-2-1.9-3.6-4.1-3.6h-0.8V6.7c0,0,0-0.1,0-0.1c0,0,0-0.1,0-0.1c0-0.1,0-0.1,0-0.2
	c0-0.1,0-0.2,0-0.2c-0.2-1-0.7-1.9-1.3-2.7c0,0,0,0,0,0c-2.3-2.8-6.4-3.3-9.3-1.1c-1.2,1-2.1,2.4-2.4,3.9c0,0,0,0,0,0c0,0,0,0,0,0
	c0,0,0,0.1,0,0.1c0,0,0,0.1,0,0.1v0v0l0,3.1H8.7c-2.2,0-4.1,1.6-4.1,3.6l-2,15.6c0,0,0,0.1,0,0.1c0,1.3,1.2,2.4,2.7,2.4h21.6
	c1.5,0,2.7-1.1,2.7-2.4C29.5,28.8,29.5,28.7,29.5,28.7L29.5,28.7z M11.4,6.5c0.2-1.1,0.8-2.1,1.7-2.8c2-1.6,5-1.3,6.6,0.8
	c0.5,0.6,0.8,1.3,0.9,2.1c0,0,0,0.1,0,0.1v2.9l-9.2,0L11.4,6.5z M26.8,29.3H5.2c-0.4,0-0.7-0.2-0.8-0.5l2-15.6c0,0,0-0.1,0-0.1
	c0-0.9,1-1.7,2.2-1.7h0.8l0,2.4C8.6,14.2,8,15,8,16.1c0,1.4,1.1,2.5,2.5,2.5s2.5-1.1,2.5-2.5c0-1-0.6-1.9-1.5-2.3l0-2.4h9.2v2.4
	c-0.9,0.4-1.5,1.3-1.5,2.3c0,1.4,1.1,2.5,2.5,2.5c1.4,0,2.5-1.1,2.5-2.5c0-1-0.6-1.9-1.5-2.3v-2.4h0.8c1.2,0,2.2,0.8,2.2,1.7
	c0,0,0,0.1,0,0.1l2,15.6C27.5,29.1,27.2,29.3,26.8,29.3L26.8,29.3z M10.4,15.5c0.3,0,0.6,0.3,0.6,0.6c0,0.3-0.3,0.6-0.6,0.6
	s-0.6-0.3-0.6-0.6C9.9,15.8,10.1,15.5,10.4,15.5z M21.6,15.5c0.3,0,0.6,0.3,0.6,0.6c0,0.3-0.3,0.6-0.6,0.6S21,16.4,21,16.1
	C21,15.8,21.2,15.5,21.6,15.5z"/>
</svg>
