<?xml version="1.0" encoding="utf-8"?>
<!-- Generator: Adobe Illustrator 24.2.3, SVG Export Plug-In . SVG Version: 6.00 Build 0)  -->
<svg version="1.1" id="Layer_2" xmlns="http://www.w3.org/2000/svg" xmlns:xlink="http://www.w3.org/1999/xlink" x="0px" y="0px"
	 viewBox="0 0 32 32" style="enable-background:new 0 0 32 32;" xml:space="preserve">
<style type="text/css">
	.st0{fill:#4D4D4D;}
</style>
<path class="st0" d="M29.6,28.8c0.2-2.7,1.7-15.7,1.7-15.7c0-2-1.9-3.6-4.1-3.6h-0.8V6.7V6.6V6.5c0-0.1,0-0.1,0-0.2
	c0-0.1,0-0.2,0-0.2c-0.2-1-0.7-1.9-1.3-2.7c-2-2.4-5.3-3.1-8.1-1.8c-2.2-1-4.8-0.8-6.9,0.7C8.9,3.3,8,4.7,7.7,6.2v0.1v0.1v3.1H6.8
	c-2.2,0-4.1,1.6-4.1,3.6L2.6,28.7v0.1c0,1.3,1.2,2.4,2.7,2.4h21.6C28.4,31.2,29.6,30.1,29.6,28.8z M26.5,11.4L26.5,11.4l0.8,0
	c0,0,0,0,0.1,0h0.1v0c1.1,0.1,2.1,0.8,2.1,1.7v0.1l-1.2,10.5c-1.2-4.6-2.7-10.6-2.7-10.6c-0.1-0.7-0.4-1.2-0.6-1.7H26.5z M18.8,2.8
	c1.7-0.3,3.5,0.2,4.6,1.7c0.5,0.6,0.8,1.3,0.9,2.1v0.1v2.9h-1.9l0,0c-0.3-0.1-0.6-0.1-1-0.1h-0.8V6.7V6.6V6.5c0-0.1,0-0.1,0-0.2
	c0-0.1,0-0.2,0-0.2c-0.2-1-0.7-1.9-1.3-2.7C19.2,3.2,19,3,18.8,2.8L18.8,2.8z M20.3,16.1c0,0.3-0.3,0.6-0.6,0.6
	c-0.3,0-0.6-0.3-0.6-0.6c0-0.3,0.2-0.6,0.6-0.6C20,15.5,20.3,15.8,20.3,16.1z M17.8,4.5c0.5,0.6,0.8,1.3,0.9,2.1v0.1v2.9h-3.6V6.5
	c0.2-1.1,0.8-2.1,1.7-2.8c0,0,0.1,0,0.1-0.1l0,0C17.3,3.9,17.6,4.2,17.8,4.5z M9.5,6.5c0.2-1.1,0.8-2.1,1.7-2.8
	c1.2-0.9,2.6-1.2,4-0.9l0,0c-0.9,0.9-1.6,2.1-1.9,3.4v0.1v0.1v3.1h-0.9c-0.3,0-0.6,0-0.9,0.1h-2V6.5z M8.5,15.5
	c0.3,0,0.6,0.3,0.6,0.6c0,0.3-0.3,0.6-0.6,0.6s-0.6-0.3-0.6-0.6C8,15.8,8.2,15.5,8.5,15.5z M26.8,29.3H5.2c-0.4,0-0.7-0.2-0.8-0.5
	l0.1-15.6v-0.1c0-0.9,1-1.7,2.2-1.7h0.8v2.4c-0.8,0.4-1.4,1.2-1.4,2.3c0,1.4,1.1,2.5,2.5,2.5c1.4,0,2.5-1.1,2.5-2.5
	c0-1-0.6-1.9-1.5-2.3v-2.4h9.2v2.4c-0.9,0.4-1.5,1.3-1.5,2.3c0,1.4,1.1,2.5,2.5,2.5s2.5-1.1,2.5-2.5c0-1-0.6-1.9-1.5-2.3v-2.4h0.8
	c1.2,0,2,0.6,2.2,1.7l3.9,15.7C27.5,29.1,27.2,29.3,26.8,29.3z"/>
</svg>
