<svg width="520.099609" height="43.900146" viewBox="0 0 520.1 43.9001" fill="none" xmlns="http://www.w3.org/2000/svg" xmlns:xlink="http://www.w3.org/1999/xlink">
	<desc>
			Created with Pixso.
	</desc>
	<defs/>
	<path id="POTR Pots Features" d="M1.07038 1.6501L10.4664 1.6501C13.637 1.6501 16.0151 2.50076 17.6004 4.2021C19.1857 5.90343 19.9784 8.39743 19.9784 11.6841L19.9784 15.6861C19.9784 18.9728 19.1857 21.4668 17.6004 23.1681C16.0151 24.8694 13.637 25.7201 10.4664 25.7201L7.45038 25.7201L7.45038 42.2501L1.07038 42.2501L1.07038 1.6501ZM10.4664 19.9201C11.5104 19.9201 12.2837 19.6301 12.7864 19.0501C13.3277 18.4701 13.5984 17.4841 13.5984 16.0921L13.5984 11.2781C13.5984 9.8861 13.3277 8.9001 12.7864 8.3201C12.2837 7.7401 11.5104 7.4501 10.4664 7.4501L7.45038 7.4501L7.45038 19.9201L10.4664 19.9201ZM41.6554 42.8301C38.5234 42.8301 36.1261 41.9408 34.4634 40.1621C32.8008 38.3834 31.9694 35.8701 31.9694 32.6221L31.9694 11.2781C31.9694 8.0301 32.8008 5.51676 34.4634 3.7381C36.1261 1.95943 38.5234 1.0701 41.6554 1.0701C44.7874 1.0701 47.1848 1.95943 48.8474 3.7381C50.5101 5.51676 51.3414 8.0301 51.3414 11.2781L51.3414 32.6221C51.3414 35.8701 50.5101 38.3834 48.8474 40.1621C47.1848 41.9408 44.7874 42.8301 41.6554 42.8301ZM41.6554 37.0301C43.8594 37.0301 44.9614 35.6961 44.9614 33.0281L44.9614 10.8721C44.9614 8.2041 43.8594 6.8701 41.6554 6.8701C39.4514 6.8701 38.3494 8.2041 38.3494 10.8721L38.3494 33.0281C38.3494 35.6961 39.4514 37.0301 41.6554 37.0301ZM69.4075 7.4501L62.7375 7.4501L62.7375 1.6501L82.4575 1.6501L82.4575 7.4501L75.7875 7.4501L75.7875 42.2501L69.4075 42.2501L69.4075 7.4501ZM94.5365 1.6501L103.99 1.6501C107.277 1.6501 109.674 2.42343 111.182 3.9701C112.69 5.4781 113.444 7.81743 113.444 10.9881L113.444 13.4821C113.444 17.6968 112.052 20.3648 109.268 21.4861L109.268 21.6021C110.815 22.0661 111.898 23.0134 112.516 24.4441C113.174 25.8748 113.502 27.7888 113.502 30.1861L113.502 37.3201C113.502 38.4801 113.541 39.4274 113.618 40.1621C113.696 40.8581 113.889 41.5541 114.198 42.2501L107.702 42.2501C107.47 41.5928 107.316 40.9741 107.238 40.3941C107.161 39.8141 107.122 38.7701 107.122 37.2621L107.122 29.8381C107.122 27.9821 106.813 26.6868 106.194 25.9521C105.614 25.2174 104.59 24.8501 103.12 24.8501L100.916 24.8501L100.916 42.2501L94.5365 42.2501L94.5365 1.6501ZM103.236 19.0501C104.512 19.0501 105.46 18.7214 106.078 18.0641C106.736 17.4068 107.064 16.3048 107.064 14.7581L107.064 11.6261C107.064 10.1568 106.794 9.09343 106.252 8.4361C105.75 7.77877 104.938 7.4501 103.816 7.4501L100.916 7.4501L100.916 19.0501L103.236 19.0501ZM145.198 1.6501L154.594 1.6501C157.765 1.6501 160.143 2.50076 161.728 4.2021C163.313 5.90343 164.106 8.39743 164.106 11.6841L164.106 15.6861C164.106 18.9728 163.313 21.4668 161.728 23.1681C160.143 24.8694 157.765 25.7201 154.594 25.7201L151.578 25.7201L151.578 42.2501L145.198 42.2501L145.198 1.6501ZM154.594 19.9201C155.638 19.9201 156.411 19.6301 156.914 19.0501C157.455 18.4701 157.726 17.4841 157.726 16.0921L157.726 11.2781C157.726 9.8861 157.455 8.9001 156.914 8.3201C156.411 7.7401 155.638 7.4501 154.594 7.4501L151.578 7.4501L151.578 19.9201L154.594 19.9201ZM185.783 42.8301C182.651 42.8301 180.254 41.9408 178.591 40.1621C176.928 38.3834 176.097 35.8701 176.097 32.6221L176.097 11.2781C176.097 8.0301 176.928 5.51676 178.591 3.7381C180.254 1.95943 182.651 1.0701 185.783 1.0701C188.915 1.0701 191.312 1.95943 192.975 3.7381C194.638 5.51676 195.469 8.0301 195.469 11.2781L195.469 32.6221C195.469 35.8701 194.638 38.3834 192.975 40.1621C191.312 41.9408 188.915 42.8301 185.783 42.8301ZM185.783 37.0301C187.987 37.0301 189.089 35.6961 189.089 33.0281L189.089 10.8721C189.089 8.2041 187.987 6.8701 185.783 6.8701C183.579 6.8701 182.477 8.2041 182.477 10.8721L182.477 33.0281C182.477 35.6961 183.579 37.0301 185.783 37.0301ZM213.535 7.4501L206.865 7.4501L206.865 1.6501L226.585 1.6501L226.585 7.4501L219.915 7.4501L219.915 42.2501L213.535 42.2501L213.535 7.4501ZM246.958 42.8301C243.865 42.8301 241.526 41.9601 239.94 40.2201C238.355 38.4414 237.562 35.9088 237.562 32.6221L237.562 30.3021L243.594 30.3021L243.594 33.0861C243.594 35.7154 244.696 37.0301 246.9 37.0301C247.983 37.0301 248.795 36.7208 249.336 36.1021C249.916 35.4448 250.206 34.4008 250.206 32.9701C250.206 31.2688 249.82 29.7801 249.046 28.5041C248.273 27.1894 246.842 25.6234 244.754 23.8061C242.125 21.4861 240.288 19.3981 239.244 17.5421C238.2 15.6474 237.678 13.5208 237.678 11.1621C237.678 7.95277 238.49 5.4781 240.114 3.7381C241.738 1.95943 244.097 1.0701 247.19 1.0701C250.245 1.0701 252.546 1.95943 254.092 3.7381C255.678 5.4781 256.47 7.99143 256.47 11.2781L256.47 12.9601L250.438 12.9601L250.438 10.8721C250.438 9.4801 250.168 8.47476 249.626 7.85609C249.085 7.19876 248.292 6.8701 247.248 6.8701C245.122 6.8701 244.058 8.16543 244.058 10.7561C244.058 12.2254 244.445 13.5981 245.218 14.8741C246.03 16.1501 247.48 17.6968 249.568 19.5141C252.236 21.8341 254.073 23.9414 255.078 25.8361C256.084 27.7308 256.586 29.9541 256.586 32.5061C256.586 35.8314 255.755 38.3834 254.092 40.1621C252.468 41.9408 250.09 42.8301 246.958 42.8301Z" fill="#03839E" fill-opacity="1.000000" fill-rule="evenodd"/>
	<path id="POTR Pots Features" d="M287.513 1.6501L304.391 1.6501L304.391 7.4501L293.893 7.4501L293.893 18.7601L302.129 18.7601L302.129 24.5601L293.893 24.5601L293.893 42.2501L287.513 42.2501L287.513 1.6501ZM316.441 1.6501L333.841 1.6501L333.841 7.4501L322.821 7.4501L322.821 18.1801L331.579 18.1801L331.579 23.9801L322.821 23.9801L322.821 36.4501L333.841 36.4501L333.841 42.2501L316.441 42.2501L316.441 1.6501ZM351.431 1.6501L360.073 1.6501L366.685 42.2501L360.305 42.2501L359.145 34.1881L359.145 34.3041L351.895 34.3041L350.735 42.2501L344.819 42.2501L351.431 1.6501ZM358.391 28.7941L355.549 8.7261L355.433 8.7261L352.649 28.7941L358.391 28.7941ZM381.096 7.4501L374.426 7.4501L374.426 1.6501L394.146 1.6501L394.146 7.4501L387.476 7.4501L387.476 42.2501L381.096 42.2501L381.096 7.4501ZM415.505 42.8301C412.412 42.8301 410.053 41.9601 408.429 40.2201C406.805 38.4414 405.993 35.9088 405.993 32.6221L405.993 1.6501L412.373 1.6501L412.373 33.0861C412.373 34.4781 412.644 35.4834 413.185 36.1021C413.765 36.7208 414.577 37.0301 415.621 37.0301C416.665 37.0301 417.458 36.7208 417.999 36.1021C418.579 35.4834 418.869 34.4781 418.869 33.0861L418.869 1.6501L425.017 1.6501L425.017 32.6221C425.017 35.9088 424.205 38.4414 422.581 40.2201C420.957 41.9601 418.599 42.8301 415.505 42.8301ZM438.551 1.6501L448.005 1.6501C451.292 1.6501 453.689 2.42343 455.197 3.9701C456.705 5.4781 457.459 7.81743 457.459 10.9881L457.459 13.4821C457.459 17.6968 456.067 20.3648 453.283 21.4861L453.283 21.6021C454.83 22.0661 455.913 23.0134 456.531 24.4441C457.189 25.8748 457.517 27.7888 457.517 30.1861L457.517 37.3201C457.517 38.4801 457.556 39.4274 457.633 40.1621C457.711 40.8581 457.904 41.5541 458.213 42.2501L451.717 42.2501C451.485 41.5928 451.331 40.9741 451.253 40.3941C451.176 39.8141 451.137 38.7701 451.137 37.2621L451.137 29.8381C451.137 27.9821 450.828 26.6868 450.209 25.9521C449.629 25.2174 448.605 24.8501 447.135 24.8501L444.931 24.8501L444.931 42.2501L438.551 42.2501L438.551 1.6501ZM447.251 19.0501C448.527 19.0501 449.475 18.7214 450.093 18.0641C450.751 17.4068 451.079 16.3048 451.079 14.7581L451.079 11.6261C451.079 10.1568 450.809 9.09343 450.267 8.4361C449.765 7.77877 448.953 7.4501 447.831 7.4501L444.931 7.4501L444.931 19.0501L447.251 19.0501ZM470.934 1.6501L488.334 1.6501L488.334 7.4501L477.314 7.4501L477.314 18.1801L486.072 18.1801L486.072 23.9801L477.314 23.9801L477.314 36.4501L488.334 36.4501L488.334 42.2501L470.934 42.2501L470.934 1.6501ZM509.401 42.8301C506.308 42.8301 503.969 41.9601 502.383 40.2201C500.798 38.4414 500.005 35.9088 500.005 32.6221L500.005 30.3021L506.037 30.3021L506.037 33.0861C506.037 35.7154 507.139 37.0301 509.343 37.0301C510.426 37.0301 511.238 36.7208 511.779 36.1021C512.359 35.4448 512.649 34.4008 512.649 32.9701C512.649 31.2688 512.263 29.7801 511.489 28.5041C510.716 27.1894 509.285 25.6234 507.197 23.8061C504.568 21.4861 502.731 19.3981 501.687 17.5421C500.643 15.6474 500.121 13.5208 500.121 11.1621C500.121 7.95277 500.933 5.4781 502.557 3.7381C504.181 1.95943 506.54 1.0701 509.633 1.0701C512.688 1.0701 514.989 1.95943 516.535 3.7381C518.121 5.4781 518.913 7.99143 518.913 11.2781L518.913 12.9601L512.881 12.9601L512.881 10.8721C512.881 9.4801 512.611 8.47476 512.069 7.85609C511.528 7.19876 510.735 6.8701 509.691 6.8701C507.565 6.8701 506.501 8.16543 506.501 10.7561C506.501 12.2254 506.888 13.5981 507.661 14.8741C508.473 16.1501 509.923 17.6968 512.011 19.5141C514.679 21.8341 516.516 23.9414 517.521 25.8361C518.527 27.7308 519.029 29.9541 519.029 32.5061C519.029 35.8314 518.198 38.3834 516.535 40.1621C514.911 41.9408 512.533 42.8301 509.401 42.8301ZM1.07038 1.6501L10.4664 1.6501C13.637 1.6501 16.0151 2.50076 17.6004 4.2021C19.1857 5.90343 19.9784 8.39743 19.9784 11.6841L19.9784 15.6861C19.9784 18.9728 19.1857 21.4668 17.6004 23.1681C16.0151 24.8694 13.637 25.7201 10.4664 25.7201L7.45038 25.7201L7.45038 42.2501L1.07038 42.2501L1.07038 1.6501ZM10.4664 19.9201C11.5104 19.9201 12.2837 19.6301 12.7864 19.0501C13.3277 18.4701 13.5984 17.4841 13.5984 16.0921L13.5984 11.2781C13.5984 9.8861 13.3277 8.9001 12.7864 8.3201C12.2837 7.7401 11.5104 7.4501 10.4664 7.4501L7.45038 7.4501L7.45038 19.9201L10.4664 19.9201ZM41.6554 42.8301C38.5234 42.8301 36.1261 41.9408 34.4634 40.1621C32.8008 38.3834 31.9694 35.8701 31.9694 32.6221L31.9694 11.2781C31.9694 8.0301 32.8008 5.51676 34.4634 3.7381C36.1261 1.95943 38.5234 1.0701 41.6554 1.0701C44.7874 1.0701 47.1848 1.95943 48.8474 3.7381C50.5101 5.51676 51.3414 8.0301 51.3414 11.2781L51.3414 32.6221C51.3414 35.8701 50.5101 38.3834 48.8474 40.1621C47.1848 41.9408 44.7874 42.8301 41.6554 42.8301ZM41.6554 37.0301C43.8594 37.0301 44.9614 35.6961 44.9614 33.0281L44.9614 10.8721C44.9614 8.2041 43.8594 6.8701 41.6554 6.8701C39.4514 6.8701 38.3494 8.2041 38.3494 10.8721L38.3494 33.0281C38.3494 35.6961 39.4514 37.0301 41.6554 37.0301ZM69.4075 7.4501L62.7375 7.4501L62.7375 1.6501L82.4575 1.6501L82.4575 7.4501L75.7875 7.4501L75.7875 42.2501L69.4075 42.2501L69.4075 7.4501ZM94.5365 1.6501L103.99 1.6501C107.277 1.6501 109.674 2.42343 111.182 3.9701C112.69 5.4781 113.444 7.81743 113.444 10.9881L113.444 13.4821C113.444 17.6968 112.052 20.3648 109.268 21.4861L109.268 21.6021C110.815 22.0661 111.898 23.0134 112.516 24.4441C113.174 25.8748 113.502 27.7888 113.502 30.1861L113.502 37.3201C113.502 38.4801 113.541 39.4274 113.618 40.1621C113.696 40.8581 113.889 41.5541 114.198 42.2501L107.702 42.2501C107.47 41.5928 107.316 40.9741 107.238 40.3941C107.161 39.8141 107.122 38.7701 107.122 37.2621L107.122 29.8381C107.122 27.9821 106.813 26.6868 106.194 25.9521C105.614 25.2174 104.59 24.8501 103.12 24.8501L100.916 24.8501L100.916 42.2501L94.5365 42.2501L94.5365 1.6501ZM103.236 19.0501C104.512 19.0501 105.46 18.7214 106.078 18.0641C106.736 17.4068 107.064 16.3048 107.064 14.7581L107.064 11.6261C107.064 10.1568 106.794 9.09343 106.252 8.4361C105.75 7.77877 104.938 7.4501 103.816 7.4501L100.916 7.4501L100.916 19.0501L103.236 19.0501ZM145.198 1.6501L154.594 1.6501C157.765 1.6501 160.143 2.50076 161.728 4.2021C163.313 5.90343 164.106 8.39743 164.106 11.6841L164.106 15.6861C164.106 18.9728 163.313 21.4668 161.728 23.1681C160.143 24.8694 157.765 25.7201 154.594 25.7201L151.578 25.7201L151.578 42.2501L145.198 42.2501L145.198 1.6501ZM154.594 19.9201C155.638 19.9201 156.411 19.6301 156.914 19.0501C157.455 18.4701 157.726 17.4841 157.726 16.0921L157.726 11.2781C157.726 9.8861 157.455 8.9001 156.914 8.3201C156.411 7.7401 155.638 7.4501 154.594 7.4501L151.578 7.4501L151.578 19.9201L154.594 19.9201ZM185.783 42.8301C182.651 42.8301 180.254 41.9408 178.591 40.1621C176.928 38.3834 176.097 35.8701 176.097 32.6221L176.097 11.2781C176.097 8.0301 176.928 5.51676 178.591 3.7381C180.254 1.95943 182.651 1.0701 185.783 1.0701C188.915 1.0701 191.312 1.95943 192.975 3.7381C194.638 5.51676 195.469 8.0301 195.469 11.2781L195.469 32.6221C195.469 35.8701 194.638 38.3834 192.975 40.1621C191.312 41.9408 188.915 42.8301 185.783 42.8301ZM185.783 37.0301C187.987 37.0301 189.089 35.6961 189.089 33.0281L189.089 10.8721C189.089 8.2041 187.987 6.8701 185.783 6.8701C183.579 6.8701 182.477 8.2041 182.477 10.8721L182.477 33.0281C182.477 35.6961 183.579 37.0301 185.783 37.0301ZM213.535 7.4501L206.865 7.4501L206.865 1.6501L226.585 1.6501L226.585 7.4501L219.915 7.4501L219.915 42.2501L213.535 42.2501L213.535 7.4501ZM246.958 42.8301C243.865 42.8301 241.526 41.9601 239.94 40.2201C238.355 38.4414 237.562 35.9088 237.562 32.6221L237.562 30.3021L243.594 30.3021L243.594 33.0861C243.594 35.7154 244.696 37.0301 246.9 37.0301C247.983 37.0301 248.795 36.7208 249.336 36.1021C249.916 35.4448 250.206 34.4008 250.206 32.9701C250.206 31.2688 249.82 29.7801 249.046 28.5041C248.273 27.1894 246.842 25.6234 244.754 23.8061C242.125 21.4861 240.288 19.3981 239.244 17.5421C238.2 15.6474 237.678 13.5208 237.678 11.1621C237.678 7.95277 238.49 5.4781 240.114 3.7381C241.738 1.95943 244.097 1.0701 247.19 1.0701C250.245 1.0701 252.546 1.95943 254.092 3.7381C255.678 5.4781 256.47 7.99143 256.47 11.2781L256.47 12.9601L250.438 12.9601L250.438 10.8721C250.438 9.4801 250.168 8.47476 249.626 7.85609C249.085 7.19876 248.292 6.8701 247.248 6.8701C245.122 6.8701 244.058 8.16543 244.058 10.7561C244.058 12.2254 244.445 13.5981 245.218 14.8741C246.03 16.1501 247.48 17.6968 249.568 19.5141C252.236 21.8341 254.073 23.9414 255.078 25.8361C256.084 27.7308 256.586 29.9541 256.586 32.5061C256.586 35.8314 255.755 38.3834 254.092 40.1621C252.468 41.9408 250.09 42.8301 246.958 42.8301Z" stroke="#03839E" stroke-opacity="1.000000" stroke-width="1.070149"/>
</svg>
