<svg width="518" height="42" viewBox="0 0 518 42" fill="none" xmlns="http://www.w3.org/2000/svg">
<path d="M0.32 0.470798V-0.599351H-0.750149V0.470798H0.32ZM0.32 41.0708H-0.750149V42.1409H0.32V41.0708ZM6.7 41.0708V42.1409H7.77015V41.0708H6.7ZM6.7 25.8168V24.7467H5.62985V25.8168H6.7ZM6.7 20.0168H5.62985V21.087H6.7V20.0168ZM6.7 6.2708V5.20065H5.62985V6.2708H6.7ZM9.716 -0.599351H0.32V1.54095H9.716V-0.599351ZM-0.750149 0.470798V41.0708H1.39015V0.470798H-0.750149ZM0.32 42.1409H6.7V40.0007H0.32V42.1409ZM7.77015 41.0708V25.8168H5.62985V41.0708H7.77015ZM6.7 26.8869H9.716V24.7467H6.7V26.8869ZM9.716 26.8869C13.1006 26.8869 15.804 25.9441 17.6475 23.9653C19.4783 22.0001 20.2982 19.1864 20.2982 15.7828H18.1579C18.1579 18.8752 17.4117 21.0785 16.0815 22.5063C14.764 23.9205 12.7114 24.7467 9.716 24.7467V26.8869ZM20.2982 15.7828V10.5048H18.1579V15.7828H20.2982ZM20.2982 10.5048C20.2982 7.10117 19.4783 4.28754 17.6475 2.32233C15.804 0.34352 13.1006 -0.599351 9.716 -0.599351V1.54095C12.7114 1.54095 14.764 2.36708 16.0815 3.78126C17.4117 5.20906 18.1579 7.41242 18.1579 10.5048H20.2982ZM9.716 7.34095C10.5872 7.34095 11.0049 7.54031 11.2439 7.80887C11.5127 8.1108 11.7779 8.7439 11.7779 10.0988H13.9181C13.9181 8.5537 13.6323 7.2728 12.8426 6.38573C12.0231 5.46529 10.8748 5.20065 9.716 5.20065V7.34095ZM11.7779 10.0988V16.1888H13.9181V10.0988H11.7779ZM11.7779 16.1888C11.7779 17.5437 11.5127 18.1768 11.2439 18.4787C11.0049 18.7473 10.5872 18.9467 9.716 18.9467V21.087C10.8748 21.087 12.0231 20.8223 12.8426 19.9019C13.6323 19.0148 13.9181 17.7339 13.9181 16.1888H11.7779ZM9.716 18.9467H6.7V21.087H9.716V18.9467ZM7.77015 20.0168V6.2708H5.62985V20.0168H7.77015ZM6.7 7.34095H9.716V5.20065H6.7V7.34095ZM38.3846 9.8088C38.3846 8.49169 38.6775 7.79732 39.0026 7.43519C39.3069 7.09624 39.7951 6.87695 40.6205 6.87695V4.73665C39.4159 4.73665 38.2511 5.06835 37.4099 6.00541C36.5895 6.91927 36.2443 8.2259 36.2443 9.8088H38.3846ZM40.6205 6.87695C41.4459 6.87695 41.9341 7.09624 42.2384 7.43519C42.5635 7.79732 42.8563 8.49169 42.8563 9.8088H44.9966C44.9966 8.2259 44.6515 6.91927 43.8311 6.00541C42.9899 5.06835 41.8251 4.73665 40.6205 4.73665V6.87695ZM42.8563 9.8088V31.7328H44.9966V9.8088H42.8563ZM42.8563 31.7328C42.8563 33.0499 42.5635 33.7443 42.2384 34.1064C41.9341 34.4454 41.4459 34.6646 40.6205 34.6646V36.805C41.8251 36.805 42.9899 36.4732 43.8311 35.5362C44.6515 34.6223 44.9966 33.3157 44.9966 31.7328H42.8563ZM40.6205 34.6646C39.7951 34.6646 39.3069 34.4454 39.0026 34.1064C38.6775 33.7443 38.3846 33.0499 38.3846 31.7328H36.2443C36.2443 33.3157 36.5895 34.6223 37.4099 35.5362C38.2511 36.4732 39.4159 36.805 40.6205 36.805V34.6646ZM38.3846 31.7328V9.8088H36.2443V31.7328H38.3846ZM29.8643 31.3268C29.8643 34.7534 30.7681 37.6026 32.6494 39.6004C34.5401 41.6082 37.2753 42.6049 40.6205 42.6049V40.4647C37.7017 40.4647 35.5939 39.6054 34.2076 38.1332C32.8119 36.651 32.0046 34.3962 32.0046 31.3268H29.8643ZM40.6205 42.6049C43.9657 42.6049 46.7009 41.6082 48.5916 39.6004C50.4729 37.6026 51.3766 34.7534 51.3766 31.3268H49.2363C49.2363 34.3962 48.4291 36.651 47.0334 38.1332C45.6471 39.6054 43.5393 40.4647 40.6205 40.4647V42.6049ZM51.3766 31.3268V10.2148H49.2363V31.3268H51.3766ZM51.3766 10.2148C51.3766 6.78823 50.4729 3.93899 48.5916 1.94115C46.7009 -0.0666459 43.9657 -1.06335 40.6205 -1.06335V1.07695C43.5393 1.07695 45.6471 1.93625 47.0334 3.40844C48.4291 4.89061 49.2363 7.14537 49.2363 10.2148H51.3766ZM40.6205 -1.06335C37.2753 -1.06335 34.5401 -0.0666459 32.6494 1.94115C30.7681 3.93899 29.8643 6.78823 29.8643 10.2148H32.0046C32.0046 7.14537 32.8119 4.89061 34.2076 3.40844C35.5939 1.93625 37.7017 1.07695 40.6205 1.07695V-1.06335ZM29.8643 10.2148V31.3268H32.0046V10.2148H29.8643ZM61.5866 6.2708H60.5164V7.34095H61.5866V6.2708ZM68.2566 6.2708H69.3267V5.20065H68.2566V6.2708ZM68.2566 41.0708H67.1864V42.1409H68.2566V41.0708ZM74.6366 41.0708V42.1409H75.7067V41.0708H74.6366ZM74.6366 6.2708V5.20065H73.5664V6.2708H74.6366ZM81.3066 6.2708V7.34095H82.3767V6.2708H81.3066ZM81.3066 0.470798H82.3767V-0.599351H81.3066V0.470798ZM61.5866 0.470798V-0.599351H60.5164V0.470798H61.5866ZM61.5866 7.34095H68.2566V5.20065H61.5866V7.34095ZM67.1864 6.2708V41.0708H69.3267V6.2708H67.1864ZM68.2566 42.1409H74.6366V40.0007H68.2566V42.1409ZM75.7067 41.0708V6.2708H73.5664V41.0708H75.7067ZM74.6366 7.34095H81.3066V5.20065H74.6366V7.34095ZM82.3767 6.2708V0.470798H80.2364V6.2708H82.3767ZM81.3066 -0.599351H61.5866V1.54095H81.3066V-0.599351ZM60.5164 0.470798V6.2708H62.6567V0.470798H60.5164ZM112.942 41.0708V42.1409H114.557L113.928 40.6538L112.942 41.0708ZM108.012 21.2348L107.558 20.2661L105.374 21.2913L107.6 22.2221L108.012 21.2348ZM93.1064 0.470798V-0.599351H92.0363V0.470798H93.1064ZM93.1064 41.0708H92.0363V42.1409H93.1064V41.0708ZM99.4864 41.0708V42.1409H100.557V41.0708H99.4864ZM99.4864 24.5408V23.4706H98.4163V24.5408H99.4864ZM106.446 41.0708L105.431 41.4092L105.675 42.1409H106.446V41.0708ZM99.4864 18.7408H98.4163V19.8109H99.4864V18.7408ZM99.4864 6.2708V5.20065H98.4163V6.2708H99.4864ZM113.928 40.6538C113.383 39.3658 113.317 38.1139 113.317 36.1408H111.176C111.176 38.1117 111.226 39.7598 111.957 41.4878L113.928 40.6538ZM113.317 36.1408V29.8768H111.176V36.1408H113.317ZM113.317 29.8768C113.317 25.5259 112.24 21.8427 108.425 20.2475L107.6 22.2221C110.165 23.2949 111.176 25.7597 111.176 29.8768H113.317ZM108.467 22.2035C111.826 20.6271 113.259 17.4073 113.259 12.9988H111.118C111.118 16.9423 109.883 19.1745 107.558 20.2661L108.467 22.2035ZM113.259 12.9988V9.8088H111.118V12.9988H113.259ZM113.259 9.8088C113.259 6.53745 112.519 3.87214 110.701 2.03765C108.882 0.20141 106.185 -0.599351 102.734 -0.599351V1.54095C105.896 1.54095 107.926 2.27719 109.181 3.54395C110.437 4.81246 111.118 6.81615 111.118 9.8088H113.259ZM102.734 -0.599351H93.1064V1.54095H102.734V-0.599351ZM92.0363 0.470798V41.0708H94.1766V0.470798H92.0363ZM93.1064 42.1409H99.4864V40.0007H93.1064V42.1409ZM100.557 41.0708V24.5408H98.4163V41.0708H100.557ZM99.4864 25.6109H101.69V23.4706H99.4864V25.6109ZM101.69 25.6109C102.985 25.6109 103.65 25.9196 104.043 26.3924C104.48 26.9172 104.796 27.891 104.796 29.7028H106.937C106.937 27.7446 106.615 26.1374 105.689 25.0237C104.719 23.858 103.296 23.4706 101.69 23.4706V25.6109ZM104.796 29.7028V36.0828H106.937V29.7028H104.796ZM104.796 36.0828C104.796 37.7517 104.854 38.7982 104.967 39.5779C105.083 40.3838 105.256 40.8829 105.431 41.4092L107.462 40.7324C107.289 40.2147 107.172 39.8728 107.085 39.2722C106.995 38.6454 106.937 37.7199 106.937 36.0828H104.796ZM106.446 42.1409H112.942V40.0007H106.446V42.1409ZM102.56 7.34095C103.486 7.34095 103.927 7.59215 104.187 7.92768C104.497 8.3263 104.738 9.07644 104.738 10.4468H106.879C106.879 8.91717 106.627 7.5793 105.878 6.61491C105.08 5.58745 103.897 5.20065 102.56 5.20065V7.34095ZM104.738 10.4468V14.4488H106.879V10.4468H104.738ZM104.738 14.4488C104.738 15.9401 104.402 16.6792 104.025 17.0602C103.653 17.4364 103.036 17.6707 101.98 17.6707V19.8109C103.302 19.8109 104.6 19.5232 105.547 18.5654C106.49 17.6124 106.879 16.2055 106.879 14.4488H104.738ZM101.98 17.6707H99.4864V19.8109H101.98V17.6707ZM100.557 18.7408V6.2708H98.4163V18.7408H100.557ZM99.4864 7.34095H102.56V5.20065H99.4864V7.34095ZM143.428 0.470798V-0.599351H142.358V0.470798H143.428ZM143.428 41.0708H142.358V42.1409H143.428V41.0708ZM149.808 41.0708V42.1409H150.878V41.0708H149.808ZM149.808 25.8168V24.7467H148.738V25.8168H149.808ZM149.808 20.0168H148.738V21.087H149.808V20.0168ZM149.808 6.2708V5.20065H148.738V6.2708H149.808ZM152.824 -0.599351H143.428V1.54095H152.824V-0.599351ZM142.358 0.470798V41.0708H144.498V0.470798H142.358ZM143.428 42.1409H149.808V40.0007H143.428V42.1409ZM150.878 41.0708V25.8168H148.738V41.0708H150.878ZM149.808 26.8869H152.824V24.7467H149.808V26.8869ZM152.824 26.8869C156.209 26.8869 158.912 25.9441 160.756 23.9653C162.587 22.0001 163.406 19.1864 163.406 15.7828H161.266C161.266 18.8752 160.52 21.0785 159.19 22.5063C157.872 23.9205 155.82 24.7467 152.824 24.7467V26.8869ZM163.406 15.7828V10.5048H161.266V15.7828H163.406ZM163.406 10.5048C163.406 7.10117 162.587 4.28754 160.756 2.32233C158.912 0.34352 156.209 -0.599351 152.824 -0.599351V1.54095C155.82 1.54095 157.872 2.36708 159.19 3.78126C160.52 5.20906 161.266 7.41242 161.266 10.5048H163.406ZM152.824 7.34095C153.695 7.34095 154.113 7.54031 154.352 7.80887C154.621 8.1108 154.886 8.7439 154.886 10.0988H157.026C157.026 8.5537 156.74 7.2728 155.951 6.38573C155.131 5.46529 153.983 5.20065 152.824 5.20065V7.34095ZM154.886 10.0988V16.1888H157.026V10.0988H154.886ZM154.886 16.1888C154.886 17.5437 154.621 18.1768 154.352 18.4787C154.113 18.7473 153.695 18.9467 152.824 18.9467V21.087C153.983 21.087 155.131 20.8223 155.951 19.9019C156.74 19.0148 157.026 17.7339 157.026 16.1888H154.886ZM152.824 18.9467H149.808V21.087H152.824V18.9467ZM150.878 20.0168V6.2708H148.738V20.0168H150.878ZM149.808 7.34095H152.824V5.20065H149.808V7.34095ZM181.493 9.8088C181.493 8.49169 181.786 7.79732 182.111 7.43519C182.415 7.09624 182.903 6.87695 183.729 6.87695V4.73665C182.524 4.73665 181.359 5.06835 180.518 6.00541C179.698 6.91927 179.353 8.2259 179.353 9.8088H181.493ZM183.729 6.87695C184.554 6.87695 185.042 7.09624 185.347 7.43519C185.672 7.79732 185.965 8.49169 185.965 9.8088H188.105C188.105 8.2259 187.76 6.91927 186.939 6.00541C186.098 5.06835 184.933 4.73665 183.729 4.73665V6.87695ZM185.965 9.8088V31.7328H188.105V9.8088H185.965ZM185.965 31.7328C185.965 33.0499 185.672 33.7443 185.347 34.1064C185.042 34.4454 184.554 34.6646 183.729 34.6646V36.805C184.933 36.805 186.098 36.4732 186.939 35.5362C187.76 34.6223 188.105 33.3157 188.105 31.7328H185.965ZM183.729 34.6646C182.903 34.6646 182.415 34.4454 182.111 34.1064C181.786 33.7443 181.493 33.0499 181.493 31.7328H179.353C179.353 33.3157 179.698 34.6223 180.518 35.5362C181.359 36.4732 182.524 36.805 183.729 36.805V34.6646ZM181.493 31.7328V9.8088H179.353V31.7328H181.493ZM172.973 31.3268C172.973 34.7534 173.876 37.6026 175.758 39.6004C177.648 41.6082 180.383 42.6049 183.729 42.6049V40.4647C180.81 40.4647 178.702 39.6054 177.316 38.1332C175.92 36.651 175.113 34.3962 175.113 31.3268H172.973ZM183.729 42.6049C187.074 42.6049 189.809 41.6082 191.7 39.6004C193.581 37.6026 194.485 34.7534 194.485 31.3268H192.345C192.345 34.3962 191.537 36.651 190.142 38.1332C188.755 39.6054 186.648 40.4647 183.729 40.4647V42.6049ZM194.485 31.3268V10.2148H192.345V31.3268H194.485ZM194.485 10.2148C194.485 6.78823 193.581 3.93899 191.7 1.94115C189.809 -0.0666459 187.074 -1.06335 183.729 -1.06335V1.07695C186.648 1.07695 188.755 1.93625 190.142 3.40844C191.537 4.89061 192.345 7.14537 192.345 10.2148H194.485ZM183.729 -1.06335C180.383 -1.06335 177.648 -0.0666459 175.758 1.94115C173.876 3.93899 172.973 6.78823 172.973 10.2148H175.113C175.113 7.14537 175.92 4.89061 177.316 3.40844C178.702 1.93625 180.81 1.07695 183.729 1.07695V-1.06335ZM172.973 10.2148V31.3268H175.113V10.2148H172.973ZM204.695 6.2708H203.625V7.34095H204.695V6.2708ZM211.365 6.2708H212.435V5.20065H211.365V6.2708ZM211.365 41.0708H210.295V42.1409H211.365V41.0708ZM217.745 41.0708V42.1409H218.815V41.0708H217.745ZM217.745 6.2708V5.20065H216.675V6.2708H217.745ZM224.415 6.2708V7.34095H225.485V6.2708H224.415ZM224.415 0.470798H225.485V-0.599351H224.415V0.470798ZM204.695 0.470798V-0.599351H203.625V0.470798H204.695ZM204.695 7.34095H211.365V5.20065H204.695V7.34095ZM210.295 6.2708V41.0708H212.435V6.2708H210.295ZM211.365 42.1409H217.745V40.0007H211.365V42.1409ZM218.815 41.0708V6.2708H216.675V41.0708H218.815ZM217.745 7.34095H224.415V5.20065H217.745V7.34095ZM225.485 6.2708V0.470798H223.345V6.2708H225.485ZM224.415 -0.599351H204.695V1.54095H224.415V-0.599351ZM203.625 0.470798V6.2708H205.765V0.470798H203.625ZM241.261 28.8328H242.331V27.7627H241.261V28.8328ZM235.229 28.8328V27.7627H234.158V28.8328H235.229ZM248.163 11.4908H247.092V12.5609H248.163V11.4908ZM254.195 11.4908V12.5609H255.265V11.4908H254.195ZM234.332 10.2148C234.332 16.4929 237.756 20.0571 240.911 22.9772C242.516 24.4631 243.98 25.7221 245.08 27.1355C246.147 28.5072 246.802 29.9462 246.802 31.7328H248.943C248.943 29.3434 248.04 27.4546 246.769 25.8212C245.53 24.2295 243.877 22.806 242.365 21.4064C239.284 18.5555 236.473 15.5367 236.473 10.2148H234.332ZM246.802 31.7328C246.802 33.0509 246.509 33.7238 246.193 34.0683C245.894 34.3934 245.407 34.6067 244.567 34.6067V36.7469C245.756 36.7469 246.922 36.4382 247.769 35.5163C248.598 34.6138 248.943 33.3147 248.943 31.7328H246.802ZM244.567 34.6067C243.726 34.6067 243.239 34.3934 242.94 34.0683C242.624 33.7238 242.331 33.0509 242.331 31.7328H240.19C240.19 33.3147 240.535 34.6138 241.364 35.5163C242.211 36.4382 243.377 36.7469 244.567 36.7469V34.6067ZM242.331 31.7328V28.8328H240.19V31.7328H242.331ZM241.261 27.7627H235.229V29.903H241.261V27.7627ZM234.158 28.8328V31.3268H236.299V28.8328H234.158ZM234.158 31.3268C234.158 34.7397 235.012 37.588 236.847 39.5899C238.696 41.6072 241.394 42.6049 244.741 42.6049V40.4647C241.823 40.4647 239.765 39.6064 238.424 38.1437C237.07 36.6656 236.299 34.4099 236.299 31.3268H234.158ZM244.741 42.6049C248.087 42.6049 250.785 41.6072 252.634 39.5899C254.47 37.588 255.323 34.7397 255.323 31.3268H253.182C253.182 34.4099 252.412 36.6656 251.057 38.1437C249.716 39.6064 247.658 40.4647 244.741 40.4647V42.6049ZM255.323 31.3268C255.323 25.0487 251.899 21.4845 248.745 18.5644C247.139 17.0785 245.675 15.8195 244.576 14.4061C243.508 13.0344 242.853 11.5954 242.853 9.8088H240.712C240.712 12.1982 241.616 14.087 242.886 15.7204C244.125 17.3121 245.779 18.7356 247.291 20.1352C250.371 22.9861 253.182 26.0049 253.182 31.3268H255.323ZM242.853 9.8088C242.853 8.46977 243.126 7.77217 243.431 7.41445C243.704 7.09431 244.149 6.87695 244.973 6.87695V4.73665C243.766 4.73665 242.617 5.07029 241.802 6.02614C241.019 6.94442 240.712 8.24782 240.712 9.8088H242.853ZM244.973 6.87695C245.796 6.87695 246.242 7.09431 246.514 7.41445C246.819 7.77217 247.092 8.46977 247.092 9.8088H249.233C249.233 8.24782 248.926 6.94442 248.143 6.02614C247.329 5.07029 246.179 4.73665 244.973 4.73665V6.87695ZM247.092 9.8088V11.4908H249.233V9.8088H247.092ZM248.163 12.5609H254.195V10.4206H248.163V12.5609ZM255.265 11.4908V10.2148H253.124V11.4908H255.265ZM255.265 10.2148C255.265 6.80637 254.428 3.95971 252.618 1.95708C250.791 -0.0635149 248.119 -1.06335 244.799 -1.06335V1.07695C247.684 1.07695 249.711 1.93311 251.03 3.39252C252.366 4.86989 253.124 7.12723 253.124 10.2148H255.265ZM244.799 -1.06335C241.478 -1.06335 238.807 -0.0635149 236.98 1.95708C235.169 3.95971 234.332 6.80637 234.332 10.2148H236.473C236.473 7.12723 237.231 4.86989 238.567 3.39252C239.887 1.93311 241.913 1.07695 244.799 1.07695V-1.06335ZM291.274 6.2708V5.20065H290.204V6.2708H291.274ZM301.772 6.2708V7.34095H302.842V6.2708H301.772ZM301.772 0.470798H302.842V-0.599351H301.772V0.470798ZM284.894 0.470798V-0.599351H283.824V0.470798H284.894ZM284.894 41.0708H283.824V42.1409H284.894V41.0708ZM291.274 41.0708V42.1409H292.344V41.0708H291.274ZM291.274 24.3088V23.2387H290.204V24.3088H291.274ZM299.51 24.3088V25.379H300.58V24.3088H299.51ZM299.51 18.5088H300.58V17.4387H299.51V18.5088ZM291.274 18.5088H290.204V19.5789H291.274V18.5088ZM291.274 7.34095H301.772V5.20065H291.274V7.34095ZM302.842 6.2708V0.470798H300.702V6.2708H302.842ZM301.772 -0.599351H284.894V1.54095H301.772V-0.599351ZM283.824 0.470798V41.0708H285.964V0.470798H283.824ZM284.894 42.1409H291.274V40.0007H284.894V42.1409ZM292.344 41.0708V24.3088H290.204V41.0708H292.344ZM291.274 25.379H299.51V23.2387H291.274V25.379ZM300.58 24.3088V18.5088H298.44V24.3088H300.58ZM299.51 17.4387H291.274V19.5789H299.51V17.4387ZM292.344 18.5088V6.2708H290.204V18.5088H292.344ZM320.201 6.2708V5.20065H319.131V6.2708H320.201ZM331.221 6.2708V7.34095H332.291V6.2708H331.221ZM331.221 0.470798H332.291V-0.599351H331.221V0.470798ZM313.821 0.470798V-0.599351H312.751V0.470798H313.821ZM313.821 41.0708H312.751V42.1409H313.821V41.0708ZM331.221 41.0708V42.1409H332.291V41.0708H331.221ZM331.221 35.2708H332.291V34.2007H331.221V35.2708ZM320.201 35.2708H319.131V36.341H320.201V35.2708ZM320.201 23.3808V22.3107H319.131V23.3808H320.201ZM328.959 23.3808V24.451H330.029V23.3808H328.959ZM328.959 17.5808H330.029V16.5107H328.959V17.5808ZM320.201 17.5808H319.131V18.6509H320.201V17.5808ZM320.201 7.34095H331.221V5.20065H320.201V7.34095ZM332.291 6.2708V0.470798H330.151V6.2708H332.291ZM331.221 -0.599351H313.821V1.54095H331.221V-0.599351ZM312.751 0.470798V41.0708H314.891V0.470798H312.751ZM313.821 42.1409H331.221V40.0007H313.821V42.1409ZM332.291 41.0708V35.2708H330.151V41.0708H332.291ZM331.221 34.2007H320.201V36.341H331.221V34.2007ZM321.271 35.2708V23.3808H319.131V35.2708H321.271ZM320.201 24.451H328.959V22.3107H320.201V24.451ZM330.029 23.3808V17.5808H327.889V23.3808H330.029ZM328.959 16.5107H320.201V18.6509H328.959V16.5107ZM321.271 17.5808V6.2708H319.131V17.5808H321.271ZM358.317 0.470798L359.374 0.301725L359.229 -0.599351H358.317V0.470798ZM348.979 0.470798V-0.599351H348.066L347.922 0.301725L348.979 0.470798ZM342.483 41.0708L341.426 40.9017L341.228 42.1409H342.483V41.0708ZM348.341 41.0708V42.1409H349.263L349.399 41.2291L348.341 41.0708ZM349.443 33.7048V32.6347H348.521L348.384 33.5465L349.443 33.7048ZM357.273 33.7048L358.331 33.5465L358.195 32.6347H357.273V33.7048ZM358.375 41.0708L357.316 41.2291L357.453 42.1409H358.375V41.0708ZM364.813 41.0708V42.1409H366.068L365.87 40.9017L364.813 41.0708ZM353.329 7.6628L354.387 7.50434H352.271L353.329 7.6628ZM356.403 28.1948V29.2649H357.645L357.461 28.0363L356.403 28.1948ZM350.255 28.1948L349.197 28.0363L349.013 29.2649H350.255V28.1948ZM358.317 -0.599351H348.979V1.54095H358.317V-0.599351ZM347.922 0.301725L341.426 40.9017L343.54 41.2399L350.036 0.639871L347.922 0.301725ZM342.483 42.1409H348.341V40.0007H342.483V42.1409ZM349.399 41.2291L350.501 33.8631L348.384 33.5465L347.282 40.9125L349.399 41.2291ZM349.443 34.7749H357.273V32.6347H349.443V34.7749ZM356.214 33.8631L357.316 41.2291L359.433 40.9125L358.331 33.5465L356.214 33.8631ZM358.375 42.1409H364.813V40.0007H358.375V42.1409ZM365.87 40.9017L359.374 0.301725L357.26 0.639871L363.756 41.2399L365.87 40.9017ZM352.271 7.82125L355.344 28.3533L357.461 28.0363L354.387 7.50434L352.271 7.82125ZM356.403 27.1247H350.255V29.2649H356.403V27.1247ZM351.313 28.3533L354.387 7.82125L352.271 7.50434L349.197 28.0363L351.313 28.3533ZM372.709 6.2708H371.639V7.34095H372.709V6.2708ZM379.379 6.2708H380.449V5.20065H379.379V6.2708ZM379.379 41.0708H378.309V42.1409H379.379V41.0708ZM385.759 41.0708V42.1409H386.829V41.0708H385.759ZM385.759 6.2708V5.20065H384.689V6.2708H385.759ZM392.429 6.2708V7.34095H393.499V6.2708H392.429ZM392.429 0.470798H393.499V-0.599351H392.429V0.470798ZM372.709 0.470798V-0.599351H371.639V0.470798H372.709ZM372.709 7.34095H379.379V5.20065H372.709V7.34095ZM378.309 6.2708V41.0708H380.449V6.2708H378.309ZM379.379 42.1409H385.759V40.0007H379.379V42.1409ZM386.829 41.0708V6.2708H384.689V41.0708H386.829ZM385.759 7.34095H392.429V5.20065H385.759V7.34095ZM393.499 6.2708V0.470798H391.359V6.2708H393.499ZM392.429 -0.599351H372.709V1.54095H392.429V-0.599351ZM371.639 0.470798V6.2708H373.779V0.470798H371.639ZM403.939 0.470798V-0.599351H402.869V0.470798H403.939ZM422.963 0.470798H424.033V-0.599351H422.963V0.470798ZM416.931 0.470798V-0.599351H415.861V0.470798H416.931ZM410.319 0.470798H411.389V-0.599351H410.319V0.470798ZM402.869 0.470798V31.3848H405.009V0.470798H402.869ZM402.869 31.3848C402.869 34.7977 403.722 37.646 405.557 39.6479C407.406 41.6652 410.105 42.6629 413.451 42.6629V40.5227C410.533 40.5227 408.475 39.6644 407.135 38.2017C405.78 36.7236 405.009 34.4679 405.009 31.3848H402.869ZM413.451 42.6629C416.797 42.6629 419.495 41.6652 421.345 39.6479C423.18 37.646 424.033 34.7977 424.033 31.3848H421.893C421.893 34.4679 421.122 36.7236 419.767 38.2017C418.426 39.6644 416.369 40.5227 413.451 40.5227V42.6629ZM424.033 31.3848V0.470798H421.893V31.3848H424.033ZM422.963 -0.599351H416.931V1.54095H422.963V-0.599351ZM415.861 0.470798V31.7908H418.001V0.470798H415.861ZM415.861 31.7908C415.861 33.1089 415.567 33.7818 415.251 34.1263C414.952 34.4514 414.465 34.6646 413.625 34.6646V36.805C414.814 36.805 415.98 36.4962 416.827 35.5743C417.656 34.6718 418.001 33.3727 418.001 31.7908H415.861ZM413.625 34.6646C412.784 34.6646 412.297 34.4514 411.999 34.1263C411.682 33.7818 411.389 33.1089 411.389 31.7908H409.249C409.249 33.3727 409.593 34.6718 410.422 35.5743C411.269 36.4962 412.435 36.805 413.625 36.805V34.6646ZM411.389 31.7908V0.470798H409.249V31.7908H411.389ZM410.319 -0.599351H403.939V1.54095H410.319V-0.599351ZM456.164 41.0708V42.1409H457.779L457.15 40.6538L456.164 41.0708ZM451.234 21.2348L450.78 20.2661L448.595 21.2913L450.821 22.2221L451.234 21.2348ZM436.328 0.470798V-0.599351H435.258V0.470798H436.328ZM436.328 41.0708H435.258V42.1409H436.328V41.0708ZM442.708 41.0708V42.1409H443.778V41.0708H442.708ZM442.708 24.5408V23.4706H441.638V24.5408H442.708ZM449.668 41.0708L448.653 41.4092L448.897 42.1409H449.668V41.0708ZM442.708 18.7408H441.638V19.8109H442.708V18.7408ZM442.708 6.2708V5.20065H441.638V6.2708H442.708ZM457.15 40.6538C456.605 39.3658 456.538 38.1139 456.538 36.1408H454.398C454.398 38.1117 454.448 39.7598 455.179 41.4878L457.15 40.6538ZM456.538 36.1408V29.8768H454.398V36.1408H456.538ZM456.538 29.8768C456.538 25.5259 455.462 21.8427 451.647 20.2475L450.821 22.2221C453.387 23.2949 454.398 25.7597 454.398 29.8768H456.538ZM451.689 22.2035C455.048 20.6271 456.48 17.4073 456.48 12.9988H454.34C454.34 16.9423 453.105 19.1745 450.78 20.2661L451.689 22.2035ZM456.48 12.9988V9.8088H454.34V12.9988H456.48ZM456.48 9.8088C456.48 6.53745 455.74 3.87214 453.923 2.03765C452.104 0.20141 449.407 -0.599351 445.956 -0.599351V1.54095C449.117 1.54095 451.148 2.27719 452.402 3.54395C453.659 4.81246 454.34 6.81615 454.34 9.8088H456.48ZM445.956 -0.599351H436.328V1.54095H445.956V-0.599351ZM435.258 0.470798V41.0708H437.398V0.470798H435.258ZM436.328 42.1409H442.708V40.0007H436.328V42.1409ZM443.778 41.0708V24.5408H441.638V41.0708H443.778ZM442.708 25.6109H444.912V23.4706H442.708V25.6109ZM444.912 25.6109C446.206 25.6109 446.872 25.9196 447.265 26.3924C447.702 26.9172 448.018 27.891 448.018 29.7028H450.158C450.158 27.7446 449.837 26.1374 448.91 25.0237C447.941 23.858 446.518 23.4706 444.912 23.4706V25.6109ZM448.018 29.7028V36.0828H450.158V29.7028H448.018ZM448.018 36.0828C448.018 37.7517 448.076 38.7982 448.189 39.5779C448.305 40.3838 448.478 40.8829 448.653 41.4092L450.683 40.7324C450.511 40.2147 450.394 39.8728 450.307 39.2722C450.216 38.6454 450.158 37.7199 450.158 36.0828H448.018ZM449.668 42.1409H456.164V40.0007H449.668V42.1409ZM445.782 7.34095C446.708 7.34095 447.149 7.59215 447.409 7.92768C447.719 8.3263 447.96 9.07644 447.96 10.4468H450.1C450.1 8.91717 449.849 7.5793 449.1 6.61491C448.302 5.58745 447.119 5.20065 445.782 5.20065V7.34095ZM447.96 10.4468V14.4488H450.1V10.4468H447.96ZM447.96 14.4488C447.96 15.9401 447.624 16.6792 447.247 17.0602C446.875 17.4364 446.258 17.6707 445.202 17.6707V19.8109C446.524 19.8109 447.821 19.5232 448.769 18.5654C449.711 17.6124 450.1 16.2055 450.1 14.4488H447.96ZM445.202 17.6707H442.708V19.8109H445.202V17.6707ZM443.778 18.7408V6.2708H441.638V18.7408H443.778ZM442.708 7.34095H445.782V5.20065H442.708V7.34095ZM475.034 6.2708V5.20065H473.964V6.2708H475.034ZM486.054 6.2708V7.34095H487.124V6.2708H486.054ZM486.054 0.470798H487.124V-0.599351H486.054V0.470798ZM468.654 0.470798V-0.599351H467.584V0.470798H468.654ZM468.654 41.0708H467.584V42.1409H468.654V41.0708ZM486.054 41.0708V42.1409H487.124V41.0708H486.054ZM486.054 35.2708H487.124V34.2007H486.054V35.2708ZM475.034 35.2708H473.964V36.341H475.034V35.2708ZM475.034 23.3808V22.3107H473.964V23.3808H475.034ZM483.792 23.3808V24.451H484.862V23.3808H483.792ZM483.792 17.5808H484.862V16.5107H483.792V17.5808ZM475.034 17.5808H473.964V18.6509H475.034V17.5808ZM475.034 7.34095H486.054V5.20065H475.034V7.34095ZM487.124 6.2708V0.470798H484.984V6.2708H487.124ZM486.054 -0.599351H468.654V1.54095H486.054V-0.599351ZM467.584 0.470798V41.0708H469.724V0.470798H467.584ZM468.654 42.1409H486.054V40.0007H468.654V42.1409ZM487.124 41.0708V35.2708H484.984V41.0708H487.124ZM486.054 34.2007H475.034V36.341H486.054V34.2007ZM476.104 35.2708V23.3808H473.964V35.2708H476.104ZM475.034 24.451H483.792V22.3107H475.034V24.451ZM484.862 23.3808V17.5808H482.722V23.3808H484.862ZM483.792 16.5107H475.034V18.6509H483.792V16.5107ZM476.104 17.5808V6.2708H473.964V17.5808H476.104ZM504.044 28.8328H505.114V27.7627H504.044V28.8328ZM498.012 28.8328V27.7627H496.941V28.8328H498.012ZM510.946 11.4908H509.875V12.5609H510.946V11.4908ZM516.978 11.4908V12.5609H518.048V11.4908H516.978ZM497.115 10.2148C497.115 16.4929 500.539 20.0571 503.694 22.9772C505.299 24.4631 506.763 25.7221 507.863 27.1355C508.93 28.5072 509.585 29.9462 509.585 31.7328H511.726C511.726 29.3434 510.823 27.4546 509.552 25.8212C508.313 24.2295 506.66 22.806 505.148 21.4064C502.067 18.5555 499.256 15.5367 499.256 10.2148H497.115ZM509.585 31.7328C509.585 33.0509 509.292 33.7238 508.976 34.0683C508.677 34.3934 508.19 34.6067 507.35 34.6067V36.7469C508.539 36.7469 509.705 36.4382 510.552 35.5163C511.381 34.6138 511.726 33.3147 511.726 31.7328H509.585ZM507.35 34.6067C506.509 34.6067 506.022 34.3934 505.724 34.0683C505.407 33.7238 505.114 33.0509 505.114 31.7328H502.973C502.973 33.3147 503.318 34.6138 504.147 35.5163C504.994 36.4382 506.16 36.7469 507.35 36.7469V34.6067ZM505.114 31.7328V28.8328H502.973V31.7328H505.114ZM504.044 27.7627H498.012V29.903H504.044V27.7627ZM496.941 28.8328V31.3268H499.082V28.8328H496.941ZM496.941 31.3268C496.941 34.7397 497.795 37.588 499.63 39.5899C501.479 41.6072 504.177 42.6049 507.524 42.6049V40.4647C504.606 40.4647 502.548 39.6064 501.208 38.1437C499.853 36.6656 499.082 34.4099 499.082 31.3268H496.941ZM507.524 42.6049C510.87 42.6049 513.568 41.6072 515.417 39.5899C517.253 37.588 518.106 34.7397 518.106 31.3268H515.966C515.966 34.4099 515.195 36.6656 513.84 38.1437C512.499 39.6064 510.441 40.4647 507.524 40.4647V42.6049ZM518.106 31.3268C518.106 25.0487 514.682 21.4845 511.528 18.5644C509.922 17.0785 508.458 15.8195 507.359 14.4061C506.291 13.0344 505.636 11.5954 505.636 9.8088H503.495C503.495 12.1982 504.399 14.087 505.669 15.7204C506.908 17.3121 508.562 18.7356 510.074 20.1352C513.154 22.9861 515.966 26.0049 515.966 31.3268H518.106ZM505.636 9.8088C505.636 8.46977 505.909 7.77217 506.214 7.41445C506.487 7.09431 506.932 6.87695 507.756 6.87695V4.73665C506.549 4.73665 505.4 5.07029 504.585 6.02614C503.802 6.94442 503.495 8.24782 503.495 9.8088H505.636ZM507.756 6.87695C508.579 6.87695 509.025 7.09431 509.297 7.41445C509.602 7.77217 509.875 8.46977 509.875 9.8088H512.016C512.016 8.24782 511.709 6.94442 510.926 6.02614C510.112 5.07029 508.962 4.73665 507.756 4.73665V6.87695ZM509.875 9.8088V11.4908H512.016V9.8088H509.875ZM510.946 12.5609H516.978V10.4206H510.946V12.5609ZM518.048 11.4908V10.2148H515.907V11.4908H518.048ZM518.048 10.2148C518.048 6.80637 517.211 3.95971 515.401 1.95708C513.574 -0.0635149 510.902 -1.06335 507.582 -1.06335V1.07695C510.467 1.07695 512.494 1.93311 513.813 3.39252C515.149 4.86989 515.907 7.12723 515.907 10.2148H518.048ZM507.582 -1.06335C504.261 -1.06335 501.59 -0.0635149 499.763 1.95708C497.952 3.95971 497.115 6.80637 497.115 10.2148H499.256C499.256 7.12723 500.014 4.86989 501.35 3.39252C502.67 1.93311 504.696 1.07695 507.582 1.07695V-1.06335Z" fill="#03839E"/>
</svg>
