<svg width="519" height="43" viewBox="0 0 519 43" fill="none" xmlns="http://www.w3.org/2000/svg">
<path d="M0.378 1.39804V0.327895H-0.692149V1.39804H0.378ZM16.908 3.95005L16.1251 4.67959V4.67959L16.908 3.95005ZM16.908 22.916L16.1251 22.1865L16.908 22.916ZM6.758 25.468V24.3979H5.68785V25.468H6.758ZM6.758 41.998V43.0682H7.82815V41.998H6.758ZM0.378 41.998H-0.692149V43.0682H0.378V41.998ZM12.094 18.798L11.3117 18.0679L11.2982 18.0823L11.2853 18.0972L12.094 18.798ZM12.094 8.06804L11.2853 8.76892L11.2982 8.78382L11.3117 8.79823L12.094 8.06804ZM6.758 7.19805V6.1279H5.68785V7.19805H6.758ZM6.758 19.668H5.68785V20.7382H6.758V19.668ZM0.378 2.46819H9.774V0.327895H0.378V2.46819ZM9.774 2.46819C12.7596 2.46819 14.8075 3.26565 16.1251 4.67959L17.6909 3.2205C15.8378 1.23178 13.1298 0.327895 9.774 0.327895V2.46819ZM16.1251 4.67959C17.4615 6.11382 18.2159 8.30415 18.2159 11.432H20.3561C20.3561 7.98661 19.5252 5.18894 17.6909 3.2205L16.1251 4.67959ZM18.2159 11.432V15.434H20.3561V11.432H18.2159ZM18.2159 15.434C18.2159 18.5619 17.4615 20.7523 16.1251 22.1865L17.6909 23.6456C19.5252 21.6771 20.3561 18.8795 20.3561 15.434H18.2159ZM16.1251 22.1865C14.8075 23.6004 12.7596 24.3979 9.774 24.3979V26.5382C13.1298 26.5382 15.8378 25.6343 17.6909 23.6456L16.1251 22.1865ZM9.774 24.3979H6.758V26.5382H9.774V24.3979ZM5.68785 25.468V41.998H7.82815V25.468H5.68785ZM6.758 40.9279H0.378V43.0682H6.758V40.9279ZM1.44815 41.998V1.39804H-0.692149V41.998H1.44815ZM9.774 20.7382C11.011 20.7382 12.1308 20.3896 12.9027 19.4989L11.2853 18.0972C11.0519 18.3665 10.625 18.5979 9.774 18.5979V20.7382ZM12.8763 19.5282C13.6996 18.6461 13.9761 17.316 13.9761 15.84H11.8359C11.8359 17.1481 11.5711 17.7899 11.3117 18.0679L12.8763 19.5282ZM13.9761 15.84V11.026H11.8359V15.84H13.9761ZM13.9761 11.026C13.9761 9.55011 13.6996 8.21995 12.8763 7.33786L11.3117 8.79823C11.5711 9.07614 11.8359 9.71798 11.8359 11.026H13.9761ZM12.9027 7.36717C12.1308 6.4765 11.011 6.1279 9.774 6.1279V8.26819C10.625 8.26819 11.0519 8.49959 11.2853 8.76892L12.9027 7.36717ZM9.774 6.1279H6.758V8.26819H9.774V6.1279ZM5.68785 7.19805V19.668H7.82815V7.19805H5.68785ZM6.758 20.7382H9.774V18.5979H6.758V20.7382ZM33.771 39.91L34.5528 39.1793L33.771 39.91ZM33.771 3.48604L34.5528 4.21683L33.771 3.48604ZM48.155 3.48604L47.3733 4.21683L47.3733 4.21683L48.155 3.48604ZM48.155 39.91L47.3733 39.1793H47.3733L48.155 39.91ZM40.963 41.5079C38.0377 41.5079 35.9591 40.6836 34.5528 39.1793L32.9893 40.6408C34.9084 42.6938 37.6244 43.6482 40.963 43.6482V41.5079ZM34.5528 39.1793C33.1303 37.6575 32.3472 35.4394 32.3472 32.37H30.2069C30.2069 35.7967 31.0865 38.6053 32.9893 40.6408L34.5528 39.1793ZM32.3472 32.37V11.026H30.2069V32.37H32.3472ZM32.3472 11.026C32.3472 7.95672 33.1303 5.73861 34.5528 4.21683L32.9893 2.75526C31.0865 4.79081 30.2069 7.59937 30.2069 11.026H32.3472ZM34.5528 4.21683C35.9591 2.71248 38.0377 1.88819 40.963 1.88819V-0.252105C37.6244 -0.252105 34.9084 0.702277 32.9893 2.75526L34.5528 4.21683ZM40.963 1.88819C43.8884 1.88819 45.967 2.71248 47.3733 4.21683L48.9368 2.75526C47.0177 0.702277 44.3017 -0.252105 40.963 -0.252105V1.88819ZM47.3733 4.21683C48.7958 5.73861 49.5789 7.95672 49.5789 11.026H51.7192C51.7192 7.59937 50.8396 4.79081 48.9368 2.75526L47.3733 4.21683ZM49.5789 11.026V32.37H51.7192V11.026H49.5789ZM49.5789 32.37C49.5789 35.4394 48.7958 37.6575 47.3733 39.1793L48.9368 40.6408C50.8396 38.6053 51.7192 35.7967 51.7192 32.37H49.5789ZM47.3733 39.1793C45.967 40.6836 43.8884 41.5079 40.963 41.5079V43.6482C44.3017 43.6482 47.0177 42.6938 48.9368 40.6408L47.3733 39.1793ZM40.963 37.8482C42.2896 37.8482 43.4598 37.4369 44.2676 36.4591C45.043 35.5205 45.3392 34.2306 45.3392 32.776H43.1989C43.1989 33.9895 42.9441 34.7006 42.6175 35.096C42.3232 35.4522 41.8405 35.7079 40.963 35.7079V37.8482ZM45.3392 32.776V10.62H43.1989V32.776H45.3392ZM45.3392 10.62C45.3392 9.16553 45.043 7.87564 44.2676 6.93699C43.4598 5.95919 42.2896 5.5479 40.963 5.5479V7.6882C41.8405 7.6882 42.3232 7.9439 42.6175 8.3001C42.9441 8.69546 43.1989 9.40656 43.1989 10.62H45.3392ZM40.963 5.5479C39.6365 5.5479 38.4663 5.95919 37.6585 6.93699C36.8831 7.87564 36.5869 9.16553 36.5869 10.62H38.7272C38.7272 9.40656 38.982 8.69546 39.3086 8.3001C39.6028 7.9439 40.0856 7.6882 40.963 7.6882V5.5479ZM36.5869 10.62V32.776H38.7272V10.62H36.5869ZM36.5869 32.776C36.5869 34.2306 36.8831 35.5205 37.6585 36.4591C38.4663 37.4369 39.6365 37.8482 40.963 37.8482V35.7079C40.0856 35.7079 39.6028 35.4522 39.3086 35.096C38.982 34.7006 38.7272 33.9895 38.7272 32.776H36.5869ZM68.7151 7.19805H69.7853V6.1279H68.7151V7.19805ZM62.0451 7.19805H60.975V8.26819H62.0451V7.19805ZM62.0451 1.39804V0.327895H60.975V1.39804H62.0451ZM81.7651 1.39804H82.8353V0.327895H81.7651V1.39804ZM81.7651 7.19805V8.26819H82.8353V7.19805H81.7651ZM75.0951 7.19805V6.1279H74.025V7.19805H75.0951ZM75.0951 41.998V43.0682H76.1653V41.998H75.0951ZM68.7151 41.998H67.645V43.0682H68.7151V41.998ZM68.7151 6.1279H62.0451V8.26819H68.7151V6.1279ZM63.1153 7.19805V1.39804H60.975V7.19805H63.1153ZM62.0451 2.46819H81.7651V0.327895H62.0451V2.46819ZM80.695 1.39804V7.19805H82.8353V1.39804H80.695ZM81.7651 6.1279H75.0951V8.26819H81.7651V6.1279ZM74.025 7.19805V41.998H76.1653V7.19805H74.025ZM75.0951 40.9279H68.7151V43.0682H75.0951V40.9279ZM69.7853 41.998V7.19805H67.645V41.998H69.7853ZM93.8441 1.39804V0.327895H92.7739V1.39804H93.8441ZM110.49 3.71805L109.724 4.46518L109.733 4.47476L110.49 3.71805ZM108.576 21.234L108.176 20.2414L107.506 20.5114V21.234H108.576ZM108.576 21.35H107.506V22.1463L108.269 22.3751L108.576 21.35ZM111.824 24.192L110.842 24.6168L110.847 24.6279L110.852 24.6388L111.824 24.192ZM112.926 39.91L111.862 40.0221L111.862 40.0282L112.926 39.91ZM113.506 41.998V43.0682H115.153L114.484 41.5634L113.506 41.998ZM107.01 41.998L106.001 42.3542L106.253 43.0682H107.01V41.998ZM105.502 25.7L104.662 26.3632L104.673 26.3764L104.684 26.3894L105.502 25.7ZM100.224 24.598V23.5279H99.1539V24.598H100.224ZM100.224 41.998V43.0682H101.294V41.998H100.224ZM93.8441 41.998H92.7739V43.0682H93.8441V41.998ZM105.386 17.812L104.629 17.0553L104.618 17.0668L104.607 17.0786L105.386 17.812ZM105.56 8.18405L104.71 8.83411L104.722 8.84945L104.734 8.86435L105.56 8.18405ZM100.224 7.19805V6.1279H99.1539V7.19805H100.224ZM100.224 18.798H99.1539V19.8682H100.224V18.798ZM93.8441 2.46819H103.298V0.327895H93.8441V2.46819ZM103.298 2.46819C106.445 2.46819 108.502 3.21141 109.724 4.46512L111.256 2.97097C109.463 1.13135 106.725 0.327895 103.298 0.327895V2.46819ZM109.733 4.47476C110.961 5.70243 111.682 7.7122 111.682 10.736H113.822C113.822 7.41856 113.035 4.74965 111.247 2.96134L109.733 4.47476ZM111.682 10.736V13.23H113.822V10.736H111.682ZM111.682 13.23C111.682 15.2301 111.35 16.7647 110.759 17.897C110.181 19.0057 109.331 19.7762 108.176 20.2414L108.976 22.2267C110.605 21.5705 111.843 20.4464 112.657 18.8871C113.458 17.3514 113.822 15.4447 113.822 13.23H111.682ZM107.506 21.234V21.35H109.646V21.234H107.506ZM108.269 22.3751C109.525 22.7521 110.354 23.4877 110.842 24.6168L112.806 23.7673C112.057 22.035 110.72 20.876 108.884 20.325L108.269 22.3751ZM110.852 24.6388C111.42 25.8755 111.74 27.618 111.74 29.934H113.88C113.88 27.4555 113.543 25.3699 112.797 23.7453L110.852 24.6388ZM111.74 29.934V37.068H113.88V29.934H111.74ZM111.74 37.068C111.74 38.247 111.779 39.2355 111.862 40.0221L113.99 39.798C113.918 39.1153 113.88 38.2091 113.88 37.068H111.74ZM111.862 40.0282C111.953 40.8426 112.178 41.645 112.528 42.4327L114.484 41.5634C114.215 40.9591 114.054 40.3695 113.99 39.7919L111.862 40.0282ZM113.506 40.9279H107.01V43.0682H113.506V40.9279ZM108.019 41.6419C107.807 41.0414 107.673 40.4951 107.607 40.0006L105.485 40.2835C105.574 40.949 105.749 41.6401 106.001 42.3542L108.019 41.6419ZM107.607 40.0006C107.54 39.4998 107.5 38.5218 107.5 37.01H105.36C105.36 38.5143 105.397 39.6243 105.485 40.2835L107.607 40.0006ZM107.5 37.01V29.586H105.36V37.01H107.5ZM107.5 29.586C107.5 27.6806 107.197 26.051 106.321 25.0107L104.684 26.3894C105.045 26.8184 105.36 27.7795 105.36 29.586H107.5ZM106.342 25.0369C105.466 23.927 104.037 23.5279 102.428 23.5279V25.6682C103.758 25.6682 104.378 26.0038 104.662 26.3632L106.342 25.0369ZM102.428 23.5279H100.224V25.6682H102.428V23.5279ZM99.1539 24.598V41.998H101.294V24.598H99.1539ZM100.224 40.9279H93.8441V43.0682H100.224V40.9279ZM94.9142 41.998V1.39804H92.7739V41.998H94.9142ZM102.544 19.8682C103.991 19.8682 105.273 19.4941 106.165 18.5455L104.607 17.0786C104.262 17.4446 103.65 17.7279 102.544 17.7279V19.8682ZM106.143 18.5688C107.099 17.6125 107.442 16.1583 107.442 14.506H105.302C105.302 15.9472 104.988 16.6969 104.629 17.0553L106.143 18.5688ZM107.442 14.506V11.374H105.302V14.506H107.442ZM107.442 11.374C107.442 9.81975 107.165 8.44915 106.386 7.50374L104.734 8.86435C105.038 9.23361 105.302 9.98967 105.302 11.374H107.442ZM106.41 7.53399C105.639 6.52501 104.452 6.1279 103.124 6.1279V8.26819C104.039 8.26819 104.476 8.52842 104.71 8.83411L106.41 7.53399ZM103.124 6.1279H100.224V8.26819H103.124V6.1279ZM99.1539 7.19805V18.798H101.294V7.19805H99.1539ZM100.224 19.8682H102.544V17.7279H100.224V19.8682ZM144.506 1.39804V0.327895H143.436V1.39804H144.506ZM161.036 3.95005L160.253 4.67959V4.67959L161.036 3.95005ZM161.036 22.916L160.253 22.1865L161.036 22.916ZM150.886 25.468V24.3979H149.816V25.468H150.886ZM150.886 41.998V43.0682H151.956V41.998H150.886ZM144.506 41.998H143.436V43.0682H144.506V41.998ZM156.222 18.798L155.439 18.0679L155.426 18.0823L155.413 18.0972L156.222 18.798ZM156.222 8.06804L155.413 8.76892L155.426 8.78382L155.439 8.79823L156.222 8.06804ZM150.886 7.19805V6.1279H149.816V7.19805H150.886ZM150.886 19.668H149.816V20.7382H150.886V19.668ZM144.506 2.46819H153.902V0.327895H144.506V2.46819ZM153.902 2.46819C156.887 2.46819 158.935 3.26565 160.253 4.67959L161.819 3.2205C159.966 1.23178 157.257 0.327895 153.902 0.327895V2.46819ZM160.253 4.67959C161.589 6.11382 162.344 8.30415 162.344 11.432H164.484C164.484 7.98661 163.653 5.18894 161.819 3.2205L160.253 4.67959ZM162.344 11.432V15.434H164.484V11.432H162.344ZM162.344 15.434C162.344 18.5619 161.589 20.7523 160.253 22.1865L161.819 23.6456C163.653 21.6771 164.484 18.8795 164.484 15.434H162.344ZM160.253 22.1865C158.935 23.6004 156.887 24.3979 153.902 24.3979V26.5382C157.257 26.5382 159.966 25.6343 161.819 23.6456L160.253 22.1865ZM153.902 24.3979H150.886V26.5382H153.902V24.3979ZM149.816 25.468V41.998H151.956V25.468H149.816ZM150.886 40.9279H144.506V43.0682H150.886V40.9279ZM145.576 41.998V1.39804H143.436V41.998H145.576ZM153.902 20.7382C155.139 20.7382 156.259 20.3896 157.03 19.4989L155.413 18.0972C155.18 18.3665 154.753 18.5979 153.902 18.5979V20.7382ZM157.004 19.5282C157.827 18.6461 158.104 17.316 158.104 15.84H155.964C155.964 17.1481 155.699 17.7899 155.439 18.0679L157.004 19.5282ZM158.104 15.84V11.026H155.964V15.84H158.104ZM158.104 11.026C158.104 9.55011 157.827 8.21995 157.004 7.33786L155.439 8.79823C155.699 9.07614 155.964 9.71798 155.964 11.026H158.104ZM157.03 7.36717C156.259 6.4765 155.139 6.1279 153.902 6.1279V8.26819C154.753 8.26819 155.18 8.49959 155.413 8.76892L157.03 7.36717ZM153.902 6.1279H150.886V8.26819H153.902V6.1279ZM149.816 7.19805V19.668H151.956V7.19805H149.816ZM150.886 20.7382H153.902V18.5979H150.886V20.7382ZM177.899 39.91L178.681 39.1793L177.899 39.91ZM177.899 3.48604L178.681 4.21683L177.899 3.48604ZM192.283 3.48604L191.501 4.21683V4.21683L192.283 3.48604ZM192.283 39.91L191.501 39.1793L192.283 39.91ZM185.091 41.5079C182.165 41.5079 180.087 40.6836 178.681 39.1793L177.117 40.6408C179.036 42.6938 181.752 43.6482 185.091 43.6482V41.5079ZM178.681 39.1793C177.258 37.6575 176.475 35.4394 176.475 32.37H174.335C174.335 35.7967 175.214 38.6053 177.117 40.6408L178.681 39.1793ZM176.475 32.37V11.026H174.335V32.37H176.475ZM176.475 11.026C176.475 7.95672 177.258 5.73861 178.681 4.21683L177.117 2.75526C175.214 4.79081 174.335 7.59937 174.335 11.026H176.475ZM178.681 4.21683C180.087 2.71248 182.165 1.88819 185.091 1.88819V-0.252105C181.752 -0.252105 179.036 0.702277 177.117 2.75526L178.681 4.21683ZM185.091 1.88819C188.016 1.88819 190.095 2.71248 191.501 4.21683L193.065 2.75526C191.145 0.702277 188.429 -0.252105 185.091 -0.252105V1.88819ZM191.501 4.21683C192.924 5.73861 193.707 7.95672 193.707 11.026H195.847C195.847 7.59937 194.967 4.79081 193.065 2.75526L191.501 4.21683ZM193.707 11.026V32.37H195.847V11.026H193.707ZM193.707 32.37C193.707 35.4394 192.924 37.6575 191.501 39.1793L193.065 40.6408C194.967 38.6053 195.847 35.7967 195.847 32.37H193.707ZM191.501 39.1793C190.095 40.6836 188.016 41.5079 185.091 41.5079V43.6482C188.429 43.6482 191.145 42.6938 193.065 40.6408L191.501 39.1793ZM185.091 37.8482C186.417 37.8482 187.588 37.4369 188.395 36.4591C189.171 35.5205 189.467 34.2306 189.467 32.776H187.327C187.327 33.9895 187.072 34.7006 186.745 35.096C186.451 35.4522 185.968 35.7079 185.091 35.7079V37.8482ZM189.467 32.776V10.62H187.327V32.776H189.467ZM189.467 10.62C189.467 9.16553 189.171 7.87564 188.395 6.93699C187.588 5.95919 186.417 5.5479 185.091 5.5479V7.6882C185.968 7.6882 186.451 7.9439 186.745 8.3001C187.072 8.69546 187.327 9.40656 187.327 10.62H189.467ZM185.091 5.5479C183.764 5.5479 182.594 5.95919 181.786 6.93699C181.011 7.87564 180.715 9.16553 180.715 10.62H182.855C182.855 9.40656 183.11 8.69546 183.436 8.3001C183.731 7.9439 184.213 7.6882 185.091 7.6882V5.5479ZM180.715 10.62V32.776H182.855V10.62H180.715ZM180.715 32.776C180.715 34.2306 181.011 35.5205 181.786 36.4591C182.594 37.4369 183.764 37.8482 185.091 37.8482V35.7079C184.213 35.7079 183.731 35.4522 183.436 35.096C183.11 34.7006 182.855 33.9895 182.855 32.776H180.715ZM212.843 7.19805H213.913V6.1279H212.843V7.19805ZM206.173 7.19805H205.103V8.26819H206.173V7.19805ZM206.173 1.39804V0.327895H205.103V1.39804H206.173ZM225.893 1.39804H226.963V0.327895H225.893V1.39804ZM225.893 7.19805V8.26819H226.963V7.19805H225.893ZM219.223 7.19805V6.1279H218.153V7.19805H219.223ZM219.223 41.998V43.0682H220.293V41.998H219.223ZM212.843 41.998H211.773V43.0682H212.843V41.998ZM212.843 6.1279H206.173V8.26819H212.843V6.1279ZM207.243 7.19805V1.39804H205.103V7.19805H207.243ZM206.173 2.46819H225.893V0.327895H206.173V2.46819ZM224.823 1.39804V7.19805H226.963V1.39804H224.823ZM225.893 6.1279H219.223V8.26819H225.893V6.1279ZM218.153 7.19805V41.998H220.293V7.19805H218.153ZM219.223 40.9279H212.843V43.0682H219.223V40.9279ZM213.913 41.998V7.19805H211.773V41.998H213.913ZM239.248 39.968L238.449 40.6801L238.457 40.6888L239.248 39.968ZM236.87 30.05V28.9799H235.8V30.05H236.87ZM242.902 30.05H243.972V28.9799H242.902V30.05ZM248.644 35.85L247.841 35.142L247.838 35.1453L248.644 35.85ZM248.354 28.252L247.431 28.7947L247.439 28.8067L248.354 28.252ZM244.062 23.554L243.354 24.3565L243.359 24.3613L244.062 23.554ZM238.552 17.29L237.615 17.8065L237.619 17.8147L238.552 17.29ZM239.422 3.48604L240.204 4.21627L240.212 4.20761L239.422 3.48604ZM253.4 3.48604L252.592 4.18825L252.6 4.19761L252.609 4.20678L253.4 3.48604ZM255.778 12.708V13.7782H256.848V12.708H255.778ZM249.746 12.708H248.676V13.7782H249.746V12.708ZM248.934 7.60404L248.108 8.28435L248.118 8.2967L248.128 8.30874L248.934 7.60404ZM244.526 14.622L243.611 15.1767L243.617 15.1867L243.623 15.1966L244.526 14.622ZM248.876 19.262L248.173 20.0693L248.174 20.0696L248.876 19.262ZM254.386 25.584L253.441 26.0856L254.386 25.584ZM253.4 39.91L252.618 39.1792L252.61 39.1885L253.4 39.91ZM246.266 41.5079C243.374 41.5079 241.363 40.7004 240.039 39.2473L238.457 40.6888C240.304 42.7157 242.971 43.6482 246.266 43.6482V41.5079ZM240.047 39.256C238.693 37.737 237.94 35.4941 237.94 32.37H235.8C235.8 35.8193 236.632 38.6418 238.449 40.6801L240.047 39.256ZM237.94 32.37V30.05H235.8V32.37H237.94ZM236.87 31.1202H242.902V28.9799H236.87V31.1202ZM241.832 30.05V32.834H243.972V30.05H241.832ZM241.832 32.834C241.832 34.2722 242.129 35.5501 242.908 36.4795C243.718 37.4451 244.886 37.8482 246.208 37.8482V35.7079C245.325 35.7079 244.841 35.4536 244.548 35.1046C244.226 34.7194 243.972 34.0253 243.972 32.834H241.832ZM246.208 37.8482C247.495 37.8482 248.645 37.4737 249.449 36.5547L247.838 35.1453C247.56 35.4637 247.086 35.7079 246.208 35.7079V37.8482ZM249.446 36.5581C250.279 35.6142 250.584 34.255 250.584 32.718H248.444C248.444 34.0424 248.169 34.7712 247.841 35.142L249.446 36.5581ZM250.584 32.718C250.584 30.8491 250.157 29.1631 249.269 27.6974L247.439 28.8067C248.097 29.893 248.444 31.1843 248.444 32.718H250.584ZM249.276 27.7095C248.415 26.2451 246.881 24.5888 244.764 22.7468L243.359 24.3613C245.419 26.154 246.746 27.6296 247.431 28.7946L249.276 27.7095ZM244.77 22.7516C242.18 20.4666 240.444 18.4711 239.485 16.7654L237.619 17.8147C238.748 19.821 240.685 22.0015 243.354 24.3565L244.77 22.7516ZM239.489 16.7736C238.54 15.0511 238.056 13.1048 238.056 10.91H235.916C235.916 13.4326 236.476 15.7396 237.615 17.8065L239.489 16.7736ZM238.056 10.91C238.056 7.87561 238.822 5.69747 240.204 4.21623L238.639 2.75586C236.774 4.75462 235.916 7.52582 235.916 10.91H238.056ZM240.212 4.20761C241.579 2.71022 243.614 1.88819 246.498 1.88819V-0.252105C243.195 -0.252105 240.512 0.704538 238.632 2.76448L240.212 4.20761ZM246.498 1.88819C249.341 1.88819 251.305 2.70823 252.592 4.18825L254.207 2.78384C252.401 0.706529 249.764 -0.252105 246.498 -0.252105V1.88819ZM252.609 4.20678C253.954 5.68338 254.708 7.90014 254.708 11.026H256.848C256.848 7.57861 256.016 4.76871 254.191 2.76531L252.609 4.20678ZM254.708 11.026V12.708H256.848V11.026H254.708ZM255.778 11.6379H249.746V13.7782H255.778V11.6379ZM250.816 12.708V10.62H248.676V12.708H250.816ZM250.816 10.62C250.816 9.13441 250.535 7.80935 249.739 6.89935L248.128 8.30874C248.415 8.63608 248.676 9.32168 248.676 10.62H250.816ZM249.76 6.92374C248.97 5.96423 247.84 5.5479 246.556 5.5479V7.6882C247.359 7.6882 247.815 7.92919 248.108 8.28435L249.76 6.92374ZM246.556 5.5479C245.266 5.5479 244.124 5.95102 243.336 6.91054C242.582 7.82964 242.296 9.08944 242.296 10.504H244.436C244.436 9.32799 244.682 8.64479 244.99 8.26855C245.266 7.93274 245.719 7.6882 246.556 7.6882V5.5479ZM242.296 10.504C242.296 12.1721 242.738 13.7362 243.611 15.1767L245.441 14.0674C244.767 12.9559 244.436 11.7746 244.436 10.504H242.296ZM243.623 15.1966C244.518 16.6035 246.061 18.2305 248.173 20.0693L249.578 18.4548C247.515 16.6589 246.157 15.1926 245.429 14.0475L243.623 15.1966ZM248.174 20.0696C250.798 22.3519 252.524 24.3581 253.441 26.0856L255.331 25.0825C254.237 23.0206 252.289 20.8122 249.578 18.4545L248.174 20.0696ZM253.441 26.0856C254.35 27.799 254.824 29.8438 254.824 32.254H256.964C256.964 29.5602 256.433 27.1584 255.331 25.0825L253.441 26.0856ZM254.824 32.254C254.824 35.4087 254.037 37.6618 252.618 39.1793L254.182 40.6408C256.088 38.601 256.964 35.7501 256.964 32.254H254.824ZM252.61 39.1885C251.245 40.6832 249.193 41.5079 246.266 41.5079V43.6482C249.603 43.6482 252.307 42.6942 254.19 40.6316L252.61 39.1885ZM286.821 1.39804V0.327895H285.751V1.39804H286.821ZM303.699 1.39804H304.769V0.327895H303.699V1.39804ZM303.699 7.19805V8.26819H304.769V7.19805H303.699ZM293.201 7.19805V6.1279H292.131V7.19805H293.201ZM293.201 18.508H292.131V19.5782H293.201V18.508ZM301.437 18.508H302.507V17.4379H301.437V18.508ZM301.437 24.308V25.3782H302.507V24.308H301.437ZM293.201 24.308V23.2379H292.131V24.308H293.201ZM293.201 41.998V43.0682H294.271V41.998H293.201ZM286.821 41.998H285.751V43.0682H286.821V41.998ZM286.821 2.46819H303.699V0.327895H286.821V2.46819ZM302.629 1.39804V7.19805H304.769V1.39804H302.629ZM303.699 6.1279H293.201V8.26819H303.699V6.1279ZM292.131 7.19805V18.508H294.271V7.19805H292.131ZM293.201 19.5782H301.437V17.4379H293.201V19.5782ZM300.367 18.508V24.308H302.507V18.508H300.367ZM301.437 23.2379H293.201V25.3782H301.437V23.2379ZM292.131 24.308V41.998H294.271V24.308H292.131ZM293.201 40.9279H286.821V43.0682H293.201V40.9279ZM287.891 41.998V1.39804H285.751V41.998H287.891ZM315.748 1.39804V0.327895H314.678V1.39804H315.748ZM333.148 1.39804H334.219V0.327895H333.148V1.39804ZM333.148 7.19805V8.26819H334.219V7.19805H333.148ZM322.128 7.19805V6.1279H321.058V7.19805H322.128ZM322.128 17.928H321.058V18.9982H322.128V17.928ZM330.886 17.928H331.957V16.8579H330.886V17.928ZM330.886 23.728V24.7982H331.957V23.728H330.886ZM322.128 23.728V22.6579H321.058V23.728H322.128ZM322.128 36.198H321.058V37.2682H322.128V36.198ZM333.148 36.198H334.219V35.1279H333.148V36.198ZM333.148 41.998V43.0682H334.219V41.998H333.148ZM315.748 41.998H314.678V43.0682H315.748V41.998ZM315.748 2.46819H333.148V0.327895H315.748V2.46819ZM332.078 1.39804V7.19805H334.219V1.39804H332.078ZM333.148 6.1279H322.128V8.26819H333.148V6.1279ZM321.058 7.19805V17.928H323.199V7.19805H321.058ZM322.128 18.9982H330.886V16.8579H322.128V18.9982ZM329.816 17.928V23.728H331.957V17.928H329.816ZM330.886 22.6579H322.128V24.7982H330.886V22.6579ZM321.058 23.728V36.198H323.199V23.728H321.058ZM322.128 37.2682H333.148V35.1279H322.128V37.2682ZM332.078 36.198V41.998H334.219V36.198H332.078ZM333.148 40.9279H315.748V43.0682H333.148V40.9279ZM316.819 41.998V1.39804H314.678V41.998H316.819ZM350.739 1.39804V0.327895H349.829L349.683 1.22603L350.739 1.39804ZM359.381 1.39804L360.437 1.22603L360.291 0.327895H359.381V1.39804ZM365.993 41.998V43.0682H367.251L367.049 41.826L365.993 41.998ZM359.613 41.998L358.554 42.1505L358.686 43.0682H359.613V41.998ZM358.453 33.936L359.512 33.7836L357.383 33.936H358.453ZM358.453 34.052V35.1222H359.523V34.052H358.453ZM351.203 34.052V32.9819H350.278L350.144 33.8975L351.203 34.052ZM350.043 41.998V43.0682H350.968L351.102 42.1526L350.043 41.998ZM344.127 41.998L343.071 41.826L342.868 43.0682H344.127V41.998ZM357.699 28.542V29.6122H358.931L358.758 28.392L357.699 28.542ZM354.857 8.47405L355.916 8.32399L355.786 7.4039H354.857V8.47405ZM354.741 8.47405V7.4039H353.809L353.681 8.32699L354.741 8.47405ZM351.957 28.542L350.897 28.395L350.728 29.6122H351.957V28.542ZM350.739 2.46819H359.381V0.327895H350.739V2.46819ZM358.325 1.57006L364.937 42.1701L367.049 41.826L360.437 1.22603L358.325 1.57006ZM365.993 40.9279H359.613V43.0682H365.993V40.9279ZM360.672 41.8456L359.512 33.7836L357.394 34.0885L358.554 42.1505L360.672 41.8456ZM357.383 33.936V34.052H359.523V33.936H357.383ZM358.453 32.9819H351.203V35.1222H358.453V32.9819ZM350.144 33.8975L348.984 41.8435L351.102 42.1526L352.262 34.2066L350.144 33.8975ZM350.043 40.9279H344.127V43.0682H350.043V40.9279ZM345.183 42.1701L351.795 1.57006L349.683 1.22603L343.071 41.826L345.183 42.1701ZM358.758 28.392L355.916 8.32399L353.797 8.6241L356.639 28.6921L358.758 28.392ZM354.857 7.4039H354.741V9.5442H354.857V7.4039ZM353.681 8.32699L350.897 28.395L353.017 28.6891L355.801 8.6211L353.681 8.32699ZM351.957 29.6122H357.699V27.4719H351.957V29.6122ZM380.404 7.19805H381.474V6.1279H380.404V7.19805ZM373.734 7.19805H372.664V8.26819H373.734V7.19805ZM373.734 1.39804V0.327895H372.664V1.39804H373.734ZM393.454 1.39804H394.524V0.327895H393.454V1.39804ZM393.454 7.19805V8.26819H394.524V7.19805H393.454ZM386.784 7.19805V6.1279H385.714V7.19805H386.784ZM386.784 41.998V43.0682H387.854V41.998H386.784ZM380.404 41.998H379.334V43.0682H380.404V41.998ZM380.404 6.1279H373.734V8.26819H380.404V6.1279ZM374.804 7.19805V1.39804H372.664V7.19805H374.804ZM373.734 2.46819H393.454V0.327895H373.734V2.46819ZM392.384 1.39804V7.19805H394.524V1.39804H392.384ZM393.454 6.1279H386.784V8.26819H393.454V6.1279ZM385.714 7.19805V41.998H387.854V7.19805H385.714ZM386.784 40.9279H380.404V43.0682H386.784V40.9279ZM381.474 41.998V7.19805H379.334V41.998H381.474ZM407.737 39.968L406.947 40.6897L406.955 40.6982L407.737 39.968ZM405.301 1.39804V0.327895H404.231V1.39804H405.301ZM411.681 1.39804H412.751V0.327895H411.681V1.39804ZM412.493 35.85L411.688 36.5547L411.7 36.5686L411.712 36.582L412.493 35.85ZM417.307 35.85L416.526 35.1181L416.514 35.1315L416.502 35.1453L417.307 35.85ZM418.177 1.39804V0.327895H417.107V1.39804H418.177ZM424.325 1.39804H425.395V0.327895H424.325V1.39804ZM421.889 39.968L422.671 40.6983L422.679 40.6896L421.889 39.968ZM414.813 41.5079C411.923 41.5079 409.885 40.7009 408.519 39.2379L406.955 40.6982C408.837 42.7152 411.517 43.6482 414.813 43.6482V41.5079ZM408.527 39.2465C407.14 37.7273 406.371 35.4881 406.371 32.37H404.231C404.231 35.8253 405.086 38.6515 406.947 40.6896L408.527 39.2465ZM406.371 32.37V1.39804H404.231V32.37H406.371ZM405.301 2.46819H411.681V0.327895H405.301V2.46819ZM410.611 1.39804V32.834H412.751V1.39804H410.611ZM410.611 32.834C410.611 34.3197 410.891 35.6447 411.688 36.5547L413.298 35.1453C413.012 34.818 412.751 34.1324 412.751 32.834H410.611ZM411.712 36.582C412.54 37.4647 413.662 37.8482 414.929 37.8482V35.7079C414.107 35.7079 413.606 35.4728 413.274 35.1181L411.712 36.582ZM414.929 37.8482C416.192 37.8482 417.315 37.4654 418.112 36.5547L416.502 35.1453C416.216 35.472 415.754 35.7079 414.929 35.7079V37.8482ZM418.088 36.582C418.942 35.6709 419.247 34.3335 419.247 32.834H417.107C417.107 34.1186 416.832 34.7919 416.526 35.1181L418.088 36.582ZM419.247 32.834V1.39804H417.107V32.834H419.247ZM418.177 2.46819H424.325V0.327895H418.177V2.46819ZM423.255 1.39804V32.37H425.395V1.39804H423.255ZM423.255 32.37C423.255 35.4881 422.486 37.7273 421.099 39.2465L422.679 40.6896C424.54 38.6515 425.395 35.8253 425.395 32.37H423.255ZM421.107 39.2379C419.741 40.7009 417.703 41.5079 414.813 41.5079V43.6482C418.109 43.6482 420.789 42.7152 422.671 40.6982L421.107 39.2379ZM437.859 1.39804V0.327895H436.789V1.39804H437.859ZM454.505 3.71805L453.739 4.46518L453.748 4.47476L454.505 3.71805ZM452.591 21.234L452.191 20.2414L451.521 20.5114V21.234H452.591ZM452.591 21.35H451.521V22.1463L452.283 22.3751L452.591 21.35ZM455.839 24.192L454.857 24.6168L454.861 24.6279L454.866 24.6388L455.839 24.192ZM456.941 39.91L455.877 40.0221L455.877 40.0282L456.941 39.91ZM457.521 41.998V43.0682H459.168L458.499 41.5634L457.521 41.998ZM451.025 41.998L450.016 42.3542L450.268 43.0682H451.025V41.998ZM449.517 25.7L448.677 26.3632L448.687 26.3764L448.698 26.3894L449.517 25.7ZM444.239 24.598V23.5279H443.169V24.598H444.239ZM444.239 41.998V43.0682H445.309V41.998H444.239ZM437.859 41.998H436.789V43.0682H437.859V41.998ZM449.401 17.812L448.644 17.0553L448.633 17.0668L448.622 17.0786L449.401 17.812ZM449.575 8.18405L448.725 8.83411L448.737 8.84945L448.749 8.86435L449.575 8.18405ZM444.239 7.19805V6.1279H443.169V7.19805H444.239ZM444.239 18.798H443.169V19.8682H444.239V18.798ZM437.859 2.46819H447.313V0.327895H437.859V2.46819ZM447.313 2.46819C450.459 2.46819 452.516 3.21141 453.739 4.46512L455.271 2.97097C453.477 1.13135 450.74 0.327895 447.313 0.327895V2.46819ZM453.748 4.47476C454.976 5.70243 455.697 7.7122 455.697 10.736H457.837C457.837 7.41856 457.05 4.74965 455.262 2.96134L453.748 4.47476ZM455.697 10.736V13.23H457.837V10.736H455.697ZM455.697 13.23C455.697 15.2301 455.365 16.7647 454.774 17.897C454.196 19.0057 453.346 19.7762 452.191 20.2414L452.991 22.2267C454.62 21.5705 455.858 20.4464 456.672 18.8871C457.473 17.3514 457.837 15.4447 457.837 13.23H455.697ZM451.521 21.234V21.35H453.661V21.234H451.521ZM452.283 22.3751C453.54 22.7521 454.368 23.4877 454.857 24.6168L456.821 23.7673C456.072 22.035 454.735 20.876 452.898 20.325L452.283 22.3751ZM454.866 24.6388C455.435 25.8755 455.755 27.618 455.755 29.934H457.895C457.895 27.4555 457.558 25.3699 456.811 23.7453L454.866 24.6388ZM455.755 29.934V37.068H457.895V29.934H455.755ZM455.755 37.068C455.755 38.247 455.794 39.2355 455.877 40.0221L458.005 39.798C457.933 39.1153 457.895 38.2091 457.895 37.068H455.755ZM455.877 40.0282C455.968 40.8426 456.193 41.645 456.543 42.4327L458.499 41.5634C458.23 40.9591 458.069 40.3695 458.004 39.7919L455.877 40.0282ZM457.521 40.9279H451.025V43.0682H457.521V40.9279ZM452.034 41.6419C451.822 41.0414 451.688 40.4951 451.622 40.0006L449.5 40.2835C449.589 40.949 449.764 41.6401 450.016 42.3542L452.034 41.6419ZM451.622 40.0006C451.555 39.4998 451.515 38.5218 451.515 37.01H449.375C449.375 38.5143 449.412 39.6243 449.5 40.2835L451.622 40.0006ZM451.515 37.01V29.586H449.375V37.01H451.515ZM451.515 29.586C451.515 27.6806 451.211 26.051 450.335 25.0107L448.698 26.3894C449.06 26.8184 449.375 27.7795 449.375 29.586H451.515ZM450.357 25.0369C449.48 23.927 448.052 23.5279 446.443 23.5279V25.6682C447.773 25.6682 448.393 26.0038 448.677 26.3632L450.357 25.0369ZM446.443 23.5279H444.239V25.6682H446.443V23.5279ZM443.169 24.598V41.998H445.309V24.598H443.169ZM444.239 40.9279H437.859V43.0682H444.239V40.9279ZM438.929 41.998V1.39804H436.789V41.998H438.929ZM446.559 19.8682C448.005 19.8682 449.287 19.4941 450.18 18.5455L448.622 17.0786C448.277 17.4446 447.664 17.7279 446.559 17.7279V19.8682ZM450.158 18.5688C451.114 17.6125 451.457 16.1583 451.457 14.506H449.317C449.317 15.9472 449.003 16.6969 448.644 17.0553L450.158 18.5688ZM451.457 14.506V11.374H449.317V14.506H451.457ZM451.457 11.374C451.457 9.81975 451.18 8.44915 450.401 7.50374L448.749 8.86435C449.053 9.23361 449.317 9.98967 449.317 11.374H451.457ZM450.425 7.53399C449.653 6.52501 448.466 6.1279 447.139 6.1279V8.26819C448.054 8.26819 448.491 8.52842 448.725 8.83411L450.425 7.53399ZM447.139 6.1279H444.239V8.26819H447.139V6.1279ZM443.169 7.19805V18.798H445.309V7.19805H443.169ZM444.239 19.8682H446.559V17.7279H444.239V19.8682ZM470.241 1.39804V0.327895H469.171V1.39804H470.241ZM487.641 1.39804H488.712V0.327895H487.641V1.39804ZM487.641 7.19805V8.26819H488.712V7.19805H487.641ZM476.621 7.19805V6.1279H475.551V7.19805H476.621ZM476.621 17.928H475.551V18.9982H476.621V17.928ZM485.379 17.928H486.45V16.8579H485.379V17.928ZM485.379 23.728V24.7982H486.45V23.728H485.379ZM476.621 23.728V22.6579H475.551V23.728H476.621ZM476.621 36.198H475.551V37.2682H476.621V36.198ZM487.641 36.198H488.712V35.1279H487.641V36.198ZM487.641 41.998V43.0682H488.712V41.998H487.641ZM470.241 41.998H469.171V43.0682H470.241V41.998ZM470.241 2.46819H487.641V0.327895H470.241V2.46819ZM486.571 1.39804V7.19805H488.712V1.39804H486.571ZM487.641 6.1279H476.621V8.26819H487.641V6.1279ZM475.551 7.19805V17.928H477.692V7.19805H475.551ZM476.621 18.9982H485.379V16.8579H476.621V18.9982ZM484.309 17.928V23.728H486.45V17.928H484.309ZM485.379 22.6579H476.621V24.7982H485.379V22.6579ZM475.551 23.728V36.198H477.692V23.728H475.551ZM476.621 37.2682H487.641V35.1279H476.621V37.2682ZM486.571 36.198V41.998H488.712V36.198H486.571ZM487.641 40.9279H470.241V43.0682H487.641V40.9279ZM471.312 41.998V1.39804H469.171V41.998H471.312ZM501.691 39.968L500.892 40.6801L500.9 40.6888L501.691 39.968ZM499.313 30.05V28.9799H498.243V30.05H499.313ZM505.345 30.05H506.415V28.9799H505.345V30.05ZM511.087 35.85L510.285 35.142L510.282 35.1453L511.087 35.85ZM510.797 28.252L509.875 28.7947L509.882 28.8067L510.797 28.252ZM506.505 23.554L505.797 24.3565L505.802 24.3613L506.505 23.554ZM500.995 17.29L500.058 17.8065L500.062 17.8147L500.995 17.29ZM501.865 3.48604L502.647 4.21627L502.655 4.20761L501.865 3.48604ZM515.843 3.48604L515.035 4.18825L515.044 4.19761L515.052 4.20678L515.843 3.48604ZM518.221 12.708V13.7782H519.291V12.708H518.221ZM512.189 12.708H511.119V13.7782H512.189V12.708ZM511.377 7.60404L510.551 8.28435L510.561 8.2967L510.572 8.30874L511.377 7.60404ZM506.969 14.622L506.054 15.1767L506.06 15.1867L506.066 15.1966L506.969 14.622ZM511.319 19.262L510.616 20.0693L510.617 20.0696L511.319 19.262ZM516.829 25.584L515.884 26.0856L516.829 25.584ZM515.843 39.91L515.061 39.1792L515.053 39.1885L515.843 39.91ZM508.709 41.5079C505.817 41.5079 503.806 40.7004 502.482 39.2473L500.9 40.6888C502.747 42.7157 505.414 43.6482 508.709 43.6482V41.5079ZM502.49 39.256C501.136 37.737 500.383 35.4941 500.383 32.37H498.243C498.243 35.8193 499.075 38.6418 500.892 40.6801L502.49 39.256ZM500.383 32.37V30.05H498.243V32.37H500.383ZM499.313 31.1202H505.345V28.9799H499.313V31.1202ZM504.275 30.05V32.834H506.415V30.05H504.275ZM504.275 32.834C504.275 34.2722 504.572 35.5501 505.351 36.4795C506.161 37.4451 507.33 37.8482 508.651 37.8482V35.7079C507.768 35.7079 507.284 35.4536 506.992 35.1046C506.669 34.7194 506.415 34.0253 506.415 32.834H504.275ZM508.651 37.8482C509.939 37.8482 511.088 37.4737 511.892 36.5547L510.282 35.1453C510.003 35.4637 509.529 35.7079 508.651 35.7079V37.8482ZM511.889 36.5581C512.722 35.6142 513.027 34.255 513.027 32.718H510.887C510.887 34.0424 510.612 34.7712 510.285 35.142L511.889 36.5581ZM513.027 32.718C513.027 30.8491 512.601 29.1631 511.712 27.6974L509.882 28.8067C510.54 29.893 510.887 31.1843 510.887 32.718H513.027ZM511.719 27.7095C510.858 26.2451 509.324 24.5888 507.208 22.7468L505.802 24.3613C507.862 26.154 509.189 27.6296 509.875 28.7946L511.719 27.7095ZM507.213 22.7516C504.623 20.4666 502.887 18.4711 501.928 16.7654L500.062 17.8147C501.191 19.821 503.128 22.0015 505.797 24.3565L507.213 22.7516ZM501.932 16.7736C500.983 15.0511 500.499 13.1048 500.499 10.91H498.359C498.359 13.4326 498.919 15.7396 500.058 17.8065L501.932 16.7736ZM500.499 10.91C500.499 7.87561 501.265 5.69747 502.647 4.21623L501.083 2.75586C499.217 4.75462 498.359 7.52582 498.359 10.91H500.499ZM502.655 4.20761C504.022 2.71022 506.058 1.88819 508.941 1.88819V-0.252105C505.638 -0.252105 502.956 0.704538 501.075 2.76448L502.655 4.20761ZM508.941 1.88819C511.784 1.88819 513.748 2.70823 515.035 4.18825L516.651 2.78384C514.844 0.706529 512.208 -0.252105 508.941 -0.252105V1.88819ZM515.052 4.20678C516.397 5.68338 517.151 7.90014 517.151 11.026H519.291C519.291 7.57861 518.459 4.76871 516.634 2.76531L515.052 4.20678ZM517.151 11.026V12.708H519.291V11.026H517.151ZM518.221 11.6379H512.189V13.7782H518.221V11.6379ZM513.259 12.708V10.62H511.119V12.708H513.259ZM513.259 10.62C513.259 9.13441 512.979 7.80935 512.182 6.89935L510.572 8.30874C510.858 8.63608 511.119 9.32168 511.119 10.62H513.259ZM512.203 6.92374C511.413 5.96423 510.283 5.5479 508.999 5.5479V7.6882C509.803 7.6882 510.258 7.92919 510.551 8.28435L512.203 6.92374ZM508.999 5.5479C507.709 5.5479 506.567 5.95102 505.779 6.91054C505.025 7.82964 504.739 9.08944 504.739 10.504H506.879C506.879 9.32799 507.125 8.64479 507.434 8.26855C507.709 7.93274 508.162 7.6882 508.999 7.6882V5.5479ZM504.739 10.504C504.739 12.1721 505.181 13.7362 506.054 15.1767L507.884 14.0674C507.211 12.9559 506.879 11.7746 506.879 10.504H504.739ZM506.066 15.1966C506.961 16.6035 508.504 18.2305 510.616 20.0693L512.022 18.4548C509.958 16.6589 508.601 15.1926 507.872 14.0475L506.066 15.1966ZM510.617 20.0696C513.242 22.3519 514.967 24.3581 515.884 26.0856L517.774 25.0825C516.68 23.0206 514.733 20.8122 512.021 18.4545L510.617 20.0696ZM515.884 26.0856C516.793 27.799 517.267 29.8438 517.267 32.254H519.407C519.407 29.5602 518.876 27.1584 517.774 25.0825L515.884 26.0856ZM517.267 32.254C517.267 35.4087 516.48 37.6618 515.061 39.1793L516.625 40.6408C518.532 38.601 519.407 35.7501 519.407 32.254H517.267ZM515.053 39.1885C513.688 40.6832 511.636 41.5079 508.709 41.5079V43.6482C512.046 43.6482 514.75 42.6942 516.633 40.6316L515.053 39.1885Z" fill="#03839E"/>
</svg>
