<svg width="256" height="113" viewBox="0 0 256 113" fill="none" xmlns="http://www.w3.org/2000/svg">
<path d="M0.378 1.4V0.329848H-0.692149V1.4H0.378ZM16.908 3.952L16.1251 4.68155V4.68155L16.908 3.952ZM16.908 22.918L16.1251 22.1884L16.908 22.918ZM6.758 25.47V24.3998H5.68785V25.47H6.758ZM6.758 42V43.0701H7.82815V42H6.758ZM0.378 42H-0.692149V43.0701H0.378V42ZM12.094 18.8L11.3117 18.0698L11.2982 18.0842L11.2853 18.0991L12.094 18.8ZM12.094 8.07L11.2853 8.77087L11.2982 8.78577L11.3117 8.80018L12.094 8.07ZM6.758 7.2V6.12985H5.68785V7.2H6.758ZM6.758 19.67H5.68785V20.7401H6.758V19.67ZM0.378 2.47015H9.774V0.329848H0.378V2.47015ZM9.774 2.47015C12.7596 2.47015 14.8075 3.2676 16.1251 4.68155L17.6909 3.22245C15.8378 1.23373 13.1298 0.329848 9.774 0.329848V2.47015ZM16.1251 4.68155C17.4615 6.11577 18.2159 8.3061 18.2159 11.434H20.3561C20.3561 7.98856 19.5252 5.19089 17.6909 3.22245L16.1251 4.68155ZM18.2159 11.434V15.436H20.3561V11.434H18.2159ZM18.2159 15.436C18.2159 18.5639 17.4615 20.7542 16.1251 22.1884L17.6909 23.6475C19.5252 21.6791 20.3561 18.8814 20.3561 15.436H18.2159ZM16.1251 22.1884C14.8075 23.6024 12.7596 24.3998 9.774 24.3998V26.5401C13.1298 26.5401 15.8378 25.6363 17.6909 23.6475L16.1251 22.1884ZM9.774 24.3998H6.758V26.5401H9.774V24.3998ZM5.68785 25.47V42H7.82815V25.47H5.68785ZM6.758 40.9299H0.378V43.0701H6.758V40.9299ZM1.44815 42V1.4H-0.692149V42H1.44815ZM9.774 20.7401C11.011 20.7401 12.1308 20.3915 12.9027 19.5009L11.2853 18.0991C11.0519 18.3685 10.625 18.5998 9.774 18.5998V20.7401ZM12.8763 19.5302C13.6996 18.6481 13.9761 17.3179 13.9761 15.842H11.8359C11.8359 17.1501 11.5711 17.7919 11.3117 18.0698L12.8763 19.5302ZM13.9761 15.842V11.028H11.8359V15.842H13.9761ZM13.9761 11.028C13.9761 9.55206 13.6996 8.2219 12.8763 7.33982L11.3117 8.80018C11.5711 9.0781 11.8359 9.71993 11.8359 11.028H13.9761ZM12.9027 7.36912C12.1308 6.47846 11.011 6.12985 9.774 6.12985V8.27015C10.625 8.27015 11.0519 8.50154 11.2853 8.77087L12.9027 7.36912ZM9.774 6.12985H6.758V8.27015H9.774V6.12985ZM5.68785 7.2V19.67H7.82815V7.2H5.68785ZM6.758 20.7401H9.774V18.5998H6.758V20.7401ZM33.771 39.912L34.5528 39.1812L33.771 39.912ZM33.771 3.488L34.5528 4.21879L33.771 3.488ZM48.155 3.488L47.3733 4.21879L47.3733 4.21879L48.155 3.488ZM48.155 39.912L47.3733 39.1812H47.3733L48.155 39.912ZM40.963 41.5098C38.0377 41.5098 35.9591 40.6856 34.5528 39.1812L32.9893 40.6428C34.9084 42.6958 37.6244 43.6502 40.963 43.6502V41.5098ZM34.5528 39.1812C33.1303 37.6594 32.3472 35.4413 32.3472 32.372H30.2069C30.2069 35.7987 31.0865 38.6072 32.9893 40.6428L34.5528 39.1812ZM32.3472 32.372V11.028H30.2069V32.372H32.3472ZM32.3472 11.028C32.3472 7.95868 33.1303 5.74056 34.5528 4.21879L32.9893 2.75721C31.0865 4.79277 30.2069 7.60132 30.2069 11.028H32.3472ZM34.5528 4.21879C35.9591 2.71443 38.0377 1.89015 40.963 1.89015V-0.250152C37.6244 -0.250152 34.9084 0.70423 32.9893 2.75721L34.5528 4.21879ZM40.963 1.89015C43.8884 1.89015 45.967 2.71443 47.3733 4.21879L48.9368 2.75721C47.0177 0.70423 44.3017 -0.250152 40.963 -0.250152V1.89015ZM47.3733 4.21879C48.7958 5.74056 49.5789 7.95868 49.5789 11.028H51.7192C51.7192 7.60132 50.8396 4.79277 48.9368 2.75721L47.3733 4.21879ZM49.5789 11.028V32.372H51.7192V11.028H49.5789ZM49.5789 32.372C49.5789 35.4413 48.7958 37.6594 47.3733 39.1812L48.9368 40.6428C50.8396 38.6072 51.7192 35.7987 51.7192 32.372H49.5789ZM47.3733 39.1812C45.967 40.6856 43.8884 41.5098 40.963 41.5098V43.6502C44.3017 43.6502 47.0177 42.6958 48.9368 40.6428L47.3733 39.1812ZM40.963 37.8501C42.2896 37.8501 43.4598 37.4389 44.2676 36.4611C45.043 35.5224 45.3392 34.2325 45.3392 32.778H43.1989C43.1989 33.9915 42.9441 34.7026 42.6175 35.0979C42.3232 35.4541 41.8405 35.7099 40.963 35.7099V37.8501ZM45.3392 32.778V10.622H43.1989V32.778H45.3392ZM45.3392 10.622C45.3392 9.16748 45.043 7.87759 44.2676 6.93894C43.4598 5.96114 42.2896 5.54985 40.963 5.54985V7.69015C41.8405 7.69015 42.3232 7.94586 42.6175 8.30206C42.9441 8.69741 43.1989 9.40851 43.1989 10.622H45.3392ZM40.963 5.54985C39.6365 5.54985 38.4663 5.96114 37.6585 6.93894C36.8831 7.87759 36.5869 9.16748 36.5869 10.622H38.7272C38.7272 9.40851 38.982 8.69741 39.3086 8.30206C39.6028 7.94586 40.0856 7.69015 40.963 7.69015V5.54985ZM36.5869 10.622V32.778H38.7272V10.622H36.5869ZM36.5869 32.778C36.5869 34.2325 36.8831 35.5224 37.6585 36.4611C38.4663 37.4389 39.6365 37.8501 40.963 37.8501V35.7099C40.0856 35.7099 39.6028 35.4541 39.3086 35.0979C38.982 34.7026 38.7272 33.9915 38.7272 32.778H36.5869ZM68.7151 7.2H69.7853V6.12985H68.7151V7.2ZM62.0451 7.2H60.975V8.27015H62.0451V7.2ZM62.0451 1.4V0.329848H60.975V1.4H62.0451ZM81.7651 1.4H82.8353V0.329848H81.7651V1.4ZM81.7651 7.2V8.27015H82.8353V7.2H81.7651ZM75.0951 7.2V6.12985H74.025V7.2H75.0951ZM75.0951 42V43.0701H76.1653V42H75.0951ZM68.7151 42H67.645V43.0701H68.7151V42ZM68.7151 6.12985H62.0451V8.27015H68.7151V6.12985ZM63.1153 7.2V1.4H60.975V7.2H63.1153ZM62.0451 2.47015H81.7651V0.329848H62.0451V2.47015ZM80.695 1.4V7.2H82.8353V1.4H80.695ZM81.7651 6.12985H75.0951V8.27015H81.7651V6.12985ZM74.025 7.2V42H76.1653V7.2H74.025ZM75.0951 40.9299H68.7151V43.0701H75.0951V40.9299ZM69.7853 42V7.2H67.645V42H69.7853ZM93.8441 1.4V0.329848H92.7739V1.4H93.8441ZM110.49 3.72L109.724 4.46713L109.733 4.47671L110.49 3.72ZM108.576 21.236L108.176 20.2433L107.506 20.5133V21.236H108.576ZM108.576 21.352H107.506V22.1482L108.269 22.377L108.576 21.352ZM111.824 24.194L110.842 24.6188L110.847 24.6298L110.852 24.6408L111.824 24.194ZM112.926 39.912L111.862 40.024L111.862 40.0302L112.926 39.912ZM113.506 42V43.0701H115.153L114.484 41.5654L113.506 42ZM107.01 42L106.001 42.3562L106.253 43.0701H107.01V42ZM105.502 25.702L104.662 26.3651L104.673 26.3784L104.684 26.3913L105.502 25.702ZM100.224 24.6V23.5299H99.1539V24.6H100.224ZM100.224 42V43.0701H101.294V42H100.224ZM93.8441 42H92.7739V43.0701H93.8441V42ZM105.386 17.814L104.629 17.0573L104.618 17.0688L104.607 17.0806L105.386 17.814ZM105.56 8.186L104.71 8.83606L104.722 8.8514L104.734 8.8663L105.56 8.186ZM100.224 7.2V6.12985H99.1539V7.2H100.224ZM100.224 18.8H99.1539V19.8701H100.224V18.8ZM93.8441 2.47015H103.298V0.329848H93.8441V2.47015ZM103.298 2.47015C106.445 2.47015 108.502 3.21336 109.724 4.46707L111.256 2.97293C109.463 1.1333 106.725 0.329848 103.298 0.329848V2.47015ZM109.733 4.47671C110.961 5.70439 111.682 7.71415 111.682 10.738H113.822C113.822 7.42051 113.035 4.75161 111.247 2.96329L109.733 4.47671ZM111.682 10.738V13.232H113.822V10.738H111.682ZM111.682 13.232C111.682 15.232 111.35 16.7666 110.759 17.899C110.181 19.0077 109.331 19.7782 108.176 20.2433L108.976 22.2287C110.605 21.5725 111.843 20.4483 112.657 18.889C113.458 17.3534 113.822 15.4466 113.822 13.232H111.682ZM107.506 21.236V21.352H109.646V21.236H107.506ZM108.269 22.377C109.525 22.754 110.354 23.4897 110.842 24.6188L112.806 23.7692C112.057 22.037 110.72 20.878 108.884 20.327L108.269 22.377ZM110.852 24.6408C111.42 25.8774 111.74 27.6199 111.74 29.936H113.88C113.88 27.4574 113.543 25.3719 112.797 23.7472L110.852 24.6408ZM111.74 29.936V37.07H113.88V29.936H111.74ZM111.74 37.07C111.74 38.2489 111.779 39.2374 111.862 40.024L113.99 39.8C113.918 39.1172 113.88 38.2111 113.88 37.07H111.74ZM111.862 40.0302C111.953 40.8446 112.178 41.6469 112.528 42.4346L114.484 41.5654C114.215 40.9611 114.054 40.3714 113.99 39.7938L111.862 40.0302ZM113.506 40.9299H107.01V43.0701H113.506V40.9299ZM108.019 41.6438C107.807 41.0433 107.673 40.4971 107.607 40.0026L105.485 40.2854C105.574 40.9509 105.749 41.642 106.001 42.3562L108.019 41.6438ZM107.607 40.0026C107.54 39.5018 107.5 38.5238 107.5 37.012H105.36C105.36 38.5163 105.397 39.6262 105.485 40.2854L107.607 40.0026ZM107.5 37.012V29.588H105.36V37.012H107.5ZM107.5 29.588C107.5 27.6826 107.197 26.053 106.321 25.0127L104.684 26.3913C105.045 26.8203 105.36 27.7814 105.36 29.588H107.5ZM106.342 25.0389C105.466 23.9289 104.037 23.5299 102.428 23.5299V25.6701C103.758 25.6701 104.378 26.0058 104.662 26.3651L106.342 25.0389ZM102.428 23.5299H100.224V25.6701H102.428V23.5299ZM99.1539 24.6V42H101.294V24.6H99.1539ZM100.224 40.9299H93.8441V43.0701H100.224V40.9299ZM94.9142 42V1.4H92.7739V42H94.9142ZM102.544 19.8701C103.991 19.8701 105.273 19.4961 106.165 18.5474L104.607 17.0806C104.262 17.4466 103.65 17.7299 102.544 17.7299V19.8701ZM106.143 18.5707C107.099 17.6145 107.442 16.1602 107.442 14.508H105.302C105.302 15.9491 104.988 16.6988 104.629 17.0573L106.143 18.5707ZM107.442 14.508V11.376H105.302V14.508H107.442ZM107.442 11.376C107.442 9.8217 107.165 8.4511 106.386 7.5057L104.734 8.8663C105.038 9.23556 105.302 9.99162 105.302 11.376H107.442ZM106.41 7.53594C105.639 6.52696 104.452 6.12985 103.124 6.12985V8.27015C104.039 8.27015 104.476 8.53037 104.71 8.83606L106.41 7.53594ZM103.124 6.12985H100.224V8.27015H103.124V6.12985ZM99.1539 7.2V18.8H101.294V7.2H99.1539ZM100.224 19.8701H102.544V17.7299H100.224V19.8701ZM144.506 1.4V0.329848H143.436V1.4H144.506ZM161.036 3.952L160.253 4.68155V4.68155L161.036 3.952ZM161.036 22.918L160.253 22.1884L161.036 22.918ZM150.886 25.47V24.3998H149.816V25.47H150.886ZM150.886 42V43.0701H151.956V42H150.886ZM144.506 42H143.436V43.0701H144.506V42ZM156.222 18.8L155.439 18.0698L155.426 18.0842L155.413 18.0991L156.222 18.8ZM156.222 8.07L155.413 8.77087L155.426 8.78577L155.439 8.80018L156.222 8.07ZM150.886 7.2V6.12985H149.816V7.2H150.886ZM150.886 19.67H149.816V20.7401H150.886V19.67ZM144.506 2.47015H153.902V0.329848H144.506V2.47015ZM153.902 2.47015C156.887 2.47015 158.935 3.2676 160.253 4.68155L161.819 3.22245C159.966 1.23373 157.257 0.329848 153.902 0.329848V2.47015ZM160.253 4.68155C161.589 6.11577 162.344 8.3061 162.344 11.434H164.484C164.484 7.98856 163.653 5.19089 161.819 3.22245L160.253 4.68155ZM162.344 11.434V15.436H164.484V11.434H162.344ZM162.344 15.436C162.344 18.5639 161.589 20.7542 160.253 22.1884L161.819 23.6475C163.653 21.6791 164.484 18.8814 164.484 15.436H162.344ZM160.253 22.1884C158.935 23.6024 156.887 24.3998 153.902 24.3998V26.5401C157.257 26.5401 159.966 25.6363 161.819 23.6475L160.253 22.1884ZM153.902 24.3998H150.886V26.5401H153.902V24.3998ZM149.816 25.47V42H151.956V25.47H149.816ZM150.886 40.9299H144.506V43.0701H150.886V40.9299ZM145.576 42V1.4H143.436V42H145.576ZM153.902 20.7401C155.139 20.7401 156.259 20.3915 157.03 19.5009L155.413 18.0991C155.18 18.3685 154.753 18.5998 153.902 18.5998V20.7401ZM157.004 19.5302C157.827 18.6481 158.104 17.3179 158.104 15.842H155.964C155.964 17.1501 155.699 17.7919 155.439 18.0698L157.004 19.5302ZM158.104 15.842V11.028H155.964V15.842H158.104ZM158.104 11.028C158.104 9.55206 157.827 8.2219 157.004 7.33982L155.439 8.80018C155.699 9.0781 155.964 9.71993 155.964 11.028H158.104ZM157.03 7.36912C156.259 6.47846 155.139 6.12985 153.902 6.12985V8.27015C154.753 8.27015 155.18 8.50154 155.413 8.77087L157.03 7.36912ZM153.902 6.12985H150.886V8.27015H153.902V6.12985ZM149.816 7.2V19.67H151.956V7.2H149.816ZM150.886 20.7401H153.902V18.5998H150.886V20.7401ZM177.899 39.912L178.681 39.1812L177.899 39.912ZM177.899 3.488L178.681 4.21879L177.899 3.488ZM192.283 3.488L191.501 4.21879V4.21879L192.283 3.488ZM192.283 39.912L191.501 39.1812L192.283 39.912ZM185.091 41.5098C182.165 41.5098 180.087 40.6856 178.681 39.1812L177.117 40.6428C179.036 42.6958 181.752 43.6502 185.091 43.6502V41.5098ZM178.681 39.1812C177.258 37.6594 176.475 35.4413 176.475 32.372H174.335C174.335 35.7987 175.214 38.6072 177.117 40.6428L178.681 39.1812ZM176.475 32.372V11.028H174.335V32.372H176.475ZM176.475 11.028C176.475 7.95868 177.258 5.74056 178.681 4.21879L177.117 2.75721C175.214 4.79277 174.335 7.60132 174.335 11.028H176.475ZM178.681 4.21879C180.087 2.71443 182.165 1.89015 185.091 1.89015V-0.250152C181.752 -0.250152 179.036 0.70423 177.117 2.75721L178.681 4.21879ZM185.091 1.89015C188.016 1.89015 190.095 2.71443 191.501 4.21879L193.065 2.75721C191.145 0.70423 188.429 -0.250152 185.091 -0.250152V1.89015ZM191.501 4.21879C192.924 5.74056 193.707 7.95868 193.707 11.028H195.847C195.847 7.60132 194.967 4.79277 193.065 2.75721L191.501 4.21879ZM193.707 11.028V32.372H195.847V11.028H193.707ZM193.707 32.372C193.707 35.4413 192.924 37.6594 191.501 39.1812L193.065 40.6428C194.967 38.6072 195.847 35.7987 195.847 32.372H193.707ZM191.501 39.1812C190.095 40.6856 188.016 41.5098 185.091 41.5098V43.6502C188.429 43.6502 191.145 42.6958 193.065 40.6428L191.501 39.1812ZM185.091 37.8501C186.417 37.8501 187.588 37.4389 188.395 36.4611C189.171 35.5224 189.467 34.2325 189.467 32.778H187.327C187.327 33.9915 187.072 34.7026 186.745 35.0979C186.451 35.4541 185.968 35.7099 185.091 35.7099V37.8501ZM189.467 32.778V10.622H187.327V32.778H189.467ZM189.467 10.622C189.467 9.16748 189.171 7.87759 188.395 6.93894C187.588 5.96114 186.417 5.54985 185.091 5.54985V7.69015C185.968 7.69015 186.451 7.94586 186.745 8.30206C187.072 8.69741 187.327 9.40851 187.327 10.622H189.467ZM185.091 5.54985C183.764 5.54985 182.594 5.96114 181.786 6.93894C181.011 7.87759 180.715 9.16748 180.715 10.622H182.855C182.855 9.40851 183.11 8.69741 183.436 8.30206C183.731 7.94586 184.213 7.69015 185.091 7.69015V5.54985ZM180.715 10.622V32.778H182.855V10.622H180.715ZM180.715 32.778C180.715 34.2325 181.011 35.5224 181.786 36.4611C182.594 37.4389 183.764 37.8501 185.091 37.8501V35.7099C184.213 35.7099 183.731 35.4541 183.436 35.0979C183.11 34.7026 182.855 33.9915 182.855 32.778H180.715ZM212.843 7.2H213.913V6.12985H212.843V7.2ZM206.173 7.2H205.103V8.27015H206.173V7.2ZM206.173 1.4V0.329848H205.103V1.4H206.173ZM225.893 1.4H226.963V0.329848H225.893V1.4ZM225.893 7.2V8.27015H226.963V7.2H225.893ZM219.223 7.2V6.12985H218.153V7.2H219.223ZM219.223 42V43.0701H220.293V42H219.223ZM212.843 42H211.773V43.0701H212.843V42ZM212.843 6.12985H206.173V8.27015H212.843V6.12985ZM207.243 7.2V1.4H205.103V7.2H207.243ZM206.173 2.47015H225.893V0.329848H206.173V2.47015ZM224.823 1.4V7.2H226.963V1.4H224.823ZM225.893 6.12985H219.223V8.27015H225.893V6.12985ZM218.153 7.2V42H220.293V7.2H218.153ZM219.223 40.9299H212.843V43.0701H219.223V40.9299ZM213.913 42V7.2H211.773V42H213.913ZM239.248 39.97L238.449 40.6821L238.457 40.6907L239.248 39.97ZM236.87 30.052V28.9818H235.8V30.052H236.87ZM242.902 30.052H243.972V28.9818H242.902V30.052ZM248.644 35.852L247.841 35.144L247.838 35.1473L248.644 35.852ZM248.354 28.254L247.431 28.7966L247.439 28.8087L248.354 28.254ZM244.062 23.556L243.354 24.3585L243.359 24.3632L244.062 23.556ZM238.552 17.292L237.615 17.8085L237.619 17.8167L238.552 17.292ZM239.422 3.488L240.204 4.21822L240.212 4.20957L239.422 3.488ZM253.4 3.488L252.592 4.19021L252.6 4.19957L252.609 4.20873L253.4 3.488ZM255.778 12.71V13.7801H256.848V12.71H255.778ZM249.746 12.71H248.676V13.7801H249.746V12.71ZM248.934 7.606L248.108 8.2863L248.118 8.29865L248.128 8.31069L248.934 7.606ZM244.526 14.624L243.611 15.1787L243.617 15.1887L243.623 15.1985L244.526 14.624ZM248.876 19.264L248.173 20.0712L248.174 20.0715L248.876 19.264ZM254.386 25.586L253.441 26.0876L254.386 25.586ZM253.4 39.912L252.618 39.1812L252.61 39.1904L253.4 39.912ZM246.266 41.5098C243.374 41.5098 241.363 40.7024 240.039 39.2493L238.457 40.6907C240.304 42.7176 242.971 43.6502 246.266 43.6502V41.5098ZM240.047 39.258C238.693 37.7389 237.94 35.496 237.94 32.372H235.8C235.8 35.8213 236.632 38.6437 238.449 40.682L240.047 39.258ZM237.94 32.372V30.052H235.8V32.372H237.94ZM236.87 31.1221H242.902V28.9818H236.87V31.1221ZM241.832 30.052V32.836H243.972V30.052H241.832ZM241.832 32.836C241.832 34.2741 242.129 35.552 242.908 36.4815C243.718 37.4471 244.886 37.8501 246.208 37.8501V35.7099C245.325 35.7099 244.841 35.4556 244.548 35.1065C244.226 34.7213 243.972 34.0272 243.972 32.836H241.832ZM246.208 37.8501C247.495 37.8501 248.645 37.4757 249.449 36.5567L247.838 35.1473C247.56 35.4657 247.086 35.7099 246.208 35.7099V37.8501ZM249.446 36.56C250.279 35.6161 250.584 34.257 250.584 32.72H248.444C248.444 34.0444 248.169 34.7732 247.841 35.144L249.446 36.56ZM250.584 32.72C250.584 30.8511 250.157 29.165 249.269 27.6993L247.439 28.8087C248.097 29.895 248.444 31.1862 248.444 32.72H250.584ZM249.276 27.7114C248.415 26.2471 246.881 24.5907 244.764 22.7488L243.359 24.3632C245.419 26.1559 246.746 27.6316 247.431 28.7966L249.276 27.7114ZM244.77 22.7536C242.18 20.4685 240.444 18.473 239.485 16.7673L237.619 17.8167C238.748 19.8229 240.685 22.0035 243.354 24.3584L244.77 22.7536ZM239.489 16.7755C238.54 15.0531 238.056 13.1068 238.056 10.912H235.916C235.916 13.4345 236.476 15.7416 237.615 17.8085L239.489 16.7755ZM238.056 10.912C238.056 7.87756 238.822 5.69942 240.204 4.21818L238.639 2.75782C236.774 4.75658 235.916 7.52777 235.916 10.912H238.056ZM240.212 4.20957C241.579 2.71217 243.614 1.89015 246.498 1.89015V-0.250152C243.195 -0.250152 240.512 0.706491 238.632 2.76643L240.212 4.20957ZM246.498 1.89015C249.341 1.89015 251.305 2.71018 252.592 4.19021L254.207 2.78579C252.401 0.708482 249.764 -0.250152 246.498 -0.250152V1.89015ZM252.609 4.20873C253.954 5.68534 254.708 7.9021 254.708 11.028H256.848C256.848 7.58057 256.016 4.77066 254.191 2.76726L252.609 4.20873ZM254.708 11.028V12.71H256.848V11.028H254.708ZM255.778 11.6399H249.746V13.7801H255.778V11.6399ZM250.816 12.71V10.622H248.676V12.71H250.816ZM250.816 10.622C250.816 9.13637 250.535 7.8113 249.739 6.9013L248.128 8.31069C248.415 8.63803 248.676 9.32363 248.676 10.622H250.816ZM249.76 6.92569C248.97 5.96619 247.84 5.54985 246.556 5.54985V7.69015C247.359 7.69015 247.815 7.93114 248.108 8.2863L249.76 6.92569ZM246.556 5.54985C245.266 5.54985 244.124 5.95297 243.336 6.9125C242.582 7.83159 242.296 9.09139 242.296 10.506H244.436C244.436 9.32994 244.682 8.64674 244.99 8.2705C245.266 7.93469 245.719 7.69015 246.556 7.69015V5.54985ZM242.296 10.506C242.296 12.1741 242.738 13.7381 243.611 15.1787L245.441 14.0693C244.767 12.9579 244.436 11.7766 244.436 10.506H242.296ZM243.623 15.1985C244.518 16.6054 246.061 18.2325 248.173 20.0712L249.578 18.4568C247.515 16.6609 246.157 15.1946 245.429 14.0495L243.623 15.1985ZM248.174 20.0715C250.798 22.3539 252.524 24.3601 253.441 26.0876L255.331 25.0844C254.237 23.0226 252.289 20.8141 249.578 18.4565L248.174 20.0715ZM253.441 26.0876C254.35 27.801 254.824 29.8458 254.824 32.256H256.964C256.964 29.5622 256.433 27.1604 255.331 25.0844L253.441 26.0876ZM254.824 32.256C254.824 35.4106 254.037 37.6637 252.618 39.1812L254.182 40.6428C256.088 38.6029 256.964 35.7521 256.964 32.256H254.824ZM252.61 39.1904C251.245 40.6851 249.193 41.5098 246.266 41.5098V43.6502C249.603 43.6502 252.307 42.6962 254.19 40.6336L252.61 39.1904ZM0.378 71.4V70.3298H-0.692149V71.4H0.378ZM17.256 71.4H18.3262V70.3298H17.256V71.4ZM17.256 77.2V78.2701H18.3262V77.2H17.256ZM6.758 77.2V76.1299H5.68785V77.2H6.758ZM6.758 88.51H5.68785V89.5801H6.758V88.51ZM14.994 88.51H16.0641V87.4398H14.994V88.51ZM14.994 94.31V95.3801H16.0641V94.31H14.994ZM6.758 94.31V93.2399H5.68785V94.31H6.758ZM6.758 112V113.07H7.82815V112H6.758ZM0.378 112H-0.692149V113.07H0.378V112ZM0.378 72.4701H17.256V70.3298H0.378V72.4701ZM16.1859 71.4V77.2H18.3262V71.4H16.1859ZM17.256 76.1299H6.758V78.2701H17.256V76.1299ZM5.68785 77.2V88.51H7.82815V77.2H5.68785ZM6.758 89.5801H14.994V87.4398H6.758V89.5801ZM13.9239 88.51V94.31H16.0641V88.51H13.9239ZM14.994 93.2399H6.758V95.3801H14.994V93.2399ZM5.68785 94.31V112H7.82815V94.31H5.68785ZM6.758 110.93H0.378V113.07H6.758V110.93ZM1.44815 112V71.4H-0.692149V112H1.44815ZM29.3055 71.4V70.3298H28.2353V71.4H29.3055ZM46.7055 71.4H47.7757V70.3298H46.7055V71.4ZM46.7055 77.2V78.2701H47.7757V77.2H46.7055ZM35.6855 77.2V76.1299H34.6154V77.2H35.6855ZM35.6855 87.93H34.6154V89.0001H35.6855V87.93ZM44.4435 87.93H45.5136V86.8598H44.4435V87.93ZM44.4435 93.73V94.8001H45.5136V93.73H44.4435ZM35.6855 93.73V92.6599H34.6154V93.73H35.6855ZM35.6855 106.2H34.6154V107.27H35.6855V106.2ZM46.7055 106.2H47.7757V105.13H46.7055V106.2ZM46.7055 112V113.07H47.7757V112H46.7055ZM29.3055 112H28.2353V113.07H29.3055V112ZM29.3055 72.4701H46.7055V70.3298H29.3055V72.4701ZM45.6354 71.4V77.2H47.7757V71.4H45.6354ZM46.7055 76.1299H35.6855V78.2701H46.7055V76.1299ZM34.6154 77.2V87.93H36.7556V77.2H34.6154ZM35.6855 89.0001H44.4435V86.8598H35.6855V89.0001ZM43.3734 87.93V93.73H45.5136V87.93H43.3734ZM44.4435 92.6599H35.6855V94.8001H44.4435V92.6599ZM34.6154 93.73V106.2H36.7556V93.73H34.6154ZM35.6855 107.27H46.7055V105.13H35.6855V107.27ZM45.6354 106.2V112H47.7757V106.2H45.6354ZM46.7055 110.93H29.3055V113.07H46.7055V110.93ZM30.3756 112V71.4H28.2353V112H30.3756ZM64.2958 71.4V70.3298H63.3858L63.2396 71.228L64.2958 71.4ZM72.9378 71.4L73.994 71.228L73.8478 70.3298H72.9378V71.4ZM79.5498 112V113.07H80.8083L80.606 111.828L79.5498 112ZM73.1698 112L72.1106 112.152L72.2426 113.07H73.1698V112ZM72.0098 103.938L73.0691 103.786L70.9397 103.938H72.0098ZM72.0098 104.054V105.124H73.08V104.054H72.0098ZM64.7598 104.054V102.984H63.8345L63.7009 103.899L64.7598 104.054ZM63.5998 112V113.07H64.5251L64.6587 112.155L63.5998 112ZM57.6838 112L56.6276 111.828L56.4253 113.07H57.6838V112ZM71.2558 98.544V99.6142H72.4882L72.3154 98.3939L71.2558 98.544ZM68.4138 78.476L69.4734 78.3259L69.3431 77.4059H68.4138V78.476ZM68.2978 78.476V77.4059H67.3659L67.2378 78.3289L68.2978 78.476ZM65.5138 98.544L64.4538 98.3969L64.285 99.6142H65.5138V98.544ZM64.2958 72.4701H72.9378V70.3298H64.2958V72.4701ZM71.8816 71.572L78.4936 112.172L80.606 111.828L73.994 71.228L71.8816 71.572ZM79.5498 110.93H73.1698V113.07H79.5498V110.93ZM74.2291 111.848L73.0691 103.786L70.9506 104.09L72.1106 112.152L74.2291 111.848ZM70.9397 103.938V104.054H73.08V103.938H70.9397ZM72.0098 102.984H64.7598V105.124H72.0098V102.984ZM63.7009 103.899L62.5409 111.845L64.6587 112.155L65.8187 104.209L63.7009 103.899ZM63.5998 110.93H57.6838V113.07H63.5998V110.93ZM58.74 112.172L65.352 71.572L63.2396 71.228L56.6276 111.828L58.74 112.172ZM72.3154 98.3939L69.4734 78.3259L67.3542 78.6261L70.1962 98.6941L72.3154 98.3939ZM68.4138 77.4059H68.2978V79.5462H68.4138V77.4059ZM67.2378 78.3289L64.4538 98.3969L66.5738 98.691L69.3578 78.6231L67.2378 78.3289ZM65.5138 99.6142H71.2558V97.4738H65.5138V99.6142ZM93.961 77.2H95.0312V76.1299H93.961V77.2ZM87.291 77.2H86.2209V78.2701H87.291V77.2ZM87.291 71.4V70.3298H86.2209V71.4H87.291ZM107.011 71.4H108.081V70.3298H107.011V71.4ZM107.011 77.2V78.2701H108.081V77.2H107.011ZM100.341 77.2V76.1299H99.2709V77.2H100.341ZM100.341 112V113.07H101.411V112H100.341ZM93.961 112H92.8909V113.07H93.961V112ZM93.961 76.1299H87.291V78.2701H93.961V76.1299ZM88.3612 77.2V71.4H86.2209V77.2H88.3612ZM87.291 72.4701H107.011V70.3298H87.291V72.4701ZM105.941 71.4V77.2H108.081V71.4H105.941ZM107.011 76.1299H100.341V78.2701H107.011V76.1299ZM99.2709 77.2V112H101.411V77.2H99.2709ZM100.341 110.93H93.961V113.07H100.341V110.93ZM95.0312 112V77.2H92.8909V112H95.0312ZM121.294 109.97L120.504 110.692L120.512 110.7L121.294 109.97ZM118.858 71.4V70.3298H117.788V71.4H118.858ZM125.238 71.4H126.308V70.3298H125.238V71.4ZM126.05 105.852L125.245 106.557L125.257 106.571L125.269 106.584L126.05 105.852ZM130.864 105.852L130.083 105.12L130.071 105.133L130.059 105.147L130.864 105.852ZM131.734 71.4V70.3298H130.664V71.4H131.734ZM137.882 71.4H138.952V70.3298H137.882V71.4ZM135.446 109.97L136.228 110.7L136.236 110.692L135.446 109.97ZM128.37 111.51C125.48 111.51 123.442 110.703 122.076 109.24L120.512 110.7C122.394 112.717 125.074 113.65 128.37 113.65V111.51ZM122.084 109.248C120.697 107.729 119.928 105.49 119.928 102.372H117.788C117.788 105.827 118.643 108.653 120.504 110.692L122.084 109.248ZM119.928 102.372V71.4H117.788V102.372H119.928ZM118.858 72.4701H125.238V70.3298H118.858V72.4701ZM124.168 71.4V102.836H126.308V71.4H124.168ZM124.168 102.836C124.168 104.322 124.448 105.647 125.245 106.557L126.855 105.147C126.569 104.82 126.308 104.134 126.308 102.836H124.168ZM125.269 106.584C126.097 107.467 127.219 107.85 128.486 107.85V105.71C127.664 105.71 127.163 105.475 126.831 105.12L125.269 106.584ZM128.486 107.85C129.749 107.85 130.872 107.467 131.669 106.557L130.059 105.147C129.773 105.474 129.311 105.71 128.486 105.71V107.85ZM131.645 106.584C132.499 105.673 132.804 104.335 132.804 102.836H130.664C130.664 104.121 130.389 104.794 130.083 105.12L131.645 106.584ZM132.804 102.836V71.4H130.664V102.836H132.804ZM131.734 72.4701H137.882V70.3298H131.734V72.4701ZM136.812 71.4V102.372H138.952V71.4H136.812ZM136.812 102.372C136.812 105.49 136.043 107.729 134.656 109.248L136.236 110.692C138.097 108.653 138.952 105.827 138.952 102.372H136.812ZM134.664 109.24C133.298 110.703 131.26 111.51 128.37 111.51V113.65C131.666 113.65 134.346 112.717 136.228 110.7L134.664 109.24ZM151.416 71.4V70.3298H150.346V71.4H151.416ZM168.062 73.72L167.296 74.4671L167.305 74.4767L168.062 73.72ZM166.148 91.236L165.748 90.2433L165.078 90.5133V91.236H166.148ZM166.148 91.352H165.078V92.1482L165.84 92.377L166.148 91.352ZM169.396 94.194L168.414 94.6188L168.418 94.6298L168.423 94.6408L169.396 94.194ZM170.498 109.912L169.434 110.024L169.434 110.03L170.498 109.912ZM171.078 112V113.07H172.725L172.056 111.565L171.078 112ZM164.582 112L163.573 112.356L163.825 113.07H164.582V112ZM163.074 95.702L162.234 96.3651L162.244 96.3784L162.255 96.3913L163.074 95.702ZM157.796 94.6V93.5298H156.726V94.6H157.796ZM157.796 112V113.07H158.866V112H157.796ZM151.416 112H150.346V113.07H151.416V112ZM162.958 87.814L162.201 87.0573L162.19 87.0687L162.179 87.0806L162.958 87.814ZM163.132 78.186L162.282 78.8361L162.294 78.8514L162.306 78.8663L163.132 78.186ZM157.796 77.2V76.1299H156.726V77.2H157.796ZM157.796 88.8H156.726V89.8701H157.796V88.8ZM151.416 72.4701H160.87V70.3298H151.416V72.4701ZM160.87 72.4701C164.016 72.4701 166.073 73.2134 167.296 74.4671L168.828 72.9729C167.034 71.1333 164.297 70.3298 160.87 70.3298V72.4701ZM167.305 74.4767C168.533 75.7044 169.254 77.7141 169.254 80.738H171.394C171.394 77.4205 170.607 74.7516 168.819 72.9633L167.305 74.4767ZM169.254 80.738V83.232H171.394V80.738H169.254ZM169.254 83.232C169.254 85.232 168.922 86.7666 168.331 87.899C167.753 89.0077 166.903 89.7782 165.748 90.2433L166.548 92.2287C168.177 91.5725 169.415 90.4483 170.229 88.889C171.03 87.3534 171.394 85.4466 171.394 83.232H169.254ZM165.078 91.236V91.352H167.218V91.236H165.078ZM165.84 92.377C167.097 92.754 167.925 93.4897 168.414 94.6188L170.378 93.7692C169.629 92.037 168.292 90.878 166.455 90.327L165.84 92.377ZM168.423 94.6408C168.992 95.8774 169.312 97.6199 169.312 99.936H171.452C171.452 97.4574 171.115 95.3719 170.368 93.7472L168.423 94.6408ZM169.312 99.936V107.07H171.452V99.936H169.312ZM169.312 107.07C169.312 108.249 169.351 109.237 169.434 110.024L171.562 109.8C171.49 109.117 171.452 108.211 171.452 107.07H169.312ZM169.434 110.03C169.525 110.845 169.75 111.647 170.1 112.435L172.056 111.565C171.787 110.961 171.626 110.371 171.561 109.794L169.434 110.03ZM171.078 110.93H164.582V113.07H171.078V110.93ZM165.591 111.644C165.379 111.043 165.245 110.497 165.179 110.003L163.057 110.285C163.146 110.951 163.321 111.642 163.573 112.356L165.591 111.644ZM165.179 110.003C165.112 109.502 165.072 108.524 165.072 107.012H162.932C162.932 108.516 162.969 109.626 163.057 110.285L165.179 110.003ZM165.072 107.012V99.588H162.932V107.012H165.072ZM165.072 99.588C165.072 97.6826 164.769 96.053 163.892 95.0127L162.255 96.3913C162.617 96.8203 162.932 97.7814 162.932 99.588H165.072ZM163.914 95.0389C163.038 93.9289 161.609 93.5298 160 93.5298V95.6702C161.33 95.6702 161.95 96.0058 162.234 96.3651L163.914 95.0389ZM160 93.5298H157.796V95.6702H160V93.5298ZM156.726 94.6V112H158.866V94.6H156.726ZM157.796 110.93H151.416V113.07H157.796V110.93ZM152.486 112V71.4H150.346V112H152.486ZM160.116 89.8701C161.562 89.8701 162.844 89.4961 163.737 88.5474L162.179 87.0806C161.834 87.4466 161.221 87.7299 160.116 87.7299V89.8701ZM163.715 88.5707C164.671 87.6145 165.014 86.1602 165.014 84.508H162.874C162.874 85.9491 162.56 86.6988 162.201 87.0573L163.715 88.5707ZM165.014 84.508V81.376H162.874V84.508H165.014ZM165.014 81.376C165.014 79.8217 164.737 78.4511 163.958 77.5057L162.306 78.8663C162.61 79.2356 162.874 79.9916 162.874 81.376H165.014ZM163.982 77.5359C163.21 76.527 162.023 76.1299 160.696 76.1299V78.2701C161.611 78.2701 162.048 78.5304 162.282 78.8361L163.982 77.5359ZM160.696 76.1299H157.796V78.2701H160.696V76.1299ZM156.726 77.2V88.8H158.866V77.2H156.726ZM157.796 89.8701H160.116V87.7299H157.796V89.8701ZM183.798 71.4V70.3298H182.728V71.4H183.798ZM201.198 71.4H202.269V70.3298H201.198V71.4ZM201.198 77.2V78.2701H202.269V77.2H201.198ZM190.178 77.2V76.1299H189.108V77.2H190.178ZM190.178 87.93H189.108V89.0001H190.178V87.93ZM198.936 87.93H200.007V86.8598H198.936V87.93ZM198.936 93.73V94.8001H200.007V93.73H198.936ZM190.178 93.73V92.6599H189.108V93.73H190.178ZM190.178 106.2H189.108V107.27H190.178V106.2ZM201.198 106.2H202.269V105.13H201.198V106.2ZM201.198 112V113.07H202.269V112H201.198ZM183.798 112H182.728V113.07H183.798V112ZM183.798 72.4701H201.198V70.3298H183.798V72.4701ZM200.128 71.4V77.2H202.269V71.4H200.128ZM201.198 76.1299H190.178V78.2701H201.198V76.1299ZM189.108 77.2V87.93H191.249V77.2H189.108ZM190.178 89.0001H198.936V86.8598H190.178V89.0001ZM197.866 87.93V93.73H200.007V87.93H197.866ZM198.936 92.6599H190.178V94.8001H198.936V92.6599ZM189.108 93.73V106.2H191.249V93.73H189.108ZM190.178 107.27H201.198V105.13H190.178V107.27ZM200.128 106.2V112H202.269V106.2H200.128ZM201.198 110.93H183.798V113.07H201.198V110.93ZM184.869 112V71.4H182.728V112H184.869ZM215.248 109.97L214.449 110.682L214.457 110.691L215.248 109.97ZM212.87 100.052V98.9818H211.8V100.052H212.87ZM218.902 100.052H219.972V98.9818H218.902V100.052ZM224.644 105.852L223.842 105.144L223.839 105.147L224.644 105.852ZM224.354 98.254L223.432 98.7966L223.439 98.8087L224.354 98.254ZM220.062 93.556L219.354 94.3585L219.359 94.3632L220.062 93.556ZM214.552 87.292L213.615 87.8085L213.619 87.8167L214.552 87.292ZM215.422 73.488L216.204 74.2182L216.212 74.2096L215.422 73.488ZM229.4 73.488L228.593 74.1902L228.601 74.1996L228.609 74.2087L229.4 73.488ZM231.778 82.71V83.7802H232.848V82.71H231.778ZM225.746 82.71H224.676V83.7802H225.746V82.71ZM224.934 77.606L224.108 78.2863L224.118 78.2987L224.129 78.3107L224.934 77.606ZM220.526 84.624L219.611 85.1787L219.617 85.1887L219.623 85.1985L220.526 84.624ZM224.876 89.264L224.173 90.0712L224.174 90.0715L224.876 89.264ZM230.386 95.586L229.441 96.0876L230.386 95.586ZM229.4 109.912L228.618 109.181L228.61 109.19L229.4 109.912ZM222.266 111.51C219.374 111.51 217.363 110.702 216.039 109.249L214.457 110.691C216.304 112.718 218.971 113.65 222.266 113.65V111.51ZM216.047 109.258C214.693 107.739 213.94 105.496 213.94 102.372H211.8C211.8 105.821 212.632 108.644 214.449 110.682L216.047 109.258ZM213.94 102.372V100.052H211.8V102.372H213.94ZM212.87 101.122H218.902V98.9818H212.87V101.122ZM217.832 100.052V102.836H219.972V100.052H217.832ZM217.832 102.836C217.832 104.274 218.129 105.552 218.908 106.481C219.718 107.447 220.887 107.85 222.208 107.85V105.71C221.325 105.71 220.841 105.456 220.549 105.107C220.226 104.721 219.972 104.027 219.972 102.836H217.832ZM222.208 107.85C223.496 107.85 224.645 107.476 225.449 106.557L223.839 105.147C223.56 105.466 223.086 105.71 222.208 105.71V107.85ZM225.446 106.56C226.279 105.616 226.584 104.257 226.584 102.72H224.444C224.444 104.044 224.169 104.773 223.842 105.144L225.446 106.56ZM226.584 102.72C226.584 100.851 226.158 99.165 225.269 97.6993L223.439 98.8087C224.097 99.895 224.444 101.186 224.444 102.72H226.584ZM225.276 97.7114C224.415 96.2471 222.881 94.5907 220.765 92.7488L219.359 94.3632C221.419 96.1559 222.746 97.6316 223.432 98.7966L225.276 97.7114ZM220.77 92.7536C218.18 90.4685 216.444 88.473 215.485 86.7673L213.619 87.8167C214.748 89.8229 216.685 92.0035 219.354 94.3584L220.77 92.7536ZM215.489 86.7755C214.54 85.0531 214.056 83.1068 214.056 80.912H211.916C211.916 83.4345 212.476 85.7416 213.615 87.8085L215.489 86.7755ZM214.056 80.912C214.056 77.8776 214.822 75.6994 216.204 74.2182L214.64 72.7578C212.774 74.7566 211.916 77.5278 211.916 80.912H214.056ZM216.212 74.2096C217.58 72.7122 219.615 71.8901 222.498 71.8901V69.7498C219.195 69.7498 216.513 70.7065 214.632 72.7664L216.212 74.2096ZM222.498 71.8901C225.341 71.8901 227.306 72.7102 228.593 74.1902L230.208 72.7858C228.401 70.7085 225.765 69.7498 222.498 69.7498V71.8901ZM228.609 74.2087C229.954 75.6853 230.708 77.9021 230.708 81.028H232.848C232.848 77.5806 232.016 74.7707 230.191 72.7673L228.609 74.2087ZM230.708 81.028V82.71H232.848V81.028H230.708ZM231.778 81.6399H225.746V83.7802H231.778V81.6399ZM226.816 82.71V80.622H224.676V82.71H226.816ZM226.816 80.622C226.816 79.1364 226.536 77.8113 225.739 76.9013L224.129 78.3107C224.415 78.638 224.676 79.3236 224.676 80.622H226.816ZM225.76 76.9257C224.97 75.9662 223.84 75.5499 222.556 75.5499V77.6901C223.36 77.6901 223.815 77.9311 224.108 78.2863L225.76 76.9257ZM222.556 75.5499C221.266 75.5499 220.124 75.953 219.336 76.9125C218.582 77.8316 218.296 79.0914 218.296 80.506H220.436C220.436 79.3299 220.682 78.6467 220.991 78.2705C221.266 77.9347 221.72 77.6901 222.556 77.6901V75.5499ZM218.296 80.506C218.296 82.1741 218.738 83.7381 219.611 85.1787L221.441 84.0693C220.768 82.9579 220.436 81.7766 220.436 80.506H218.296ZM219.623 85.1985C220.518 86.6054 222.061 88.2325 224.173 90.0712L225.579 88.4568C223.515 86.6609 222.158 85.1946 221.429 84.0495L219.623 85.1985ZM224.174 90.0715C226.799 92.3539 228.524 94.3601 229.441 96.0876L231.331 95.0844C230.237 93.0226 228.29 90.8141 225.578 88.4565L224.174 90.0715ZM229.441 96.0876C230.35 97.801 230.824 99.8458 230.824 102.256H232.964C232.964 99.5622 232.433 97.1604 231.331 95.0844L229.441 96.0876ZM230.824 102.256C230.824 105.411 230.037 107.664 228.618 109.181L230.182 110.643C232.089 108.603 232.964 105.752 232.964 102.256H230.824ZM228.61 109.19C227.245 110.685 225.193 111.51 222.266 111.51V113.65C225.603 113.65 228.307 112.696 230.19 110.634L228.61 109.19Z" fill="#03839E"/>
</svg>
